<svg enable-background="new 0 0 891.9 770" viewBox="0 0 891.9 770" xmlns="http://www.w3.org/2000/svg"><path d="m44.9 113.4h654v54.9h-654z" fill="#71efc3"/><path d="m378.9 182.2h320.1v54.9h-320.1z" fill="#641fe1"/><path d="m379 526.1h97.5v54.9h-97.5z" fill="#eed9cc"/><path d="m434.7 594.8h41.8v54.9h-41.8z" fill="#1caefc"/><path d="m379 594.8h41.8v54.9h-41.8z" fill="#1caefc"/><path d="m546.1 594.8h41.8v54.9h-41.8z" fill="#1caefc"/><path d="m490.3 594.8h41.8v54.9h-41.8z" fill="#1caefc"/><path d="m657.5 594.8h41.8v54.9h-41.8z" fill="#1caefc"/><path d="m601.8 594.8h41.8v54.9h-41.8z" fill="#1caefc"/><path d="m100.4 594.8h41.8v54.9h-41.8z" fill="#1caefc"/><path d="m44.7 594.8h41.8v54.9h-41.8z" fill="#1caefc"/><path d="m211.8 594.8h41.8v54.9h-41.8z" fill="#1caefc"/><path d="m156.1 594.8h41.8v54.9h-41.8z" fill="#1caefc"/><path d="m323.3 594.8h41.8v54.9h-41.8z" fill="#1caefc"/><path d="m268.2 594.8h41.2v54.9h-41.2z" fill="#1caefc"/><path d="m601.6 526.1h97.5v54.9h-97.5z" fill="#eed9cc"/><path d="m490.3 526.1h97.5v54.9h-97.5z" fill="#eed9cc"/><path d="m44.9 526.1h97.5v54.9h-97.5z" fill="#eed9cc"/><path d="m268.2 526.1h96.9v54.9h-96.9z" fill="#eed9cc"/><path d="m156.2 526.1h97.5v54.9h-97.5z" fill="#eed9cc"/><path d="m44.9 457.3h153.1v54.9h-153.1z" fill="#fd92f3"/><path d="m211.9 457.3h153.1v54.9h-153.1z" fill="#fd92f3"/><path d="m379 457.3h153.1v54.9h-153.1z" fill="#fd92f3"/><path d="m545.9 457.3h153.1v54.9h-153.1z" fill="#fd92f3"/><path d="m44.9 250.9h209.4v54.9h-209.4z" fill="#fec64e"/><path d="m44.9 319.7h209.4v54.9h-209.4z" fill="#fec64e"/><path d="m490.3 250.9h208.8v54.9h-208.8z" fill="#fec64e"/><path d="m490.3 388.5h208.8v54.9h-208.8z" fill="#fec64e"/><path d="m268.2 250.9h208.3v54.9h-208.3z" fill="#fec64e"/><path d="m268.2 319.7h430.8v54.9h-430.8z" fill="#f94d45"/><path d="m44.9 388.5h430.8v54.9h-430.8z" fill="#f74358"/><path d="m45.5 125.1h654.2v48.2h-654.2z" fill="none"/><g enable-background="new" fill="#151c3a"><path d="m358.9 126.8h10.7v23.2h5.4v4.8h-16.4v-4.8h5.4v-18.4h-5.1z"/><path d="m378.7 150s4.7-4.2 8.3-7.5c3.5-3.3 4.3-5.4 4.3-7.6 0-1.9-1.3-3.6-3.7-3.6-2.1 0-3.7 1.3-3.7 3.3 0 .7.2 1.6.7 2.9l-5.1.9c-.8-1.6-1-3-1-4.3 0-3.9 3.3-7.8 9.2-7.8 6.1 0 9.4 4 9.4 8.2 0 3.3-1.1 6.5-7.9 12.5l-3.3 2.9h11.6v4.8h-18.6v-4.7z"/></g><path d="m45.5 182.2h319.6v54h-319.6z" fill="#641fe1"/><path d="m202 206.9c.4-.4 1.7-1.2 3.7-1.2 4.3 0 8.4 2.8 8.4 8.8 0 5.6-3.9 9.3-9.5 9.3-6 0-9.9-4.1-9.9-9.9 0-8.1 6-14.6 9.3-17.7l.9-.8h7.4l-.6.5c-2 1.8-7 6.4-10 11zm2.5 12.4c2.7 0 4-2.1 4-4.5 0-2.5-1.4-4.6-4-4.6-2.8 0-4.1 2.1-4.1 4.6 0 2.4 1.3 4.5 4.1 4.5z" fill="#151c3a"/><path d="m379.2 193.6h319.6v48.2h-319.6z" fill="none"/><path d="m535.7 206.9c.4-.4 1.7-1.2 3.7-1.2 4.3 0 8.4 2.8 8.4 8.8 0 5.6-3.9 9.3-9.5 9.3-6 0-9.9-4.1-9.9-9.9 0-8.1 6-14.6 9.3-17.7l.9-.8h7.4l-.6.5c-2 1.8-7 6.4-10 11zm2.5 12.4c2.7 0 4-2.1 4-4.5 0-2.5-1.4-4.6-4-4.6-2.8 0-4.1 2.1-4.1 4.6 0 2.4 1.3 4.5 4.1 4.5z" fill="#151c3a"/><path d="m490.3 262.1h208.5v48.2h-208.5z" fill="none"/><path d="m583 280 9.4-16.2h7.1v16.2h3.5v4.6h-3.5v7.2h-5.4v-7.2h-11.1zm4.8.1h6.4v-10.6h-.2z" fill="#151c3a"/><path d="m268.3 262.1h208.5v48.2h-208.5z" fill="none"/><path d="m361 280 9.4-16.2h7.1v16.2h3.5v4.6h-3.5v7.2h-5.4v-7.2h-11.1zm4.8.1h6.4v-10.6h-.2z" fill="#151c3a"/><path d="m45.4 262.1h208.5v48.2h-208.5z" fill="none"/><path d="m138.1 280 9.4-16.2h7.1v16.2h3.5v4.6h-3.5v7.2h-5.4v-7.2h-11.2v-4.6zm4.8.1h6.4v-10.6h-.3z" fill="#151c3a"/><path d="m45.4 330.7h208.5v48.2h-208.5z" fill="none"/><path d="m138.1 348.6 9.4-16.2h7.1v16.2h3.5v4.6h-3.5v7.2h-5.4v-7.2h-11.2v-4.6zm4.8 0h6.4v-10.6h-.3z" fill="#151c3a"/><path d="m490.5 399.2h208.5v48.2h-208.5z" fill="none"/><path d="m583.1 417.1 9.4-16.2h7.1v16.2h3.5v4.6h-3.5v7.2h-5.4v-7.2h-11.2v-4.6zm4.8.1h6.4v-10.6h-.2z" fill="#151c3a"/><path d="m546.1 469.3h152.9v48.2h-152.9z" fill="none"/><path d="m613.2 491v-1.2h5.7v1.2c0 2 .9 3.9 3.5 3.9s3.7-1.9 3.7-4.4c0-2.6-1.5-4.5-4.5-4.5-.8 0-2.4.1-2.9.3v-5l6.4-5.5h-10.5v-4.8h16.8v5.3l-7.2 5.8c4.6.1 7.8 3.8 7.8 8.2 0 5.4-3.8 9.1-9.4 9.1-6 .1-9.4-3.5-9.4-8.4z" fill="#151c3a"/><path d="m490.4 538.4h97.2v48.2h-97.2z" fill="none"/><path d="m530.3 563.3s4.7-4.2 8.3-7.5c3.5-3.3 4.3-5.4 4.3-7.6 0-1.9-1.3-3.6-3.7-3.6-2.1 0-3.7 1.3-3.7 3.3 0 .7.2 1.6.7 2.9l-5.1.9c-.8-1.6-1-3-1-4.3 0-3.9 3.3-7.8 9.2-7.8 6.1 0 9.4 4 9.4 8.2 0 3.3-1.1 6.5-7.9 12.5l-3.3 2.9h11.5v4.8h-18.6v-4.7z" fill="#151c3a"/><path d="m379.1 538.4h97.2v48.2h-97.2z" fill="none"/><path d="m419 563.3s4.7-4.2 8.3-7.5c3.5-3.3 4.3-5.4 4.3-7.6 0-1.9-1.3-3.6-3.7-3.6-2.1 0-3.7 1.3-3.7 3.3 0 .7.2 1.6.7 2.9l-5.1.9c-.8-1.6-1-3-1-4.3 0-3.9 3.3-7.8 9.2-7.8 6.1 0 9.4 4 9.4 8.2 0 3.3-1.1 6.5-7.9 12.5l-3.3 2.9h11.6v4.8h-18.8z" fill="#151c3a"/><path d="m267.7 539.1h97.2v48.2h-97.2z" fill="none"/><path d="m307.6 564s4.7-4.2 8.3-7.5c3.5-3.3 4.3-5.4 4.3-7.6 0-1.9-1.3-3.6-3.7-3.6-2.1 0-3.7 1.3-3.7 3.3 0 .7.2 1.6.7 2.9l-5.1.9c-.8-1.6-1-3-1-4.3 0-3.9 3.3-7.8 9.2-7.8 6.1 0 9.4 4 9.4 8.2 0 3.3-1.1 6.5-7.9 12.5l-3.3 2.9h11.6v4.8h-18.6v-4.7z" fill="#151c3a"/><path d="m156.3 538.4h97.2v48.2h-97.2z" fill="none"/><path d="m196.2 563.3s4.7-4.2 8.3-7.5c3.5-3.3 4.3-5.4 4.3-7.6 0-1.9-1.3-3.6-3.7-3.6-2.1 0-3.7 1.3-3.7 3.3 0 .7.2 1.6.7 2.9l-5.1.9c-.8-1.6-1-3-1-4.3 0-3.9 3.3-7.8 9.2-7.8 6.1 0 9.4 4 9.4 8.2 0 3.3-1.1 6.5-7.9 12.5l-3.3 2.9h11.6v4.8h-18.6v-4.7z" fill="#151c3a"/><path d="m45 538.4h97.2v48.2h-97.2z" fill="none"/><path d="m84.9 563.3s4.7-4.2 8.3-7.5c3.5-3.3 4.3-5.4 4.3-7.6 0-1.9-1.3-3.6-3.7-3.6-2.1 0-3.7 1.3-3.7 3.3 0 .7.2 1.6.7 2.9l-5.1.9c-.8-1.6-1-3-1-4.3 0-3.9 3.3-7.8 9.2-7.8 6.1 0 9.4 4 9.4 8.2 0 3.3-1.1 6.5-7.9 12.5l-3.3 2.9h11.6v4.8h-18.8z" fill="#151c3a"/><path d="m45.4 607.5h40.6v48.2h-40.6z" fill="none"/><path d="m58.3 609.2h10.7v23.2h5.4v4.8h-16.4v-4.8h5.4v-18.4h-5.1z" fill="#151c3a"/><path d="m100.8 607.5h40.6v48.2h-40.6z" fill="none"/><path d="m113.7 609.2h10.7v23.2h5.4v4.8h-16.4v-4.8h5.4v-18.4h-5.1z" fill="#151c3a"/><path d="m156.7 607.5h40.6v48.2h-40.6z" fill="none"/><path d="m169.7 609.2h10.7v23.2h5.4v4.8h-16.4v-4.8h5.4v-18.4h-5.1z" fill="#151c3a"/><path d="m212.4 607.5h40.6v48.2h-40.6z" fill="none"/><path d="m225.4 609.2h10.7v23.2h5.4v4.8h-16.4v-4.8h5.4v-18.4h-5.1z" fill="#151c3a"/><path d="m268.2 605.2h40.6v48.2h-40.6z" fill="none"/><path d="m281.1 606.9h10.7v23.2h5.4v4.8h-16.4v-4.8h5.4v-18.4h-5.1z" fill="#151c3a"/><path d="m323.9 605.2h40.6v48.2h-40.6z" fill="none"/><path d="m336.8 606.9h10.7v23.2h5.4v4.8h-16.4v-4.8h5.4v-18.4h-5.1z" fill="#151c3a"/><path d="m379.6 605.2h40.6v48.2h-40.6z" fill="none"/><path d="m392.5 606.9h10.7v23.2h5.4v4.8h-16.4v-4.8h5.4v-18.4h-5.1z" fill="#151c3a"/><path d="m435.3 605.2h40.6v48.2h-40.6z" fill="none"/><path d="m448.2 606.9h10.7v23.2h5.4v4.8h-16.4v-4.8h5.4v-18.4h-5.1z" fill="#151c3a"/><path d="m490.7 605.2h40.6v48.2h-40.6z" fill="none"/><path d="m503.6 606.9h10.7v23.2h5.4v4.8h-16.4v-4.8h5.4v-18.4h-5.1z" fill="#151c3a"/><path d="m546.3 605.2h40.6v48.2h-40.6z" fill="none"/><path d="m559.2 606.9h10.7v23.2h5.4v4.8h-16.4v-4.8h5.4v-18.4h-5.1z" fill="#151c3a"/><path d="m602 605.2h40.6v48.2h-40.6z" fill="none"/><path d="m614.9 606.9h10.7v23.2h5.4v4.8h-16.4v-4.8h5.4v-18.4h-5.1z" fill="#151c3a"/><path d="m658.1 605.2h40.6v48.2h-40.6z" fill="none"/><path d="m671 606.9h10.7v23.2h5.4v4.8h-16.4v-4.8h5.4v-18.4h-5.1z" fill="#151c3a"/><path d="m379.1 469.3h152.9v48.2h-152.9z" fill="none"/><path d="m446.2 491v-1.2h5.7v1.2c0 2 .9 3.9 3.5 3.9s3.7-1.9 3.7-4.4c0-2.6-1.5-4.5-4.5-4.5-.8 0-2.4.1-2.9.3v-5l6.4-5.5h-10.5v-4.8h16.8v5.3l-7.2 5.8c4.6.1 7.8 3.8 7.8 8.2 0 5.4-3.8 9.1-9.4 9.1-6 .1-9.4-3.5-9.4-8.4z" fill="#151c3a"/><path d="m212 469.3h152.9v48.2h-152.9z" fill="none"/><path d="m279.2 491v-1.2h5.7v1.2c0 2 .9 3.9 3.5 3.9s3.7-1.9 3.7-4.4c0-2.6-1.5-4.5-4.5-4.5-.8 0-2.4.1-2.9.3v-5l6.4-5.5h-10.5v-4.8h16.8v5.3l-7.2 5.8c4.6.1 7.8 3.8 7.8 8.2 0 5.4-3.8 9.1-9.4 9.1-6.1.1-9.4-3.5-9.4-8.4z" fill="#151c3a"/><path d="m44.9 469.3h152.9v48.2h-152.9z" fill="none"/><path d="m112.1 491v-1.2h5.7v1.2c0 2 .9 3.9 3.5 3.9s3.7-1.9 3.7-4.4c0-2.6-1.5-4.5-4.5-4.5-.8 0-2.4.1-2.9.3v-5l6.4-5.5h-10.5v-4.8h16.8v5.3l-7.2 5.8c4.6.1 7.8 3.8 7.8 8.2 0 5.4-3.8 9.1-9.4 9.1-6.1.1-9.4-3.5-9.4-8.4z" fill="#151c3a"/><path d="m267.8 330.7h431v48.2h-431z" fill="none"/><path d="m491.9 339.8c0 2.5-1.4 5-4 6.1 2.8 1.1 4.6 3.8 4.6 6.7 0 5.1-4 8.3-9.7 8.3-5.8 0-9.7-3.2-9.7-8.3 0-2.9 1.8-5.7 4.6-6.7-2.6-1.1-4-3.6-4-6.1 0-4.6 3.6-7.9 9.1-7.9s9.1 3.3 9.1 7.9zm-5 12.5c0-2-1.4-4-4.1-4s-4.1 1.9-4.1 4 1.4 4 4.1 4 4.1-1.9 4.1-4zm-.5-12.1c0-2-1.1-3.7-3.6-3.7-2.6 0-3.6 1.7-3.6 3.7s1.1 3.7 3.6 3.7c2.6 0 3.6-1.7 3.6-3.7z" fill="#151c3a"/><path d="m45.8 400.7h431v48.2h-431z" fill="#f94d45"/><path d="m269.9 409.8c0 2.5-1.4 5-4 6.1 2.8 1.1 4.6 3.8 4.6 6.7 0 5.1-4 8.3-9.7 8.3-5.8 0-9.7-3.2-9.7-8.3 0-2.9 1.8-5.7 4.6-6.7-2.6-1.1-4-3.6-4-6.1 0-4.6 3.6-7.9 9.1-7.9 5.6 0 9.1 3.3 9.1 7.9zm-5 12.5c0-2-1.4-4-4.1-4s-4.1 1.9-4.1 4 1.4 4 4.1 4 4.1-1.9 4.1-4zm-.4-12.1c0-2-1.1-3.7-3.6-3.7-2.6 0-3.6 1.7-3.6 3.7s1.1 3.7 3.6 3.7 3.6-1.7 3.6-3.7z" fill="#151c3a"/><path d="m601.8 538.4h97.2v48.2h-97.2z" fill="none"/><path d="m641.7 563.3s4.7-4.2 8.3-7.5c3.5-3.3 4.3-5.4 4.3-7.6 0-1.9-1.3-3.6-3.7-3.6-2.1 0-3.7 1.3-3.7 3.3 0 .7.2 1.6.7 2.9l-5.1.9c-.8-1.6-1-3-1-4.3 0-3.9 3.3-7.8 9.2-7.8 6.1 0 9.4 4 9.4 8.2 0 3.3-1.1 6.5-7.9 12.5l-3.3 2.9h11.6v4.8h-18.6v-4.7z" fill="#151c3a"/><path d="m679.8 447.5 19.8-24.2" fill="none"/><path d="m712.8 113.4h31.5v530.8h-31.5" fill="none" stroke="#151c3a" stroke-linecap="round" stroke-miterlimit="10" stroke-width="3"/><path d="m745.3 354.8h14.4" fill="none" stroke="#151c3a" stroke-linecap="round" stroke-miterlimit="10" stroke-width="3"/><path d="m699.7 659.5v31.5h-655.7v-31.5" fill="none" stroke="#151c3a" stroke-linecap="round" stroke-miterlimit="10" stroke-width="3"/><path d="m371.8 691v14.4" fill="none" stroke="#151c3a" stroke-linecap="round" stroke-miterlimit="10" stroke-width="3"/><g fill="#151c3a"><path d="m169.5 734.1v-16.4h4.9v16.8c0 4.9-3.2 8.8-9.4 8.8-6.3 0-9.4-3.9-9.4-8.8v-16.8h5v16.4c0 2.7 1.5 4.6 4.5 4.6s4.4-1.9 4.4-4.6z"/><path d="m183.2 749.2h-4.7v-22.8h4.7v.8c0 .8-.1 1.2-.1 1.3.8-1.4 2.7-2.6 5.2-2.6 4.5 0 8 3.6 8 8.7 0 5-3.5 8.7-8 8.7-2.3 0-4.3-1.1-5.1-2.5zm-.1-14.5c0 2.5 1.7 4.5 4.2 4.5s4.2-2 4.2-4.5c0-2.6-1.7-4.5-4.2-4.5s-4.2 1.9-4.2 4.5z"/><path d="m211.9 720.2v6.3h3.6v4h-3.6v7.5c0 1 .8 1.2 1.5 1.2 1.2 0 2.2-.1 2.2-.1v4s-2.3.2-3.6.2c-2.3 0-4.8-.4-4.8-3.7v-9h-2.6v-4h2.6v-6.3h4.7z"/><path d="m217.7 734.7c0-5 3.9-8.7 8.8-8.7s8.8 3.6 8.8 8.7c0 5-3.9 8.7-8.8 8.7-4.9-.1-8.8-3.7-8.8-8.7zm4.7 0c0 2.6 1.7 4.5 4.1 4.5s4.1-1.9 4.1-4.5-1.7-4.5-4.1-4.5-4.1 1.9-4.1 4.5z"/><path d="m246.5 717.7h9.6v20.9h4.9v4.3h-14.8v-4.3h4.9v-16.6h-4.6z"/><path d="m264.4 738.6s4.2-3.7 7.5-6.8c3.2-3 3.9-4.8 3.9-6.9 0-1.7-1.2-3.2-3.3-3.2-1.9 0-3.3 1.2-3.3 3 0 .6.1 1.5.6 2.6l-4.6.8c-.8-1.5-.9-2.7-.9-3.9 0-3.5 3-7 8.3-7 5.5 0 8.4 3.6 8.4 7.4 0 3-1 5.9-7.1 11.3l-3 2.6h10.4v4.3h-16.8v-4.2z"/><path d="m292.2 717.7h5v25.2h-5z"/><path d="m311.3 726c3.6 0 6.1 2.3 6.1 6.1v10.8h-4.7v-9.6c0-2.1-1.3-3-2.8-3-1.4 0-2.6.8-3.5 1.9v10.7h-4.7v-16.5h4.6v.6c0 .6-.1 1.3-.1 1.3 1.4-1.5 3.2-2.3 5.1-2.3z"/><path d="m333.4 740.8c-.8 1.4-2.8 2.5-5.1 2.5-4.5 0-8-3.6-8-8.7 0-5 3.4-8.7 8-8.7 2.5 0 4.4 1.2 5.3 2.6 0-.5-.1-1.9-.1-3.1v-7.7h4.7v25.2h-4.7v-2.1zm-8.3-6.1c0 2.5 1.7 4.5 4.2 4.5s4.2-2 4.2-4.5c0-2.6-1.7-4.5-4.2-4.5-2.4 0-4.2 1.9-4.2 4.5z"/><path d="m347.8 742.9h-4.7v-12.5h-2.3v-4h7zm-2.5-25.2c1.7 0 3 1.4 3 3 0 1.7-1.3 3-3 3s-3-1.3-3-3c0-1.6 1.3-3 3-3z"/><path d="m358.9 737.9 3.7-11.4h4.9l-5.9 16.5h-5.8l-5.6-16.5h5.1z"/><path d="m375.5 742.9h-4.7v-12.5h-2.3v-4h7zm-2.5-25.2c1.7 0 3 1.4 3 3 0 1.7-1.3 3-3 3s-3-1.3-3-3c0-1.6 1.3-3 3-3z"/><path d="m391.7 740.8c-.8 1.4-2.8 2.5-5.1 2.5-4.5 0-8-3.6-8-8.7 0-5 3.4-8.7 8-8.7 2.5 0 4.4 1.2 5.3 2.6 0-.5-.1-1.9-.1-3.1v-7.7h4.7v25.2h-4.7v-2.1zm-8.3-6.1c0 2.5 1.7 4.5 4.2 4.5s4.2-2 4.2-4.5c0-2.6-1.7-4.5-4.2-4.5s-4.2 1.9-4.2 4.5z"/><path d="m400.2 736.9v-10.4h4.7v9.6c0 2.3 1.5 3.2 3.2 3.2s3.2-.9 3.2-3.2v-9.6h4.6v10.4c0 3.5-2.7 6.5-7.8 6.5-5.1-.1-7.9-3.1-7.9-6.5z"/><path d="m428.7 731.9c0-1.2-.9-1.9-2.7-1.9-1.7 0-3.7.8-5 1.5l-1.8-3.5s3.1-2 7.1-2c3.7 0 7.2 1.7 7.2 6.1v10.8h-4.7v-1.5c-.9 1.3-2.7 2-4.6 2-3.5 0-5.8-2.5-5.8-5.2 0-3.1 2.3-5.1 6-5.1h3.2c.8 0 1.2-.4 1.2-1v-.2zm0 5.1v-1.2c-.3.3-.8.4-1.4.4h-1.8c-1.5 0-2.3.6-2.3 1.8 0 1.1.9 1.9 2.3 1.9 1.7 0 3.2-.8 3.2-2.9z"/><path d="m441.9 742.9h-4.6v-25.2h4.6z"/><path d="m465.4 738.7c3.3 0 5.9-1.8 6.8-4.8h5.5c-1.5 5.9-6.7 9.4-12.3 9.4-7.4 0-13.1-5.4-13.1-13s5.7-13 13.1-13c5.7 0 10.9 3.5 12.3 9.4h-5.5c-.9-3-3.5-4.8-6.8-4.8-4.8 0-7.9 3.6-7.9 8.4s3.2 8.4 7.9 8.4z"/><path d="m479.6 734.7c0-5 3.9-8.7 8.8-8.7s8.8 3.6 8.8 8.7c0 5-3.9 8.7-8.8 8.7s-8.8-3.7-8.8-8.7zm4.7 0c0 2.6 1.7 4.5 4.1 4.5s4.1-1.9 4.1-4.5-1.7-4.5-4.1-4.5-4.1 1.9-4.1 4.5z"/><path d="m504.9 742.9h-4.6v-25.2h4.6z"/><path d="m508.7 736.9v-10.4h4.7v9.6c0 2.3 1.5 3.2 3.2 3.2s3.2-.9 3.2-3.2v-9.6h4.6v10.4c0 3.5-2.7 6.5-7.8 6.5-5.1-.1-7.9-3.1-7.9-6.5z"/><path d="m549.8 733.2c0-2-1.3-2.9-2.7-2.9-1.3 0-2.5.8-3.4 1.9v10.7h-4.7v-9.7c0-2-1.3-2.9-2.7-2.9-1.3 0-2.5.8-3.4 1.9v10.7h-4.7v-16.5h4.6v.6c0 .6-.1 1.3-.1 1.3 1.2-1.5 3.1-2.4 4.9-2.4 2.4 0 4.4 1 5.3 3 1.4-1.9 3.2-3 5.5-3 3.6 0 6.1 2.3 6.1 6.1v10.8h-4.7z"/><path d="m567.8 726c3.6 0 6.1 2.3 6.1 6.1v10.8h-4.7v-9.6c0-2.1-1.3-3-2.8-3-1.4 0-2.6.8-3.5 1.9v10.7h-4.7v-16.5h4.6v.6c0 .6-.1 1.3-.1 1.3 1.4-1.5 3.2-2.3 5.1-2.3z"/><path d="m587.5 731.5c-1.3-1.3-3-1.7-4.1-1.7-1.2 0-1.7.6-1.7 1.1 0 .6.4 1 1.2 1.3l2.7.9c3.4 1.1 4.5 3 4.5 5.1 0 2.4-2.1 5.2-6.6 5.2-3.6 0-5.9-1.4-7.3-2.6l2.5-3.2c1.2 1.1 3.3 2.1 4.9 2.1 1.1 0 1.8-.6 1.8-1.2 0-.8-.5-1.2-1.9-1.6l-2.8-.8c-2.7-.9-3.8-2.7-3.8-4.8 0-2.7 2.4-5.1 6.4-5.1 2.2 0 4.7.6 6.7 2.4z"/></g><path d="m172.8 53.2h-.1l-7.7 3.7-1.6-7.1 10.7-5h7.8v40.3h-9.1z"/><path d="m195.2 85.1v-5.7l5.2-4.7c8.8-7.9 13.1-12.4 13.2-17.1 0-3.3-2-5.9-6.6-5.9-3.5 0-6.5 1.7-8.6 3.3l-2.7-6.8c3-2.3 7.8-4.2 13.2-4.2 9.1 0 14.1 5.3 14.1 12.6 0 6.8-4.9 12.2-10.7 17.4l-3.7 3.1v.1h15.2v7.8h-28.6z"/><path d="m274.3 84c-1.7.9-5.6 1.8-10.7 1.8-14.4 0-21.9-9-21.9-20.9 0-14.3 10.2-22.2 22.8-22.2 4.9 0 8.6 1 10.3 1.9l-1.9 7.5c-1.9-.8-4.6-1.5-7.9-1.5-7.5 0-13.3 4.5-13.3 13.8 0 8.4 5 13.6 13.4 13.6 2.9 0 6-.6 7.9-1.4z"/><path d="m308.9 69.6c0 11.1-7.9 16.2-16 16.2-8.9 0-15.7-5.8-15.7-15.6s6.4-16.1 16.2-16.1c9.3 0 15.5 6.4 15.5 15.5zm-21.9.3c0 5.2 2.2 9.1 6.2 9.1 3.7 0 6-3.7 6-9.1 0-4.5-1.7-9.1-6-9.1-4.5 0-6.2 4.7-6.2 9.1z"/><path d="m314.8 41.1h9.4v44h-9.4z"/><path d="m360.4 75.4c0 4 .1 7.2.2 9.7h-8.2l-.4-4.3h-.2c-1.2 1.9-4 5-9.5 5-6.1 0-10.7-3.8-10.7-13.2v-17.8h9.5v16.3c0 4.4 1.4 7.1 4.7 7.1 2.6 0 4.1-1.8 4.7-3.3.2-.6.3-1.3.3-2v-18h9.5v20.5z"/><path d="m368 64.5c0-3.8-.1-7-.2-9.7h7.9l.4 4.1h.2c1.3-1.9 4-4.8 9.2-4.8 3.9 0 7 2 8.3 5.1h.1c1.1-1.5 2.5-2.8 3.9-3.7 1.7-1 3.5-1.5 5.8-1.5 5.8 0 10.2 4.1 10.2 13.1v17.9h-9.2v-16.4c0-4.4-1.4-6.9-4.5-6.9-2.2 0-3.7 1.5-4.3 3.3-.2.7-.4 1.7-.4 2.4v17.7h-9.2v-17c0-3.8-1.4-6.4-4.3-6.4-2.4 0-3.8 1.9-4.4 3.4-.3.7-.4 1.6-.4 2.4v17.7h-9.1z"/><path d="m421.3 64.5c0-3.8-.1-7-.2-9.7h8.2l.4 4.2h.2c1.2-1.9 4.3-4.8 9.4-4.8 6.2 0 10.8 4.1 10.8 13v18h-9.4v-16.9c0-3.9-1.4-6.6-4.8-6.6-2.6 0-4.2 1.8-4.8 3.5-.2.6-.4 1.5-.4 2.4v17.5h-9.4z"/><path d="m505.4 83.2c-2.9 1-8.4 2.4-13.9 2.4-7.6 0-13.1-1.9-17-5.6-3.8-3.6-6-9.1-5.9-15.2.1-13.9 10.2-21.8 23.9-21.8 5.4 0 9.5 1.1 11.6 2l-2 7.6c-2.3-1-5.1-1.8-9.7-1.8-7.9 0-13.8 4.5-13.8 13.5 0 8.6 5.4 13.7 13.1 13.7 2.2 0 3.9-.2 4.6-.6v-8.7h-6.4v-7.4h15.6v21.9z"/><path d="m512.6 64.8c0-4.5-.1-7.4-.2-10h8.1l.3 5.6h.2c1.6-4.4 5.3-6.3 8.2-6.3.9 0 1.3 0 2 .1v8.9c-.7-.1-1.5-.2-2.5-.2-3.5 0-5.8 1.9-6.4 4.8-.1.6-.2 1.4-.2 2.1v15.4h-9.4v-20.4z"/><path d="m545.9 46.4c0 2.6-2 4.7-5.1 4.7-3 0-5-2.1-4.9-4.7-.1-2.7 1.9-4.8 5-4.8 3 0 4.9 2.1 5 4.8zm-9.7 38.7v-30.3h9.4v30.3z"/><path d="m582.5 41.1v35c0 3.4.1 7 .2 9.1h-8.4l-.4-4.5h-.1c-1.9 3.4-5.6 5.1-9.5 5.1-7.2 0-13-6.1-13-15.6-.1-10.2 6.3-16.1 13.6-16.1 3.7 0 6.6 1.3 8 3.4h.1v-16.4zm-9.4 26.5c0-.5-.1-1.2-.1-1.7-.6-2.5-2.6-4.6-5.5-4.6-4.3 0-6.5 3.8-6.5 8.6 0 5.1 2.5 8.4 6.4 8.4 2.7 0 4.9-1.9 5.5-4.5.2-.7.2-1.4.2-2.2z"/><path d="m783.7 356.9h-3.5v9.7h-5v-25.2h9.5c5.5 0 8.7 3.3 8.7 7.7 0 2.4-1 5.4-4.8 6.9l6.4 10.6h-5.8zm.3-11.2h-3.8v6.8h3.8c2.8 0 4.4-1.3 4.4-3.5 0-2.1-1.6-3.3-4.4-3.3z" fill="#151c3a"/><path d="m795.4 358.4c0-5 3.9-8.7 8.8-8.7s8.8 3.6 8.8 8.7c0 5-3.9 8.7-8.8 8.7s-8.8-3.7-8.8-8.7zm4.7 0c0 2.6 1.7 4.5 4.1 4.5s4.1-1.9 4.1-4.5-1.7-4.5-4.1-4.5-4.1 1.9-4.1 4.5z" fill="#151c3a"/><path d="m832.3 360.8 2.5-10.7h4.8l-4.3 16.5h-5.5l-2.9-10.3-3 10.3h-5.5l-4-16.5h5l2.2 10.6 3.1-10.6h4.6z" fill="#151c3a"/><path d="m851.8 355.2c-1.3-1.3-3-1.7-4.1-1.7-1.2 0-1.7.6-1.7 1.1 0 .6.4 1 1.2 1.3l2.7.9c3.4 1.1 4.5 3 4.5 5.1 0 2.4-2.1 5.2-6.6 5.2-3.6 0-5.9-1.4-7.3-2.6l2.5-3.2c1.2 1.1 3.3 2.1 4.9 2.1 1.1 0 1.8-.6 1.8-1.2 0-.8-.5-1.2-1.9-1.6l-2.8-.8c-2.7-.9-3.8-2.7-3.8-4.8 0-2.7 2.4-5.1 6.4-5.1 2.2 0 4.7.6 6.7 2.4z" fill="#151c3a"/></svg>