<?xml version="1.0" encoding="utf-8"?>
<!-- Generator: Adobe Illustrator 24.0.3, SVG Export Plug-In . SVG Version: 6.00 Build 0)  -->
<svg version="1.1" id="Layer_1" xmlns="http://www.w3.org/2000/svg" xmlns:xlink="http://www.w3.org/1999/xlink" x="0px" y="0px"
	 viewBox="0 0 1213 942" style="enable-background:new 0 0 1213 942;" xml:space="preserve">
<style type="text/css">
	.st0{fill-rule:evenodd;clip-rule:evenodd;fill:#52B1DB;}
	.st1{fill-rule:evenodd;clip-rule:evenodd;fill:#52B1DB;stroke:#52B1DB;stroke-width:1.5;}
	.st2{fill:none;stroke:#52B1DB;stroke-width:1.5;stroke-linecap:square;}
	.st3{fill-rule:evenodd;clip-rule:evenodd;fill:#4EA8D0;stroke:#52B1DB;stroke-width:1.5;}
	.st4{fill:none;stroke:#4E768D;stroke-width:2;stroke-linecap:square;}
	.st5{fill-rule:evenodd;clip-rule:evenodd;fill:#FFFFFF;}
	.st6{fill:none;stroke:#7A98A9;stroke-width:2.736;}
	.st7{fill-rule:evenodd;clip-rule:evenodd;fill:#4E768D;}
</style>
<title>Artboard 2</title>
<desc>Created with Sketch.</desc>
<g id="Page-1_1_">
	<g id="Artboard-2">
		<path id="Lesser-Than" class="st0" d="M429,82.7V63.6h1.6v17.7h8.5l-0.1,1.5H429z M447.5,83c-1.9,0-3.4-0.7-4.6-2
			c-1.1-1.3-1.7-3.1-1.7-5.3c0-2.1,0.6-3.9,1.7-5.3c1.1-1.4,2.5-2.1,4.3-2.1c1.6,0,2.9,0.6,3.9,1.8s1.5,2.8,1.5,4.8
			c0,0.1,0,0.2,0,0.5c0,0.2,0,0.4,0,0.5h-9.7c0,1.8,0.4,3.2,1.3,4.3s2,1.6,3.3,1.6c0.9,0,1.7-0.1,2.4-0.3s1.4-0.5,2.1-0.9l0.3,1.2
			C450.8,82.6,449.2,83,447.5,83z M442.9,74.5h7.9c0-1.6-0.3-2.8-1-3.6c-0.7-0.8-1.6-1.3-2.8-1.3c-1.2,0-2.1,0.4-2.9,1.3
			C443.5,71.9,443.1,73.1,442.9,74.5z M460.4,83c-0.9,0-1.7-0.1-2.5-0.3c-0.8-0.2-1.4-0.5-1.9-0.8l0.2-1.3c1.4,0.7,2.7,1.1,4,1.1
			c2.3,0,3.5-0.9,3.6-2.6c0-0.7-0.2-1.3-0.7-1.7s-1.4-0.8-2.8-1.3c-0.7-0.3-1.1-0.4-1.2-0.4c-2.2-0.7-3.3-1.9-3.3-3.6
			c0-1,0.4-1.9,1.3-2.6c0.9-0.8,2-1.1,3.5-1.1s2.8,0.3,4.1,0.9l-0.5,1.2c-1.3-0.5-2.5-0.7-3.6-0.7c-1,0-1.8,0.2-2.3,0.7
			c-0.6,0.4-0.8,1-0.8,1.8c0,0.6,0.2,1.1,0.6,1.5s1.1,0.7,2.2,1c0.1,0,0.3,0.1,0.7,0.2s0.5,0.2,0.5,0.2c1.5,0.5,2.5,1,3.1,1.6
			s0.9,1.5,0.9,2.5c0,1.2-0.5,2.2-1.4,2.9C463,82.7,461.8,83,460.4,83z M473,83c-0.9,0-1.7-0.1-2.5-0.3c-0.8-0.2-1.4-0.5-1.9-0.8
			l0.2-1.3c1.4,0.7,2.7,1.1,4,1.1c2.3,0,3.5-0.9,3.6-2.6c0-0.7-0.2-1.3-0.7-1.7c-0.5-0.4-1.4-0.8-2.8-1.3c-0.7-0.3-1.1-0.4-1.2-0.4
			c-2.2-0.7-3.3-1.9-3.3-3.6c0-1,0.4-1.9,1.3-2.6c0.9-0.8,2-1.1,3.5-1.1s2.8,0.3,4.1,0.9l-0.5,1.2c-1.3-0.5-2.5-0.7-3.6-0.7
			c-1,0-1.8,0.2-2.3,0.7c-0.6,0.4-0.8,1-0.8,1.8c0,0.6,0.2,1.1,0.6,1.5c0.4,0.3,1.1,0.7,2.2,1c0.1,0,0.3,0.1,0.7,0.2
			c0.3,0.1,0.5,0.2,0.5,0.2c1.5,0.5,2.5,1,3.1,1.6s0.9,1.5,0.9,2.5c0,1.2-0.5,2.2-1.4,2.9C475.6,82.7,474.4,83,473,83z M487.2,83
			c-1.9,0-3.4-0.7-4.6-2c-1.1-1.3-1.7-3.1-1.7-5.3c0-2.1,0.6-3.9,1.7-5.3c1.1-1.4,2.5-2.1,4.3-2.1c1.6,0,2.9,0.6,3.9,1.8
			s1.5,2.8,1.5,4.8c0,0.1,0,0.2,0,0.5s0,0.4,0,0.5h-9.7c0,1.8,0.4,3.2,1.3,4.3s2,1.6,3.3,1.6c0.9,0,1.7-0.1,2.4-0.3s1.4-0.5,2.1-0.9
			l0.3,1.2C490.5,82.6,488.9,83,487.2,83z M482.6,74.5h7.9c0-1.6-0.3-2.8-1-3.6c-0.7-0.8-1.6-1.3-2.8-1.3c-1.2,0-2.1,0.4-2.9,1.3
			C483.2,71.9,482.7,73.1,482.6,74.5z M496,82.7c0-8.3,0-13,0-14.1h1.3l0.1,2.8c0.5-0.8,1.1-1.5,1.9-2.1s1.6-0.8,2.4-0.8
			c0.3,0,0.7,0,1.1,0.1l-0.1,1.3c-0.3-0.1-0.6-0.1-1-0.1c-1.2,0-2.2,0.5-3,1.4c-0.8,0.9-1.2,2-1.2,3.3v8.1H496z M516.4,82.7V65h-5.9
			v-1.4H524V65H518v17.7H516.4z M526.5,82.7V63.1l1.6-0.1v7.1c0,0.1,0,0.1,0,0.1c0,0,0,0.1,0,0.1l0,0.4c1.1-1.6,2.8-2.4,4.9-2.4
			c3,0,4.5,1.8,4.5,5.5v8.8h-1.6v-8.5c0-1.6-0.2-2.7-0.7-3.4c-0.5-0.7-1.3-1.1-2.6-1.1c-1.2,0-2.2,0.3-3,1s-1.3,1.5-1.5,2.5
			c0,0.3,0,0.9,0,1.5v8H526.5z M545.5,83c-1.3,0-2.4-0.3-3.1-1s-1.2-1.6-1.2-2.9c0-0.7,0.2-1.4,0.5-1.9c0.3-0.5,0.8-1,1.4-1.3
			s1.3-0.6,2-0.8c0.8-0.2,1.7-0.3,2.7-0.4c1.1-0.1,1.9-0.1,2.4-0.2V73c0-1.1-0.2-1.9-0.7-2.4c-0.5-0.5-1.3-0.8-2.3-0.8
			c-1.5,0-2.8,0.4-4.1,1.1c0-0.1-0.1-0.3-0.2-0.6c-0.1-0.3-0.2-0.5-0.3-0.7c0.5-0.3,1.2-0.6,2.1-0.9s1.7-0.3,2.5-0.3
			c1.7,0,2.9,0.4,3.6,1.1c0.7,0.7,1.1,2,1.1,3.8v9.4h-1.2c0-0.2-0.1-0.6-0.2-1.2c-0.1-0.6-0.1-0.9-0.1-0.9
			C549,82.2,547.5,83,545.5,83z M545.5,81.7c1.1,0,2-0.3,2.9-1c0.8-0.6,1.4-1.5,1.7-2.7v-2.4c-1.2,0.1-1.8,0.2-1.8,0.2
			c-2.1,0.2-3.5,0.5-4.3,1s-1.2,1.3-1.2,2.3c0,0.9,0.3,1.5,0.8,1.9C544,81.5,544.7,81.7,545.5,81.7z M556,82.7V68.6h1.4l0.2,2.2
			c0.5-0.8,1.2-1.3,2-1.8c0.8-0.4,1.7-0.6,2.7-0.6c1.6,0,2.8,0.4,3.5,1.3c0.8,0.9,1.1,2.3,1.1,4.3v8.7h-1.6v-9.5
			c0-1.3-0.3-2.1-0.8-2.7c-0.5-0.5-1.3-0.8-2.4-0.8c-1.3,0-2.3,0.3-3.1,1s-1.3,1.5-1.5,2.5c0,0.4-0.1,0.8-0.1,1.3v8.3H556z"/>
		<path id="Greater-Than" class="st0" d="M634.9,83c-1.1,0-2.2-0.2-3.2-0.5c-1-0.3-1.8-0.8-2.5-1.4c-0.7-0.6-1.3-1.3-1.8-2.1
			c-0.5-0.8-0.8-1.7-1.1-2.7c-0.2-1-0.4-2-0.4-3.1c0-1.9,0.4-3.6,1.1-5.1s1.8-2.7,3.2-3.5c1.4-0.9,3.1-1.3,5-1.3
			c2.1,0,4,0.5,5.6,1.5l-0.7,1.3c-0.7-0.4-1.5-0.8-2.3-1c-0.9-0.3-1.7-0.4-2.5-0.4c-1.2,0-2.3,0.2-3.3,0.7s-1.7,1.1-2.3,1.8
			c-0.6,0.8-1.1,1.7-1.4,2.7c-0.3,1-0.5,2.1-0.5,3.3c0,1.3,0.2,2.4,0.5,3.5c0.3,1,0.8,1.9,1.4,2.7c0.6,0.7,1.4,1.3,2.4,1.7
			s2.1,0.6,3.4,0.6c1.3,0,2.8-0.3,4.4-1v-6.1h-4.7l0.1-1.4h6.1v8.4c-1,0.5-2,0.9-3,1.1C637.4,82.9,636.2,83,634.9,83z M645.6,82.7
			c0-8.3,0-13,0-14.1h1.3l0.1,2.8c0.5-0.8,1.1-1.5,1.9-2.1c0.8-0.5,1.6-0.8,2.4-0.8c0.3,0,0.7,0,1.1,0.1l-0.1,1.3
			c-0.3-0.1-0.6-0.1-1-0.1c-1.2,0-2.2,0.5-3,1.4c-0.8,0.9-1.2,2.1-1.2,3.3v8.1H645.6z M660.6,83c-1.9,0-3.4-0.7-4.6-2
			s-1.7-3.1-1.7-5.3c0-2.2,0.6-3.9,1.7-5.3c1.1-1.4,2.5-2.1,4.3-2.1c1.6,0,2.9,0.6,3.9,1.8c1,1.2,1.5,2.8,1.5,4.8c0,0.1,0,0.2,0,0.5
			s0,0.4,0,0.5H656c0,1.8,0.4,3.2,1.3,4.3c0.8,1.1,2,1.6,3.3,1.6c0.9,0,1.7-0.1,2.4-0.3c0.7-0.2,1.4-0.5,2.1-0.9l0.3,1.2
			C664,82.6,662.4,83,660.6,83z M656.1,74.6h7.9c0-1.6-0.3-2.8-1-3.6c-0.7-0.8-1.6-1.3-2.7-1.3c-1.2,0-2.1,0.4-2.9,1.3
			C656.7,71.9,656.2,73.1,656.1,74.6z M673,83c-1.3,0-2.4-0.3-3.1-1c-0.8-0.7-1.2-1.6-1.2-2.9c0-0.7,0.2-1.4,0.5-1.9
			c0.3-0.5,0.8-1,1.4-1.3c0.6-0.3,1.3-0.6,2-0.8c0.8-0.2,1.7-0.3,2.7-0.4c1.1-0.1,1.9-0.1,2.4-0.2V73c0-1.1-0.2-1.9-0.7-2.4
			c-0.5-0.5-1.3-0.8-2.3-0.8c-1.5,0-2.8,0.4-4.1,1.1c0-0.1-0.1-0.3-0.2-0.6s-0.2-0.5-0.3-0.7c0.5-0.3,1.2-0.6,2.1-0.9
			c0.8-0.2,1.7-0.3,2.5-0.3c1.7,0,2.9,0.4,3.6,1.1c0.7,0.7,1.1,2,1.1,3.8v9.4h-1.2c0-0.2-0.1-0.6-0.2-1.2c-0.1-0.6-0.1-0.9-0.1-0.9
			C676.5,82.2,675,83,673,83z M673.1,81.7c1.1,0,2-0.3,2.9-1c0.8-0.6,1.4-1.5,1.7-2.7v-2.4c-1.2,0.1-1.8,0.2-1.8,0.2
			c-2.1,0.2-3.5,0.5-4.3,1c-0.8,0.5-1.2,1.3-1.2,2.3c0,0.9,0.3,1.5,0.8,1.9S672.2,81.7,673.1,81.7z M687.5,83c-1.2,0-2-0.3-2.6-0.8
			c-0.5-0.5-0.8-1.4-0.8-2.6v-9.8h-2l0.1-1l1.9-0.2l0.4-3.2l1.1-0.1v3.3h4.1v1.2h-4.1v9.5c0,1,0.2,1.7,0.5,2
			c0.3,0.3,0.9,0.5,1.7,0.5c0.5,0,1.2-0.1,1.9-0.3l0.1,1.2C688.8,82.9,688,83,687.5,83z M698.3,83c-1.9,0-3.4-0.7-4.6-2
			s-1.7-3.1-1.7-5.3c0-2.2,0.6-3.9,1.7-5.3c1.1-1.4,2.5-2.1,4.3-2.1c1.6,0,2.9,0.6,3.9,1.8c1,1.2,1.5,2.8,1.5,4.8c0,0.1,0,0.2,0,0.5
			c0,0.2,0,0.4,0,0.5h-9.7c0,1.8,0.4,3.2,1.3,4.3c0.8,1.1,2,1.6,3.3,1.6c0.9,0,1.7-0.1,2.4-0.3s1.4-0.5,2.1-0.9l0.3,1.2
			C701.7,82.6,700.1,83,698.3,83z M693.8,74.6h7.9c0-1.6-0.3-2.8-1-3.6c-0.7-0.8-1.6-1.3-2.7-1.3c-1.2,0-2.1,0.4-2.9,1.3
			C694.4,71.9,693.9,73.1,693.8,74.6z M707.2,82.7c0-8.3,0-13,0-14.1h1.3l0.1,2.8c0.5-0.8,1.1-1.5,1.9-2.1c0.8-0.5,1.6-0.8,2.4-0.8
			c0.3,0,0.7,0,1.1,0.1l-0.1,1.3c-0.3-0.1-0.6-0.1-1-0.1c-1.2,0-2.2,0.5-3,1.4s-1.2,2.1-1.2,3.3v8.1H707.2z M727.5,82.7V65h-5.9
			v-1.4h13.5V65h-5.9v17.7H727.5z M737.6,82.7V63.1l1.6-0.1v7.1c0,0.1,0,0.1,0,0.1c0,0,0,0.1,0,0.1l0,0.4c1.1-1.6,2.8-2.4,4.9-2.4
			c3,0,4.5,1.8,4.5,5.5v8.8H747v-8.5c0-1.6-0.2-2.7-0.7-3.4c-0.5-0.7-1.3-1.1-2.5-1.1c-1.2,0-2.2,0.3-3,1c-0.8,0.6-1.3,1.5-1.5,2.5
			c0,0.3,0,0.9,0,1.5v8H737.6z M756.5,83c-1.3,0-2.4-0.3-3.1-1s-1.2-1.6-1.2-2.9c0-0.7,0.2-1.4,0.5-1.9c0.3-0.5,0.8-1,1.4-1.3
			c0.6-0.3,1.3-0.6,2-0.8c0.8-0.2,1.7-0.3,2.7-0.4c1.1-0.1,1.9-0.1,2.4-0.2V73c0-1.1-0.2-1.9-0.7-2.4c-0.5-0.5-1.3-0.8-2.3-0.8
			c-1.5,0-2.8,0.4-4.1,1.1c0-0.1-0.1-0.3-0.2-0.6s-0.2-0.5-0.3-0.7c0.5-0.3,1.2-0.6,2.1-0.9c0.8-0.2,1.7-0.3,2.5-0.3
			c1.7,0,2.9,0.4,3.6,1.1c0.7,0.7,1.1,2,1.1,3.8v9.4h-1.2c0-0.2-0.1-0.6-0.2-1.2c-0.1-0.6-0.1-0.9-0.1-0.9
			C760,82.2,758.5,83,756.5,83z M756.6,81.7c1.1,0,2-0.3,2.9-1c0.8-0.6,1.4-1.5,1.7-2.7v-2.4c-1.2,0.1-1.8,0.2-1.8,0.2
			c-2.1,0.2-3.5,0.5-4.3,1c-0.8,0.5-1.2,1.3-1.2,2.3c0,0.9,0.3,1.5,0.8,1.9S755.7,81.7,756.6,81.7z M767.1,82.7V68.6h1.4l0.2,2.2
			c0.5-0.8,1.2-1.3,2-1.8c0.8-0.4,1.7-0.6,2.7-0.6c1.6,0,2.8,0.4,3.5,1.3c0.8,0.9,1.1,2.3,1.1,4.3v8.7h-1.6v-9.5
			c0-1.3-0.3-2.2-0.8-2.7s-1.3-0.8-2.4-0.8c-1.3,0-2.3,0.3-3.1,1s-1.3,1.5-1.5,2.5c0,0.4-0.1,0.8-0.1,1.3v8.3H767.1z"/>
		<path id="Fill-1" class="st1" d="M850,71.5c0,0.1,0,0.1-0.1,0.1l-10.5,8.3c-0.1,0.1-0.2,0.1-0.3,0c-0.1-0.1-0.1-0.2,0-0.3
			l10.3-8.2l-10.3-8.2c-0.1-0.1-0.1-0.2,0-0.3c0.1-0.1,0.2-0.1,0.3,0l0,0l10.5,8.3C850,71.4,850,71.4,850,71.5"/>
		<path id="Line-2" class="st2" d="M797.5,72h51"/>
		<path id="Fill-1_1_" class="st3" d="M358,71.5c0,0.1,0,0.1,0.1,0.1l10.5,8.3c0.1,0.1,0.2,0.1,0.3,0c0.1-0.1,0.1-0.2,0-0.3
			l-10.3-8.2l10.3-8.2c0.1-0.1,0.1-0.2,0-0.3c-0.1-0.1-0.2-0.1-0.3,0l0,0l-10.5,8.3C358,71.4,358,71.4,358,71.5"/>
		<path id="Line-2_1_" class="st2" d="M410.5,72h-51"/>
		<path id="Line" class="st4" d="M30.5,44L1178,38"/>
		<path id="Binary-Search-Tree" class="st5" d="M453,887.7v10h5.4c2.2,0,3.9-0.4,5-1.2c1.1-0.8,1.7-2.1,1.7-3.8
			c0-1.8-0.6-3.1-1.8-3.8s-3-1.1-5.6-1.1H453z M453,885.2h5.6c1.8,0,3.2-0.3,4.1-1s1.4-1.8,1.4-3.4c0-1.6-0.6-2.8-1.7-3.4
			c-1.1-0.6-2.8-0.9-5.2-0.9H453V885.2z M450,874h7.5c3.3,0,5.8,0.5,7.4,1.5s2.4,2.7,2.4,4.9c0,0.3,0,0.7-0.1,1s-0.1,0.7-0.3,1.3
			c-0.2,0.5-0.4,1-0.7,1.4c-0.3,0.4-0.7,0.8-1.3,1.3s-1.2,0.8-2,1c1.7,0.3,3.1,1.1,4,2.2s1.4,2.6,1.4,4.2c0,2.4-0.8,4.2-2.3,5.5
			s-3.8,2-6.9,2H450V874z M476.2,880.7v19.5h-3v-19.5H476.2z M476.2,873.7v3.5h-3v-3.5H476.2z M482.4,900.2v-19.5h2.5l0.4,2.8
			c0.8-1,1.7-1.7,2.9-2.3c1.1-0.6,2.4-0.9,3.7-0.9c2.2,0,3.9,0.6,4.9,1.9c1.1,1.3,1.6,3.2,1.6,5.8v12.2h-2.9c0-7.8,0-12,0-12.5
			c0-1.7-0.4-2.9-1-3.6c-0.6-0.8-1.6-1.2-3.1-1.2c-1.5,0-2.8,0.4-3.8,1.1c-1,0.7-1.7,1.7-2,2.9c-0.1,0.8-0.2,1.7-0.2,2.7v10.6H482.4
			z M509.4,898.2c1.4,0,2.6-0.4,3.7-1.2c1.1-0.8,1.7-1.8,2-3.1v-3.3c-0.1,0-0.4,0-1.1,0.1c-0.7,0.1-1.1,0.1-1.3,0.1
			c-2.5,0.2-4.3,0.6-5.3,1.3c-1,0.6-1.5,1.6-1.5,3c0,1,0.3,1.8,0.9,2.4S508.4,898.2,509.4,898.2z M515.8,900.2
			c-0.2-0.8-0.3-1.6-0.5-2.4c-1.1,1.1-2.1,1.8-3,2.2c-0.9,0.4-2,0.6-3.3,0.6c-1.8,0-3.3-0.5-4.4-1.4c-1.1-1-1.6-2.3-1.6-4.1
			c0-2,0.7-3.5,2.2-4.4c1.5-1,3.7-1.6,6.5-1.8c0.4,0,1-0.1,1.8-0.2c0.8-0.1,1.4-0.1,1.8-0.2v-1.7c0-1.4-0.3-2.4-0.9-3.1
			c-0.6-0.7-1.6-1-3-1c-1.9,0-3.8,0.5-5.8,1.4c-0.1-0.1-0.2-0.6-0.5-1.2c-0.2-0.7-0.4-1-0.4-1.1c0.9-0.5,1.9-0.9,3.1-1.2
			c1.2-0.3,2.4-0.4,3.6-0.4c2.4,0,4.1,0.5,5.2,1.6c1.1,1.1,1.6,2.9,1.6,5.4v12.9H515.8z M532.5,880.6c0.5,0,1,0,1.4,0.1l-0.1,2.7
			c-0.5-0.1-1-0.1-1.4-0.1c-1.6,0-3,0.6-4,1.7s-1.5,2.6-1.5,4.3v10.9h-2.9c0-11.9,0-18.4,0-19.5h2.4l0.3,3.5c0.7-1.1,1.5-2,2.6-2.7
			C530.2,880.9,531.3,880.6,532.5,880.6z M535.2,880.7h3.1l6.1,16.2l5.4-16.2h3.1c-5.2,14.4-7.9,21.9-8.1,22.3
			c-0.8,2-1.8,3.5-2.9,4.5c-1.1,1-2.7,1.4-4.5,1.4c-0.6,0-1.2,0-1.8-0.1l-0.2-2.5c0.7,0,1.1,0.1,1.5,0.1c1.3,0,2.3-0.2,3-0.7
			c0.7-0.5,1.3-1.4,1.8-2.8c0.5-1.2,0.8-2.2,1.1-2.9L535.2,880.7z M565.9,895.9c2.7,1.3,5.6,2,8.7,2c3.8,0,5.7-1.7,5.7-5.2
			c0-1.1-0.3-2.1-0.9-2.8c-0.6-0.7-1.7-1.3-3.3-1.7l-5.2-1.3c-4-1-5.9-3.1-5.9-6.4c0-2.5,0.9-4.3,2.6-5.6c1.7-1.2,4.1-1.8,7.1-1.8
			c1.6,0,3,0.2,4.4,0.5c1.4,0.3,2.5,0.8,3.4,1.4l-0.9,2.5c-0.8-0.4-1.8-0.8-3.1-1.2c-1.3-0.3-2.6-0.5-3.9-0.5
			c-4.2,0-6.4,1.5-6.4,4.5c0,1,0.3,1.8,1,2.4c0.7,0.6,1.6,1.1,2.9,1.4l4.9,1.2c2.1,0.5,3.7,1.3,4.8,2.4s1.6,2.7,1.6,4.8
			c0,2.7-0.8,4.7-2.4,6s-3.8,2-6.6,2c-2.1,0-3.9-0.2-5.6-0.6c-1.6-0.4-2.9-0.9-3.9-1.5L565.9,895.9z M599.3,884.3
			c-0.9-1-2-1.6-3.5-1.6s-2.7,0.5-3.7,1.6c-1,1.1-1.5,2.5-1.7,4.4h10.2C600.6,886.8,600.1,885.4,599.3,884.3z M596.3,900.6
			c-2.8,0-5-0.9-6.6-2.7s-2.4-4.3-2.4-7.4c0-3,0.8-5.5,2.3-7.3s3.6-2.8,6.2-2.9c2.4,0,4.3,0.8,5.7,2.5c1.4,1.6,2.1,3.9,2.1,6.6
			c0,0.1,0,0.4,0,0.8c0,0.4,0,0.7,0,0.8h-13.2c0,2.2,0.6,3.9,1.7,5.2s2.6,1.9,4.4,1.9c2,0,4.1-0.5,6.1-1.6l0.5,2.4
			C601,900,598.8,900.6,596.3,900.6z M613.7,898.2c1.4,0,2.6-0.4,3.7-1.2c1.1-0.8,1.7-1.8,2-3.1v-3.3c-0.1,0-0.4,0-1.1,0.1
			c-0.7,0.1-1.1,0.1-1.3,0.1c-2.5,0.2-4.3,0.6-5.3,1.3c-1,0.6-1.5,1.6-1.5,3c0,1,0.3,1.8,0.9,2.4S612.6,898.2,613.7,898.2z
			 M620,900.2c-0.2-0.8-0.3-1.6-0.5-2.4c-1.1,1.1-2.1,1.8-3,2.2c-0.9,0.4-2,0.6-3.3,0.6c-1.8,0-3.3-0.5-4.4-1.4s-1.6-2.3-1.6-4.1
			c0-2,0.7-3.5,2.2-4.4c1.5-1,3.7-1.6,6.5-1.8c0.4,0,1-0.1,1.8-0.2c0.8-0.1,1.4-0.1,1.8-0.2v-1.7c0-1.4-0.3-2.4-0.9-3.1
			c-0.6-0.7-1.6-1-3-1c-1.9,0-3.8,0.5-5.8,1.4c-0.1-0.1-0.2-0.6-0.5-1.2c-0.2-0.7-0.4-1-0.4-1.1c0.9-0.5,1.9-0.9,3.1-1.2
			c1.2-0.3,2.4-0.4,3.6-0.4c2.4,0,4.1,0.5,5.2,1.6c1.1,1.1,1.6,2.9,1.6,5.4v12.9H620z M636.7,880.6c0.5,0,1,0,1.4,0.1l-0.1,2.7
			c-0.5-0.1-1-0.1-1.4-0.1c-1.6,0-3,0.6-4,1.7s-1.5,2.6-1.5,4.3v10.9h-2.9c0-11.9,0-18.4,0-19.5h2.4l0.3,3.5c0.7-1.1,1.5-2,2.6-2.7
			C634.4,880.9,635.5,880.6,636.7,880.6z M649.6,900.6c-2.8,0-5.1-0.9-6.7-2.8c-1.6-1.9-2.4-4.3-2.4-7.3c0-3,0.8-5.5,2.5-7.4
			s3.8-2.8,6.7-2.8c1,0,2,0.1,2.9,0.4c0.9,0.2,1.7,0.6,2.2,1L654,884c-1.4-0.7-2.8-1.1-4.3-1.1c-1.9,0-3.3,0.7-4.4,2.1
			s-1.6,3.2-1.6,5.6c0,2.3,0.5,4.2,1.6,5.5c1.1,1.4,2.6,2,4.5,2c1.5,0,3.1-0.4,4.6-1.2l0.4,2.4C653.4,900.1,651.7,900.6,649.6,900.6
			z M672.2,900.2v-11.8c0-2-0.3-3.4-0.9-4.3s-1.7-1.3-3.2-1.3c-1.5,0-2.7,0.4-3.7,1.1s-1.7,1.7-2,2.9c-0.1,0.9-0.2,1.9-0.2,3v10.4
			h-2.9v-27l2.9-0.2v7.9c0,0.7,0,1.5-0.1,2.5c1.7-2.1,3.8-3.1,6.6-3.1c4.3,0,6.5,2.5,6.5,7.6v12.2H672.2z M697.7,900.2h-3.1v-23.5
			h-8V874h19.1v2.7h-8V900.2z M717.7,880.6c0.5,0,1,0,1.4,0.1l-0.1,2.7c-0.5-0.1-1-0.1-1.4-0.1c-1.6,0-3,0.6-4,1.7s-1.5,2.6-1.5,4.3
			v10.9h-2.9c0-11.9,0-18.4,0-19.5h2.4l0.3,3.5c0.7-1.1,1.5-2,2.6-2.7C715.4,880.9,716.5,880.6,717.7,880.6z M733.6,884.3
			c-0.9-1-2-1.6-3.5-1.6c-1.5,0-2.7,0.5-3.7,1.6s-1.5,2.5-1.7,4.4h10.2C734.9,886.8,734.4,885.4,733.6,884.3z M730.6,900.6
			c-2.8,0-5-0.9-6.6-2.7c-1.6-1.8-2.4-4.3-2.4-7.4c0-3,0.8-5.5,2.3-7.3c1.6-1.9,3.6-2.8,6.2-2.9c2.4,0,4.3,0.8,5.7,2.5
			s2.1,3.9,2.1,6.6c0,0.1,0,0.4,0,0.8c0,0.4,0,0.7,0,0.8h-13.2c0,2.2,0.6,3.9,1.7,5.2s2.6,1.9,4.4,1.9c2,0,4.1-0.5,6.1-1.6l0.5,2.4
			C735.3,900,733.1,900.6,730.6,900.6z M753.7,884.3c-0.9-1-2-1.6-3.5-1.6c-1.5,0-2.7,0.5-3.7,1.6s-1.5,2.5-1.7,4.4H755
			C755,886.8,754.6,885.4,753.7,884.3z M750.8,900.6c-2.8,0-5-0.9-6.6-2.7s-2.4-4.3-2.4-7.4c0-3,0.8-5.5,2.3-7.3s3.6-2.8,6.2-2.9
			c2.4,0,4.3,0.8,5.7,2.5s2.1,3.9,2.1,6.6c0,0.1,0,0.4,0,0.8c0,0.4,0,0.7,0,0.8h-13.2c0,2.2,0.6,3.9,1.7,5.2
			c1.1,1.2,2.6,1.9,4.4,1.9c2,0,4.1-0.5,6.1-1.6l0.5,2.4C755.5,900,753.3,900.6,750.8,900.6z"/>
		<path id="Stroke-19" class="st6" d="M680,278l241.7,111.1"/>
		<path id="Stroke-19-Copy-3" class="st6" d="M1055,561l-81-64"/>
		<path id="Stroke-19-Copy-6" class="st6" d="M929,498l-81,64"/>
		<circle id="Oval" class="st7" cx="945.5" cy="438.5" r="72.5"/>
		<path id="_x37_0" class="st5" d="M912.8,471.1l19.5-49.9H907l0.5-4h28.7l0.6,4.5l-19.1,49.5H912.8z M965.2,467.8
			c3.7,0,6.7-2.2,8.9-6.7c2.3-4.4,3.4-10.4,3.4-17.9c0-7.3-1.1-13.2-3.4-17.6s-5.2-6.5-8.9-6.5c-3.7,0-6.7,2.2-8.9,6.6
			s-3.4,10.2-3.4,17.6c0,7.5,1.1,13.4,3.4,17.9C958.6,465.6,961.5,467.8,965.2,467.8z M973.2,469.9c-2.3,1.4-4.9,2.1-8,2.1
			c-3,0-5.7-0.7-8-2.1c-2.3-1.4-4.2-3.3-5.6-5.9c-1.4-2.6-2.5-5.5-3.2-9s-1.1-7.3-1.1-11.6c0-9.1,1.5-16.1,4.6-21
			c3.1-5,7.5-7.4,13.3-7.4c5.8,0,10.2,2.5,13.2,7.4c3,4.9,4.5,12,4.5,21c0,4.3-0.3,8.2-1,11.6c-0.7,3.4-1.8,6.4-3.2,9
			C977.4,466.6,975.5,468.6,973.2,469.9z"/>
		<path id="Stroke-19-Copy-4" class="st6" d="M805,708l52-52"/>
		<path id="Stroke-19-Copy-5" class="st6" d="M866,661l52,52"/>
		<circle id="Oval_1_" class="st7" cx="808.5" cy="738.5" r="37.5"/>
		<path id="_x34_2" class="st5" d="M798.9,752v-7.4H786v-2.5l12.9-18.1h2.3v18.6h3.5l-0.3,2h-3.2v7.4H798.9z M788.6,742.6h10.3
			v-14.8L788.6,742.6z M809.9,752l-0.6-2.3l9.8-11.1c1.3-1.5,2.2-2.8,2.9-3.9s0.9-2.2,0.9-3.2c0-1.7-0.4-3.1-1.3-4
			c-0.8-0.9-2.1-1.4-3.8-1.4c-1.2,0-2.4,0.2-3.5,0.5c-1.2,0.3-2.1,0.9-2.8,1.5l-0.9-1.8c1.6-1.5,4-2.2,7.3-2.2
			c2.4,0,4.3,0.6,5.7,1.9c1.4,1.3,2.1,3,2.1,5.1c0,1.4-0.4,2.8-1.1,4.2s-1.9,3-3.6,4.9l-8.5,9.5H826l-0.2,2.3H809.9z"/>
		<circle id="Oval_2_" class="st7" cx="907.5" cy="738.5" r="37.5"/>
		<path id="_x36_9" class="st5" d="M895,755c-1.4,0-2.7-0.3-3.8-0.8s-2.1-1.2-2.9-2.1c-0.7-0.9-1.3-1.9-1.7-3s-0.6-2.3-0.6-3.5
			c0-0.6,0-1.1,0.1-1.5c0.1-0.5,0.1-0.9,0.2-1.3s0.3-0.9,0.5-1.4c0.3-0.5,0.5-1,0.7-1.4c0.2-0.4,0.6-0.9,1.1-1.7s0.9-1.3,1.3-1.9
			s1-1.3,1.7-2.4c0.6-0.8,1.5-1.8,2.6-3.1c1.1-1.3,2-2.4,2.8-3.2l1.2-1.3h2.6l-9.8,12.1c0.7-0.4,1.5-0.8,2.3-1
			c0.8-0.2,1.6-0.3,2.6-0.3c1.1,0,2.1,0.2,3.1,0.7c1,0.5,1.9,1.1,2.6,1.9c0.7,0.8,1.3,1.7,1.8,2.8c0.4,1.1,0.7,2.3,0.7,3.5
			c0,2.4-0.8,4.5-2.5,6.2S897.6,755,895,755z M895,752.9c1.9,0,3.5-0.7,4.8-2c1.2-1.3,1.8-2.9,1.8-4.7c0-1.2-0.2-2.4-0.7-3.4
			c-0.5-1-1.3-1.9-2.3-2.6c-1-0.7-2.2-1-3.5-1c-1.1,0-2,0.2-2.9,0.6c-0.9,0.4-1.6,0.9-2.1,1.5c-0.5,0.6-0.9,1.4-1.2,2.2
			c-0.3,0.8-0.4,1.7-0.4,2.6c0,0.8,0.2,1.7,0.5,2.5c0.3,0.8,0.7,1.5,1.3,2.2c0.5,0.6,1.2,1.2,2.1,1.5
			C893.1,752.7,894,752.9,895,752.9z M912.2,754.6l10.5-12.8c-0.7,0.5-1.5,0.8-2.4,1.1c-0.9,0.3-1.8,0.4-2.6,0.4
			c-1.5,0-2.9-0.3-4.2-1c-1.3-0.7-2.4-1.7-3.2-3s-1.2-2.8-1.2-4.5c0-1.2,0.2-2.3,0.6-3.4c0.4-1.1,1-2,1.8-2.8
			c0.8-0.8,1.7-1.4,2.9-1.9c1.2-0.5,2.4-0.7,3.8-0.7c1.4,0,2.7,0.2,3.9,0.7c1.1,0.5,2.1,1.2,2.8,2c0.7,0.8,1.3,1.8,1.6,2.9
			s0.6,2.2,0.6,3.5c0,1.8-0.3,3.4-0.8,4.7s-1.7,3.2-3.5,5.7l-1.9,2.3c-1.2,1.5-2.5,3-3.7,4.5l-1.9,2.3H912.2z M918,741.3
			c1.1,0,2.1-0.2,3-0.5c0.9-0.4,1.6-0.9,2.1-1.5c0.5-0.6,0.9-1.3,1.2-2.1c0.3-0.8,0.4-1.6,0.4-2.4c0-0.9-0.1-1.7-0.4-2.5
			c-0.3-0.8-0.7-1.5-1.2-2.1c-0.5-0.6-1.2-1.1-2.1-1.5s-1.8-0.6-2.8-0.6c-1.4,0-2.6,0.3-3.6,1c-1.1,0.7-1.9,1.5-2.4,2.5
			s-0.8,2.1-0.8,3.3c0,1.9,0.6,3.4,1.8,4.6C914.4,740.7,916,741.3,918,741.3z"/>
		<path id="Stroke-19-Copy-4_1_" class="st6" d="M994,708l52-52"/>
		<path id="Stroke-19-Copy-5_1_" class="st6" d="M1056,661l52,52"/>
		<circle id="Oval_3_" class="st7" cx="997.5" cy="738.5" r="37.5"/>
		<path id="_x37_6" class="st5" d="M982,753.6l10.1-25.5H979l0.3-2.1h14.9l0.3,2.3l-9.9,25.3H982z M1009,754c-1.4,0-2.7-0.3-3.8-0.8
			c-1.2-0.5-2.1-1.2-2.9-2.1c-0.7-0.9-1.3-1.8-1.7-2.9s-0.6-2.2-0.6-3.4c0-0.5,0-1,0.1-1.5c0.1-0.5,0.1-0.9,0.2-1.3s0.3-0.8,0.5-1.4
			c0.3-0.5,0.5-1,0.7-1.3c0.2-0.4,0.6-0.9,1.1-1.6c0.5-0.7,0.9-1.3,1.3-1.8c0.4-0.5,1-1.3,1.7-2.3c0.6-0.8,1.5-1.8,2.6-3.1
			c1.1-1.3,2-2.3,2.8-3.2l1.2-1.3h2.6l-9.8,11.8c0.7-0.4,1.5-0.7,2.3-0.9c0.8-0.2,1.6-0.3,2.6-0.3c1.1,0,2.1,0.2,3.1,0.7
			c1,0.5,1.9,1.1,2.6,1.8c0.7,0.8,1.3,1.7,1.8,2.8s0.7,2.2,0.7,3.5c0,2.4-0.8,4.4-2.5,6.1C1013.8,753.2,1011.6,754,1009,754z
			 M1009,751.9c1.9,0,3.5-0.7,4.8-2c1.2-1.3,1.8-2.9,1.8-4.6c0-1.2-0.2-2.3-0.7-3.4s-1.2-1.9-2.3-2.5s-2.2-1-3.5-1
			c-1.1,0-2,0.2-2.9,0.5s-1.5,0.9-2.1,1.5c-0.5,0.6-0.9,1.3-1.2,2.1c-0.3,0.8-0.4,1.7-0.4,2.6c0,0.8,0.2,1.6,0.5,2.4
			c0.3,0.8,0.7,1.5,1.3,2.1c0.5,0.6,1.2,1.1,2.1,1.5C1007.1,751.8,1008,751.9,1009,751.9z"/>
		<circle id="Oval_4_" class="st7" cx="1096.5" cy="738.5" r="37.5"/>
		<path id="_x39_8" class="st5" d="M1079.2,755.6l10.5-12.8c-0.7,0.5-1.5,0.8-2.4,1.1s-1.8,0.4-2.6,0.4c-1.5,0-2.9-0.3-4.2-1
			c-1.3-0.7-2.4-1.7-3.2-3s-1.2-2.8-1.2-4.5c0-1.2,0.2-2.3,0.6-3.4s1-2,1.8-2.8c0.8-0.8,1.7-1.4,2.9-1.9c1.2-0.5,2.4-0.7,3.8-0.7
			c1.5,0,2.8,0.2,3.9,0.7c1.2,0.5,2.1,1.2,2.8,2c0.7,0.8,1.3,1.8,1.6,2.9c0.4,1.1,0.6,2.2,0.6,3.5c0,1.8-0.3,3.4-0.8,4.7
			s-1.7,3.2-3.5,5.7l-1.9,2.3c-1.2,1.5-2.5,3-3.7,4.5l-1.9,2.3H1079.2z M1085.1,742.3c1.1,0,2.1-0.2,3-0.5c0.9-0.4,1.6-0.9,2.1-1.5
			c0.5-0.6,0.9-1.3,1.2-2.1c0.3-0.8,0.4-1.6,0.4-2.4c0-0.9-0.1-1.7-0.4-2.5s-0.7-1.5-1.2-2.1c-0.5-0.6-1.2-1.1-2.1-1.5
			c-0.8-0.4-1.8-0.6-2.8-0.6c-1.4,0-2.6,0.3-3.7,1s-1.9,1.5-2.4,2.5s-0.8,2.1-0.8,3.3c0,1.9,0.6,3.4,1.8,4.6
			C1081.4,741.7,1083.1,742.3,1085.1,742.3z M1108.1,756c-1.7,0-3.2-0.3-4.5-0.9c-1.3-0.6-2.4-1.4-3.3-2.6c-0.8-1.2-1.2-2.6-1.2-4.2
			c0-1.8,0.6-3.5,1.7-4.9c1.1-1.4,2.7-2.4,4.8-3c-1.9-0.5-3.3-1.3-4.3-2.4c-1-1.1-1.5-2.4-1.5-4c0-2.1,0.8-3.8,2.3-5.1
			c1.6-1.3,3.6-1.9,6.1-1.9c2.5,0,4.5,0.6,6,1.9s2.3,3,2.3,5.1c0,1.6-0.5,2.9-1.5,4c-1,1.1-2.3,1.9-4.1,2.4c1.9,0.6,3.4,1.6,4.5,3
			c1.1,1.4,1.7,3.1,1.7,4.9c0,1.2-0.2,2.3-0.7,3.3c-0.5,1-1.1,1.8-1.9,2.4c-0.8,0.6-1.7,1.1-2.8,1.5
			C1110.5,755.8,1109.3,756,1108.1,756z M1108.1,754c1.8,0,3.3-0.5,4.6-1.5c1.2-1,1.8-2.4,1.8-4.1c0-1.8-0.6-3.3-1.7-4.5
			s-2.7-2-4.7-2.5c-2,0.5-3.5,1.3-4.7,2.5c-1.2,1.2-1.8,2.7-1.8,4.5c0,1.7,0.6,3,1.9,4.1S1106.2,754,1108.1,754z M1108.1,739.4
			c3.9-0.8,5.8-2.6,5.8-5.5c0-1.6-0.6-2.8-1.7-3.6s-2.5-1.3-4.1-1.3c-1.6,0-3,0.4-4.2,1.3c-1.2,0.9-1.7,2.1-1.7,3.6
			C1102.2,736.8,1104.1,738.6,1108.1,739.4z"/>
		<circle id="Oval_5_" class="st7" cx="858" cy="611" r="55"/>
		<path id="_x36_4" class="st5" d="M839.1,632c-2,0-3.9-0.4-5.5-1.1c-1.7-0.8-3.1-1.8-4.2-3c-1.1-1.3-1.9-2.7-2.5-4.3
			s-0.9-3.3-0.9-5c0-0.8,0-1.5,0.1-2.2c0.1-0.7,0.2-1.3,0.3-1.9c0.1-0.6,0.4-1.2,0.7-2s0.7-1.4,1-2s0.8-1.4,1.5-2.4s1.4-1.9,1.9-2.7
			c0.6-0.8,1.4-1.9,2.5-3.4c0.9-1.2,2.2-2.7,3.8-4.5s3-3.4,4.1-4.7l1.7-1.9h3.7l-14.3,17.4c1.1-0.6,2.2-1.1,3.3-1.4
			c1.1-0.3,2.4-0.4,3.8-0.4c1.6,0,3.1,0.3,4.5,1c1.5,0.7,2.7,1.6,3.8,2.7c1.1,1.1,2,2.5,2.6,4.1c0.7,1.6,1,3.3,1,5.1
			c0,3.5-1.2,6.5-3.7,9S842.9,632,839.1,632z M839.1,629c2.8,0,5.1-1,6.9-2.9s2.7-4.2,2.7-6.8c0-1.8-0.4-3.4-1.1-5s-1.8-2.7-3.3-3.7
			s-3.2-1.4-5.1-1.4c-1.6,0-3,0.3-4.2,0.8c-1.2,0.5-2.3,1.3-3,2.2c-0.8,0.9-1.4,2-1.8,3.2c-0.4,1.2-0.6,2.5-0.6,3.8
			c0,1.2,0.2,2.4,0.7,3.6c0.4,1.2,1.1,2.2,1.8,3.1s1.8,1.7,3,2.2C836.3,628.7,837.7,629,839.1,629z M878.6,631.4v-10.9H860v-3.7
			l18.7-26.7h3.3v27.4h5.1l-0.4,3h-4.7v10.9H878.6z M863.7,617.4h14.8v-21.8L863.7,617.4z"/>
		<circle id="Oval_6_" class="st7" cx="1049" cy="611" r="55"/>
		<path id="_x39_7" class="st5" d="M1027.7,636l15.3-18.8c-1,0.7-2.2,1.2-3.5,1.6c-1.3,0.4-2.6,0.6-3.8,0.6c-2.2,0-4.3-0.5-6.2-1.5
			c-1.9-1-3.5-2.5-4.7-4.4c-1.2-1.9-1.8-4.1-1.8-6.6c0-1.8,0.3-3.4,0.9-5c0.6-1.6,1.5-2.9,2.6-4.1c1.1-1.2,2.5-2.1,4.2-2.8
			s3.5-1,5.6-1c2.1,0,4,0.4,5.7,1.1s3,1.7,4.1,3c1,1.2,1.8,2.7,2.4,4.3c0.5,1.6,0.8,3.3,0.8,5.1c0,2.7-0.4,5-1.2,6.9
			c-0.8,1.9-2.5,4.7-5.1,8.4l-2.7,3.3c-1.8,2.2-3.6,4.4-5.4,6.6l-2.7,3.3H1027.7z M1036.2,616.5c1.6,0,3.1-0.3,4.3-0.8
			c1.3-0.5,2.3-1.3,3-2.2c0.8-0.9,1.3-1.9,1.7-3.1c0.4-1.1,0.6-2.3,0.6-3.6c0-1.3-0.2-2.5-0.6-3.7c-0.4-1.2-1-2.2-1.8-3.1
			c-0.8-0.9-1.8-1.7-3-2.2s-2.6-0.8-4.1-0.8c-2,0-3.8,0.5-5.3,1.5c-1.5,1-2.7,2.2-3.5,3.7c-0.8,1.5-1.2,3.1-1.2,4.8
			c0,2.8,0.9,5,2.7,6.8C1030.9,615.6,1033.3,616.5,1036.2,616.5z M1060.8,636l14.8-38.2h-19.1l0.4-3.1h21.7l0.4,3.4l-14.4,37.9
			H1060.8z"/>
		<path id="Stroke-19_1_" class="st6" d="M290.6,382.8L526,279"/>
		<path id="Stroke-19-Copy-3_1_" class="st6" d="M357,561l-81-64"/>
		<path id="Stroke-19-Copy-6_1_" class="st6" d="M232,498l-81,64"/>
		<circle id="Oval_7_" class="st7" cx="248.5" cy="438.5" r="72.5"/>
		<path id="_x32_3" class="st5" d="M210.1,471.2l-1.1-4.6l18.8-22c2.5-2.9,4.3-5.5,5.5-7.7c1.2-2.2,1.8-4.3,1.8-6.3
			c0-3.4-0.8-6.1-2.4-7.9c-1.6-1.8-4-2.7-7.2-2.7c-2.3,0-4.5,0.3-6.8,1c-2.2,0.7-4,1.7-5.4,3l-1.7-3.5c3-2.9,7.7-4.4,14.1-4.4
			c4.6,0,8.3,1.3,10.9,3.8c2.7,2.5,4,5.9,4,10c0,2.8-0.7,5.5-2.1,8.2c-1.4,2.7-3.7,5.9-7,9.7l-16.3,18.8H241l-0.3,4.5H210.1z
			 M268.2,472c-3.2,0-6-0.4-8.5-1.3s-4.2-1.8-5.1-2.7l1.7-3.7c3.3,2.6,7.1,3.9,11.5,3.9c3.8,0,6.9-1,9.2-3c2.3-2,3.4-4.9,3.4-8.6
			c0-1.9-0.3-3.6-0.8-5s-1.3-2.6-2.2-3.5c-0.9-0.9-2.1-1.6-3.5-2.2c-1.4-0.6-2.9-1-4.3-1.2c-1.5-0.2-3.2-0.4-5.1-0.5h-2.1V440h1.6
			c1.4,0,2.6-0.1,3.7-0.3s2.3-0.3,3.5-0.6c1.2-0.3,2.3-0.7,3.2-1.2c0.9-0.5,1.7-1.1,2.5-1.9c0.7-0.7,1.3-1.7,1.7-2.8
			s0.6-2.4,0.6-3.8c0-6.4-3.5-9.5-10.6-9.5c-2.4,0-4.7,0.3-6.8,1c-2.1,0.7-3.9,1.6-5.2,2.9l-1.7-3.8c3.1-2.7,8.1-4,14.9-4
			c1.7,0,3.4,0.3,5,0.8c1.6,0.5,3.1,1.3,4.4,2.3c1.3,1,2.4,2.3,3.2,4c0.8,1.7,1.2,3.6,1.2,5.7c0,6.9-3.2,11.3-9.5,13.2
			c7.3,1.9,11,6.7,11.2,14.3c0.1,4.7-1.4,8.5-4.5,11.4C277.3,470.5,273.3,472,268.2,472z"/>
		<path id="Stroke-19-Copy-4_2_" class="st6" d="M107,708l52-52"/>
		<path id="Stroke-19-Copy-5_2_" class="st6" d="M169,661l52,52"/>
		<circle id="Oval_8_" class="st7" cx="110.5" cy="738.5" r="37.5"/>
		<path id="_x31_5" class="st5" d="M98.5,755.6v-25.1c-0.4,0.3-1,0.6-1.9,1.1c-0.9,0.4-1.7,0.8-2.6,1.1v-2c2.6-1.2,4.3-2.1,5-2.6h2
			v27.6H98.5z M116.5,756c-3.4,0-6.1-0.8-8.2-2.5l0.9-1.8c2,1.5,4.5,2.3,7.5,2.3c2.1,0,3.7-0.7,4.9-2c1.2-1.4,1.9-3.1,1.9-5.3
			c0-1.8-0.5-3.4-1.6-4.6c-1.1-1.2-2.4-1.8-4-1.8c-1.1,0-2.1,0.2-2.9,0.5c-0.8,0.3-1.7,0.8-2.7,1.6l-2.4-0.2l0.6-14.2h14.4l-0.2,2.1
			h-12.1l-0.6,10.1c1.6-1.2,3.4-1.8,5.4-1.8c1.7,0,3.3,0.3,4.6,1.1c1.3,0.8,2.3,1.8,3,3c0.7,1.3,1,2.6,1,4.1c0,2.8-0.9,5.1-2.6,6.8
			C121.7,755.1,119.4,756,116.5,756z"/>
		<circle id="Oval_9_" class="st7" cx="209.5" cy="738.5" r="37.5"/>
		<path id="_x32_2" class="st5" d="M192.6,755l-0.6-2.3l9.7-11.2c1.3-1.5,2.2-2.8,2.8-3.9c0.6-1.1,0.9-2.2,0.9-3.2
			c0-1.8-0.4-3.1-1.3-4c-0.8-0.9-2.1-1.4-3.7-1.4c-1.2,0-2.3,0.2-3.5,0.5c-1.1,0.4-2.1,0.9-2.8,1.5l-0.9-1.8c1.6-1.5,4-2.2,7.3-2.2
			c2.4,0,4.3,0.6,5.6,1.9c1.4,1.3,2.1,3,2.1,5.1c0,1.4-0.4,2.8-1.1,4.2c-0.7,1.4-1.9,3-3.6,4.9l-8.4,9.6h13.3l-0.1,2.3H192.6z
			 M215.1,755l-0.6-2.3l9.7-11.2c1.3-1.5,2.2-2.8,2.8-3.9c0.6-1.1,0.9-2.2,0.9-3.2c0-1.8-0.4-3.1-1.3-4c-0.8-0.9-2.1-1.4-3.7-1.4
			c-1.2,0-2.3,0.2-3.5,0.5c-1.1,0.4-2.1,0.9-2.8,1.5l-0.9-1.8c1.6-1.5,4-2.2,7.3-2.2c2.4,0,4.3,0.6,5.6,1.9c1.4,1.3,2.1,3,2.1,5.1
			c0,1.4-0.4,2.8-1.1,4.2c-0.7,1.4-1.9,3-3.6,4.9l-8.4,9.6H231l-0.1,2.3H215.1z"/>
		<path id="Stroke-19-Copy-4_3_" class="st6" d="M296,708l52-52"/>
		<path id="Stroke-19-Copy-5_3_" class="st6" d="M358,661l52,52"/>
		<circle id="Oval_10_" class="st7" cx="299.5" cy="738.5" r="37.5"/>
		<path id="_x33_1" class="st5" d="M289.9,756c-1.6,0-3-0.2-4.3-0.7c-1.3-0.5-2.1-0.9-2.6-1.4l0.9-1.9c1.7,1.3,3.6,2,5.8,2
			c1.9,0,3.5-0.5,4.6-1.6s1.7-2.5,1.7-4.5c0-1-0.1-1.9-0.4-2.6s-0.7-1.4-1.1-1.8c-0.5-0.5-1.1-0.8-1.8-1.1c-0.7-0.3-1.4-0.5-2.2-0.6
			c-0.8-0.1-1.6-0.2-2.6-0.2h-1.1v-2.1h0.8c0.7,0,1.3-0.1,1.9-0.1s1.1-0.2,1.8-0.3c0.6-0.1,1.1-0.3,1.6-0.6c0.5-0.3,0.9-0.6,1.2-1
			c0.4-0.4,0.7-0.9,0.9-1.4s0.3-1.2,0.3-2c0-3.3-1.8-4.9-5.3-4.9c-1.2,0-2.4,0.2-3.4,0.5c-1.1,0.4-1.9,0.9-2.6,1.5l-0.8-2
			c1.6-1.4,4.1-2.1,7.5-2.1c0.9,0,1.7,0.1,2.5,0.4c0.8,0.3,1.5,0.7,2.2,1.2c0.7,0.5,1.2,1.2,1.6,2.1c0.4,0.9,0.6,1.8,0.6,2.9
			c0,3.6-1.6,5.8-4.8,6.8c3.7,1,5.6,3.5,5.6,7.4c0,2.4-0.7,4.4-2.3,5.9C294.5,755.2,292.4,756,289.9,756z M306.7,755.6V730
			c-0.4,0.3-1,0.6-1.9,1.1c-0.8,0.4-1.7,0.8-2.5,1.1v-2c2.6-1.2,4.2-2.1,4.8-2.6h1.9v28H306.7z"/>
		<circle id="Oval_11_" class="st7" cx="398.5" cy="738.5" r="37.5"/>
		<path id="_x33_8" class="st5" d="M389,756c-1.6,0-3.1-0.2-4.4-0.7c-1.3-0.5-2.2-0.9-2.6-1.4l0.9-1.9c1.7,1.3,3.7,2,5.9,2
			c2,0,3.5-0.5,4.7-1.6c1.2-1,1.7-2.5,1.7-4.5c0-1-0.1-1.9-0.4-2.6s-0.7-1.4-1.1-1.8c-0.5-0.5-1.1-0.8-1.8-1.1
			c-0.7-0.3-1.5-0.5-2.2-0.6c-0.8-0.1-1.6-0.2-2.6-0.2h-1.1v-2.1h0.8c0.7,0,1.3-0.1,1.9-0.1s1.2-0.2,1.8-0.3s1.2-0.3,1.6-0.6
			c0.5-0.3,0.9-0.6,1.3-1c0.4-0.4,0.7-0.9,0.9-1.4c0.2-0.6,0.3-1.2,0.3-2c0-3.3-1.8-4.9-5.4-4.9c-1.2,0-2.4,0.2-3.5,0.5
			c-1.1,0.4-2,0.9-2.7,1.5l-0.9-2c1.6-1.4,4.1-2.1,7.7-2.1c0.9,0,1.8,0.1,2.6,0.4s1.6,0.7,2.3,1.2c0.7,0.5,1.2,1.2,1.6,2.1
			c0.4,0.9,0.6,1.8,0.6,2.9c0,3.6-1.6,5.8-4.9,6.8c3.8,1,5.7,3.5,5.7,7.4c0,2.4-0.7,4.4-2.3,5.9C393.7,755.2,391.6,756,389,756z
			 M412.2,756c-1.7,0-3.1-0.3-4.5-0.9c-1.3-0.6-2.4-1.4-3.2-2.6c-0.8-1.2-1.2-2.6-1.2-4.2c0-1.8,0.6-3.5,1.7-4.9
			c1.1-1.4,2.7-2.4,4.7-3c-1.9-0.5-3.3-1.3-4.3-2.4c-1-1.1-1.5-2.4-1.5-4c0-2.1,0.8-3.8,2.3-5.1c1.5-1.3,3.6-1.9,6.1-1.9
			c2.5,0,4.4,0.6,5.9,1.9s2.3,2.9,2.3,5.1c0,1.6-0.5,2.9-1.5,4c-1,1.1-2.3,1.9-4.1,2.4c1.9,0.6,3.4,1.6,4.5,3
			c1.1,1.4,1.6,3.1,1.6,4.9c0,1.2-0.2,2.3-0.7,3.3c-0.5,1-1.1,1.8-1.9,2.4c-0.8,0.6-1.7,1.1-2.8,1.5S413.4,756,412.2,756z
			 M412.2,754c1.8,0,3.3-0.5,4.5-1.5c1.2-1,1.8-2.4,1.8-4.1c0-1.8-0.6-3.3-1.7-4.5c-1.1-1.2-2.7-2-4.6-2.5c-1.9,0.5-3.5,1.3-4.7,2.5
			c-1.2,1.2-1.8,2.7-1.8,4.5c0,1.7,0.6,3,1.8,4.1C408.8,753.5,410.3,754,412.2,754z M412.2,739.4c3.9-0.8,5.8-2.6,5.8-5.5
			c0-1.6-0.6-2.8-1.7-3.6c-1.1-0.9-2.5-1.3-4.1-1.3c-1.6,0-3,0.4-4.1,1.3c-1.1,0.9-1.7,2.1-1.7,3.6
			C406.3,736.8,408.2,738.6,412.2,739.4z"/>
		<circle id="Oval_12_" class="st7" cx="160" cy="611" r="55"/>
		<path id="_x31_9" class="st5" d="M145.6,636v-37.6c-0.6,0.4-1.5,1-2.8,1.6c-1.3,0.6-2.5,1.2-3.8,1.6v-3c3.8-1.8,6.2-3.1,7.2-3.9
			h2.9V636H145.6z M163.4,636l15.3-18.8c-1,0.7-2.2,1.2-3.5,1.6c-1.3,0.4-2.6,0.6-3.8,0.6c-2.2,0-4.3-0.5-6.2-1.5s-3.5-2.5-4.7-4.4
			c-1.2-1.9-1.8-4.1-1.8-6.6c0-1.8,0.3-3.4,0.9-5s1.5-2.9,2.6-4.1c1.1-1.2,2.5-2.1,4.2-2.8s3.5-1,5.6-1c2.1,0,4,0.4,5.7,1.1
			s3,1.7,4.1,3s1.8,2.7,2.4,4.3c0.5,1.6,0.8,3.3,0.8,5.1c0,2.7-0.4,5-1.2,6.9c-0.8,1.9-2.5,4.7-5.1,8.4l-2.7,3.3
			c-1.8,2.2-3.6,4.4-5.4,6.6l-2.7,3.3H163.4z M171.9,616.5c1.6,0,3.1-0.3,4.3-0.8c1.3-0.5,2.3-1.3,3.1-2.2c0.8-0.9,1.3-1.9,1.7-3.1
			c0.4-1.1,0.6-2.3,0.6-3.6c0-1.3-0.2-2.5-0.6-3.7s-1-2.2-1.8-3.1c-0.8-0.9-1.8-1.7-3-2.2c-1.2-0.6-2.6-0.8-4.1-0.8
			c-2,0-3.8,0.5-5.3,1.5c-1.6,1-2.7,2.2-3.5,3.7c-0.8,1.5-1.2,3.1-1.2,4.8c0,2.8,0.9,5,2.7,6.8C166.6,615.6,168.9,616.5,171.9,616.5
			z"/>
		<circle id="Oval_13_" class="st7" cx="351" cy="611" r="55"/>
		<path id="_x33_5" class="st5" d="M334.3,635c-2.4,0-4.5-0.3-6.4-1c-1.9-0.7-3.2-1.3-3.9-2l1.3-2.8c2.5,1.9,5.4,2.9,8.7,2.9
			c2.9,0,5.2-0.8,6.9-2.3c1.7-1.5,2.6-3.7,2.6-6.5c0-1.4-0.2-2.7-0.6-3.8c-0.4-1.1-1-2-1.7-2.6s-1.6-1.2-2.7-1.7
			c-1.1-0.4-2.2-0.7-3.3-0.9c-1.1-0.2-2.4-0.3-3.8-0.3h-1.6V611h1.2c1,0,1.9-0.1,2.8-0.2c0.8-0.1,1.7-0.3,2.6-0.5
			c0.9-0.2,1.7-0.5,2.4-0.9s1.3-0.9,1.9-1.4c0.6-0.6,1-1.3,1.3-2.1c0.3-0.8,0.4-1.8,0.4-2.9c0-4.8-2.7-7.2-8-7.2
			c-1.8,0-3.5,0.3-5.1,0.8c-1.6,0.5-2.9,1.2-3.9,2.1L324,596c2.3-2,6.1-3,11.3-3c1.3,0,2.6,0.2,3.8,0.6s2.3,1,3.3,1.7
			c1,0.7,1.8,1.7,2.4,3c0.6,1.3,0.9,2.7,0.9,4.3c0,5.1-2.4,8.4-7.1,9.9c5.5,1.4,8.3,5,8.4,10.8c0.1,3.5-1.1,6.4-3.4,8.5
			C341.2,633.9,338.1,635,334.3,635z M367.2,635c-4.9,0-8.8-1.2-11.9-3.7l1.2-2.6c2.8,2.3,6.4,3.4,10.8,3.4c3,0,5.3-1,7.1-3
			c1.8-2,2.7-4.6,2.7-7.8c0-2.7-0.8-4.9-2.3-6.7c-1.5-1.8-3.4-2.7-5.7-2.7c-1.7,0-3.1,0.2-4.2,0.7s-2.5,1.2-3.9,2.4l-3.4-0.2l0.9-21
			h20.8l-0.4,3h-17.5l-0.8,14.9c2.3-1.7,4.9-2.6,7.8-2.7c2.5,0,4.7,0.5,6.6,1.7c1.9,1.1,3.4,2.6,4.4,4.5c1,1.9,1.5,3.9,1.5,6.1
			c0,4.2-1.2,7.5-3.7,10C374.8,633.7,371.4,635,367.2,635z"/>
		<circle id="Oval_14_" class="st7" cx="603.5" cy="254.5" r="81.5"/>
		<path id="_x33_9" class="st5" d="M577.2,290c-3.5,0-6.7-0.5-9.5-1.5s-4.7-1.9-5.7-2.9l1.9-4.1c3.7,2.8,7.9,4.3,12.8,4.3
			c4.3,0,7.7-1.1,10.2-3.4c2.5-2.2,3.8-5.4,3.8-9.6c0-2.1-0.3-4-0.9-5.6c-0.6-1.6-1.5-2.9-2.5-3.9c-1-1-2.3-1.8-3.9-2.4
			c-1.6-0.6-3.2-1.1-4.9-1.3c-1.7-0.3-3.6-0.4-5.7-0.5h-2.3v-4.5h1.8c1.5-0.1,2.9-0.2,4.1-0.3s2.5-0.4,3.9-0.7
			c1.4-0.3,2.5-0.7,3.5-1.3c1-0.6,1.9-1.3,2.8-2.1c0.8-0.8,1.5-1.8,1.9-3.1c0.4-1.2,0.6-2.6,0.6-4.2c0-7-3.9-10.6-11.8-10.6
			c-2.7,0-5.2,0.4-7.6,1.1c-2.4,0.8-4.3,1.8-5.8,3.2l-1.9-4.2c3.5-3,9-4.4,16.7-4.4c1.9,0,3.8,0.3,5.6,0.9s3.4,1.4,4.9,2.5
			s2.6,2.6,3.5,4.4c0.9,1.9,1.3,3.9,1.3,6.3c0,7.6-3.5,12.5-10.6,14.6c8.2,2.1,12.3,7.4,12.5,15.9c0.1,5.2-1.6,9.4-5.1,12.6
			C587.4,288.4,582.9,290,577.2,290z M614,289.1l22.6-27.3c-1.5,1-3.2,1.8-5.2,2.4c-1.9,0.6-3.8,0.9-5.6,0.9c-3.3,0-6.3-0.7-9.2-2.2
			c-2.8-1.4-5.1-3.6-6.9-6.4c-1.8-2.8-2.7-6-2.7-9.6c0-2.6,0.5-5,1.4-7.3c0.9-2.3,2.2-4.3,3.9-6s3.8-3.1,6.3-4.1s5.2-1.5,8.2-1.5
			c3.1,0,5.9,0.5,8.4,1.6s4.5,2.5,6.1,4.3c1.6,1.8,2.7,3.9,3.5,6.2c0.8,2.3,1.2,4.8,1.2,7.4c0,3.9-0.6,7.3-1.8,10
			c-1.2,2.7-3.7,6.8-7.6,12.2l-4,4.8c-2.7,3.2-5.3,6.4-8,9.6l-4,4.8H614z M626.6,260.7c2.4,0,4.5-0.4,6.4-1.2s3.4-1.8,4.5-3.1
			s2-2.8,2.6-4.4s0.9-3.4,0.9-5.2c0-1.9-0.3-3.7-0.9-5.4c-0.6-1.7-1.5-3.2-2.6-4.6c-1.1-1.3-2.6-2.4-4.5-3.2
			c-1.8-0.8-3.9-1.2-6.1-1.2c-3,0-5.6,0.7-7.9,2.1c-2.3,1.4-4,3.2-5.2,5.4c-1.1,2.2-1.7,4.5-1.7,7c0,4,1.3,7.3,4,9.9
			S622.2,260.7,626.6,260.7z"/>
	</g>
</g>
</svg>
