<?xml version="1.0" encoding="utf-8"?>
<!-- Generator: Adobe Illustrator 23.0.3, SVG Export Plug-In . SVG Version: 6.00 Build 0)  -->
<svg version="1.1" id="Layer_1" xmlns="http://www.w3.org/2000/svg" xmlns:xlink="http://www.w3.org/1999/xlink" x="0px" y="0px"
	 viewBox="0 0 1214 800" style="enable-background:new 0 0 1214 800;" xml:space="preserve">
<style type="text/css">
	.st0{fill-rule:evenodd;clip-rule:evenodd;fill:#FFFFFF;}
	.st1{fill:#FFFFFF;}
	.st2{fill-rule:evenodd;clip-rule:evenodd;fill:#4C7EF3;}
	.st3{fill-rule:evenodd;clip-rule:evenodd;fill:#DBE5FD;}
</style>
<g id="Boolean-table">
	<g id="Boolean-operators-dk">
		<path id="Boolean-Operators" class="st0" d="M409.3,91V56.1h9.5c4.3,0,7.5,0.7,9.5,2.2s3,3.6,3,6.6c0,0.3,0,0.6,0,0.8s0,0.5-0.1,1
			s-0.2,0.9-0.3,1.3s-0.3,0.8-0.6,1.3s-0.6,0.9-1,1.3s-0.9,0.8-1.6,1.1s-1.4,0.7-2.2,0.9c2.4,0.4,4.3,1.3,5.6,2.9s1.9,3.5,1.9,5.6
			c0,3.1-1,5.5-2.9,7.2s-5,2.6-9,2.6H409.3z M412.3,88.7h8c6.3,0,9.5-2.5,9.5-7.5c0-2.7-0.9-4.6-2.6-5.6s-4.5-1.6-8.2-1.6h-6.7V88.7
			z M412.3,71.7h8c1.2,0,2.3-0.1,3.2-0.3s1.7-0.5,2.4-1s1.3-1.2,1.6-2s0.6-2,0.6-3.3c0-2.4-0.8-4.1-2.3-5.1s-3.9-1.4-7.2-1.4h-6.4
			V71.7z M448.7,89.2c1.9,0,3.5-0.5,4.7-1.5s2.2-2.3,2.8-3.9s0.9-3.5,0.9-5.6c0-3.3-0.7-6-2.1-8s-3.5-3-6.4-3
			c-1.9,0-3.5,0.5-4.8,1.5s-2.3,2.3-2.9,4s-0.9,3.5-0.9,5.6c0,3.2,0.7,5.8,2.2,7.9S445.9,89.2,448.7,89.2z M448.5,91.6
			c-2.3,0-4.4-0.6-6.2-1.8s-3.1-2.8-4.1-4.8s-1.4-4.3-1.4-6.8c0-1.9,0.3-3.7,0.8-5.3s1.3-3,2.3-4.2s2.2-2.1,3.7-2.8s3.1-1,4.9-1
			c2.4,0,4.5,0.6,6.3,1.8s3.1,2.8,4,4.8s1.3,4.3,1.3,6.8c0,2.6-0.5,4.8-1.4,6.8s-2.3,3.6-4.1,4.8S450.9,91.6,448.5,91.6z
			 M476.6,89.2c1.9,0,3.5-0.5,4.7-1.5s2.2-2.3,2.8-3.9s0.9-3.5,0.9-5.6c0-3.3-0.7-6-2.1-8s-3.5-3-6.4-3c-1.9,0-3.5,0.5-4.8,1.5
			s-2.3,2.3-2.9,4s-0.9,3.5-0.9,5.6c0,3.2,0.7,5.8,2.2,7.9S473.8,89.2,476.6,89.2z M476.4,91.6c-2.3,0-4.4-0.6-6.2-1.8
			s-3.1-2.8-4.1-4.8s-1.4-4.3-1.4-6.8c0-1.9,0.3-3.7,0.8-5.3s1.3-3,2.3-4.2s2.2-2.1,3.7-2.8s3.1-1,4.9-1c2.4,0,4.5,0.6,6.3,1.8
			s3.1,2.8,4,4.8s1.3,4.3,1.3,6.8c0,2.6-0.5,4.8-1.4,6.8s-2.3,3.6-4.1,4.8S478.8,91.6,476.4,91.6z M500.3,91.5
			c-2.2,0-3.7-0.5-4.7-1.5s-1.5-2.6-1.5-4.8v-30l2.9-0.2v30c0,1.6,0.3,2.6,0.9,3.2s1.4,0.9,2.6,0.9c0.9,0,2.1-0.2,3.5-0.5L504,91
			C502.5,91.4,501.3,91.5,500.3,91.5z M517.9,91.6c-3.5,0-6.4-1.2-8.4-3.6s-3.1-5.6-3.1-9.7c0-3.9,1-7.1,3.1-9.6s4.7-3.8,7.9-3.9
			c3,0,5.4,1.1,7.3,3.2s2.7,5,2.7,8.7c0,0.1,0,0.4,0,0.9s0,0.7,0,0.9h-17.9c0,3.3,0.8,5.9,2.4,7.8s3.6,2.9,6.2,2.9
			c1.7,0,3.1-0.2,4.4-0.6s2.5-0.9,3.9-1.7l0.5,2.2C524.1,90.8,521.2,91.6,517.9,91.6z M509.5,76.2h14.6c0-2.9-0.6-5.1-1.9-6.6
			s-2.9-2.3-5.1-2.3c-2.2,0-4,0.8-5.3,2.4S509.8,73.5,509.5,76.2z M540,91.6c-2.4,0-4.4-0.6-5.8-1.8s-2.2-3-2.2-5.2
			c0-1.3,0.3-2.5,0.9-3.5s1.4-1.8,2.5-2.4s2.4-1.1,3.8-1.4s3.1-0.6,4.9-0.7c2-0.1,3.5-0.2,4.5-0.3v-2.9c0-2-0.4-3.4-1.3-4.4
			s-2.3-1.5-4.3-1.5c-2.7,0-5.3,0.6-7.6,1.9c-0.1-0.2-0.2-0.5-0.4-1s-0.4-0.9-0.5-1.2c1-0.6,2.2-1.1,3.8-1.6s3.1-0.6,4.6-0.6
			c3.1,0,5.3,0.7,6.6,2s2,3.7,2,7V91h-2.3c-0.1-0.4-0.2-1.1-0.3-2.1s-0.2-1.6-0.2-1.6C546.5,90.1,543.7,91.6,540,91.6z M540.1,89.2
			c2,0,3.8-0.6,5.3-1.8s2.6-2.8,3.1-4.9v-4.4c-2.2,0.2-3.4,0.3-3.4,0.3c-3.8,0.3-6.5,1-7.9,1.9s-2.2,2.3-2.2,4.2
			c0,1.6,0.5,2.7,1.4,3.5S538.5,89.2,540.1,89.2z M558.4,91V65.3h2.5l0.4,4c0.9-1.4,2.2-2.5,3.7-3.2s3.2-1.2,5-1.2
			c3,0,5.1,0.8,6.5,2.4s2.1,4.2,2.1,7.8V91h-2.9V73.8c-0.1-2.3-0.6-3.9-1.5-4.9s-2.4-1.5-4.4-1.5c-2.3,0-4.2,0.6-5.7,1.8
			s-2.4,2.7-2.8,4.5c-0.1,0.7-0.1,1.5-0.1,2.3V91H558.4z M611.9,89.1c2.9,0,5.3-0.7,7.3-2s3.4-3.1,4.3-5.4s1.4-5,1.4-8.2
			c0-4.9-1.1-8.8-3.3-11.5s-5.4-4.1-9.6-4.1c-4.3,0-7.5,1.3-9.7,4s-3.3,6.5-3.3,11.5c0,4.8,1.1,8.6,3.3,11.4S607.6,89.1,611.9,89.1z
			 M611.9,91.5c-2.7,0-5-0.4-7.1-1.3s-3.8-2.1-5.1-3.7s-2.4-3.5-3-5.7s-1-4.6-1-7.2c0-5.5,1.4-9.9,4.3-13.2s6.9-4.9,12.1-4.9
			c5.1,0,9.1,1.6,12,4.9s4.3,7.7,4.3,13.2c0,2.6-0.4,5-1.1,7.1s-1.7,4.1-3.1,5.7s-3,2.9-5.1,3.8S614.5,91.5,611.9,91.5z
			 M634.3,102.4V65.3h2.6l0.3,3.7c1.2-1.4,2.4-2.4,3.7-3.1s2.7-1,4.3-1c3.7,0,6.4,1.2,8.2,3.6s2.7,5.8,2.7,10c0,3.8-1,7-2.9,9.4
			s-4.5,3.7-7.8,3.7c-1.7,0-3.3-0.4-4.8-1.2s-2.7-1.8-3.6-3.1c0.1,1.9,0.1,3.8,0.1,5.7v9.3L634.3,102.4z M645.3,89.2
			c1.3,0,2.5-0.3,3.5-1s1.9-1.5,2.5-2.6s1.1-2.2,1.4-3.5s0.5-2.6,0.5-3.9c0-1.4-0.1-2.7-0.4-3.9s-0.7-2.4-1.3-3.5s-1.4-1.9-2.5-2.6
			s-2.2-1-3.6-1c-1.5,0-2.7,0.3-3.8,0.8s-1.9,1.3-2.5,2.2s-1.1,2.1-1.3,3.3s-0.4,2.6-0.4,4.2c0,1.8,0.1,3.3,0.4,4.7s0.7,2.5,1.3,3.6
			s1.4,1.8,2.5,2.4S643.8,89.2,645.3,89.2z M672.3,91.6c-3.5,0-6.4-1.2-8.4-3.6s-3.1-5.6-3.1-9.7c0-3.9,1-7.1,3.1-9.6
			s4.7-3.8,7.9-3.9c3,0,5.4,1.1,7.3,3.2s2.7,5,2.7,8.7c0,0.1,0,0.4,0,0.9s0,0.7,0,0.9h-17.9c0,3.3,0.8,5.9,2.4,7.8s3.6,2.9,6.2,2.9
			c1.7,0,3.1-0.2,4.4-0.6s2.5-0.9,3.9-1.7l0.5,2.2C678.5,90.8,675.5,91.6,672.3,91.6z M663.9,76.2h14.6c0-2.9-0.6-5.1-1.9-6.6
			s-2.9-2.3-5.1-2.3c-2.2,0-4,0.8-5.3,2.4S664.1,73.5,663.9,76.2z M687.5,91c0-15.1,0-23.6,0-25.7h2.4l0.2,5.1
			c0.9-1.5,2.1-2.8,3.5-3.8s2.9-1.5,4.5-1.5c0.6,0,1.3,0.1,2.1,0.2l-0.2,2.4c-0.6-0.1-1.2-0.1-1.8-0.1c-2.2,0-4,0.9-5.5,2.6
			s-2.2,3.7-2.2,6.1V91H687.5z M711.1,91.6c-2.4,0-4.4-0.6-5.8-1.8s-2.2-3-2.2-5.2c0-1.3,0.3-2.5,0.9-3.5s1.4-1.8,2.5-2.4
			s2.4-1.1,3.8-1.4s3.1-0.6,4.9-0.7c2-0.1,3.5-0.2,4.5-0.3v-2.9c0-2-0.4-3.4-1.3-4.4s-2.3-1.5-4.3-1.5c-2.7,0-5.3,0.6-7.6,1.9
			c-0.1-0.2-0.2-0.5-0.4-1s-0.4-0.9-0.5-1.2c1-0.6,2.2-1.1,3.8-1.6s3.1-0.6,4.6-0.6c3.1,0,5.3,0.7,6.6,2s2,3.7,2,7V91h-2.3
			c-0.1-0.4-0.2-1.1-0.3-2.1s-0.2-1.6-0.2-1.6C717.7,90.1,714.8,91.6,711.1,91.6z M711.2,89.2c2,0,3.8-0.6,5.3-1.8s2.6-2.8,3.1-4.9
			v-4.4c-2.2,0.2-3.4,0.3-3.4,0.3c-3.8,0.3-6.5,1-7.9,1.9s-2.2,2.3-2.2,4.2c0,1.6,0.5,2.7,1.4,3.5S709.6,89.2,711.2,89.2z
			 M736.7,91.5c-2.2,0-3.7-0.5-4.7-1.5s-1.5-2.6-1.5-4.8V67.4h-3.6l0.2-1.8l3.5-0.3l0.8-5.9l2-0.1v6h7.5v2.1h-7.5v17.2
			c0,1.8,0.3,3,0.9,3.6s1.6,0.9,3.1,0.9c1,0,2.2-0.2,3.6-0.5l0.1,2.2C739.2,91.4,737.8,91.5,736.7,91.5z M756,89.2
			c1.9,0,3.5-0.5,4.7-1.5s2.2-2.3,2.8-3.9s0.9-3.5,0.9-5.6c0-3.3-0.7-6-2.1-8s-3.5-3-6.4-3c-1.9,0-3.5,0.5-4.8,1.5s-2.3,2.3-2.9,4
			s-0.9,3.5-0.9,5.6c0,3.2,0.7,5.8,2.2,7.9S753.2,89.2,756,89.2z M755.8,91.6c-2.3,0-4.4-0.6-6.2-1.8s-3.1-2.8-4.1-4.8
			s-1.4-4.3-1.4-6.8c0-1.9,0.3-3.7,0.8-5.3s1.3-3,2.3-4.2s2.2-2.1,3.7-2.8s3.1-1,4.9-1c2.4,0,4.5,0.6,6.3,1.8s3.1,2.8,4,4.8
			s1.3,4.3,1.3,6.8c0,2.6-0.5,4.8-1.4,6.8s-2.3,3.6-4.1,4.8S758.2,91.6,755.8,91.6z M773.3,91c0-15.1,0-23.6,0-25.7h2.4l0.2,5.1
			c0.9-1.5,2.1-2.8,3.5-3.8s2.9-1.5,4.5-1.5c0.6,0,1.3,0.1,2.1,0.2l-0.2,2.4c-0.6-0.1-1.2-0.1-1.8-0.1c-2.2,0-4,0.9-5.5,2.6
			s-2.2,3.7-2.2,6.1V91H773.3z M797.5,91.6c-1.7,0-3.2-0.2-4.7-0.6s-2.6-0.9-3.4-1.5l0.4-2.4c2.6,1.3,5,2,7.4,2
			c4.2,0,6.4-1.6,6.6-4.7c0-1.3-0.4-2.3-1.3-3.1s-2.6-1.5-5.1-2.3c-1.3-0.5-2.1-0.7-2.2-0.8c-4-1.2-6-3.4-6.1-6.5
			c0-1.8,0.8-3.4,2.4-4.8s3.7-2.1,6.4-2.1s5.2,0.5,7.6,1.6l-1,2.2c-2.4-0.9-4.6-1.4-6.7-1.4c-1.8,0-3.2,0.4-4.3,1.2
			s-1.6,1.9-1.6,3.3c0,1.2,0.3,2,1,2.7s2,1.2,4,1.8c0.2,0.1,0.6,0.2,1.2,0.4s0.9,0.3,1,0.4c2.7,0.8,4.6,1.8,5.7,2.9s1.6,2.7,1.6,4.6
			c0,2.3-0.9,4-2.5,5.2S800.2,91.6,797.5,91.6z"/>
		<path id="AND" class="st0" d="M201.1,230l11.3-29.1h2.4l10.9,29.1h-2.6l-3.7-9.9h-12.1l-3.9,9.9H201.1z M208.4,218.3h10.2
			c-2.9-8.4-4.6-13.4-5-14.8c-0.2,0.6-0.7,2.1-1.5,4.6s-1.7,4.8-2.5,7L208.4,218.3z M229.5,230v-29.1h2.9l16,24.5l1,1.4
			c-0.1-4-0.1-6.5-0.1-7.5v-18.5h2.4V230h-3l-16-24.5l-1-1.4c0.1,2.9,0.2,5.5,0.2,7.6V230H229.5z M261.3,227.9h5.7
			c4,0,7.1-1,9.2-3.1s3.2-5.1,3.2-9.2c0-2.2-0.3-4.2-0.9-5.8s-1.5-2.9-2.6-3.9s-2.5-1.7-4.1-2.2s-3.4-0.7-5.4-0.7h-5.1V227.9z
			 M258.8,230v-29.1h7.9c2.4,0,4.5,0.3,6.4,0.8c1.9,0.6,3.5,1.4,4.9,2.6s2.4,2.7,3.2,4.6s1.1,4.1,1.1,6.6c0,4.8-1.3,8.4-3.9,10.8
			s-6.3,3.7-11,3.7H258.8z"/>
		<path id="OR" class="st0" d="M656.9,228.4c2.4,0,4.4-0.5,6-1.6s2.8-2.6,3.6-4.5s1.1-4.2,1.1-6.8c0-4.1-0.9-7.3-2.7-9.6
			s-4.5-3.4-8-3.4c-3.6,0-6.3,1.1-8.1,3.4s-2.8,5.4-2.8,9.6c0,4,0.9,7.2,2.8,9.5S653.4,228.4,656.9,228.4z M656.9,230.4
			c-2.2,0-4.2-0.4-5.9-1.1s-3.2-1.8-4.3-3.1s-2-2.9-2.5-4.7s-0.9-3.8-0.9-6c0-4.6,1.2-8.3,3.6-11s5.7-4.1,10.1-4.1
			c4.3,0,7.6,1.4,10,4.1s3.6,6.4,3.6,11c0,2.1-0.3,4.1-0.9,5.9s-1.4,3.4-2.5,4.7s-2.5,2.4-4.3,3.1S659.1,230.4,656.9,230.4z
			 M676.3,230v-29.1h8.3c1.1,0,2,0,2.7,0.1s1.6,0.1,2.4,0.3s1.5,0.3,2.1,0.5s1.1,0.5,1.6,0.9s0.9,0.8,1.2,1.3s0.6,1.1,0.7,1.8
			s0.3,1.5,0.3,2.4c0,1.8-0.4,3.3-1.3,4.6s-2.2,2.1-4,2.6c0.8,1.6,1.4,2.8,1.8,3.7l4.8,10.9h-2.9l-4.1-9.9c-0.3-0.7-0.9-2.1-1.8-4.2
			c-0.3,0-1.2,0.1-2.9,0.1l-6.3-0.1V230H676.3z M686.2,213.8c2.6,0,4.4-0.5,5.4-1.4s1.5-2.3,1.5-4.2c0-1.7-0.5-3-1.4-3.9
			s-2.5-1.4-4.8-1.4h-8.2v10.7C681.9,213.8,684.3,213.8,686.2,213.8z"/>
		<path id="NOT" class="st0" d="M997.6,230v-29.1h2.9l16,24.5l1,1.4c-0.1-4-0.1-6.5-0.1-7.5v-18.5h2.4V230h-3l-16-24.5l-1-1.4
			c0.1,2.9,0.2,5.5,0.2,7.6V230H997.6z M1039.2,228.4c2.4,0,4.4-0.5,6-1.6s2.8-2.6,3.6-4.5s1.1-4.2,1.1-6.8c0-4.1-0.9-7.3-2.7-9.6
			s-4.5-3.4-8-3.4c-3.6,0-6.3,1.1-8.1,3.4s-2.8,5.4-2.8,9.6c0,4,0.9,7.2,2.8,9.5S1035.6,228.4,1039.2,228.4z M1039.2,230.4
			c-2.2,0-4.2-0.4-5.9-1.1s-3.2-1.8-4.3-3.1s-2-2.9-2.5-4.7s-0.9-3.8-0.9-6c0-4.6,1.2-8.3,3.6-11s5.7-4.1,10.1-4.1
			c4.3,0,7.6,1.4,10,4.1s3.6,6.4,3.6,11c0,2.1-0.3,4.1-0.9,5.9s-1.4,3.4-2.5,4.7s-2.5,2.4-4.3,3.1S1041.4,230.4,1039.2,230.4z
			 M1064.4,230v-26.9h-9.1v-2.1h20.8v2.1h-9.1V230H1064.4z"/>
		<polygon id="Rectangle" class="st1" points="436,689 436,315 438,315 438,691 47,691 47,315 49,315 49,689 		"/>
		<polygon id="Line" class="st1" points="48,317 48,315 437,315 437,317 		"/>
		<polygon id="Line-Copy" class="st1" points="49,504 49,502 438,502 438,504 		"/>
		<polygon id="Line-Copy-2" class="st1" points="49,597 49,595 438,595 438,597 		"/>
		<polygon id="Line-Copy-3" class="st1" points="49,411 49,409 438,409 438,411 		"/>
		<path id="A" class="st2" d="M115.1,286c-2.1-6-3.2-9.4-3.4-10.1l-3.6,10.1H115.1z M118.4,295l-2.5-6.9h-8.6l-2.6,6.9H102l8.3-21.7
			h2.6L121,295H118.4z"/>
		<path id="True" class="st2" d="M89,375v-20.2h-6.9v-1.6h15.6v1.6h-6.9V375H89z M100,375c0-9.4,0-14.8,0-16.1h1.5l0.1,3.2
			c0.6-1,1.3-1.7,2.2-2.3s1.8-0.9,2.8-0.9c0.4,0,0.8,0,1.3,0.1l-0.1,1.5c-0.4-0.1-0.7-0.1-1.1-0.1c-1.4,0-2.5,0.5-3.4,1.6
			s-1.4,2.3-1.4,3.8v9.2H100z M116.5,375.4c-0.8,0-1.6-0.1-2.3-0.3s-1.4-0.5-2-0.9s-1.1-1-1.5-1.7s-0.5-1.6-0.5-2.6v-10.9h1.8v11
			c0,0.8,0.1,1.4,0.4,1.9s0.6,0.9,1,1.2s0.9,0.5,1.4,0.6s1.1,0.2,1.7,0.2c0.7,0,1.2-0.1,1.7-0.2s1-0.3,1.4-0.6s0.8-0.7,1-1.2
			s0.3-1.2,0.3-1.9v-11h1.8v10.9c0,0.8-0.1,1.6-0.4,2.2s-0.5,1.2-0.9,1.6s-0.9,0.7-1.4,1s-1.1,0.5-1.7,0.6S117.1,375.4,116.5,375.4z
			 M133.2,375.4c-2.2,0-4-0.7-5.3-2.2c-1.3-1.5-2-3.5-2-6c0-2.5,0.6-4.5,1.9-6c1.3-1.6,2.9-2.4,4.9-2.4c1.9,0,3.4,0.7,4.5,2
			s1.7,3.2,1.7,5.4c0,0.1,0,0.3,0,0.5s0,0.5,0,0.6h-11.2c0,2.1,0.5,3.7,1.5,4.9s2.3,1.8,3.9,1.8c1,0,2-0.1,2.7-0.4s1.6-0.6,2.4-1
			l0.3,1.4C137.1,374.9,135.2,375.4,133.2,375.4z M127.9,365.7h9.1c0-1.8-0.4-3.2-1.2-4.1s-1.8-1.4-3.2-1.4c-1.4,0-2.5,0.5-3.3,1.5
			S128.1,364.1,127.9,365.7z"/>
		<path id="B" class="st2" d="M239.1,284.7v8.2h4.5c1.8,0,3.2-0.3,4.1-1s1.4-1.7,1.4-3.2c0-1.5-0.5-2.5-1.5-3.1s-2.5-0.9-4.6-0.9
			H239.1z M239.1,282.7h4.6c1.5,0,2.7-0.3,3.4-0.8s1.2-1.5,1.2-2.8c0-1.4-0.5-2.3-1.4-2.8s-2.4-0.8-4.3-0.8h-3.5V282.7z
			 M236.5,273.3h6.2c2.8,0,4.8,0.4,6.2,1.3s2,2.2,2,4.1c0,0.3,0,0.5-0.1,0.8s-0.1,0.6-0.3,1s-0.3,0.8-0.6,1.1s-0.6,0.7-1.1,1
			s-1,0.6-1.7,0.8c1.5,0.3,2.6,0.9,3.3,1.8s1.1,2.1,1.1,3.5c0,2-0.6,3.5-1.9,4.6s-3.2,1.6-5.7,1.6h-7.6V273.3z"/>
		<path class="st2" d="M220,375v-20.2h-6.9v-1.6h15.6v1.6h-6.9V375H220z M231,375c0-9.4,0-14.8,0-16.1h1.5l0.1,3.2
			c0.6-1,1.3-1.7,2.2-2.3s1.8-0.9,2.8-0.9c0.4,0,0.8,0,1.3,0.1l-0.1,1.5c-0.4-0.1-0.7-0.1-1.1-0.1c-1.4,0-2.5,0.5-3.4,1.6
			s-1.4,2.3-1.4,3.8v9.2H231z M247.5,375.4c-0.8,0-1.6-0.1-2.3-0.3s-1.4-0.5-2-0.9s-1.1-1-1.5-1.7s-0.5-1.6-0.5-2.6v-10.9h1.8v11
			c0,0.8,0.1,1.4,0.4,1.9s0.6,0.9,1,1.2s0.9,0.5,1.4,0.6s1.1,0.2,1.7,0.2c0.7,0,1.2-0.1,1.7-0.2s1-0.3,1.4-0.6s0.8-0.7,1-1.2
			s0.3-1.2,0.3-1.9v-11h1.8v10.9c0,0.8-0.1,1.6-0.4,2.2s-0.5,1.2-0.9,1.6s-0.9,0.7-1.4,1s-1.1,0.5-1.7,0.6S248.1,375.4,247.5,375.4z
			 M264.2,375.4c-2.2,0-4-0.7-5.3-2.2s-2-3.5-2-6c0-2.5,0.6-4.5,1.9-6s2.9-2.4,4.9-2.4c1.9,0,3.4,0.7,4.5,2s1.7,3.2,1.7,5.4
			c0,0.1,0,0.3,0,0.5s0,0.5,0,0.6h-11.2c0,2.1,0.5,3.7,1.5,4.9s2.3,1.8,3.9,1.8c1,0,2-0.1,2.7-0.4s1.6-0.6,2.4-1l0.3,1.4
			C268.1,374.9,266.2,375.4,264.2,375.4z M258.9,365.7h9.1c0-1.8-0.4-3.2-1.2-4.1s-1.8-1.4-3.2-1.4c-1.4,0-2.5,0.5-3.3,1.5
			S259.1,364.1,258.9,365.7z"/>
		<path id="A-AND-B" class="st2" d="M330.1,286c-2.1-6-3.2-9.4-3.4-10.1l-3.6,10.1H330.1z M333.4,295l-2.5-6.9h-8.6l-2.6,6.9H317
			l8.3-21.7h2.6L336,295H333.4z M356.6,286c-2.1-6-3.2-9.4-3.4-10.1l-3.6,10.1H356.6z M360,295l-2.5-6.9h-8.6l-2.6,6.9h-2.6
			l8.3-21.7h2.6l8.1,21.7H360z M382.3,295h-2.9l-11.2-17.1l-0.7-1c0.1,2.1,0.1,3.9,0.1,5.5V295h-2.4v-21.7h2.8l11.3,17.1l0.7,1
			c-0.1-3.1-0.1-4.9-0.1-5.4v-12.7h2.4V295z M402.5,284.2c0-3-0.8-5.2-2.3-6.6s-3.8-2.1-6.8-2.1h-3.4v17.2h3.8c2.9,0,5-0.7,6.5-2.2
			S402.5,287.1,402.5,284.2z M405.2,284.1c0,3.5-1,6.2-3,8.1s-4.8,2.8-8.4,2.8h-6.4v-21.7h6c1.8,0,3.4,0.2,4.8,0.6s2.7,1.1,3.7,1.9
			s1.9,2,2.4,3.4S405.2,282.3,405.2,284.1z M419.4,284.7v8.2h4.5c1.8,0,3.2-0.3,4.1-1s1.4-1.7,1.4-3.2c0-1.5-0.5-2.5-1.5-3.1
			s-2.5-0.9-4.6-0.9H419.4z M419.4,282.7h4.6c1.5,0,2.7-0.3,3.4-0.8s1.2-1.5,1.2-2.8c0-1.4-0.5-2.3-1.4-2.8s-2.4-0.8-4.3-0.8h-3.5
			V282.7z M416.9,273.3h6.2c2.8,0,4.8,0.4,6.2,1.3s2,2.2,2,4.1c0,0.3,0,0.5-0.1,0.8s-0.1,0.6-0.3,1s-0.3,0.8-0.6,1.1s-0.6,0.7-1.1,1
			s-1,0.6-1.7,0.8c1.5,0.3,2.6,0.9,3.3,1.8s1.1,2.1,1.1,3.5c0,2-0.6,3.5-1.9,4.6s-3.2,1.6-5.7,1.6h-7.6V273.3z"/>
		<path class="st3" d="M353,375v-20.2h-6.9v-1.6h15.6v1.6h-6.9V375H353z M364,375c0-9.4,0-14.8,0-16.1h1.5l0.1,3.2
			c0.6-1,1.3-1.7,2.2-2.3s1.8-0.9,2.8-0.9c0.4,0,0.8,0,1.3,0.1l-0.1,1.5c-0.4-0.1-0.7-0.1-1.1-0.1c-1.4,0-2.5,0.5-3.4,1.6
			s-1.4,2.3-1.4,3.8v9.2H364z M380.5,375.4c-0.8,0-1.6-0.1-2.3-0.3s-1.4-0.5-2-0.9s-1.1-1-1.5-1.7s-0.5-1.6-0.5-2.6v-10.9h1.8v11
			c0,0.8,0.1,1.4,0.4,1.9s0.6,0.9,1,1.2s0.9,0.5,1.4,0.6s1.1,0.2,1.7,0.2c0.7,0,1.2-0.1,1.7-0.2s1-0.3,1.4-0.6s0.8-0.7,1-1.2
			s0.3-1.2,0.3-1.9v-11h1.8v10.9c0,0.8-0.1,1.6-0.4,2.2s-0.5,1.2-0.9,1.6s-0.9,0.7-1.4,1s-1.1,0.5-1.7,0.6S381.1,375.4,380.5,375.4z
			 M397.2,375.4c-2.2,0-4-0.7-5.3-2.2s-2-3.5-2-6c0-2.5,0.6-4.5,1.9-6s2.9-2.4,4.9-2.4c1.9,0,3.4,0.7,4.5,2s1.7,3.2,1.7,5.4
			c0,0.1,0,0.3,0,0.5s0,0.5,0,0.6h-11.2c0,2.1,0.5,3.7,1.5,4.9s2.3,1.8,3.9,1.8c1,0,2-0.1,2.7-0.4s1.6-0.6,2.4-1l0.3,1.4
			C401.1,374.9,399.2,375.4,397.2,375.4z M391.9,365.7h9.1c0-1.8-0.4-3.2-1.2-4.1s-1.8-1.4-3.2-1.4c-1.4,0-2.5,0.5-3.3,1.5
			S392.1,364.1,391.9,365.7z"/>
		<path class="st2" d="M89,466v-20.2h-6.9v-1.6h15.6v1.6h-6.9V466H89z M100,466c0-9.4,0-14.8,0-16.1h1.5l0.1,3.2
			c0.6-1,1.3-1.7,2.2-2.3s1.8-0.9,2.8-0.9c0.4,0,0.8,0,1.3,0.1l-0.1,1.5c-0.4-0.1-0.7-0.1-1.1-0.1c-1.4,0-2.5,0.5-3.4,1.6
			s-1.4,2.3-1.4,3.8v9.2H100z M116.5,466.4c-0.8,0-1.6-0.1-2.3-0.3s-1.4-0.5-2-0.9s-1.1-1-1.5-1.7s-0.5-1.6-0.5-2.6v-10.9h1.8v11
			c0,0.8,0.1,1.4,0.4,1.9s0.6,0.9,1,1.2s0.9,0.5,1.4,0.6s1.1,0.2,1.7,0.2c0.7,0,1.2-0.1,1.7-0.2s1-0.3,1.4-0.6s0.8-0.7,1-1.2
			s0.3-1.2,0.3-1.9v-11h1.8v10.9c0,0.8-0.1,1.6-0.4,2.2s-0.5,1.2-0.9,1.6s-0.9,0.7-1.4,1s-1.1,0.5-1.7,0.6S117.1,466.4,116.5,466.4z
			 M133.2,466.4c-2.2,0-4-0.7-5.3-2.2c-1.3-1.5-2-3.5-2-6c0-2.5,0.6-4.5,1.9-6c1.3-1.6,2.9-2.4,4.9-2.4c1.9,0,3.4,0.7,4.5,2
			s1.7,3.2,1.7,5.4c0,0.1,0,0.3,0,0.5s0,0.5,0,0.6h-11.2c0,2.1,0.5,3.7,1.5,4.9s2.3,1.8,3.9,1.8c1,0,2-0.1,2.7-0.4s1.6-0.6,2.4-1
			l0.3,1.4C137.1,465.9,135.2,466.4,133.2,466.4z M127.9,456.7h9.1c0-1.8-0.4-3.2-1.2-4.1s-1.8-1.4-3.2-1.4c-1.4,0-2.5,0.5-3.3,1.5
			S128.1,455.1,127.9,456.7z"/>
		<path id="False" class="st2" d="M210.7,466v-21.8h11.7l-0.1,1.6h-9.7v8.6h9.3v1.5h-9.3v10H210.7z M229.5,466.4
			c-1.5,0-2.7-0.4-3.6-1.1s-1.4-1.9-1.4-3.3c0-0.8,0.2-1.6,0.5-2.2s0.9-1.1,1.6-1.5s1.5-0.7,2.4-0.9s1.9-0.4,3.1-0.5
			c1.2-0.1,2.2-0.1,2.8-0.2v-1.8c0-1.2-0.3-2.2-0.8-2.8s-1.5-0.9-2.7-0.9c-1.7,0-3.3,0.4-4.8,1.2c0-0.1-0.1-0.3-0.3-0.6
			s-0.2-0.6-0.3-0.8c0.6-0.4,1.4-0.7,2.4-1s1.9-0.4,2.9-0.4c1.9,0,3.3,0.4,4.1,1.2s1.3,2.3,1.3,4.4V466h-1.4c0-0.2-0.1-0.7-0.2-1.3
			s-0.1-1-0.1-1C233.5,465.4,231.8,466.4,229.5,466.4z M229.5,464.9c1.2,0,2.4-0.4,3.3-1.1s1.6-1.8,1.9-3.1V458
			c-1.4,0.1-2.1,0.2-2.1,0.2c-2.4,0.2-4,0.6-5,1.2s-1.4,1.4-1.4,2.6c0,1,0.3,1.7,0.9,2.2S228.5,464.9,229.5,464.9z M245,466.3
			c-1.3,0-2.3-0.3-3-0.9s-0.9-1.6-0.9-3v-18.7l1.8-0.1v18.8c0,1,0.2,1.7,0.5,2s0.9,0.6,1.6,0.6c0.6,0,1.3-0.1,2.2-0.3l0.1,1.4
			C246.3,466.2,245.6,466.3,245,466.3z M254.1,466.4c-1,0-2-0.1-2.9-0.4s-1.6-0.6-2.2-0.9l0.3-1.5c1.6,0.8,3.2,1.3,4.6,1.3
			c2.6,0,4-1,4.1-2.9c0-0.8-0.3-1.5-0.8-1.9s-1.6-1-3.2-1.5c-0.8-0.3-1.3-0.5-1.4-0.5c-2.5-0.8-3.8-2.1-3.8-4.1c0-1.1,0.5-2.1,1.5-3
			s2.3-1.3,4-1.3c1.7,0,3.3,0.3,4.8,1l-0.6,1.3c-1.5-0.6-2.9-0.8-4.2-0.8c-1.1,0-2,0.3-2.7,0.8s-1,1.2-1,2.1c0,0.7,0.2,1.3,0.6,1.7
			s1.3,0.8,2.5,1.1c0.1,0,0.4,0.1,0.8,0.3s0.6,0.2,0.6,0.2c1.7,0.5,2.9,1.1,3.5,1.8s1,1.7,1,2.9c0,1.4-0.6,2.5-1.6,3.3
			S255.8,466.4,254.1,466.4z M269.8,466.4c-2.2,0-4-0.7-5.3-2.2s-2-3.5-2-6c0-2.5,0.6-4.5,1.9-6s2.9-2.4,4.9-2.4
			c1.9,0,3.4,0.7,4.5,2s1.7,3.2,1.7,5.4c0,0.1,0,0.3,0,0.5s0,0.5,0,0.6h-11.2c0,2.1,0.5,3.7,1.5,4.9s2.3,1.8,3.9,1.8
			c1,0,2-0.1,2.7-0.4s1.6-0.6,2.4-1l0.3,1.4C273.7,465.9,271.8,466.4,269.8,466.4z M264.5,456.7h9.1c0-1.8-0.4-3.2-1.2-4.1
			s-1.8-1.4-3.2-1.4c-1.4,0-2.5,0.5-3.3,1.5S264.7,455.1,264.5,456.7z"/>
		<path class="st3" d="M343.7,466v-21.8h11.7l-0.1,1.6h-9.7v8.6h9.3v1.5h-9.3v10H343.7z M362.5,466.4c-1.5,0-2.7-0.4-3.6-1.1
			s-1.4-1.9-1.4-3.3c0-0.8,0.2-1.6,0.5-2.2s0.9-1.1,1.6-1.5s1.5-0.7,2.4-0.9s1.9-0.4,3.1-0.5c1.2-0.1,2.2-0.1,2.8-0.2v-1.8
			c0-1.2-0.3-2.2-0.8-2.8s-1.5-0.9-2.7-0.9c-1.7,0-3.3,0.4-4.8,1.2c0-0.1-0.1-0.3-0.3-0.6s-0.2-0.6-0.3-0.8c0.6-0.4,1.4-0.7,2.4-1
			s1.9-0.4,2.9-0.4c1.9,0,3.3,0.4,4.1,1.2s1.3,2.3,1.3,4.4V466h-1.4c0-0.2-0.1-0.7-0.2-1.3s-0.1-1-0.1-1
			C366.5,465.4,364.8,466.4,362.5,466.4z M362.5,464.9c1.2,0,2.4-0.4,3.3-1.1s1.6-1.8,1.9-3.1V458c-1.4,0.1-2.1,0.2-2.1,0.2
			c-2.4,0.2-4,0.6-5,1.2s-1.4,1.4-1.4,2.6c0,1,0.3,1.7,0.9,2.2S361.5,464.9,362.5,464.9z M378,466.3c-1.3,0-2.3-0.3-3-0.9
			s-0.9-1.6-0.9-3v-18.7l1.8-0.1v18.8c0,1,0.2,1.7,0.5,2s0.9,0.6,1.6,0.6c0.6,0,1.3-0.1,2.2-0.3l0.1,1.4
			C379.3,466.2,378.6,466.3,378,466.3z M387.1,466.4c-1,0-2-0.1-2.9-0.4s-1.6-0.6-2.2-0.9l0.3-1.5c1.6,0.8,3.2,1.3,4.6,1.3
			c2.6,0,4-1,4.1-2.9c0-0.8-0.3-1.5-0.8-1.9s-1.6-1-3.2-1.5c-0.8-0.3-1.3-0.5-1.4-0.5c-2.5-0.8-3.8-2.1-3.8-4.1c0-1.1,0.5-2.1,1.5-3
			s2.3-1.3,4-1.3s3.3,0.3,4.8,1l-0.6,1.3c-1.5-0.6-2.9-0.8-4.2-0.8c-1.1,0-2,0.3-2.7,0.8s-1,1.2-1,2.1c0,0.7,0.2,1.3,0.6,1.7
			s1.3,0.8,2.5,1.1c0.1,0,0.4,0.1,0.8,0.3s0.6,0.2,0.6,0.2c1.7,0.5,2.9,1.1,3.5,1.8s1,1.7,1,2.9c0,1.4-0.6,2.5-1.6,3.3
			S388.8,466.4,387.1,466.4z M402.8,466.4c-2.2,0-4-0.7-5.3-2.2s-2-3.5-2-6c0-2.5,0.6-4.5,1.9-6s2.9-2.4,4.9-2.4
			c1.9,0,3.4,0.7,4.5,2s1.7,3.2,1.7,5.4c0,0.1,0,0.3,0,0.5s0,0.5,0,0.6h-11.2c0,2.1,0.5,3.7,1.5,4.9s2.3,1.8,3.9,1.8
			c1,0,2-0.1,2.7-0.4s1.6-0.6,2.4-1l0.3,1.4C406.7,465.9,404.8,466.4,402.8,466.4z M397.5,456.7h9.1c0-1.8-0.4-3.2-1.2-4.1
			s-1.8-1.4-3.2-1.4c-1.4,0-2.5,0.5-3.3,1.5S397.7,455.1,397.5,456.7z"/>
		<path class="st2" d="M79.7,561v-21.8h11.7l-0.1,1.6h-9.7v8.6h9.3v1.5h-9.3v10H79.7z M98.5,561.4c-1.5,0-2.7-0.4-3.6-1.1
			s-1.4-1.9-1.4-3.3c0-0.8,0.2-1.6,0.5-2.2s0.9-1.1,1.6-1.5s1.5-0.7,2.4-0.9s1.9-0.4,3.1-0.5c1.3-0.1,2.2-0.1,2.8-0.2v-1.8
			c0-1.2-0.3-2.2-0.8-2.8s-1.5-0.9-2.7-0.9c-1.7,0-3.3,0.4-4.8,1.2c0-0.1-0.1-0.3-0.3-0.6s-0.2-0.6-0.3-0.8c0.6-0.4,1.4-0.7,2.4-1
			s1.9-0.4,2.9-0.4c1.9,0,3.3,0.4,4.1,1.2s1.3,2.3,1.3,4.4V561h-1.4c0-0.2-0.1-0.7-0.2-1.3s-0.1-1-0.1-1
			C102.5,560.4,100.8,561.4,98.5,561.4z M98.5,559.9c1.3,0,2.4-0.4,3.3-1.1s1.6-1.8,1.9-3.1V553c-1.4,0.1-2.1,0.2-2.1,0.2
			c-2.4,0.2-4,0.6-5,1.2s-1.4,1.4-1.4,2.6c0,1,0.3,1.7,0.9,2.2S97.5,559.9,98.5,559.9z M114,561.3c-1.3,0-2.3-0.3-3-0.9
			s-0.9-1.6-0.9-3v-18.7l1.8-0.1v18.8c0,1,0.2,1.7,0.5,2s0.9,0.6,1.6,0.6c0.6,0,1.3-0.1,2.2-0.3l0.1,1.4
			C115.3,561.2,114.6,561.3,114,561.3z M123.1,561.4c-1,0-2-0.1-2.9-0.4s-1.6-0.6-2.2-0.9l0.3-1.5c1.6,0.8,3.2,1.3,4.6,1.3
			c2.6,0,4-1,4.1-2.9c0-0.8-0.3-1.5-0.8-1.9s-1.6-1-3.2-1.5c-0.8-0.3-1.3-0.5-1.4-0.5c-2.5-0.8-3.8-2.1-3.8-4.1c0-1.1,0.5-2.1,1.5-3
			s2.3-1.3,4-1.3s3.3,0.3,4.8,1l-0.6,1.3c-1.5-0.6-2.9-0.8-4.2-0.8c-1.1,0-2,0.3-2.7,0.8s-1,1.2-1,2.1c0,0.7,0.2,1.3,0.6,1.7
			s1.3,0.8,2.5,1.1c0.1,0,0.4,0.1,0.8,0.3s0.6,0.2,0.6,0.2c1.7,0.5,2.9,1.1,3.5,1.8s1,1.7,1,2.9c0,1.4-0.6,2.5-1.6,3.3
			C126.2,561,124.8,561.4,123.1,561.4z M138.8,561.4c-2.2,0-4-0.7-5.3-2.2s-2-3.5-2-6c0-2.5,0.6-4.5,1.9-6s2.9-2.4,4.9-2.4
			c1.9,0,3.4,0.7,4.5,2s1.7,3.2,1.7,5.4c0,0.1,0,0.3,0,0.5s0,0.5,0,0.6h-11.2c0,2.1,0.5,3.7,1.5,4.9s2.3,1.8,3.9,1.8
			c1,0,2-0.1,2.7-0.4s1.6-0.6,2.4-1l0.3,1.4C142.7,560.9,140.8,561.4,138.8,561.4z M133.5,551.7h9.1c0-1.8-0.4-3.2-1.2-4.1
			s-1.8-1.4-3.2-1.4c-1.4,0-2.5,0.5-3.3,1.5S133.7,550.1,133.5,551.7z"/>
		<path class="st2" d="M220,561v-20.2h-6.9v-1.6h15.6v1.6h-6.9V561H220z M231,561c0-9.4,0-14.8,0-16.1h1.5l0.1,3.2
			c0.6-1,1.3-1.7,2.2-2.3s1.8-0.9,2.8-0.9c0.4,0,0.8,0,1.3,0.1l-0.1,1.5c-0.4-0.1-0.7-0.1-1.1-0.1c-1.4,0-2.5,0.5-3.4,1.6
			s-1.4,2.3-1.4,3.8v9.2H231z M247.5,561.4c-0.8,0-1.6-0.1-2.3-0.3s-1.4-0.5-2-0.9s-1.1-1-1.5-1.7s-0.5-1.6-0.5-2.6v-10.9h1.8v11
			c0,0.8,0.1,1.4,0.4,1.9s0.6,0.9,1,1.2s0.9,0.5,1.4,0.6s1.1,0.2,1.7,0.2c0.7,0,1.2-0.1,1.7-0.2s1-0.3,1.4-0.6s0.8-0.7,1-1.2
			s0.3-1.2,0.3-1.9v-11h1.8v10.9c0,0.8-0.1,1.6-0.4,2.2s-0.5,1.2-0.9,1.6s-0.9,0.7-1.4,1s-1.1,0.5-1.7,0.6S248.1,561.4,247.5,561.4z
			 M264.2,561.4c-2.2,0-4-0.7-5.3-2.2s-2-3.5-2-6c0-2.5,0.6-4.5,1.9-6s2.9-2.4,4.9-2.4c1.9,0,3.4,0.7,4.5,2s1.7,3.2,1.7,5.4
			c0,0.1,0,0.3,0,0.5s0,0.5,0,0.6h-11.2c0,2.1,0.5,3.7,1.5,4.9s2.3,1.8,3.9,1.8c1,0,2-0.1,2.7-0.4s1.6-0.6,2.4-1l0.3,1.4
			C268.1,560.9,266.2,561.4,264.2,561.4z M258.9,551.7h9.1c0-1.8-0.4-3.2-1.2-4.1s-1.8-1.4-3.2-1.4c-1.4,0-2.5,0.5-3.3,1.5
			S259.1,550.1,258.9,551.7z"/>
		<path class="st3" d="M343.7,561v-21.8h11.7l-0.1,1.6h-9.7v8.6h9.3v1.5h-9.3v10H343.7z M362.5,561.4c-1.5,0-2.7-0.4-3.6-1.1
			s-1.4-1.9-1.4-3.3c0-0.8,0.2-1.6,0.5-2.2s0.9-1.1,1.6-1.5s1.5-0.7,2.4-0.9s1.9-0.4,3.1-0.5c1.2-0.1,2.2-0.1,2.8-0.2v-1.8
			c0-1.2-0.3-2.2-0.8-2.8s-1.5-0.9-2.7-0.9c-1.7,0-3.3,0.4-4.8,1.2c0-0.1-0.1-0.3-0.3-0.6s-0.2-0.6-0.3-0.8c0.6-0.4,1.4-0.7,2.4-1
			s1.9-0.4,2.9-0.4c1.9,0,3.3,0.4,4.1,1.2s1.3,2.3,1.3,4.4V561h-1.4c0-0.2-0.1-0.7-0.2-1.3s-0.1-1-0.1-1
			C366.5,560.4,364.8,561.4,362.5,561.4z M362.5,559.9c1.2,0,2.4-0.4,3.3-1.1s1.6-1.8,1.9-3.1V553c-1.4,0.1-2.1,0.2-2.1,0.2
			c-2.4,0.2-4,0.6-5,1.2s-1.4,1.4-1.4,2.6c0,1,0.3,1.7,0.9,2.2S361.5,559.9,362.5,559.9z M378,561.3c-1.3,0-2.3-0.3-3-0.9
			s-0.9-1.6-0.9-3v-18.7l1.8-0.1v18.8c0,1,0.2,1.7,0.5,2s0.9,0.6,1.6,0.6c0.6,0,1.3-0.1,2.2-0.3l0.1,1.4
			C379.3,561.2,378.6,561.3,378,561.3z M387.1,561.4c-1,0-2-0.1-2.9-0.4s-1.6-0.6-2.2-0.9l0.3-1.5c1.6,0.8,3.2,1.3,4.6,1.3
			c2.6,0,4-1,4.1-2.9c0-0.8-0.3-1.5-0.8-1.9s-1.6-1-3.2-1.5c-0.8-0.3-1.3-0.5-1.4-0.5c-2.5-0.8-3.8-2.1-3.8-4.1c0-1.1,0.5-2.1,1.5-3
			s2.3-1.3,4-1.3s3.3,0.3,4.8,1l-0.6,1.3c-1.5-0.6-2.9-0.8-4.2-0.8c-1.1,0-2,0.3-2.7,0.8s-1,1.2-1,2.1c0,0.7,0.2,1.3,0.6,1.7
			s1.3,0.8,2.5,1.1c0.1,0,0.4,0.1,0.8,0.3s0.6,0.2,0.6,0.2c1.7,0.5,2.9,1.1,3.5,1.8s1,1.7,1,2.9c0,1.4-0.6,2.5-1.6,3.3
			S388.8,561.4,387.1,561.4z M402.8,561.4c-2.2,0-4-0.7-5.3-2.2s-2-3.5-2-6c0-2.5,0.6-4.5,1.9-6s2.9-2.4,4.9-2.4
			c1.9,0,3.4,0.7,4.5,2s1.7,3.2,1.7,5.4c0,0.1,0,0.3,0,0.5s0,0.5,0,0.6h-11.2c0,2.1,0.5,3.7,1.5,4.9s2.3,1.8,3.9,1.8
			c1,0,2-0.1,2.7-0.4s1.6-0.6,2.4-1l0.3,1.4C406.7,560.9,404.8,561.4,402.8,561.4z M397.5,551.7h9.1c0-1.8-0.4-3.2-1.2-4.1
			s-1.8-1.4-3.2-1.4c-1.4,0-2.5,0.5-3.3,1.5S397.7,550.1,397.5,551.7z"/>
		<path class="st2" d="M79.7,656v-21.8h11.7l-0.1,1.6h-9.7v8.6h9.3v1.5h-9.3v10H79.7z M98.5,656.4c-1.5,0-2.7-0.4-3.6-1.1
			s-1.4-1.9-1.4-3.3c0-0.8,0.2-1.6,0.5-2.2s0.9-1.1,1.6-1.5s1.5-0.7,2.4-0.9s1.9-0.4,3.1-0.5c1.3-0.1,2.2-0.1,2.8-0.2v-1.8
			c0-1.2-0.3-2.2-0.8-2.8s-1.5-0.9-2.7-0.9c-1.7,0-3.3,0.4-4.8,1.2c0-0.1-0.1-0.3-0.3-0.6s-0.2-0.6-0.3-0.8c0.6-0.4,1.4-0.7,2.4-1
			s1.9-0.4,2.9-0.4c1.9,0,3.3,0.4,4.1,1.2s1.3,2.3,1.3,4.4V656h-1.4c0-0.2-0.1-0.7-0.2-1.3s-0.1-1-0.1-1
			C102.5,655.4,100.8,656.4,98.5,656.4z M98.5,654.9c1.3,0,2.4-0.4,3.3-1.1s1.6-1.8,1.9-3.1V648c-1.4,0.1-2.1,0.2-2.1,0.2
			c-2.4,0.2-4,0.6-5,1.2s-1.4,1.4-1.4,2.6c0,1,0.3,1.7,0.9,2.2S97.5,654.9,98.5,654.9z M114,656.3c-1.3,0-2.3-0.3-3-0.9
			s-0.9-1.6-0.9-3v-18.7l1.8-0.1v18.8c0,1,0.2,1.7,0.5,2s0.9,0.6,1.6,0.6c0.6,0,1.3-0.1,2.2-0.3l0.1,1.4
			C115.3,656.2,114.6,656.3,114,656.3z M123.1,656.4c-1,0-2-0.1-2.9-0.4s-1.6-0.6-2.2-0.9l0.3-1.5c1.6,0.8,3.2,1.3,4.6,1.3
			c2.6,0,4-1,4.1-2.9c0-0.8-0.3-1.5-0.8-1.9s-1.6-1-3.2-1.5c-0.8-0.3-1.3-0.5-1.4-0.5c-2.5-0.8-3.8-2.1-3.8-4.1c0-1.1,0.5-2.1,1.5-3
			s2.3-1.3,4-1.3s3.3,0.3,4.8,1l-0.6,1.3c-1.5-0.6-2.9-0.8-4.2-0.8c-1.1,0-2,0.3-2.7,0.8s-1,1.2-1,2.1c0,0.7,0.2,1.3,0.6,1.7
			s1.3,0.8,2.5,1.1c0.1,0,0.4,0.1,0.8,0.3s0.6,0.2,0.6,0.2c1.7,0.5,2.9,1.1,3.5,1.8s1,1.7,1,2.9c0,1.4-0.6,2.5-1.6,3.3
			C126.2,656,124.8,656.4,123.1,656.4z M138.8,656.4c-2.2,0-4-0.7-5.3-2.2s-2-3.5-2-6c0-2.5,0.6-4.5,1.9-6s2.9-2.4,4.9-2.4
			c1.9,0,3.4,0.7,4.5,2s1.7,3.2,1.7,5.4c0,0.1,0,0.3,0,0.5s0,0.5,0,0.6h-11.2c0,2.1,0.5,3.7,1.5,4.9s2.3,1.8,3.9,1.8
			c1,0,2-0.1,2.7-0.4s1.6-0.6,2.4-1l0.3,1.4C142.7,655.9,140.8,656.4,138.8,656.4z M133.5,646.7h9.1c0-1.8-0.4-3.2-1.2-4.1
			s-1.8-1.4-3.2-1.4c-1.4,0-2.5,0.5-3.3,1.5S133.7,645.1,133.5,646.7z"/>
		<path class="st2" d="M210.7,656v-21.8h11.7l-0.1,1.6h-9.7v8.6h9.3v1.5h-9.3v10H210.7z M229.5,656.4c-1.5,0-2.7-0.4-3.6-1.1
			s-1.4-1.9-1.4-3.3c0-0.8,0.2-1.6,0.5-2.2s0.9-1.1,1.6-1.5s1.5-0.7,2.4-0.9s1.9-0.4,3.1-0.5c1.2-0.1,2.2-0.1,2.8-0.2v-1.8
			c0-1.2-0.3-2.2-0.8-2.8s-1.5-0.9-2.7-0.9c-1.7,0-3.3,0.4-4.8,1.2c0-0.1-0.1-0.3-0.3-0.6s-0.2-0.6-0.3-0.8c0.6-0.4,1.4-0.7,2.4-1
			s1.9-0.4,2.9-0.4c1.9,0,3.3,0.4,4.1,1.2s1.3,2.3,1.3,4.4V656h-1.4c0-0.2-0.1-0.7-0.2-1.3s-0.1-1-0.1-1
			C233.5,655.4,231.8,656.4,229.5,656.4z M229.5,654.9c1.2,0,2.4-0.4,3.3-1.1s1.6-1.8,1.9-3.1V648c-1.4,0.1-2.1,0.2-2.1,0.2
			c-2.4,0.2-4,0.6-5,1.2s-1.4,1.4-1.4,2.6c0,1,0.3,1.7,0.9,2.2S228.5,654.9,229.5,654.9z M245,656.3c-1.3,0-2.3-0.3-3-0.9
			s-0.9-1.6-0.9-3v-18.7l1.8-0.1v18.8c0,1,0.2,1.7,0.5,2s0.9,0.6,1.6,0.6c0.6,0,1.3-0.1,2.2-0.3l0.1,1.4
			C246.3,656.2,245.6,656.3,245,656.3z M254.1,656.4c-1,0-2-0.1-2.9-0.4s-1.6-0.6-2.2-0.9l0.3-1.5c1.6,0.8,3.2,1.3,4.6,1.3
			c2.6,0,4-1,4.1-2.9c0-0.8-0.3-1.5-0.8-1.9s-1.6-1-3.2-1.5c-0.8-0.3-1.3-0.5-1.4-0.5c-2.5-0.8-3.8-2.1-3.8-4.1c0-1.1,0.5-2.1,1.5-3
			s2.3-1.3,4-1.3c1.7,0,3.3,0.3,4.8,1l-0.6,1.3c-1.5-0.6-2.9-0.8-4.2-0.8c-1.1,0-2,0.3-2.7,0.8s-1,1.2-1,2.1c0,0.7,0.2,1.3,0.6,1.7
			s1.3,0.8,2.5,1.1c0.1,0,0.4,0.1,0.8,0.3s0.6,0.2,0.6,0.2c1.7,0.5,2.9,1.1,3.5,1.8s1,1.7,1,2.9c0,1.4-0.6,2.5-1.6,3.3
			S255.8,656.4,254.1,656.4z M269.8,656.4c-2.2,0-4-0.7-5.3-2.2s-2-3.5-2-6c0-2.5,0.6-4.5,1.9-6s2.9-2.4,4.9-2.4
			c1.9,0,3.4,0.7,4.5,2s1.7,3.2,1.7,5.4c0,0.1,0,0.3,0,0.5s0,0.5,0,0.6h-11.2c0,2.1,0.5,3.7,1.5,4.9s2.3,1.8,3.9,1.8
			c1,0,2-0.1,2.7-0.4s1.6-0.6,2.4-1l0.3,1.4C273.7,655.9,271.8,656.4,269.8,656.4z M264.5,646.7h9.1c0-1.8-0.4-3.2-1.2-4.1
			s-1.8-1.4-3.2-1.4c-1.4,0-2.5,0.5-3.3,1.5S264.7,645.1,264.5,646.7z"/>
		<path class="st3" d="M343.7,656v-21.8h11.7l-0.1,1.6h-9.7v8.6h9.3v1.5h-9.3v10H343.7z M362.5,656.4c-1.5,0-2.7-0.4-3.6-1.1
			s-1.4-1.9-1.4-3.3c0-0.8,0.2-1.6,0.5-2.2s0.9-1.1,1.6-1.5s1.5-0.7,2.4-0.9s1.9-0.4,3.1-0.5c1.2-0.1,2.2-0.1,2.8-0.2v-1.8
			c0-1.2-0.3-2.2-0.8-2.8s-1.5-0.9-2.7-0.9c-1.7,0-3.3,0.4-4.8,1.2c0-0.1-0.1-0.3-0.3-0.6s-0.2-0.6-0.3-0.8c0.6-0.4,1.4-0.7,2.4-1
			s1.9-0.4,2.9-0.4c1.9,0,3.3,0.4,4.1,1.2s1.3,2.3,1.3,4.4V656h-1.4c0-0.2-0.1-0.7-0.2-1.3s-0.1-1-0.1-1
			C366.5,655.4,364.8,656.4,362.5,656.4z M362.5,654.9c1.2,0,2.4-0.4,3.3-1.1s1.6-1.8,1.9-3.1V648c-1.4,0.1-2.1,0.2-2.1,0.2
			c-2.4,0.2-4,0.6-5,1.2s-1.4,1.4-1.4,2.6c0,1,0.3,1.7,0.9,2.2S361.5,654.9,362.5,654.9z M378,656.3c-1.3,0-2.3-0.3-3-0.9
			s-0.9-1.6-0.9-3v-18.7l1.8-0.1v18.8c0,1,0.2,1.7,0.5,2s0.9,0.6,1.6,0.6c0.6,0,1.3-0.1,2.2-0.3l0.1,1.4
			C379.3,656.2,378.6,656.3,378,656.3z M387.1,656.4c-1,0-2-0.1-2.9-0.4s-1.6-0.6-2.2-0.9l0.3-1.5c1.6,0.8,3.2,1.3,4.6,1.3
			c2.6,0,4-1,4.1-2.9c0-0.8-0.3-1.5-0.8-1.9s-1.6-1-3.2-1.5c-0.8-0.3-1.3-0.5-1.4-0.5c-2.5-0.8-3.8-2.1-3.8-4.1c0-1.1,0.5-2.1,1.5-3
			s2.3-1.3,4-1.3s3.3,0.3,4.8,1l-0.6,1.3c-1.5-0.6-2.9-0.8-4.2-0.8c-1.1,0-2,0.3-2.7,0.8s-1,1.2-1,2.1c0,0.7,0.2,1.3,0.6,1.7
			s1.3,0.8,2.5,1.1c0.1,0,0.4,0.1,0.8,0.3s0.6,0.2,0.6,0.2c1.7,0.5,2.9,1.1,3.5,1.8s1,1.7,1,2.9c0,1.4-0.6,2.5-1.6,3.3
			S388.8,656.4,387.1,656.4z M402.8,656.4c-2.2,0-4-0.7-5.3-2.2s-2-3.5-2-6c0-2.5,0.6-4.5,1.9-6s2.9-2.4,4.9-2.4
			c1.9,0,3.4,0.7,4.5,2s1.7,3.2,1.7,5.4c0,0.1,0,0.3,0,0.5s0,0.5,0,0.6h-11.2c0,2.1,0.5,3.7,1.5,4.9s2.3,1.8,3.9,1.8
			c1,0,2-0.1,2.7-0.4s1.6-0.6,2.4-1l0.3,1.4C406.7,655.9,404.8,656.4,402.8,656.4z M397.5,646.7h9.1c0-1.8-0.4-3.2-1.2-4.1
			s-1.8-1.4-3.2-1.4c-1.4,0-2.5,0.5-3.3,1.5S397.7,645.1,397.5,646.7z"/>
		<polygon id="Line-2" class="st1" points="309,316.4 311,316.4 311,690.8 309,690.8 		"/>
		<polygon id="Line-2-Copy" class="st1" points="173,316.4 175,316.4 175,690.8 173,690.8 		"/>
		<polygon id="Rectangle-Copy" class="st1" points="863,689 863,315 865,315 865,691 474,691 474,315 476,315 476,689 		"/>
		<polygon id="Line-Copy-4" class="st1" points="474,317 474,315 865,315 865,317 		"/>
		<polygon id="Line-Copy-5" class="st1" points="476,504 476,502 865,502 865,504 		"/>
		<polygon id="Line-Copy-6" class="st1" points="476,597 476,595 865,595 865,597 		"/>
		<polygon id="Line-Copy-7" class="st1" points="476,411 476,409 865,409 865,411 		"/>
		<path id="A-Copy" class="st2" d="M541.1,286c-2.1-6-3.2-9.4-3.4-10.1l-3.6,10.1H541.1z M544.4,295l-2.5-6.9h-8.6l-2.6,6.9H528
			l8.3-21.7h2.6L547,295H544.4z"/>
		<path id="True-Copy" class="st2" d="M516,375v-20.2h-6.9v-1.6h15.6v1.6h-6.9V375H516z M527,375c0-9.4,0-14.8,0-16.1h1.5l0.1,3.2
			c0.6-1,1.3-1.7,2.2-2.3s1.8-0.9,2.8-0.9c0.4,0,0.8,0,1.3,0.1l-0.1,1.5c-0.4-0.1-0.7-0.1-1.1-0.1c-1.4,0-2.5,0.5-3.4,1.6
			s-1.4,2.3-1.4,3.8v9.2H527z M543.5,375.4c-0.8,0-1.6-0.1-2.3-0.3s-1.4-0.5-2-0.9s-1.1-1-1.5-1.7s-0.5-1.6-0.5-2.6v-10.9h1.8v11
			c0,0.8,0.1,1.4,0.4,1.9s0.6,0.9,1,1.2s0.9,0.5,1.4,0.6s1.1,0.2,1.7,0.2c0.7,0,1.2-0.1,1.7-0.2s1-0.3,1.4-0.6s0.8-0.7,1-1.2
			s0.3-1.2,0.3-1.9v-11h1.8v10.9c0,0.8-0.1,1.6-0.4,2.2s-0.5,1.2-0.9,1.6s-0.9,0.7-1.4,1s-1.1,0.5-1.7,0.6S544.1,375.4,543.5,375.4z
			 M560.2,375.4c-2.2,0-4-0.7-5.3-2.2s-2-3.5-2-6c0-2.5,0.6-4.5,1.9-6s2.9-2.4,4.9-2.4c1.9,0,3.4,0.7,4.5,2s1.7,3.2,1.7,5.4
			c0,0.1,0,0.3,0,0.5s0,0.5,0,0.6h-11.2c0,2.1,0.5,3.7,1.5,4.9s2.3,1.8,3.9,1.8c1,0,2-0.1,2.7-0.4s1.6-0.6,2.4-1l0.3,1.4
			C564.1,374.9,562.2,375.4,560.2,375.4z M554.9,365.7h9.1c0-1.8-0.4-3.2-1.2-4.1s-1.8-1.4-3.2-1.4c-1.4,0-2.5,0.5-3.3,1.5
			S555.1,364.1,554.9,365.7z"/>
		<path id="B-Copy" class="st2" d="M665.1,284.7v8.2h4.5c1.8,0,3.2-0.3,4.1-1s1.4-1.7,1.4-3.2c0-1.5-0.5-2.5-1.5-3.1
			s-2.5-0.9-4.6-0.9H665.1z M665.1,282.7h4.6c1.5,0,2.7-0.3,3.4-0.8s1.2-1.5,1.2-2.8c0-1.4-0.5-2.3-1.4-2.8s-2.4-0.8-4.3-0.8h-3.5
			V282.7z M662.5,273.3h6.2c2.8,0,4.8,0.4,6.2,1.3s2,2.2,2,4.1c0,0.3,0,0.5-0.1,0.8s-0.1,0.6-0.3,1s-0.3,0.8-0.6,1.1s-0.6,0.7-1.1,1
			s-1,0.6-1.7,0.8c1.5,0.3,2.6,0.9,3.3,1.8s1.1,2.1,1.1,3.5c0,2-0.6,3.5-1.9,4.6s-3.2,1.6-5.7,1.6h-7.6V273.3z"/>
		<path id="True-Copy-2" class="st2" d="M647,375v-20.2h-6.9v-1.6h15.6v1.6h-6.9V375H647z M658,375c0-9.4,0-14.8,0-16.1h1.5l0.1,3.2
			c0.6-1,1.3-1.7,2.2-2.3s1.8-0.9,2.8-0.9c0.4,0,0.8,0,1.3,0.1l-0.1,1.5c-0.4-0.1-0.7-0.1-1.1-0.1c-1.4,0-2.5,0.5-3.4,1.6
			s-1.4,2.3-1.4,3.8v9.2H658z M674.5,375.4c-0.8,0-1.6-0.1-2.3-0.3s-1.4-0.5-2-0.9s-1.1-1-1.5-1.7s-0.5-1.6-0.5-2.6v-10.9h1.8v11
			c0,0.8,0.1,1.4,0.4,1.9s0.6,0.9,1,1.2s0.9,0.5,1.4,0.6s1.1,0.2,1.7,0.2c0.7,0,1.2-0.1,1.7-0.2s1-0.3,1.4-0.6s0.8-0.7,1-1.2
			s0.3-1.2,0.3-1.9v-11h1.8v10.9c0,0.8-0.1,1.6-0.4,2.2s-0.5,1.2-0.9,1.6s-0.9,0.7-1.4,1s-1.1,0.5-1.7,0.6S675.1,375.4,674.5,375.4z
			 M691.2,375.4c-2.2,0-4-0.7-5.3-2.2s-2-3.5-2-6c0-2.5,0.6-4.5,1.9-6s2.9-2.4,4.9-2.4c1.9,0,3.4,0.7,4.5,2s1.7,3.2,1.7,5.4
			c0,0.1,0,0.3,0,0.5s0,0.5,0,0.6h-11.2c0,2.1,0.5,3.7,1.5,4.9s2.3,1.8,3.9,1.8c1,0,2-0.1,2.7-0.4s1.6-0.6,2.4-1l0.3,1.4
			C695.1,374.9,693.2,375.4,691.2,375.4z M685.9,365.7h9.1c0-1.8-0.4-3.2-1.2-4.1s-1.8-1.4-3.2-1.4c-1.4,0-2.5,0.5-3.3,1.5
			S686.1,364.1,685.9,365.7z"/>
		<path id="A-OR-B" class="st2" d="M765.1,286c-2.1-6-3.2-9.4-3.4-10.1l-3.6,10.1H765.1z M768.4,295l-2.5-6.9h-8.6l-2.6,6.9H752
			l8.3-21.7h2.6L771,295H768.4z M782.9,284.2c0,2.8,0.6,5,1.9,6.6s3.2,2.4,5.7,2.4s4.4-0.8,5.6-2.4s1.9-3.8,1.9-6.6
			c0-2.9-0.6-5.1-1.9-6.6s-3.1-2.4-5.6-2.4s-4.4,0.8-5.7,2.4S782.9,281.3,782.9,284.2z M800.7,284.2c0,1.7-0.2,3.2-0.7,4.5
			s-1.1,2.5-2,3.5s-1.9,1.7-3.2,2.3s-2.8,0.8-4.4,0.8c-2.2,0-4.1-0.5-5.6-1.4s-2.7-2.2-3.5-3.9s-1.2-3.6-1.2-5.9
			c0-3.5,0.9-6.2,2.7-8.2s4.3-3,7.6-3c3.2,0,5.7,1,7.5,3S800.7,280.7,800.7,284.2z M807.1,275.4v7.3c0.4,0,1.2,0,2.5,0s2.2,0,2.9,0
			c1.9,0,3.2-0.3,3.9-0.9s1.1-1.6,1.1-3c0-1.2-0.4-2.1-1.1-2.6s-1.9-0.9-3.5-0.9H807.1z M821,295h-2.9l-3-6.8
			c-0.8-1.8-1.3-2.9-1.6-3.3c-0.7,0-1.6,0.1-2.5,0.1l-3.9-0.1V295h-2.6v-21.9h6.9c0.8,0,1.5,0,2.1,0.1s1.2,0.1,1.8,0.2
			s1.1,0.2,1.6,0.4s0.9,0.4,1.3,0.7s0.7,0.6,0.9,1s0.4,0.9,0.6,1.4s0.2,1.2,0.2,1.9c0,1.4-0.4,2.5-1.1,3.5s-1.7,1.7-3.1,2.1
			c0,0,0.1,0.2,0.3,0.5s0.4,0.7,0.7,1.2s0.5,0.9,0.6,1.2L821,295z M834.6,284.7v8.2h4.5c1.8,0,3.2-0.3,4.1-1s1.4-1.7,1.4-3.2
			c0-1.5-0.5-2.5-1.5-3.1s-2.5-0.9-4.6-0.9H834.6z M834.6,282.7h4.6c1.5,0,2.7-0.3,3.4-0.8s1.2-1.5,1.2-2.8c0-1.4-0.5-2.3-1.4-2.8
			s-2.4-0.8-4.3-0.8h-3.5V282.7z M832,273.3h6.2c2.8,0,4.8,0.4,6.2,1.3s2,2.2,2,4.1c0,0.3,0,0.5-0.1,0.8s-0.1,0.6-0.3,1
			s-0.3,0.8-0.6,1.1s-0.6,0.7-1.1,1s-1,0.6-1.7,0.8c1.5,0.3,2.6,0.9,3.3,1.8s1.1,2.1,1.1,3.5c0,2-0.6,3.5-1.9,4.6s-3.2,1.6-5.7,1.6
			H832V273.3z"/>
		<path id="True-Copy-3" class="st3" d="M778,375v-20.2h-6.9v-1.6h15.6v1.6h-6.9V375H778z M789,375c0-9.4,0-14.8,0-16.1h1.5l0.1,3.2
			c0.6-1,1.3-1.7,2.2-2.3s1.8-0.9,2.8-0.9c0.4,0,0.8,0,1.3,0.1l-0.1,1.5c-0.4-0.1-0.7-0.1-1.1-0.1c-1.4,0-2.5,0.5-3.4,1.6
			s-1.4,2.3-1.4,3.8v9.2H789z M805.5,375.4c-0.8,0-1.6-0.1-2.3-0.3s-1.4-0.5-2-0.9s-1.1-1-1.5-1.7s-0.5-1.6-0.5-2.6v-10.9h1.8v11
			c0,0.8,0.1,1.4,0.4,1.9s0.6,0.9,1,1.2s0.9,0.5,1.4,0.6s1.1,0.2,1.7,0.2c0.7,0,1.2-0.1,1.7-0.2s1-0.3,1.4-0.6s0.8-0.7,1-1.2
			s0.3-1.2,0.3-1.9v-11h1.8v10.9c0,0.8-0.1,1.6-0.4,2.2s-0.5,1.2-0.9,1.6s-0.9,0.7-1.4,1s-1.1,0.5-1.7,0.6S806.1,375.4,805.5,375.4z
			 M822.2,375.4c-2.2,0-4-0.7-5.3-2.2s-2-3.5-2-6c0-2.5,0.6-4.5,1.9-6s2.9-2.4,4.9-2.4c1.9,0,3.4,0.7,4.5,2s1.7,3.2,1.7,5.4
			c0,0.1,0,0.3,0,0.5s0,0.5,0,0.6h-11.2c0,2.1,0.5,3.7,1.5,4.9s2.3,1.8,3.9,1.8c1,0,2-0.1,2.7-0.4s1.6-0.6,2.4-1l0.3,1.4
			C826.1,374.9,824.2,375.4,822.2,375.4z M816.9,365.7h9.1c0-1.8-0.4-3.2-1.2-4.1s-1.8-1.4-3.2-1.4c-1.4,0-2.5,0.5-3.3,1.5
			S817.1,364.1,816.9,365.7z"/>
		<path id="True-Copy-4" class="st2" d="M516,466v-20.2h-6.9v-1.6h15.6v1.6h-6.9V466H516z M527,466c0-9.4,0-14.8,0-16.1h1.5l0.1,3.2
			c0.6-1,1.3-1.7,2.2-2.3s1.8-0.9,2.8-0.9c0.4,0,0.8,0,1.3,0.1l-0.1,1.5c-0.4-0.1-0.7-0.1-1.1-0.1c-1.4,0-2.5,0.5-3.4,1.6
			s-1.4,2.3-1.4,3.8v9.2H527z M543.5,466.4c-0.8,0-1.6-0.1-2.3-0.3s-1.4-0.5-2-0.9s-1.1-1-1.5-1.7s-0.5-1.6-0.5-2.6v-10.9h1.8v11
			c0,0.8,0.1,1.4,0.4,1.9s0.6,0.9,1,1.2s0.9,0.5,1.4,0.6s1.1,0.2,1.7,0.2c0.7,0,1.2-0.1,1.7-0.2s1-0.3,1.4-0.6s0.8-0.7,1-1.2
			s0.3-1.2,0.3-1.9v-11h1.8v10.9c0,0.8-0.1,1.6-0.4,2.2s-0.5,1.2-0.9,1.6s-0.9,0.7-1.4,1s-1.1,0.5-1.7,0.6S544.1,466.4,543.5,466.4z
			 M560.2,466.4c-2.2,0-4-0.7-5.3-2.2s-2-3.5-2-6c0-2.5,0.6-4.5,1.9-6s2.9-2.4,4.9-2.4c1.9,0,3.4,0.7,4.5,2s1.7,3.2,1.7,5.4
			c0,0.1,0,0.3,0,0.5s0,0.5,0,0.6h-11.2c0,2.1,0.5,3.7,1.5,4.9s2.3,1.8,3.9,1.8c1,0,2-0.1,2.7-0.4s1.6-0.6,2.4-1l0.3,1.4
			C564.1,465.9,562.2,466.4,560.2,466.4z M554.9,456.7h9.1c0-1.8-0.4-3.2-1.2-4.1s-1.8-1.4-3.2-1.4c-1.4,0-2.5,0.5-3.3,1.5
			S555.1,455.1,554.9,456.7z"/>
		<path id="False-Copy" class="st2" d="M636.7,466v-21.8h11.7l-0.1,1.6h-9.7v8.6h9.3v1.5h-9.3v10H636.7z M655.5,466.4
			c-1.5,0-2.7-0.4-3.6-1.1s-1.4-1.9-1.4-3.3c0-0.8,0.2-1.6,0.5-2.2s0.9-1.1,1.6-1.5s1.5-0.7,2.4-0.9s1.9-0.4,3.1-0.5
			c1.2-0.1,2.2-0.1,2.8-0.2v-1.8c0-1.2-0.3-2.2-0.8-2.8s-1.5-0.9-2.7-0.9c-1.7,0-3.3,0.4-4.8,1.2c0-0.1-0.1-0.3-0.3-0.6
			s-0.2-0.6-0.3-0.8c0.6-0.4,1.4-0.7,2.4-1s1.9-0.4,2.9-0.4c1.9,0,3.3,0.4,4.1,1.2s1.3,2.3,1.3,4.4V466h-1.4c0-0.2-0.1-0.7-0.2-1.3
			s-0.1-1-0.1-1C659.5,465.4,657.8,466.4,655.5,466.4z M655.5,464.9c1.2,0,2.4-0.4,3.3-1.1s1.6-1.8,1.9-3.1V458
			c-1.4,0.1-2.1,0.2-2.1,0.2c-2.4,0.2-4,0.6-5,1.2s-1.4,1.4-1.4,2.6c0,1,0.3,1.7,0.9,2.2S654.5,464.9,655.5,464.9z M671,466.3
			c-1.3,0-2.3-0.3-3-0.9s-0.9-1.6-0.9-3v-18.7l1.8-0.1v18.8c0,1,0.2,1.7,0.5,2s0.9,0.6,1.6,0.6c0.6,0,1.3-0.1,2.2-0.3l0.1,1.4
			C672.3,466.2,671.6,466.3,671,466.3z M680.1,466.4c-1,0-2-0.1-2.9-0.4s-1.6-0.6-2.2-0.9l0.3-1.5c1.6,0.8,3.2,1.3,4.6,1.3
			c2.6,0,4-1,4.1-2.9c0-0.8-0.3-1.5-0.8-1.9s-1.6-1-3.2-1.5c-0.8-0.3-1.3-0.5-1.4-0.5c-2.5-0.8-3.8-2.1-3.8-4.1c0-1.1,0.5-2.1,1.5-3
			s2.3-1.3,4-1.3s3.3,0.3,4.8,1l-0.6,1.3c-1.5-0.6-2.9-0.8-4.2-0.8c-1.1,0-2,0.3-2.7,0.8s-1,1.2-1,2.1c0,0.7,0.2,1.3,0.6,1.7
			s1.3,0.8,2.5,1.1c0.1,0,0.4,0.1,0.8,0.3s0.6,0.2,0.6,0.2c1.7,0.5,2.9,1.1,3.5,1.8s1,1.7,1,2.9c0,1.4-0.6,2.5-1.6,3.3
			S681.8,466.4,680.1,466.4z M695.8,466.4c-2.2,0-4-0.7-5.3-2.2s-2-3.5-2-6c0-2.5,0.6-4.5,1.9-6s2.9-2.4,4.9-2.4
			c1.9,0,3.4,0.7,4.5,2s1.7,3.2,1.7,5.4c0,0.1,0,0.3,0,0.5s0,0.5,0,0.6h-11.2c0,2.1,0.5,3.7,1.5,4.9s2.3,1.8,3.9,1.8
			c1,0,2-0.1,2.7-0.4s1.6-0.6,2.4-1l0.3,1.4C699.7,465.9,697.8,466.4,695.8,466.4z M690.5,456.7h9.1c0-1.8-0.4-3.2-1.2-4.1
			s-1.8-1.4-3.2-1.4c-1.4,0-2.5,0.5-3.3,1.5S690.7,455.1,690.5,456.7z"/>
		<path class="st3" d="M778,466v-20.2h-6.9v-1.6h15.6v1.6h-6.9V466H778z M789,466c0-9.4,0-14.8,0-16.1h1.5l0.1,3.2
			c0.6-1,1.3-1.7,2.2-2.3s1.8-0.9,2.8-0.9c0.4,0,0.8,0,1.3,0.1l-0.1,1.5c-0.4-0.1-0.7-0.1-1.1-0.1c-1.4,0-2.5,0.5-3.4,1.6
			s-1.4,2.3-1.4,3.8v9.2H789z M805.5,466.4c-0.8,0-1.6-0.1-2.3-0.3s-1.4-0.5-2-0.9s-1.1-1-1.5-1.7s-0.5-1.6-0.5-2.6v-10.9h1.8v11
			c0,0.8,0.1,1.4,0.4,1.9s0.6,0.9,1,1.2s0.9,0.5,1.4,0.6s1.1,0.2,1.7,0.2c0.7,0,1.2-0.1,1.7-0.2s1-0.3,1.4-0.6s0.8-0.7,1-1.2
			s0.3-1.2,0.3-1.9v-11h1.8v10.9c0,0.8-0.1,1.6-0.4,2.2s-0.5,1.2-0.9,1.6s-0.9,0.7-1.4,1s-1.1,0.5-1.7,0.6S806.1,466.4,805.5,466.4z
			 M822.2,466.4c-2.2,0-4-0.7-5.3-2.2s-2-3.5-2-6c0-2.5,0.6-4.5,1.9-6s2.9-2.4,4.9-2.4c1.9,0,3.4,0.7,4.5,2s1.7,3.2,1.7,5.4
			c0,0.1,0,0.3,0,0.5s0,0.5,0,0.6h-11.2c0,2.1,0.5,3.7,1.5,4.9s2.3,1.8,3.9,1.8c1,0,2-0.1,2.7-0.4s1.6-0.6,2.4-1l0.3,1.4
			C826.1,465.9,824.2,466.4,822.2,466.4z M816.9,456.7h9.1c0-1.8-0.4-3.2-1.2-4.1s-1.8-1.4-3.2-1.4c-1.4,0-2.5,0.5-3.3,1.5
			S817.1,455.1,816.9,456.7z"/>
		<path id="False-Copy-3" class="st2" d="M505.7,561v-21.8h11.7l-0.1,1.6h-9.7v8.6h9.3v1.5h-9.3v10H505.7z M524.5,561.4
			c-1.5,0-2.7-0.4-3.6-1.1s-1.4-1.9-1.4-3.3c0-0.8,0.2-1.6,0.5-2.2s0.9-1.1,1.6-1.5s1.5-0.7,2.4-0.9s1.9-0.4,3.1-0.5
			c1.2-0.1,2.2-0.1,2.8-0.2v-1.8c0-1.2-0.3-2.2-0.8-2.8s-1.5-0.9-2.7-0.9c-1.7,0-3.3,0.4-4.8,1.2c0-0.1-0.1-0.3-0.3-0.6
			s-0.2-0.6-0.3-0.8c0.6-0.4,1.4-0.7,2.4-1s1.9-0.4,2.9-0.4c1.9,0,3.3,0.4,4.1,1.2s1.3,2.3,1.3,4.4V561h-1.4c0-0.2-0.1-0.7-0.2-1.3
			s-0.1-1-0.1-1C528.5,560.4,526.8,561.4,524.5,561.4z M524.5,559.9c1.2,0,2.4-0.4,3.3-1.1s1.6-1.8,1.9-3.1V553
			c-1.4,0.1-2.1,0.2-2.1,0.2c-2.4,0.2-4,0.6-5,1.2s-1.4,1.4-1.4,2.6c0,1,0.3,1.7,0.9,2.2S523.5,559.9,524.5,559.9z M540,561.3
			c-1.3,0-2.3-0.3-3-0.9s-0.9-1.6-0.9-3v-18.7l1.8-0.1v18.8c0,1,0.2,1.7,0.5,2s0.9,0.6,1.6,0.6c0.6,0,1.3-0.1,2.2-0.3l0.1,1.4
			C541.3,561.2,540.6,561.3,540,561.3z M549.1,561.4c-1,0-2-0.1-2.9-0.4s-1.6-0.6-2.2-0.9l0.3-1.5c1.6,0.8,3.2,1.3,4.6,1.3
			c2.6,0,4-1,4.1-2.9c0-0.8-0.3-1.5-0.8-1.9s-1.6-1-3.2-1.5c-0.8-0.3-1.3-0.5-1.4-0.5c-2.5-0.8-3.8-2.1-3.8-4.1c0-1.1,0.5-2.1,1.5-3
			s2.3-1.3,4-1.3s3.3,0.3,4.8,1l-0.6,1.3c-1.5-0.6-2.9-0.8-4.2-0.8c-1.1,0-2,0.3-2.7,0.8s-1,1.2-1,2.1c0,0.7,0.2,1.3,0.6,1.7
			s1.3,0.8,2.5,1.1c0.1,0,0.4,0.1,0.8,0.3s0.6,0.2,0.6,0.2c1.7,0.5,2.9,1.1,3.5,1.8s1,1.7,1,2.9c0,1.4-0.6,2.5-1.6,3.3
			S550.8,561.4,549.1,561.4z M564.8,561.4c-2.2,0-4-0.7-5.3-2.2s-2-3.5-2-6c0-2.5,0.6-4.5,1.9-6s2.9-2.4,4.9-2.4
			c1.9,0,3.4,0.7,4.5,2s1.7,3.2,1.7,5.4c0,0.1,0,0.3,0,0.5s0,0.5,0,0.6h-11.2c0,2.1,0.5,3.7,1.5,4.9s2.3,1.8,3.9,1.8
			c1,0,2-0.1,2.7-0.4s1.6-0.6,2.4-1l0.3,1.4C568.7,560.9,566.8,561.4,564.8,561.4z M559.5,551.7h9.1c0-1.8-0.4-3.2-1.2-4.1
			s-1.8-1.4-3.2-1.4c-1.4,0-2.5,0.5-3.3,1.5S559.7,550.1,559.5,551.7z"/>
		<path id="True-Copy-5" class="st2" d="M647,561v-20.2h-6.9v-1.6h15.6v1.6h-6.9V561H647z M658,561c0-9.4,0-14.8,0-16.1h1.5l0.1,3.2
			c0.6-1,1.3-1.7,2.2-2.3s1.8-0.9,2.8-0.9c0.4,0,0.8,0,1.3,0.1l-0.1,1.5c-0.4-0.1-0.7-0.1-1.1-0.1c-1.4,0-2.5,0.5-3.4,1.6
			s-1.4,2.3-1.4,3.8v9.2H658z M674.5,561.4c-0.8,0-1.6-0.1-2.3-0.3s-1.4-0.5-2-0.9s-1.1-1-1.5-1.7s-0.5-1.6-0.5-2.6v-10.9h1.8v11
			c0,0.8,0.1,1.4,0.4,1.9s0.6,0.9,1,1.2s0.9,0.5,1.4,0.6s1.1,0.2,1.7,0.2c0.7,0,1.2-0.1,1.7-0.2s1-0.3,1.4-0.6s0.8-0.7,1-1.2
			s0.3-1.2,0.3-1.9v-11h1.8v10.9c0,0.8-0.1,1.6-0.4,2.2s-0.5,1.2-0.9,1.6s-0.9,0.7-1.4,1s-1.1,0.5-1.7,0.6S675.1,561.4,674.5,561.4z
			 M691.2,561.4c-2.2,0-4-0.7-5.3-2.2s-2-3.5-2-6c0-2.5,0.6-4.5,1.9-6s2.9-2.4,4.9-2.4c1.9,0,3.4,0.7,4.5,2s1.7,3.2,1.7,5.4
			c0,0.1,0,0.3,0,0.5s0,0.5,0,0.6h-11.2c0,2.1,0.5,3.7,1.5,4.9s2.3,1.8,3.9,1.8c1,0,2-0.1,2.7-0.4s1.6-0.6,2.4-1l0.3,1.4
			C695.1,560.9,693.2,561.4,691.2,561.4z M685.9,551.7h9.1c0-1.8-0.4-3.2-1.2-4.1s-1.8-1.4-3.2-1.4c-1.4,0-2.5,0.5-3.3,1.5
			S686.1,550.1,685.9,551.7z"/>
		<path class="st3" d="M778,561v-20.2h-6.9v-1.6h15.6v1.6h-6.9V561H778z M789,561c0-9.4,0-14.8,0-16.1h1.5l0.1,3.2
			c0.6-1,1.3-1.7,2.2-2.3s1.8-0.9,2.8-0.9c0.4,0,0.8,0,1.3,0.1l-0.1,1.5c-0.4-0.1-0.7-0.1-1.1-0.1c-1.4,0-2.5,0.5-3.4,1.6
			s-1.4,2.3-1.4,3.8v9.2H789z M805.5,561.4c-0.8,0-1.6-0.1-2.3-0.3s-1.4-0.5-2-0.9s-1.1-1-1.5-1.7s-0.5-1.6-0.5-2.6v-10.9h1.8v11
			c0,0.8,0.1,1.4,0.4,1.9s0.6,0.9,1,1.2s0.9,0.5,1.4,0.6s1.1,0.2,1.7,0.2c0.7,0,1.2-0.1,1.7-0.2s1-0.3,1.4-0.6s0.8-0.7,1-1.2
			s0.3-1.2,0.3-1.9v-11h1.8v10.9c0,0.8-0.1,1.6-0.4,2.2s-0.5,1.2-0.9,1.6s-0.9,0.7-1.4,1s-1.1,0.5-1.7,0.6S806.1,561.4,805.5,561.4z
			 M822.2,561.4c-2.2,0-4-0.7-5.3-2.2s-2-3.5-2-6c0-2.5,0.6-4.5,1.9-6s2.9-2.4,4.9-2.4c1.9,0,3.4,0.7,4.5,2s1.7,3.2,1.7,5.4
			c0,0.1,0,0.3,0,0.5s0,0.5,0,0.6h-11.2c0,2.1,0.5,3.7,1.5,4.9s2.3,1.8,3.9,1.8c1,0,2-0.1,2.7-0.4s1.6-0.6,2.4-1l0.3,1.4
			C826.1,560.9,824.2,561.4,822.2,561.4z M816.9,551.7h9.1c0-1.8-0.4-3.2-1.2-4.1s-1.8-1.4-3.2-1.4c-1.4,0-2.5,0.5-3.3,1.5
			S817.1,550.1,816.9,551.7z"/>
		<path id="False-Copy-5" class="st2" d="M505.7,656v-21.8h11.7l-0.1,1.6h-9.7v8.6h9.3v1.5h-9.3v10H505.7z M524.5,656.4
			c-1.5,0-2.7-0.4-3.6-1.1s-1.4-1.9-1.4-3.3c0-0.8,0.2-1.6,0.5-2.2s0.9-1.1,1.6-1.5s1.5-0.7,2.4-0.9s1.9-0.4,3.1-0.5
			c1.2-0.1,2.2-0.1,2.8-0.2v-1.8c0-1.2-0.3-2.2-0.8-2.8s-1.5-0.9-2.7-0.9c-1.7,0-3.3,0.4-4.8,1.2c0-0.1-0.1-0.3-0.3-0.6
			s-0.2-0.6-0.3-0.8c0.6-0.4,1.4-0.7,2.4-1s1.9-0.4,2.9-0.4c1.9,0,3.3,0.4,4.1,1.2s1.3,2.3,1.3,4.4V656h-1.4c0-0.2-0.1-0.7-0.2-1.3
			s-0.1-1-0.1-1C528.5,655.4,526.8,656.4,524.5,656.4z M524.5,654.9c1.2,0,2.4-0.4,3.3-1.1s1.6-1.8,1.9-3.1V648
			c-1.4,0.1-2.1,0.2-2.1,0.2c-2.4,0.2-4,0.6-5,1.2s-1.4,1.4-1.4,2.6c0,1,0.3,1.7,0.9,2.2S523.5,654.9,524.5,654.9z M540,656.3
			c-1.3,0-2.3-0.3-3-0.9s-0.9-1.6-0.9-3v-18.7l1.8-0.1v18.8c0,1,0.2,1.7,0.5,2s0.9,0.6,1.6,0.6c0.6,0,1.3-0.1,2.2-0.3l0.1,1.4
			C541.3,656.2,540.6,656.3,540,656.3z M549.1,656.4c-1,0-2-0.1-2.9-0.4s-1.6-0.6-2.2-0.9l0.3-1.5c1.6,0.8,3.2,1.3,4.6,1.3
			c2.6,0,4-1,4.1-2.9c0-0.8-0.3-1.5-0.8-1.9s-1.6-1-3.2-1.5c-0.8-0.3-1.3-0.5-1.4-0.5c-2.5-0.8-3.8-2.1-3.8-4.1c0-1.1,0.5-2.1,1.5-3
			s2.3-1.3,4-1.3s3.3,0.3,4.8,1l-0.6,1.3c-1.5-0.6-2.9-0.8-4.2-0.8c-1.1,0-2,0.3-2.7,0.8s-1,1.2-1,2.1c0,0.7,0.2,1.3,0.6,1.7
			s1.3,0.8,2.5,1.1c0.1,0,0.4,0.1,0.8,0.3s0.6,0.2,0.6,0.2c1.7,0.5,2.9,1.1,3.5,1.8s1,1.7,1,2.9c0,1.4-0.6,2.5-1.6,3.3
			S550.8,656.4,549.1,656.4z M564.8,656.4c-2.2,0-4-0.7-5.3-2.2s-2-3.5-2-6c0-2.5,0.6-4.5,1.9-6s2.9-2.4,4.9-2.4
			c1.9,0,3.4,0.7,4.5,2s1.7,3.2,1.7,5.4c0,0.1,0,0.3,0,0.5s0,0.5,0,0.6h-11.2c0,2.1,0.5,3.7,1.5,4.9s2.3,1.8,3.9,1.8
			c1,0,2-0.1,2.7-0.4s1.6-0.6,2.4-1l0.3,1.4C568.7,655.9,566.8,656.4,564.8,656.4z M559.5,646.7h9.1c0-1.8-0.4-3.2-1.2-4.1
			s-1.8-1.4-3.2-1.4c-1.4,0-2.5,0.5-3.3,1.5S559.7,645.1,559.5,646.7z"/>
		<path id="False-Copy-6" class="st2" d="M636.7,656v-21.8h11.7l-0.1,1.6h-9.7v8.6h9.3v1.5h-9.3v10H636.7z M655.5,656.4
			c-1.5,0-2.7-0.4-3.6-1.1s-1.4-1.9-1.4-3.3c0-0.8,0.2-1.6,0.5-2.2s0.9-1.1,1.6-1.5s1.5-0.7,2.4-0.9s1.9-0.4,3.1-0.5
			c1.2-0.1,2.2-0.1,2.8-0.2v-1.8c0-1.2-0.3-2.2-0.8-2.8s-1.5-0.9-2.7-0.9c-1.7,0-3.3,0.4-4.8,1.2c0-0.1-0.1-0.3-0.3-0.6
			s-0.2-0.6-0.3-0.8c0.6-0.4,1.4-0.7,2.4-1s1.9-0.4,2.9-0.4c1.9,0,3.3,0.4,4.1,1.2s1.3,2.3,1.3,4.4V656h-1.4c0-0.2-0.1-0.7-0.2-1.3
			s-0.1-1-0.1-1C659.5,655.4,657.8,656.4,655.5,656.4z M655.5,654.9c1.2,0,2.4-0.4,3.3-1.1s1.6-1.8,1.9-3.1V648
			c-1.4,0.1-2.1,0.2-2.1,0.2c-2.4,0.2-4,0.6-5,1.2s-1.4,1.4-1.4,2.6c0,1,0.3,1.7,0.9,2.2S654.5,654.9,655.5,654.9z M671,656.3
			c-1.3,0-2.3-0.3-3-0.9s-0.9-1.6-0.9-3v-18.7l1.8-0.1v18.8c0,1,0.2,1.7,0.5,2s0.9,0.6,1.6,0.6c0.6,0,1.3-0.1,2.2-0.3l0.1,1.4
			C672.3,656.2,671.6,656.3,671,656.3z M680.1,656.4c-1,0-2-0.1-2.9-0.4s-1.6-0.6-2.2-0.9l0.3-1.5c1.6,0.8,3.2,1.3,4.6,1.3
			c2.6,0,4-1,4.1-2.9c0-0.8-0.3-1.5-0.8-1.9s-1.6-1-3.2-1.5c-0.8-0.3-1.3-0.5-1.4-0.5c-2.5-0.8-3.8-2.1-3.8-4.1c0-1.1,0.5-2.1,1.5-3
			s2.3-1.3,4-1.3s3.3,0.3,4.8,1l-0.6,1.3c-1.5-0.6-2.9-0.8-4.2-0.8c-1.1,0-2,0.3-2.7,0.8s-1,1.2-1,2.1c0,0.7,0.2,1.3,0.6,1.7
			s1.3,0.8,2.5,1.1c0.1,0,0.4,0.1,0.8,0.3s0.6,0.2,0.6,0.2c1.7,0.5,2.9,1.1,3.5,1.8s1,1.7,1,2.9c0,1.4-0.6,2.5-1.6,3.3
			S681.8,656.4,680.1,656.4z M695.8,656.4c-2.2,0-4-0.7-5.3-2.2s-2-3.5-2-6c0-2.5,0.6-4.5,1.9-6s2.9-2.4,4.9-2.4
			c1.9,0,3.4,0.7,4.5,2s1.7,3.2,1.7,5.4c0,0.1,0,0.3,0,0.5s0,0.5,0,0.6h-11.2c0,2.1,0.5,3.7,1.5,4.9s2.3,1.8,3.9,1.8
			c1,0,2-0.1,2.7-0.4s1.6-0.6,2.4-1l0.3,1.4C699.7,655.9,697.8,656.4,695.8,656.4z M690.5,646.7h9.1c0-1.8-0.4-3.2-1.2-4.1
			s-1.8-1.4-3.2-1.4c-1.4,0-2.5,0.5-3.3,1.5S690.7,645.1,690.5,646.7z"/>
		<path id="False-Copy-7" class="st3" d="M768.7,656v-21.8h11.7l-0.1,1.6h-9.7v8.6h9.3v1.5h-9.3v10H768.7z M787.5,656.4
			c-1.5,0-2.7-0.4-3.6-1.1s-1.4-1.9-1.4-3.3c0-0.8,0.2-1.6,0.5-2.2s0.9-1.1,1.6-1.5s1.5-0.7,2.4-0.9s1.9-0.4,3.1-0.5
			c1.2-0.1,2.2-0.1,2.8-0.2v-1.8c0-1.2-0.3-2.2-0.8-2.8s-1.5-0.9-2.7-0.9c-1.7,0-3.3,0.4-4.8,1.2c0-0.1-0.1-0.3-0.3-0.6
			s-0.2-0.6-0.3-0.8c0.6-0.4,1.4-0.7,2.4-1s1.9-0.4,2.9-0.4c1.9,0,3.3,0.4,4.1,1.2s1.3,2.3,1.3,4.4V656h-1.4c0-0.2-0.1-0.7-0.2-1.3
			s-0.1-1-0.1-1C791.5,655.4,789.8,656.4,787.5,656.4z M787.5,654.9c1.2,0,2.4-0.4,3.3-1.1s1.6-1.8,1.9-3.1V648
			c-1.4,0.1-2.1,0.2-2.1,0.2c-2.4,0.2-4,0.6-5,1.2s-1.4,1.4-1.4,2.6c0,1,0.3,1.7,0.9,2.2S786.5,654.9,787.5,654.9z M803,656.3
			c-1.3,0-2.3-0.3-3-0.9s-0.9-1.6-0.9-3v-18.7l1.8-0.1v18.8c0,1,0.2,1.7,0.5,2s0.9,0.6,1.6,0.6c0.6,0,1.3-0.1,2.2-0.3l0.1,1.4
			C804.3,656.2,803.6,656.3,803,656.3z M812.1,656.4c-1,0-2-0.1-2.9-0.4s-1.6-0.6-2.2-0.9l0.3-1.5c1.6,0.8,3.2,1.3,4.6,1.3
			c2.6,0,4-1,4.1-2.9c0-0.8-0.3-1.5-0.8-1.9s-1.6-1-3.2-1.5c-0.8-0.3-1.3-0.5-1.4-0.5c-2.5-0.8-3.8-2.1-3.8-4.1c0-1.1,0.5-2.1,1.5-3
			s2.3-1.3,4-1.3s3.3,0.3,4.8,1l-0.6,1.3c-1.5-0.6-2.9-0.8-4.2-0.8c-1.1,0-2,0.3-2.7,0.8s-1,1.2-1,2.1c0,0.7,0.2,1.3,0.6,1.7
			s1.3,0.8,2.5,1.1c0.1,0,0.4,0.1,0.8,0.3s0.6,0.2,0.6,0.2c1.7,0.5,2.9,1.1,3.5,1.8s1,1.7,1,2.9c0,1.4-0.6,2.5-1.6,3.3
			S813.8,656.4,812.1,656.4z M827.8,656.4c-2.2,0-4-0.7-5.3-2.2s-2-3.5-2-6c0-2.5,0.6-4.5,1.9-6s2.9-2.4,4.9-2.4
			c1.9,0,3.4,0.7,4.5,2s1.7,3.2,1.7,5.4c0,0.1,0,0.3,0,0.5s0,0.5,0,0.6h-11.2c0,2.1,0.5,3.7,1.5,4.9s2.3,1.8,3.9,1.8
			c1,0,2-0.1,2.7-0.4s1.6-0.6,2.4-1l0.3,1.4C831.7,655.9,829.8,656.4,827.8,656.4z M822.5,646.7h9.1c0-1.8-0.4-3.2-1.2-4.1
			s-1.8-1.4-3.2-1.4c-1.4,0-2.5,0.5-3.3,1.5S822.7,645.1,822.5,646.7z"/>
		<polygon id="Line-2-Copy-2" class="st1" points="736,315 738,315 738,690 736,690 		"/>
		<polygon id="Line-2-Copy-3" class="st1" points="600,315 602,315 602,690 600,690 		"/>
		<polygon id="Rectangle-Copy-2" class="st1" points="1165,500 1165,315 1167,315 1167,502 903,502 903,315 905,315 905,500 		"/>
		<polygon id="Line-Copy-8" class="st1" points="903,317 903,315 1166.9,315 1166.9,317 		"/>
		<polygon id="Line-Copy-11" class="st1" points="904,411 904,409 1167,409 1167,411 		"/>
		<path id="A-Copy-2" class="st2" d="M970.1,286c-2.1-6-3.2-9.4-3.4-10.1l-3.6,10.1H970.1z M973.4,295l-2.5-6.9h-8.6l-2.6,6.9H957
			l8.3-21.7h2.6L976,295H973.4z"/>
		<path id="True-Copy-6" class="st2" d="M945,375v-20.2h-6.9v-1.6h15.6v1.6h-6.9V375H945z M956,375c0-9.4,0-14.8,0-16.1h1.5l0.1,3.2
			c0.6-1,1.3-1.7,2.2-2.3s1.8-0.9,2.8-0.9c0.4,0,0.8,0,1.3,0.1l-0.1,1.5c-0.4-0.1-0.7-0.1-1.1-0.1c-1.4,0-2.5,0.5-3.4,1.6
			s-1.4,2.3-1.4,3.8v9.2H956z M972.5,375.4c-0.8,0-1.6-0.1-2.3-0.3s-1.4-0.5-2-0.9s-1.1-1-1.5-1.7s-0.5-1.6-0.5-2.6v-10.9h1.8v11
			c0,0.8,0.1,1.4,0.4,1.9s0.6,0.9,1,1.2s0.9,0.5,1.4,0.6s1.1,0.2,1.7,0.2c0.7,0,1.2-0.1,1.7-0.2s1-0.3,1.4-0.6s0.8-0.7,1-1.2
			s0.3-1.2,0.3-1.9v-11h1.8v10.9c0,0.8-0.1,1.6-0.4,2.2s-0.5,1.2-0.9,1.6s-0.9,0.7-1.4,1s-1.1,0.5-1.7,0.6S973.1,375.4,972.5,375.4z
			 M989.2,375.4c-2.2,0-4-0.7-5.3-2.2s-2-3.5-2-6c0-2.5,0.6-4.5,1.9-6s2.9-2.4,4.9-2.4c1.9,0,3.4,0.7,4.5,2s1.7,3.2,1.7,5.4
			c0,0.1,0,0.3,0,0.5s0,0.5,0,0.6h-11.2c0,2.1,0.5,3.7,1.5,4.9s2.3,1.8,3.9,1.8c1,0,2-0.1,2.7-0.4s1.6-0.6,2.4-1l0.3,1.4
			C993.1,374.9,991.2,375.4,989.2,375.4z M983.9,365.7h9.1c0-1.8-0.4-3.2-1.2-4.1s-1.8-1.4-3.2-1.4c-1.4,0-2.5,0.5-3.3,1.5
			S984.1,364.1,983.9,365.7z"/>
		<path id="NOT-A" class="st2" d="M1073.7,295h-2.9l-11.2-17.1l-0.7-1c0.1,2.1,0.1,3.9,0.1,5.5V295h-2.4v-21.7h2.8l11.3,17.1l0.7,1
			c-0.1-3.1-0.1-4.9-0.1-5.4v-12.7h2.4V295z M1080.5,284.2c0,2.8,0.6,5,1.9,6.6s3.2,2.4,5.7,2.4s4.4-0.8,5.6-2.4s1.9-3.8,1.9-6.6
			c0-2.9-0.6-5.1-1.9-6.6s-3.1-2.4-5.6-2.4s-4.4,0.8-5.7,2.4S1080.5,281.3,1080.5,284.2z M1098.4,284.2c0,1.7-0.2,3.2-0.7,4.5
			s-1.1,2.5-2,3.5s-1.9,1.7-3.2,2.3s-2.8,0.8-4.4,0.8c-2.2,0-4.1-0.5-5.6-1.4s-2.7-2.2-3.5-3.9s-1.2-3.6-1.2-5.9
			c0-3.5,0.9-6.2,2.7-8.2s4.3-3,7.6-3c3.2,0,5.7,1,7.5,3S1098.4,280.7,1098.4,284.2z M1109.3,295h-2.5v-19.4h-6.7v-2.2h15.9v2.2
			h-6.7V295z M1136.7,286c-2.1-6-3.2-9.4-3.4-10.1l-3.6,10.1H1136.7z M1140,295l-2.5-6.9h-8.6l-2.6,6.9h-2.6l8.3-21.7h2.6l8.1,21.7
			H1140z"/>
		<path class="st3" d="M1066.7,375v-21.8h11.7l-0.1,1.6h-9.7v8.6h9.3v1.5h-9.3v10H1066.7z M1085.5,375.4c-1.5,0-2.7-0.4-3.6-1.1
			s-1.4-1.9-1.4-3.3c0-0.8,0.2-1.6,0.5-2.2s0.9-1.1,1.6-1.5s1.5-0.7,2.4-0.9s1.9-0.4,3.1-0.5c1.2-0.1,2.2-0.1,2.8-0.2v-1.8
			c0-1.2-0.3-2.2-0.8-2.8s-1.5-0.9-2.7-0.9c-1.7,0-3.3,0.4-4.8,1.2c0-0.1-0.1-0.3-0.3-0.6s-0.2-0.6-0.3-0.8c0.6-0.4,1.4-0.7,2.4-1
			s1.9-0.4,2.9-0.4c1.9,0,3.3,0.4,4.1,1.2s1.3,2.3,1.3,4.4V375h-1.4c0-0.2-0.1-0.7-0.2-1.3s-0.1-1-0.1-1
			C1089.5,374.4,1087.8,375.4,1085.5,375.4z M1085.5,373.9c1.2,0,2.4-0.4,3.3-1.1s1.6-1.8,1.9-3.1V367c-1.4,0.1-2.1,0.2-2.1,0.2
			c-2.4,0.2-4,0.6-5,1.2s-1.4,1.4-1.4,2.6c0,1,0.3,1.7,0.9,2.2S1084.5,373.9,1085.5,373.9z M1101,375.3c-1.3,0-2.3-0.3-3-0.9
			s-0.9-1.6-0.9-3v-18.7l1.8-0.1v18.8c0,1,0.2,1.7,0.5,2s0.9,0.6,1.6,0.6c0.6,0,1.3-0.1,2.2-0.3l0.1,1.4
			C1102.3,375.2,1101.6,375.3,1101,375.3z M1110.1,375.4c-1,0-2-0.1-2.9-0.4s-1.6-0.6-2.2-0.9l0.3-1.5c1.6,0.8,3.2,1.3,4.6,1.3
			c2.6,0,4-1,4.1-2.9c0-0.8-0.3-1.5-0.8-1.9s-1.6-1-3.2-1.5c-0.8-0.3-1.3-0.5-1.4-0.5c-2.5-0.8-3.8-2.1-3.8-4.1c0-1.1,0.5-2.1,1.5-3
			s2.3-1.3,4-1.3s3.3,0.3,4.8,1l-0.6,1.3c-1.5-0.6-2.9-0.8-4.2-0.8c-1.1,0-2,0.3-2.7,0.8s-1,1.2-1,2.1c0,0.7,0.2,1.3,0.6,1.7
			s1.3,0.8,2.5,1.1c0.1,0,0.4,0.1,0.8,0.3s0.6,0.2,0.6,0.2c1.7,0.5,2.9,1.1,3.5,1.8s1,1.7,1,2.9c0,1.4-0.6,2.5-1.6,3.3
			S1111.8,375.4,1110.1,375.4z M1125.8,375.4c-2.2,0-4-0.7-5.3-2.2s-2-3.5-2-6c0-2.5,0.6-4.5,1.9-6s2.9-2.4,4.9-2.4
			c1.9,0,3.4,0.7,4.5,2s1.7,3.2,1.7,5.4c0,0.1,0,0.3,0,0.5s0,0.5,0,0.6h-11.2c0,2.1,0.5,3.7,1.5,4.9s2.3,1.8,3.9,1.8
			c1,0,2-0.1,2.7-0.4s1.6-0.6,2.4-1l0.3,1.4C1129.7,374.9,1127.8,375.4,1125.8,375.4z M1120.5,365.7h9.1c0-1.8-0.4-3.2-1.2-4.1
			s-1.8-1.4-3.2-1.4c-1.4,0-2.5,0.5-3.3,1.5S1120.7,364.1,1120.5,365.7z"/>
		<path class="st2" d="M934.7,466v-21.8h11.7l-0.1,1.6h-9.7v8.6h9.3v1.5h-9.3v10H934.7z M953.5,466.4c-1.5,0-2.7-0.4-3.6-1.1
			s-1.4-1.9-1.4-3.3c0-0.8,0.2-1.6,0.5-2.2s0.9-1.1,1.6-1.5s1.5-0.7,2.4-0.9s1.9-0.4,3.1-0.5c1.2-0.1,2.2-0.1,2.8-0.2v-1.8
			c0-1.2-0.3-2.2-0.8-2.8s-1.5-0.9-2.7-0.9c-1.7,0-3.3,0.4-4.8,1.2c0-0.1-0.1-0.3-0.3-0.6s-0.2-0.6-0.3-0.8c0.6-0.4,1.4-0.7,2.4-1
			s1.9-0.4,2.9-0.4c1.9,0,3.3,0.4,4.1,1.2s1.3,2.3,1.3,4.4V466h-1.4c0-0.2-0.1-0.7-0.2-1.3s-0.1-1-0.1-1
			C957.5,465.4,955.8,466.4,953.5,466.4z M953.5,464.9c1.2,0,2.4-0.4,3.3-1.1s1.6-1.8,1.9-3.1V458c-1.4,0.1-2.1,0.2-2.1,0.2
			c-2.4,0.2-4,0.6-5,1.2s-1.4,1.4-1.4,2.6c0,1,0.3,1.7,0.9,2.2S952.5,464.9,953.5,464.9z M969,466.3c-1.3,0-2.3-0.3-3-0.9
			s-0.9-1.6-0.9-3v-18.7l1.8-0.1v18.8c0,1,0.2,1.7,0.5,2s0.9,0.6,1.6,0.6c0.6,0,1.3-0.1,2.2-0.3l0.1,1.4
			C970.3,466.2,969.6,466.3,969,466.3z M978.1,466.4c-1,0-2-0.1-2.9-0.4s-1.6-0.6-2.2-0.9l0.3-1.5c1.6,0.8,3.2,1.3,4.6,1.3
			c2.6,0,4-1,4.1-2.9c0-0.8-0.3-1.5-0.8-1.9s-1.6-1-3.2-1.5c-0.8-0.3-1.3-0.5-1.4-0.5c-2.5-0.8-3.8-2.1-3.8-4.1c0-1.1,0.5-2.1,1.5-3
			s2.3-1.3,4-1.3s3.3,0.3,4.8,1l-0.6,1.3c-1.5-0.6-2.9-0.8-4.2-0.8c-1.1,0-2,0.3-2.7,0.8s-1,1.2-1,2.1c0,0.7,0.2,1.3,0.6,1.7
			s1.3,0.8,2.5,1.1c0.1,0,0.4,0.1,0.8,0.3s0.6,0.2,0.6,0.2c1.7,0.5,2.9,1.1,3.5,1.8s1,1.7,1,2.9c0,1.4-0.6,2.5-1.6,3.3
			S979.8,466.4,978.1,466.4z M993.8,466.4c-2.2,0-4-0.7-5.3-2.2s-2-3.5-2-6c0-2.5,0.6-4.5,1.9-6s2.9-2.4,4.9-2.4
			c1.9,0,3.4,0.7,4.5,2s1.7,3.2,1.7,5.4c0,0.1,0,0.3,0,0.5s0,0.5,0,0.6h-11.2c0,2.1,0.5,3.7,1.5,4.9s2.3,1.8,3.9,1.8
			c1,0,2-0.1,2.7-0.4s1.6-0.6,2.4-1l0.3,1.4C997.7,465.9,995.8,466.4,993.8,466.4z M988.5,456.7h9.1c0-1.8-0.4-3.2-1.2-4.1
			s-1.8-1.4-3.2-1.4c-1.4,0-2.5,0.5-3.3,1.5S988.7,455.1,988.5,456.7z"/>
		<path class="st3" d="M1076,466v-20.2h-6.9v-1.6h15.6v1.6h-6.9V466H1076z M1087,466c0-9.4,0-14.8,0-16.1h1.5l0.1,3.2
			c0.6-1,1.3-1.7,2.2-2.3s1.8-0.9,2.8-0.9c0.4,0,0.8,0,1.3,0.1l-0.1,1.5c-0.4-0.1-0.7-0.1-1.1-0.1c-1.4,0-2.5,0.5-3.4,1.6
			s-1.4,2.3-1.4,3.8v9.2H1087z M1103.5,466.4c-0.8,0-1.6-0.1-2.3-0.3s-1.4-0.5-2-0.9s-1.1-1-1.5-1.7s-0.5-1.6-0.5-2.6v-10.9h1.8v11
			c0,0.8,0.1,1.4,0.4,1.9s0.6,0.9,1,1.2s0.9,0.5,1.4,0.6s1.1,0.2,1.7,0.2c0.7,0,1.2-0.1,1.7-0.2s1-0.3,1.4-0.6s0.8-0.7,1-1.2
			s0.3-1.2,0.3-1.9v-11h1.8v10.9c0,0.8-0.1,1.6-0.4,2.2s-0.5,1.2-0.9,1.6s-0.9,0.7-1.4,1s-1.1,0.5-1.7,0.6
			S1104.1,466.4,1103.5,466.4z M1120.2,466.4c-2.2,0-4-0.7-5.3-2.2s-2-3.5-2-6c0-2.5,0.6-4.5,1.9-6s2.9-2.4,4.9-2.4
			c1.9,0,3.4,0.7,4.5,2s1.7,3.2,1.7,5.4c0,0.1,0,0.3,0,0.5s0,0.5,0,0.6h-11.2c0,2.1,0.5,3.7,1.5,4.9s2.3,1.8,3.9,1.8
			c1,0,2-0.1,2.7-0.4s1.6-0.6,2.4-1l0.3,1.4C1124.1,465.9,1122.2,466.4,1120.2,466.4z M1114.9,456.7h9.1c0-1.8-0.4-3.2-1.2-4.1
			s-1.8-1.4-3.2-1.4c-1.4,0-2.5,0.5-3.3,1.5S1115.1,455.1,1114.9,456.7z"/>
		<polygon id="Line-2-Copy-5" class="st1" points="1029,315 1031,315 1031,502 1029,502 		"/>
	</g>
</g>
</svg>
