<?xml version="1.0" encoding="UTF-8"?>
<svg width="1214px" height="941px" viewBox="0 0 1214 941" version="1.1" xmlns="http://www.w3.org/2000/svg" xmlns:xlink="http://www.w3.org/1999/xlink">
    <!-- Generator: Sketch 46.2 (44496) - http://www.bohemiancoding.com/sketch -->
    <title>2 panel_example_2 copy</title>
    <desc>Created with Sketch.</desc>
    <defs></defs>
    <g id="Page-1" stroke="none" stroke-width="1" fill="none" fill-rule="evenodd">
        <g id="2-panel_example_2-copy">
            <polygon id="Page-1" points="-1 941 1213 941 1213 0 -1 0"></polygon>
            <path d="M43.078125,337.28125 C41.8359313,337.28125 40.7578171,336.976566 39.84375,336.367188 C38.9296829,335.757809 38.2500022,334.962896 37.8046875,333.982422 C37.3593728,333.001948 37.1367188,331.910162 37.1367188,330.707031 C37.1367188,329.785152 37.2695299,328.917973 37.5351562,328.105469 C37.8007826,327.292965 38.1777319,326.574222 38.6660156,325.949219 C39.1542993,325.324216 39.7831993,324.83008 40.5527344,324.466797 C41.3222695,324.103514 42.1796828,323.921875 43.125,323.921875 C43.7421906,323.921875 44.3574188,324.003905 44.9707031,324.167969 C45.5839874,324.332032 46.039061,324.527343 46.3359375,324.753906 L45.8789062,325.84375 C45.0742147,325.390623 44.1210993,325.164062 43.0195312,325.164062 C41.6835871,325.164062 40.6250039,325.669917 39.84375,326.681641 C39.0624961,327.693364 38.671875,329.035148 38.671875,330.707031 C38.671875,332.308602 39.060543,333.603511 39.8378906,334.591797 C40.6152383,335.580083 41.6757745,336.074219 43.0195312,336.074219 C43.9570359,336.074219 44.9648384,335.839846 46.0429688,335.371094 L46.265625,336.414062 C45.8984357,336.687501 45.4218779,336.90039 44.8359375,337.052734 C44.2499971,337.205079 43.6640654,337.28125 43.078125,337.28125 Z M54.3046875,336.121094 C55.2421922,336.121094 56.0331999,335.873049 56.6777344,335.376953 C57.3222688,334.880857 57.7910142,334.226567 58.0839844,333.414062 C58.3769546,332.601558 58.5234375,331.667974 58.5234375,330.613281 C58.5234375,328.957023 58.1718785,327.625005 57.46875,326.617188 C56.7656215,325.60937 55.6953197,325.105469 54.2578125,325.105469 C53.3203078,325.105469 52.5214877,325.357419 51.8613281,325.861328 C51.2011686,326.365237 50.7187515,327.025387 50.4140625,327.841797 C50.1093735,328.658207 49.9570312,329.593745 49.9570312,330.648438 C49.9570312,332.250008 50.3300744,333.562495 51.0761719,334.585938 C51.8222694,335.60938 52.8984305,336.121094 54.3046875,336.121094 Z M54.1992188,337.28125 C53.0351504,337.28125 52.0097701,336.988284 51.1230469,336.402344 C50.2363237,335.816403 49.5605492,335.021489 49.0957031,334.017578 C48.6308571,333.013667 48.3984375,331.878913 48.3984375,330.613281 C48.3984375,329.660151 48.5332018,328.775395 48.8027344,327.958984 C49.072267,327.142574 49.4570287,326.43555 49.9570312,325.837891 C50.4570338,325.240231 51.0781213,324.771486 51.8203125,324.431641 C52.5625037,324.091795 53.3867142,323.921875 54.2929688,323.921875 C55.4960998,323.921875 56.5390581,324.216794 57.421875,324.806641 C58.3046919,325.396487 58.9667947,326.189448 59.4082031,327.185547 C59.8496116,328.181646 60.0703125,329.3164 60.0703125,330.589844 C60.0703125,331.8711 59.8437523,333.011714 59.390625,334.011719 C58.9374977,335.011724 58.2617232,335.806638 57.3632812,336.396484 C56.4648393,336.986331 55.4101623,337.28125 54.1992188,337.28125 Z M66.1640625,337.269531 C65.0859321,337.269531 64.2968775,337.025393 63.796875,336.537109 C63.2968725,336.048826 63.046875,335.253912 63.046875,334.152344 L63.046875,319.164062 L64.4765625,319.046875 L64.4765625,334.070312 C64.4765625,334.851566 64.6191392,335.390624 64.9042969,335.6875 C65.1894546,335.984376 65.6210909,336.132812 66.1992188,336.132812 C66.6679711,336.132812 67.2539027,336.04297 67.9570312,335.863281 L68.015625,336.988281 C67.2499962,337.175782 66.6328148,337.269531 66.1640625,337.269531 Z M74.5195312,337.316406 C73.8476529,337.316406 73.2246122,337.240235 72.6503906,337.087891 C72.076169,336.935546 71.5429712,336.697267 71.0507812,336.373047 C70.5585913,336.048827 70.1699233,335.589847 69.8847656,334.996094 C69.5996079,334.402341 69.4570312,333.703129 69.4570312,332.898438 L69.4570312,324.15625 L70.9101562,324.15625 L70.9101562,332.933594 C70.9101562,333.542972 71.0039053,334.058592 71.1914062,334.480469 C71.3789072,334.902346 71.6484357,335.220702 72,335.435547 C72.3515643,335.650392 72.7265605,335.800781 73.125,335.886719 C73.5234395,335.972657 73.9882786,336.015625 74.5195312,336.015625 C75.0429714,336.015625 75.5039043,335.970704 75.9023438,335.880859 C76.3007832,335.791015 76.6718733,335.63672 77.015625,335.417969 C77.3593767,335.199218 77.623046,334.880861 77.8066406,334.462891 C77.9902353,334.04492 78.0820312,333.535159 78.0820312,332.933594 L78.0820312,324.15625 L79.5351562,324.15625 L79.5351562,332.898438 C79.5351562,333.554691 79.4414072,334.140622 79.2539062,334.65625 C79.0664053,335.171878 78.8164078,335.593748 78.5039062,335.921875 C78.1914047,336.250002 77.8144553,336.521483 77.3730469,336.736328 C76.9316384,336.951173 76.4785179,337.101562 76.0136719,337.1875 C75.5488258,337.273438 75.0507839,337.316406 74.5195312,337.316406 Z M82.734375,337 C82.7109374,329.234336 82.6992188,324.953129 82.6992188,324.15625 L83.9648438,324.15625 L84.1523438,326.125 C84.5273456,325.484372 85.0878869,324.957033 85.8339844,324.542969 C86.5800819,324.128904 87.3710896,323.921875 88.2070312,323.921875 C90.261729,323.921875 91.5507786,324.730461 92.0742188,326.347656 C92.9882858,324.730461 94.4296777,323.921875 96.3984375,323.921875 C97.8046945,323.921875 98.8378873,324.322262 99.4980469,325.123047 C100.158206,325.923832 100.488281,327.11718 100.488281,328.703125 L100.488281,337 L99.0351562,337 L99.0351562,330.71875 C99.0351562,330.124997 99.0273438,329.628908 99.0117188,329.230469 C98.9960937,328.832029 98.9589847,328.39844 98.9003906,327.929688 C98.8417966,327.460935 98.7519537,327.078126 98.6308594,326.78125 C98.509765,326.484374 98.3515635,326.203126 98.15625,325.9375 C97.9609365,325.671874 97.710939,325.476563 97.40625,325.351562 C97.101561,325.226562 96.7421896,325.164062 96.328125,325.164062 C95.3437451,325.164062 94.509769,325.455075 93.8261719,326.037109 C93.1425747,326.619144 92.6679701,327.437495 92.4023438,328.492188 C92.4179688,329.289066 92.4374999,329.906248 92.4609375,330.34375 L92.4609375,337 L91.0195312,337 L91.0195312,330.460938 C91.0195312,329.796872 91.0000002,329.220706 90.9609375,328.732422 C90.9218748,328.244138 90.8437506,327.765627 90.7265625,327.296875 C90.6093744,326.828123 90.4511729,326.445314 90.2519531,326.148438 C90.0527334,325.851561 89.787111,325.613282 89.4550781,325.433594 C89.1230452,325.253905 88.7265648,325.164062 88.265625,325.164062 C87.2031197,325.164062 86.3144567,325.447263 85.5996094,326.013672 C84.8847621,326.580081 84.4218761,327.351558 84.2109375,328.328125 C84.1953124,328.648439 84.1875,329.105466 84.1875,329.699219 L84.1875,337 L82.734375,337 Z M103.851562,337 L103.851562,324.15625 L105.117188,324.15625 L105.316406,326.136719 C105.777346,325.449215 106.39648,324.908205 107.173828,324.513672 C107.951176,324.119139 108.789058,323.921875 109.6875,323.921875 C111.16407,323.921875 112.249997,324.328121 112.945312,325.140625 C113.640628,325.953129 113.988281,327.249991 113.988281,329.03125 L113.988281,337 L112.523438,337 L112.523438,328.375 C112.484375,327.234369 112.24219,326.414065 111.796875,325.914062 C111.35156,325.41406 110.621099,325.164062 109.605469,325.164062 C108.4414,325.164062 107.490238,325.457028 106.751953,326.042969 C106.013668,326.628909 105.550782,327.386714 105.363281,328.316406 C105.332031,328.683596 105.316406,329.066404 105.316406,329.464844 L105.316406,337 L103.851562,337 Z" id="column" fill="#7A98A9"></path>
            <g id="Group-2" transform="translate(529.000000, 813.000000)" font-size="24" font-family="Oxygen-Light, Oxygen" fill="#7A98A9" font-weight="300">
                <text id="12-column-grid">
                    <tspan x="0.7334" y="25.8320125">12-</tspan>
                    <tspan x="29.0107438" y="25.8320125" letter-spacing="-0.036">c</tspan>
                    <tspan x="40.2364625" y="25.8320125">olumn grid</tspan>
                </text>
            </g>
            <polygon id="Fill-19" fill="#FFFFFF" points="171 225.589 379 225.589 379 147 171 147"></polygon>
            <g id="Group" transform="translate(171.000000, 603.000000)">
                <polygon id="Fill-19-Copy-2" fill="#97D0E9" points="0 159 282 159 282 0 0 0"></polygon>
                <path d="M3.5,1.5 L283.5,156.5" id="Line-3" stroke="#204056" opacity="0.7" stroke-linecap="square"></path>
                <path d="M3.5,1.5 L283.5,156.5" id="Line-3" stroke="#204056" opacity="0.7" stroke-linecap="square" transform="translate(143.500000, 79.000000) scale(1, -1) translate(-143.500000, -79.000000) "></path>
            </g>
            <polygon id="Fill-19-Copy" fill="#FFFFFF" points="688 228.589 1043.39999 228.589 1043.39999 146.589 688 146.589"></polygon>
            <text id="LOGO" font-family="Oxygen-Bold, Oxygen" font-size="20" font-weight="bold" fill="#204056">
                <tspan x="245" y="193">LOGO</tspan>
            </text>
            <text id="HOME-ABOUT-CONTACT-B" font-family="Oxygen-Bold, Oxygen" font-size="14" font-weight="bold" fill="#204056">
                <tspan x="707" y="196">HOME  		ABOUT 		CONTACT 	BUY NOW</tspan>
            </text>
            <rect id="Rectangle-Copy" fill="#FFFFFF" x="171" y="249" width="873" height="336"></rect>
            <path d="M192.566537,398.369264 C192.509193,398.36878 192.454134,398.395636 192.414451,398.444267 L183.688219,409.089791 C183.60906,409.186327 183.611968,409.339477 183.695075,409.4319 C183.778182,409.523838 183.909491,409.520451 183.988859,409.423674 L192.564875,398.961542 L201.140683,409.423674 C201.219634,409.520935 201.351359,409.524806 201.434466,409.43311 C201.517781,409.341171 201.521313,409.187779 201.442361,409.090759 L201.441322,409.089791 L192.71509,398.444267 C192.676238,398.396846 192.622842,398.369748 192.566537,398.369264" id="Fill-1" stroke="#204056" stroke-width="1.5" fill="#204056" transform="translate(192.565041, 403.934298) scale(-1, -1) rotate(90.000000) translate(-192.565041, -403.934298) "></path>
            <path d="M1021.56654,410.369264 C1021.50919,410.36878 1021.45413,410.395636 1021.41445,410.444267 L1012.68822,421.089791 C1012.60906,421.186327 1012.61197,421.339477 1012.69508,421.4319 C1012.77818,421.523838 1012.90949,421.520451 1012.98886,421.423674 L1021.56487,410.961542 L1030.14068,421.423674 C1030.21963,421.520935 1030.35136,421.524806 1030.43447,421.43311 C1030.51778,421.341171 1030.52131,421.187779 1030.44236,421.090759 L1030.44132,421.089791 L1021.71509,410.444267 C1021.67624,410.396846 1021.62284,410.369748 1021.56654,410.369264" id="Fill-1" stroke="#204056" stroke-width="1.5" fill="#204056" transform="translate(1021.565041, 415.934298) rotate(90.000000) translate(-1021.565041, -415.934298) "></path>
            <path d="M173.572835,252.544262 L1045.42717,583.455738" id="Line" stroke="#204056" opacity="0.5" stroke-linecap="square"></path>
            <path d="M172.136855,583.071436 L1045.13686,252.543631 L172.136855,583.071436 Z" id="Line" stroke="#204056" opacity="0.5" stroke-linecap="square"></path>
            <g id="Group" transform="translate(466.000000, 603.000000)">
                <polygon id="Fill-19-Copy-2" fill="#FFFFFF" points="0 159 282 159 282 0 0 0"></polygon>
                <path d="M3.5,1.5 L283.5,156.5" id="Line-3" stroke="#204056" opacity="0.7" stroke-linecap="square"></path>
                <path d="M3.5,1.5 L283.5,156.5" id="Line-3" stroke="#204056" opacity="0.7" stroke-linecap="square" transform="translate(143.500000, 79.000000) scale(1, -1) translate(-143.500000, -79.000000) "></path>
            </g>
            <g id="Group" transform="translate(762.000000, 603.000000)">
                <polygon id="Fill-19-Copy-2" fill="#FFFFFF" points="0 159 282 159 282 0 0 0"></polygon>
                <path d="M3.5,1.5 L283.5,156.5" id="Line-3" stroke="#204056" opacity="0.7" stroke-linecap="square"></path>
                <path d="M3.5,1.5 L283.5,156.5" id="Line-3" stroke="#204056" opacity="0.7" stroke-linecap="square" transform="translate(143.500000, 79.000000) scale(1, -1) translate(-143.500000, -79.000000) "></path>
            </g>
            <g id="Group" transform="translate(171.000000, 603.000000)">
                <polygon id="Fill-19-Copy-2" fill="#FFFFFF" points="0 159 282 159 282 0 0 0"></polygon>
                <path d="M3.5,1.5 L283.5,156.5" id="Line-3" stroke="#204056" opacity="0.7" stroke-linecap="square"></path>
                <path d="M3.5,1.5 L283.5,156.5" id="Line-3" stroke="#204056" opacity="0.7" stroke-linecap="square" transform="translate(143.500000, 79.000000) scale(1, -1) translate(-143.500000, -79.000000) "></path>
            </g>
            <g id="Group-28" opacity="0.6" transform="translate(171.000000, 147.000000)" fill="#DEE6E9">
                <g id="Group-3">
                    <polygon id="Fill-4" points="369.545455 614.431514 429.545455 614.431514 429.545455 0.127514618 369.545455 0.127514618"></polygon>
                    <polygon id="Fill-6" points="295.636364 614.431514 355.636364 614.431514 355.636364 0.127514618 295.636364 0.127514618"></polygon>
                    <polygon id="Fill-8" points="443.454545 614.431514 503.454545 614.431514 503.454545 0.127514618 443.454545 0.127514618"></polygon>
                    <polygon id="Fill-10" points="517.363636 614.431514 577.363636 614.431514 577.363636 0.127514618 517.363636 0.127514618"></polygon>
                    <polygon id="Fill-12" points="665.181818 614.431514 725.181818 614.431514 725.181818 0.127514618 665.181818 0.127514618"></polygon>
                    <polygon id="Fill-14" points="591.272727 614.431514 651.272727 614.431514 651.272727 0.127514618 591.272727 0.127514618"></polygon>
                    <polygon id="Fill-16" points="739.090909 614.431514 799.090909 614.431514 799.090909 0.127514618 739.090909 0.127514618"></polygon>
                    <polygon id="Fill-18" points="813 614.304 873 614.304 873 0 813 0"></polygon>
                    <polygon id="Fill-20" points="73.9090909 614.431514 133.909091 614.431514 133.909091 0.127514618 73.9090909 0.127514618"></polygon>
                    <polygon id="Fill-22" points="0 614.304 60 614.304 60 0 0 0"></polygon>
                    <polygon id="Fill-24" points="147.818182 614.431514 207.818182 614.431514 207.818182 0.127514618 147.818182 0.127514618"></polygon>
                    <polygon id="Fill-26" points="221.727273 614.431514 281.727273 614.431514 281.727273 0.127514618 221.727273 0.127514618"></polygon>
                </g>
            </g>
            <g id="Group-2-Copy" transform="translate(532.000000, 125.000000)" stroke="#658395" stroke-linecap="square">
                <path d="M1.5,0.5 L1.5,46.5" id="Line"></path>
            </g>
            <path d="M506.703125,119.964844 L506.527344,118.664062 L509.246094,118.664062 C509.847659,118.664062 510.378904,118.611329 510.839844,118.505859 C511.300784,118.40039 511.689452,118.263673 512.005859,118.095703 C512.322267,117.927734 512.591796,117.693361 512.814453,117.392578 C513.03711,117.091795 513.210937,116.79297 513.335938,116.496094 C513.460938,116.199217 513.55664,115.814455 513.623047,115.341797 C513.689453,114.869138 513.730469,114.435549 513.746094,114.041016 C513.761719,113.646482 513.769531,113.148441 513.769531,112.546875 C513.769531,112.632813 513.761719,112.613282 513.746094,112.488281 L513.6875,111.679688 C513.19531,112.421879 512.613285,112.994139 511.941406,113.396484 C511.269528,113.79883 510.449224,114 509.480469,114 C508.71484,114 508.017581,113.863283 507.388672,113.589844 C506.759762,113.316405 506.244143,112.96094 505.841797,112.523438 C505.439451,112.085935 505.101564,111.58594 504.828125,111.023438 C504.554686,110.460935 504.359376,109.900393 504.242188,109.341797 C504.124999,108.7832 504.066406,108.230471 504.066406,107.683594 C504.066406,106.99609 504.123046,106.3418 504.236328,105.720703 C504.34961,105.099606 504.546874,104.49219 504.828125,103.898438 C505.109376,103.304685 505.460935,102.791018 505.882812,102.357422 C506.30469,101.923826 506.847653,101.576173 507.511719,101.314453 C508.175785,101.052733 508.925777,100.921875 509.761719,100.921875 C510.582035,100.921875 511.306637,101.083983 511.935547,101.408203 C512.564456,101.732423 513.148435,102.249996 513.6875,102.960938 L513.828125,101.15625 L515.117188,101.15625 L515.117188,113.0625 C515.117188,113.578128 515.111328,113.994139 515.099609,114.310547 C515.087891,114.626955 515.041016,115.056638 514.958984,115.599609 C514.876953,116.142581 514.763673,116.587889 514.619141,116.935547 C514.474609,117.283205 514.253908,117.667967 513.957031,118.089844 C513.660155,118.511721 513.302736,118.843749 512.884766,119.085938 C512.466795,119.328126 511.931644,119.535155 511.279297,119.707031 C510.62695,119.878907 509.886723,119.964844 509.058594,119.964844 L506.703125,119.964844 Z M509.667969,112.816406 C510.238284,112.816406 510.753904,112.72461 511.214844,112.541016 C511.675784,112.357421 512.056639,112.115236 512.357422,111.814453 C512.658205,111.51367 512.912108,111.160158 513.119141,110.753906 C513.326173,110.347654 513.472656,109.927737 513.558594,109.494141 C513.644532,109.060545 513.6875,108.613284 513.6875,108.152344 L513.6875,106.816406 C513.6875,106.207028 513.613282,105.632815 513.464844,105.09375 C513.316406,104.554685 513.087892,104.056643 512.779297,103.599609 C512.470702,103.142576 512.046878,102.781251 511.507812,102.515625 C510.968747,102.249999 510.343754,102.117188 509.632812,102.117188 C509.054685,102.117188 508.533205,102.228515 508.068359,102.451172 C507.603513,102.673829 507.222658,102.968748 506.925781,103.335938 C506.628905,103.703127 506.378907,104.13281 506.175781,104.625 C505.972655,105.11719 505.830079,105.619138 505.748047,106.130859 C505.666015,106.642581 505.625,107.167966 505.625,107.707031 C505.625,108.183596 505.662109,108.646482 505.736328,109.095703 C505.810547,109.544924 505.943358,109.999998 506.134766,110.460938 C506.326173,110.921877 506.570311,111.322264 506.867188,111.662109 C507.164064,112.001955 507.552732,112.279296 508.033203,112.494141 C508.513674,112.708985 509.058591,112.816406 509.667969,112.816406 Z M523.25,114.316406 C522.578122,114.316406 521.955081,114.240235 521.380859,114.087891 C520.806638,113.935546 520.27344,113.697267 519.78125,113.373047 C519.28906,113.048827 518.900392,112.589847 518.615234,111.996094 C518.330077,111.402341 518.1875,110.703129 518.1875,109.898438 L518.1875,101.15625 L519.640625,101.15625 L519.640625,109.933594 C519.640625,110.542972 519.734374,111.058592 519.921875,111.480469 C520.109376,111.902346 520.378904,112.220702 520.730469,112.435547 C521.082033,112.650392 521.457029,112.800781 521.855469,112.886719 C522.253908,112.972657 522.718747,113.015625 523.25,113.015625 C523.77344,113.015625 524.234373,112.970704 524.632812,112.880859 C525.031252,112.791015 525.402342,112.63672 525.746094,112.417969 C526.089845,112.199218 526.353515,111.880861 526.537109,111.462891 C526.720704,111.04492 526.8125,110.535159 526.8125,109.933594 L526.8125,101.15625 L528.265625,101.15625 L528.265625,109.898438 C528.265625,110.554691 528.171876,111.140622 527.984375,111.65625 C527.796874,112.171878 527.546877,112.593748 527.234375,112.921875 C526.921873,113.250002 526.544924,113.521483 526.103516,113.736328 C525.662107,113.951173 525.208987,114.101562 524.744141,114.1875 C524.279295,114.273438 523.781253,114.316406 523.25,114.316406 Z M535.050781,114.269531 C533.972651,114.269531 533.183596,114.025393 532.683594,113.537109 C532.183591,113.048826 531.933594,112.253912 531.933594,111.152344 L531.933594,102.222656 L530.117188,102.222656 L530.222656,101.34375 L531.957031,101.179688 L532.34375,98.2382812 L533.363281,98.1679688 L533.363281,101.15625 L537.113281,101.15625 L537.113281,102.222656 L533.363281,102.222656 L533.363281,110.847656 C533.363281,111.753911 533.511717,112.361327 533.808594,112.669922 C534.10547,112.978517 534.628902,113.132812 535.378906,113.132812 C535.863284,113.132812 536.46484,113.04297 537.183594,112.863281 L537.242188,113.988281 C536.29687,114.175782 535.566409,114.269531 535.050781,114.269531 Z M542.972656,114.269531 C541.894526,114.269531 541.105471,114.025393 540.605469,113.537109 C540.105466,113.048826 539.855469,112.253912 539.855469,111.152344 L539.855469,102.222656 L538.039062,102.222656 L538.144531,101.34375 L539.878906,101.179688 L540.265625,98.2382812 L541.285156,98.1679688 L541.285156,101.15625 L545.035156,101.15625 L545.035156,102.222656 L541.285156,102.222656 L541.285156,110.847656 C541.285156,111.753911 541.433592,112.361327 541.730469,112.669922 C542.027345,112.978517 542.550777,113.132812 543.300781,113.132812 C543.785159,113.132812 544.386715,113.04297 545.105469,112.863281 L545.164062,113.988281 C544.218745,114.175782 543.488284,114.269531 542.972656,114.269531 Z M552.476562,114.28125 C550.703116,114.28125 549.294927,113.687506 548.251953,112.5 C547.208979,111.312494 546.6875,109.703135 546.6875,107.671875 C546.6875,105.710928 547.197261,104.105475 548.216797,102.855469 C549.236333,101.605463 550.554679,100.960938 552.171875,100.921875 C553.679695,100.921875 554.89062,101.460932 555.804688,102.539062 C556.718755,103.617193 557.175781,105.062491 557.175781,106.875 C557.175781,106.945313 557.173828,107.08789 557.169922,107.302734 C557.166016,107.517579 557.164062,107.667968 557.164062,107.753906 L548.222656,107.753906 C548.238281,109.402352 548.636715,110.70898 549.417969,111.673828 C550.199223,112.638677 551.230462,113.121094 552.511719,113.121094 C553.34766,113.121094 554.074216,113.023438 554.691406,112.828125 C555.308597,112.632812 555.953122,112.355471 556.625,111.996094 L556.871094,113.085938 C555.574212,113.882816 554.109383,114.28125 552.476562,114.28125 Z M548.28125,106.582031 L555.59375,106.582031 C555.59375,105.152337 555.285159,104.056644 554.667969,103.294922 C554.050778,102.533199 553.20313,102.152344 552.125,102.152344 C551.031245,102.152344 550.148441,102.55859 549.476562,103.371094 C548.804684,104.183598 548.406251,105.2539 548.28125,106.582031 Z M560.105469,114 C560.089844,106.4609 560.082031,102.179693 560.082031,101.15625 L561.277344,101.15625 L561.371094,103.6875 C561.832034,102.921871 562.417965,102.296877 563.128906,101.8125 C563.839847,101.328123 564.582027,101.085938 565.355469,101.085938 C565.675783,101.085938 566.019529,101.113281 566.386719,101.167969 L566.28125,102.375 C565.999999,102.328125 565.703127,102.304688 565.390625,102.304688 C564.304682,102.304688 563.392582,102.732418 562.654297,103.587891 C561.916012,104.443364 561.546875,105.457025 561.546875,106.628906 L561.546875,114 L560.105469,114 Z" id="gutter" fill="#7593A4"></path>
            <path d="M126.5,330.5 L197.612587,330.5" id="Line-2" stroke="#7290A2" stroke-linecap="square"></path>
        </g>
    </g>
</svg>