<?xml version="1.0" encoding="UTF-8"?>
<svg width="1214px" height="941px" viewBox="0 0 1214 941" version="1.1" xmlns="http://www.w3.org/2000/svg" xmlns:xlink="http://www.w3.org/1999/xlink">
    <!-- Generator: Sketch 46.2 (44496) - http://www.bohemiancoding.com/sketch -->
    <title>2 panel_example_2 copy</title>
    <desc>Created with Sketch.</desc>
    <defs></defs>
    <g id="Page-1" stroke="none" stroke-width="1" fill="none" fill-rule="evenodd">
        <g id="2-panel_example_2-copy">
            <polygon id="Page-1" points="-1 941 1213 941 1213 0 -1 0"></polygon>
            <g id="Group-2" transform="translate(529.000000, 813.000000)" font-size="24" font-family="Oxygen-Light, Oxygen" fill="#7A98A9" font-weight="300">
                <text id="12-column-grid">
                    <tspan x="0.7334" y="25.8320125">12-</tspan>
                    <tspan x="29.0107438" y="25.8320125" letter-spacing="-0.036">c</tspan>
                    <tspan x="40.2364625" y="25.8320125">olumn grid</tspan>
                </text>
            </g>
            <g id="Group-28" transform="translate(171.000000, 149.000000)" fill="#DCEFF8">
                <g id="Group-3">
                    <polygon id="Fill-4" points="369.545455 612.433363 429.545455 612.433363 429.545455 0.127099936 369.545455 0.127099936"></polygon>
                    <polygon id="Fill-6" points="295.636364 612.433363 355.636364 612.433363 355.636364 0.127099936 295.636364 0.127099936"></polygon>
                    <polygon id="Fill-8" points="443.454545 612.433363 503.454545 612.433363 503.454545 0.127099936 443.454545 0.127099936"></polygon>
                    <polygon id="Fill-10" points="517.363636 612.433363 577.363636 612.433363 577.363636 0.127099936 517.363636 0.127099936"></polygon>
                    <polygon id="Fill-12" points="665.181818 612.433363 725.181818 612.433363 725.181818 0.127099936 665.181818 0.127099936"></polygon>
                    <polygon id="Fill-14" points="591.272727 612.433363 651.272727 612.433363 651.272727 0.127099936 591.272727 0.127099936"></polygon>
                    <polygon id="Fill-16" points="739.090909 612.433363 799.090909 612.433363 799.090909 0.127099936 739.090909 0.127099936"></polygon>
                    <polygon id="Fill-18" points="813 612.306263 873 612.306263 873 0 813 0"></polygon>
                    <polygon id="Fill-20" points="73.9090909 612.433363 133.909091 612.433363 133.909091 0.127099936 73.9090909 0.127099936"></polygon>
                    <polygon id="Fill-22" points="0 612.306263 60 612.306263 60 0 0 0"></polygon>
                    <polygon id="Fill-24" points="147.818182 612.433363 207.818182 612.433363 207.818182 0.127099936 147.818182 0.127099936"></polygon>
                    <polygon id="Fill-26" points="221.727273 612.433363 281.727273 612.433363 281.727273 0.127099936 221.727273 0.127099936"></polygon>
                </g>
            </g>
            <g id="Group-2-Copy" transform="translate(236.000000, 103.000000)" stroke="#52B1DB" stroke-linecap="square">
                <path d="M1.5,0.5 L1.5,46.5" id="Line"></path>
            </g>
            <path d="M210.703125,97.9648438 L210.527344,96.6640625 L213.246094,96.6640625 C213.847659,96.6640625 214.378904,96.6113287 214.839844,96.5058594 C215.300784,96.4003901 215.689452,96.2636727 216.005859,96.0957031 C216.322267,95.9277335 216.591796,95.6933609 216.814453,95.3925781 C217.03711,95.0917954 217.210937,94.7929702 217.335938,94.4960938 C217.460938,94.1992173 217.55664,93.8144555 217.623047,93.3417969 C217.689453,92.8691383 217.730469,92.4355488 217.746094,92.0410156 C217.761719,91.6464824 217.769531,91.1484405 217.769531,90.546875 C217.769531,90.6328129 217.761719,90.6132819 217.746094,90.4882812 L217.6875,89.6796875 C217.19531,90.4218787 216.613285,90.9941386 215.941406,91.3964844 C215.269528,91.7988301 214.449224,92 213.480469,92 C212.71484,92 212.017581,91.8632826 211.388672,91.5898438 C210.759762,91.3164049 210.244143,90.9609397 209.841797,90.5234375 C209.439451,90.0859353 209.101564,89.5859403 208.828125,89.0234375 C208.554686,88.4609347 208.359376,87.9003934 208.242188,87.3417969 C208.124999,86.7832003 208.066406,86.2304715 208.066406,85.6835938 C208.066406,84.9960903 208.123046,84.3418 208.236328,83.7207031 C208.34961,83.0996063 208.546874,82.4921905 208.828125,81.8984375 C209.109376,81.3046845 209.460935,80.7910178 209.882812,80.3574219 C210.30469,79.923826 210.847653,79.5761732 211.511719,79.3144531 C212.175785,79.0527331 212.925777,78.921875 213.761719,78.921875 C214.582035,78.921875 215.306637,79.0839828 215.935547,79.4082031 C216.564456,79.7324235 217.148435,80.2499964 217.6875,80.9609375 L217.828125,79.15625 L219.117188,79.15625 L219.117188,91.0625 C219.117188,91.5781276 219.111328,91.994139 219.099609,92.3105469 C219.087891,92.6269547 219.041016,93.0566379 218.958984,93.5996094 C218.876953,94.1425808 218.763673,94.5878889 218.619141,94.9355469 C218.474609,95.2832049 218.253908,95.6679666 217.957031,96.0898438 C217.660155,96.5117209 217.302736,96.8437488 216.884766,97.0859375 C216.466795,97.3281262 215.931644,97.5351554 215.279297,97.7070312 C214.62695,97.8789071 213.886723,97.9648438 213.058594,97.9648438 L210.703125,97.9648438 Z M213.667969,90.8164062 C214.238284,90.8164062 214.753904,90.7246103 215.214844,90.5410156 C215.675784,90.357421 216.056639,90.1152359 216.357422,89.8144531 C216.658205,89.5136704 216.912108,89.1601583 217.119141,88.7539062 C217.326173,88.3476542 217.472656,87.9277365 217.558594,87.4941406 C217.644532,87.0605447 217.6875,86.6132836 217.6875,86.1523438 L217.6875,84.8164062 C217.6875,84.2070282 217.613282,83.6328152 217.464844,83.09375 C217.316406,82.5546848 217.087892,82.0566429 216.779297,81.5996094 C216.470702,81.1425758 216.046878,80.7812513 215.507812,80.515625 C214.968747,80.2499987 214.343754,80.1171875 213.632812,80.1171875 C213.054685,80.1171875 212.533205,80.2285145 212.068359,80.4511719 C211.603513,80.6738292 211.222658,80.9687482 210.925781,81.3359375 C210.628905,81.7031268 210.378907,82.13281 210.175781,82.625 C209.972655,83.11719 209.830079,83.6191381 209.748047,84.1308594 C209.666015,84.6425807 209.625,85.1679661 209.625,85.7070312 C209.625,86.1835961 209.662109,86.6464821 209.736328,87.0957031 C209.810547,87.5449241 209.943358,87.9999977 210.134766,88.4609375 C210.326173,88.9218773 210.570311,89.3222639 210.867188,89.6621094 C211.164064,90.0019548 211.552732,90.2792958 212.033203,90.4941406 C212.513674,90.7089854 213.058591,90.8164062 213.667969,90.8164062 Z M227.25,92.3164062 C226.578122,92.3164062 225.955081,92.2402351 225.380859,92.0878906 C224.806638,91.9355461 224.27344,91.6972672 223.78125,91.3730469 C223.28906,91.0488265 222.900392,90.5898467 222.615234,89.9960938 C222.330077,89.4023408 222.1875,88.703129 222.1875,87.8984375 L222.1875,79.15625 L223.640625,79.15625 L223.640625,87.9335938 C223.640625,88.5429718 223.734374,89.0585916 223.921875,89.4804688 C224.109376,89.9023459 224.378904,90.2207021 224.730469,90.4355469 C225.082033,90.6503917 225.457029,90.8007808 225.855469,90.8867188 C226.253908,90.9726567 226.718747,91.015625 227.25,91.015625 C227.77344,91.015625 228.234373,90.9707036 228.632812,90.8808594 C229.031252,90.7910152 229.402342,90.6367198 229.746094,90.4179688 C230.089845,90.1992177 230.353515,89.8808615 230.537109,89.4628906 C230.720704,89.0449198 230.8125,88.5351593 230.8125,87.9335938 L230.8125,79.15625 L232.265625,79.15625 L232.265625,87.8984375 C232.265625,88.5546908 232.171876,89.1406224 231.984375,89.65625 C231.796874,90.1718776 231.546877,90.5937484 231.234375,90.921875 C230.921873,91.2500016 230.544924,91.5214833 230.103516,91.7363281 C229.662107,91.9511729 229.208987,92.1015621 228.744141,92.1875 C228.279295,92.2734379 227.781253,92.3164062 227.25,92.3164062 Z M239.050781,92.2695312 C237.972651,92.2695312 237.183596,92.0253931 236.683594,91.5371094 C236.183591,91.0488257 235.933594,90.2539118 235.933594,89.1523438 L235.933594,80.2226562 L234.117188,80.2226562 L234.222656,79.34375 L235.957031,79.1796875 L236.34375,76.2382812 L237.363281,76.1679688 L237.363281,79.15625 L241.113281,79.15625 L241.113281,80.2226562 L237.363281,80.2226562 L237.363281,88.8476562 C237.363281,89.7539108 237.511717,90.3613266 237.808594,90.6699219 C238.10547,90.9785172 238.628903,91.1328125 239.378906,91.1328125 C239.863284,91.1328125 240.46484,91.0429696 241.183594,90.8632812 L241.242188,91.9882812 C240.29687,92.1757822 239.566409,92.2695312 239.050781,92.2695312 Z M246.972656,92.2695312 C245.894526,92.2695312 245.105471,92.0253931 244.605469,91.5371094 C244.105466,91.0488257 243.855469,90.2539118 243.855469,89.1523438 L243.855469,80.2226562 L242.039062,80.2226562 L242.144531,79.34375 L243.878906,79.1796875 L244.265625,76.2382812 L245.285156,76.1679688 L245.285156,79.15625 L249.035156,79.15625 L249.035156,80.2226562 L245.285156,80.2226562 L245.285156,88.8476562 C245.285156,89.7539108 245.433592,90.3613266 245.730469,90.6699219 C246.027345,90.9785172 246.550777,91.1328125 247.300781,91.1328125 C247.785159,91.1328125 248.386715,91.0429696 249.105469,90.8632812 L249.164062,91.9882812 C248.218745,92.1757822 247.488284,92.2695312 246.972656,92.2695312 Z M256.476562,92.28125 C254.703116,92.28125 253.294927,91.6875059 252.251953,90.5 C251.208979,89.3124941 250.6875,87.7031352 250.6875,85.671875 C250.6875,83.7109277 251.197261,82.105475 252.216797,80.8554688 C253.236333,79.6054625 254.554679,78.9609377 256.171875,78.921875 C257.679695,78.921875 258.89062,79.4609321 259.804688,80.5390625 C260.718755,81.6171929 261.175781,83.0624909 261.175781,84.875 C261.175781,84.9453129 261.173828,85.0878896 261.169922,85.3027344 C261.166016,85.5175792 261.164062,85.6679683 261.164062,85.7539062 L252.222656,85.7539062 C252.238281,87.402352 252.636715,88.7089796 253.417969,89.6738281 C254.199223,90.6386767 255.230462,91.1210938 256.511719,91.1210938 C257.34766,91.1210938 258.074216,91.0234385 258.691406,90.828125 C259.308597,90.6328115 259.953122,90.3554705 260.625,89.9960938 L260.871094,91.0859375 C259.574212,91.8828165 258.109383,92.28125 256.476562,92.28125 Z M252.28125,84.5820312 L259.59375,84.5820312 C259.59375,83.1523366 259.285159,82.0566444 258.667969,81.2949219 C258.050778,80.5331993 257.20313,80.1523438 256.125,80.1523438 C255.031245,80.1523438 254.148441,80.5585897 253.476562,81.3710938 C252.804684,82.1835978 252.406251,83.2538996 252.28125,84.5820312 Z M264.105469,92 C264.089844,84.4608998 264.082031,80.1796926 264.082031,79.15625 L265.277344,79.15625 L265.371094,81.6875 C265.832034,80.9218712 266.417965,80.2968774 267.128906,79.8125 C267.839847,79.3281226 268.582027,79.0859375 269.355469,79.0859375 C269.675783,79.0859375 270.019529,79.113281 270.386719,79.1679688 L270.28125,80.375 C269.999999,80.3281248 269.703127,80.3046875 269.390625,80.3046875 C268.304682,80.3046875 267.392582,80.7324176 266.654297,81.5878906 C265.916012,82.4433637 265.546875,83.4570254 265.546875,84.6289062 L265.546875,92 L264.105469,92 Z" id="gutter" fill="#52B1DB"></path>
            <path d="M38.078125,250.28125 C36.8359313,250.28125 35.7578171,249.976566 34.84375,249.367188 C33.9296829,248.757809 33.2500022,247.962896 32.8046875,246.982422 C32.3593728,246.001948 32.1367188,244.910162 32.1367188,243.707031 C32.1367188,242.785152 32.2695299,241.917973 32.5351562,241.105469 C32.8007826,240.292965 33.1777319,239.574222 33.6660156,238.949219 C34.1542993,238.324216 34.7831993,237.83008 35.5527344,237.466797 C36.3222695,237.103514 37.1796828,236.921875 38.125,236.921875 C38.7421906,236.921875 39.3574188,237.003905 39.9707031,237.167969 C40.5839874,237.332032 41.039061,237.527343 41.3359375,237.753906 L40.8789062,238.84375 C40.0742147,238.390623 39.1210993,238.164062 38.0195312,238.164062 C36.6835871,238.164062 35.6250039,238.669917 34.84375,239.681641 C34.0624961,240.693364 33.671875,242.035148 33.671875,243.707031 C33.671875,245.308602 34.060543,246.603511 34.8378906,247.591797 C35.6152383,248.580083 36.6757745,249.074219 38.0195312,249.074219 C38.9570359,249.074219 39.9648384,248.839846 41.0429688,248.371094 L41.265625,249.414062 C40.8984357,249.687501 40.4218779,249.90039 39.8359375,250.052734 C39.2499971,250.205079 38.6640654,250.28125 38.078125,250.28125 Z M49.3046875,249.121094 C50.2421922,249.121094 51.0331999,248.873049 51.6777344,248.376953 C52.3222688,247.880857 52.7910142,247.226567 53.0839844,246.414062 C53.3769546,245.601558 53.5234375,244.667974 53.5234375,243.613281 C53.5234375,241.957023 53.1718785,240.625005 52.46875,239.617188 C51.7656215,238.60937 50.6953197,238.105469 49.2578125,238.105469 C48.3203078,238.105469 47.5214877,238.357419 46.8613281,238.861328 C46.2011686,239.365237 45.7187515,240.025387 45.4140625,240.841797 C45.1093735,241.658207 44.9570312,242.593745 44.9570312,243.648438 C44.9570312,245.250008 45.3300744,246.562495 46.0761719,247.585938 C46.8222694,248.60938 47.8984305,249.121094 49.3046875,249.121094 Z M49.1992188,250.28125 C48.0351504,250.28125 47.0097701,249.988284 46.1230469,249.402344 C45.2363237,248.816403 44.5605492,248.021489 44.0957031,247.017578 C43.6308571,246.013667 43.3984375,244.878913 43.3984375,243.613281 C43.3984375,242.660151 43.5332018,241.775395 43.8027344,240.958984 C44.072267,240.142574 44.4570287,239.43555 44.9570312,238.837891 C45.4570338,238.240231 46.0781213,237.771486 46.8203125,237.431641 C47.5625037,237.091795 48.3867142,236.921875 49.2929688,236.921875 C50.4960998,236.921875 51.5390581,237.216794 52.421875,237.806641 C53.3046919,238.396487 53.9667947,239.189448 54.4082031,240.185547 C54.8496116,241.181646 55.0703125,242.3164 55.0703125,243.589844 C55.0703125,244.8711 54.8437523,246.011714 54.390625,247.011719 C53.9374977,248.011724 53.2617232,248.806638 52.3632812,249.396484 C51.4648393,249.986331 50.4101623,250.28125 49.1992188,250.28125 Z M61.1640625,250.269531 C60.0859321,250.269531 59.2968775,250.025393 58.796875,249.537109 C58.2968725,249.048826 58.046875,248.253912 58.046875,247.152344 L58.046875,232.164062 L59.4765625,232.046875 L59.4765625,247.070312 C59.4765625,247.851566 59.6191392,248.390624 59.9042969,248.6875 C60.1894546,248.984376 60.6210909,249.132812 61.1992188,249.132812 C61.6679711,249.132812 62.2539027,249.04297 62.9570312,248.863281 L63.015625,249.988281 C62.2499962,250.175782 61.6328148,250.269531 61.1640625,250.269531 Z M69.5195312,250.316406 C68.8476529,250.316406 68.2246122,250.240235 67.6503906,250.087891 C67.076169,249.935546 66.5429712,249.697267 66.0507812,249.373047 C65.5585913,249.048827 65.1699233,248.589847 64.8847656,247.996094 C64.5996079,247.402341 64.4570312,246.703129 64.4570312,245.898438 L64.4570312,237.15625 L65.9101562,237.15625 L65.9101562,245.933594 C65.9101562,246.542972 66.0039053,247.058592 66.1914062,247.480469 C66.3789072,247.902346 66.6484357,248.220702 67,248.435547 C67.3515643,248.650392 67.7265605,248.800781 68.125,248.886719 C68.5234395,248.972657 68.9882786,249.015625 69.5195312,249.015625 C70.0429714,249.015625 70.5039043,248.970704 70.9023438,248.880859 C71.3007832,248.791015 71.6718733,248.63672 72.015625,248.417969 C72.3593767,248.199218 72.623046,247.880861 72.8066406,247.462891 C72.9902353,247.04492 73.0820312,246.535159 73.0820312,245.933594 L73.0820312,237.15625 L74.5351562,237.15625 L74.5351562,245.898438 C74.5351562,246.554691 74.4414072,247.140622 74.2539062,247.65625 C74.0664053,248.171878 73.8164078,248.593748 73.5039062,248.921875 C73.1914047,249.250002 72.8144553,249.521483 72.3730469,249.736328 C71.9316384,249.951173 71.4785179,250.101562 71.0136719,250.1875 C70.5488258,250.273438 70.0507839,250.316406 69.5195312,250.316406 Z M77.734375,250 C77.7109374,242.234336 77.6992188,237.953129 77.6992188,237.15625 L78.9648438,237.15625 L79.1523438,239.125 C79.5273456,238.484372 80.0878869,237.957033 80.8339844,237.542969 C81.5800819,237.128904 82.3710896,236.921875 83.2070312,236.921875 C85.261729,236.921875 86.5507786,237.730461 87.0742188,239.347656 C87.9882858,237.730461 89.4296777,236.921875 91.3984375,236.921875 C92.8046945,236.921875 93.8378873,237.322262 94.4980469,238.123047 C95.1582064,238.923832 95.4882812,240.11718 95.4882812,241.703125 L95.4882812,250 L94.0351562,250 L94.0351562,243.71875 C94.0351562,243.124997 94.0273438,242.628908 94.0117188,242.230469 C93.9960937,241.832029 93.9589847,241.39844 93.9003906,240.929688 C93.8417966,240.460935 93.7519537,240.078126 93.6308594,239.78125 C93.509765,239.484374 93.3515635,239.203126 93.15625,238.9375 C92.9609365,238.671874 92.710939,238.476563 92.40625,238.351562 C92.101561,238.226562 91.7421896,238.164062 91.328125,238.164062 C90.3437451,238.164062 89.509769,238.455075 88.8261719,239.037109 C88.1425747,239.619144 87.6679701,240.437495 87.4023438,241.492188 C87.4179688,242.289066 87.4374999,242.906248 87.4609375,243.34375 L87.4609375,250 L86.0195312,250 L86.0195312,243.460938 C86.0195312,242.796872 86.0000002,242.220706 85.9609375,241.732422 C85.9218748,241.244138 85.8437506,240.765627 85.7265625,240.296875 C85.6093744,239.828123 85.4511729,239.445314 85.2519531,239.148438 C85.0527334,238.851561 84.787111,238.613282 84.4550781,238.433594 C84.1230452,238.253905 83.7265648,238.164062 83.265625,238.164062 C82.2031197,238.164062 81.3144567,238.447263 80.5996094,239.013672 C79.8847621,239.580081 79.4218761,240.351558 79.2109375,241.328125 C79.1953124,241.648439 79.1875,242.105466 79.1875,242.699219 L79.1875,250 L77.734375,250 Z M98.8515625,250 L98.8515625,237.15625 L100.117188,237.15625 L100.316406,239.136719 C100.777346,238.449215 101.39648,237.908205 102.173828,237.513672 C102.951176,237.119139 103.789058,236.921875 104.6875,236.921875 C106.16407,236.921875 107.249997,237.328121 107.945312,238.140625 C108.640628,238.953129 108.988281,240.249991 108.988281,242.03125 L108.988281,250 L107.523438,250 L107.523438,241.375 C107.484375,240.234369 107.24219,239.414065 106.796875,238.914062 C106.35156,238.41406 105.621099,238.164062 104.605469,238.164062 C103.4414,238.164062 102.490238,238.457028 101.751953,239.042969 C101.013668,239.628909 100.550782,240.386714 100.363281,241.316406 C100.332031,241.683596 100.316406,242.066404 100.316406,242.464844 L100.316406,250 L98.8515625,250 Z" id="column" fill="#52B1DB"></path>
            <path d="M50.7578125,404 C50.7343749,396.234336 50.7226562,391.953129 50.7226562,391.15625 L51.9882812,391.15625 L52.1757812,393.125 C52.5507831,392.484372 53.1113244,391.957033 53.8574219,391.542969 C54.6035194,391.128904 55.3945271,390.921875 56.2304688,390.921875 C58.2851665,390.921875 59.5742161,391.730461 60.0976562,393.347656 C61.0117233,391.730461 62.4531152,390.921875 64.421875,390.921875 C65.828132,390.921875 66.8613248,391.322262 67.5214844,392.123047 C68.1816439,392.923832 68.5117188,394.11718 68.5117188,395.703125 L68.5117188,404 L67.0585938,404 L67.0585938,397.71875 C67.0585938,397.124997 67.0507813,396.628908 67.0351562,396.230469 C67.0195312,395.832029 66.9824222,395.39844 66.9238281,394.929688 C66.8652341,394.460935 66.7753912,394.078126 66.6542969,393.78125 C66.5332025,393.484374 66.375001,393.203126 66.1796875,392.9375 C65.984374,392.671874 65.7343765,392.476563 65.4296875,392.351562 C65.1249985,392.226562 64.7656271,392.164062 64.3515625,392.164062 C63.3671826,392.164062 62.5332065,392.455075 61.8496094,393.037109 C61.1660122,393.619144 60.6914076,394.437495 60.4257812,395.492188 C60.4414063,396.289066 60.4609374,396.906248 60.484375,397.34375 L60.484375,404 L59.0429688,404 L59.0429688,397.460938 C59.0429688,396.796872 59.0234377,396.220706 58.984375,395.732422 C58.9453123,395.244138 58.8671881,394.765627 58.75,394.296875 C58.6328119,393.828123 58.4746104,393.445314 58.2753906,393.148438 C58.0761709,392.851561 57.8105485,392.613282 57.4785156,392.433594 C57.1464827,392.253905 56.7500023,392.164062 56.2890625,392.164062 C55.2265572,392.164062 54.3378942,392.447263 53.6230469,393.013672 C52.9081996,393.580081 52.4453136,394.351558 52.234375,395.328125 C52.2187499,395.648439 52.2109375,396.105466 52.2109375,396.699219 L52.2109375,404 L50.7578125,404 Z M75.3085938,404.28125 C74.0976502,404.28125 73.1289099,403.976566 72.4023438,403.367188 C71.6757776,402.757809 71.3125,401.886724 71.3125,400.753906 C71.3125,400.082028 71.4570298,399.498049 71.7460938,399.001953 C72.0351577,398.505857 72.4550754,398.103517 73.0058594,397.794922 C73.5566434,397.486327 74.1855433,397.246095 74.8925781,397.074219 C75.5996129,396.902343 76.4218703,396.78125 77.359375,396.710938 C78.35938,396.648437 79.1015601,396.597656 79.5859375,396.558594 L79.5859375,395.128906 C79.5859375,394.144526 79.3613304,393.404299 78.9121094,392.908203 C78.4628884,392.412107 77.7421925,392.164062 76.75,392.164062 C75.3906182,392.164062 74.1210996,392.488278 72.9414062,393.136719 C72.9101561,393.058593 72.8378912,392.888673 72.7246094,392.626953 C72.6113276,392.365233 72.5312502,392.164063 72.484375,392.023438 C72.9687524,391.710936 73.6015586,391.44922 74.3828125,391.238281 C75.1640664,391.027343 75.9296837,390.921875 76.6796875,390.921875 C78.2187577,390.921875 79.3242154,391.25195 79.9960938,391.912109 C80.6679721,392.572269 81.0039062,393.742179 81.0039062,395.421875 L81.0039062,404 L79.8671875,404 C79.8281248,403.820312 79.7714847,403.464846 79.6972656,402.933594 C79.6230465,402.402341 79.5859375,402.128906 79.5859375,402.113281 C78.57812,403.558601 77.152353,404.28125 75.3085938,404.28125 Z M75.3554688,403.121094 C76.3554738,403.121094 77.2441367,402.826175 78.0214844,402.236328 C78.798832,401.646481 79.3085925,400.82813 79.5507812,399.78125 L79.5507812,397.589844 C78.4257756,397.683594 77.859375,397.730469 77.8515625,397.730469 C75.945303,397.902345 74.6210975,398.214841 73.8789062,398.667969 C73.136715,399.121096 72.765625,399.824214 72.765625,400.777344 C72.765625,401.558598 73.0019508,402.144529 73.4746094,402.535156 C73.947268,402.925783 74.5742148,403.121094 75.3554688,403.121094 Z M84.5195312,404 C84.5039062,396.4609 84.4960938,392.179693 84.4960938,391.15625 L85.6914062,391.15625 L85.7851562,393.6875 C86.2460961,392.921871 86.8320277,392.296877 87.5429688,391.8125 C88.2539098,391.328123 88.9960899,391.085938 89.7695312,391.085938 C90.0898454,391.085938 90.4335919,391.113281 90.8007812,391.167969 L90.6953125,392.375 C90.4140611,392.328125 90.1171891,392.304688 89.8046875,392.304688 C88.7187446,392.304688 87.8066443,392.732418 87.0683594,393.587891 C86.3300744,394.443364 85.9609375,395.457025 85.9609375,396.628906 L85.9609375,404 L84.5195312,404 Z M94.6914062,409.964844 L94.515625,408.664062 L97.234375,408.664062 C97.8359405,408.664062 98.3671852,408.611329 98.828125,408.505859 C99.2890648,408.40039 99.6777328,408.263673 99.9941406,408.095703 C100.310548,407.927734 100.580077,407.693361 100.802734,407.392578 C101.025392,407.091795 101.199218,406.79297 101.324219,406.496094 C101.449219,406.199217 101.544922,405.814455 101.611328,405.341797 C101.677735,404.869138 101.71875,404.435549 101.734375,404.041016 C101.75,403.646482 101.757812,403.148441 101.757812,402.546875 C101.757812,402.632813 101.75,402.613282 101.734375,402.488281 L101.675781,401.679688 C101.183591,402.421879 100.601566,402.994139 99.9296875,403.396484 C99.2578091,403.79883 98.4375048,404 97.46875,404 C96.7031212,404 96.0058625,403.863283 95.3769531,403.589844 C94.7480437,403.316405 94.2324239,402.96094 93.8300781,402.523438 C93.4277324,402.085935 93.0898451,401.58594 92.8164062,401.023438 C92.5429674,400.460935 92.3476568,399.900393 92.2304688,399.341797 C92.1132807,398.7832 92.0546875,398.230471 92.0546875,397.683594 C92.0546875,396.99609 92.1113276,396.3418 92.2246094,395.720703 C92.3378912,395.099606 92.5351548,394.49219 92.8164062,393.898438 C93.0976577,393.304685 93.4492166,392.791018 93.8710938,392.357422 C94.2929709,391.923826 94.8359342,391.576173 95.5,391.314453 C96.1640658,391.052733 96.9140583,390.921875 97.75,390.921875 C98.5703166,390.921875 99.2949187,391.083983 99.9238281,391.408203 C100.552738,391.732423 101.136716,392.249996 101.675781,392.960938 L101.816406,391.15625 L103.105469,391.15625 L103.105469,403.0625 C103.105469,403.578128 103.099609,403.994139 103.087891,404.310547 C103.076172,404.626955 103.029297,405.056638 102.947266,405.599609 C102.865234,406.142581 102.751954,406.587889 102.607422,406.935547 C102.46289,407.283205 102.242189,407.667967 101.945312,408.089844 C101.648436,408.511721 101.291018,408.843749 100.873047,409.085938 C100.455076,409.328126 99.9199251,409.535155 99.2675781,409.707031 C98.6152311,409.878907 97.8750041,409.964844 97.046875,409.964844 L94.6914062,409.964844 Z M97.65625,402.816406 C98.2265654,402.816406 98.7421852,402.72461 99.203125,402.541016 C99.6640648,402.357421 100.04492,402.115236 100.345703,401.814453 C100.646486,401.51367 100.90039,401.160158 101.107422,400.753906 C101.314454,400.347654 101.460937,399.927737 101.546875,399.494141 C101.632813,399.060545 101.675781,398.613284 101.675781,398.152344 L101.675781,396.816406 C101.675781,396.207028 101.601563,395.632815 101.453125,395.09375 C101.304687,394.554685 101.076173,394.056643 100.767578,393.599609 C100.458983,393.142576 100.035159,392.781251 99.4960938,392.515625 C98.9570286,392.249999 98.3320348,392.117188 97.6210938,392.117188 C97.0429659,392.117188 96.5214867,392.228515 96.0566406,392.451172 C95.5917946,392.673829 95.210939,392.968748 94.9140625,393.335938 C94.617186,393.703127 94.3671885,394.13281 94.1640625,394.625 C93.9609365,395.11719 93.8183598,395.619138 93.7363281,396.130859 C93.6542965,396.642581 93.6132812,397.167966 93.6132812,397.707031 C93.6132812,398.183596 93.6503903,398.646482 93.7246094,399.095703 C93.7988285,399.544924 93.9316397,399.999998 94.1230469,400.460938 C94.3144541,400.921877 94.5585923,401.322264 94.8554688,401.662109 C95.1523452,402.001955 95.5410132,402.279296 96.0214844,402.494141 C96.5019555,402.708985 97.046872,402.816406 97.65625,402.816406 Z M106.609375,404 L106.609375,391.15625 L108.074219,391.15625 L108.074219,404 L106.609375,404 Z M106.609375,388.53125 L106.609375,386.5625 L108.0625,386.5625 L108.0625,388.53125 L106.609375,388.53125 Z M111.671875,404 L111.671875,391.15625 L112.9375,391.15625 L113.136719,393.136719 C113.597659,392.449215 114.216793,391.908205 114.994141,391.513672 C115.771488,391.119139 116.609371,390.921875 117.507812,390.921875 C118.984382,390.921875 120.070309,391.328121 120.765625,392.140625 C121.460941,392.953129 121.808594,394.249991 121.808594,396.03125 L121.808594,404 L120.34375,404 L120.34375,395.375 C120.304687,394.234369 120.062502,393.414065 119.617188,392.914062 C119.171873,392.41406 118.441411,392.164062 117.425781,392.164062 C116.261713,392.164062 115.310551,392.457028 114.572266,393.042969 C113.833981,393.628909 113.371095,394.386714 113.183594,395.316406 C113.152344,395.683596 113.136719,396.066404 113.136719,396.464844 L113.136719,404 L111.671875,404 Z" id="margin" fill="#52B1DB"></path>
            <polygon id="Line-2" fill="#52B1DB" fill-rule="nonzero" points="121 244 193.112587 244 193.112587 243 121 243"></polygon>
            <g id="Group" transform="translate(0.000000, 346.000000)" stroke="#52B1DB" stroke-linecap="square">
                <path d="M1.45923913,17.5 L169.540761,17.5" id="Line-3"></path>
            </g>
            <path d="M1092.75781,436 C1092.73437,428.234336 1092.72266,423.953129 1092.72266,423.15625 L1093.98828,423.15625 L1094.17578,425.125 C1094.55078,424.484372 1095.11132,423.957033 1095.85742,423.542969 C1096.60352,423.128904 1097.39453,422.921875 1098.23047,422.921875 C1100.28517,422.921875 1101.57422,423.730461 1102.09766,425.347656 C1103.01172,423.730461 1104.45312,422.921875 1106.42188,422.921875 C1107.82813,422.921875 1108.86132,423.322262 1109.52148,424.123047 C1110.18164,424.923832 1110.51172,426.11718 1110.51172,427.703125 L1110.51172,436 L1109.05859,436 L1109.05859,429.71875 C1109.05859,429.124997 1109.05078,428.628908 1109.03516,428.230469 C1109.01953,427.832029 1108.98242,427.39844 1108.92383,426.929688 C1108.86523,426.460935 1108.77539,426.078126 1108.6543,425.78125 C1108.5332,425.484374 1108.375,425.203126 1108.17969,424.9375 C1107.98437,424.671874 1107.73438,424.476563 1107.42969,424.351562 C1107.125,424.226562 1106.76563,424.164062 1106.35156,424.164062 C1105.36718,424.164062 1104.53321,424.455075 1103.84961,425.037109 C1103.16601,425.619144 1102.69141,426.437495 1102.42578,427.492188 C1102.44141,428.289066 1102.46094,428.906248 1102.48438,429.34375 L1102.48438,436 L1101.04297,436 L1101.04297,429.460938 C1101.04297,428.796872 1101.02344,428.220706 1100.98438,427.732422 C1100.94531,427.244138 1100.86719,426.765627 1100.75,426.296875 C1100.63281,425.828123 1100.47461,425.445314 1100.27539,425.148438 C1100.07617,424.851561 1099.81055,424.613282 1099.47852,424.433594 C1099.14648,424.253905 1098.75,424.164062 1098.28906,424.164062 C1097.22656,424.164062 1096.33789,424.447263 1095.62305,425.013672 C1094.9082,425.580081 1094.44531,426.351558 1094.23438,427.328125 C1094.21875,427.648439 1094.21094,428.105466 1094.21094,428.699219 L1094.21094,436 L1092.75781,436 Z M1117.30859,436.28125 C1116.09765,436.28125 1115.12891,435.976566 1114.40234,435.367188 C1113.67578,434.757809 1113.3125,433.886724 1113.3125,432.753906 C1113.3125,432.082028 1113.45703,431.498049 1113.74609,431.001953 C1114.03516,430.505857 1114.45508,430.103517 1115.00586,429.794922 C1115.55664,429.486327 1116.18554,429.246095 1116.89258,429.074219 C1117.59961,428.902343 1118.42187,428.78125 1119.35938,428.710938 C1120.35938,428.648437 1121.10156,428.597656 1121.58594,428.558594 L1121.58594,427.128906 C1121.58594,426.144526 1121.36133,425.404299 1120.91211,424.908203 C1120.46289,424.412107 1119.74219,424.164062 1118.75,424.164062 C1117.39062,424.164062 1116.1211,424.488278 1114.94141,425.136719 C1114.91016,425.058593 1114.83789,424.888673 1114.72461,424.626953 C1114.61133,424.365233 1114.53125,424.164063 1114.48438,424.023438 C1114.96875,423.710936 1115.60156,423.44922 1116.38281,423.238281 C1117.16407,423.027343 1117.92968,422.921875 1118.67969,422.921875 C1120.21876,422.921875 1121.32422,423.25195 1121.99609,423.912109 C1122.66797,424.572269 1123.00391,425.742179 1123.00391,427.421875 L1123.00391,436 L1121.86719,436 C1121.82812,435.820312 1121.77148,435.464846 1121.69727,434.933594 C1121.62305,434.402341 1121.58594,434.128906 1121.58594,434.113281 C1120.57812,435.558601 1119.15235,436.28125 1117.30859,436.28125 Z M1117.35547,435.121094 C1118.35547,435.121094 1119.24414,434.826175 1120.02148,434.236328 C1120.79883,433.646481 1121.30859,432.82813 1121.55078,431.78125 L1121.55078,429.589844 C1120.42578,429.683594 1119.85938,429.730469 1119.85156,429.730469 C1117.9453,429.902345 1116.6211,430.214841 1115.87891,430.667969 C1115.13672,431.121096 1114.76562,431.824214 1114.76562,432.777344 C1114.76562,433.558598 1115.00195,434.144529 1115.47461,434.535156 C1115.94727,434.925783 1116.57421,435.121094 1117.35547,435.121094 Z M1126.51953,436 C1126.50391,428.4609 1126.49609,424.179693 1126.49609,423.15625 L1127.69141,423.15625 L1127.78516,425.6875 C1128.2461,424.921871 1128.83203,424.296877 1129.54297,423.8125 C1130.25391,423.328123 1130.99609,423.085938 1131.76953,423.085938 C1132.08985,423.085938 1132.43359,423.113281 1132.80078,423.167969 L1132.69531,424.375 C1132.41406,424.328125 1132.11719,424.304688 1131.80469,424.304688 C1130.71874,424.304688 1129.80664,424.732418 1129.06836,425.587891 C1128.33007,426.443364 1127.96094,427.457025 1127.96094,428.628906 L1127.96094,436 L1126.51953,436 Z M1136.69141,441.964844 L1136.51562,440.664062 L1139.23438,440.664062 C1139.83594,440.664062 1140.36719,440.611329 1140.82812,440.505859 C1141.28906,440.40039 1141.67773,440.263673 1141.99414,440.095703 C1142.31055,439.927734 1142.58008,439.693361 1142.80273,439.392578 C1143.02539,439.091795 1143.19922,438.79297 1143.32422,438.496094 C1143.44922,438.199217 1143.54492,437.814455 1143.61133,437.341797 C1143.67773,436.869138 1143.71875,436.435549 1143.73438,436.041016 C1143.75,435.646482 1143.75781,435.148441 1143.75781,434.546875 C1143.75781,434.632813 1143.75,434.613282 1143.73438,434.488281 L1143.67578,433.679688 C1143.18359,434.421879 1142.60157,434.994139 1141.92969,435.396484 C1141.25781,435.79883 1140.4375,436 1139.46875,436 C1138.70312,436 1138.00586,435.863283 1137.37695,435.589844 C1136.74804,435.316405 1136.23242,434.96094 1135.83008,434.523438 C1135.42773,434.085935 1135.08985,433.58594 1134.81641,433.023438 C1134.54297,432.460935 1134.34766,431.900393 1134.23047,431.341797 C1134.11328,430.7832 1134.05469,430.230471 1134.05469,429.683594 C1134.05469,428.99609 1134.11133,428.3418 1134.22461,427.720703 C1134.33789,427.099606 1134.53515,426.49219 1134.81641,425.898438 C1135.09766,425.304685 1135.44922,424.791018 1135.87109,424.357422 C1136.29297,423.923826 1136.83593,423.576173 1137.5,423.314453 C1138.16407,423.052733 1138.91406,422.921875 1139.75,422.921875 C1140.57032,422.921875 1141.29492,423.083983 1141.92383,423.408203 C1142.55274,423.732423 1143.13672,424.249996 1143.67578,424.960938 L1143.81641,423.15625 L1145.10547,423.15625 L1145.10547,435.0625 C1145.10547,435.578128 1145.09961,435.994139 1145.08789,436.310547 C1145.07617,436.626955 1145.0293,437.056638 1144.94727,437.599609 C1144.86523,438.142581 1144.75195,438.587889 1144.60742,438.935547 C1144.46289,439.283205 1144.24219,439.667967 1143.94531,440.089844 C1143.64844,440.511721 1143.29102,440.843749 1142.87305,441.085938 C1142.45508,441.328126 1141.91993,441.535155 1141.26758,441.707031 C1140.61523,441.878907 1139.875,441.964844 1139.04688,441.964844 L1136.69141,441.964844 Z M1139.65625,434.816406 C1140.22657,434.816406 1140.74219,434.72461 1141.20312,434.541016 C1141.66406,434.357421 1142.04492,434.115236 1142.3457,433.814453 C1142.64649,433.51367 1142.90039,433.160158 1143.10742,432.753906 C1143.31445,432.347654 1143.46094,431.927737 1143.54688,431.494141 C1143.63281,431.060545 1143.67578,430.613284 1143.67578,430.152344 L1143.67578,428.816406 C1143.67578,428.207028 1143.60156,427.632815 1143.45312,427.09375 C1143.30469,426.554685 1143.07617,426.056643 1142.76758,425.599609 C1142.45898,425.142576 1142.03516,424.781251 1141.49609,424.515625 C1140.95703,424.249999 1140.33203,424.117188 1139.62109,424.117188 C1139.04297,424.117188 1138.52149,424.228515 1138.05664,424.451172 C1137.59179,424.673829 1137.21094,424.968748 1136.91406,425.335938 C1136.61719,425.703127 1136.36719,426.13281 1136.16406,426.625 C1135.96094,427.11719 1135.81836,427.619138 1135.73633,428.130859 C1135.6543,428.642581 1135.61328,429.167966 1135.61328,429.707031 C1135.61328,430.183596 1135.65039,430.646482 1135.72461,431.095703 C1135.79883,431.544924 1135.93164,431.999998 1136.12305,432.460938 C1136.31445,432.921877 1136.55859,433.322264 1136.85547,433.662109 C1137.15235,434.001955 1137.54101,434.279296 1138.02148,434.494141 C1138.50196,434.708985 1139.04687,434.816406 1139.65625,434.816406 Z M1148.60938,436 L1148.60938,423.15625 L1150.07422,423.15625 L1150.07422,436 L1148.60938,436 Z M1148.60938,420.53125 L1148.60938,418.5625 L1150.0625,418.5625 L1150.0625,420.53125 L1148.60938,420.53125 Z M1153.67188,436 L1153.67188,423.15625 L1154.9375,423.15625 L1155.13672,425.136719 C1155.59766,424.449215 1156.21679,423.908205 1156.99414,423.513672 C1157.77149,423.119139 1158.60937,422.921875 1159.50781,422.921875 C1160.98438,422.921875 1162.07031,423.328121 1162.76562,424.140625 C1163.46094,424.953129 1163.80859,426.249991 1163.80859,428.03125 L1163.80859,436 L1162.34375,436 L1162.34375,427.375 C1162.30469,426.234369 1162.0625,425.414065 1161.61719,424.914062 C1161.17187,424.41406 1160.44141,424.164062 1159.42578,424.164062 C1158.26171,424.164062 1157.31055,424.457028 1156.57227,425.042969 C1155.83398,425.628909 1155.37109,426.386714 1155.18359,427.316406 C1155.15234,427.683596 1155.13672,428.066404 1155.13672,428.464844 L1155.13672,436 L1153.67188,436 Z" id="margin" fill="#52B1DB"></path>
            <g id="Group" transform="translate(1043.000000, 378.000000)" stroke="#52B1DB" stroke-linecap="square">
                <path d="M1.54281633,17.5 L167.36744,17.5" id="Line-3"></path>
            </g>
        </g>
    </g>
</svg>