<?xml version="1.0" encoding="UTF-8"?>
<svg width="1214px" height="800px" viewBox="0 0 1214 800" version="1.1" xmlns="http://www.w3.org/2000/svg" xmlns:xlink="http://www.w3.org/1999/xlink">
    <!-- Generator: Sketch 48.2 (47327) - http://www.bohemiancoding.com/sketch -->
    <title>Default colors</title>
    <desc>Created with Sketch.</desc>
    <defs></defs>
    <g id="Brand-color-wheel" stroke="none" stroke-width="1" fill="none" fill-rule="evenodd">
        <g id="Default-colors">
            <path d="M503.146484,89.2236328 L507.994141,89.2236328 C511.425147,89.2236328 514.039867,88.3465257 515.838379,86.5922852 C517.636891,84.8380446 518.536133,82.2233247 518.536133,78.7480469 C518.536133,76.8443915 518.284345,75.2008533 517.780762,73.8173828 C517.277178,72.4339124 516.538416,71.3243857 515.564453,70.4887695 C514.59049,69.6531534 513.43946,69.0389017 512.111328,68.6459961 C510.783196,68.2530905 509.250334,68.0566406 507.512695,68.0566406 L503.146484,68.0566406 L503.146484,89.2236328 Z M501.021484,91 L501.021484,66.296875 L507.711914,66.296875 C509.726247,66.296875 511.527499,66.5348283 513.115723,67.0107422 C514.703947,67.486656 516.08463,68.2143506 517.257812,69.1938477 C518.430995,70.1733447 519.333005,71.4627199 519.963867,73.0620117 C520.59473,74.6613036 520.910156,76.5289607 520.910156,78.6650391 C520.910156,82.7047728 519.797863,85.7704974 517.573242,87.8623047 C515.348622,89.954112 512.233093,91 508.226562,91 L501.021484,91 Z M532.680664,91.3984375 C530.168282,91.3984375 528.173347,90.5573001 526.695801,88.875 C525.218254,87.1926999 524.479492,84.9127748 524.479492,82.0351562 C524.479492,79.2571476 525.201653,76.9827562 526.645996,75.2119141 C528.090339,73.4410719 529.957996,72.5279951 532.249023,72.4726562 C534.385102,72.4726562 536.100579,73.2363205 537.395508,74.7636719 C538.690436,76.2910233 539.337891,78.3385288 539.337891,80.90625 C539.337891,81.0058599 539.335124,81.2078435 539.32959,81.512207 C539.324056,81.8165705 539.321289,82.0296218 539.321289,82.1513672 L526.654297,82.1513672 C526.676432,84.4866653 527.24088,86.337721 528.347656,87.7045898 C529.454433,89.0714587 530.915356,89.7548828 532.730469,89.7548828 C533.914719,89.7548828 534.944006,89.6165378 535.818359,89.3398438 C536.692713,89.0631497 537.60579,88.6702499 538.557617,88.1611328 L538.90625,89.7050781 C537.069001,90.83399 534.993827,91.3984375 532.680664,91.3984375 Z M526.737305,80.4912109 L537.09668,80.4912109 C537.09668,78.4658102 536.65951,76.9135796 535.785156,75.8344727 C534.910803,74.7553657 533.709969,74.2158203 532.182617,74.2158203 C530.63313,74.2158203 529.382492,74.7913354 528.430664,75.9423828 C527.478836,77.0934302 526.914389,78.6096911 526.737305,80.4912109 Z M544.600586,91 L544.600586,74.3154297 L541.612305,74.3154297 L541.745117,73.0371094 L544.600586,72.8046875 L544.600586,72.1240234 C544.600586,69.7333865 545.018388,67.9957737 545.854004,66.9111328 C546.68962,65.826492 547.970694,65.2841797 549.697266,65.2841797 C550.195315,65.2841797 551.041986,65.3671867 552.237305,65.5332031 L552.087891,66.8945312 C551.025385,66.7727858 550.305991,66.7119141 549.929688,66.7119141 C548.667962,66.7119141 547.807457,67.1186483 547.348145,67.9321289 C546.888832,68.7456095 546.65918,70.1760965 546.65918,72.2236328 L546.65918,72.8046875 L551.091797,72.8046875 L551.091797,74.3154297 L546.65918,74.3154297 L546.65918,91 L544.600586,91 Z M558.911133,91.3984375 C557.195629,91.3984375 555.823247,90.9668012 554.793945,90.1035156 C553.764643,89.2402301 553.25,88.0061929 553.25,86.4013672 C553.25,85.4495395 553.454751,84.6222366 553.864258,83.9194336 C554.273765,83.2166306 554.868648,82.6466493 555.648926,82.2094727 C556.429203,81.772296 557.320145,81.4319674 558.321777,81.1884766 C559.32341,80.9449858 560.488275,80.773438 561.816406,80.6738281 C563.23308,80.585286 564.284502,80.5133466 564.970703,80.4580078 L564.970703,78.4326172 C564.970703,77.038079 564.65251,75.9894241 564.016113,75.2866211 C563.379717,74.5838181 562.358731,74.2324219 560.953125,74.2324219 C559.027334,74.2324219 557.22885,74.6917272 555.557617,75.6103516 C555.513346,75.4996739 555.410971,75.2589537 555.250488,74.8881836 C555.090006,74.5174135 554.976563,74.2324229 554.910156,74.0332031 C555.596358,73.5904926 556.492833,73.2197281 557.599609,72.9208984 C558.706386,72.6220688 559.79101,72.4726562 560.853516,72.4726562 C563.033865,72.4726562 564.59993,72.9402623 565.551758,73.8754883 C566.503585,74.8107143 566.979492,76.4680871 566.979492,78.8476562 L566.979492,91 L565.369141,91 C565.313802,90.7454414 565.233562,90.2418657 565.128418,89.4892578 C565.023274,88.7366499 564.970703,88.349284 564.970703,88.3271484 C563.542962,90.3746847 561.523125,91.3984375 558.911133,91.3984375 Z M558.977539,89.7548828 C560.394213,89.7548828 561.653152,89.337081 562.754395,88.5014648 C563.855637,87.6658487 564.577798,86.5065178 564.920898,85.0234375 L564.920898,81.9189453 C563.32714,82.0517585 562.52474,82.1181641 562.513672,82.1181641 C559.813138,82.3616549 557.93718,82.8043588 556.885742,83.4462891 C555.834305,84.0882194 555.308594,85.0843031 555.308594,86.4345703 C555.308594,87.5413467 555.643389,88.3714165 556.312988,88.9248047 C556.982588,89.4781929 557.870763,89.7548828 558.977539,89.7548828 Z M578.700195,91.4482422 C577.748368,91.4482422 576.865727,91.3403331 576.052246,91.1245117 C575.238765,90.9086903 574.483402,90.5711286 573.786133,90.1118164 C573.088864,89.6525042 572.538251,89.0022829 572.134277,88.1611328 C571.730304,87.3199828 571.52832,86.3294328 571.52832,85.1894531 L571.52832,72.8046875 L573.586914,72.8046875 L573.586914,85.2392578 C573.586914,86.1025434 573.719725,86.8330048 573.985352,87.4306641 C574.250978,88.0283233 574.63281,88.4793279 575.130859,88.7836914 C575.628909,89.0880549 576.160153,89.3011062 576.724609,89.4228516 C577.289065,89.544597 577.947587,89.6054688 578.700195,89.6054688 C579.441735,89.6054688 580.094724,89.5418301 580.65918,89.4145508 C581.223636,89.2872715 581.749347,89.0686864 582.236328,88.7587891 C582.72331,88.4488917 583.096841,87.9978871 583.356934,87.4057617 C583.617026,86.8136364 583.74707,86.0914756 583.74707,85.2392578 L583.74707,72.8046875 L585.805664,72.8046875 L585.805664,85.1894531 C585.805664,86.1191453 585.672853,86.9492151 585.407227,87.6796875 C585.1416,88.4101599 584.787437,89.0078102 584.344727,89.4726562 C583.902016,89.9375023 583.368004,90.3221013 582.742676,90.6264648 C582.117347,90.9308283 581.475426,91.1438796 580.816895,91.265625 C580.158363,91.3873704 579.452803,91.4482422 578.700195,91.4482422 Z M594.870117,91.3818359 C593.342766,91.3818359 592.224938,91.0359735 591.516602,90.3442383 C590.808265,89.6525031 590.454102,88.526375 590.454102,86.9658203 L590.454102,65.7324219 L592.479492,65.5664062 L592.479492,86.8496094 C592.479492,87.9563857 592.681476,88.72005 593.085449,89.140625 C593.489423,89.5612 594.100907,89.7714844 594.919922,89.7714844 C595.583988,89.7714844 596.414058,89.644207 597.410156,89.3896484 L597.493164,90.9833984 C596.408523,91.2490248 595.534183,91.3818359 594.870117,91.3818359 Z M605.063477,91.3818359 C603.536125,91.3818359 602.418298,91.0359735 601.709961,90.3442383 C601.001624,89.6525031 600.647461,88.526375 600.647461,86.9658203 L600.647461,74.3154297 L598.074219,74.3154297 L598.223633,73.0703125 L600.680664,72.8378906 L601.228516,68.6708984 L602.672852,68.5712891 L602.672852,72.8046875 L607.985352,72.8046875 L607.985352,74.3154297 L602.672852,74.3154297 L602.672852,86.5341797 C602.672852,87.8180403 602.883136,88.678546 603.303711,89.1157227 C603.724286,89.5528993 604.465815,89.7714844 605.52832,89.7714844 C606.214522,89.7714844 607.066727,89.644207 608.084961,89.3896484 L608.167969,90.9833984 C606.828769,91.2490248 605.793949,91.3818359 605.063477,91.3818359 Z M629.899414,91.3818359 C628.006826,91.3818359 626.319018,91.0581087 624.835938,90.4106445 C623.352857,89.7631804 622.143722,88.863938 621.208496,87.7128906 C620.27327,86.5618432 619.564944,85.2115963 619.083496,83.6621094 C618.602048,82.1126225 618.361328,80.4137462 618.361328,78.5654297 C618.361328,76.1083862 618.812333,73.9308363 619.714355,72.0327148 C620.616378,70.1345934 621.963858,68.632167 623.756836,67.5253906 C625.549814,66.4186143 627.669259,65.8652344 630.115234,65.8652344 C632.804701,65.8652344 635.095694,66.4296819 636.988281,67.5585938 L635.975586,69.2021484 C634.249015,68.1617787 632.301118,67.6416016 630.131836,67.6416016 C628.615552,67.6416016 627.254238,67.9265922 626.047852,68.496582 C624.841465,69.0665719 623.853682,69.8551382 623.084473,70.8623047 C622.315263,71.8694712 621.72868,73.0371027 621.324707,74.3652344 C620.920734,75.693366 620.71875,77.1321537 620.71875,78.6816406 C620.71875,80.1979242 620.904132,81.6007423 621.274902,82.8901367 C621.645672,84.1795312 622.204586,85.3305613 622.95166,86.3432617 C623.698734,87.3559621 624.692051,88.1528291 625.931641,88.7338867 C627.17123,89.3149443 628.59895,89.6054688 630.214844,89.6054688 C631.952483,89.6054688 633.889312,89.1240283 636.025391,88.1611328 L636.457031,89.8710938 C634.841138,90.8782602 632.655287,91.3818359 629.899414,91.3818359 Z M647.729492,89.7548828 C649.057624,89.7548828 650.178218,89.4034866 651.091309,88.7006836 C652.004399,87.9978806 652.668455,87.0709693 653.083496,85.9199219 C653.498537,84.7688745 653.706055,83.4462965 653.706055,81.9521484 C653.706055,79.6057825 653.208013,77.7187571 652.211914,76.2910156 C651.215815,74.8632741 649.699554,74.1494141 647.663086,74.1494141 C646.334954,74.1494141 645.203292,74.5063441 644.268066,75.2202148 C643.33284,75.9340856 642.649416,76.8692976 642.217773,78.0258789 C641.786131,79.1824602 641.570312,80.507805 641.570312,82.0019531 C641.570312,84.2708447 642.09879,86.1302011 643.155762,87.5800781 C644.212733,89.0299552 645.737295,89.7548828 647.729492,89.7548828 Z M647.580078,91.3984375 C645.930981,91.3984375 644.478359,90.9834026 643.222168,90.1533203 C641.965977,89.323238 641.00863,88.19711 640.350098,86.7749023 C639.691566,85.3526947 639.362305,83.7451262 639.362305,81.9521484 C639.362305,80.6018813 639.553221,79.3484758 639.935059,78.1918945 C640.316896,77.0353132 640.861976,76.0336956 641.570312,75.1870117 C642.278649,74.3403278 643.158523,73.6762719 644.209961,73.1948242 C645.261398,72.7133765 646.42903,72.4726562 647.712891,72.4726562 C649.417326,72.4726562 650.894851,72.8904581 652.145508,73.7260742 C653.396165,74.5616904 654.334144,75.6850515 654.959473,77.0961914 C655.584801,78.5073313 655.897461,80.1148998 655.897461,81.9189453 C655.897461,83.7340586 655.576501,85.3499278 654.93457,86.7666016 C654.29264,88.1832753 653.335293,89.3094034 652.0625,90.1450195 C650.789707,90.9806357 649.295581,91.3984375 647.580078,91.3984375 Z M664.530273,91.3818359 C663.002922,91.3818359 661.885095,91.0359735 661.176758,90.3442383 C660.468421,89.6525031 660.114258,88.526375 660.114258,86.9658203 L660.114258,65.7324219 L662.139648,65.5664062 L662.139648,86.8496094 C662.139648,87.9563857 662.341632,88.72005 662.745605,89.140625 C663.149579,89.5612 663.761064,89.7714844 664.580078,89.7714844 C665.244144,89.7714844 666.074214,89.644207 667.070312,89.3896484 L667.15332,90.9833984 C666.068679,91.2490248 665.194339,91.3818359 664.530273,91.3818359 Z M677.130859,89.7548828 C678.458991,89.7548828 679.579585,89.4034866 680.492676,88.7006836 C681.405766,87.9978806 682.069822,87.0709693 682.484863,85.9199219 C682.899904,84.7688745 683.107422,83.4462965 683.107422,81.9521484 C683.107422,79.6057825 682.60938,77.7187571 681.613281,76.2910156 C680.617183,74.8632741 679.100922,74.1494141 677.064453,74.1494141 C675.736321,74.1494141 674.60466,74.5063441 673.669434,75.2202148 C672.734208,75.9340856 672.050783,76.8692976 671.619141,78.0258789 C671.187498,79.1824602 670.97168,80.507805 670.97168,82.0019531 C670.97168,84.2708447 671.500157,86.1302011 672.557129,87.5800781 C673.6141,89.0299552 675.138662,89.7548828 677.130859,89.7548828 Z M676.981445,91.3984375 C675.332349,91.3984375 673.879726,90.9834026 672.623535,90.1533203 C671.367344,89.323238 670.409997,88.19711 669.751465,86.7749023 C669.092933,85.3526947 668.763672,83.7451262 668.763672,81.9521484 C668.763672,80.6018813 668.954588,79.3484758 669.336426,78.1918945 C669.718264,77.0353132 670.263343,76.0336956 670.97168,75.1870117 C671.680017,74.3403278 672.559891,73.6762719 673.611328,73.1948242 C674.662766,72.7133765 675.830397,72.4726562 677.114258,72.4726562 C678.818693,72.4726562 680.296218,72.8904581 681.546875,73.7260742 C682.797532,74.5616904 683.735511,75.6850515 684.36084,77.0961914 C684.986168,78.5073313 685.298828,80.1148998 685.298828,81.9189453 C685.298828,83.7340586 684.977868,85.3499278 684.335938,86.7666016 C683.694007,88.1832753 682.73666,89.3094034 681.463867,90.1450195 C680.191074,90.9806357 678.696949,91.3984375 676.981445,91.3984375 Z M689.382812,91 C689.360677,80.3196081 689.349609,74.2545645 689.349609,72.8046875 L691.042969,72.8046875 L691.175781,76.390625 C691.828779,75.3059842 692.658849,74.4205763 693.666016,73.734375 C694.673182,73.0481737 695.724604,72.7050781 696.820312,72.7050781 C697.274091,72.7050781 697.761065,72.7438147 698.28125,72.8212891 L698.131836,74.53125 C697.733396,74.4648434 697.312828,74.4316406 696.870117,74.4316406 C695.331698,74.4316406 694.039556,75.0375916 692.993652,76.2495117 C691.947749,77.4614318 691.424805,78.8974526 691.424805,80.5576172 L691.424805,91 L689.382812,91 Z M706.532227,91.4150391 C705.359044,91.4150391 704.257818,91.2711603 703.228516,90.9833984 C702.199214,90.6956366 701.385745,90.3525411 700.788086,89.9541016 L701.086914,88.2275391 C702.913095,89.1793667 704.661775,89.6552734 706.333008,89.6552734 C709.332372,89.6552734 710.887369,88.5429799 710.998047,86.3183594 C710.998047,85.3886672 710.696455,84.6582058 710.093262,84.1269531 C709.490069,83.5957005 708.280934,83.0423206 706.46582,82.4667969 C705.513993,82.134764 704.988282,81.9521486 704.888672,81.9189453 C702.044257,81.0556597 700.611003,79.5227975 700.588867,77.3203125 C700.588867,76.0475197 701.150548,74.9213916 702.273926,73.9418945 C703.397304,72.9623974 704.916332,72.4726562 706.831055,72.4726562 C708.745778,72.4726562 710.544262,72.8489546 712.226562,73.6015625 L711.529297,75.1289062 C709.824861,74.486976 708.242195,74.1660156 706.78125,74.1660156 C705.497389,74.1660156 704.487471,74.4537732 703.751465,75.0292969 C703.015459,75.6048206 702.647461,76.3795524 702.647461,77.3535156 C702.647461,78.1725301 702.888181,78.8006163 703.369629,79.237793 C703.851077,79.6749696 704.805657,80.0927714 706.233398,80.4912109 C706.388347,80.535482 706.673338,80.6350904 707.088379,80.7900391 C707.50342,80.9449878 707.733073,81.0279947 707.777344,81.0390625 C709.692067,81.625654 711.028479,82.3201457 711.786621,83.1225586 C712.544763,83.9249715 712.923828,85.0178967 712.923828,86.4013672 C712.890625,87.9951252 712.295741,89.2291623 711.13916,90.1035156 C709.982579,90.977869 708.44695,91.4150391 706.532227,91.4150391 Z" id="Default-Colors" fill="#FFFFFF"></path>
            <path d="M100.109375,568.328125 L100.976562,563.148438 L99.2773438,563.148438 L99.3945312,562.082031 L101.164062,562.082031 L102.078125,556.855469 L100.167969,556.855469 L100.285156,555.800781 L102.253906,555.800781 L103.121094,550.84375 L104.339844,550.84375 L103.472656,555.800781 L106.636719,555.800781 L107.503906,550.84375 L108.722656,550.84375 L107.855469,555.800781 L109.53125,555.800781 L109.355469,556.84375 L107.679688,556.84375 L106.753906,562.082031 L108.570312,562.082031 L108.453125,563.148438 L106.578125,563.148438 L105.675781,568.328125 L104.445312,568.328125 L105.359375,563.148438 L102.195312,563.148438 L101.292969,568.328125 L100.109375,568.328125 Z M102.382812,562.082031 L105.546875,562.082031 L106.449219,556.84375 L103.296875,556.84375 L102.382812,562.082031 Z M118.109375,566.933594 C119.304693,566.933594 120.269528,566.216804 121.003906,564.783203 C121.738285,563.349602 122.105469,561.421887 122.105469,559 C122.105469,556.624988 121.738285,554.732429 121.003906,553.322266 C120.269528,551.912102 119.3086,551.207031 118.121094,551.207031 C116.925775,551.207031 115.960941,551.914055 115.226562,553.328125 C114.492184,554.742195 114.128906,556.640613 114.136719,559.023438 C114.136719,561.445325 114.501949,563.369133 115.232422,564.794922 C115.962894,566.22071 116.921869,566.933594 118.109375,566.933594 Z M118.121094,568.28125 C117.136714,568.28125 116.269535,568.058596 115.519531,567.613281 C114.769527,567.167967 114.162112,566.533207 113.697266,565.708984 C113.23242,564.884762 112.884767,563.917974 112.654297,562.808594 C112.423827,561.699213 112.308594,560.449226 112.308594,559.058594 C112.308594,556.128892 112.806636,553.863289 113.802734,552.261719 C114.798833,550.660148 116.238272,549.859375 118.121094,549.859375 C120.003916,549.859375 121.435542,550.658195 122.416016,552.255859 C123.396489,553.853524 123.886719,556.121079 123.886719,559.058594 C123.886719,560.449226 123.773439,561.699213 123.546875,562.808594 C123.320311,563.917974 122.976565,564.884762 122.515625,565.708984 C122.054685,566.533207 121.453129,567.167967 120.710938,567.613281 C119.968746,568.058596 119.105474,568.28125 118.121094,568.28125 Z M132.359375,566.933594 C133.554693,566.933594 134.519528,566.216804 135.253906,564.783203 C135.988285,563.349602 136.355469,561.421887 136.355469,559 C136.355469,556.624988 135.988285,554.732429 135.253906,553.322266 C134.519528,551.912102 133.5586,551.207031 132.371094,551.207031 C131.175775,551.207031 130.210941,551.914055 129.476562,553.328125 C128.742184,554.742195 128.378906,556.640613 128.386719,559.023438 C128.386719,561.445325 128.751949,563.369133 129.482422,564.794922 C130.212894,566.22071 131.171869,566.933594 132.359375,566.933594 Z M132.371094,568.28125 C131.386714,568.28125 130.519535,568.058596 129.769531,567.613281 C129.019528,567.167967 128.412112,566.533207 127.947266,565.708984 C127.48242,564.884762 127.134767,563.917974 126.904297,562.808594 C126.673827,561.699213 126.558594,560.449226 126.558594,559.058594 C126.558594,556.128892 127.056636,553.863289 128.052734,552.261719 C129.048833,550.660148 130.488272,549.859375 132.371094,549.859375 C134.253916,549.859375 135.685542,550.658195 136.666016,552.255859 C137.646489,553.853524 138.136719,556.121079 138.136719,559.058594 C138.136719,560.449226 138.023439,561.699213 137.796875,562.808594 C137.570311,563.917974 137.226565,564.884762 136.765625,565.708984 C136.304685,566.533207 135.703129,567.167967 134.960938,567.613281 C134.218746,568.058596 133.355474,568.28125 132.371094,568.28125 Z M146.609375,566.933594 C147.804693,566.933594 148.769528,566.216804 149.503906,564.783203 C150.238285,563.349602 150.605469,561.421887 150.605469,559 C150.605469,556.624988 150.238285,554.732429 149.503906,553.322266 C148.769528,551.912102 147.8086,551.207031 146.621094,551.207031 C145.425775,551.207031 144.460941,551.914055 143.726562,553.328125 C142.992184,554.742195 142.628906,556.640613 142.636719,559.023438 C142.636719,561.445325 143.001949,563.369133 143.732422,564.794922 C144.462894,566.22071 145.421869,566.933594 146.609375,566.933594 Z M146.621094,568.28125 C145.636714,568.28125 144.769535,568.058596 144.019531,567.613281 C143.269528,567.167967 142.662112,566.533207 142.197266,565.708984 C141.73242,564.884762 141.384767,563.917974 141.154297,562.808594 C140.923827,561.699213 140.808594,560.449226 140.808594,559.058594 C140.808594,556.128892 141.306636,553.863289 142.302734,552.261719 C143.298833,550.660148 144.738272,549.859375 146.621094,549.859375 C148.503916,549.859375 149.935542,550.658195 150.916016,552.255859 C151.896489,553.853524 152.386719,556.121079 152.386719,559.058594 C152.386719,560.449226 152.273439,561.699213 152.046875,562.808594 C151.820311,563.917974 151.476565,564.884762 151.015625,565.708984 C150.554685,566.533207 149.953129,567.167967 149.210938,567.613281 C148.468746,568.058596 147.605474,568.28125 146.621094,568.28125 Z M160.859375,566.933594 C162.054693,566.933594 163.019528,566.216804 163.753906,564.783203 C164.488285,563.349602 164.855469,561.421887 164.855469,559 C164.855469,556.624988 164.488285,554.732429 163.753906,553.322266 C163.019528,551.912102 162.0586,551.207031 160.871094,551.207031 C159.675775,551.207031 158.710941,551.914055 157.976562,553.328125 C157.242184,554.742195 156.878906,556.640613 156.886719,559.023438 C156.886719,561.445325 157.251949,563.369133 157.982422,564.794922 C158.712894,566.22071 159.671869,566.933594 160.859375,566.933594 Z M160.871094,568.28125 C159.886714,568.28125 159.019535,568.058596 158.269531,567.613281 C157.519528,567.167967 156.912112,566.533207 156.447266,565.708984 C155.98242,564.884762 155.634767,563.917974 155.404297,562.808594 C155.173827,561.699213 155.058594,560.449226 155.058594,559.058594 C155.058594,556.128892 155.556636,553.863289 156.552734,552.261719 C157.548833,550.660148 158.988272,549.859375 160.871094,549.859375 C162.753916,549.859375 164.185542,550.658195 165.166016,552.255859 C166.146489,553.853524 166.636719,556.121079 166.636719,559.058594 C166.636719,560.449226 166.523439,561.699213 166.296875,562.808594 C166.070311,563.917974 165.726565,564.884762 165.265625,565.708984 C164.804685,566.533207 164.203129,567.167967 163.460938,567.613281 C162.718746,568.058596 161.855474,568.28125 160.871094,568.28125 Z M175.109375,566.933594 C176.304693,566.933594 177.269528,566.216804 178.003906,564.783203 C178.738285,563.349602 179.105469,561.421887 179.105469,559 C179.105469,556.624988 178.738285,554.732429 178.003906,553.322266 C177.269528,551.912102 176.3086,551.207031 175.121094,551.207031 C173.925775,551.207031 172.960941,551.914055 172.226562,553.328125 C171.492184,554.742195 171.128906,556.640613 171.136719,559.023438 C171.136719,561.445325 171.501949,563.369133 172.232422,564.794922 C172.962894,566.22071 173.921869,566.933594 175.109375,566.933594 Z M175.121094,568.28125 C174.136714,568.28125 173.269535,568.058596 172.519531,567.613281 C171.769527,567.167967 171.162112,566.533207 170.697266,565.708984 C170.23242,564.884762 169.884767,563.917974 169.654297,562.808594 C169.423827,561.699213 169.308594,560.449226 169.308594,559.058594 C169.308594,556.128892 169.806636,553.863289 170.802734,552.261719 C171.798833,550.660148 173.238272,549.859375 175.121094,549.859375 C177.003916,549.859375 178.435542,550.658195 179.416016,552.255859 C180.396489,553.853524 180.886719,556.121079 180.886719,559.058594 C180.886719,560.449226 180.773439,561.699213 180.546875,562.808594 C180.320311,563.917974 179.976565,564.884762 179.515625,565.708984 C179.054685,566.533207 178.453129,567.167967 177.710938,567.613281 C176.968746,568.058596 176.105474,568.28125 175.121094,568.28125 Z M189.359375,566.933594 C190.554693,566.933594 191.519528,566.216804 192.253906,564.783203 C192.988285,563.349602 193.355469,561.421887 193.355469,559 C193.355469,556.624988 192.988285,554.732429 192.253906,553.322266 C191.519528,551.912102 190.5586,551.207031 189.371094,551.207031 C188.175775,551.207031 187.210941,551.914055 186.476562,553.328125 C185.742184,554.742195 185.378906,556.640613 185.386719,559.023438 C185.386719,561.445325 185.751949,563.369133 186.482422,564.794922 C187.212894,566.22071 188.171869,566.933594 189.359375,566.933594 Z M189.371094,568.28125 C188.386714,568.28125 187.519535,568.058596 186.769531,567.613281 C186.019527,567.167967 185.412112,566.533207 184.947266,565.708984 C184.48242,564.884762 184.134767,563.917974 183.904297,562.808594 C183.673827,561.699213 183.558594,560.449226 183.558594,559.058594 C183.558594,556.128892 184.056636,553.863289 185.052734,552.261719 C186.048833,550.660148 187.488272,549.859375 189.371094,549.859375 C191.253916,549.859375 192.685542,550.658195 193.666016,552.255859 C194.646489,553.853524 195.136719,556.121079 195.136719,559.058594 C195.136719,560.449226 195.023439,561.699213 194.796875,562.808594 C194.570311,563.917974 194.226565,564.884762 193.765625,565.708984 C193.304685,566.533207 192.703129,567.167967 191.960938,567.613281 C191.218746,568.058596 190.355474,568.28125 189.371094,568.28125 Z" id="#000000" fill="#FFFFFF"></path>
            <path d="M249.109375,568.328125 L249.976562,563.148438 L248.277344,563.148438 L248.394531,562.082031 L250.164062,562.082031 L251.078125,556.855469 L249.167969,556.855469 L249.285156,555.800781 L251.253906,555.800781 L252.121094,550.84375 L253.339844,550.84375 L252.472656,555.800781 L255.636719,555.800781 L256.503906,550.84375 L257.722656,550.84375 L256.855469,555.800781 L258.53125,555.800781 L258.355469,556.84375 L256.679688,556.84375 L255.753906,562.082031 L257.570312,562.082031 L257.453125,563.148438 L255.578125,563.148438 L254.675781,568.328125 L253.445312,568.328125 L254.359375,563.148438 L251.195312,563.148438 L250.292969,568.328125 L249.109375,568.328125 Z M251.382812,562.082031 L254.546875,562.082031 L255.449219,556.84375 L252.296875,556.84375 L251.382812,562.082031 Z M263.617188,566.746094 L267.039062,566.746094 C269.46095,566.746094 271.306634,566.126959 272.576172,564.888672 C273.845709,563.650384 274.480469,561.8047 274.480469,559.351562 C274.480469,558.007806 274.302736,556.847661 273.947266,555.871094 C273.591795,554.894526 273.070316,554.111331 272.382812,553.521484 C271.695309,552.931638 270.882817,552.498048 269.945312,552.220703 C269.007808,551.943358 267.925787,551.804688 266.699219,551.804688 L263.617188,551.804688 L263.617188,566.746094 Z M262.117188,568 L262.117188,550.5625 L266.839844,550.5625 C268.261726,550.5625 269.533198,550.730467 270.654297,551.066406 C271.775396,551.402345 272.749996,551.916012 273.578125,552.607422 C274.406254,553.298832 275.042967,554.208979 275.488281,555.337891 C275.933596,556.466803 276.15625,557.785149 276.15625,559.292969 C276.15625,562.144546 275.371102,564.308586 273.800781,565.785156 C272.230461,567.261726 270.031264,568 267.203125,568 L262.117188,568 Z M284.582031,568.269531 C283.542964,568.269531 282.60352,568.091799 281.763672,567.736328 C280.923824,567.380858 280.246096,566.835941 279.730469,566.101562 C279.214841,565.367184 278.957031,564.500005 278.957031,563.5 C278.957031,562.351557 279.312496,561.333989 280.023438,560.447266 C280.734379,559.560542 281.726556,558.941408 283,558.589844 C281.828119,558.26953 280.923831,557.771488 280.287109,557.095703 C279.650387,556.419918 279.332031,555.585942 279.332031,554.59375 C279.332031,553.265618 279.816401,552.210941 280.785156,551.429688 C281.753911,550.648434 283.02343,550.257812 284.59375,550.257812 C286.140633,550.257812 287.388667,550.64648 288.337891,551.423828 C289.287114,552.201176 289.761719,553.257806 289.761719,554.59375 C289.761719,555.585942 289.457034,556.419918 288.847656,557.095703 C288.238278,557.771488 287.386724,558.26953 286.292969,558.589844 C287.488287,558.941408 288.429684,559.560542 289.117188,560.447266 C289.804691,561.333989 290.148438,562.351557 290.148438,563.5 C290.148438,564.250004 290.001955,564.931638 289.708984,565.544922 C289.416014,566.158206 289.017581,566.660154 288.513672,567.050781 C288.009763,567.441408 287.421878,567.742186 286.75,567.953125 C286.078122,568.164064 285.355473,568.269531 284.582031,568.269531 Z M284.582031,567.039062 C285.722662,567.039062 286.671871,566.722659 287.429688,566.089844 C288.187504,565.457028 288.566406,564.617193 288.566406,563.570312 C288.566406,562.445307 288.207035,561.513676 287.488281,560.775391 C286.769528,560.037106 285.800787,559.515627 284.582031,559.210938 C283.363275,559.523439 282.384769,560.048824 281.646484,560.787109 C280.908199,561.525394 280.539062,562.449213 280.539062,563.558594 C280.539062,564.605474 280.925777,565.447262 281.699219,566.083984 C282.47266,566.720706 283.433588,567.039062 284.582031,567.039062 Z M284.582031,557.96875 C287.011731,557.492185 288.226562,556.359384 288.226562,554.570312 C288.226562,553.593745 287.871097,552.839846 287.160156,552.308594 C286.449215,551.777341 285.589849,551.511719 284.582031,551.511719 C283.566401,551.511719 282.697269,551.779294 281.974609,552.314453 C281.25195,552.849612 280.890625,553.601558 280.890625,554.570312 C280.890625,556.343759 282.121081,557.47656 284.582031,557.96875 Z M295.1875,566.746094 L298.609375,566.746094 C301.031262,566.746094 302.876947,566.126959 304.146484,564.888672 C305.416022,563.650384 306.050781,561.8047 306.050781,559.351562 C306.050781,558.007806 305.873049,556.847661 305.517578,555.871094 C305.162108,554.894526 304.640628,554.111331 303.953125,553.521484 C303.265622,552.931638 302.45313,552.498048 301.515625,552.220703 C300.57812,551.943358 299.4961,551.804688 298.269531,551.804688 L295.1875,551.804688 L295.1875,566.746094 Z M293.6875,568 L293.6875,550.5625 L298.410156,550.5625 C299.832038,550.5625 301.10351,550.730467 302.224609,551.066406 C303.345709,551.402345 304.320308,551.916012 305.148438,552.607422 C305.976567,553.298832 306.613279,554.208979 307.058594,555.337891 C307.503908,556.466803 307.726562,557.785149 307.726562,559.292969 C307.726562,562.144546 306.941414,564.308586 305.371094,565.785156 C303.800773,567.261726 301.601577,568 298.773438,568 L293.6875,568 Z M316.152344,568.269531 C315.113276,568.269531 314.173832,568.091799 313.333984,567.736328 C312.494136,567.380858 311.816409,566.835941 311.300781,566.101562 C310.785154,565.367184 310.527344,564.500005 310.527344,563.5 C310.527344,562.351557 310.882809,561.333989 311.59375,560.447266 C312.304691,559.560542 313.296869,558.941408 314.570312,558.589844 C313.398432,558.26953 312.494144,557.771488 311.857422,557.095703 C311.2207,556.419918 310.902344,555.585942 310.902344,554.59375 C310.902344,553.265618 311.386714,552.210941 312.355469,551.429688 C313.324224,550.648434 314.593742,550.257812 316.164062,550.257812 C317.710945,550.257812 318.95898,550.64648 319.908203,551.423828 C320.857427,552.201176 321.332031,553.257806 321.332031,554.59375 C321.332031,555.585942 321.027347,556.419918 320.417969,557.095703 C319.808591,557.771488 318.957037,558.26953 317.863281,558.589844 C319.0586,558.941408 319.999997,559.560542 320.6875,560.447266 C321.375003,561.333989 321.71875,562.351557 321.71875,563.5 C321.71875,564.250004 321.572267,564.931638 321.279297,565.544922 C320.986327,566.158206 320.587893,566.660154 320.083984,567.050781 C319.580076,567.441408 318.992191,567.742186 318.320312,567.953125 C317.648434,568.164064 316.925785,568.269531 316.152344,568.269531 Z M316.152344,567.039062 C317.292974,567.039062 318.242184,566.722659 319,566.089844 C319.757816,565.457028 320.136719,564.617193 320.136719,563.570312 C320.136719,562.445307 319.777347,561.513676 319.058594,560.775391 C318.33984,560.037106 317.3711,559.515627 316.152344,559.210938 C314.933588,559.523439 313.955082,560.048824 313.216797,560.787109 C312.478512,561.525394 312.109375,562.449213 312.109375,563.558594 C312.109375,564.605474 312.49609,565.447262 313.269531,566.083984 C314.042973,566.720706 315.003901,567.039062 316.152344,567.039062 Z M316.152344,557.96875 C318.582043,557.492185 319.796875,556.359384 319.796875,554.570312 C319.796875,553.593745 319.44141,552.839846 318.730469,552.308594 C318.019528,551.777341 317.160161,551.511719 316.152344,551.511719 C315.136714,551.511719 314.267582,551.779294 313.544922,552.314453 C312.822262,552.849612 312.460938,553.601558 312.460938,554.570312 C312.460938,556.343759 313.691394,557.47656 316.152344,557.96875 Z M326.757812,566.746094 L330.179688,566.746094 C332.601575,566.746094 334.447259,566.126959 335.716797,564.888672 C336.986334,563.650384 337.621094,561.8047 337.621094,559.351562 C337.621094,558.007806 337.443361,556.847661 337.087891,555.871094 C336.73242,554.894526 336.210941,554.111331 335.523438,553.521484 C334.835934,552.931638 334.023442,552.498048 333.085938,552.220703 C332.148433,551.943358 331.066412,551.804688 329.839844,551.804688 L326.757812,551.804688 L326.757812,566.746094 Z M325.257812,568 L325.257812,550.5625 L329.980469,550.5625 C331.402351,550.5625 332.673823,550.730467 333.794922,551.066406 C334.916021,551.402345 335.890621,551.916012 336.71875,552.607422 C337.546879,553.298832 338.183592,554.208979 338.628906,555.337891 C339.074221,556.466803 339.296875,557.785149 339.296875,559.292969 C339.296875,562.144546 338.511727,564.308586 336.941406,565.785156 C335.371086,567.261726 333.171889,568 330.34375,568 L325.257812,568 Z M347.722656,568.269531 C346.683589,568.269531 345.744145,568.091799 344.904297,567.736328 C344.064449,567.380858 343.386721,566.835941 342.871094,566.101562 C342.355466,565.367184 342.097656,564.500005 342.097656,563.5 C342.097656,562.351557 342.453121,561.333989 343.164062,560.447266 C343.875004,559.560542 344.867181,558.941408 346.140625,558.589844 C344.968744,558.26953 344.064456,557.771488 343.427734,557.095703 C342.791012,556.419918 342.472656,555.585942 342.472656,554.59375 C342.472656,553.265618 342.957026,552.210941 343.925781,551.429688 C344.894536,550.648434 346.164055,550.257812 347.734375,550.257812 C349.281258,550.257812 350.529292,550.64648 351.478516,551.423828 C352.427739,552.201176 352.902344,553.257806 352.902344,554.59375 C352.902344,555.585942 352.597659,556.419918 351.988281,557.095703 C351.378903,557.771488 350.527349,558.26953 349.433594,558.589844 C350.628912,558.941408 351.570309,559.560542 352.257812,560.447266 C352.945316,561.333989 353.289062,562.351557 353.289062,563.5 C353.289062,564.250004 353.14258,564.931638 352.849609,565.544922 C352.556639,566.158206 352.158206,566.660154 351.654297,567.050781 C351.150388,567.441408 350.562503,567.742186 349.890625,567.953125 C349.218747,568.164064 348.496098,568.269531 347.722656,568.269531 Z M347.722656,567.039062 C348.863287,567.039062 349.812496,566.722659 350.570312,566.089844 C351.328129,565.457028 351.707031,564.617193 351.707031,563.570312 C351.707031,562.445307 351.34766,561.513676 350.628906,560.775391 C349.910153,560.037106 348.941412,559.515627 347.722656,559.210938 C346.5039,559.523439 345.525394,560.048824 344.787109,560.787109 C344.048824,561.525394 343.679688,562.449213 343.679688,563.558594 C343.679688,564.605474 344.066402,565.447262 344.839844,566.083984 C345.613285,566.720706 346.574213,567.039062 347.722656,567.039062 Z M347.722656,557.96875 C350.152356,557.492185 351.367188,556.359384 351.367188,554.570312 C351.367188,553.593745 351.011722,552.839846 350.300781,552.308594 C349.58984,551.777341 348.730474,551.511719 347.722656,551.511719 C346.707026,551.511719 345.837894,551.779294 345.115234,552.314453 C344.392575,552.849612 344.03125,553.601558 344.03125,554.570312 C344.03125,556.343759 345.261706,557.47656 347.722656,557.96875 Z" id="#D8D8D8" fill="#FFFFFF"></path>
            <path d="M407.109375,568.328125 L407.976562,563.148438 L406.277344,563.148438 L406.394531,562.082031 L408.164062,562.082031 L409.078125,556.855469 L407.167969,556.855469 L407.285156,555.800781 L409.253906,555.800781 L410.121094,550.84375 L411.339844,550.84375 L410.472656,555.800781 L413.636719,555.800781 L414.503906,550.84375 L415.722656,550.84375 L414.855469,555.800781 L416.53125,555.800781 L416.355469,556.84375 L414.679688,556.84375 L413.753906,562.082031 L415.570312,562.082031 L415.453125,563.148438 L413.578125,563.148438 L412.675781,568.328125 L411.445312,568.328125 L412.359375,563.148438 L409.195312,563.148438 L408.292969,568.328125 L407.109375,568.328125 Z M409.382812,562.082031 L412.546875,562.082031 L413.449219,556.84375 L410.296875,556.84375 L409.382812,562.082031 Z M425.027344,568.269531 C423.988276,568.269531 423.048832,568.091799 422.208984,567.736328 C421.369136,567.380858 420.691409,566.835941 420.175781,566.101562 C419.660154,565.367184 419.402344,564.500005 419.402344,563.5 C419.402344,562.351557 419.757809,561.333989 420.46875,560.447266 C421.179691,559.560542 422.171869,558.941408 423.445312,558.589844 C422.273432,558.26953 421.369144,557.771488 420.732422,557.095703 C420.0957,556.419918 419.777344,555.585942 419.777344,554.59375 C419.777344,553.265618 420.261714,552.210941 421.230469,551.429688 C422.199224,550.648434 423.468742,550.257812 425.039062,550.257812 C426.585945,550.257812 427.83398,550.64648 428.783203,551.423828 C429.732427,552.201176 430.207031,553.257806 430.207031,554.59375 C430.207031,555.585942 429.902347,556.419918 429.292969,557.095703 C428.683591,557.771488 427.832037,558.26953 426.738281,558.589844 C427.9336,558.941408 428.874997,559.560542 429.5625,560.447266 C430.250003,561.333989 430.59375,562.351557 430.59375,563.5 C430.59375,564.250004 430.447267,564.931638 430.154297,565.544922 C429.861327,566.158206 429.462893,566.660154 428.958984,567.050781 C428.455076,567.441408 427.867191,567.742186 427.195312,567.953125 C426.523434,568.164064 425.800785,568.269531 425.027344,568.269531 Z M425.027344,567.039062 C426.167974,567.039062 427.117184,566.722659 427.875,566.089844 C428.632816,565.457028 429.011719,564.617193 429.011719,563.570312 C429.011719,562.445307 428.652347,561.513676 427.933594,560.775391 C427.21484,560.037106 426.2461,559.515627 425.027344,559.210938 C423.808588,559.523439 422.830082,560.048824 422.091797,560.787109 C421.353512,561.525394 420.984375,562.449213 420.984375,563.558594 C420.984375,564.605474 421.37109,565.447262 422.144531,566.083984 C422.917973,566.720706 423.878901,567.039062 425.027344,567.039062 Z M425.027344,557.96875 C427.457043,557.492185 428.671875,556.359384 428.671875,554.570312 C428.671875,553.593745 428.31641,552.839846 427.605469,552.308594 C426.894528,551.777341 426.035161,551.511719 425.027344,551.511719 C424.011714,551.511719 423.142582,551.779294 422.419922,552.314453 C421.697262,552.849612 421.335938,553.601558 421.335938,554.570312 C421.335938,556.343759 422.566394,557.47656 425.027344,557.96875 Z M439.078125,568.269531 C438.210933,568.269531 437.414066,568.107423 436.6875,567.783203 C435.960934,567.458983 435.363284,567.025393 434.894531,566.482422 C434.425779,565.93945 434.062501,565.320316 433.804688,564.625 C433.546874,563.929684 433.417969,563.207035 433.417969,562.457031 C433.417969,562.11328 433.4375,561.796876 433.476562,561.507812 C433.515625,561.218749 433.5625,560.94922 433.617188,560.699219 C433.671875,560.449218 433.779296,560.164064 433.939453,559.84375 C434.09961,559.523436 434.24414,559.242189 434.373047,559 C434.501954,558.757811 434.722655,558.414065 435.035156,557.96875 C435.347658,557.523435 435.623046,557.13672 435.861328,556.808594 C436.099611,556.480467 436.464841,555.988285 436.957031,555.332031 C437.355471,554.832029 437.898434,554.185551 438.585938,553.392578 C439.273441,552.599605 439.859373,551.92969 440.34375,551.382812 L441.082031,550.5625 L442.6875,550.5625 L436.535156,558.050781 C437.003909,557.777342 437.47656,557.578126 437.953125,557.453125 C438.42969,557.328124 438.968747,557.265625 439.570312,557.265625 C440.242191,557.265625 440.890622,557.408202 441.515625,557.693359 C442.140628,557.978517 442.687498,558.363279 443.15625,558.847656 C443.625002,559.332034 443.999999,559.919918 444.28125,560.611328 C444.562501,561.302738 444.703125,562.031246 444.703125,562.796875 C444.703125,564.304695 444.17188,565.593745 443.109375,566.664062 C442.04687,567.73438 440.703133,568.269531 439.078125,568.269531 Z M439.054688,566.96875 C440.273444,566.96875 441.267574,566.552739 442.037109,565.720703 C442.806644,564.888668 443.191406,563.917974 443.191406,562.808594 C443.191406,562.035152 443.035158,561.324222 442.722656,560.675781 C442.410155,560.027341 441.939456,559.498049 441.310547,559.087891 C440.681637,558.677732 439.949223,558.472656 439.113281,558.472656 C438.441403,558.472656 437.837893,558.587889 437.302734,558.818359 C436.767575,559.048829 436.332033,559.361326 435.996094,559.755859 C435.660155,560.150393 435.404298,560.603513 435.228516,561.115234 C435.052733,561.626956 434.964844,562.171872 434.964844,562.75 C434.964844,563.27344 435.060546,563.787107 435.251953,564.291016 C435.44336,564.794924 435.708983,565.246092 436.048828,565.644531 C436.388674,566.042971 436.82031,566.36328 437.34375,566.605469 C437.86719,566.847657 438.437497,566.96875 439.054688,566.96875 Z M453.058594,568.269531 C452.019526,568.269531 451.080082,568.091799 450.240234,567.736328 C449.400386,567.380858 448.722659,566.835941 448.207031,566.101562 C447.691404,565.367184 447.433594,564.500005 447.433594,563.5 C447.433594,562.351557 447.789059,561.333989 448.5,560.447266 C449.210941,559.560542 450.203119,558.941408 451.476562,558.589844 C450.304682,558.26953 449.400394,557.771488 448.763672,557.095703 C448.12695,556.419918 447.808594,555.585942 447.808594,554.59375 C447.808594,553.265618 448.292964,552.210941 449.261719,551.429688 C450.230474,550.648434 451.499992,550.257812 453.070312,550.257812 C454.617195,550.257812 455.86523,550.64648 456.814453,551.423828 C457.763677,552.201176 458.238281,553.257806 458.238281,554.59375 C458.238281,555.585942 457.933597,556.419918 457.324219,557.095703 C456.714841,557.771488 455.863287,558.26953 454.769531,558.589844 C455.96485,558.941408 456.906247,559.560542 457.59375,560.447266 C458.281253,561.333989 458.625,562.351557 458.625,563.5 C458.625,564.250004 458.478517,564.931638 458.185547,565.544922 C457.892577,566.158206 457.494143,566.660154 456.990234,567.050781 C456.486326,567.441408 455.898441,567.742186 455.226562,567.953125 C454.554684,568.164064 453.832035,568.269531 453.058594,568.269531 Z M453.058594,567.039062 C454.199224,567.039062 455.148434,566.722659 455.90625,566.089844 C456.664066,565.457028 457.042969,564.617193 457.042969,563.570312 C457.042969,562.445307 456.683597,561.513676 455.964844,560.775391 C455.24609,560.037106 454.27735,559.515627 453.058594,559.210938 C451.839838,559.523439 450.861332,560.048824 450.123047,560.787109 C449.384762,561.525394 449.015625,562.449213 449.015625,563.558594 C449.015625,564.605474 449.40234,565.447262 450.175781,566.083984 C450.949223,566.720706 451.910151,567.039062 453.058594,567.039062 Z M453.058594,557.96875 C455.488293,557.492185 456.703125,556.359384 456.703125,554.570312 C456.703125,553.593745 456.34766,552.839846 455.636719,552.308594 C454.925778,551.777341 454.066411,551.511719 453.058594,551.511719 C452.042964,551.511719 451.173832,551.779294 450.451172,552.314453 C449.728512,552.849612 449.367188,553.601558 449.367188,554.570312 C449.367188,556.343759 450.597644,557.47656 453.058594,557.96875 Z M467.109375,568.269531 C466.242183,568.269531 465.445316,568.107423 464.71875,567.783203 C463.992184,567.458983 463.394534,567.025393 462.925781,566.482422 C462.457029,565.93945 462.093751,565.320316 461.835938,564.625 C461.578124,563.929684 461.449219,563.207035 461.449219,562.457031 C461.449219,562.11328 461.46875,561.796876 461.507812,561.507812 C461.546875,561.218749 461.59375,560.94922 461.648438,560.699219 C461.703125,560.449218 461.810546,560.164064 461.970703,559.84375 C462.13086,559.523436 462.27539,559.242189 462.404297,559 C462.533204,558.757811 462.753905,558.414065 463.066406,557.96875 C463.378908,557.523435 463.654296,557.13672 463.892578,556.808594 C464.130861,556.480467 464.496091,555.988285 464.988281,555.332031 C465.386721,554.832029 465.929684,554.185551 466.617188,553.392578 C467.304691,552.599605 467.890623,551.92969 468.375,551.382812 L469.113281,550.5625 L470.71875,550.5625 L464.566406,558.050781 C465.035159,557.777342 465.50781,557.578126 465.984375,557.453125 C466.46094,557.328124 466.999997,557.265625 467.601562,557.265625 C468.273441,557.265625 468.921872,557.408202 469.546875,557.693359 C470.171878,557.978517 470.718748,558.363279 471.1875,558.847656 C471.656252,559.332034 472.031249,559.919918 472.3125,560.611328 C472.593751,561.302738 472.734375,562.031246 472.734375,562.796875 C472.734375,564.304695 472.20313,565.593745 471.140625,566.664062 C470.07812,567.73438 468.734383,568.269531 467.109375,568.269531 Z M467.085938,566.96875 C468.304694,566.96875 469.298824,566.552739 470.068359,565.720703 C470.837894,564.888668 471.222656,563.917974 471.222656,562.808594 C471.222656,562.035152 471.066408,561.324222 470.753906,560.675781 C470.441405,560.027341 469.970706,559.498049 469.341797,559.087891 C468.712887,558.677732 467.980473,558.472656 467.144531,558.472656 C466.472653,558.472656 465.869143,558.587889 465.333984,558.818359 C464.798825,559.048829 464.363283,559.361326 464.027344,559.755859 C463.691405,560.150393 463.435548,560.603513 463.259766,561.115234 C463.083983,561.626956 462.996094,562.171872 462.996094,562.75 C462.996094,563.27344 463.091796,563.787107 463.283203,564.291016 C463.47461,564.794924 463.740233,565.246092 464.080078,565.644531 C464.419924,566.042971 464.85156,566.36328 465.375,566.605469 C465.89844,566.847657 466.468747,566.96875 467.085938,566.96875 Z M481.089844,568.269531 C480.050776,568.269531 479.111332,568.091799 478.271484,567.736328 C477.431636,567.380858 476.753909,566.835941 476.238281,566.101562 C475.722654,565.367184 475.464844,564.500005 475.464844,563.5 C475.464844,562.351557 475.820309,561.333989 476.53125,560.447266 C477.242191,559.560542 478.234369,558.941408 479.507812,558.589844 C478.335932,558.26953 477.431644,557.771488 476.794922,557.095703 C476.1582,556.419918 475.839844,555.585942 475.839844,554.59375 C475.839844,553.265618 476.324214,552.210941 477.292969,551.429688 C478.261724,550.648434 479.531242,550.257812 481.101562,550.257812 C482.648445,550.257812 483.89648,550.64648 484.845703,551.423828 C485.794927,552.201176 486.269531,553.257806 486.269531,554.59375 C486.269531,555.585942 485.964847,556.419918 485.355469,557.095703 C484.746091,557.771488 483.894537,558.26953 482.800781,558.589844 C483.9961,558.941408 484.937497,559.560542 485.625,560.447266 C486.312503,561.333989 486.65625,562.351557 486.65625,563.5 C486.65625,564.250004 486.509767,564.931638 486.216797,565.544922 C485.923827,566.158206 485.525393,566.660154 485.021484,567.050781 C484.517576,567.441408 483.929691,567.742186 483.257812,567.953125 C482.585934,568.164064 481.863285,568.269531 481.089844,568.269531 Z M481.089844,567.039062 C482.230474,567.039062 483.179684,566.722659 483.9375,566.089844 C484.695316,565.457028 485.074219,564.617193 485.074219,563.570312 C485.074219,562.445307 484.714847,561.513676 483.996094,560.775391 C483.27734,560.037106 482.3086,559.515627 481.089844,559.210938 C479.871088,559.523439 478.892582,560.048824 478.154297,560.787109 C477.416012,561.525394 477.046875,562.449213 477.046875,563.558594 C477.046875,564.605474 477.43359,565.447262 478.207031,566.083984 C478.980473,566.720706 479.941401,567.039062 481.089844,567.039062 Z M481.089844,557.96875 C483.519543,557.492185 484.734375,556.359384 484.734375,554.570312 C484.734375,553.593745 484.37891,552.839846 483.667969,552.308594 C482.957028,551.777341 482.097661,551.511719 481.089844,551.511719 C480.074214,551.511719 479.205082,551.779294 478.482422,552.314453 C477.759762,552.849612 477.398438,553.601558 477.398438,554.570312 C477.398438,556.343759 478.628894,557.47656 481.089844,557.96875 Z M495.140625,568.269531 C494.273433,568.269531 493.476566,568.107423 492.75,567.783203 C492.023434,567.458983 491.425784,567.025393 490.957031,566.482422 C490.488279,565.93945 490.125001,565.320316 489.867188,564.625 C489.609374,563.929684 489.480469,563.207035 489.480469,562.457031 C489.480469,562.11328 489.5,561.796876 489.539062,561.507812 C489.578125,561.218749 489.625,560.94922 489.679688,560.699219 C489.734375,560.449218 489.841796,560.164064 490.001953,559.84375 C490.16211,559.523436 490.30664,559.242189 490.435547,559 C490.564454,558.757811 490.785155,558.414065 491.097656,557.96875 C491.410158,557.523435 491.685546,557.13672 491.923828,556.808594 C492.162111,556.480467 492.527341,555.988285 493.019531,555.332031 C493.417971,554.832029 493.960934,554.185551 494.648438,553.392578 C495.335941,552.599605 495.921873,551.92969 496.40625,551.382812 L497.144531,550.5625 L498.75,550.5625 L492.597656,558.050781 C493.066409,557.777342 493.53906,557.578126 494.015625,557.453125 C494.49219,557.328124 495.031247,557.265625 495.632812,557.265625 C496.304691,557.265625 496.953122,557.408202 497.578125,557.693359 C498.203128,557.978517 498.749998,558.363279 499.21875,558.847656 C499.687502,559.332034 500.062499,559.919918 500.34375,560.611328 C500.625001,561.302738 500.765625,562.031246 500.765625,562.796875 C500.765625,564.304695 500.23438,565.593745 499.171875,566.664062 C498.10937,567.73438 496.765633,568.269531 495.140625,568.269531 Z M495.117188,566.96875 C496.335944,566.96875 497.330074,566.552739 498.099609,565.720703 C498.869144,564.888668 499.253906,563.917974 499.253906,562.808594 C499.253906,562.035152 499.097658,561.324222 498.785156,560.675781 C498.472655,560.027341 498.001956,559.498049 497.373047,559.087891 C496.744137,558.677732 496.011723,558.472656 495.175781,558.472656 C494.503903,558.472656 493.900393,558.587889 493.365234,558.818359 C492.830075,559.048829 492.394533,559.361326 492.058594,559.755859 C491.722655,560.150393 491.466798,560.603513 491.291016,561.115234 C491.115233,561.626956 491.027344,562.171872 491.027344,562.75 C491.027344,563.27344 491.123046,563.787107 491.314453,564.291016 C491.50586,564.794924 491.771483,565.246092 492.111328,565.644531 C492.451174,566.042971 492.88281,566.36328 493.40625,566.605469 C493.92969,566.847657 494.499997,566.96875 495.117188,566.96875 Z" id="#868686" fill="#FFFFFF"></path>
            <path d="M561.109375,568.328125 L561.976562,563.148438 L560.277344,563.148438 L560.394531,562.082031 L562.164062,562.082031 L563.078125,556.855469 L561.167969,556.855469 L561.285156,555.800781 L563.253906,555.800781 L564.121094,550.84375 L565.339844,550.84375 L564.472656,555.800781 L567.636719,555.800781 L568.503906,550.84375 L569.722656,550.84375 L568.855469,555.800781 L570.53125,555.800781 L570.355469,556.84375 L568.679688,556.84375 L567.753906,562.082031 L569.570312,562.082031 L569.453125,563.148438 L567.578125,563.148438 L566.675781,568.328125 L565.445312,568.328125 L566.359375,563.148438 L563.195312,563.148438 L562.292969,568.328125 L561.109375,568.328125 Z M563.382812,562.082031 L566.546875,562.082031 L567.449219,556.84375 L564.296875,556.84375 L563.382812,562.082031 Z M578.582031,568.269531 C576.496083,568.269531 574.800788,567.746099 573.496094,566.699219 L574.023438,565.574219 C575.242194,566.550786 576.785147,567.039062 578.652344,567.039062 C579.925788,567.039062 580.945309,566.611332 581.710938,565.755859 C582.476566,564.900386 582.859375,563.781257 582.859375,562.398438 C582.859375,561.242182 582.5293,560.279301 581.869141,559.509766 C581.208981,558.740231 580.39063,558.355469 579.414062,558.355469 C578.703121,558.355469 578.099612,558.453124 577.603516,558.648438 C577.107419,558.843751 576.542972,559.183591 575.910156,559.667969 L574.445312,559.5625 L574.84375,550.5625 L583.761719,550.5625 L583.609375,551.863281 L576.121094,551.863281 L575.769531,558.25 C576.761724,557.499996 577.882806,557.113281 579.132812,557.089844 C580.20313,557.074219 581.15234,557.310544 581.980469,557.798828 C582.808598,558.287112 583.433592,558.929684 583.855469,559.726562 C584.277346,560.523441 584.488281,561.394527 584.488281,562.339844 C584.488281,564.136728 583.955083,565.574213 582.888672,566.652344 C581.82226,567.730474 580.386728,568.269531 578.582031,568.269531 Z M592.222656,568.269531 C591.199214,568.269531 590.28516,568.128908 589.480469,567.847656 C588.675777,567.566405 588.121095,567.281251 587.816406,566.992188 L588.367188,565.785156 C589.429693,566.613285 590.667962,567.027344 592.082031,567.027344 C593.324225,567.027344 594.310543,566.701175 595.041016,566.048828 C595.771488,565.396481 596.136719,564.468756 596.136719,563.265625 C596.136719,562.648434 596.046876,562.107424 595.867188,561.642578 C595.687499,561.177732 595.447267,560.802736 595.146484,560.517578 C594.845702,560.23242 594.466799,559.996095 594.009766,559.808594 C593.552732,559.621093 593.083987,559.490235 592.603516,559.416016 C592.123044,559.341797 591.574222,559.292969 590.957031,559.269531 L590.277344,559.269531 L590.277344,557.957031 L590.792969,557.957031 C591.230471,557.941406 591.626951,557.91211 591.982422,557.869141 C592.337892,557.826172 592.712889,557.759766 593.107422,557.669922 C593.501955,557.580078 593.843749,557.453126 594.132812,557.289062 C594.421876,557.124999 594.687499,556.923829 594.929688,556.685547 C595.171876,556.447264 595.355468,556.148439 595.480469,555.789062 C595.605469,555.429686 595.667969,555.019534 595.667969,554.558594 C595.667969,552.511709 594.527355,551.488281 592.246094,551.488281 C591.46484,551.488281 590.730472,551.599608 590.042969,551.822266 C589.355465,552.044923 588.796877,552.351561 588.367188,552.742188 L587.828125,551.523438 C588.82813,550.664058 590.437489,550.234375 592.65625,550.234375 C593.218753,550.234375 593.759763,550.318359 594.279297,550.486328 C594.798831,550.654298 595.271482,550.898436 595.697266,551.21875 C596.123049,551.539064 596.462889,551.968747 596.716797,552.507812 C596.970704,553.046878 597.097656,553.656247 597.097656,554.335938 C597.097656,556.546886 596.078135,557.960934 594.039062,558.578125 C596.406262,559.187503 597.609375,560.72655 597.648438,563.195312 C597.671875,564.703133 597.181646,565.925777 596.177734,566.863281 C595.173823,567.800786 593.855477,568.269531 592.222656,568.269531 Z M605.652344,568.269531 C603.566396,568.269531 601.8711,567.746099 600.566406,566.699219 L601.09375,565.574219 C602.312506,566.550786 603.855459,567.039062 605.722656,567.039062 C606.9961,567.039062 608.015621,566.611332 608.78125,565.755859 C609.546879,564.900386 609.929688,563.781257 609.929688,562.398438 C609.929688,561.242182 609.599613,560.279301 608.939453,559.509766 C608.279294,558.740231 607.460942,558.355469 606.484375,558.355469 C605.773434,558.355469 605.169924,558.453124 604.673828,558.648438 C604.177732,558.843751 603.613284,559.183591 602.980469,559.667969 L601.515625,559.5625 L601.914062,550.5625 L610.832031,550.5625 L610.679688,551.863281 L603.191406,551.863281 L602.839844,558.25 C603.832036,557.499996 604.953119,557.113281 606.203125,557.089844 C607.273443,557.074219 608.222652,557.310544 609.050781,557.798828 C609.87891,558.287112 610.503904,558.929684 610.925781,559.726562 C611.347658,560.523441 611.558594,561.394527 611.558594,562.339844 C611.558594,564.136728 611.025396,565.574213 609.958984,566.652344 C608.892573,567.730474 607.45704,568.269531 605.652344,568.269531 Z M619.292969,568.269531 C618.269526,568.269531 617.355473,568.128908 616.550781,567.847656 C615.74609,567.566405 615.191408,567.281251 614.886719,566.992188 L615.4375,565.785156 C616.500005,566.613285 617.738274,567.027344 619.152344,567.027344 C620.394537,567.027344 621.380856,566.701175 622.111328,566.048828 C622.841801,565.396481 623.207031,564.468756 623.207031,563.265625 C623.207031,562.648434 623.117188,562.107424 622.9375,561.642578 C622.757812,561.177732 622.51758,560.802736 622.216797,560.517578 C621.916014,560.23242 621.537112,559.996095 621.080078,559.808594 C620.623045,559.621093 620.154299,559.490235 619.673828,559.416016 C619.193357,559.341797 618.644534,559.292969 618.027344,559.269531 L617.347656,559.269531 L617.347656,557.957031 L617.863281,557.957031 C618.300783,557.941406 618.697264,557.91211 619.052734,557.869141 C619.408205,557.826172 619.783201,557.759766 620.177734,557.669922 C620.572268,557.580078 620.914061,557.453126 621.203125,557.289062 C621.492189,557.124999 621.757811,556.923829 622,556.685547 C622.242189,556.447264 622.425781,556.148439 622.550781,555.789062 C622.675782,555.429686 622.738281,555.019534 622.738281,554.558594 C622.738281,552.511709 621.597668,551.488281 619.316406,551.488281 C618.535152,551.488281 617.800785,551.599608 617.113281,551.822266 C616.425778,552.044923 615.86719,552.351561 615.4375,552.742188 L614.898438,551.523438 C615.898442,550.664058 617.507801,550.234375 619.726562,550.234375 C620.289065,550.234375 620.830076,550.318359 621.349609,550.486328 C621.869143,550.654298 622.341795,550.898436 622.767578,551.21875 C623.193362,551.539064 623.533202,551.968747 623.787109,552.507812 C624.041017,553.046878 624.167969,553.656247 624.167969,554.335938 C624.167969,556.546886 623.148448,557.960934 621.109375,558.578125 C623.476574,559.187503 624.679687,560.72655 624.71875,563.195312 C624.742188,564.703133 624.251958,565.925777 623.248047,566.863281 C622.244136,567.800786 620.925789,568.269531 619.292969,568.269531 Z M632.722656,568.269531 C630.636708,568.269531 628.941413,567.746099 627.636719,566.699219 L628.164062,565.574219 C629.382819,566.550786 630.925772,567.039062 632.792969,567.039062 C634.066413,567.039062 635.085934,566.611332 635.851562,565.755859 C636.617191,564.900386 637,563.781257 637,562.398438 C637,561.242182 636.669925,560.279301 636.009766,559.509766 C635.349606,558.740231 634.531255,558.355469 633.554688,558.355469 C632.843746,558.355469 632.240237,558.453124 631.744141,558.648438 C631.248044,558.843751 630.683597,559.183591 630.050781,559.667969 L628.585938,559.5625 L628.984375,550.5625 L637.902344,550.5625 L637.75,551.863281 L630.261719,551.863281 L629.910156,558.25 C630.902349,557.499996 632.023431,557.113281 633.273438,557.089844 C634.343755,557.074219 635.292965,557.310544 636.121094,557.798828 C636.949223,558.287112 637.574217,558.929684 637.996094,559.726562 C638.417971,560.523441 638.628906,561.394527 638.628906,562.339844 C638.628906,564.136728 638.095708,565.574213 637.029297,566.652344 C635.962885,567.730474 634.527353,568.269531 632.722656,568.269531 Z M646.363281,568.269531 C645.339839,568.269531 644.425785,568.128908 643.621094,567.847656 C642.816402,567.566405 642.26172,567.281251 641.957031,566.992188 L642.507812,565.785156 C643.570318,566.613285 644.808587,567.027344 646.222656,567.027344 C647.46485,567.027344 648.451168,566.701175 649.181641,566.048828 C649.912113,565.396481 650.277344,564.468756 650.277344,563.265625 C650.277344,562.648434 650.187501,562.107424 650.007812,561.642578 C649.828124,561.177732 649.587892,560.802736 649.287109,560.517578 C648.986327,560.23242 648.607424,559.996095 648.150391,559.808594 C647.693357,559.621093 647.224612,559.490235 646.744141,559.416016 C646.263669,559.341797 645.714847,559.292969 645.097656,559.269531 L644.417969,559.269531 L644.417969,557.957031 L644.933594,557.957031 C645.371096,557.941406 645.767576,557.91211 646.123047,557.869141 C646.478517,557.826172 646.853514,557.759766 647.248047,557.669922 C647.64258,557.580078 647.984374,557.453126 648.273438,557.289062 C648.562501,557.124999 648.828124,556.923829 649.070312,556.685547 C649.312501,556.447264 649.496093,556.148439 649.621094,555.789062 C649.746094,555.429686 649.808594,555.019534 649.808594,554.558594 C649.808594,552.511709 648.66798,551.488281 646.386719,551.488281 C645.605465,551.488281 644.871097,551.599608 644.183594,551.822266 C643.49609,552.044923 642.937502,552.351561 642.507812,552.742188 L641.96875,551.523438 C642.968755,550.664058 644.578114,550.234375 646.796875,550.234375 C647.359378,550.234375 647.900388,550.318359 648.419922,550.486328 C648.939456,550.654298 649.412107,550.898436 649.837891,551.21875 C650.263674,551.539064 650.603514,551.968747 650.857422,552.507812 C651.111329,553.046878 651.238281,553.656247 651.238281,554.335938 C651.238281,556.546886 650.21876,557.960934 648.179688,558.578125 C650.546887,559.187503 651.75,560.72655 651.789062,563.195312 C651.8125,564.703133 651.322271,565.925777 650.318359,566.863281 C649.314448,567.800786 647.996102,568.269531 646.363281,568.269531 Z" id="#535353" fill="#FFFFFF"></path>
            <path d="M714.109375,568.328125 L714.976562,563.148438 L713.277344,563.148438 L713.394531,562.082031 L715.164062,562.082031 L716.078125,556.855469 L714.167969,556.855469 L714.285156,555.800781 L716.253906,555.800781 L717.121094,550.84375 L718.339844,550.84375 L717.472656,555.800781 L720.636719,555.800781 L721.503906,550.84375 L722.722656,550.84375 L721.855469,555.800781 L723.53125,555.800781 L723.355469,556.84375 L721.679688,556.84375 L720.753906,562.082031 L722.570312,562.082031 L722.453125,563.148438 L720.578125,563.148438 L719.675781,568.328125 L718.445312,568.328125 L719.359375,563.148438 L716.195312,563.148438 L715.292969,568.328125 L714.109375,568.328125 Z M716.382812,562.082031 L719.546875,562.082031 L720.449219,556.84375 L717.296875,556.84375 L716.382812,562.082031 Z M731.21875,568.269531 C730.195307,568.269531 729.281254,568.128908 728.476562,567.847656 C727.671871,567.566405 727.117189,567.281251 726.8125,566.992188 L727.363281,565.785156 C728.425787,566.613285 729.664055,567.027344 731.078125,567.027344 C732.320319,567.027344 733.306637,566.701175 734.037109,566.048828 C734.767582,565.396481 735.132812,564.468756 735.132812,563.265625 C735.132812,562.648434 735.04297,562.107424 734.863281,561.642578 C734.683593,561.177732 734.443361,560.802736 734.142578,560.517578 C733.841795,560.23242 733.462893,559.996095 733.005859,559.808594 C732.548826,559.621093 732.080081,559.490235 731.599609,559.416016 C731.119138,559.341797 730.570316,559.292969 729.953125,559.269531 L729.273438,559.269531 L729.273438,557.957031 L729.789062,557.957031 C730.226565,557.941406 730.623045,557.91211 730.978516,557.869141 C731.333986,557.826172 731.708982,557.759766 732.103516,557.669922 C732.498049,557.580078 732.839842,557.453126 733.128906,557.289062 C733.41797,557.124999 733.683593,556.923829 733.925781,556.685547 C734.16797,556.447264 734.351562,556.148439 734.476562,555.789062 C734.601563,555.429686 734.664062,555.019534 734.664062,554.558594 C734.664062,552.511709 733.523449,551.488281 731.242188,551.488281 C730.460934,551.488281 729.726566,551.599608 729.039062,551.822266 C728.351559,552.044923 727.792971,552.351561 727.363281,552.742188 L726.824219,551.523438 C727.824224,550.664058 729.433583,550.234375 731.652344,550.234375 C732.214847,550.234375 732.755857,550.318359 733.275391,550.486328 C733.794924,550.654298 734.267576,550.898436 734.693359,551.21875 C735.119143,551.539064 735.458983,551.968747 735.712891,552.507812 C735.966798,553.046878 736.09375,553.656247 736.09375,554.335938 C736.09375,556.546886 735.074229,557.960934 733.035156,558.578125 C735.402356,559.187503 736.605469,560.72655 736.644531,563.195312 C736.667969,564.703133 736.177739,565.925777 735.173828,566.863281 C734.169917,567.800786 732.851571,568.269531 731.21875,568.269531 Z M744.648438,568.269531 C742.56249,568.269531 740.867194,567.746099 739.5625,566.699219 L740.089844,565.574219 C741.3086,566.550786 742.851553,567.039062 744.71875,567.039062 C745.992194,567.039062 747.011715,566.611332 747.777344,565.755859 C748.542973,564.900386 748.925781,563.781257 748.925781,562.398438 C748.925781,561.242182 748.595706,560.279301 747.935547,559.509766 C747.275387,558.740231 746.457036,558.355469 745.480469,558.355469 C744.769528,558.355469 744.166018,558.453124 743.669922,558.648438 C743.173826,558.843751 742.609378,559.183591 741.976562,559.667969 L740.511719,559.5625 L740.910156,550.5625 L749.828125,550.5625 L749.675781,551.863281 L742.1875,551.863281 L741.835938,558.25 C742.82813,557.499996 743.949213,557.113281 745.199219,557.089844 C746.269537,557.074219 747.218746,557.310544 748.046875,557.798828 C748.875004,558.287112 749.499998,558.929684 749.921875,559.726562 C750.343752,560.523441 750.554688,561.394527 750.554688,562.339844 C750.554688,564.136728 750.02149,565.574213 748.955078,566.652344 C747.888667,567.730474 746.453134,568.269531 744.648438,568.269531 Z M758.289062,568.269531 C757.26562,568.269531 756.351567,568.128908 755.546875,567.847656 C754.742183,567.566405 754.187502,567.281251 753.882812,566.992188 L754.433594,565.785156 C755.496099,566.613285 756.734368,567.027344 758.148438,567.027344 C759.390631,567.027344 760.376949,566.701175 761.107422,566.048828 C761.837894,565.396481 762.203125,564.468756 762.203125,563.265625 C762.203125,562.648434 762.113282,562.107424 761.933594,561.642578 C761.753905,561.177732 761.513673,560.802736 761.212891,560.517578 C760.912108,560.23242 760.533205,559.996095 760.076172,559.808594 C759.619138,559.621093 759.150393,559.490235 758.669922,559.416016 C758.189451,559.341797 757.640628,559.292969 757.023438,559.269531 L756.34375,559.269531 L756.34375,557.957031 L756.859375,557.957031 C757.296877,557.941406 757.693358,557.91211 758.048828,557.869141 C758.404299,557.826172 758.779295,557.759766 759.173828,557.669922 C759.568361,557.580078 759.910155,557.453126 760.199219,557.289062 C760.488283,557.124999 760.753905,556.923829 760.996094,556.685547 C761.238282,556.447264 761.421874,556.148439 761.546875,555.789062 C761.671876,555.429686 761.734375,555.019534 761.734375,554.558594 C761.734375,552.511709 760.593761,551.488281 758.3125,551.488281 C757.531246,551.488281 756.796878,551.599608 756.109375,551.822266 C755.421872,552.044923 754.863283,552.351561 754.433594,552.742188 L753.894531,551.523438 C754.894536,550.664058 756.503895,550.234375 758.722656,550.234375 C759.285159,550.234375 759.826169,550.318359 760.345703,550.486328 C760.865237,550.654298 761.337888,550.898436 761.763672,551.21875 C762.189455,551.539064 762.529296,551.968747 762.783203,552.507812 C763.037111,553.046878 763.164062,553.656247 763.164062,554.335938 C763.164062,556.546886 762.144541,557.960934 760.105469,558.578125 C762.472668,559.187503 763.675781,560.72655 763.714844,563.195312 C763.738281,564.703133 763.248052,565.925777 762.244141,566.863281 C761.240229,567.800786 759.921883,568.269531 758.289062,568.269531 Z M771.71875,568.269531 C769.632802,568.269531 767.937507,567.746099 766.632812,566.699219 L767.160156,565.574219 C768.378912,566.550786 769.921866,567.039062 771.789062,567.039062 C773.062506,567.039062 774.082027,566.611332 774.847656,565.755859 C775.613285,564.900386 775.996094,563.781257 775.996094,562.398438 C775.996094,561.242182 775.666019,560.279301 775.005859,559.509766 C774.3457,558.740231 773.527349,558.355469 772.550781,558.355469 C771.83984,558.355469 771.236331,558.453124 770.740234,558.648438 C770.244138,558.843751 769.679691,559.183591 769.046875,559.667969 L767.582031,559.5625 L767.980469,550.5625 L776.898438,550.5625 L776.746094,551.863281 L769.257812,551.863281 L768.90625,558.25 C769.898442,557.499996 771.019525,557.113281 772.269531,557.089844 C773.339849,557.074219 774.289058,557.310544 775.117188,557.798828 C775.945317,558.287112 776.57031,558.929684 776.992188,559.726562 C777.414065,560.523441 777.625,561.394527 777.625,562.339844 C777.625,564.136728 777.091802,565.574213 776.025391,566.652344 C774.958979,567.730474 773.523447,568.269531 771.71875,568.269531 Z M785.359375,568.269531 C784.335932,568.269531 783.421879,568.128908 782.617188,567.847656 C781.812496,567.566405 781.257814,567.281251 780.953125,566.992188 L781.503906,565.785156 C782.566412,566.613285 783.80468,567.027344 785.21875,567.027344 C786.460944,567.027344 787.447262,566.701175 788.177734,566.048828 C788.908207,565.396481 789.273438,564.468756 789.273438,563.265625 C789.273438,562.648434 789.183595,562.107424 789.003906,561.642578 C788.824218,561.177732 788.583986,560.802736 788.283203,560.517578 C787.98242,560.23242 787.603518,559.996095 787.146484,559.808594 C786.689451,559.621093 786.220706,559.490235 785.740234,559.416016 C785.259763,559.341797 784.710941,559.292969 784.09375,559.269531 L783.414062,559.269531 L783.414062,557.957031 L783.929688,557.957031 C784.36719,557.941406 784.76367,557.91211 785.119141,557.869141 C785.474611,557.826172 785.849607,557.759766 786.244141,557.669922 C786.638674,557.580078 786.980467,557.453126 787.269531,557.289062 C787.558595,557.124999 787.824218,556.923829 788.066406,556.685547 C788.308595,556.447264 788.492187,556.148439 788.617188,555.789062 C788.742188,555.429686 788.804688,555.019534 788.804688,554.558594 C788.804688,552.511709 787.664074,551.488281 785.382812,551.488281 C784.601559,551.488281 783.867191,551.599608 783.179688,551.822266 C782.492184,552.044923 781.933596,552.351561 781.503906,552.742188 L780.964844,551.523438 C781.964849,550.664058 783.574208,550.234375 785.792969,550.234375 C786.355472,550.234375 786.896482,550.318359 787.416016,550.486328 C787.935549,550.654298 788.408201,550.898436 788.833984,551.21875 C789.259768,551.539064 789.599608,551.968747 789.853516,552.507812 C790.107423,553.046878 790.234375,553.656247 790.234375,554.335938 C790.234375,556.546886 789.214854,557.960934 787.175781,558.578125 C789.542981,559.187503 790.746094,560.72655 790.785156,563.195312 C790.808594,564.703133 790.318364,565.925777 789.314453,566.863281 C788.310542,567.800786 786.992196,568.269531 785.359375,568.269531 Z M798.789062,568.269531 C796.703115,568.269531 795.007819,567.746099 793.703125,566.699219 L794.230469,565.574219 C795.449225,566.550786 796.992178,567.039062 798.859375,567.039062 C800.132819,567.039062 801.15234,566.611332 801.917969,565.755859 C802.683598,564.900386 803.066406,563.781257 803.066406,562.398438 C803.066406,561.242182 802.736331,560.279301 802.076172,559.509766 C801.416012,558.740231 800.597661,558.355469 799.621094,558.355469 C798.910153,558.355469 798.306643,558.453124 797.810547,558.648438 C797.314451,558.843751 796.750003,559.183591 796.117188,559.667969 L794.652344,559.5625 L795.050781,550.5625 L803.96875,550.5625 L803.816406,551.863281 L796.328125,551.863281 L795.976562,558.25 C796.968755,557.499996 798.089838,557.113281 799.339844,557.089844 C800.410162,557.074219 801.359371,557.310544 802.1875,557.798828 C803.015629,558.287112 803.640623,558.929684 804.0625,559.726562 C804.484377,560.523441 804.695312,561.394527 804.695312,562.339844 C804.695312,564.136728 804.162115,565.574213 803.095703,566.652344 C802.029292,567.730474 800.593759,568.269531 798.789062,568.269531 Z" id="#353535" fill="#FFFFFF"></path>
            <path d="M879.109375,568.328125 L879.976562,563.148438 L878.277344,563.148438 L878.394531,562.082031 L880.164062,562.082031 L881.078125,556.855469 L879.167969,556.855469 L879.285156,555.800781 L881.253906,555.800781 L882.121094,550.84375 L883.339844,550.84375 L882.472656,555.800781 L885.636719,555.800781 L886.503906,550.84375 L887.722656,550.84375 L886.855469,555.800781 L888.53125,555.800781 L888.355469,556.84375 L886.679688,556.84375 L885.753906,562.082031 L887.570312,562.082031 L887.453125,563.148438 L885.578125,563.148438 L884.675781,568.328125 L883.445312,568.328125 L884.359375,563.148438 L881.195312,563.148438 L880.292969,568.328125 L879.109375,568.328125 Z M881.382812,562.082031 L884.546875,562.082031 L885.449219,556.84375 L882.296875,556.84375 L881.382812,562.082031 Z M893.195312,568 L893.195312,552.109375 C892.945311,552.289063 892.548831,552.511717 892.005859,552.777344 C891.462888,553.04297 890.921878,553.26953 890.382812,553.457031 L890.382812,552.191406 C892.023446,551.43359 893.050779,550.890627 893.464844,550.5625 L894.695312,550.5625 L894.695312,568 L893.195312,568 Z M899.136719,568 L899.136719,550.5625 L908.511719,550.5625 L908.441406,551.863281 L900.648438,551.863281 L900.648438,558.753906 L908.089844,558.753906 L908.089844,559.960938 L900.648438,559.960938 L900.648438,568 L899.136719,568 Z M912.226562,568 L912.226562,552.109375 C911.976561,552.289063 911.580081,552.511717 911.037109,552.777344 C910.494138,553.04297 909.953128,553.26953 909.414062,553.457031 L909.414062,552.191406 C911.054696,551.43359 912.082029,550.890627 912.496094,550.5625 L913.726562,550.5625 L913.726562,568 L912.226562,568 Z M918.167969,568 L918.167969,550.5625 L927.542969,550.5625 L927.472656,551.863281 L919.679688,551.863281 L919.679688,558.753906 L927.121094,558.753906 L927.121094,559.960938 L919.679688,559.960938 L919.679688,568 L918.167969,568 Z M931.257812,568 L931.257812,552.109375 C931.007811,552.289063 930.611331,552.511717 930.068359,552.777344 C929.525388,553.04297 928.984378,553.26953 928.445312,553.457031 L928.445312,552.191406 C930.085946,551.43359 931.113279,550.890627 931.527344,550.5625 L932.757812,550.5625 L932.757812,568 L931.257812,568 Z M937.199219,568 L937.199219,550.5625 L946.574219,550.5625 L946.503906,551.863281 L938.710938,551.863281 L938.710938,558.753906 L946.152344,558.753906 L946.152344,559.960938 L938.710938,559.960938 L938.710938,568 L937.199219,568 Z" id="#1F1F1F" fill="#FFFFFF"></path>
            <path d="M1025.10938,568.328125 L1025.97656,563.148438 L1024.27734,563.148438 L1024.39453,562.082031 L1026.16406,562.082031 L1027.07812,556.855469 L1025.16797,556.855469 L1025.28516,555.800781 L1027.25391,555.800781 L1028.12109,550.84375 L1029.33984,550.84375 L1028.47266,555.800781 L1031.63672,555.800781 L1032.50391,550.84375 L1033.72266,550.84375 L1032.85547,555.800781 L1034.53125,555.800781 L1034.35547,556.84375 L1032.67969,556.84375 L1031.75391,562.082031 L1033.57031,562.082031 L1033.45312,563.148438 L1031.57812,563.148438 L1030.67578,568.328125 L1029.44531,568.328125 L1030.35938,563.148438 L1027.19531,563.148438 L1026.29297,568.328125 L1025.10938,568.328125 Z M1027.38281,562.082031 L1030.54688,562.082031 L1031.44922,556.84375 L1028.29688,556.84375 L1027.38281,562.082031 Z M1038.11719,568 L1038.11719,550.5625 L1047.49219,550.5625 L1047.42188,551.863281 L1039.62891,551.863281 L1039.62891,558.753906 L1047.07031,558.753906 L1047.07031,559.960938 L1039.62891,559.960938 L1039.62891,568 L1038.11719,568 Z M1050.12891,568 L1050.12891,550.5625 L1059.50391,550.5625 L1059.43359,551.863281 L1051.64062,551.863281 L1051.64062,558.753906 L1059.08203,558.753906 L1059.08203,559.960938 L1051.64062,559.960938 L1051.64062,568 L1050.12891,568 Z M1062.14062,568 L1062.14062,550.5625 L1071.51562,550.5625 L1071.44531,551.863281 L1063.65234,551.863281 L1063.65234,558.753906 L1071.09375,558.753906 L1071.09375,559.960938 L1063.65234,559.960938 L1063.65234,568 L1062.14062,568 Z M1074.15234,568 L1074.15234,550.5625 L1083.52734,550.5625 L1083.45703,551.863281 L1075.66406,551.863281 L1075.66406,558.753906 L1083.10547,558.753906 L1083.10547,559.960938 L1075.66406,559.960938 L1075.66406,568 L1074.15234,568 Z M1086.16406,568 L1086.16406,550.5625 L1095.53906,550.5625 L1095.46875,551.863281 L1087.67578,551.863281 L1087.67578,558.753906 L1095.11719,558.753906 L1095.11719,559.960938 L1087.67578,559.960938 L1087.67578,568 L1086.16406,568 Z M1098.17578,568 L1098.17578,550.5625 L1107.55078,550.5625 L1107.48047,551.863281 L1099.6875,551.863281 L1099.6875,558.753906 L1107.12891,558.753906 L1107.12891,559.960938 L1099.6875,559.960938 L1099.6875,568 L1098.17578,568 Z" id="#FFFFFF" fill="#FFFFFF"></path>
            <rect id="Rectangle" fill="#FFFFFF" x="71" y="163" width="153" height="367"></rect>
            <rect id="Rectangle-Copy" fill="#D8D8D8" x="224" y="163" width="153" height="367"></rect>
            <rect id="Rectangle-Copy-2" fill="#868686" x="377" y="163" width="153" height="367"></rect>
            <rect id="Rectangle-Copy-3" fill="#535353" x="530" y="163" width="153" height="367"></rect>
            <rect id="Rectangle-Copy-4" fill="#353535" x="683" y="163" width="153" height="367"></rect>
            <rect id="Rectangle-Copy-5" fill="#1F1F1F" x="836" y="163" width="153" height="367"></rect>
            <rect id="Rectangle-Copy-6" fill="#000000" x="989" y="163" width="153" height="367"></rect>
            <rect id="Rectangle-Copy-7" fill="#101010" x="836" y="651" width="306" height="77"></rect>
            <rect id="Rectangle-Copy-8" fill="#FFFFFF" x="71" y="651" width="306" height="77"></rect>
            <path d="M149.121094,689.375 C149.121094,686.953113 148.4961,685.191412 147.246094,684.089844 C145.996087,682.988276 144.175793,682.4375 141.785156,682.4375 L139.066406,682.4375 L139.066406,696.230469 L142.125,696.230469 C144.406261,696.230469 146.142572,695.654303 147.333984,694.501953 C148.525397,693.349604 149.121094,691.640636 149.121094,689.375 Z M151.289062,689.316406 C151.289062,692.136733 150.488289,694.289055 148.886719,695.773438 C147.285148,697.25782 145.050796,698 142.183594,698 L137.039062,698 L137.039062,680.667969 L141.84375,680.667969 C143.28907,680.667969 144.582026,680.837889 145.722656,681.177734 C146.863287,681.51758 147.853511,682.0332 148.693359,682.724609 C149.533207,683.416019 150.175779,684.318354 150.621094,685.431641 C151.066408,686.544927 151.289062,687.839836 151.289062,689.316406 Z M163.054688,690.804688 C161.406242,686.015601 160.496095,683.324222 160.324219,682.730469 L157.476562,690.804688 L163.054688,690.804688 Z M165.738281,698 L163.710938,692.503906 L156.796875,692.503906 L154.699219,698 L152.636719,698 L159.292969,680.632812 L161.367188,680.632812 L167.824219,698 L165.738281,698 Z M171.65625,682.285156 L171.65625,688.144531 C171.976564,688.144531 172.638667,688.152344 173.642578,688.167969 C174.646489,688.183594 175.421872,688.191406 175.96875,688.191406 C177.460945,688.191406 178.499997,687.943362 179.085938,687.447266 C179.671878,686.951169 179.964844,686.164068 179.964844,685.085938 C179.964844,684.14062 179.683597,683.437502 179.121094,682.976562 C178.558591,682.515623 177.617194,682.285156 176.296875,682.285156 L171.65625,682.285156 Z M182.765625,698 L180.421875,698 L178.03125,692.5625 C177.382809,691.101555 176.968751,690.222658 176.789062,689.925781 C176.218747,689.964844 175.542973,689.984375 174.761719,689.984375 L171.65625,689.890625 L171.65625,698 L169.582031,698 L169.582031,680.46875 L175.125,680.46875 C175.765628,680.46875 176.332029,680.484375 176.824219,680.515625 C177.316409,680.546875 177.806638,680.603515 178.294922,680.685547 C178.783206,680.767579 179.207029,680.880859 179.566406,681.025391 C179.925783,681.169923 180.261717,681.357421 180.574219,681.587891 C180.88672,681.818361 181.138671,682.093748 181.330078,682.414062 C181.521485,682.734377 181.671874,683.115232 181.78125,683.556641 C181.890626,683.998049 181.945312,684.496091 181.945312,685.050781 C181.945312,686.144537 181.658206,687.085934 181.083984,687.875 C180.509763,688.664066 179.695318,689.210936 178.640625,689.515625 C178.640625,689.53125 178.718749,689.671874 178.875,689.9375 C179.031251,690.203126 179.216796,690.529295 179.431641,690.916016 C179.646485,691.302736 179.812499,691.624999 179.929688,691.882812 L182.765625,698 Z M198.316406,698 L195.832031,698 L189.199219,689.726562 L187.617188,691.121094 L187.617188,698 L185.578125,698 L185.578125,680.667969 L187.617188,680.667969 L187.617188,689.175781 L195.234375,680.667969 L197.777344,680.667969 L190.746094,688.472656 L198.316406,698 Z M207.5625,689.339844 C207.5625,691.566417 208.074214,693.314447 209.097656,694.583984 C210.121099,695.853522 211.632802,696.488281 213.632812,696.488281 C215.632822,696.488281 217.138667,695.855475 218.150391,694.589844 C219.162114,693.324212 219.667969,691.57423 219.667969,689.339844 C219.667969,687.058582 219.158208,685.289069 218.138672,684.03125 C217.119136,682.773431 215.621104,682.144531 213.644531,682.144531 C211.667959,682.144531 210.160161,682.773431 209.121094,684.03125 C208.082026,685.289069 207.5625,687.058582 207.5625,689.339844 Z M221.835938,689.339844 C221.835938,690.660163 221.654299,691.867182 221.291016,692.960938 C220.927733,694.054693 220.4043,694.994137 219.720703,695.779297 C219.037106,696.564457 218.175786,697.173826 217.136719,697.607422 C216.097651,698.041018 214.929694,698.257812 213.632812,698.257812 C211.882804,698.257812 210.384772,697.884769 209.138672,697.138672 C207.892572,696.392574 206.958987,695.353522 206.337891,694.021484 C205.716794,692.689446 205.40625,691.125009 205.40625,689.328125 C205.40625,686.554674 206.128899,684.367196 207.574219,682.765625 C209.019538,681.164054 211.042956,680.363281 213.644531,680.363281 C216.207044,680.363281 218.212883,681.169914 219.662109,682.783203 C221.111335,684.396492 221.835938,686.582017 221.835938,689.339844 Z M238.875,698 L236.578125,698 L227.578125,684.359375 L226.992188,683.550781 C227.054688,685.191414 227.085938,686.656244 227.085938,687.945312 L227.085938,698 L225.1875,698 L225.1875,680.667969 L227.449219,680.667969 L236.472656,694.308594 L237.070312,695.117188 C237.015625,692.624988 236.988281,691.183596 236.988281,690.792969 L236.988281,680.667969 L238.875,680.667969 L238.875,698 Z M248.941406,698 L248.941406,680.667969 L250.980469,680.667969 L250.980469,696.195312 L258.609375,696.195312 L258.539062,698 L248.941406,698 Z M263.027344,698 L261,698 L261,680.667969 L263.027344,680.667969 L263.027344,698 Z M274.792969,698.257812 C273.47265,698.257812 272.287115,698.037112 271.236328,697.595703 C270.185542,697.154295 269.318363,696.537113 268.634766,695.744141 C267.951168,694.951168 267.427736,694.011724 267.064453,692.925781 C266.70117,691.839838 266.519531,690.648444 266.519531,689.351562 C266.519531,687.601554 266.851559,686.054694 267.515625,684.710938 C268.179691,683.367181 269.167962,682.308598 270.480469,681.535156 C271.792975,680.761715 273.347647,680.375 275.144531,680.375 C277.136729,680.375 278.886711,680.82812 280.394531,681.734375 L279.621094,683.410156 C278.167961,682.574215 276.683601,682.15625 275.167969,682.15625 C274.113276,682.15625 273.169926,682.337889 272.337891,682.701172 C271.505855,683.064455 270.826175,683.568356 270.298828,684.212891 C269.771482,684.857425 269.369142,685.61523 269.091797,686.486328 C268.814452,687.357426 268.675781,688.312495 268.675781,689.351562 C268.675781,691.554699 269.224604,693.294915 270.322266,694.572266 C271.419927,695.849616 273.039052,696.488281 275.179688,696.488281 C276.398444,696.488281 277.636712,696.24219 278.894531,695.75 L278.894531,690.804688 L274.804688,690.804688 L274.875,689.035156 L280.792969,689.035156 L280.792969,696.957031 C279.808589,697.425784 278.857426,697.759765 277.939453,697.958984 C277.02148,698.158204 275.972662,698.257812 274.792969,698.257812 Z M297.714844,698 L295.6875,698 L295.6875,689.890625 L286.382812,689.890625 L286.382812,698 L284.355469,698 L284.355469,680.667969 L286.382812,680.667969 L286.382812,688.109375 L295.6875,688.109375 L295.6875,680.667969 L297.714844,680.667969 L297.714844,698 Z M307.207031,698 L305.167969,698 L305.167969,682.460938 L299.835938,682.460938 L299.835938,680.667969 L312.539062,680.667969 L312.539062,682.460938 L307.207031,682.460938 L307.207031,698 Z" id="DARK-ON-LIGHT" fill="#101010"></path>
            <path d="M902.039062,698 L902.039062,680.667969 L904.078125,680.667969 L904.078125,696.195312 L911.707031,696.195312 L911.636719,698 L902.039062,698 Z M916.125,698 L914.097656,698 L914.097656,680.667969 L916.125,680.667969 L916.125,698 Z M927.890625,698.257812 C926.570306,698.257812 925.384771,698.037112 924.333984,697.595703 C923.283198,697.154295 922.416019,696.537113 921.732422,695.744141 C921.048825,694.951168 920.525392,694.011724 920.162109,692.925781 C919.798826,691.839838 919.617188,690.648444 919.617188,689.351562 C919.617188,687.601554 919.949215,686.054694 920.613281,684.710938 C921.277347,683.367181 922.265618,682.308598 923.578125,681.535156 C924.890632,680.761715 926.445304,680.375 928.242188,680.375 C930.234385,680.375 931.984367,680.82812 933.492188,681.734375 L932.71875,683.410156 C931.265618,682.574215 929.781258,682.15625 928.265625,682.15625 C927.210932,682.15625 926.267582,682.337889 925.435547,682.701172 C924.603511,683.064455 923.923831,683.568356 923.396484,684.212891 C922.869138,684.857425 922.466798,685.61523 922.189453,686.486328 C921.912108,687.357426 921.773438,688.312495 921.773438,689.351562 C921.773438,691.554699 922.32226,693.294915 923.419922,694.572266 C924.517584,695.849616 926.136708,696.488281 928.277344,696.488281 C929.4961,696.488281 930.734369,696.24219 931.992188,695.75 L931.992188,690.804688 L927.902344,690.804688 L927.972656,689.035156 L933.890625,689.035156 L933.890625,696.957031 C932.906245,697.425784 931.955083,697.759765 931.037109,697.958984 C930.119136,698.158204 929.070318,698.257812 927.890625,698.257812 Z M950.8125,698 L948.785156,698 L948.785156,689.890625 L939.480469,689.890625 L939.480469,698 L937.453125,698 L937.453125,680.667969 L939.480469,680.667969 L939.480469,688.109375 L948.785156,688.109375 L948.785156,680.667969 L950.8125,680.667969 L950.8125,698 Z M960.304688,698 L958.265625,698 L958.265625,682.460938 L952.933594,682.460938 L952.933594,680.667969 L965.636719,680.667969 L965.636719,682.460938 L960.304688,682.460938 L960.304688,698 Z M975.1875,689.339844 C975.1875,691.566417 975.699214,693.314447 976.722656,694.583984 C977.746099,695.853522 979.257803,696.488281 981.257812,696.488281 C983.257822,696.488281 984.763667,695.855475 985.775391,694.589844 C986.787114,693.324212 987.292969,691.57423 987.292969,689.339844 C987.292969,687.058582 986.783208,685.289069 985.763672,684.03125 C984.744136,682.773431 983.246104,682.144531 981.269531,682.144531 C979.292959,682.144531 977.785161,682.773431 976.746094,684.03125 C975.707026,685.289069 975.1875,687.058582 975.1875,689.339844 Z M989.460938,689.339844 C989.460938,690.660163 989.279299,691.867182 988.916016,692.960938 C988.552733,694.054693 988.0293,694.994137 987.345703,695.779297 C986.662106,696.564457 985.800786,697.173826 984.761719,697.607422 C983.722651,698.041018 982.554694,698.257812 981.257812,698.257812 C979.507804,698.257812 978.009772,697.884769 976.763672,697.138672 C975.517572,696.392574 974.583987,695.353522 973.962891,694.021484 C973.341794,692.689446 973.03125,691.125009 973.03125,689.328125 C973.03125,686.554674 973.753899,684.367196 975.199219,682.765625 C976.644538,681.164054 978.667956,680.363281 981.269531,680.363281 C983.832044,680.363281 985.837883,681.169914 987.287109,682.783203 C988.736335,684.396492 989.460938,686.582017 989.460938,689.339844 Z M1006.5,698 L1004.20312,698 L995.203125,684.359375 L994.617188,683.550781 C994.679688,685.191414 994.710938,686.656244 994.710938,687.945312 L994.710938,698 L992.8125,698 L992.8125,680.667969 L995.074219,680.667969 L1004.09766,694.308594 L1004.69531,695.117188 C1004.64062,692.624988 1004.61328,691.183596 1004.61328,690.792969 L1004.61328,680.667969 L1006.5,680.667969 L1006.5,698 Z M1028.64844,689.375 C1028.64844,686.953113 1028.02344,685.191412 1026.77344,684.089844 C1025.52343,682.988276 1023.70314,682.4375 1021.3125,682.4375 L1018.59375,682.4375 L1018.59375,696.230469 L1021.65234,696.230469 C1023.93361,696.230469 1025.66992,695.654303 1026.86133,694.501953 C1028.05274,693.349604 1028.64844,691.640636 1028.64844,689.375 Z M1030.81641,689.316406 C1030.81641,692.136733 1030.01563,694.289055 1028.41406,695.773438 C1026.81249,697.25782 1024.57814,698 1021.71094,698 L1016.56641,698 L1016.56641,680.667969 L1021.37109,680.667969 C1022.81641,680.667969 1024.10937,680.837889 1025.25,681.177734 C1026.39063,681.51758 1027.38086,682.0332 1028.2207,682.724609 C1029.06055,683.416019 1029.70312,684.318354 1030.14844,685.431641 C1030.59375,686.544927 1030.81641,687.839836 1030.81641,689.316406 Z M1042.58203,690.804688 C1040.93359,686.015601 1040.02344,683.324222 1039.85156,682.730469 L1037.00391,690.804688 L1042.58203,690.804688 Z M1045.26562,698 L1043.23828,692.503906 L1036.32422,692.503906 L1034.22656,698 L1032.16406,698 L1038.82031,680.632812 L1040.89453,680.632812 L1047.35156,698 L1045.26562,698 Z M1051.18359,682.285156 L1051.18359,688.144531 C1051.50391,688.144531 1052.16601,688.152344 1053.16992,688.167969 C1054.17383,688.183594 1054.94922,688.191406 1055.49609,688.191406 C1056.98829,688.191406 1058.02734,687.943362 1058.61328,687.447266 C1059.19922,686.951169 1059.49219,686.164068 1059.49219,685.085938 C1059.49219,684.14062 1059.21094,683.437502 1058.64844,682.976562 C1058.08593,682.515623 1057.14454,682.285156 1055.82422,682.285156 L1051.18359,682.285156 Z M1062.29297,698 L1059.94922,698 L1057.55859,692.5625 C1056.91015,691.101555 1056.49609,690.222658 1056.31641,689.925781 C1055.74609,689.964844 1055.07032,689.984375 1054.28906,689.984375 L1051.18359,689.890625 L1051.18359,698 L1049.10938,698 L1049.10938,680.46875 L1054.65234,680.46875 C1055.29297,680.46875 1055.85937,680.484375 1056.35156,680.515625 C1056.84375,680.546875 1057.33398,680.603515 1057.82227,680.685547 C1058.31055,680.767579 1058.73437,680.880859 1059.09375,681.025391 C1059.45313,681.169923 1059.78906,681.357421 1060.10156,681.587891 C1060.41406,681.818361 1060.66601,682.093748 1060.85742,682.414062 C1061.04883,682.734377 1061.19922,683.115232 1061.30859,683.556641 C1061.41797,683.998049 1061.47266,684.496091 1061.47266,685.050781 C1061.47266,686.144537 1061.18555,687.085934 1060.61133,687.875 C1060.03711,688.664066 1059.22266,689.210936 1058.16797,689.515625 C1058.16797,689.53125 1058.24609,689.671874 1058.40234,689.9375 C1058.55859,690.203126 1058.74414,690.529295 1058.95898,690.916016 C1059.17383,691.302736 1059.33984,691.624999 1059.45703,691.882812 L1062.29297,698 Z M1077.84375,698 L1075.35938,698 L1068.72656,689.726562 L1067.14453,691.121094 L1067.14453,698 L1065.10547,698 L1065.10547,680.667969 L1067.14453,680.667969 L1067.14453,689.175781 L1074.76172,680.667969 L1077.30469,680.667969 L1070.27344,688.472656 L1077.84375,698 Z" id="LIGHT-ON-DARK" fill="#FFFFFF"></path>
        </g>
    </g>
</svg>