<?xml version="1.0" encoding="UTF-8"?>
<svg width="1214px" height="941px" viewBox="0 0 1214 941" version="1.1" xmlns="http://www.w3.org/2000/svg" xmlns:xlink="http://www.w3.org/1999/xlink">
    <!-- Generator: Sketch 50 (54983) - http://www.bohemiancoding.com/sketch -->
    <title>directed graph</title>
    <desc>Created with Sketch.</desc>
    <defs></defs>
    <g id="directed-graph" stroke="none" stroke-width="1" fill="none" fill-rule="evenodd">
        <path d="M498.929688,119.609375 L501.960938,119.609375 C504.575534,119.609375 506.565097,118.924486 507.929688,117.554688 C509.294278,116.184889 509.976562,114.187513 509.976562,111.5625 C509.976562,108.749986 509.273445,106.705736 507.867188,105.429688 C506.46093,104.153639 504.34116,103.515625 501.507812,103.515625 L498.929688,103.515625 L498.929688,119.609375 Z M494.695312,123 L494.695312,100.109375 L501.320312,100.109375 C503.320322,100.109375 505.111971,100.338539 506.695312,100.796875 C508.278654,101.255211 509.640619,101.945308 510.78125,102.867188 C511.921881,103.789067 512.796872,104.976555 513.40625,106.429688 C514.015628,107.88282 514.320312,109.56249 514.320312,111.46875 C514.320312,115.166685 513.20574,118.013011 510.976562,120.007812 C508.747385,122.002614 505.658874,123 501.710938,123 L494.695312,123 Z M518.039062,123 L518.039062,105.828125 L522.132812,105.828125 L522.132812,123 L518.039062,123 Z M518.039062,103.328125 L518.039062,99.828125 L522.148438,99.828125 L522.148438,103.328125 L518.039062,103.328125 Z M526.414062,123 L526.414062,105.828125 L529.851562,105.828125 L530.382812,108.453125 C531.507818,106.651033 533.13801,105.75 535.273438,105.75 C535.721356,105.75 536.085936,105.770833 536.367188,105.8125 L536.304688,109.234375 C535.888019,109.171875 535.455731,109.140625 535.007812,109.140625 C533.497388,109.140625 532.369795,109.541663 531.625,110.34375 C530.880205,111.145837 530.507812,112.26041 530.507812,113.6875 L530.507812,123 L526.414062,123 Z M546.804688,123.328125 C544.044257,123.328125 541.895841,122.533862 540.359375,120.945312 C538.822909,119.356763 538.054688,117.161472 538.054688,114.359375 C538.054688,111.630195 538.778639,109.458341 540.226562,107.84375 C541.674486,106.229159 543.648425,105.416667 546.148438,105.40625 C548.513033,105.40625 550.348952,106.145826 551.65625,107.625 C552.963548,109.104174 553.617188,111.067696 553.617188,113.515625 C553.617188,113.692709 553.614583,113.979165 553.609375,114.375 C553.604167,114.770835 553.601562,115.062499 553.601562,115.25 L542.179688,115.25 C542.221354,116.854175 542.661454,118.09635 543.5,118.976562 C544.338546,119.856775 545.49218,120.296875 546.960938,120.296875 C548.835947,120.296875 550.638012,119.807297 552.367188,118.828125 L552.945312,121.734375 C551.226554,122.79688 549.179699,123.328125 546.804688,123.328125 Z M542.257812,112.671875 L549.757812,112.671875 C549.757812,111.276035 549.440107,110.203129 548.804688,109.453125 C548.169268,108.703121 547.289068,108.328125 546.164062,108.328125 C545.111974,108.328125 544.223962,108.692705 543.5,109.421875 C542.776038,110.151045 542.36198,111.234368 542.257812,112.671875 Z M564.460938,123.328125 C561.835924,123.328125 559.791674,122.546883 558.328125,120.984375 C556.864576,119.421867 556.132812,117.187515 556.132812,114.28125 C556.132812,111.468736 556.901034,109.286466 558.4375,107.734375 C559.973966,106.182284 561.997383,105.40625 564.507812,105.40625 C566.518239,105.40625 568.216139,105.838537 569.601562,106.703125 L568.632812,109.625 C567.216139,108.885413 565.898444,108.515625 564.679688,108.515625 C563.294264,108.515625 562.203129,109.010412 561.40625,110 C560.609371,110.989588 560.210938,112.432282 560.210938,114.328125 C560.210938,116.244801 560.604163,117.70312 561.390625,118.703125 C562.177087,119.70313 563.289055,120.203125 564.726562,120.203125 C566.22657,120.203125 567.669264,119.760421 569.054688,118.875 L569.445312,121.984375 C568.726559,122.463544 567.981775,122.807291 567.210938,123.015625 C566.4401,123.223959 565.523443,123.328125 564.460938,123.328125 Z M579.554688,123.234375 C578.388015,123.234375 577.416671,123.096356 576.640625,122.820312 C575.864579,122.544269 575.257815,122.109378 574.820312,121.515625 C574.38281,120.921872 574.072918,120.221358 573.890625,119.414062 C573.708332,118.606767 573.617188,117.609381 573.617188,116.421875 L573.617188,108.3125 L570.804688,108.3125 L570.960938,106.09375 L573.898438,105.828125 L575.210938,101.171875 L577.710938,101.15625 L577.710938,105.828125 L581.976562,105.828125 L581.976562,108.3125 L577.710938,108.3125 L577.710938,116.5 C577.710938,117.80209 577.898436,118.729164 578.273438,119.28125 C578.648439,119.833336 579.341141,120.109375 580.351562,120.109375 C580.945315,120.109375 581.580726,120.057292 582.257812,119.953125 L582.367188,122.890625 C582.346354,122.890625 582.218751,122.914062 581.984375,122.960938 C581.749999,123.007813 581.526043,123.049479 581.3125,123.085938 C581.098957,123.122396 580.825523,123.15625 580.492188,123.1875 C580.158852,123.21875 579.846356,123.234375 579.554688,123.234375 Z M593.179688,123.328125 C590.419257,123.328125 588.270841,122.533862 586.734375,120.945312 C585.197909,119.356763 584.429688,117.161472 584.429688,114.359375 C584.429688,111.630195 585.153639,109.458341 586.601562,107.84375 C588.049486,106.229159 590.023425,105.416667 592.523438,105.40625 C594.888033,105.40625 596.723952,106.145826 598.03125,107.625 C599.338548,109.104174 599.992188,111.067696 599.992188,113.515625 C599.992188,113.692709 599.989583,113.979165 599.984375,114.375 C599.979167,114.770835 599.976562,115.062499 599.976562,115.25 L588.554688,115.25 C588.596354,116.854175 589.036454,118.09635 589.875,118.976562 C590.713546,119.856775 591.86718,120.296875 593.335938,120.296875 C595.210947,120.296875 597.013012,119.807297 598.742188,118.828125 L599.320312,121.734375 C597.601554,122.79688 595.554699,123.328125 593.179688,123.328125 Z M588.632812,112.671875 L596.132812,112.671875 C596.132812,111.276035 595.815107,110.203129 595.179688,109.453125 C594.544268,108.703121 593.664068,108.328125 592.539062,108.328125 C591.486974,108.328125 590.598962,108.692705 589.875,109.421875 C589.151038,110.151045 588.73698,111.234368 588.632812,112.671875 Z M609.710938,123.328125 C607.471343,123.328125 605.710944,122.505217 604.429688,120.859375 C603.148431,119.213533 602.507812,117.015639 602.507812,114.265625 C602.507812,111.598945 603.145827,109.455737 604.421875,107.835938 C605.697923,106.216138 607.455718,105.40625 609.695312,105.40625 C612.132825,105.40625 613.856766,106.270825 614.867188,108 C614.76302,106.979162 614.710938,105.994796 614.710938,105.046875 L614.710938,99.5 L618.804688,99.234375 L618.804688,123 L615.257812,123 L614.804688,120.65625 C614.627603,120.937501 614.463542,121.179686 614.3125,121.382812 C614.161458,121.585939 613.940106,121.820311 613.648438,122.085938 C613.356769,122.351564 613.041668,122.565103 612.703125,122.726562 C612.364582,122.888022 611.937503,123.028645 611.421875,123.148438 C610.906247,123.26823 610.335941,123.328125 609.710938,123.328125 Z M610.679688,120.21875 C613.429701,120.21875 614.825521,118.348977 614.867188,114.609375 C614.867188,112.494781 614.513024,110.95313 613.804688,109.984375 C613.096351,109.01562 612.03907,108.53125 610.632812,108.53125 C609.40364,108.53125 608.421879,109.023433 607.6875,110.007812 C606.953121,110.992192 606.585938,112.442699 606.585938,114.359375 C606.585938,116.265635 606.953121,117.718745 607.6875,118.71875 C608.421879,119.718755 609.419265,120.21875 610.679688,120.21875 Z M642.054688,123.328125 C638.565087,123.328125 635.838551,122.276052 633.875,120.171875 C631.911449,118.067698 630.929688,115.187518 630.929688,111.53125 C630.929688,109.208322 631.388016,107.164071 632.304688,105.398438 C633.221359,103.632804 634.570304,102.255213 636.351562,101.265625 C638.132821,100.276037 640.236967,99.78125 642.664062,99.78125 C645.445326,99.78125 647.830719,100.380202 649.820312,101.578125 L648.445312,104.734375 C646.54947,103.713537 644.648447,103.203125 642.742188,103.203125 C640.429676,103.203125 638.611986,103.953117 637.289062,105.453125 C635.966139,106.953133 635.304688,108.994779 635.304688,111.578125 C635.304688,114.140638 635.893223,116.166659 637.070312,117.65625 C638.247402,119.145841 639.971343,119.890625 642.242188,119.890625 C643.700528,119.890625 645.023432,119.661461 646.210938,119.203125 L646.210938,113.890625 L641.414062,113.890625 L641.445312,110.5625 L650.195312,110.5625 L650.195312,121.609375 C648.778639,122.192711 647.437506,122.624999 646.171875,122.90625 C644.906244,123.187501 643.533862,123.328125 642.054688,123.328125 Z M654.367188,123 L654.367188,105.828125 L657.804688,105.828125 L658.335938,108.453125 C659.460943,106.651033 661.091135,105.75 663.226562,105.75 C663.674481,105.75 664.039061,105.770833 664.320312,105.8125 L664.257812,109.234375 C663.841144,109.171875 663.408856,109.140625 662.960938,109.140625 C661.450513,109.140625 660.32292,109.541663 659.578125,110.34375 C658.83333,111.145837 658.460938,112.26041 658.460938,113.6875 L658.460938,123 L654.367188,123 Z M671.351562,123.328125 C669.757805,123.328125 668.468755,122.888025 667.484375,122.007812 C666.499995,121.1276 666.007812,119.859383 666.007812,118.203125 C666.007812,116.421866 666.59114,115.101567 667.757812,114.242188 C668.924485,113.382808 670.684884,112.838543 673.039062,112.609375 C673.361981,112.567708 673.710936,112.526042 674.085938,112.484375 C674.460939,112.442708 674.88281,112.401042 675.351562,112.359375 C675.820315,112.317708 676.190103,112.28125 676.460938,112.25 L676.460938,111.34375 C676.460938,110.302078 676.221357,109.544273 675.742188,109.070312 C675.263018,108.596352 674.533859,108.359375 673.554688,108.359375 C672.158847,108.359375 670.434906,108.749996 668.382812,109.53125 C668.372396,109.5 668.200523,109.026046 667.867188,108.109375 C667.533852,107.192704 667.361979,106.723958 667.351562,106.703125 C669.372406,105.838537 671.559884,105.40625 673.914062,105.40625 C676.226574,105.40625 677.908849,105.908849 678.960938,106.914062 C680.013026,107.919276 680.539062,109.546864 680.539062,111.796875 L680.539062,123 L677.507812,123 C677.497396,122.958333 677.382814,122.609378 677.164062,121.953125 C676.945311,121.296872 676.835938,120.947917 676.835938,120.90625 C675.981767,121.739587 675.145837,122.351561 674.328125,122.742188 C673.510413,123.132814 672.518235,123.328125 671.351562,123.328125 Z M672.460938,120.421875 C673.408859,120.421875 674.234371,120.195315 674.9375,119.742188 C675.640629,119.28906 676.143228,118.739587 676.445312,118.09375 L676.445312,114.78125 C676.414062,114.78125 676.140628,114.802083 675.625,114.84375 C675.109372,114.885417 674.830729,114.90625 674.789062,114.90625 C673.132804,115.052084 671.919275,115.364581 671.148438,115.84375 C670.3776,116.322919 669.992188,117.093745 669.992188,118.15625 C669.992188,118.88542 670.205727,119.445311 670.632812,119.835938 C671.059898,120.226564 671.669267,120.421875 672.460938,120.421875 Z M684.664062,130.140625 L684.664062,105.828125 L688.179688,105.828125 L688.617188,108.234375 C689.17969,107.32812 689.927079,106.627607 690.859375,106.132812 C691.791671,105.638018 692.830723,105.390625 693.976562,105.390625 C695.38282,105.390625 696.619786,105.781246 697.6875,106.5625 C698.755214,107.343754 699.565101,108.408847 700.117188,109.757812 C700.669274,111.106778 700.945312,112.6302 700.945312,114.328125 C700.945312,116.984388 700.30209,119.148429 699.015625,120.820312 C697.72916,122.492196 695.98699,123.328125 693.789062,123.328125 C692.705724,123.328125 691.723963,123.111981 690.84375,122.679688 C689.963537,122.247394 689.226565,121.661462 688.632812,120.921875 C688.716146,122.421883 688.757812,123.265624 688.757812,123.453125 L688.757812,129.9375 L684.664062,130.140625 Z M692.914062,120.203125 C694.132819,120.203125 695.093746,119.692713 695.796875,118.671875 C696.500004,117.651037 696.851562,116.192718 696.851562,114.296875 C696.851562,112.369782 696.497399,110.92188 695.789062,109.953125 C695.080726,108.98437 694.09636,108.5 692.835938,108.5 C690.127591,108.5 688.757813,110.343732 688.726562,114.03125 C688.726562,116.156261 689.078121,117.716141 689.78125,118.710938 C690.484379,119.705734 691.528639,120.203125 692.914062,120.203125 Z M704.289062,123 L704.289062,99.5 L708.382812,99.234375 L708.382812,104.1875 C708.382812,104.427085 708.367188,105.09114 708.335938,106.179688 C708.304687,107.268235 708.289062,107.822917 708.289062,107.84375 C709.653653,106.218742 711.486968,105.40625 713.789062,105.40625 C715.705739,105.40625 717.192703,105.955724 718.25,107.054688 C719.307297,108.153651 719.835938,109.843739 719.835938,112.125 L719.835938,123 L715.742188,123 L715.742188,112.578125 C715.742188,111.171868 715.518231,110.140628 715.070312,109.484375 C714.622394,108.828122 713.861985,108.5 712.789062,108.5 C711.872391,108.5 711.059899,108.731769 710.351562,109.195312 C709.643226,109.658856 709.111981,110.255205 708.757812,110.984375 C708.507811,111.942713 708.382812,113.192701 708.382812,114.734375 L708.382812,123 L704.289062,123 Z" id="Directed-Graph" fill="#FFFFFF"></path>
        <path d="M337.803711,455.664062 C339.90919,456.70313 342.165027,457.222656 344.571289,457.222656 C347.533543,457.222656 349.014648,455.873711 349.014648,453.175781 C349.014648,452.300777 348.77995,451.592125 348.310547,451.049805 C347.841143,450.507484 346.98666,450.081382 345.74707,449.771484 L341.727539,448.759766 C338.655909,447.985022 337.120117,446.344414 337.120117,443.837891 C337.120117,441.914704 337.780918,440.486007 339.102539,439.551758 C340.42416,438.617508 342.251616,438.150391 344.584961,438.150391 C345.806321,438.150391 346.95019,438.282551 348.016602,438.546875 C349.083013,438.811199 349.976233,439.166664 350.696289,439.613281 L350.012695,441.541016 C349.402015,441.203774 348.593104,440.902996 347.585938,440.638672 C346.578771,440.374348 345.560227,440.242188 344.530273,440.242188 C341.230778,440.242188 339.581055,441.386056 339.581055,443.673828 C339.581055,444.448572 339.833982,445.070636 340.339844,445.540039 C340.845706,446.009442 341.604487,446.367186 342.616211,446.613281 L346.458008,447.542969 C348.098641,447.934898 349.342769,448.561519 350.19043,449.422852 C351.03809,450.284184 351.461914,451.507805 351.461914,453.09375 C351.461914,455.153656 350.830735,456.705398 349.568359,457.749023 C348.305983,458.792648 346.59018,459.314453 344.420898,459.314453 C342.798494,459.314453 341.356126,459.148114 340.09375,458.81543 C338.831374,458.482746 337.831058,458.088544 337.092773,457.632812 L337.803711,455.664062 Z M354.538086,459 L354.538086,444.001953 L356.452148,444.001953 L356.739258,446.148438 C357.331709,445.410153 358.072261,444.815432 358.960938,444.364258 C359.849614,443.913084 360.808914,443.6875 361.838867,443.6875 C363.570647,443.6875 364.851233,444.172847 365.680664,445.143555 C366.510095,446.114263 366.924805,447.606761 366.924805,449.621094 L366.924805,459 L364.641602,459 C364.641602,452.984345 364.637044,449.762372 364.62793,449.333984 C364.591471,448.057936 364.333987,447.123701 363.855469,446.53125 C363.376951,445.938799 362.577154,445.642578 361.456055,445.642578 C360.280268,445.642578 359.30046,445.925127 358.516602,446.490234 C357.732743,447.055341 357.222332,447.789058 356.985352,448.691406 C356.894205,449.302086 356.848633,450.003902 356.848633,450.796875 L356.848633,459 L354.538086,459 Z M375.05957,457.46875 C376.144211,457.46875 377.098954,457.17025 377.923828,456.573242 C378.748702,455.976234 379.279621,455.17188 379.516602,454.160156 L379.516602,451.630859 C379.471028,451.630859 379.195315,451.653646 378.689453,451.699219 C378.183591,451.744792 377.853191,451.772135 377.698242,451.78125 C375.720368,451.954428 374.341801,452.277992 373.5625,452.751953 C372.783199,453.225914 372.393555,453.986974 372.393555,455.035156 C372.393555,455.837244 372.630531,456.443357 373.104492,456.853516 C373.578453,457.263674 374.230139,457.46875 375.05957,457.46875 Z M380.022461,459 C379.885742,458.416664 379.753581,457.787764 379.625977,457.113281 C378.796545,457.942712 378.017256,458.516925 377.288086,458.835938 C376.558916,459.15495 375.702153,459.314453 374.717773,459.314453 C373.314121,459.314453 372.186202,458.947595 371.333984,458.213867 C370.481767,457.48014 370.055664,456.425137 370.055664,455.048828 C370.055664,453.51757 370.636713,452.382816 371.798828,451.644531 C372.960943,450.906246 374.635731,450.445964 376.823242,450.263672 C377.124025,450.236328 377.577471,450.197591 378.183594,450.147461 C378.789717,450.09733 379.243163,450.058594 379.543945,450.03125 L379.543945,448.705078 C379.543945,447.647781 379.297854,446.863935 378.805664,446.353516 C378.313474,445.843096 377.538742,445.587891 376.481445,445.587891 C375.004875,445.587891 373.514656,445.95247 372.010742,446.681641 C371.965169,446.572265 371.846681,446.255536 371.655273,445.731445 C371.463866,445.207354 371.363607,444.936198 371.354492,444.917969 C372.01986,444.544269 372.810542,444.245769 373.726562,444.022461 C374.642583,443.799153 375.57454,443.6875 376.522461,443.6875 C378.39096,443.6875 379.737626,444.095374 380.5625,444.911133 C381.387374,445.726892 381.799805,447.114574 381.799805,449.074219 L381.799805,459 L380.022461,459 Z M385.764648,459 L385.764648,438.177734 L388.03418,438.041016 L388.03418,450.851562 C388.088867,450.796875 388.170898,450.70573 388.280273,450.578125 C388.389649,450.45052 388.476237,450.354818 388.540039,450.291016 C389.333012,449.425126 391.383773,447.328793 394.692383,444.001953 L397.59082,444.001953 L391.356445,450.318359 L398.02832,459 L395.18457,459 L389.702148,451.617188 L388.03418,453.052734 L388.03418,459 L385.764648,459 Z M405.862305,445.574219 C404.695632,445.574219 403.743168,445.98665 403.004883,446.811523 C402.266598,447.636397 401.833659,448.764316 401.706055,450.195312 L409.62207,450.195312 C409.62207,448.709628 409.287113,447.568038 408.617188,446.770508 C407.947262,445.972978 407.028977,445.574219 405.862305,445.574219 Z M406.313477,459.314453 C404.13508,459.314453 402.419277,458.621752 401.166016,457.236328 C399.912754,455.850905 399.286133,453.95509 399.286133,451.548828 C399.286133,449.224598 399.892247,447.340176 401.104492,445.895508 C402.316738,444.450839 403.911774,443.714844 405.889648,443.6875 C407.749033,443.6875 409.223302,444.323236 410.3125,445.594727 C411.401698,446.866217 411.946289,448.563791 411.946289,450.6875 C411.946289,450.796876 411.94401,450.997394 411.939453,451.289062 C411.934896,451.580731 411.932617,451.790364 411.932617,451.917969 L401.637695,451.917969 C401.665039,453.622404 402.104813,454.950842 402.957031,455.90332 C403.809249,456.855799 404.955396,457.332031 406.395508,457.332031 C407.981453,457.332031 409.571932,456.912765 411.166992,456.074219 L411.522461,457.919922 C410.000318,458.849614 408.264007,459.314453 406.313477,459.314453 Z M419.588867,459.314453 C418.568029,459.314453 417.626957,459.205079 416.765625,458.986328 C415.904293,458.767577 415.204755,458.485028 414.666992,458.138672 L414.954102,456.210938 C416.476245,457.022139 417.971021,457.427734 419.438477,457.427734 C421.662446,457.427734 422.806315,456.643888 422.870117,455.076172 C422.870117,454.410804 422.63314,453.886721 422.15918,453.503906 C421.685219,453.121092 420.755541,452.692711 419.370117,452.21875 L418.235352,451.822266 C416.922845,451.384763 415.986331,450.842451 415.425781,450.195312 C414.865232,449.548174 414.580404,448.741541 414.571289,447.775391 C414.571289,446.599603 415.042964,445.624353 415.986328,444.849609 C416.929692,444.074866 418.221671,443.6875 419.862305,443.6875 C421.557626,443.6875 423.102532,444.015622 424.49707,444.671875 L423.827148,446.421875 C422.414381,445.838539 421.09278,445.546875 419.862305,445.546875 C418.905269,445.546875 418.155602,445.736001 417.613281,446.114258 C417.070961,446.492515 416.799805,447.023434 416.799805,447.707031 C416.799805,448.290368 416.995766,448.736978 417.387695,449.046875 C417.779624,449.356772 418.563471,449.712238 419.739258,450.113281 C420.040041,450.222657 420.418292,450.35026 420.874023,450.496094 C422.387052,450.988284 423.458005,451.569333 424.086914,452.239258 C424.715823,452.909183 425.030273,453.813796 425.030273,454.953125 C425.012044,456.338549 424.515304,457.41178 423.540039,458.172852 C422.564774,458.933923 421.24773,459.314453 419.588867,459.314453 Z" id="Snakes" fill="#FFFFFF"></path>
        <path d="M714.19043,528 L714.19043,507.779297 L716.569336,507.779297 L716.569336,525.894531 L725.469727,525.894531 L725.387695,528 L714.19043,528 Z M732.05957,526.46875 C733.144211,526.46875 734.098954,526.17025 734.923828,525.573242 C735.748702,524.976234 736.279621,524.17188 736.516602,523.160156 L736.516602,520.630859 C736.471028,520.630859 736.195315,520.653646 735.689453,520.699219 C735.183591,520.744792 734.853191,520.772135 734.698242,520.78125 C732.720368,520.954428 731.341801,521.277992 730.5625,521.751953 C729.783199,522.225914 729.393555,522.986974 729.393555,524.035156 C729.393555,524.837244 729.630531,525.443357 730.104492,525.853516 C730.578453,526.263674 731.230139,526.46875 732.05957,526.46875 Z M737.022461,528 C736.885742,527.416664 736.753581,526.787764 736.625977,526.113281 C735.796545,526.942712 735.017256,527.516925 734.288086,527.835938 C733.558916,528.15495 732.702153,528.314453 731.717773,528.314453 C730.314121,528.314453 729.186202,527.947595 728.333984,527.213867 C727.481767,526.48014 727.055664,525.425137 727.055664,524.048828 C727.055664,522.51757 727.636713,521.382816 728.798828,520.644531 C729.960943,519.906246 731.635731,519.445964 733.823242,519.263672 C734.124025,519.236328 734.577471,519.197591 735.183594,519.147461 C735.789717,519.09733 736.243163,519.058594 736.543945,519.03125 L736.543945,517.705078 C736.543945,516.647781 736.297854,515.863935 735.805664,515.353516 C735.313474,514.843096 734.538742,514.587891 733.481445,514.587891 C732.004875,514.587891 730.514656,514.95247 729.010742,515.681641 C728.965169,515.572265 728.846681,515.255536 728.655273,514.731445 C728.463866,514.207354 728.363607,513.936198 728.354492,513.917969 C729.01986,513.544269 729.810542,513.245769 730.726562,513.022461 C731.642583,512.799153 732.57454,512.6875 733.522461,512.6875 C735.39096,512.6875 736.737626,513.095374 737.5625,513.911133 C738.387374,514.726892 738.799805,516.114574 738.799805,518.074219 L738.799805,528 L737.022461,528 Z M747.208008,528.314453 C746.187169,528.314453 745.246098,528.205079 744.384766,527.986328 C743.523433,527.767577 742.823896,527.485028 742.286133,527.138672 L742.573242,525.210938 C744.095385,526.022139 745.590162,526.427734 747.057617,526.427734 C749.281587,526.427734 750.425455,525.643888 750.489258,524.076172 C750.489258,523.410804 750.252281,522.886721 749.77832,522.503906 C749.30436,522.121092 748.374681,521.692711 746.989258,521.21875 L745.854492,520.822266 C744.541986,520.384763 743.605472,519.842451 743.044922,519.195312 C742.484372,518.548174 742.199544,517.741541 742.19043,516.775391 C742.19043,515.599603 742.662105,514.624353 743.605469,513.849609 C744.548833,513.074866 745.840812,512.6875 747.481445,512.6875 C749.176766,512.6875 750.721673,513.015622 752.116211,513.671875 L751.446289,515.421875 C750.033522,514.838539 748.71192,514.546875 747.481445,514.546875 C746.524409,514.546875 745.774742,514.736001 745.232422,515.114258 C744.690101,515.492515 744.418945,516.023434 744.418945,516.707031 C744.418945,517.290368 744.614907,517.736978 745.006836,518.046875 C745.398765,518.356772 746.182611,518.712238 747.358398,519.113281 C747.659181,519.222657 748.037433,519.35026 748.493164,519.496094 C750.006192,519.988284 751.077145,520.569333 751.706055,521.239258 C752.334964,521.909183 752.649414,522.813796 752.649414,523.953125 C752.631185,525.338549 752.134445,526.41178 751.15918,527.172852 C750.183914,527.933923 748.86687,528.314453 747.208008,528.314453 Z M761.65918,514.574219 C760.492507,514.574219 759.540043,514.98665 758.801758,515.811523 C758.063473,516.636397 757.630534,517.764316 757.50293,519.195312 L765.418945,519.195312 C765.418945,517.709628 765.083988,516.568038 764.414062,515.770508 C763.744137,514.972978 762.825852,514.574219 761.65918,514.574219 Z M762.110352,528.314453 C759.931955,528.314453 758.216152,527.621752 756.962891,526.236328 C755.709629,524.850905 755.083008,522.95509 755.083008,520.548828 C755.083008,518.224598 755.689122,516.340176 756.901367,514.895508 C758.113613,513.450839 759.708649,512.714844 761.686523,512.6875 C763.545908,512.6875 765.020177,513.323236 766.109375,514.594727 C767.198573,515.866217 767.743164,517.563791 767.743164,519.6875 C767.743164,519.796876 767.740885,519.997394 767.736328,520.289062 C767.731771,520.580731 767.729492,520.790364 767.729492,520.917969 L757.43457,520.917969 C757.461914,522.622404 757.901688,523.950842 758.753906,524.90332 C759.606124,525.855799 760.752271,526.332031 762.192383,526.332031 C763.778328,526.332031 765.368807,525.912765 766.963867,525.074219 L767.319336,526.919922 C765.797193,527.849614 764.060882,528.314453 762.110352,528.314453 Z M777.641602,512.865234 C778.05176,512.865234 778.425454,512.892578 778.762695,512.947266 L778.680664,515.052734 C778.261391,514.979817 777.896811,514.943359 777.586914,514.943359 C776.310866,514.943359 775.274093,515.387691 774.476562,516.276367 C773.679032,517.165044 773.280273,518.265618 773.280273,519.578125 L773.280273,528 L770.99707,528 C770.987956,518.794225 770.983398,513.794926 770.983398,513.001953 L772.883789,513.001953 L773.102539,515.695312 C773.622073,514.847652 774.282874,514.164065 775.084961,513.644531 C775.887048,513.124997 776.739253,512.865234 777.641602,512.865234 Z M785.584961,528.314453 C784.564122,528.314453 783.623051,528.205079 782.761719,527.986328 C781.900386,527.767577 781.200849,527.485028 780.663086,527.138672 L780.950195,525.210938 C782.472338,526.022139 783.967115,526.427734 785.43457,526.427734 C787.65854,526.427734 788.802409,525.643888 788.866211,524.076172 C788.866211,523.410804 788.629234,522.886721 788.155273,522.503906 C787.681313,522.121092 786.751635,521.692711 785.366211,521.21875 L784.231445,520.822266 C782.918939,520.384763 781.982425,519.842451 781.421875,519.195312 C780.861325,518.548174 780.576497,517.741541 780.567383,516.775391 C780.567383,515.599603 781.039058,514.624353 781.982422,513.849609 C782.925786,513.074866 784.217765,512.6875 785.858398,512.6875 C787.553719,512.6875 789.098626,513.015622 790.493164,513.671875 L789.823242,515.421875 C788.410475,514.838539 787.088873,514.546875 785.858398,514.546875 C784.901362,514.546875 784.151695,514.736001 783.609375,515.114258 C783.067055,515.492515 782.795898,516.023434 782.795898,516.707031 C782.795898,517.290368 782.99186,517.736978 783.383789,518.046875 C783.775718,518.356772 784.559564,518.712238 785.735352,519.113281 C786.036134,519.222657 786.414386,519.35026 786.870117,519.496094 C788.383146,519.988284 789.454098,520.569333 790.083008,521.239258 C790.711917,521.909183 791.026367,522.813796 791.026367,523.953125 C791.008138,525.338549 790.511398,526.41178 789.536133,527.172852 C788.560868,527.933923 787.243823,528.314453 785.584961,528.314453 Z" id="Lasers" fill="#FFFFFF"></path>
        <path d="M441.700195,679.664062 C443.805675,680.70313 446.061511,681.222656 448.467773,681.222656 C451.430028,681.222656 452.911133,679.873711 452.911133,677.175781 C452.911133,676.300777 452.676435,675.592125 452.207031,675.049805 C451.737628,674.507484 450.883144,674.081382 449.643555,673.771484 L445.624023,672.759766 C442.552393,671.985022 441.016602,670.344414 441.016602,667.837891 C441.016602,665.914704 441.677402,664.486007 442.999023,663.551758 C444.320645,662.617508 446.1481,662.150391 448.481445,662.150391 C449.702806,662.150391 450.846674,662.282551 451.913086,662.546875 C452.979498,662.811199 453.872718,663.166664 454.592773,663.613281 L453.90918,665.541016 C453.2985,665.203774 452.489588,664.902996 451.482422,664.638672 C450.475255,664.374348 449.456711,664.242188 448.426758,664.242188 C445.127262,664.242188 443.477539,665.386056 443.477539,667.673828 C443.477539,668.448572 443.730466,669.070636 444.236328,669.540039 C444.74219,670.009442 445.500972,670.367186 446.512695,670.613281 L450.354492,671.542969 C451.995125,671.934898 453.239254,672.561519 454.086914,673.422852 C454.934575,674.284184 455.358398,675.507805 455.358398,677.09375 C455.358398,679.153656 454.72722,680.705398 453.464844,681.749023 C452.202468,682.792648 450.486664,683.314453 448.317383,683.314453 C446.694979,683.314453 445.25261,683.148114 443.990234,682.81543 C442.727858,682.482746 441.727543,682.088544 440.989258,681.632812 L441.700195,679.664062 Z M458.43457,689.507812 L458.43457,668.001953 L460.444336,668.001953 L460.663086,670.039062 C461.975593,668.471346 463.5524,667.6875 465.393555,667.6875 C466.760749,667.6875 467.91829,668.029293 468.866211,668.712891 C469.814132,669.396488 470.51367,670.321609 470.964844,671.488281 C471.416018,672.654954 471.641602,674.01757 471.641602,675.576172 C471.641602,677.070971 471.39551,678.399408 470.90332,679.561523 C470.41113,680.723639 469.688807,681.639645 468.736328,682.30957 C467.783849,682.979496 466.669603,683.314453 465.393555,683.314453 C464.427404,683.314453 463.520512,683.097984 462.672852,682.665039 C461.825191,682.232094 461.146161,681.66016 460.635742,680.949219 C460.69043,681.933599 460.717773,682.89062 460.717773,683.820312 L460.717773,689.357422 L458.43457,689.507812 Z M465.079102,681.386719 C465.771813,681.386719 466.391599,681.229494 466.938477,680.915039 C467.485354,680.600584 467.927407,680.169925 468.264648,679.623047 C468.60189,679.076169 468.857095,678.454105 469.030273,677.756836 C469.203451,677.059567 469.290039,676.305343 469.290039,675.494141 C469.290039,673.78059 468.930017,672.37468 468.209961,671.276367 C467.489905,670.178054 466.437181,669.628906 465.051758,669.628906 C462.153306,669.628906 460.704102,671.501934 460.704102,675.248047 C460.704102,677.280609 461.043616,678.811844 461.722656,679.841797 C462.401696,680.87175 463.5205,681.386719 465.079102,681.386719 Z M477.547852,668.001953 L477.547852,683 L475.250977,683 L475.250977,668.001953 L477.547852,668.001953 Z M477.547852,662.546875 L477.547852,665.253906 L475.250977,665.253906 L475.250977,662.546875 L477.547852,662.546875 Z M481.868164,683 L481.868164,662.177734 L484.137695,662.041016 L484.137695,674.851562 C484.192383,674.796875 484.274414,674.70573 484.383789,674.578125 C484.493165,674.45052 484.579752,674.354818 484.643555,674.291016 C485.436527,673.425126 487.487288,671.328793 490.795898,668.001953 L493.694336,668.001953 L487.459961,674.318359 L494.131836,683 L491.288086,683 L485.805664,675.617188 L484.137695,677.052734 L484.137695,683 L481.868164,683 Z M501.96582,669.574219 C500.799148,669.574219 499.846683,669.98665 499.108398,670.811523 C498.370113,671.636397 497.937175,672.764316 497.80957,674.195312 L505.725586,674.195312 C505.725586,672.709628 505.390628,671.568038 504.720703,670.770508 C504.050778,669.972978 503.132493,669.574219 501.96582,669.574219 Z M502.416992,683.314453 C500.238596,683.314453 498.522793,682.621752 497.269531,681.236328 C496.01627,679.850905 495.389648,677.95509 495.389648,675.548828 C495.389648,673.224598 495.995762,671.340176 497.208008,669.895508 C498.420253,668.450839 500.01529,667.714844 501.993164,667.6875 C503.852548,667.6875 505.326817,668.323236 506.416016,669.594727 C507.505214,670.866217 508.049805,672.563791 508.049805,674.6875 C508.049805,674.796876 508.047526,674.997394 508.042969,675.289062 C508.038411,675.580731 508.036133,675.790364 508.036133,675.917969 L497.741211,675.917969 C497.768555,677.622404 498.208329,678.950842 499.060547,679.90332 C499.912765,680.855799 501.058912,681.332031 502.499023,681.332031 C504.084969,681.332031 505.675448,680.912765 507.270508,680.074219 L507.625977,681.919922 C506.103834,682.849614 504.367523,683.314453 502.416992,683.314453 Z M515.692383,683.314453 C514.671544,683.314453 513.730473,683.205079 512.869141,682.986328 C512.007808,682.767577 511.308271,682.485028 510.770508,682.138672 L511.057617,680.210938 C512.57976,681.022139 514.074537,681.427734 515.541992,681.427734 C517.765962,681.427734 518.90983,680.643888 518.973633,679.076172 C518.973633,678.410804 518.736656,677.886721 518.262695,677.503906 C517.788735,677.121092 516.859056,676.692711 515.473633,676.21875 L514.338867,675.822266 C513.026361,675.384763 512.089847,674.842451 511.529297,674.195312 C510.968747,673.548174 510.683919,672.741541 510.674805,671.775391 C510.674805,670.599603 511.14648,669.624353 512.089844,668.849609 C513.033208,668.074866 514.325187,667.6875 515.96582,667.6875 C517.661141,667.6875 519.206048,668.015622 520.600586,668.671875 L519.930664,670.421875 C518.517897,669.838539 517.196295,669.546875 515.96582,669.546875 C515.008784,669.546875 514.259117,669.736001 513.716797,670.114258 C513.174476,670.492515 512.90332,671.023434 512.90332,671.707031 C512.90332,672.290368 513.099282,672.736978 513.491211,673.046875 C513.88314,673.356772 514.666986,673.712238 515.842773,674.113281 C516.143556,674.222657 516.521808,674.35026 516.977539,674.496094 C518.490567,674.988284 519.56152,675.569333 520.19043,676.239258 C520.819339,676.909183 521.133789,677.813796 521.133789,678.953125 C521.11556,680.338549 520.61882,681.41178 519.643555,682.172852 C518.668289,682.933923 517.351245,683.314453 515.692383,683.314453 Z" id="Spikes" fill="#FFFFFF"></path>
        <path d="M740.339844,266 L740.339844,245.779297 L742.71875,245.779297 L742.71875,263.894531 L751.619141,263.894531 L751.537109,266 L740.339844,266 Z M758.208984,264.46875 C759.293625,264.46875 760.248368,264.17025 761.073242,263.573242 C761.898116,262.976234 762.429035,262.17188 762.666016,261.160156 L762.666016,258.630859 C762.620442,258.630859 762.344729,258.653646 761.838867,258.699219 C761.333005,258.744792 761.002605,258.772135 760.847656,258.78125 C758.869782,258.954428 757.491215,259.277992 756.711914,259.751953 C755.932613,260.225914 755.542969,260.986974 755.542969,262.035156 C755.542969,262.837244 755.779946,263.443357 756.253906,263.853516 C756.727867,264.263674 757.379553,264.46875 758.208984,264.46875 Z M763.171875,266 C763.035156,265.416664 762.902995,264.787764 762.775391,264.113281 C761.945959,264.942712 761.16667,265.516925 760.4375,265.835938 C759.70833,266.15495 758.851567,266.314453 757.867188,266.314453 C756.463535,266.314453 755.335616,265.947595 754.483398,265.213867 C753.631181,264.48014 753.205078,263.425137 753.205078,262.048828 C753.205078,260.51757 753.786127,259.382816 754.948242,258.644531 C756.110357,257.906246 757.785145,257.445964 759.972656,257.263672 C760.273439,257.236328 760.726885,257.197591 761.333008,257.147461 C761.939131,257.09733 762.392577,257.058594 762.693359,257.03125 L762.693359,255.705078 C762.693359,254.647781 762.447268,253.863935 761.955078,253.353516 C761.462888,252.843096 760.688156,252.587891 759.630859,252.587891 C758.154289,252.587891 756.66407,252.95247 755.160156,253.681641 C755.114583,253.572265 754.996095,253.255536 754.804688,252.731445 C754.61328,252.207354 754.513021,251.936198 754.503906,251.917969 C755.169274,251.544269 755.959956,251.245769 756.875977,251.022461 C757.791997,250.799153 758.723954,250.6875 759.671875,250.6875 C761.540374,250.6875 762.88704,251.095374 763.711914,251.911133 C764.536788,252.726892 764.949219,254.114574 764.949219,256.074219 L764.949219,266 L763.171875,266 Z M772.728516,266 L766.917969,251.001953 L769.365234,251.001953 L772.673828,259.916016 L774.041016,263.716797 C774.350913,262.741532 774.779294,261.483732 775.326172,259.943359 C776.018884,258.001943 777.094394,255.021504 778.552734,251.001953 L780.986328,251.001953 L775.216797,266 L772.728516,266 Z M787.316406,264.46875 C788.401047,264.46875 789.35579,264.17025 790.180664,263.573242 C791.005538,262.976234 791.536457,262.17188 791.773438,261.160156 L791.773438,258.630859 C791.727864,258.630859 791.452151,258.653646 790.946289,258.699219 C790.440427,258.744792 790.110027,258.772135 789.955078,258.78125 C787.977204,258.954428 786.598637,259.277992 785.819336,259.751953 C785.040035,260.225914 784.650391,260.986974 784.650391,262.035156 C784.650391,262.837244 784.887367,263.443357 785.361328,263.853516 C785.835289,264.263674 786.486975,264.46875 787.316406,264.46875 Z M792.279297,266 C792.142577,265.416664 792.010417,264.787764 791.882812,264.113281 C791.053381,264.942712 790.274092,265.516925 789.544922,265.835938 C788.815752,266.15495 787.958989,266.314453 786.974609,266.314453 C785.570957,266.314453 784.443038,265.947595 783.59082,265.213867 C782.738603,264.48014 782.3125,263.425137 782.3125,262.048828 C782.3125,260.51757 782.893549,259.382816 784.055664,258.644531 C785.217779,257.906246 786.892567,257.445964 789.080078,257.263672 C789.380861,257.236328 789.834307,257.197591 790.44043,257.147461 C791.046553,257.09733 791.499998,257.058594 791.800781,257.03125 L791.800781,255.705078 C791.800781,254.647781 791.55469,253.863935 791.0625,253.353516 C790.57031,252.843096 789.795578,252.587891 788.738281,252.587891 C787.261711,252.587891 785.771492,252.95247 784.267578,253.681641 C784.222005,253.572265 784.103517,253.255536 783.912109,252.731445 C783.720702,252.207354 783.620443,251.936198 783.611328,251.917969 C784.276696,251.544269 785.067378,251.245769 785.983398,251.022461 C786.899419,250.799153 787.831375,250.6875 788.779297,250.6875 C790.647796,250.6875 791.994462,251.095374 792.819336,251.911133 C793.64421,252.726892 794.056641,254.114574 794.056641,256.074219 L794.056641,266 L792.279297,266 Z" id="Lava" fill="#FFFFFF"></path>
        <path d="M781.678711,755 L779.258789,755 L779.258789,734.546875 L785.848633,734.546875 C786.851242,734.546875 787.758134,734.651692 788.569336,734.861328 C789.380538,735.070965 790.100583,735.389972 790.729492,735.818359 C791.358402,736.246747 791.846027,736.82096 792.192383,737.541016 C792.538739,738.261071 792.711914,739.099605 792.711914,740.056641 C792.711914,740.849613 792.638998,741.558265 792.493164,742.182617 C792.34733,742.806969 792.096681,743.392575 791.741211,743.939453 C791.38574,744.486331 790.920901,744.939777 790.34668,745.299805 C789.772458,745.659833 789.036463,745.942382 788.138672,746.147461 C787.240881,746.35254 786.19955,746.455078 785.014648,746.455078 C784.075842,746.455078 782.963874,746.395834 781.678711,746.277344 L781.678711,755 Z M785.24707,744.363281 C786.140304,744.363281 786.905921,744.276694 787.543945,744.103516 C788.181969,743.930338 788.671873,743.716147 789.013672,743.460938 C789.35547,743.205728 789.624348,742.873049 789.820312,742.462891 C790.016277,742.052732 790.137044,741.67676 790.182617,741.334961 C790.22819,740.993162 790.250977,740.580732 790.250977,740.097656 C790.250977,738.940098 789.861332,738.087893 789.082031,737.541016 C788.30273,736.994138 787.243171,736.720703 785.90332,736.720703 L781.678711,736.720703 L781.678711,744.335938 C783.437834,744.354167 784.627276,744.363281 785.24707,744.363281 Z M797.756836,740.001953 L797.756836,755 L795.459961,755 L795.459961,740.001953 L797.756836,740.001953 Z M797.756836,734.546875 L797.756836,737.253906 L795.459961,737.253906 L795.459961,734.546875 L797.756836,734.546875 Z M808.776367,739.865234 C809.186525,739.865234 809.56022,739.892578 809.897461,739.947266 L809.81543,742.052734 C809.396157,741.979817 809.031577,741.943359 808.72168,741.943359 C807.445632,741.943359 806.408858,742.387691 805.611328,743.276367 C804.813798,744.165044 804.415039,745.265618 804.415039,746.578125 L804.415039,755 L802.131836,755 C802.122721,745.794225 802.118164,740.794926 802.118164,740.001953 L804.018555,740.001953 L804.237305,742.695312 C804.756839,741.847652 805.417639,741.164065 806.219727,740.644531 C807.021814,740.124997 807.874019,739.865234 808.776367,739.865234 Z M816.583008,753.46875 C817.667649,753.46875 818.622392,753.17025 819.447266,752.573242 C820.27214,751.976234 820.803059,751.17188 821.040039,750.160156 L821.040039,747.630859 C820.994466,747.630859 820.718753,747.653646 820.212891,747.699219 C819.707029,747.744792 819.376628,747.772135 819.22168,747.78125 C817.243805,747.954428 815.865238,748.277992 815.085938,748.751953 C814.306637,749.225914 813.916992,749.986974 813.916992,751.035156 C813.916992,751.837244 814.153969,752.443357 814.62793,752.853516 C815.10189,753.263674 815.753577,753.46875 816.583008,753.46875 Z M821.545898,755 C821.409179,754.416664 821.277019,753.787764 821.149414,753.113281 C820.319983,753.942712 819.540694,754.516925 818.811523,754.835938 C818.082353,755.15495 817.225591,755.314453 816.241211,755.314453 C814.837558,755.314453 813.70964,754.947595 812.857422,754.213867 C812.005204,753.48014 811.579102,752.425137 811.579102,751.048828 C811.579102,749.51757 812.16015,748.382816 813.322266,747.644531 C814.484381,746.906246 816.159169,746.445964 818.34668,746.263672 C818.647462,746.236328 819.100908,746.197591 819.707031,746.147461 C820.313154,746.09733 820.7666,746.058594 821.067383,746.03125 L821.067383,744.705078 C821.067383,743.647781 820.821292,742.863935 820.329102,742.353516 C819.836912,741.843096 819.06218,741.587891 818.004883,741.587891 C816.528313,741.587891 815.038093,741.95247 813.53418,742.681641 C813.488607,742.572265 813.370118,742.255536 813.178711,741.731445 C812.987304,741.207354 812.887044,740.936198 812.87793,740.917969 C813.543298,740.544269 814.33398,740.245769 815.25,740.022461 C816.16602,739.799153 817.097977,739.6875 818.045898,739.6875 C819.914397,739.6875 821.261064,740.095374 822.085938,740.911133 C822.910811,741.726892 823.323242,743.114574 823.323242,745.074219 L823.323242,755 L821.545898,755 Z M827.260742,755 L827.260742,740.001953 L829.174805,740.001953 L829.461914,742.148438 C830.054365,741.410153 830.794917,740.815432 831.683594,740.364258 C832.57227,739.913084 833.53157,739.6875 834.561523,739.6875 C836.293303,739.6875 837.573889,740.172847 838.40332,741.143555 C839.232752,742.114263 839.647461,743.606761 839.647461,745.621094 L839.647461,755 L837.364258,755 C837.364258,748.984345 837.359701,745.762372 837.350586,745.333984 C837.314127,744.057936 837.056643,743.123701 836.578125,742.53125 C836.099607,741.938799 835.29981,741.642578 834.178711,741.642578 C833.002924,741.642578 832.023116,741.925127 831.239258,742.490234 C830.4554,743.055341 829.944988,743.789058 829.708008,744.691406 C829.616862,745.302086 829.571289,746.003902 829.571289,746.796875 L829.571289,755 L827.260742,755 Z M853.551758,755 L853.551758,745.935547 C853.551758,744.431633 853.312502,743.337894 852.833984,742.654297 C852.355466,741.9707 851.519212,741.628906 850.325195,741.628906 C849.176752,741.628906 848.208337,741.916013 847.419922,742.490234 C846.631506,743.064456 846.118816,743.807287 845.881836,744.71875 C845.799804,745.402347 845.758789,746.163407 845.758789,747.001953 L845.758789,755 L843.475586,755 L843.475586,734.177734 L845.758789,734.041016 L845.758789,740.138672 C845.758789,740.658206 845.74056,741.300777 845.704102,742.066406 C846.989264,740.480461 848.693674,739.6875 850.817383,739.6875 C854.162452,739.6875 855.834961,741.651673 855.834961,745.580078 L855.834961,755 L853.551758,755 Z M862.985352,753.46875 C864.069992,753.46875 865.024735,753.17025 865.849609,752.573242 C866.674483,751.976234 867.205402,751.17188 867.442383,750.160156 L867.442383,747.630859 C867.39681,747.630859 867.121096,747.653646 866.615234,747.699219 C866.109372,747.744792 865.778972,747.772135 865.624023,747.78125 C863.646149,747.954428 862.267582,748.277992 861.488281,748.751953 C860.70898,749.225914 860.319336,749.986974 860.319336,751.035156 C860.319336,751.837244 860.556313,752.443357 861.030273,752.853516 C861.504234,753.263674 862.15592,753.46875 862.985352,753.46875 Z M867.948242,755 C867.811523,754.416664 867.679363,753.787764 867.551758,753.113281 C866.722327,753.942712 865.943037,754.516925 865.213867,754.835938 C864.484697,755.15495 863.627935,755.314453 862.643555,755.314453 C861.239902,755.314453 860.111983,754.947595 859.259766,754.213867 C858.407548,753.48014 857.981445,752.425137 857.981445,751.048828 C857.981445,749.51757 858.562494,748.382816 859.724609,747.644531 C860.886725,746.906246 862.561513,746.445964 864.749023,746.263672 C865.049806,746.236328 865.503252,746.197591 866.109375,746.147461 C866.715498,746.09733 867.168944,746.058594 867.469727,746.03125 L867.469727,744.705078 C867.469727,743.647781 867.223635,742.863935 866.731445,742.353516 C866.239255,741.843096 865.464524,741.587891 864.407227,741.587891 C862.930657,741.587891 861.440437,741.95247 859.936523,742.681641 C859.89095,742.572265 859.772462,742.255536 859.581055,741.731445 C859.389647,741.207354 859.289388,740.936198 859.280273,740.917969 C859.945641,740.544269 860.736324,740.245769 861.652344,740.022461 C862.568364,739.799153 863.500321,739.6875 864.448242,739.6875 C866.316741,739.6875 867.663407,740.095374 868.488281,740.911133 C869.313155,741.726892 869.725586,743.114574 869.725586,745.074219 L869.725586,755 L867.948242,755 Z M878.133789,755.314453 C877.112951,755.314453 876.171879,755.205079 875.310547,754.986328 C874.449214,754.767577 873.749677,754.485028 873.211914,754.138672 L873.499023,752.210938 C875.021166,753.022139 876.515943,753.427734 877.983398,753.427734 C880.207368,753.427734 881.351237,752.643888 881.415039,751.076172 C881.415039,750.410804 881.178062,749.886721 880.704102,749.503906 C880.230141,749.121092 879.300463,748.692711 877.915039,748.21875 L876.780273,747.822266 C875.467767,747.384763 874.531253,746.842451 873.970703,746.195312 C873.410153,745.548174 873.125326,744.741541 873.116211,743.775391 C873.116211,742.599603 873.587886,741.624353 874.53125,740.849609 C875.474614,740.074866 876.766593,739.6875 878.407227,739.6875 C880.102548,739.6875 881.647454,740.015622 883.041992,740.671875 L882.37207,742.421875 C880.959303,741.838539 879.637701,741.546875 878.407227,741.546875 C877.450191,741.546875 876.700524,741.736001 876.158203,742.114258 C875.615883,742.492515 875.344727,743.023434 875.344727,743.707031 C875.344727,744.290368 875.540688,744.736978 875.932617,745.046875 C876.324546,745.356772 877.108393,745.712238 878.28418,746.113281 C878.584962,746.222657 878.963214,746.35026 879.418945,746.496094 C880.931974,746.988284 882.002927,747.569333 882.631836,748.239258 C883.260745,748.909183 883.575195,749.813796 883.575195,750.953125 C883.556966,752.338549 883.060226,753.41178 882.084961,754.172852 C881.109696,754.933923 879.792652,755.314453 878.133789,755.314453 Z" id="Piranhas" fill="#FFFFFF"></path>
        <path d="M380.5,515 C343.773064,515 314,485.226936 314,448.5 C314,411.773064 343.773064,382 380.5,382 C417.226936,382 447,411.773064 447,448.5 C447,485.226936 417.226936,515 380.5,515 Z M380.5,511 C415.017797,511 443,483.017797 443,448.5 C443,413.982203 415.017797,386 380.5,386 C345.982203,386 318,413.982203 318,448.5 C318,483.017797 345.982203,511 380.5,511 Z" id="Oval-2" fill="#FFFFFF" fill-rule="nonzero"></path>
        <path d="M751.5,584 C714.773064,584 685,554.226936 685,517.5 C685,480.773064 714.773064,451 751.5,451 C788.226936,451 818,480.773064 818,517.5 C818,554.226936 788.226936,584 751.5,584 Z M751.5,580 C786.017797,580 814,552.017797 814,517.5 C814,482.982203 786.017797,455 751.5,455 C716.982203,455 689,482.982203 689,517.5 C689,552.017797 716.982203,580 751.5,580 Z" id="Oval-2-Copy" fill="#FFFFFF" fill-rule="nonzero"></path>
        <polygon id="Line" fill="#FFFFFF" fill-rule="nonzero" points="755.326213 454.659848 751.340152 454.326213 761.173787 336.840152 765.159848 337.173787"></polygon>
        <path d="M480.5,739 C443.773064,739 414,709.226936 414,672.5 C414,635.773064 443.773064,606 480.5,606 C517.226936,606 547,635.773064 547,672.5 C547,709.226936 517.226936,739 480.5,739 Z M480.5,735 C515.017797,735 543,707.017797 543,672.5 C543,637.982203 515.017797,610 480.5,610 C445.982203,610 418,637.982203 418,672.5 C418,707.017797 445.982203,735 480.5,735 Z" id="Oval-2-Copy-2" fill="#FFFFFF" fill-rule="nonzero"></path>
        <path d="M766.5,322 C729.773064,322 700,292.226936 700,255.5 C700,218.773064 729.773064,189 766.5,189 C803.226936,189 833,218.773064 833,255.5 C833,292.226936 803.226936,322 766.5,322 Z M766.5,318 C801.017797,318 829,290.017797 829,255.5 C829,220.982203 801.017797,193 766.5,193 C731.982203,193 704,220.982203 704,255.5 C704,290.017797 731.982203,318 766.5,318 Z" id="Oval-2-Copy-3" fill="#FFFFFF" fill-rule="nonzero"></path>
        <path d="M830.5,811 C793.773064,811 764,781.226936 764,744.5 C764,707.773064 793.773064,678 830.5,678 C867.226936,678 897,707.773064 897,744.5 C897,781.226936 867.226936,811 830.5,811 Z M830.5,807 C865.017797,807 893,779.017797 893,744.5 C893,709.982203 865.017797,682 830.5,682 C795.982203,682 768,709.982203 768,744.5 C768,779.017797 795.982203,807 830.5,807 Z" id="Oval-2-Copy-4" fill="#FFFFFF" fill-rule="nonzero"></path>
        <polygon id="Line-4" fill="#FFFFFF" fill-rule="nonzero" points="453.157164 405.699931 451.300069 402.157164 702.842836 270.300069 704.699931 273.842836"></polygon>
        <polygon id="Line-2" fill="#FFFFFF" fill-rule="nonzero" points="535.293613 640.738799 533.261201 637.293613 675.706387 553.261201 677.738799 556.706387"></polygon>
        <polygon id="Line-5" fill="#FFFFFF" fill-rule="nonzero" points="392.270262 512.259373 395.740627 510.270262 444.729738 595.740627 441.259373 597.729738"></polygon>
        <polygon id="Line-3" fill="#FFFFFF" fill-rule="nonzero" points="763.899117 580.388511 767.611489 578.899117 802.600883 666.111489 798.888511 667.600883"></polygon>
        <polygon id="Triangle" fill="#FFFFFF" fill-rule="nonzero" transform="translate(461.203031, 397.954705) rotate(-120.000000) translate(-461.203031, -397.954705) " points="443.280478 409.930191 440.42708 407.126958 461.203031 385.97922 481.978981 407.126958 479.125583 409.930191 461.203031 391.686913"></polygon>
        <polygon id="Triangle-Copy" fill="#FFFFFF" fill-rule="nonzero" transform="translate(438.680820, 588.476916) rotate(-210.000000) translate(-438.680820, -588.476916) " points="420.758268 600.452402 417.90487 597.649168 438.68082 576.50143 459.456771 597.649168 456.603373 600.452402 438.68082 582.209124"></polygon>
        <polygon id="Triangle-Copy-3" fill="#FFFFFF" fill-rule="nonzero" transform="translate(668.993743, 557.971408) rotate(-299.000000) translate(-668.993743, -557.971408) " points="651.07119 569.946894 648.217793 567.14366 668.993743 545.995922 689.769694 567.14366 686.916296 569.946894 668.993743 551.703615"></polygon>
        <g id="Group" transform="translate(651.653248, 730.219674) rotate(-144.000000) translate(-651.653248, -730.219674) translate(551.653248, 675.719674)" fill="#FFFFFF" fill-rule="nonzero">
            <polygon id="Line-2-Copy" points="-0.964411215 110.65893 -2.65893043 107.035589 187.858228 17.9369013 189.552747 21.560243"></polygon>
            <polygon id="Triangle-Copy-5" transform="translate(181.481732, 21.889010) rotate(-299.000000) translate(-181.481732, -21.889010) " points="163.559179 33.8644962 160.705781 31.0612623 181.481732 9.91352435 202.257682 31.0612623 199.404284 33.8644962 181.481732 15.621218"></polygon>
        </g>
        <polygon id="Triangle-Copy-4" fill="#FFFFFF" fill-rule="nonzero" transform="translate(762.272625, 345.090240) rotate(-354.000000) translate(-762.272625, -345.090240) " points="744.350072 357.065726 741.496674 354.262492 762.272625 333.114754 783.048575 354.262492 780.195177 357.065726 762.272625 338.822447"></polygon>
        <polygon id="Triangle-Copy-2" fill="#FFFFFF" fill-rule="nonzero" transform="translate(796.680820, 656.476916) rotate(-202.000000) translate(-796.680820, -656.476916) " points="778.758268 668.452402 775.90487 665.649168 796.68082 644.50143 817.456771 665.649168 814.603373 668.452402 796.68082 650.209124"></polygon>
    </g>
</svg>