<?xml version="1.0" encoding="UTF-8"?>
<svg width="1214px" height="941px" viewBox="0 0 1214 941" version="1.1" xmlns="http://www.w3.org/2000/svg" xmlns:xlink="http://www.w3.org/1999/xlink">
    <!-- Generator: Sketch 51.2 (57519) - http://www.bohemiancoding.com/sketch -->
    <title>directed graph</title>
    <desc>Created with Sketch.</desc>
    <defs></defs>
    <g id="directed-graph" stroke="none" stroke-width="1" fill="none" fill-rule="evenodd">
        <polygon id="Page-1" fill="#0F1931" points="-1 944 1214 944 1214 3 -1 3"></polygon>
        <path d="M276.803711,409.664062 C278.90919,410.70313 281.165027,411.222656 283.571289,411.222656 C286.533543,411.222656 288.014648,409.873711 288.014648,407.175781 C288.014648,406.300777 287.77995,405.592125 287.310547,405.049805 C286.841143,404.507484 285.98666,404.081382 284.74707,403.771484 L280.727539,402.759766 C277.655909,401.985022 276.120117,400.344414 276.120117,397.837891 C276.120117,395.914704 276.780918,394.486007 278.102539,393.551758 C279.42416,392.617508 281.251616,392.150391 283.584961,392.150391 C284.806321,392.150391 285.95019,392.282551 287.016602,392.546875 C288.083013,392.811199 288.976233,393.166664 289.696289,393.613281 L289.012695,395.541016 C288.402015,395.203774 287.593104,394.902996 286.585938,394.638672 C285.578771,394.374348 284.560227,394.242188 283.530273,394.242188 C280.230778,394.242188 278.581055,395.386056 278.581055,397.673828 C278.581055,398.448572 278.833982,399.070636 279.339844,399.540039 C279.845706,400.009442 280.604487,400.367186 281.616211,400.613281 L285.458008,401.542969 C287.098641,401.934898 288.342769,402.561519 289.19043,403.422852 C290.03809,404.284184 290.461914,405.507805 290.461914,407.09375 C290.461914,409.153656 289.830735,410.705398 288.568359,411.749023 C287.305983,412.792648 285.59018,413.314453 283.420898,413.314453 C281.798494,413.314453 280.356126,413.148114 279.09375,412.81543 C277.831374,412.482746 276.831058,412.088544 276.092773,411.632812 L276.803711,409.664062 Z M293.538086,413 L293.538086,398.001953 L295.452148,398.001953 L295.739258,400.148438 C296.331709,399.410153 297.072261,398.815432 297.960938,398.364258 C298.849614,397.913084 299.808914,397.6875 300.838867,397.6875 C302.570647,397.6875 303.851233,398.172847 304.680664,399.143555 C305.510095,400.114263 305.924805,401.606761 305.924805,403.621094 L305.924805,413 L303.641602,413 C303.641602,406.984345 303.637044,403.762372 303.62793,403.333984 C303.591471,402.057936 303.333987,401.123701 302.855469,400.53125 C302.376951,399.938799 301.577154,399.642578 300.456055,399.642578 C299.280268,399.642578 298.30046,399.925127 297.516602,400.490234 C296.732743,401.055341 296.222332,401.789058 295.985352,402.691406 C295.894205,403.302086 295.848633,404.003902 295.848633,404.796875 L295.848633,413 L293.538086,413 Z M314.05957,411.46875 C315.144211,411.46875 316.098954,411.17025 316.923828,410.573242 C317.748702,409.976234 318.279621,409.17188 318.516602,408.160156 L318.516602,405.630859 C318.471028,405.630859 318.195315,405.653646 317.689453,405.699219 C317.183591,405.744792 316.853191,405.772135 316.698242,405.78125 C314.720368,405.954428 313.341801,406.277992 312.5625,406.751953 C311.783199,407.225914 311.393555,407.986974 311.393555,409.035156 C311.393555,409.837244 311.630531,410.443357 312.104492,410.853516 C312.578453,411.263674 313.230139,411.46875 314.05957,411.46875 Z M319.022461,413 C318.885742,412.416664 318.753581,411.787764 318.625977,411.113281 C317.796545,411.942712 317.017256,412.516925 316.288086,412.835938 C315.558916,413.15495 314.702153,413.314453 313.717773,413.314453 C312.314121,413.314453 311.186202,412.947595 310.333984,412.213867 C309.481767,411.48014 309.055664,410.425137 309.055664,409.048828 C309.055664,407.51757 309.636713,406.382816 310.798828,405.644531 C311.960943,404.906246 313.635731,404.445964 315.823242,404.263672 C316.124025,404.236328 316.577471,404.197591 317.183594,404.147461 C317.789717,404.09733 318.243163,404.058594 318.543945,404.03125 L318.543945,402.705078 C318.543945,401.647781 318.297854,400.863935 317.805664,400.353516 C317.313474,399.843096 316.538742,399.587891 315.481445,399.587891 C314.004875,399.587891 312.514656,399.95247 311.010742,400.681641 C310.965169,400.572265 310.846681,400.255536 310.655273,399.731445 C310.463866,399.207354 310.363607,398.936198 310.354492,398.917969 C311.01986,398.544269 311.810542,398.245769 312.726562,398.022461 C313.642583,397.799153 314.57454,397.6875 315.522461,397.6875 C317.39096,397.6875 318.737626,398.095374 319.5625,398.911133 C320.387374,399.726892 320.799805,401.114574 320.799805,403.074219 L320.799805,413 L319.022461,413 Z M324.764648,413 L324.764648,392.177734 L327.03418,392.041016 L327.03418,404.851562 C327.088867,404.796875 327.170898,404.70573 327.280273,404.578125 C327.389649,404.45052 327.476237,404.354818 327.540039,404.291016 C328.333012,403.425126 330.383773,401.328793 333.692383,398.001953 L336.59082,398.001953 L330.356445,404.318359 L337.02832,413 L334.18457,413 L328.702148,405.617188 L327.03418,407.052734 L327.03418,413 L324.764648,413 Z M344.862305,399.574219 C343.695632,399.574219 342.743168,399.98665 342.004883,400.811523 C341.266598,401.636397 340.833659,402.764316 340.706055,404.195312 L348.62207,404.195312 C348.62207,402.709628 348.287113,401.568038 347.617188,400.770508 C346.947262,399.972978 346.028977,399.574219 344.862305,399.574219 Z M345.313477,413.314453 C343.13508,413.314453 341.419277,412.621752 340.166016,411.236328 C338.912754,409.850905 338.286133,407.95509 338.286133,405.548828 C338.286133,403.224598 338.892247,401.340176 340.104492,399.895508 C341.316738,398.450839 342.911774,397.714844 344.889648,397.6875 C346.749033,397.6875 348.223302,398.323236 349.3125,399.594727 C350.401698,400.866217 350.946289,402.563791 350.946289,404.6875 C350.946289,404.796876 350.94401,404.997394 350.939453,405.289062 C350.934896,405.580731 350.932617,405.790364 350.932617,405.917969 L340.637695,405.917969 C340.665039,407.622404 341.104813,408.950842 341.957031,409.90332 C342.809249,410.855799 343.955396,411.332031 345.395508,411.332031 C346.981453,411.332031 348.571932,410.912765 350.166992,410.074219 L350.522461,411.919922 C349.000318,412.849614 347.264007,413.314453 345.313477,413.314453 Z M358.588867,413.314453 C357.568029,413.314453 356.626957,413.205079 355.765625,412.986328 C354.904293,412.767577 354.204755,412.485028 353.666992,412.138672 L353.954102,410.210938 C355.476245,411.022139 356.971021,411.427734 358.438477,411.427734 C360.662446,411.427734 361.806315,410.643888 361.870117,409.076172 C361.870117,408.410804 361.63314,407.886721 361.15918,407.503906 C360.685219,407.121092 359.755541,406.692711 358.370117,406.21875 L357.235352,405.822266 C355.922845,405.384763 354.986331,404.842451 354.425781,404.195312 C353.865232,403.548174 353.580404,402.741541 353.571289,401.775391 C353.571289,400.599603 354.042964,399.624353 354.986328,398.849609 C355.929692,398.074866 357.221671,397.6875 358.862305,397.6875 C360.557626,397.6875 362.102532,398.015622 363.49707,398.671875 L362.827148,400.421875 C361.414381,399.838539 360.09278,399.546875 358.862305,399.546875 C357.905269,399.546875 357.155602,399.736001 356.613281,400.114258 C356.070961,400.492515 355.799805,401.023434 355.799805,401.707031 C355.799805,402.290368 355.995766,402.736978 356.387695,403.046875 C356.779624,403.356772 357.563471,403.712238 358.739258,404.113281 C359.040041,404.222657 359.418292,404.35026 359.874023,404.496094 C361.387052,404.988284 362.458005,405.569333 363.086914,406.239258 C363.715823,406.909183 364.030273,407.813796 364.030273,408.953125 C364.012044,410.338549 363.515304,411.41178 362.540039,412.172852 C361.564774,412.933923 360.24773,413.314453 358.588867,413.314453 Z" id="Snakes" fill="#FFFFFF"></path>
        <path d="M755.19043,501 L755.19043,480.779297 L757.569336,480.779297 L757.569336,498.894531 L766.469727,498.894531 L766.387695,501 L755.19043,501 Z M773.05957,499.46875 C774.144211,499.46875 775.098954,499.17025 775.923828,498.573242 C776.748702,497.976234 777.279621,497.17188 777.516602,496.160156 L777.516602,493.630859 C777.471028,493.630859 777.195315,493.653646 776.689453,493.699219 C776.183591,493.744792 775.853191,493.772135 775.698242,493.78125 C773.720368,493.954428 772.341801,494.277992 771.5625,494.751953 C770.783199,495.225914 770.393555,495.986974 770.393555,497.035156 C770.393555,497.837244 770.630531,498.443357 771.104492,498.853516 C771.578453,499.263674 772.230139,499.46875 773.05957,499.46875 Z M778.022461,501 C777.885742,500.416664 777.753581,499.787764 777.625977,499.113281 C776.796545,499.942712 776.017256,500.516925 775.288086,500.835938 C774.558916,501.15495 773.702153,501.314453 772.717773,501.314453 C771.314121,501.314453 770.186202,500.947595 769.333984,500.213867 C768.481767,499.48014 768.055664,498.425137 768.055664,497.048828 C768.055664,495.51757 768.636713,494.382816 769.798828,493.644531 C770.960943,492.906246 772.635731,492.445964 774.823242,492.263672 C775.124025,492.236328 775.577471,492.197591 776.183594,492.147461 C776.789717,492.09733 777.243163,492.058594 777.543945,492.03125 L777.543945,490.705078 C777.543945,489.647781 777.297854,488.863935 776.805664,488.353516 C776.313474,487.843096 775.538742,487.587891 774.481445,487.587891 C773.004875,487.587891 771.514656,487.95247 770.010742,488.681641 C769.965169,488.572265 769.846681,488.255536 769.655273,487.731445 C769.463866,487.207354 769.363607,486.936198 769.354492,486.917969 C770.01986,486.544269 770.810542,486.245769 771.726562,486.022461 C772.642583,485.799153 773.57454,485.6875 774.522461,485.6875 C776.39096,485.6875 777.737626,486.095374 778.5625,486.911133 C779.387374,487.726892 779.799805,489.114574 779.799805,491.074219 L779.799805,501 L778.022461,501 Z M788.208008,501.314453 C787.187169,501.314453 786.246098,501.205079 785.384766,500.986328 C784.523433,500.767577 783.823896,500.485028 783.286133,500.138672 L783.573242,498.210938 C785.095385,499.022139 786.590162,499.427734 788.057617,499.427734 C790.281587,499.427734 791.425455,498.643888 791.489258,497.076172 C791.489258,496.410804 791.252281,495.886721 790.77832,495.503906 C790.30436,495.121092 789.374681,494.692711 787.989258,494.21875 L786.854492,493.822266 C785.541986,493.384763 784.605472,492.842451 784.044922,492.195312 C783.484372,491.548174 783.199544,490.741541 783.19043,489.775391 C783.19043,488.599603 783.662105,487.624353 784.605469,486.849609 C785.548833,486.074866 786.840812,485.6875 788.481445,485.6875 C790.176766,485.6875 791.721673,486.015622 793.116211,486.671875 L792.446289,488.421875 C791.033522,487.838539 789.71192,487.546875 788.481445,487.546875 C787.524409,487.546875 786.774742,487.736001 786.232422,488.114258 C785.690101,488.492515 785.418945,489.023434 785.418945,489.707031 C785.418945,490.290368 785.614907,490.736978 786.006836,491.046875 C786.398765,491.356772 787.182611,491.712238 788.358398,492.113281 C788.659181,492.222657 789.037433,492.35026 789.493164,492.496094 C791.006192,492.988284 792.077145,493.569333 792.706055,494.239258 C793.334964,494.909183 793.649414,495.813796 793.649414,496.953125 C793.631185,498.338549 793.134445,499.41178 792.15918,500.172852 C791.183914,500.933923 789.86687,501.314453 788.208008,501.314453 Z M802.65918,487.574219 C801.492507,487.574219 800.540043,487.98665 799.801758,488.811523 C799.063473,489.636397 798.630534,490.764316 798.50293,492.195312 L806.418945,492.195312 C806.418945,490.709628 806.083988,489.568038 805.414062,488.770508 C804.744137,487.972978 803.825852,487.574219 802.65918,487.574219 Z M803.110352,501.314453 C800.931955,501.314453 799.216152,500.621752 797.962891,499.236328 C796.709629,497.850905 796.083008,495.95509 796.083008,493.548828 C796.083008,491.224598 796.689122,489.340176 797.901367,487.895508 C799.113613,486.450839 800.708649,485.714844 802.686523,485.6875 C804.545908,485.6875 806.020177,486.323236 807.109375,487.594727 C808.198573,488.866217 808.743164,490.563791 808.743164,492.6875 C808.743164,492.796876 808.740885,492.997394 808.736328,493.289062 C808.731771,493.580731 808.729492,493.790364 808.729492,493.917969 L798.43457,493.917969 C798.461914,495.622404 798.901688,496.950842 799.753906,497.90332 C800.606124,498.855799 801.752271,499.332031 803.192383,499.332031 C804.778328,499.332031 806.368807,498.912765 807.963867,498.074219 L808.319336,499.919922 C806.797193,500.849614 805.060882,501.314453 803.110352,501.314453 Z M818.641602,485.865234 C819.05176,485.865234 819.425454,485.892578 819.762695,485.947266 L819.680664,488.052734 C819.261391,487.979817 818.896811,487.943359 818.586914,487.943359 C817.310866,487.943359 816.274093,488.387691 815.476562,489.276367 C814.679032,490.165044 814.280273,491.265618 814.280273,492.578125 L814.280273,501 L811.99707,501 C811.987956,491.794225 811.983398,486.794926 811.983398,486.001953 L813.883789,486.001953 L814.102539,488.695312 C814.622073,487.847652 815.282874,487.164065 816.084961,486.644531 C816.887048,486.124997 817.739253,485.865234 818.641602,485.865234 Z M826.584961,501.314453 C825.564122,501.314453 824.623051,501.205079 823.761719,500.986328 C822.900386,500.767577 822.200849,500.485028 821.663086,500.138672 L821.950195,498.210938 C823.472338,499.022139 824.967115,499.427734 826.43457,499.427734 C828.65854,499.427734 829.802409,498.643888 829.866211,497.076172 C829.866211,496.410804 829.629234,495.886721 829.155273,495.503906 C828.681313,495.121092 827.751635,494.692711 826.366211,494.21875 L825.231445,493.822266 C823.918939,493.384763 822.982425,492.842451 822.421875,492.195312 C821.861325,491.548174 821.576497,490.741541 821.567383,489.775391 C821.567383,488.599603 822.039058,487.624353 822.982422,486.849609 C823.925786,486.074866 825.217765,485.6875 826.858398,485.6875 C828.553719,485.6875 830.098626,486.015622 831.493164,486.671875 L830.823242,488.421875 C829.410475,487.838539 828.088873,487.546875 826.858398,487.546875 C825.901362,487.546875 825.151695,487.736001 824.609375,488.114258 C824.067055,488.492515 823.795898,489.023434 823.795898,489.707031 C823.795898,490.290368 823.99186,490.736978 824.383789,491.046875 C824.775718,491.356772 825.559564,491.712238 826.735352,492.113281 C827.036134,492.222657 827.414386,492.35026 827.870117,492.496094 C829.383146,492.988284 830.454098,493.569333 831.083008,494.239258 C831.711917,494.909183 832.026367,495.813796 832.026367,496.953125 C832.008138,498.338549 831.511398,499.41178 830.536133,500.172852 C829.560868,500.933923 828.243823,501.314453 826.584961,501.314453 Z" id="Lasers" fill="#FFFFFF"></path>
        <path d="M408.700195,695.664062 C410.805675,696.70313 413.061511,697.222656 415.467773,697.222656 C418.430028,697.222656 419.911133,695.873711 419.911133,693.175781 C419.911133,692.300777 419.676435,691.592125 419.207031,691.049805 C418.737628,690.507484 417.883144,690.081382 416.643555,689.771484 L412.624023,688.759766 C409.552393,687.985022 408.016602,686.344414 408.016602,683.837891 C408.016602,681.914704 408.677402,680.486007 409.999023,679.551758 C411.320645,678.617508 413.1481,678.150391 415.481445,678.150391 C416.702806,678.150391 417.846674,678.282551 418.913086,678.546875 C419.979498,678.811199 420.872718,679.166664 421.592773,679.613281 L420.90918,681.541016 C420.2985,681.203774 419.489588,680.902996 418.482422,680.638672 C417.475255,680.374348 416.456711,680.242188 415.426758,680.242188 C412.127262,680.242188 410.477539,681.386056 410.477539,683.673828 C410.477539,684.448572 410.730466,685.070636 411.236328,685.540039 C411.74219,686.009442 412.500972,686.367186 413.512695,686.613281 L417.354492,687.542969 C418.995125,687.934898 420.239254,688.561519 421.086914,689.422852 C421.934575,690.284184 422.358398,691.507805 422.358398,693.09375 C422.358398,695.153656 421.72722,696.705398 420.464844,697.749023 C419.202468,698.792648 417.486664,699.314453 415.317383,699.314453 C413.694979,699.314453 412.25261,699.148114 410.990234,698.81543 C409.727858,698.482746 408.727543,698.088544 407.989258,697.632812 L408.700195,695.664062 Z M425.43457,705.507812 L425.43457,684.001953 L427.444336,684.001953 L427.663086,686.039062 C428.975593,684.471346 430.5524,683.6875 432.393555,683.6875 C433.760749,683.6875 434.91829,684.029293 435.866211,684.712891 C436.814132,685.396488 437.51367,686.321609 437.964844,687.488281 C438.416018,688.654954 438.641602,690.01757 438.641602,691.576172 C438.641602,693.070971 438.39551,694.399408 437.90332,695.561523 C437.41113,696.723639 436.688807,697.639645 435.736328,698.30957 C434.783849,698.979496 433.669603,699.314453 432.393555,699.314453 C431.427404,699.314453 430.520512,699.097984 429.672852,698.665039 C428.825191,698.232094 428.146161,697.66016 427.635742,696.949219 C427.69043,697.933599 427.717773,698.89062 427.717773,699.820312 L427.717773,705.357422 L425.43457,705.507812 Z M432.079102,697.386719 C432.771813,697.386719 433.391599,697.229494 433.938477,696.915039 C434.485354,696.600584 434.927407,696.169925 435.264648,695.623047 C435.60189,695.076169 435.857095,694.454105 436.030273,693.756836 C436.203451,693.059567 436.290039,692.305343 436.290039,691.494141 C436.290039,689.78059 435.930017,688.37468 435.209961,687.276367 C434.489905,686.178054 433.437181,685.628906 432.051758,685.628906 C429.153306,685.628906 427.704102,687.501934 427.704102,691.248047 C427.704102,693.280609 428.043616,694.811844 428.722656,695.841797 C429.401696,696.87175 430.5205,697.386719 432.079102,697.386719 Z M444.547852,684.001953 L444.547852,699 L442.250977,699 L442.250977,684.001953 L444.547852,684.001953 Z M444.547852,678.546875 L444.547852,681.253906 L442.250977,681.253906 L442.250977,678.546875 L444.547852,678.546875 Z M448.868164,699 L448.868164,678.177734 L451.137695,678.041016 L451.137695,690.851562 C451.192383,690.796875 451.274414,690.70573 451.383789,690.578125 C451.493165,690.45052 451.579752,690.354818 451.643555,690.291016 C452.436527,689.425126 454.487288,687.328793 457.795898,684.001953 L460.694336,684.001953 L454.459961,690.318359 L461.131836,699 L458.288086,699 L452.805664,691.617188 L451.137695,693.052734 L451.137695,699 L448.868164,699 Z M468.96582,685.574219 C467.799148,685.574219 466.846683,685.98665 466.108398,686.811523 C465.370113,687.636397 464.937175,688.764316 464.80957,690.195312 L472.725586,690.195312 C472.725586,688.709628 472.390628,687.568038 471.720703,686.770508 C471.050778,685.972978 470.132493,685.574219 468.96582,685.574219 Z M469.416992,699.314453 C467.238596,699.314453 465.522793,698.621752 464.269531,697.236328 C463.01627,695.850905 462.389648,693.95509 462.389648,691.548828 C462.389648,689.224598 462.995762,687.340176 464.208008,685.895508 C465.420253,684.450839 467.01529,683.714844 468.993164,683.6875 C470.852548,683.6875 472.326817,684.323236 473.416016,685.594727 C474.505214,686.866217 475.049805,688.563791 475.049805,690.6875 C475.049805,690.796876 475.047526,690.997394 475.042969,691.289062 C475.038411,691.580731 475.036133,691.790364 475.036133,691.917969 L464.741211,691.917969 C464.768555,693.622404 465.208329,694.950842 466.060547,695.90332 C466.912765,696.855799 468.058912,697.332031 469.499023,697.332031 C471.084969,697.332031 472.675448,696.912765 474.270508,696.074219 L474.625977,697.919922 C473.103834,698.849614 471.367523,699.314453 469.416992,699.314453 Z M482.692383,699.314453 C481.671544,699.314453 480.730473,699.205079 479.869141,698.986328 C479.007808,698.767577 478.308271,698.485028 477.770508,698.138672 L478.057617,696.210938 C479.57976,697.022139 481.074537,697.427734 482.541992,697.427734 C484.765962,697.427734 485.90983,696.643888 485.973633,695.076172 C485.973633,694.410804 485.736656,693.886721 485.262695,693.503906 C484.788735,693.121092 483.859056,692.692711 482.473633,692.21875 L481.338867,691.822266 C480.026361,691.384763 479.089847,690.842451 478.529297,690.195312 C477.968747,689.548174 477.683919,688.741541 477.674805,687.775391 C477.674805,686.599603 478.14648,685.624353 479.089844,684.849609 C480.033208,684.074866 481.325187,683.6875 482.96582,683.6875 C484.661141,683.6875 486.206048,684.015622 487.600586,684.671875 L486.930664,686.421875 C485.517897,685.838539 484.196295,685.546875 482.96582,685.546875 C482.008784,685.546875 481.259117,685.736001 480.716797,686.114258 C480.174476,686.492515 479.90332,687.023434 479.90332,687.707031 C479.90332,688.290368 480.099282,688.736978 480.491211,689.046875 C480.88314,689.356772 481.666986,689.712238 482.842773,690.113281 C483.143556,690.222657 483.521808,690.35026 483.977539,690.496094 C485.490567,690.988284 486.56152,691.569333 487.19043,692.239258 C487.819339,692.909183 488.133789,693.813796 488.133789,694.953125 C488.11556,696.338549 487.61882,697.41178 486.643555,698.172852 C485.668289,698.933923 484.351245,699.314453 482.692383,699.314453 Z" id="Spikes" fill="#FFFFFF"></path>
        <path d="M785.339844,167 L785.339844,146.779297 L787.71875,146.779297 L787.71875,164.894531 L796.619141,164.894531 L796.537109,167 L785.339844,167 Z M803.208984,165.46875 C804.293625,165.46875 805.248368,165.17025 806.073242,164.573242 C806.898116,163.976234 807.429035,163.17188 807.666016,162.160156 L807.666016,159.630859 C807.620442,159.630859 807.344729,159.653646 806.838867,159.699219 C806.333005,159.744792 806.002605,159.772135 805.847656,159.78125 C803.869782,159.954428 802.491215,160.277992 801.711914,160.751953 C800.932613,161.225914 800.542969,161.986974 800.542969,163.035156 C800.542969,163.837244 800.779946,164.443357 801.253906,164.853516 C801.727867,165.263674 802.379553,165.46875 803.208984,165.46875 Z M808.171875,167 C808.035156,166.416664 807.902995,165.787764 807.775391,165.113281 C806.945959,165.942712 806.16667,166.516925 805.4375,166.835938 C804.70833,167.15495 803.851567,167.314453 802.867188,167.314453 C801.463535,167.314453 800.335616,166.947595 799.483398,166.213867 C798.631181,165.48014 798.205078,164.425137 798.205078,163.048828 C798.205078,161.51757 798.786127,160.382816 799.948242,159.644531 C801.110357,158.906246 802.785145,158.445964 804.972656,158.263672 C805.273439,158.236328 805.726885,158.197591 806.333008,158.147461 C806.939131,158.09733 807.392577,158.058594 807.693359,158.03125 L807.693359,156.705078 C807.693359,155.647781 807.447268,154.863935 806.955078,154.353516 C806.462888,153.843096 805.688156,153.587891 804.630859,153.587891 C803.154289,153.587891 801.66407,153.95247 800.160156,154.681641 C800.114583,154.572265 799.996095,154.255536 799.804688,153.731445 C799.61328,153.207354 799.513021,152.936198 799.503906,152.917969 C800.169274,152.544269 800.959956,152.245769 801.875977,152.022461 C802.791997,151.799153 803.723954,151.6875 804.671875,151.6875 C806.540374,151.6875 807.88704,152.095374 808.711914,152.911133 C809.536788,153.726892 809.949219,155.114574 809.949219,157.074219 L809.949219,167 L808.171875,167 Z M817.728516,167 L811.917969,152.001953 L814.365234,152.001953 L817.673828,160.916016 L819.041016,164.716797 C819.350913,163.741532 819.779294,162.483732 820.326172,160.943359 C821.018884,159.001943 822.094394,156.021504 823.552734,152.001953 L825.986328,152.001953 L820.216797,167 L817.728516,167 Z M832.316406,165.46875 C833.401047,165.46875 834.35579,165.17025 835.180664,164.573242 C836.005538,163.976234 836.536457,163.17188 836.773438,162.160156 L836.773438,159.630859 C836.727864,159.630859 836.452151,159.653646 835.946289,159.699219 C835.440427,159.744792 835.110027,159.772135 834.955078,159.78125 C832.977204,159.954428 831.598637,160.277992 830.819336,160.751953 C830.040035,161.225914 829.650391,161.986974 829.650391,163.035156 C829.650391,163.837244 829.887367,164.443357 830.361328,164.853516 C830.835289,165.263674 831.486975,165.46875 832.316406,165.46875 Z M837.279297,167 C837.142577,166.416664 837.010417,165.787764 836.882812,165.113281 C836.053381,165.942712 835.274092,166.516925 834.544922,166.835938 C833.815752,167.15495 832.958989,167.314453 831.974609,167.314453 C830.570957,167.314453 829.443038,166.947595 828.59082,166.213867 C827.738603,165.48014 827.3125,164.425137 827.3125,163.048828 C827.3125,161.51757 827.893549,160.382816 829.055664,159.644531 C830.217779,158.906246 831.892567,158.445964 834.080078,158.263672 C834.380861,158.236328 834.834307,158.197591 835.44043,158.147461 C836.046553,158.09733 836.499998,158.058594 836.800781,158.03125 L836.800781,156.705078 C836.800781,155.647781 836.55469,154.863935 836.0625,154.353516 C835.57031,153.843096 834.795578,153.587891 833.738281,153.587891 C832.261711,153.587891 830.771492,153.95247 829.267578,154.681641 C829.222005,154.572265 829.103517,154.255536 828.912109,153.731445 C828.720702,153.207354 828.620443,152.936198 828.611328,152.917969 C829.276696,152.544269 830.067378,152.245769 830.983398,152.022461 C831.899419,151.799153 832.831375,151.6875 833.779297,151.6875 C835.647796,151.6875 836.994462,152.095374 837.819336,152.911133 C838.64421,153.726892 839.056641,155.114574 839.056641,157.074219 L839.056641,167 L837.279297,167 Z" id="Lava" fill="#FFFFFF"></path>
        <path d="M844.678711,791 L842.258789,791 L842.258789,770.546875 L848.848633,770.546875 C849.851242,770.546875 850.758134,770.651692 851.569336,770.861328 C852.380538,771.070965 853.100583,771.389972 853.729492,771.818359 C854.358402,772.246747 854.846027,772.82096 855.192383,773.541016 C855.538739,774.261071 855.711914,775.099605 855.711914,776.056641 C855.711914,776.849613 855.638998,777.558265 855.493164,778.182617 C855.34733,778.806969 855.096681,779.392575 854.741211,779.939453 C854.38574,780.486331 853.920901,780.939777 853.34668,781.299805 C852.772458,781.659833 852.036463,781.942382 851.138672,782.147461 C850.240881,782.35254 849.19955,782.455078 848.014648,782.455078 C847.075842,782.455078 845.963874,782.395834 844.678711,782.277344 L844.678711,791 Z M848.24707,780.363281 C849.140304,780.363281 849.905921,780.276694 850.543945,780.103516 C851.181969,779.930338 851.671873,779.716147 852.013672,779.460938 C852.35547,779.205728 852.624348,778.873049 852.820312,778.462891 C853.016277,778.052732 853.137044,777.67676 853.182617,777.334961 C853.22819,776.993162 853.250977,776.580732 853.250977,776.097656 C853.250977,774.940098 852.861332,774.087893 852.082031,773.541016 C851.30273,772.994138 850.243171,772.720703 848.90332,772.720703 L844.678711,772.720703 L844.678711,780.335938 C846.437834,780.354167 847.627276,780.363281 848.24707,780.363281 Z M860.756836,776.001953 L860.756836,791 L858.459961,791 L858.459961,776.001953 L860.756836,776.001953 Z M860.756836,770.546875 L860.756836,773.253906 L858.459961,773.253906 L858.459961,770.546875 L860.756836,770.546875 Z M871.776367,775.865234 C872.186525,775.865234 872.56022,775.892578 872.897461,775.947266 L872.81543,778.052734 C872.396157,777.979817 872.031577,777.943359 871.72168,777.943359 C870.445632,777.943359 869.408858,778.387691 868.611328,779.276367 C867.813798,780.165044 867.415039,781.265618 867.415039,782.578125 L867.415039,791 L865.131836,791 C865.122721,781.794225 865.118164,776.794926 865.118164,776.001953 L867.018555,776.001953 L867.237305,778.695312 C867.756839,777.847652 868.417639,777.164065 869.219727,776.644531 C870.021814,776.124997 870.874019,775.865234 871.776367,775.865234 Z M879.583008,789.46875 C880.667649,789.46875 881.622392,789.17025 882.447266,788.573242 C883.27214,787.976234 883.803059,787.17188 884.040039,786.160156 L884.040039,783.630859 C883.994466,783.630859 883.718753,783.653646 883.212891,783.699219 C882.707029,783.744792 882.376628,783.772135 882.22168,783.78125 C880.243805,783.954428 878.865238,784.277992 878.085938,784.751953 C877.306637,785.225914 876.916992,785.986974 876.916992,787.035156 C876.916992,787.837244 877.153969,788.443357 877.62793,788.853516 C878.10189,789.263674 878.753577,789.46875 879.583008,789.46875 Z M884.545898,791 C884.409179,790.416664 884.277019,789.787764 884.149414,789.113281 C883.319983,789.942712 882.540694,790.516925 881.811523,790.835938 C881.082353,791.15495 880.225591,791.314453 879.241211,791.314453 C877.837558,791.314453 876.70964,790.947595 875.857422,790.213867 C875.005204,789.48014 874.579102,788.425137 874.579102,787.048828 C874.579102,785.51757 875.16015,784.382816 876.322266,783.644531 C877.484381,782.906246 879.159169,782.445964 881.34668,782.263672 C881.647462,782.236328 882.100908,782.197591 882.707031,782.147461 C883.313154,782.09733 883.7666,782.058594 884.067383,782.03125 L884.067383,780.705078 C884.067383,779.647781 883.821292,778.863935 883.329102,778.353516 C882.836912,777.843096 882.06218,777.587891 881.004883,777.587891 C879.528313,777.587891 878.038093,777.95247 876.53418,778.681641 C876.488607,778.572265 876.370118,778.255536 876.178711,777.731445 C875.987304,777.207354 875.887044,776.936198 875.87793,776.917969 C876.543298,776.544269 877.33398,776.245769 878.25,776.022461 C879.16602,775.799153 880.097977,775.6875 881.045898,775.6875 C882.914397,775.6875 884.261064,776.095374 885.085938,776.911133 C885.910811,777.726892 886.323242,779.114574 886.323242,781.074219 L886.323242,791 L884.545898,791 Z M890.260742,791 L890.260742,776.001953 L892.174805,776.001953 L892.461914,778.148438 C893.054365,777.410153 893.794917,776.815432 894.683594,776.364258 C895.57227,775.913084 896.53157,775.6875 897.561523,775.6875 C899.293303,775.6875 900.573889,776.172847 901.40332,777.143555 C902.232752,778.114263 902.647461,779.606761 902.647461,781.621094 L902.647461,791 L900.364258,791 C900.364258,784.984345 900.359701,781.762372 900.350586,781.333984 C900.314127,780.057936 900.056643,779.123701 899.578125,778.53125 C899.099607,777.938799 898.29981,777.642578 897.178711,777.642578 C896.002924,777.642578 895.023116,777.925127 894.239258,778.490234 C893.4554,779.055341 892.944988,779.789058 892.708008,780.691406 C892.616862,781.302086 892.571289,782.003902 892.571289,782.796875 L892.571289,791 L890.260742,791 Z M916.551758,791 L916.551758,781.935547 C916.551758,780.431633 916.312502,779.337894 915.833984,778.654297 C915.355466,777.9707 914.519212,777.628906 913.325195,777.628906 C912.176752,777.628906 911.208337,777.916013 910.419922,778.490234 C909.631506,779.064456 909.118816,779.807287 908.881836,780.71875 C908.799804,781.402347 908.758789,782.163407 908.758789,783.001953 L908.758789,791 L906.475586,791 L906.475586,770.177734 L908.758789,770.041016 L908.758789,776.138672 C908.758789,776.658206 908.74056,777.300777 908.704102,778.066406 C909.989264,776.480461 911.693674,775.6875 913.817383,775.6875 C917.162452,775.6875 918.834961,777.651673 918.834961,781.580078 L918.834961,791 L916.551758,791 Z M925.985352,789.46875 C927.069992,789.46875 928.024735,789.17025 928.849609,788.573242 C929.674483,787.976234 930.205402,787.17188 930.442383,786.160156 L930.442383,783.630859 C930.39681,783.630859 930.121096,783.653646 929.615234,783.699219 C929.109372,783.744792 928.778972,783.772135 928.624023,783.78125 C926.646149,783.954428 925.267582,784.277992 924.488281,784.751953 C923.70898,785.225914 923.319336,785.986974 923.319336,787.035156 C923.319336,787.837244 923.556313,788.443357 924.030273,788.853516 C924.504234,789.263674 925.15592,789.46875 925.985352,789.46875 Z M930.948242,791 C930.811523,790.416664 930.679363,789.787764 930.551758,789.113281 C929.722327,789.942712 928.943037,790.516925 928.213867,790.835938 C927.484697,791.15495 926.627935,791.314453 925.643555,791.314453 C924.239902,791.314453 923.111983,790.947595 922.259766,790.213867 C921.407548,789.48014 920.981445,788.425137 920.981445,787.048828 C920.981445,785.51757 921.562494,784.382816 922.724609,783.644531 C923.886725,782.906246 925.561512,782.445964 927.749023,782.263672 C928.049806,782.236328 928.503252,782.197591 929.109375,782.147461 C929.715498,782.09733 930.168944,782.058594 930.469727,782.03125 L930.469727,780.705078 C930.469727,779.647781 930.223635,778.863935 929.731445,778.353516 C929.239255,777.843096 928.464524,777.587891 927.407227,777.587891 C925.930657,777.587891 924.440437,777.95247 922.936523,778.681641 C922.89095,778.572265 922.772462,778.255536 922.581055,777.731445 C922.389647,777.207354 922.289388,776.936198 922.280273,776.917969 C922.945641,776.544269 923.736324,776.245769 924.652344,776.022461 C925.568364,775.799153 926.500321,775.6875 927.448242,775.6875 C929.316741,775.6875 930.663407,776.095374 931.488281,776.911133 C932.313155,777.726892 932.725586,779.114574 932.725586,781.074219 L932.725586,791 L930.948242,791 Z M941.133789,791.314453 C940.112951,791.314453 939.171879,791.205079 938.310547,790.986328 C937.449214,790.767577 936.749677,790.485028 936.211914,790.138672 L936.499023,788.210938 C938.021166,789.022139 939.515943,789.427734 940.983398,789.427734 C943.207368,789.427734 944.351237,788.643888 944.415039,787.076172 C944.415039,786.410804 944.178062,785.886721 943.704102,785.503906 C943.230141,785.121092 942.300463,784.692711 940.915039,784.21875 L939.780273,783.822266 C938.467767,783.384763 937.531253,782.842451 936.970703,782.195312 C936.410153,781.548174 936.125326,780.741541 936.116211,779.775391 C936.116211,778.599603 936.587886,777.624353 937.53125,776.849609 C938.474614,776.074866 939.766593,775.6875 941.407227,775.6875 C943.102548,775.6875 944.647454,776.015622 946.041992,776.671875 L945.37207,778.421875 C943.959303,777.838539 942.637701,777.546875 941.407227,777.546875 C940.450191,777.546875 939.700524,777.736001 939.158203,778.114258 C938.615883,778.492515 938.344727,779.023434 938.344727,779.707031 C938.344727,780.290368 938.540688,780.736978 938.932617,781.046875 C939.324546,781.356772 940.108393,781.712238 941.28418,782.113281 C941.584962,782.222657 941.963214,782.35026 942.418945,782.496094 C943.931974,782.988284 945.002927,783.569333 945.631836,784.239258 C946.260745,784.909183 946.575195,785.813796 946.575195,786.953125 C946.556966,788.338549 946.060226,789.41178 945.084961,790.172852 C944.109696,790.933923 942.792652,791.314453 941.133789,791.314453 Z" id="Piranhas" fill="#FFFFFF"></path>
        <circle id="Oval-2" stroke="#FFFFFF" stroke-width="4" cx="319" cy="405" r="82"></circle>
        <circle id="Oval-2-Copy" stroke="#FFFFFF" stroke-width="4" cx="792" cy="493" r="82"></circle>
        <path d="M795.65,409.364035 L808,265" id="Line" stroke="#FFFFFF" stroke-width="4" stroke-linecap="square"></path>
        <circle id="Oval-2-Copy-2" stroke="#FFFFFF" stroke-width="4" cx="447" cy="690" r="82"></circle>
        <circle id="Oval-2-Copy-3" stroke="#FFFFFF" stroke-width="4" cx="812" cy="159" r="82"></circle>
        <circle id="Oval-2-Copy-4" stroke="#FFFFFF" stroke-width="4" cx="893" cy="782" r="82"></circle>
        <path d="M413,347 L729,181" id="Line-4" stroke="#FFFFFF" stroke-width="4" stroke-linecap="square"></path>
        <path d="M338,487 L398,592" id="Line-5" stroke="#FFFFFF" stroke-width="4" stroke-linecap="square"></path>
        <path d="M811.632353,574.636905 L854,681" id="Line-3" stroke="#FFFFFF" stroke-width="4" stroke-linecap="square"></path>
        <polyline id="Triangle" stroke="#FFFFFF" stroke-width="4" points="445.756251 356.661886 411.679187 347.854096 421.089949 313.938597"></polyline>
        <polyline id="Triangle-Copy" stroke="#FFFFFF" stroke-width="4" points="408.924691 561.24856 400.1169 595.325625 366.201402 585.914863"></polyline>
        <g id="Group" transform="translate(662.138844, 750.451865) rotate(-144.000000) translate(-662.138844, -750.451865) translate(534.638844, 681.951865)" stroke="#FFFFFF" stroke-width="4">
            <path d="M0,136.677712 L238.251046,25.255435" id="Line-2-Copy" stroke-linecap="square"></path>
            <polyline id="Triangle-Copy-5" transform="translate(231.351755, 27.829617) rotate(-299.000000) translate(-231.351755, -27.829617) " points="206.685452 40.3834715 231.351755 15.2757634 256.018057 40.3834715"></polyline>
        </g>
        <polyline id="Triangle-Copy-4" stroke="#FFFFFF" stroke-width="4" points="780.50933 284.092637 807.664978 261.700802 829.571686 289.249298"></polyline>
        <polyline id="Triangle-Copy-2" stroke="#FFFFFF" stroke-width="4" points="868.317914 650.484114 854.85323 683.003735 822.57752 668.964433"></polyline>
    </g>
</svg>