<?xml version="1.0" encoding="UTF-8"?>
<svg width="1214px" height="941px" viewBox="0 0 1214 941" version="1.1" xmlns="http://www.w3.org/2000/svg" xmlns:xlink="http://www.w3.org/1999/xlink">
    <!-- Generator: Sketch 50 (54983) - http://www.bohemiancoding.com/sketch -->
    <title>disconnected graph</title>
    <desc>Created with Sketch.</desc>
    <defs></defs>
    <g id="disconnected-graph" stroke="none" stroke-width="1" fill="none" fill-rule="evenodd">
        <path d="M460.953125,119.609375 L463.984375,119.609375 C466.598971,119.609375 468.588535,118.924486 469.953125,117.554688 C471.317715,116.184889 472,114.187513 472,111.5625 C472,108.749986 471.296882,106.705736 469.890625,105.429688 C468.484368,104.153639 466.364598,103.515625 463.53125,103.515625 L460.953125,103.515625 L460.953125,119.609375 Z M456.71875,123 L456.71875,100.109375 L463.34375,100.109375 C465.34376,100.109375 467.135409,100.338539 468.71875,100.796875 C470.302091,101.255211 471.664057,101.945308 472.804688,102.867188 C473.945318,103.789067 474.820309,104.976555 475.429688,106.429688 C476.039066,107.88282 476.34375,109.56249 476.34375,111.46875 C476.34375,115.166685 475.229178,118.013011 473,120.007812 C470.770822,122.002614 467.682311,123 463.734375,123 L456.71875,123 Z M480.0625,123 L480.0625,105.828125 L484.15625,105.828125 L484.15625,123 L480.0625,123 Z M480.0625,103.328125 L480.0625,99.828125 L484.171875,99.828125 L484.171875,103.328125 L480.0625,103.328125 Z M493.90625,123.3125 C491.374987,123.3125 489.348966,122.880213 487.828125,122.015625 L488.25,118.9375 C488.937503,119.312502 489.812495,119.648436 490.875,119.945312 C491.937505,120.242189 492.906246,120.390625 493.78125,120.390625 C494.687505,120.390625 495.393227,120.221356 495.898438,119.882812 C496.403648,119.544269 496.661458,119.046878 496.671875,118.390625 C496.671875,117.796872 496.434898,117.328127 495.960938,116.984375 C495.486977,116.640623 494.58334,116.213544 493.25,115.703125 C492.791664,115.536457 492.494792,115.427084 492.359375,115.375 C490.776034,114.760414 489.63542,114.075525 488.9375,113.320312 C488.23958,112.5651 487.890625,111.541673 487.890625,110.25 C487.890625,108.687492 488.455724,107.489587 489.585938,106.65625 C490.716151,105.822913 492.291657,105.40625 494.3125,105.40625 C496.500011,105.40625 498.421867,105.817704 500.078125,106.640625 L499.0625,109.46875 C497.427075,108.70833 495.869799,108.328125 494.390625,108.328125 C493.567704,108.328125 492.924481,108.466144 492.460938,108.742188 C491.997394,109.018231 491.765625,109.437497 491.765625,110 C491.765625,110.531253 491.989581,110.945311 492.4375,111.242188 C492.885419,111.539064 493.76041,111.927081 495.0625,112.40625 C495.104167,112.416667 495.239582,112.463541 495.46875,112.546875 C495.697918,112.630209 495.874999,112.697916 496,112.75 C497.572925,113.32292 498.729163,114.007809 499.46875,114.804688 C500.208337,115.601566 500.578125,116.640619 500.578125,117.921875 C500.567708,119.640634 499.984381,120.968745 498.828125,121.90625 C497.671869,122.843755 496.031261,123.3125 493.90625,123.3125 Z M511.328125,123.328125 C508.703112,123.328125 506.658861,122.546883 505.195312,120.984375 C503.731764,119.421867 503,117.187515 503,114.28125 C503,111.468736 503.768221,109.286466 505.304688,107.734375 C506.841154,106.182284 508.864571,105.40625 511.375,105.40625 C513.385427,105.40625 515.083326,105.838537 516.46875,106.703125 L515.5,109.625 C514.083326,108.885413 512.765631,108.515625 511.546875,108.515625 C510.161451,108.515625 509.070316,109.010412 508.273438,110 C507.476559,110.989588 507.078125,112.432282 507.078125,114.328125 C507.078125,116.244801 507.47135,117.70312 508.257812,118.703125 C509.044275,119.70313 510.156243,120.203125 511.59375,120.203125 C513.093758,120.203125 514.536451,119.760421 515.921875,118.875 L516.3125,121.984375 C515.593746,122.463544 514.848962,122.807291 514.078125,123.015625 C513.307288,123.223959 512.39063,123.328125 511.328125,123.328125 Z M527.046875,120.21875 C528.432299,120.21875 529.473955,119.713547 530.171875,118.703125 C530.869795,117.692703 531.21875,116.244801 531.21875,114.359375 C531.21875,112.453115 530.869795,111.000005 530.171875,110 C529.473955,108.999995 528.421882,108.5 527.015625,108.5 C525.630201,108.5 524.585941,109.002599 523.882812,110.007812 C523.179684,111.013026 522.828125,112.46874 522.828125,114.375 C522.828125,116.250009 523.182288,117.692703 523.890625,118.703125 C524.598962,119.713547 525.651035,120.21875 527.046875,120.21875 Z M526.9375,123.328125 C524.395821,123.328125 522.395841,122.505217 520.9375,120.859375 C519.479159,119.213533 518.75,117.046888 518.75,114.359375 C518.75,111.588528 519.479159,109.403654 520.9375,107.804688 C522.395841,106.205721 524.453112,105.40625 527.109375,105.40625 C529.671888,105.40625 531.67968,106.221346 533.132812,107.851562 C534.585945,109.481779 535.3125,111.651028 535.3125,114.359375 C535.3125,117.098972 534.578132,119.278638 533.109375,120.898438 C531.640618,122.518237 529.583347,123.328125 526.9375,123.328125 Z M538.65625,123 L538.65625,105.828125 L541.953125,105.828125 L542.40625,108 C544.156259,106.270825 546.098948,105.40625 548.234375,105.40625 C550.234385,105.40625 551.731766,105.981765 552.726562,107.132812 C553.721359,108.28386 554.21875,109.953114 554.21875,112.140625 L554.21875,123 L550.109375,123 L550.109375,112.640625 C550.098958,111.255201 549.875002,110.218753 549.4375,109.53125 C548.999998,108.843747 548.213547,108.5 547.078125,108.5 C546.192704,108.5 545.382816,108.72656 544.648438,109.179688 C543.914059,109.632815 543.38021,110.203122 543.046875,110.890625 C542.848957,111.703129 542.75,112.953117 542.75,114.640625 L542.75,123 L538.65625,123 Z M558.25,123 L558.25,105.828125 L561.546875,105.828125 L562,108 C563.750009,106.270825 565.692698,105.40625 567.828125,105.40625 C569.828135,105.40625 571.325516,105.981765 572.320312,107.132812 C573.315109,108.28386 573.8125,109.953114 573.8125,112.140625 L573.8125,123 L569.703125,123 L569.703125,112.640625 C569.692708,111.255201 569.468752,110.218753 569.03125,109.53125 C568.593748,108.843747 567.807297,108.5 566.671875,108.5 C565.786454,108.5 564.976566,108.72656 564.242188,109.179688 C563.507809,109.632815 562.97396,110.203122 562.640625,110.890625 C562.442707,111.703129 562.34375,112.953117 562.34375,114.640625 L562.34375,123 L558.25,123 Z M585.78125,123.328125 C583.02082,123.328125 580.872404,122.533862 579.335938,120.945312 C577.799471,119.356763 577.03125,117.161472 577.03125,114.359375 C577.03125,111.630195 577.755201,109.458341 579.203125,107.84375 C580.651049,106.229159 582.624987,105.416667 585.125,105.40625 C587.489595,105.40625 589.325514,106.145826 590.632812,107.625 C591.940111,109.104174 592.59375,111.067696 592.59375,113.515625 C592.59375,113.692709 592.591146,113.979165 592.585938,114.375 C592.580729,114.770835 592.578125,115.062499 592.578125,115.25 L581.15625,115.25 C581.197917,116.854175 581.638017,118.09635 582.476562,118.976562 C583.315108,119.856775 584.468743,120.296875 585.9375,120.296875 C587.812509,120.296875 589.614575,119.807297 591.34375,118.828125 L591.921875,121.734375 C590.203116,122.79688 588.156262,123.328125 585.78125,123.328125 Z M581.234375,112.671875 L588.734375,112.671875 C588.734375,111.276035 588.41667,110.203129 587.78125,109.453125 C587.14583,108.703121 586.265631,108.328125 585.140625,108.328125 C584.088536,108.328125 583.200524,108.692705 582.476562,109.421875 C581.752601,110.151045 581.338542,111.234368 581.234375,112.671875 Z M603.4375,123.328125 C600.812487,123.328125 598.768236,122.546883 597.304688,120.984375 C595.841139,119.421867 595.109375,117.187515 595.109375,114.28125 C595.109375,111.468736 595.877596,109.286466 597.414062,107.734375 C598.950529,106.182284 600.973946,105.40625 603.484375,105.40625 C605.494802,105.40625 607.192701,105.838537 608.578125,106.703125 L607.609375,109.625 C606.192701,108.885413 604.875006,108.515625 603.65625,108.515625 C602.270826,108.515625 601.179691,109.010412 600.382812,110 C599.585934,110.989588 599.1875,112.432282 599.1875,114.328125 C599.1875,116.244801 599.580725,117.70312 600.367188,118.703125 C601.15365,119.70313 602.265618,120.203125 603.703125,120.203125 C605.203133,120.203125 606.645826,119.760421 608.03125,118.875 L608.421875,121.984375 C607.703121,122.463544 606.958337,122.807291 606.1875,123.015625 C605.416663,123.223959 604.500005,123.328125 603.4375,123.328125 Z M618.53125,123.234375 C617.364577,123.234375 616.393233,123.096356 615.617188,122.820312 C614.841142,122.544269 614.234377,122.109378 613.796875,121.515625 C613.359373,120.921872 613.04948,120.221358 612.867188,119.414062 C612.684895,118.606767 612.59375,117.609381 612.59375,116.421875 L612.59375,108.3125 L609.78125,108.3125 L609.9375,106.09375 L612.875,105.828125 L614.1875,101.171875 L616.6875,101.15625 L616.6875,105.828125 L620.953125,105.828125 L620.953125,108.3125 L616.6875,108.3125 L616.6875,116.5 C616.6875,117.80209 616.874998,118.729164 617.25,119.28125 C617.625002,119.833336 618.317703,120.109375 619.328125,120.109375 C619.921878,120.109375 620.557288,120.057292 621.234375,119.953125 L621.34375,122.890625 C621.322917,122.890625 621.195314,122.914062 620.960938,122.960938 C620.726561,123.007813 620.502605,123.049479 620.289062,123.085938 C620.07552,123.122396 619.802085,123.15625 619.46875,123.1875 C619.135415,123.21875 618.822918,123.234375 618.53125,123.234375 Z M632.15625,123.328125 C629.39582,123.328125 627.247404,122.533862 625.710938,120.945312 C624.174471,119.356763 623.40625,117.161472 623.40625,114.359375 C623.40625,111.630195 624.130201,109.458341 625.578125,107.84375 C627.026049,106.229159 628.999987,105.416667 631.5,105.40625 C633.864595,105.40625 635.700514,106.145826 637.007812,107.625 C638.315111,109.104174 638.96875,111.067696 638.96875,113.515625 C638.96875,113.692709 638.966146,113.979165 638.960938,114.375 C638.955729,114.770835 638.953125,115.062499 638.953125,115.25 L627.53125,115.25 C627.572917,116.854175 628.013017,118.09635 628.851562,118.976562 C629.690108,119.856775 630.843743,120.296875 632.3125,120.296875 C634.187509,120.296875 635.989575,119.807297 637.71875,118.828125 L638.296875,121.734375 C636.578116,122.79688 634.531262,123.328125 632.15625,123.328125 Z M627.609375,112.671875 L635.109375,112.671875 C635.109375,111.276035 634.79167,110.203129 634.15625,109.453125 C633.52083,108.703121 632.640631,108.328125 631.515625,108.328125 C630.463536,108.328125 629.575524,108.692705 628.851562,109.421875 C628.127601,110.151045 627.713542,111.234368 627.609375,112.671875 Z M648.6875,123.328125 C646.447905,123.328125 644.687506,122.505217 643.40625,120.859375 C642.124994,119.213533 641.484375,117.015639 641.484375,114.265625 C641.484375,111.598945 642.122389,109.455737 643.398438,107.835938 C644.674486,106.216138 646.43228,105.40625 648.671875,105.40625 C651.109387,105.40625 652.833328,106.270825 653.84375,108 C653.739583,106.979162 653.6875,105.994796 653.6875,105.046875 L653.6875,99.5 L657.78125,99.234375 L657.78125,123 L654.234375,123 L653.78125,120.65625 C653.604166,120.937501 653.440105,121.179686 653.289062,121.382812 C653.13802,121.585939 652.916668,121.820311 652.625,122.085938 C652.333332,122.351564 652.018231,122.565103 651.679688,122.726562 C651.341144,122.888022 650.914065,123.028645 650.398438,123.148438 C649.88281,123.26823 649.312503,123.328125 648.6875,123.328125 Z M649.65625,120.21875 C652.406264,120.21875 653.802083,118.348977 653.84375,114.609375 C653.84375,112.494781 653.489587,110.95313 652.78125,109.984375 C652.072913,109.01562 651.015632,108.53125 649.609375,108.53125 C648.380202,108.53125 647.398441,109.023433 646.664062,110.007812 C645.929684,110.992192 645.5625,112.442699 645.5625,114.359375 C645.5625,116.265635 645.929684,117.718745 646.664062,118.71875 C647.398441,119.718755 648.395827,120.21875 649.65625,120.21875 Z M681.03125,123.328125 C677.541649,123.328125 674.815114,122.276052 672.851562,120.171875 C670.888011,118.067698 669.90625,115.187518 669.90625,111.53125 C669.90625,109.208322 670.364579,107.164071 671.28125,105.398438 C672.197921,103.632804 673.546866,102.255213 675.328125,101.265625 C677.109384,100.276037 679.21353,99.78125 681.640625,99.78125 C684.421889,99.78125 686.807282,100.380202 688.796875,101.578125 L687.421875,104.734375 C685.526032,103.713537 683.62501,103.203125 681.71875,103.203125 C679.406238,103.203125 677.588548,103.953117 676.265625,105.453125 C674.942702,106.953133 674.28125,108.994779 674.28125,111.578125 C674.28125,114.140638 674.869786,116.166659 676.046875,117.65625 C677.223964,119.145841 678.947905,119.890625 681.21875,119.890625 C682.677091,119.890625 683.999994,119.661461 685.1875,119.203125 L685.1875,113.890625 L680.390625,113.890625 L680.421875,110.5625 L689.171875,110.5625 L689.171875,121.609375 C687.755201,122.192711 686.414069,122.624999 685.148438,122.90625 C683.882806,123.187501 682.510424,123.328125 681.03125,123.328125 Z M693.34375,123 L693.34375,105.828125 L696.78125,105.828125 L697.3125,108.453125 C698.437506,106.651033 700.067698,105.75 702.203125,105.75 C702.651044,105.75 703.015624,105.770833 703.296875,105.8125 L703.234375,109.234375 C702.817706,109.171875 702.385419,109.140625 701.9375,109.140625 C700.427076,109.140625 699.299483,109.541663 698.554688,110.34375 C697.809892,111.145837 697.4375,112.26041 697.4375,113.6875 L697.4375,123 L693.34375,123 Z M710.328125,123.328125 C708.734367,123.328125 707.445317,122.888025 706.460938,122.007812 C705.476558,121.1276 704.984375,119.859383 704.984375,118.203125 C704.984375,116.421866 705.567702,115.101567 706.734375,114.242188 C707.901048,113.382808 709.661447,112.838543 712.015625,112.609375 C712.338543,112.567708 712.687498,112.526042 713.0625,112.484375 C713.437502,112.442708 713.859373,112.401042 714.328125,112.359375 C714.796877,112.317708 715.166665,112.28125 715.4375,112.25 L715.4375,111.34375 C715.4375,110.302078 715.197919,109.544273 714.71875,109.070312 C714.239581,108.596352 713.510422,108.359375 712.53125,108.359375 C711.13541,108.359375 709.411469,108.749996 707.359375,109.53125 C707.348958,109.5 707.177085,109.026046 706.84375,108.109375 C706.510415,107.192704 706.338542,106.723958 706.328125,106.703125 C708.348968,105.838537 710.536447,105.40625 712.890625,105.40625 C715.203137,105.40625 716.885411,105.908849 717.9375,106.914062 C718.989589,107.919276 719.515625,109.546864 719.515625,111.796875 L719.515625,123 L716.484375,123 C716.473958,122.958333 716.359376,122.609378 716.140625,121.953125 C715.921874,121.296872 715.8125,120.947917 715.8125,120.90625 C714.958329,121.739587 714.1224,122.351561 713.304688,122.742188 C712.486975,123.132814 711.494798,123.328125 710.328125,123.328125 Z M711.4375,120.421875 C712.385421,120.421875 713.210934,120.195315 713.914062,119.742188 C714.617191,119.28906 715.11979,118.739587 715.421875,118.09375 L715.421875,114.78125 C715.390625,114.78125 715.11719,114.802083 714.601562,114.84375 C714.085935,114.885417 713.807292,114.90625 713.765625,114.90625 C712.109367,115.052084 710.895837,115.364581 710.125,115.84375 C709.354163,116.322919 708.96875,117.093745 708.96875,118.15625 C708.96875,118.88542 709.18229,119.445311 709.609375,119.835938 C710.03646,120.226564 710.645829,120.421875 711.4375,120.421875 Z M723.640625,130.140625 L723.640625,105.828125 L727.15625,105.828125 L727.59375,108.234375 C728.156253,107.32812 728.903641,106.627607 729.835938,106.132812 C730.768234,105.638018 731.807286,105.390625 732.953125,105.390625 C734.359382,105.390625 735.596349,105.781246 736.664062,106.5625 C737.731776,107.343754 738.541664,108.408847 739.09375,109.757812 C739.645836,111.106778 739.921875,112.6302 739.921875,114.328125 C739.921875,116.984388 739.278652,119.148429 737.992188,120.820312 C736.705723,122.492196 734.963553,123.328125 732.765625,123.328125 C731.682286,123.328125 730.700525,123.111981 729.820312,122.679688 C728.9401,122.247394 728.203128,121.661462 727.609375,120.921875 C727.692709,122.421883 727.734375,123.265624 727.734375,123.453125 L727.734375,129.9375 L723.640625,130.140625 Z M731.890625,120.203125 C733.109381,120.203125 734.070309,119.692713 734.773438,118.671875 C735.476566,117.651037 735.828125,116.192718 735.828125,114.296875 C735.828125,112.369782 735.473962,110.92188 734.765625,109.953125 C734.057288,108.98437 733.072923,108.5 731.8125,108.5 C729.104153,108.5 727.734375,110.343732 727.703125,114.03125 C727.703125,116.156261 728.054684,117.716141 728.757812,118.710938 C729.460941,119.705734 730.505201,120.203125 731.890625,120.203125 Z M743.265625,123 L743.265625,99.5 L747.359375,99.234375 L747.359375,104.1875 C747.359375,104.427085 747.34375,105.09114 747.3125,106.179688 C747.28125,107.268235 747.265625,107.822917 747.265625,107.84375 C748.630215,106.218742 750.46353,105.40625 752.765625,105.40625 C754.682301,105.40625 756.169266,105.955724 757.226562,107.054688 C758.283859,108.153651 758.8125,109.843739 758.8125,112.125 L758.8125,123 L754.71875,123 L754.71875,112.578125 C754.71875,111.171868 754.494794,110.140628 754.046875,109.484375 C753.598956,108.828122 752.838547,108.5 751.765625,108.5 C750.848954,108.5 750.036462,108.731769 749.328125,109.195312 C748.619788,109.658856 748.088543,110.255205 747.734375,110.984375 C747.484374,111.942713 747.359375,113.192701 747.359375,114.734375 L747.359375,123 L743.265625,123 Z" id="Disconnected-Graph" fill="#FFFFFF"></path>
        <path d="M376.234375,524 L373.515625,524 L373.515625,503.28125 L366.40625,503.28125 L366.40625,500.890625 L383.34375,500.890625 L383.34375,503.28125 L376.234375,503.28125 L376.234375,524 Z M392.4375,508.65625 C391.10416,508.65625 390.015629,509.127599 389.171875,510.070312 C388.328121,511.013026 387.833334,512.302075 387.6875,513.9375 L396.734375,513.9375 C396.734375,512.239575 396.351566,510.9349 395.585938,510.023438 C394.820309,509.111975 393.77084,508.65625 392.4375,508.65625 Z M392.953125,524.359375 C390.463529,524.359375 388.502611,523.567716 387.070312,521.984375 C385.638014,520.401034 384.921875,518.234389 384.921875,515.484375 C384.921875,512.828112 385.614576,510.674487 387,509.023438 C388.385424,507.372388 390.208322,506.53125 392.46875,506.5 C394.593761,506.5 396.27864,507.226555 397.523438,508.679688 C398.768235,510.13282 399.390625,512.072905 399.390625,514.5 C399.390625,514.625001 399.388021,514.854165 399.382812,515.1875 C399.377604,515.520835 399.375,515.760416 399.375,515.90625 L387.609375,515.90625 C387.640625,517.854176 388.143224,519.37239 389.117188,520.460938 C390.091151,521.549485 391.401033,522.09375 393.046875,522.09375 C394.859384,522.09375 396.677074,521.614588 398.5,520.65625 L398.90625,522.765625 C397.166658,523.82813 395.182303,524.359375 392.953125,524.359375 Z M409.703125,522.109375 C411.421884,522.109375 412.700517,521.557297 413.539062,520.453125 C414.377608,519.348953 414.796875,517.770844 414.796875,515.71875 C414.796875,513.406238 414.393233,511.664068 413.585938,510.492188 C412.778642,509.320307 411.473967,508.734375 409.671875,508.734375 C408.869788,508.734375 408.161461,508.906248 407.546875,509.25 C406.932289,509.593752 406.437502,510.072914 406.0625,510.6875 C405.687498,511.302086 405.403647,512.007809 405.210938,512.804688 C405.018228,513.601566 404.921875,514.473954 404.921875,515.421875 C404.921875,516.755215 405.085936,517.911453 405.414062,518.890625 C405.742189,519.869797 406.27083,520.651039 407,521.234375 C407.72917,521.817711 408.630203,522.109375 409.703125,522.109375 Z M414.84375,521.515625 C414.281247,522.380213 413.531255,523.067706 412.59375,523.578125 C411.656245,524.088544 410.609381,524.34375 409.453125,524.34375 C407.192697,524.34375 405.421881,523.539071 404.140625,521.929688 C402.859369,520.320304 402.21875,518.130222 402.21875,515.359375 C402.21875,512.713528 402.869785,510.575529 404.171875,508.945312 C405.473965,507.315096 407.218739,506.5 409.40625,506.5 C410.541672,506.5 411.611974,506.747393 412.617188,507.242188 C413.622401,507.736982 414.374998,508.401038 414.875,509.234375 L414.828125,507.75 L414.828125,500.203125 L417.40625,500.046875 L417.40625,524 L415.1875,524 L414.84375,521.515625 Z" id="Ted" fill="#FFFFFF"></path>
        <path d="M568.335938,524 L565.570312,524 L565.570312,500.625 L573.101562,500.625 C574.247402,500.625 575.28385,500.74479 576.210938,500.984375 C577.138025,501.22396 577.960934,501.588539 578.679688,502.078125 C579.398441,502.567711 579.955727,503.223954 580.351562,504.046875 C580.747398,504.869796 580.945312,505.82812 580.945312,506.921875 C580.945312,507.82813 580.86198,508.638017 580.695312,509.351562 C580.528645,510.065108 580.24219,510.734372 579.835938,511.359375 C579.429685,511.984378 578.898441,512.502602 578.242188,512.914062 C577.585934,513.325523 576.744797,513.648436 575.71875,513.882812 C574.692703,514.117189 573.502611,514.234375 572.148438,514.234375 C571.075515,514.234375 569.804695,514.166667 568.335938,514.03125 L568.335938,524 Z M572.414062,511.84375 C573.434901,511.84375 574.309892,511.744793 575.039062,511.546875 C575.768233,511.348957 576.328123,511.104168 576.71875,510.8125 C577.109377,510.520832 577.416666,510.140627 577.640625,509.671875 C577.864584,509.203123 578.002604,508.773439 578.054688,508.382812 C578.106771,507.992186 578.132812,507.520836 578.132812,506.96875 C578.132812,505.645827 577.687504,504.671878 576.796875,504.046875 C575.906246,503.421872 574.69532,503.109375 573.164062,503.109375 L568.335938,503.109375 L568.335938,511.8125 C570.346364,511.833333 571.705726,511.84375 572.414062,511.84375 Z M588.585938,522.25 C589.825527,522.25 590.916662,521.908858 591.859375,521.226562 C592.802088,520.544267 593.408853,519.625006 593.679688,518.46875 L593.679688,515.578125 C593.627604,515.578125 593.312503,515.604166 592.734375,515.65625 C592.156247,515.708334 591.778647,515.739583 591.601562,515.75 C589.341135,515.947918 587.765629,516.317706 586.875,516.859375 C585.984371,517.401044 585.539062,518.270827 585.539062,519.46875 C585.539062,520.385421 585.809893,521.078123 586.351562,521.546875 C586.893232,522.015627 587.638016,522.25 588.585938,522.25 Z M594.257812,524 C594.101562,523.33333 593.950522,522.614587 593.804688,521.84375 C592.856766,522.791671 591.96615,523.447915 591.132812,523.8125 C590.299475,524.177085 589.320318,524.359375 588.195312,524.359375 C586.591138,524.359375 585.302088,523.940108 584.328125,523.101562 C583.354162,522.263017 582.867188,521.0573 582.867188,519.484375 C582.867188,517.734366 583.531243,516.437504 584.859375,515.59375 C586.187507,514.749996 588.10155,514.223959 590.601562,514.015625 C590.945314,513.984375 591.463538,513.940104 592.15625,513.882812 C592.848962,513.825521 593.367186,513.78125 593.710938,513.75 L593.710938,512.234375 C593.710938,511.026036 593.42969,510.130211 592.867188,509.546875 C592.304685,508.963539 591.419277,508.671875 590.210938,508.671875 C588.523429,508.671875 586.820321,509.088538 585.101562,509.921875 C585.049479,509.796874 584.914064,509.434899 584.695312,508.835938 C584.476561,508.236976 584.361979,507.927083 584.351562,507.90625 C585.111983,507.479165 586.01562,507.138022 587.0625,506.882812 C588.10938,506.627603 589.174474,506.5 590.257812,506.5 C592.39324,506.5 593.932287,506.966141 594.875,507.898438 C595.817713,508.830734 596.289062,510.416655 596.289062,512.65625 L596.289062,524 L594.257812,524 Z M606.257812,524.3125 C604.570304,524.3125 603.372399,523.901046 602.664062,523.078125 C601.955726,522.255204 601.580729,520.927092 601.539062,519.09375 L601.539062,508.796875 L598.992188,508.796875 L599.101562,507.078125 L601.523438,506.859375 L602.414062,502.9375 L604.132812,502.875 L604.132812,506.859375 L608.898438,506.859375 L608.898438,508.796875 L604.132812,508.796875 L604.132812,518.625 C604.132812,519.92709 604.330727,520.843747 604.726562,521.375 C605.122398,521.906253 605.799474,522.171875 606.757812,522.171875 C607.101564,522.171875 607.846348,522.088543 608.992188,521.921875 L609.101562,523.984375 C607.861973,524.203126 606.914066,524.3125 606.257812,524.3125 Z M617.351562,524.3125 C615.664054,524.3125 614.466149,523.901046 613.757812,523.078125 C613.049476,522.255204 612.674479,520.927092 612.632812,519.09375 L612.632812,508.796875 L610.085938,508.796875 L610.195312,507.078125 L612.617188,506.859375 L613.507812,502.9375 L615.226562,502.875 L615.226562,506.859375 L619.992188,506.859375 L619.992188,508.796875 L615.226562,508.796875 L615.226562,518.625 C615.226562,519.92709 615.424477,520.843747 615.820312,521.375 C616.216148,521.906253 616.893224,522.171875 617.851562,522.171875 C618.195314,522.171875 618.940098,522.088543 620.085938,521.921875 L620.195312,523.984375 C618.955723,524.203126 618.007816,524.3125 617.351562,524.3125 Z M620.789062,506.859375 L623.554688,506.859375 L628.960938,521.125 L633.773438,506.859375 L636.539062,506.859375 C631.914039,519.588605 629.523438,526.15104 629.367188,526.546875 C628.648434,528.348967 627.778651,529.669267 626.757812,530.507812 C625.736974,531.346358 624.393237,531.765625 622.726562,531.765625 C622.22656,531.765625 621.700524,531.723959 621.148438,531.640625 L620.992188,529.421875 C621.575524,529.463542 622.013019,529.484375 622.304688,529.484375 C623.481777,529.484375 624.374997,529.268231 624.984375,528.835938 C625.593753,528.403644 626.138018,527.593756 626.617188,526.40625 C627.044273,525.312495 627.361978,524.468753 627.570312,523.875 L620.789062,506.859375 Z" id="Patty" fill="#FFFFFF"></path>
        <path d="M375.109375,735.40625 C372.911447,729.020801 371.697918,725.432296 371.46875,724.640625 L367.671875,735.40625 L375.109375,735.40625 Z M378.6875,745 L375.984375,737.671875 L366.765625,737.671875 L363.96875,745 L361.21875,745 L370.09375,721.84375 L372.859375,721.84375 L381.46875,745 L378.6875,745 Z M388.359375,745.3125 C386.6927,745.3125 385.513024,744.864588 384.820312,743.96875 C384.127601,743.072912 383.78125,741.515636 383.78125,739.296875 L383.78125,721.203125 L386.375,721.046875 L386.375,738.265625 C386.375,738.973962 386.382812,739.541665 386.398438,739.96875 C386.414063,740.395835 386.453125,740.815102 386.515625,741.226562 C386.578125,741.638023 386.661458,741.947916 386.765625,742.15625 C386.869792,742.364584 387.020832,742.554687 387.21875,742.726562 C387.416668,742.898438 387.653644,743.013021 387.929688,743.070312 C388.205731,743.127604 388.546873,743.15625 388.953125,743.15625 C389.28646,743.15625 389.942703,743.093751 390.921875,742.96875 L391.0625,745.046875 C389.989578,745.223959 389.088545,745.3125 388.359375,745.3125 Z M395.71875,727.859375 L395.71875,745 L393.09375,745 L393.09375,727.859375 L395.71875,727.859375 Z M395.71875,721.625 L395.71875,724.71875 L393.09375,724.71875 L393.09375,721.625 L395.71875,721.625 Z M407.875,745.359375 C405.354154,745.359375 403.38282,744.541675 401.960938,742.90625 C400.539055,741.270825 399.828125,739.130222 399.828125,736.484375 C399.838542,733.817695 400.565097,731.653654 402.007812,729.992188 C403.450528,728.330721 405.427071,727.5 407.9375,727.5 C408.822921,727.5 409.679683,727.609374 410.507812,727.828125 C411.335942,728.046876 411.989581,728.333332 412.46875,728.6875 L411.75,730.71875 C410.531244,730.062497 409.244798,729.734375 407.890625,729.734375 C406.234367,729.734375 404.924484,730.338536 403.960938,731.546875 C402.997391,732.755214 402.515625,734.40624 402.515625,736.5 C402.515625,738.541677 402.992183,740.158848 403.945312,741.351562 C404.898442,742.544277 406.218742,743.140625 407.90625,743.140625 C409.250007,743.140625 410.624993,742.776045 412.03125,742.046875 L412.359375,744.125 C411.223953,744.947921 409.729176,745.359375 407.875,745.359375 Z M422.484375,729.65625 C421.151035,729.65625 420.062504,730.127599 419.21875,731.070312 C418.374996,732.013026 417.880209,733.302075 417.734375,734.9375 L426.78125,734.9375 C426.78125,733.239575 426.398441,731.9349 425.632812,731.023438 C424.867184,730.111975 423.817715,729.65625 422.484375,729.65625 Z M423,745.359375 C420.510404,745.359375 418.549486,744.567716 417.117188,742.984375 C415.684889,741.401034 414.96875,739.234389 414.96875,736.484375 C414.96875,733.828112 415.661451,731.674487 417.046875,730.023438 C418.432299,728.372388 420.255197,727.53125 422.515625,727.5 C424.640636,727.5 426.325515,728.226555 427.570312,729.679688 C428.81511,731.13282 429.4375,733.072905 429.4375,735.5 C429.4375,735.625001 429.434896,735.854165 429.429688,736.1875 C429.424479,736.520835 429.421875,736.760416 429.421875,736.90625 L417.65625,736.90625 C417.6875,738.854176 418.190099,740.37239 419.164062,741.460938 C420.138026,742.549485 421.447908,743.09375 423.09375,743.09375 C424.906259,743.09375 426.723949,742.614588 428.546875,741.65625 L428.953125,743.765625 C427.213533,744.82813 425.229178,745.359375 423,745.359375 Z" id="Alice" fill="#FFFFFF"></path>
        <path d="M536.96875,275.046875 L536.96875,282.859375 C537.395835,282.859375 538.278639,282.869792 539.617188,282.890625 C540.955736,282.911458 541.98958,282.921875 542.71875,282.921875 C544.708343,282.921875 546.093746,282.591149 546.875,281.929688 C547.656254,281.268226 548.046875,280.218757 548.046875,278.78125 C548.046875,277.520827 547.671879,276.583336 546.921875,275.96875 C546.171871,275.354164 544.916675,275.046875 543.15625,275.046875 L536.96875,275.046875 Z M551.78125,296 L548.65625,296 L545.46875,288.75 C544.604162,286.802074 544.052085,285.63021 543.8125,285.234375 C543.05208,285.286459 542.151047,285.3125 541.109375,285.3125 L536.96875,285.1875 L536.96875,296 L534.203125,296 L534.203125,272.625 L541.59375,272.625 C542.447921,272.625 543.203122,272.645833 543.859375,272.6875 C544.515628,272.729167 545.169268,272.804687 545.820312,272.914062 C546.471357,273.023438 547.036456,273.174478 547.515625,273.367188 C547.994794,273.559897 548.442706,273.809894 548.859375,274.117188 C549.276044,274.424481 549.611978,274.791665 549.867188,275.21875 C550.122397,275.645835 550.322916,276.153643 550.46875,276.742188 C550.614584,277.330732 550.6875,277.994788 550.6875,278.734375 C550.6875,280.192716 550.304691,281.447911 549.539062,282.5 C548.773434,283.552089 547.687507,284.281248 546.28125,284.6875 C546.28125,284.708333 546.385416,284.895832 546.59375,285.25 C546.802084,285.604168 547.049478,286.03906 547.335938,286.554688 C547.622397,287.070315 547.843749,287.499998 548,287.84375 L551.78125,296 Z M556.96875,287.46875 C556.96875,289.50001 557.419266,291.127598 558.320312,292.351562 C559.221359,293.575527 560.53645,294.1875 562.265625,294.1875 C563.973967,294.1875 565.263016,293.578131 566.132812,292.359375 C567.002609,291.140619 567.4375,289.50001 567.4375,287.4375 C567.4375,285.34374 567.007817,283.695319 566.148438,282.492188 C565.289058,281.289056 563.979175,280.6875 562.21875,280.6875 C560.510408,280.6875 559.208338,281.302077 558.3125,282.53125 C557.416662,283.760423 556.96875,285.40624 556.96875,287.46875 Z M570.140625,287.421875 C570.140625,290.078138 569.432299,292.231763 568.015625,293.882812 C566.598951,295.533862 564.640638,296.359375 562.140625,296.359375 C559.734363,296.359375 557.82032,295.52605 556.398438,293.859375 C554.976555,292.1927 554.265625,290.052096 554.265625,287.4375 C554.265625,284.77082 554.97916,282.614592 556.40625,280.96875 C557.83334,279.322908 559.791654,278.5 562.28125,278.5 C564.729179,278.5 566.651035,279.325513 568.046875,280.976562 C569.442715,282.627612 570.140625,284.776028 570.140625,287.421875 Z M573.828125,296 L573.828125,278.859375 L576.015625,278.859375 L576.34375,281.3125 C577.020837,280.468746 577.867182,279.789065 578.882812,279.273438 C579.898443,278.75781 580.994786,278.5 582.171875,278.5 C584.151052,278.5 585.614579,279.054682 586.5625,280.164062 C587.510421,281.273443 587.984375,282.979155 587.984375,285.28125 L587.984375,296 L585.375,296 C585.375,289.124966 585.369792,285.442711 585.359375,284.953125 C585.317708,283.494784 585.02344,282.427087 584.476562,281.75 C583.929685,281.072913 583.015631,280.734375 581.734375,280.734375 C580.390618,280.734375 579.270838,281.057288 578.375,281.703125 C577.479162,282.348962 576.895835,283.187495 576.625,284.21875 C576.520833,284.91667 576.46875,285.718745 576.46875,286.625 L576.46875,296 L573.828125,296 Z" id="Ron" fill="#FFFFFF"></path>
        <path d="M584.242188,741.1875 C586.64845,742.375006 589.226549,742.96875 591.976562,742.96875 C595.361996,742.96875 597.054688,741.427099 597.054688,738.34375 C597.054688,737.343745 596.786461,736.533857 596.25,735.914062 C595.713539,735.294268 594.736986,734.807293 593.320312,734.453125 L588.726562,733.296875 C585.216128,732.411454 583.460938,730.536473 583.460938,727.671875 C583.460938,725.473947 584.216138,723.841151 585.726562,722.773438 C587.236987,721.705724 589.325507,721.171875 591.992188,721.171875 C593.388028,721.171875 594.695306,721.322915 595.914062,721.625 C597.132819,721.927085 598.153642,722.333331 598.976562,722.84375 L598.195312,725.046875 C597.497392,724.661456 596.572922,724.31771 595.421875,724.015625 C594.270828,723.71354 593.106777,723.5625 591.929688,723.5625 C588.158835,723.5625 586.273438,724.869779 586.273438,727.484375 C586.273438,728.369796 586.562497,729.080726 587.140625,729.617188 C587.718753,730.153649 588.585932,730.562499 589.742188,730.84375 L594.132812,731.90625 C596.007822,732.354169 597.429683,733.070308 598.398438,734.054688 C599.367192,735.039067 599.851562,736.437491 599.851562,738.25 C599.851562,740.604178 599.130216,742.377598 597.6875,743.570312 C596.244784,744.763027 594.283867,745.359375 591.804688,745.359375 C589.950512,745.359375 588.302091,745.169273 586.859375,744.789062 C585.416659,744.408852 584.273442,743.958336 583.429688,743.4375 L584.242188,741.1875 Z M608.320312,743.25 C609.559902,743.25 610.651037,742.908858 611.59375,742.226562 C612.536463,741.544267 613.143228,740.625006 613.414062,739.46875 L613.414062,736.578125 C613.361979,736.578125 613.046878,736.604166 612.46875,736.65625 C611.890622,736.708334 611.513022,736.739583 611.335938,736.75 C609.07551,736.947918 607.500004,737.317706 606.609375,737.859375 C605.718746,738.401044 605.273438,739.270827 605.273438,740.46875 C605.273438,741.385421 605.544268,742.078123 606.085938,742.546875 C606.627607,743.015627 607.372391,743.25 608.320312,743.25 Z M613.992188,745 C613.835937,744.33333 613.684897,743.614587 613.539062,742.84375 C612.591141,743.791671 611.700525,744.447915 610.867188,744.8125 C610.03385,745.177085 609.054693,745.359375 607.929688,745.359375 C606.325513,745.359375 605.036463,744.940108 604.0625,744.101562 C603.088537,743.263017 602.601562,742.0573 602.601562,740.484375 C602.601562,738.734366 603.265618,737.437504 604.59375,736.59375 C605.921882,735.749996 607.835925,735.223959 610.335938,735.015625 C610.679689,734.984375 611.197913,734.940104 611.890625,734.882812 C612.583337,734.825521 613.101561,734.78125 613.445312,734.75 L613.445312,733.234375 C613.445312,732.026036 613.164065,731.130211 612.601562,730.546875 C612.03906,729.963539 611.153652,729.671875 609.945312,729.671875 C608.257804,729.671875 606.554696,730.088538 604.835938,730.921875 C604.783854,730.796874 604.648439,730.434899 604.429688,729.835938 C604.210936,729.236976 604.096354,728.927083 604.085938,728.90625 C604.846358,728.479165 605.749995,728.138022 606.796875,727.882812 C607.843755,727.627603 608.908849,727.5 609.992188,727.5 C612.127615,727.5 613.666662,727.966141 614.609375,728.898438 C615.552088,729.830734 616.023438,731.416655 616.023438,733.65625 L616.023438,745 L613.992188,745 Z M625.132812,745.3125 C623.466138,745.3125 622.286462,744.864588 621.59375,743.96875 C620.901038,743.072912 620.554688,741.515636 620.554688,739.296875 L620.554688,721.203125 L623.148438,721.046875 L623.148438,738.265625 C623.148438,738.973962 623.15625,739.541665 623.171875,739.96875 C623.1875,740.395835 623.226562,740.815102 623.289062,741.226562 C623.351563,741.638023 623.434895,741.947916 623.539062,742.15625 C623.64323,742.364584 623.79427,742.554687 623.992188,742.726562 C624.190105,742.898438 624.427082,743.013021 624.703125,743.070312 C624.979168,743.127604 625.32031,743.15625 625.726562,743.15625 C626.059898,743.15625 626.716141,743.093751 627.695312,742.96875 L627.835938,745.046875 C626.763015,745.223959 625.861983,745.3125 625.132812,745.3125 Z M634.023438,745.3125 C632.356763,745.3125 631.177087,744.864588 630.484375,743.96875 C629.791663,743.072912 629.445312,741.515636 629.445312,739.296875 L629.445312,721.203125 L632.039062,721.046875 L632.039062,738.265625 C632.039062,738.973962 632.046875,739.541665 632.0625,739.96875 C632.078125,740.395835 632.117187,740.815102 632.179688,741.226562 C632.242188,741.638023 632.32552,741.947916 632.429688,742.15625 C632.533855,742.364584 632.684895,742.554687 632.882812,742.726562 C633.08073,742.898438 633.317707,743.013021 633.59375,743.070312 C633.869793,743.127604 634.210935,743.15625 634.617188,743.15625 C634.950523,743.15625 635.606766,743.093751 636.585938,742.96875 L636.726562,745.046875 C635.65364,745.223959 634.752608,745.3125 634.023438,745.3125 Z M636.117188,727.859375 L638.882812,727.859375 L644.289062,742.125 L649.101562,727.859375 L651.867188,727.859375 C647.242164,740.588605 644.851563,747.15104 644.695312,747.546875 C643.976559,749.348967 643.106776,750.669267 642.085938,751.507812 C641.065099,752.346358 639.721362,752.765625 638.054688,752.765625 C637.554685,752.765625 637.028649,752.723959 636.476562,752.640625 L636.320312,750.421875 C636.903649,750.463542 637.341144,750.484375 637.632812,750.484375 C638.809902,750.484375 639.703122,750.268231 640.3125,749.835938 C640.921878,749.403644 641.466143,748.593756 641.945312,747.40625 C642.372398,746.312495 642.690103,745.468753 642.898438,744.875 L636.117188,727.859375 Z" id="Sally" fill="#FFFFFF"></path>
        <path d="M814.945312,747.34375 C813.184887,747.34375 811.604174,747.049482 810.203125,746.460938 C808.802076,745.872393 807.645838,745.049484 806.734375,743.992188 C805.822912,742.934891 805.125002,741.682299 804.640625,740.234375 C804.156248,738.786451 803.914062,737.197925 803.914062,735.46875 C803.914062,733.135405 804.356766,731.072926 805.242188,729.28125 C806.127609,727.489574 807.445304,726.07813 809.195312,725.046875 C810.945321,724.01562 813.018217,723.5 815.414062,723.5 C818.070326,723.5 820.403636,724.104161 822.414062,725.3125 L821.382812,727.546875 C819.445303,726.432286 817.466156,725.875 815.445312,725.875 C814.039055,725.875 812.781256,726.117185 811.671875,726.601562 C810.562494,727.08594 809.656254,727.757808 808.953125,728.617188 C808.249996,729.476567 807.713544,730.486973 807.34375,731.648438 C806.973956,732.809902 806.789062,734.083326 806.789062,735.46875 C806.789062,738.406265 807.520826,740.726554 808.984375,742.429688 C810.447924,744.132821 812.606757,744.984375 815.460938,744.984375 C817.085946,744.984375 818.736971,744.656253 820.414062,744 L820.414062,737.40625 L814.960938,737.40625 L815.054688,735.046875 L822.945312,735.046875 L822.945312,745.609375 C821.632806,746.234378 820.364589,746.679686 819.140625,746.945312 C817.916661,747.210939 816.518237,747.34375 814.945312,747.34375 Z M830.289062,729.859375 L830.289062,747 L827.664062,747 L827.664062,729.859375 L830.289062,729.859375 Z M830.289062,723.625 L830.289062,726.71875 L827.664062,726.71875 L827.664062,723.625 L830.289062,723.625 Z M839.804688,747.3125 C838.138013,747.3125 836.958337,746.864588 836.265625,745.96875 C835.572913,745.072912 835.226562,743.515636 835.226562,741.296875 L835.226562,723.203125 L837.820312,723.046875 L837.820312,740.265625 C837.820312,740.973962 837.828125,741.541665 837.84375,741.96875 C837.859375,742.395835 837.898437,742.815102 837.960938,743.226562 C838.023438,743.638023 838.10677,743.947916 838.210938,744.15625 C838.315105,744.364584 838.466145,744.554687 838.664062,744.726562 C838.86198,744.898438 839.098957,745.013021 839.375,745.070312 C839.651043,745.127604 839.992185,745.15625 840.398438,745.15625 C840.731773,745.15625 841.388016,745.093751 842.367188,744.96875 L842.507812,747.046875 C841.43489,747.223959 840.533858,747.3125 839.804688,747.3125 Z" id="Gil" fill="#FFFFFF"></path>
        <path d="M392.5,580 C355.773064,580 326,550.226936 326,513.5 C326,476.773064 355.773064,447 392.5,447 C429.226936,447 459,476.773064 459,513.5 C459,550.226936 429.226936,580 392.5,580 Z M392.5,576 C427.017797,576 455,548.017797 455,513.5 C455,478.982203 427.017797,451 392.5,451 C357.982203,451 330,478.982203 330,513.5 C330,548.017797 357.982203,576 392.5,576 Z" id="Oval-2" fill="#FFFFFF" fill-rule="nonzero"></path>
        <path d="M599.5,580 C562.773064,580 533,550.226936 533,513.5 C533,476.773064 562.773064,447 599.5,447 C636.226936,447 666,476.773064 666,513.5 C666,550.226936 636.226936,580 599.5,580 Z M599.5,576 C634.017797,576 662,548.017797 662,513.5 C662,478.982203 634.017797,451 599.5,451 C564.982203,451 537,478.982203 537,513.5 C537,548.017797 564.982203,576 599.5,576 Z" id="Oval-2-Copy" fill="#FFFFFF" fill-rule="nonzero"></path>
        <path d="M395.5,801 C358.773064,801 329,771.226936 329,734.5 C329,697.773064 358.773064,668 395.5,668 C432.226936,668 462,697.773064 462,734.5 C462,771.226936 432.226936,801 395.5,801 Z M395.5,797 C430.017797,797 458,769.017797 458,734.5 C458,699.982203 430.017797,672 395.5,672 C360.982203,672 333,699.982203 333,734.5 C333,769.017797 360.982203,797 395.5,797 Z" id="Oval-2-Copy-2" fill="#FFFFFF" fill-rule="nonzero"></path>
        <path d="M560.5,352 C523.773064,352 494,322.226936 494,285.5 C494,248.773064 523.773064,219 560.5,219 C597.226936,219 627,248.773064 627,285.5 C627,322.226936 597.226936,352 560.5,352 Z M560.5,348 C595.017797,348 623,320.017797 623,285.5 C623,250.982203 595.017797,223 560.5,223 C525.982203,223 498,250.982203 498,285.5 C498,320.017797 525.982203,348 560.5,348 Z" id="Oval-2-Copy-3" fill="#FFFFFF" fill-rule="nonzero"></path>
        <path d="M616.5,801 C579.773064,801 550,771.226936 550,734.5 C550,697.773064 579.773064,668 616.5,668 C653.226936,668 683,697.773064 683,734.5 C683,771.226936 653.226936,801 616.5,801 Z M616.5,797 C651.017797,797 679,769.017797 679,734.5 C679,699.982203 651.017797,672 616.5,672 C581.982203,672 554,699.982203 554,734.5 C554,769.017797 581.982203,797 616.5,797 Z" id="Oval-2-Copy-4" fill="#FFFFFF" fill-rule="nonzero"></path>
        <path d="M821.5,803 C784.773064,803 755,773.226936 755,736.5 C755,699.773064 784.773064,670 821.5,670 C858.226936,670 888,699.773064 888,736.5 C888,773.226936 858.226936,803 821.5,803 Z M821.5,799 C856.017797,799 884,771.017797 884,736.5 C884,701.982203 856.017797,674 821.5,674 C786.982203,674 759,701.982203 759,736.5 C759,771.017797 786.982203,799 821.5,799 Z" id="Oval-2-Copy-5" fill="#FFFFFF" fill-rule="nonzero"></path>
        <polygon id="Line-4" fill="#FFFFFF" fill-rule="nonzero" points="432.771208 465.315395 429.684605 462.771208 530.728792 340.184605 533.815395 342.728792"></polygon>
        <polygon id="Line" fill="#FFFFFF" fill-rule="nonzero" points="570.09929 349.004476 573.995524 348.09929 597.90071 450.995524 594.004476 451.90071"></polygon>
        <polygon id="Line-2" fill="#FFFFFF" fill-rule="nonzero" points="455.5 518.5 455.5 514.5 535.5 514.5 535.5 518.5"></polygon>
        <polygon id="Line-5" fill="#FFFFFF" fill-rule="nonzero" points="382.280585 576.746662 386.253338 576.280585 397.219415 669.753338 393.246662 670.219415"></polygon>
        <polygon id="Line-6" fill="#FFFFFF" fill-rule="nonzero" points="680.913498 739 680.913498 735 759.003494 735 759.003494 739"></polygon>
    </g>
</svg>