<?xml version="1.0" encoding="utf-8"?>
<!-- Generator: Adobe Illustrator 26.2.1, SVG Export Plug-In . SVG Version: 6.00 Build 0)  -->
<svg version="1.1" id="Layer_1" xmlns="http://www.w3.org/2000/svg" xmlns:xlink="http://www.w3.org/1999/xlink" x="0px" y="0px"
	 viewBox="0 0 1200 800" style="enable-background:new 0 0 1200 800;" xml:space="preserve">
<style type="text/css">
	.st0{fill:none;stroke:#FFFFFF;stroke-miterlimit:10;}
	.st1{fill:#FFFFFF;}
	.st2{fill:none;stroke:#18A34A;stroke-width:6;stroke-linecap:round;stroke-miterlimit:10;stroke-dasharray:0,0,2,10;}
	.st3{fill:none;stroke:#157DC0;stroke-width:6;stroke-linecap:round;stroke-miterlimit:10;stroke-dasharray:0,0,2,10;}
	.st4{fill:none;stroke:#ED8268;stroke-width:6;stroke-linecap:round;stroke-miterlimit:10;stroke-dasharray:0,0,2,10;}
	.st5{fill:#EF8C97;}
	.st6{fill:#ED8268;}
	.st7{fill:#E75530;}
	.st8{fill:#157DC0;}
	.st9{fill:#18A34A;}
	.st10{fill:#21C0EB;}
	.st11{fill:#EC1C24;}
	.st12{fill:#69B445;}
	.st13{fill:#F6F7F7;}
	.st14{fill:#DB4926;}
	.st15{fill:#284273;}
	.st16{fill:#3C6EB3;}
	.st17{fill:#D51C53;}
	.st18{fill:#1B92D0;}
	.st19{fill:url(#SVGID_1_);}
</style>
<g id="a">
	<line class="st0" x1="100" y1="100" x2="100" y2="700"/>
	<line class="st0" x1="166.7" y1="398.4" x2="166.7" y2="700"/>
	<line class="st0" x1="166.7" y1="172.6" x2="166.7" y2="359.4"/>
	<line class="st0" x1="166.7" y1="100" x2="166.7" y2="133.7"/>
	<line class="st0" x1="233.3" y1="100" x2="233.3" y2="700"/>
	<line class="st0" x1="300" y1="100" x2="300" y2="700"/>
	<line class="st0" x1="366.7" y1="100" x2="366.7" y2="700"/>
	<line class="st0" x1="433.3" y1="100" x2="433.3" y2="700"/>
	<line class="st0" x1="500" y1="100" x2="500" y2="700"/>
	<line class="st0" x1="566.7" y1="100" x2="566.7" y2="700"/>
	<line class="st0" x1="633.3" y1="100" x2="633.3" y2="700"/>
	<line class="st0" x1="700" y1="100" x2="700" y2="700"/>
	<line class="st0" x1="766.7" y1="594.2" x2="766.7" y2="700"/>
	<line class="st0" x1="766.7" y1="407.7" x2="766.7" y2="555.3"/>
	<line class="st0" x1="766.7" y1="100" x2="766.7" y2="359.4"/>
	<line class="st0" x1="833.3" y1="446.6" x2="833.3" y2="700"/>
	<line class="st0" x1="833.3" y1="182" x2="833.3" y2="407.7"/>
	<line class="st0" x1="833.3" y1="100" x2="833.3" y2="133.7"/>
	<line class="st0" x1="900" y1="220.9" x2="900" y2="700"/>
	<line class="st0" x1="900" y1="100" x2="900" y2="182"/>
	<line class="st0" x1="966.7" y1="230.8" x2="966.7" y2="700"/>
	<line class="st0" x1="966.7" y1="100" x2="966.7" y2="182"/>
	<line class="st0" x1="1033.3" y1="269.2" x2="1033.3" y2="700"/>
	<line class="st0" x1="1033.3" y1="100" x2="1033.3" y2="230.3"/>
	<line class="st0" x1="1100" y1="100" x2="1100" y2="700"/>
	<g>
		<path class="st1" d="M82.3,691.9h13.6v-3.2h1.7v9h-1.7v-3.9H85.6v3.9h-1.3c-0.1-2.5-0.3-3.8-2-4.6V691.9z"/>
		<path class="st1" d="M90.3,676.4c1.2,0.7,2.1,1.9,2.1,3.8c0,2.7-2.1,4.8-5.1,4.8c-2.8,0-5.2-2-5.2-5.2c0-3.7,2.7-5.4,7.3-5.4
			c4.3,0,8.5,1.5,8.5,5.7c0,2.8-1.8,4.3-3.8,4.6v-2.1c1.4-0.2,2.1-1.2,2.1-2.6C96.1,677.7,93.8,676.4,90.3,676.4z M83.6,679.7
			c0,1.9,1.4,3.2,3.5,3.2s3.5-1.3,3.5-3.1s-1.5-3.2-3.5-3.2S83.6,677.8,83.6,679.7z"/>
		<path class="st1" d="M90.3,662.8c1.2,0.7,2.1,1.9,2.1,3.8c0,2.7-2.1,4.8-5.1,4.8c-2.8,0-5.2-2-5.2-5.2c0-3.7,2.7-5.4,7.3-5.4
			c4.3,0,8.5,1.5,8.5,5.7c0,2.8-1.8,4.3-3.8,4.6V669c1.4-0.2,2.1-1.2,2.1-2.6C96.1,664.1,93.8,662.9,90.3,662.8z M83.6,666.1
			c0,1.9,1.4,3.2,3.5,3.2s3.5-1.3,3.5-3.1s-1.5-3.2-3.5-3.2S83.6,664.2,83.6,666.1z"/>
		<path class="st1" d="M93.2,649.3c-2.1,0-2.9,1.8-2.9,4.2v0.3h-1.7v-0.2c0-2.5-0.8-3.8-2.6-3.8c-1.5,0-2.4,1.3-2.4,2.8
			c0,1.9,1.2,3,2.9,3.1v2c-2.7-0.2-4.6-2.2-4.6-5.2c0-2.5,1.1-4.8,3.8-4.8c1.6,0,2.9,0.8,3.5,2.4c0.7-2.1,2.3-2.8,3.8-2.8
			c3,0,4.6,2.7,4.6,5.3c0,3.4-2.3,5-4.8,5.2v-2c1.8-0.2,3.2-1.3,3.2-3.3C96.1,650.6,95.1,649.3,93.2,649.3L93.2,649.3z"/>
	</g>
	<g>
		<path class="st1" d="M149,691.9h13.6v-3.2h1.7v9h-1.7v-3.9h-10.2v3.9h-1.3c-0.1-2.5-0.3-3.8-2-4.6L149,691.9L149,691.9z"/>
		<path class="st1" d="M157,676.4c1.2,0.7,2.1,1.9,2.1,3.8c0,2.7-2.1,4.8-5.1,4.8c-2.8,0-5.2-2-5.2-5.2c0-3.7,2.6-5.4,7.3-5.4
			c4.3,0,8.5,1.5,8.5,5.7c0,2.8-1.9,4.3-3.8,4.6v-2.1c1.4-0.2,2.1-1.2,2.1-2.6C162.8,677.7,160.5,676.4,157,676.4z M150.3,679.7
			c0,1.9,1.4,3.2,3.5,3.2s3.5-1.3,3.5-3.1s-1.5-3.2-3.5-3.2S150.3,677.8,150.3,679.7z"/>
		<path class="st1" d="M157,662.8c1.2,0.7,2.1,1.9,2.1,3.8c0,2.7-2.1,4.8-5.1,4.8c-2.8,0-5.2-2-5.2-5.2c0-3.7,2.6-5.4,7.3-5.4
			c4.3,0,8.5,1.5,8.5,5.7c0,2.8-1.9,4.3-3.8,4.6V669c1.4-0.2,2.1-1.2,2.1-2.6C162.8,664.1,160.5,662.9,157,662.8z M150.3,666.1
			c0,1.9,1.4,3.2,3.5,3.2s3.5-1.3,3.5-3.1s-1.5-3.2-3.5-3.2S150.3,664.2,150.3,666.1z"/>
		<path class="st1" d="M160.4,646.8v2.5h3.8v1.9h-3.8v7.2h-1.8l-9.7-7.2v-2h9.7v-2.5H160.4z M158.6,656.4v-5.2h-7.1L158.6,656.4z"/>
	</g>
	<g>
		<path class="st1" d="M215.6,691.9h13.6v-3.2h1.7v9h-1.7v-3.9h-10.2v3.9h-1.3c-0.1-2.5-0.3-3.8-2-4.6L215.6,691.9L215.6,691.9z"/>
		<path class="st1" d="M223.6,676.4c1.2,0.7,2.1,1.9,2.1,3.8c0,2.7-2.1,4.8-5.1,4.8c-2.8,0-5.2-2-5.2-5.2c0-3.7,2.6-5.4,7.3-5.4
			c4.3,0,8.5,1.5,8.5,5.7c0,2.8-1.9,4.3-3.8,4.6v-2.1c1.4-0.2,2.1-1.2,2.1-2.6C229.5,677.7,227.1,676.4,223.6,676.4z M217,679.7
			c0,1.9,1.4,3.2,3.5,3.2s3.5-1.3,3.5-3.1s-1.5-3.2-3.5-3.2S217,677.8,217,679.7z"/>
		<path class="st1" d="M223.6,662.8c1.2,0.7,2.1,1.9,2.1,3.8c0,2.7-2.1,4.8-5.1,4.8c-2.8,0-5.2-2-5.2-5.2c0-3.7,2.6-5.4,7.3-5.4
			c4.3,0,8.5,1.5,8.5,5.7c0,2.8-1.9,4.3-3.8,4.6V669c1.4-0.2,2.1-1.2,2.1-2.6C229.5,664.1,227.1,662.9,223.6,662.8z M217,666.1
			c0,1.9,1.4,3.2,3.5,3.2s3.5-1.3,3.5-3.1s-1.5-3.2-3.5-3.2S217,664.2,217,666.1z"/>
		<path class="st1" d="M225.9,649.3c-2.5,0-3.5,1.7-3.5,3.2c0,1.5,0.9,2.5,1.6,2.8l-0.1,2l-8.2-1v-8.4h1.6v6.8l4.6,0.5
			c-0.8-0.8-1.1-1.9-1.1-3.2c0-2.5,1.9-4.9,5.1-4.9s5.3,2.6,5.3,5.3c0,3.4-2.3,5-4.8,5.2v-2c1.9-0.2,3.1-1.3,3.1-3.3
			C229.5,650.8,228.2,649.3,225.9,649.3L225.9,649.3z"/>
	</g>
	<g>
		<path class="st1" d="M282.3,691.9h13.6v-3.2h1.7v9h-1.7v-3.9h-10.2v3.9h-1.3c-0.1-2.5-0.3-3.8-2-4.6V691.9z"/>
		<path class="st1" d="M290.3,676.4c1.2,0.7,2.1,1.9,2.1,3.8c0,2.7-2.1,4.8-5.1,4.8c-2.8,0-5.2-2-5.2-5.2c0-3.7,2.6-5.4,7.3-5.4
			c4.3,0,8.5,1.5,8.5,5.7c0,2.8-1.9,4.3-3.8,4.6v-2.1c1.4-0.2,2.1-1.2,2.1-2.6C296.1,677.7,293.8,676.4,290.3,676.4L290.3,676.4z
			 M283.6,679.7c0,1.9,1.5,3.2,3.5,3.2s3.5-1.3,3.5-3.1s-1.5-3.2-3.5-3.2S283.6,677.8,283.6,679.7z"/>
		<path class="st1" d="M290.3,662.8c1.2,0.7,2.1,1.9,2.1,3.8c0,2.7-2.1,4.8-5.1,4.8c-2.8,0-5.2-2-5.2-5.2c0-3.7,2.6-5.4,7.3-5.4
			c4.3,0,8.5,1.5,8.5,5.7c0,2.8-1.9,4.3-3.8,4.6V669c1.4-0.2,2.1-1.2,2.1-2.6C296.1,664.1,293.8,662.9,290.3,662.8L290.3,662.8z
			 M283.6,666.1c0,1.9,1.5,3.2,3.5,3.2s3.5-1.3,3.5-3.1s-1.5-3.2-3.5-3.2S283.6,664.2,283.6,666.1z"/>
		<path class="st1" d="M289.5,655.8c-1.2-0.7-2.1-1.9-2.1-3.8c0-2.7,2.1-4.8,5.2-4.8c2.8,0,5.2,2.1,5.2,5.2c0,3.6-2.7,5.4-7.3,5.4
			c-4.3,0-8.5-1.6-8.5-5.8c0-2.8,1.9-4.3,3.8-4.6v2.1c-1.3,0.2-2.1,1.2-2.1,2.6C283.7,654.5,286,655.7,289.5,655.8L289.5,655.8z
			 M296.1,652.5c0-1.8-1.4-3.2-3.5-3.2s-3.5,1.3-3.5,3.2s1.5,3.2,3.5,3.2S296.1,654.4,296.1,652.5z"/>
	</g>
	<g>
		<path class="st1" d="M349,691.9h13.6v-3.2h1.7v9h-1.7v-3.9h-10.2v3.9h-1.3c-0.1-2.5-0.3-3.8-2-4.6V691.9z"/>
		<path class="st1" d="M357,676.4c1.2,0.7,2.1,1.9,2.1,3.8c0,2.7-2.1,4.8-5.1,4.8c-2.8,0-5.2-2-5.2-5.2c0-3.7,2.6-5.4,7.3-5.4
			c4.3,0,8.5,1.5,8.5,5.7c0,2.8-1.9,4.3-3.8,4.6v-2.1c1.4-0.2,2.1-1.2,2.1-2.6C362.8,677.7,360.5,676.4,357,676.4L357,676.4z
			 M350.3,679.7c0,1.9,1.5,3.2,3.5,3.2s3.5-1.3,3.5-3.1s-1.5-3.2-3.5-3.2S350.3,677.8,350.3,679.7z"/>
		<path class="st1" d="M357,662.8c1.2,0.7,2.1,1.9,2.1,3.8c0,2.7-2.1,4.8-5.1,4.8c-2.8,0-5.2-2-5.2-5.2c0-3.7,2.6-5.4,7.3-5.4
			c4.3,0,8.5,1.5,8.5,5.7c0,2.8-1.9,4.3-3.8,4.6V669c1.4-0.2,2.1-1.2,2.1-2.6C362.8,664.1,360.5,662.9,357,662.8L357,662.8z
			 M350.3,666.1c0,1.9,1.5,3.2,3.5,3.2s3.5-1.3,3.5-3.1s-1.5-3.2-3.5-3.2S350.3,664.2,350.3,666.1z"/>
		<path class="st1" d="M349,657.6v-10.7h1.6c3,3.9,8,6.4,13.6,6.6v2.2c-5.5-0.3-10.6-2.8-13.6-6.4v8.3L349,657.6L349,657.6z"/>
	</g>
	<g>
		<path class="st1" d="M415.6,691.9h13.6v-3.2h1.7v9h-1.7v-3.9h-10.2v3.9h-1.3c-0.1-2.5-0.3-3.8-2-4.6V691.9z"/>
		<path class="st1" d="M423.6,676.4c1.2,0.7,2.1,1.9,2.1,3.8c0,2.7-2.1,4.8-5.1,4.8c-2.8,0-5.2-2-5.2-5.2c0-3.7,2.6-5.4,7.3-5.4
			c4.3,0,8.5,1.5,8.5,5.7c0,2.8-1.9,4.3-3.8,4.6v-2.1c1.4-0.2,2.1-1.2,2.1-2.6C429.5,677.7,427.1,676.4,423.6,676.4L423.6,676.4z
			 M417,679.7c0,1.9,1.5,3.2,3.5,3.2s3.5-1.3,3.5-3.1s-1.5-3.2-3.5-3.2S417,677.8,417,679.7z"/>
		<path class="st1" d="M423.6,662.8c1.2,0.7,2.1,1.9,2.1,3.8c0,2.7-2.1,4.8-5.1,4.8c-2.8,0-5.2-2-5.2-5.2c0-3.7,2.6-5.4,7.3-5.4
			c4.3,0,8.5,1.5,8.5,5.7c0,2.8-1.9,4.3-3.8,4.6V669c1.4-0.2,2.1-1.2,2.1-2.6C429.5,664.1,427.1,662.9,423.6,662.8L423.6,662.8z
			 M417,666.1c0,1.9,1.5,3.2,3.5,3.2s3.5-1.3,3.5-3.1s-1.5-3.2-3.5-3.2S417,664.2,417,666.1z"/>
		<path class="st1" d="M419.2,647.6c1.2,0,2.7,0.6,3.5,2c0.8-1.9,2.5-2.5,3.8-2.5c2.9,0,4.6,2.4,4.6,5.4s-1.7,5.4-4.6,5.4
			c-1.4,0-3-0.5-3.8-2.5c-0.8,1.5-2.3,2-3.5,2c-2.2,0-3.9-2-3.9-5S417,647.6,419.2,647.6L419.2,647.6z M417,652.5c0,1.8,0.9,3,2.4,3
			s2.7-1.2,2.7-3s-1.2-3-2.7-3S417,650.7,417,652.5z M426.6,655.9c1.8,0,2.9-1.3,2.9-3.4s-1.1-3.3-2.9-3.3s-3,1.3-3,3.3
			S424.8,655.9,426.6,655.9z"/>
	</g>
	<g>
		<path class="st1" d="M482.3,691.9h13.6v-3.2h1.7v9h-1.7v-3.9h-10.2v3.9h-1.3c-0.1-2.5-0.3-3.8-2-4.6V691.9z"/>
		<path class="st1" d="M490.3,676.4c1.2,0.7,2.1,1.9,2.1,3.8c0,2.7-2.1,4.8-5.1,4.8c-2.8,0-5.2-2-5.2-5.2c0-3.7,2.6-5.4,7.3-5.4
			c4.3,0,8.5,1.5,8.5,5.7c0,2.8-1.9,4.3-3.8,4.6v-2.1c1.4-0.2,2.1-1.2,2.1-2.6C496.1,677.7,493.8,676.4,490.3,676.4L490.3,676.4z
			 M483.6,679.7c0,1.9,1.5,3.2,3.5,3.2s3.5-1.3,3.5-3.1s-1.5-3.2-3.5-3.2S483.6,677.8,483.6,679.7z"/>
		<path class="st1" d="M490.3,662.8c1.2,0.7,2.1,1.9,2.1,3.8c0,2.7-2.1,4.8-5.1,4.8c-2.8,0-5.2-2-5.2-5.2c0-3.7,2.6-5.4,7.3-5.4
			c4.3,0,8.5,1.5,8.5,5.7c0,2.8-1.9,4.3-3.8,4.6V669c1.4-0.2,2.1-1.2,2.1-2.6C496.1,664.1,493.8,662.9,490.3,662.8L490.3,662.8z
			 M483.6,666.1c0,1.9,1.5,3.2,3.5,3.2s3.5-1.3,3.5-3.1s-1.5-3.2-3.5-3.2S483.6,664.2,483.6,666.1z"/>
		<path class="st1" d="M490.3,649.2c1.2,0.7,2.1,1.9,2.1,3.8c0,2.7-2.1,4.8-5.1,4.8c-2.8,0-5.2-2-5.2-5.2c0-3.7,2.6-5.4,7.3-5.4
			c4.3,0,8.5,1.5,8.5,5.7c0,2.8-1.9,4.3-3.8,4.6v-2.1c1.4-0.2,2.1-1.2,2.1-2.6C496.1,650.6,493.8,649.3,490.3,649.2L490.3,649.2z
			 M483.6,652.6c0,1.9,1.5,3.2,3.5,3.2s3.5-1.3,3.5-3.1s-1.5-3.2-3.5-3.2S483.6,650.7,483.6,652.6z"/>
	</g>
	<g>
		<path class="st1" d="M552.8,688.3c3.5,0,6.6,3.4,9.7,7.3v-7.6h1.7v10.3h-1.7c-4-5.1-6.8-7.9-9.5-7.9c-1.6,0-2.7,0.9-2.7,2.6
			c0,1.6,1,3,3.5,3.1v2c-2.9,0-5.1-2-5.1-5.1C548.7,690.3,550.2,688.3,552.8,688.3L552.8,688.3z"/>
		<path class="st1" d="M556.5,685c-4.7,0-7.8-1.5-7.8-5.3s3.1-5.3,7.8-5.3s8,1.5,8,5.3S561.2,685,556.5,685z M557.3,683l-3-6.6
			c-2.7,0.3-4,1.4-4,3.2c0,2.3,2,3.4,6.2,3.4C556.8,683,557,683,557.3,683L557.3,683z M556.5,676.3c-0.2,0-0.4,0-0.7,0l3,6.6
			c2.6-0.4,3.9-1.4,3.9-3.2C562.8,677.4,560.7,676.3,556.5,676.3z"/>
		<path class="st1" d="M556.5,671.4c-4.7,0-7.8-1.5-7.8-5.3s3.1-5.3,7.8-5.3s8,1.5,8,5.3S561.2,671.4,556.5,671.4z M557.3,669.5
			l-3-6.6c-2.7,0.3-4,1.4-4,3.2c0,2.3,2,3.4,6.2,3.4C556.8,669.5,557,669.5,557.3,669.5L557.3,669.5z M556.5,662.7
			c-0.2,0-0.4,0-0.7,0l3,6.6c2.6-0.4,3.9-1.4,3.9-3.2C562.8,663.8,560.7,662.7,556.5,662.7z"/>
		<path class="st1" d="M556.5,657.8c-4.7,0-7.8-1.5-7.8-5.3s3.1-5.3,7.8-5.3s8,1.5,8,5.3S561.2,657.8,556.5,657.8z M557.3,655.9
			l-3-6.6c-2.7,0.3-4,1.4-4,3.2c0,2.3,2,3.4,6.2,3.4C556.8,655.9,557,655.9,557.3,655.9L557.3,655.9z M556.5,649.2
			c-0.2,0-0.4,0-0.7,0l3,6.6c2.6-0.4,3.9-1.4,3.9-3.2C562.8,650.3,560.7,649.2,556.5,649.2z"/>
	</g>
	<g>
		<path class="st1" d="M619.5,688.3c3.5,0,6.6,3.4,9.7,7.3v-7.6h1.7v10.3h-1.7c-4-5.1-6.8-7.9-9.5-7.9c-1.6,0-2.7,0.9-2.7,2.6
			c0,1.6,1,3,3.5,3.1v2c-2.9,0-5.1-2-5.1-5.1C615.4,690.3,616.9,688.3,619.5,688.3L619.5,688.3z"/>
		<path class="st1" d="M623.2,685c-4.7,0-7.8-1.5-7.8-5.3s3.1-5.3,7.8-5.3s8,1.5,8,5.3S627.9,685,623.2,685z M624,683l-3-6.6
			c-2.7,0.3-4,1.4-4,3.2c0,2.3,2,3.4,6.2,3.4C623.4,683,623.7,683,624,683L624,683z M623.2,676.3c-0.2,0-0.4,0-0.7,0l3,6.6
			c2.6-0.4,3.9-1.4,3.9-3.2C629.5,677.4,627.3,676.3,623.2,676.3z"/>
		<path class="st1" d="M623.2,671.4c-4.7,0-7.8-1.5-7.8-5.3s3.1-5.3,7.8-5.3s8,1.5,8,5.3S627.9,671.4,623.2,671.4z M624,669.5
			l-3-6.6c-2.7,0.3-4,1.4-4,3.2c0,2.3,2,3.4,6.2,3.4C623.4,669.5,623.7,669.5,624,669.5L624,669.5z M623.2,662.7c-0.2,0-0.4,0-0.7,0
			l3,6.6c2.6-0.4,3.9-1.4,3.9-3.2C629.5,663.8,627.3,662.7,623.2,662.7z"/>
		<path class="st1" d="M615.6,651.2h13.6V648h1.7v9h-1.7v-3.9h-10.2v3.9h-1.3c-0.1-2.5-0.3-3.8-2-4.6V651.2z"/>
	</g>
	<g>
		<path class="st1" d="M686.1,688.3c3.5,0,6.6,3.4,9.7,7.3v-7.6h1.7v10.3h-1.7c-4-5.1-6.8-7.9-9.5-7.9c-1.6,0-2.7,0.9-2.7,2.6
			c0,1.6,1,3,3.5,3.1v2c-2.9,0-5.1-2-5.1-5.1C682,690.3,683.5,688.3,686.1,688.3L686.1,688.3z"/>
		<path class="st1" d="M689.8,685c-4.7,0-7.8-1.5-7.8-5.3s3.1-5.3,7.8-5.3s8,1.5,8,5.3S694.6,685,689.8,685z M690.6,683l-3-6.6
			c-2.7,0.3-4,1.4-4,3.2c0,2.3,2,3.4,6.2,3.4C690.1,683,690.4,683,690.6,683L690.6,683z M689.8,676.3c-0.2,0-0.4,0-0.7,0l3,6.6
			c2.6-0.4,3.9-1.4,3.9-3.2C696.1,677.4,694,676.3,689.8,676.3z"/>
		<path class="st1" d="M689.8,671.4c-4.7,0-7.8-1.5-7.8-5.3s3.1-5.3,7.8-5.3s8,1.5,8,5.3S694.6,671.4,689.8,671.4z M690.6,669.5
			l-3-6.6c-2.7,0.3-4,1.4-4,3.2c0,2.3,2,3.4,6.2,3.4C690.1,669.5,690.4,669.5,690.6,669.5L690.6,669.5z M689.8,662.7
			c-0.2,0-0.4,0-0.7,0l3,6.6c2.6-0.4,3.9-1.4,3.9-3.2C696.1,663.8,694,662.7,689.8,662.7z"/>
		<path class="st1" d="M686.1,647.6c3.5,0,6.6,3.4,9.7,7.3v-7.6h1.7v10.3h-1.7c-4-5.1-6.8-7.9-9.5-7.9c-1.6,0-2.7,0.9-2.7,2.6
			c0,1.6,1,3,3.5,3.1v2c-2.9,0-5.1-2-5.1-5.1C682,649.6,683.5,647.6,686.1,647.6L686.1,647.6z"/>
	</g>
	<g>
		<path class="st1" d="M752.8,688.3c3.5,0,6.6,3.4,9.7,7.3v-7.6h1.7v10.3h-1.7c-4-5.1-6.8-7.9-9.5-7.9c-1.6,0-2.7,0.9-2.7,2.6
			c0,1.6,1,3,3.5,3.1v2c-2.9,0-5.1-2-5.1-5.1C748.7,690.3,750.2,688.3,752.8,688.3L752.8,688.3z"/>
		<path class="st1" d="M756.5,685c-4.7,0-7.8-1.5-7.8-5.3s3.1-5.3,7.8-5.3s8,1.5,8,5.3S761.2,685,756.5,685z M757.3,683l-3-6.6
			c-2.7,0.3-4,1.4-4,3.2c0,2.3,2,3.4,6.2,3.4C756.8,683,757,683,757.3,683L757.3,683z M756.5,676.3c-0.2,0-0.4,0-0.7,0l3,6.6
			c2.6-0.4,3.9-1.4,3.9-3.2C762.8,677.4,760.7,676.3,756.5,676.3z"/>
		<path class="st1" d="M756.5,671.4c-4.7,0-7.8-1.5-7.8-5.3s3.1-5.3,7.8-5.3s8,1.5,8,5.3S761.2,671.4,756.5,671.4z M757.3,669.5
			l-3-6.6c-2.7,0.3-4,1.4-4,3.2c0,2.3,2,3.4,6.2,3.4C756.8,669.5,757,669.5,757.3,669.5L757.3,669.5z M756.5,662.7
			c-0.2,0-0.4,0-0.7,0l3,6.6c2.6-0.4,3.9-1.4,3.9-3.2C762.8,663.8,760.7,662.7,756.5,662.7z"/>
		<path class="st1" d="M759.9,649.3c-2.1,0-2.9,1.8-2.9,4.2v0.3h-1.7v-0.2c0-2.5-0.8-3.8-2.6-3.8c-1.5,0-2.4,1.3-2.4,2.8
			c0,1.9,1.2,3,2.9,3.1v2c-2.7-0.2-4.6-2.2-4.6-5.2c0-2.5,1.1-4.8,3.8-4.8c1.5,0,2.9,0.8,3.5,2.4c0.7-2.1,2.3-2.8,3.8-2.8
			c3,0,4.6,2.7,4.6,5.3c0,3.4-2.3,5-4.8,5.2v-2c1.8-0.2,3.2-1.3,3.2-3.3C762.8,650.6,761.7,649.3,759.9,649.3L759.9,649.3z"/>
	</g>
	<g>
		<path class="st1" d="M819.5,688.3c3.5,0,6.6,3.4,9.7,7.3v-7.6h1.7v10.3h-1.7c-4-5.1-6.8-7.9-9.5-7.9c-1.6,0-2.7,0.9-2.7,2.6
			c0,1.6,1,3,3.5,3.1v2c-2.9,0-5.1-2-5.1-5.1C815.4,690.3,816.9,688.3,819.5,688.3L819.5,688.3z"/>
		<path class="st1" d="M823.2,685c-4.7,0-7.8-1.5-7.8-5.3s3.1-5.3,7.8-5.3s8,1.5,8,5.3S827.9,685,823.2,685z M824,683l-3-6.6
			c-2.7,0.3-4,1.4-4,3.2c0,2.3,2,3.4,6.2,3.4C823.4,683,823.7,683,824,683L824,683z M823.2,676.3c-0.2,0-0.4,0-0.7,0l3,6.6
			c2.6-0.4,3.9-1.4,3.9-3.2C829.5,677.4,827.3,676.3,823.2,676.3z"/>
		<path class="st1" d="M823.2,671.4c-4.7,0-7.8-1.5-7.8-5.3s3.1-5.3,7.8-5.3s8,1.5,8,5.3S827.9,671.4,823.2,671.4z M824,669.5
			l-3-6.6c-2.7,0.3-4,1.4-4,3.2c0,2.3,2,3.4,6.2,3.4C823.4,669.5,823.7,669.5,824,669.5L824,669.5z M823.2,662.7c-0.2,0-0.4,0-0.7,0
			l3,6.6c2.6-0.4,3.9-1.4,3.9-3.2C829.5,663.8,827.3,662.7,823.2,662.7z"/>
		<path class="st1" d="M827.1,646.8v2.5h3.8v1.9h-3.8v7.2h-1.8l-9.7-7.2v-2h9.7v-2.5H827.1z M825.3,656.4v-5.2h-7L825.3,656.4z"/>
	</g>
	<g>
		<path class="st1" d="M886.1,688.3c3.5,0,6.6,3.4,9.7,7.3v-7.6h1.7v10.3h-1.7c-4-5.1-6.8-7.9-9.5-7.9c-1.6,0-2.7,0.9-2.7,2.6
			c0,1.6,1,3,3.5,3.1v2c-2.9,0-5.1-2-5.1-5.1C882,690.3,883.5,688.3,886.1,688.3L886.1,688.3z"/>
		<path class="st1" d="M889.8,685c-4.7,0-7.8-1.5-7.8-5.3s3.1-5.3,7.8-5.3s8,1.5,8,5.3S894.6,685,889.8,685z M890.6,683l-3-6.6
			c-2.7,0.3-4,1.4-4,3.2c0,2.3,2,3.4,6.2,3.4C890.1,683,890.4,683,890.6,683L890.6,683z M889.8,676.3c-0.2,0-0.4,0-0.7,0l3,6.6
			c2.6-0.4,3.9-1.4,3.9-3.2C896.1,677.4,894,676.3,889.8,676.3z"/>
		<path class="st1" d="M889.8,671.4c-4.7,0-7.8-1.5-7.8-5.3s3.1-5.3,7.8-5.3s8,1.5,8,5.3S894.6,671.4,889.8,671.4z M890.6,669.5
			l-3-6.6c-2.7,0.3-4,1.4-4,3.2c0,2.3,2,3.4,6.2,3.4C890.1,669.5,890.4,669.5,890.6,669.5L890.6,669.5z M889.8,662.7
			c-0.2,0-0.4,0-0.7,0l3,6.6c2.6-0.4,3.9-1.4,3.9-3.2C896.1,663.8,894,662.7,889.8,662.7z"/>
		<path class="st1" d="M892.5,649.3c-2.5,0-3.5,1.7-3.5,3.2c0,1.5,0.9,2.5,1.6,2.8l-0.1,2l-8.2-1v-8.4h1.6v6.8l4.6,0.5
			c-0.8-0.8-1.1-1.9-1.1-3.2c0-2.5,1.8-4.9,5.1-4.9s5.3,2.6,5.3,5.3c0,3.4-2.3,5-4.8,5.2v-2c1.8-0.2,3.2-1.3,3.2-3.3
			C896.1,650.8,894.8,649.3,892.5,649.3L892.5,649.3z"/>
	</g>
	<g>
		<path class="st1" d="M952.8,688.3c3.5,0,6.6,3.4,9.7,7.3v-7.6h1.7v10.3h-1.7c-4-5.1-6.8-7.9-9.5-7.9c-1.6,0-2.7,0.9-2.7,2.6
			c0,1.6,1,3,3.5,3.1v2c-2.9,0-5.1-2-5.1-5.1C948.7,690.3,950.2,688.3,952.8,688.3L952.8,688.3z"/>
		<path class="st1" d="M956.5,685c-4.7,0-7.8-1.5-7.8-5.3s3.1-5.3,7.8-5.3s8,1.5,8,5.3S961.2,685,956.5,685z M957.3,683l-3-6.6
			c-2.7,0.3-4,1.4-4,3.2c0,2.3,2,3.4,6.2,3.4C956.8,683,957,683,957.3,683L957.3,683z M956.5,676.3c-0.2,0-0.4,0-0.7,0l3,6.6
			c2.6-0.4,3.9-1.4,3.9-3.2C962.8,677.4,960.7,676.3,956.5,676.3z"/>
		<path class="st1" d="M956.5,671.4c-4.7,0-7.8-1.5-7.8-5.3s3.1-5.3,7.8-5.3s8,1.5,8,5.3S961.2,671.4,956.5,671.4z M957.3,669.5
			l-3-6.6c-2.7,0.3-4,1.4-4,3.2c0,2.3,2,3.4,6.2,3.4C956.8,669.5,957,669.5,957.3,669.5L957.3,669.5z M956.5,662.7
			c-0.2,0-0.4,0-0.7,0l3,6.6c2.6-0.4,3.9-1.4,3.9-3.2C962.8,663.8,960.7,662.7,956.5,662.7z"/>
		<path class="st1" d="M956.1,655.8c-1.2-0.7-2.1-1.9-2.1-3.8c0-2.7,2.1-4.8,5.2-4.8c2.8,0,5.2,2.1,5.2,5.2c0,3.6-2.7,5.4-7.3,5.4
			c-4.3,0-8.5-1.6-8.5-5.8c0-2.8,1.9-4.3,3.8-4.6v2.1c-1.3,0.2-2.1,1.2-2.1,2.6C950.3,654.5,952.7,655.7,956.1,655.8L956.1,655.8z
			 M962.8,652.5c0-1.8-1.4-3.2-3.5-3.2s-3.5,1.3-3.5,3.2s1.5,3.2,3.5,3.2S962.8,654.4,962.8,652.5z"/>
	</g>
	<g>
		<path class="st1" d="M1019.5,688.3c3.5,0,6.6,3.4,9.7,7.3v-7.6h1.7v10.3h-1.7c-4-5.1-6.8-7.9-9.5-7.9c-1.6,0-2.7,0.9-2.7,2.6
			c0,1.6,1,3,3.5,3.1v2c-2.9,0-5.1-2-5.1-5.1C1015.4,690.3,1016.9,688.3,1019.5,688.3L1019.5,688.3z"/>
		<path class="st1" d="M1023.2,685c-4.7,0-7.8-1.5-7.8-5.3s3.1-5.3,7.8-5.3c4.7,0,8,1.5,8,5.3S1027.9,685,1023.2,685z M1024,683
			l-3-6.6c-2.7,0.3-4,1.4-4,3.2c0,2.3,2,3.4,6.2,3.4C1023.4,683,1023.7,683,1024,683L1024,683z M1023.2,676.3c-0.2,0-0.4,0-0.7,0
			l3,6.6c2.6-0.4,3.9-1.4,3.9-3.2C1029.5,677.4,1027.3,676.3,1023.2,676.3L1023.2,676.3z"/>
		<path class="st1" d="M1023.2,671.4c-4.7,0-7.8-1.5-7.8-5.3s3.1-5.3,7.8-5.3c4.7,0,8,1.5,8,5.3S1027.9,671.4,1023.2,671.4z
			 M1024,669.5l-3-6.6c-2.7,0.3-4,1.4-4,3.2c0,2.3,2,3.4,6.2,3.4C1023.4,669.5,1023.7,669.5,1024,669.5L1024,669.5z M1023.2,662.7
			c-0.2,0-0.4,0-0.7,0l3,6.6c2.6-0.4,3.9-1.4,3.9-3.2C1029.5,663.8,1027.3,662.7,1023.2,662.7L1023.2,662.7z"/>
		<path class="st1" d="M1015.6,657.6v-10.7h1.6c3,3.9,8,6.4,13.6,6.6v2.2c-5.5-0.3-10.6-2.8-13.6-6.4v8.3L1015.6,657.6L1015.6,657.6
			z"/>
	</g>
	<g>
		<path class="st1" d="M1086.1,688.3c3.5,0,6.6,3.4,9.7,7.3v-7.6h1.7v10.3h-1.7c-4-5.1-6.8-7.9-9.5-7.9c-1.6,0-2.7,0.9-2.7,2.6
			c0,1.6,1,3,3.5,3.1v2c-2.9,0-5.1-2-5.1-5.1C1082,690.3,1083.5,688.3,1086.1,688.3L1086.1,688.3z"/>
		<path class="st1" d="M1089.8,685c-4.7,0-7.8-1.5-7.8-5.3s3.1-5.3,7.8-5.3s8,1.5,8,5.3S1094.6,685,1089.8,685z M1090.6,683l-3-6.6
			c-2.7,0.3-3.9,1.4-3.9,3.2c0,2.3,2,3.4,6.2,3.4C1090.1,683,1090.4,683,1090.6,683L1090.6,683z M1089.8,676.3c-0.2,0-0.4,0-0.7,0
			l3,6.6c2.6-0.4,3.9-1.4,3.9-3.2C1096.1,677.4,1094,676.3,1089.8,676.3z"/>
		<path class="st1" d="M1089.8,671.4c-4.7,0-7.8-1.5-7.8-5.3s3.1-5.3,7.8-5.3s8,1.5,8,5.3S1094.6,671.4,1089.8,671.4z M1090.6,669.5
			l-3-6.6c-2.7,0.3-3.9,1.4-3.9,3.2c0,2.3,2,3.4,6.2,3.4C1090.1,669.5,1090.4,669.5,1090.6,669.5L1090.6,669.5z M1089.8,662.7
			c-0.2,0-0.4,0-0.7,0l3,6.6c2.6-0.4,3.9-1.4,3.9-3.2C1096.1,663.8,1094,662.7,1089.8,662.7z"/>
		<path class="st1" d="M1085.9,647.6c1.2,0,2.7,0.6,3.5,2c0.8-1.9,2.5-2.5,3.8-2.5c2.9,0,4.6,2.4,4.6,5.4s-1.7,5.4-4.6,5.4
			c-1.4,0-3-0.5-3.8-2.5c-0.8,1.5-2.3,2-3.5,2c-2.2,0-3.9-2-3.9-5S1083.7,647.6,1085.9,647.6L1085.9,647.6z M1083.7,652.5
			c0,1.8,0.9,3,2.4,3s2.7-1.2,2.7-3s-1.2-3-2.7-3S1083.7,650.7,1083.7,652.5z M1093.2,655.9c1.8,0,2.9-1.3,2.9-3.4s-1.1-3.3-2.9-3.3
			s-3,1.3-3,3.3S1091.5,655.9,1093.2,655.9z"/>
	</g>
</g>
<g id="b">
	<line class="st2" x1="966.7" y1="182" x2="966.7" y2="230.3"/>
	<line class="st3" x1="766.7" y1="359.4" x2="766.7" y2="407.7"/>
	<line class="st4" x1="833.3" y1="133.7" x2="833.3" y2="182"/>
	<g>
		<rect x="100" y="127.7" class="st5" width="1027.8" height="12"/>
		<path class="st5" d="M100,142.8c-5,0-9-4-9-9s4-9,9-9s9,4,9,9S105,142.8,100,142.8z"/>
		<polygon class="st5" points="1124.3,145.7 1145,133.7 1124.3,121.8 		"/>
	</g>
	<g>
		<rect x="833.3" y="176" class="st6" width="294.5" height="12"/>
		<circle class="st6" cx="833.3" cy="182" r="9"/>
		<polygon class="st6" points="1124.3,194 1145,182 1124.3,170 		"/>
	</g>
	<g>
		<rect x="100" y="353.4" class="st7" width="1027.8" height="12"/>
		<path class="st7" d="M100,368.5c-5,0-9-4-9-9s4-9,9-9s9,4,9,9S105,368.5,100,368.5z"/>
		<polygon class="st7" points="1124.3,371.4 1145,359.4 1124.3,347.5 		"/>
	</g>
	<g>
		<rect x="766.7" y="401.7" class="st8" width="361.1" height="12"/>
		<circle class="st8" cx="766.7" cy="407.7" r="9"/>
		<polygon class="st8" points="1124.3,419.7 1145,407.7 1124.3,395.7 		"/>
	</g>
	<g>
		<rect x="966.7" y="224.3" class="st9" width="161.1" height="12"/>
		<path class="st9" d="M966.7,239.3c-5,0-9-4-9-9s4-9,9-9s9,4,9,9S971.7,239.3,966.7,239.3z"/>
		<polygon class="st9" points="1124.3,242.2 1145,230.3 1124.3,218.3 		"/>
	</g>
	<g>
		<rect x="700" y="549.3" class="st10" width="427.8" height="12"/>
		<path class="st10" d="M700,564.3c-5,0-9-4-9-9s4-9,9-9s9,4,9,9S705,564.3,700,564.3z"/>
		<polygon class="st10" points="1124.3,567.3 1145,555.3 1124.3,543.4 		"/>
	</g>
	<g>
		<path class="st1" d="M135.8,146c1.4,0,2.7,0.3,3.9,0.9c1.2,0.6,2.1,1.5,2.9,2.8c0.7,1.3,1.1,2.8,1.1,4.7s-0.4,3.4-1.1,4.7
			c-0.7,1.3-1.7,2.2-2.9,2.8s-2.5,0.9-3.9,0.9h-5.3V146L135.8,146L135.8,146z M138.8,158.7c1.1-0.8,1.6-2.2,1.6-4.3
			s-0.5-3.5-1.6-4.3c-1.1-0.8-2.4-1.2-4-1.2h-1.1v11h1.1C136.4,160,137.7,159.5,138.8,158.7L138.8,158.7z"/>
		<path class="st1" d="M157.2,157.8h-8.4c0.1,0.9,0.4,1.6,0.9,2c0.5,0.5,1.1,0.7,1.9,0.7c0.7,0,1.2-0.1,1.7-0.5
			c0.5-0.3,0.9-0.8,1.2-1.4l2.4,0.9c-0.5,1.1-1.2,2-2.1,2.6s-2,0.9-3.4,0.9c-1.3,0-2.4-0.3-3.3-0.9c-0.9-0.6-1.5-1.4-1.9-2.4
			c-0.4-0.9-0.6-1.9-0.6-3s0.2-2,0.6-3c0.4-0.9,1.1-1.7,1.9-2.4c0.9-0.6,2-0.9,3.3-0.9s2.3,0.3,3.2,0.9c0.9,0.6,1.5,1.4,1.9,2.3
			s0.6,1.9,0.6,2.8L157.2,157.8L157.2,157.8z M154.1,155.4c-0.1-0.7-0.4-1.2-0.9-1.7c-0.4-0.4-1-0.6-1.7-0.6c-0.6,0-1.2,0.2-1.7,0.6
			c-0.5,0.4-0.8,1-1,1.7H154.1L154.1,155.4z"/>
		<path class="st1" d="M163.9,162.6c-0.5-0.3-0.9-0.6-1.1-1v1.2h-3v-17h3v6c0.3-0.4,0.7-0.7,1.2-0.9c0.5-0.3,1.1-0.4,1.7-0.4
			c1.8,0,3.1,0.6,4.1,1.7s1.4,2.6,1.4,4.6s-0.5,3.4-1.4,4.6s-2.3,1.7-4.1,1.7C165.1,163.1,164.4,162.9,163.9,162.6L163.9,162.6z
			 M167.4,159.5c0.5-0.7,0.8-1.6,0.8-2.7s-0.3-2.1-0.8-2.7s-1.2-1-2-1s-1.5,0.3-2,1s-0.8,1.6-0.8,2.7s0.3,2.1,0.8,2.7
			c0.5,0.6,1.2,1,2,1S166.8,160.2,167.4,159.5z"/>
		<path class="st1" d="M174,148.6c-0.4-0.4-0.6-0.8-0.6-1.4s0.2-1,0.6-1.4s0.8-0.6,1.4-0.6s1,0.2,1.4,0.6s0.6,0.8,0.6,1.4
			s-0.2,1-0.6,1.4c-0.4,0.4-0.8,0.6-1.4,0.6S174.4,149,174,148.6z M173.9,150.8h3v12.1h-3V150.8z"/>
		<path class="st1" d="M180.5,162.1c-0.7-0.6-1-1.5-1-2.7s0.5-2.2,1.4-2.9c0.9-0.7,2.1-1.1,3.7-1.1h2.1v-0.5c0-0.6-0.2-1-0.6-1.3
			c-0.4-0.3-0.9-0.4-1.5-0.4c-1,0-1.7,0.5-2.1,1.4l-2.5-0.6c0.2-1,0.7-1.8,1.6-2.4s1.9-0.9,3.1-0.9c1.6,0,2.9,0.4,3.8,1.3
			c0.9,0.9,1.3,2.1,1.3,3.8v7.2h-2.4l-0.3-1.5c-0.9,1.1-2.2,1.7-3.7,1.7C182,163,181.2,162.7,180.5,162.1L180.5,162.1z M185.8,159.8
			c0.5-0.5,0.8-1.1,0.8-1.8v-0.2h-2c-0.7,0-1.2,0.1-1.5,0.4c-0.4,0.3-0.5,0.6-0.5,1.2c0,0.4,0.1,0.6,0.4,0.9c0.2,0.2,0.6,0.3,1,0.3
			C184.6,160.5,185.3,160.3,185.8,159.8L185.8,159.8z"/>
		<path class="st1" d="M195.6,150.8v1.9c0.5-0.7,1-1.2,1.7-1.6s1.3-0.6,2.1-0.6c1.1,0,2,0.3,2.7,0.9c0.7,0.6,1,1.5,1,2.7v8.6h-3
			v-7.8c0-0.7-0.2-1.2-0.5-1.5c-0.3-0.3-0.7-0.5-1.3-0.5c-0.5,0-0.9,0.2-1.4,0.6s-0.8,0.9-1,1.7s-0.4,1.6-0.4,2.6v4.8h-3v-12.1
			L195.6,150.8L195.6,150.8z"/>
	</g>
	<g>
		<path class="st1" d="M131.7,371.7c1.6,0,2.9,0.4,3.8,1.3s1.3,2,1.3,3.5c0,1.1-0.3,2.1-0.8,2.9c-0.5,0.8-1.3,1.3-2.3,1.6l4.7,7.5
			h-3.5l-4.5-7.2h-1.6v7.2h-3.1v-16.8L131.7,371.7L131.7,371.7z M133.1,378c0.4-0.3,0.5-0.8,0.5-1.4s-0.2-1.1-0.5-1.4
			s-0.8-0.5-1.4-0.5h-3v3.8h3C132.3,378.4,132.8,378.3,133.1,378L133.1,378z"/>
		<path class="st1" d="M150.6,383.5h-8.4c0.1,0.9,0.4,1.6,0.9,2s1.1,0.7,1.9,0.7c0.7,0,1.2-0.1,1.7-0.5c0.5-0.3,0.9-0.8,1.2-1.4
			l2.4,0.9c-0.5,1.1-1.2,2-2.1,2.6s-2,0.9-3.4,0.9c-1.3,0-2.4-0.3-3.3-0.9c-0.9-0.6-1.5-1.4-1.9-2.4s-0.6-1.9-0.6-3s0.2-2,0.6-3
			c0.4-1,1.1-1.7,1.9-2.4c0.9-0.6,2-0.9,3.3-0.9s2.3,0.3,3.2,0.9c0.9,0.6,1.5,1.4,1.9,2.3s0.6,1.9,0.6,2.8L150.6,383.5L150.6,383.5z
			 M147.5,381.1c-0.1-0.7-0.4-1.2-0.9-1.7c-0.4-0.4-1-0.6-1.7-0.6c-0.6,0-1.2,0.2-1.7,0.6s-0.8,1-1,1.7H147.5L147.5,381.1z"/>
		<path class="st1" d="M154,387c-0.9-1.1-1.4-2.6-1.4-4.5s0.5-3.4,1.4-4.5c0.9-1.1,2.2-1.7,3.9-1.7c0.7,0,1.3,0.1,1.9,0.4
			s1,0.6,1.3,0.9v-6h3v17h-3v-1.2c-0.2,0.4-0.6,0.7-1.1,1c-0.6,0.3-1.2,0.4-2,0.4C156.2,388.7,154.9,388.2,154,387L154,387z
			 M160.5,385.2c0.5-0.6,0.8-1.6,0.8-2.7s-0.3-2.1-0.8-2.7c-0.5-0.6-1.2-1-2-1s-1.5,0.3-2,1s-0.8,1.6-0.8,2.7s0.3,2.1,0.8,2.7
			c0.5,0.7,1.2,1,2,1S160,385.9,160.5,385.2z"/>
		<path class="st1" d="M173.6,371.7h3.1v6.4h6.7v-6.4h3.1v16.8h-3.1V381h-6.7v7.5h-3.1V371.7z"/>
		<path class="st1" d="M190.3,387.8c-0.7-0.6-1-1.5-1-2.7s0.5-2.2,1.4-2.9c0.9-0.7,2.1-1.1,3.7-1.1h2.1v-0.5c0-0.6-0.2-1-0.6-1.3
			c-0.4-0.3-0.9-0.4-1.5-0.4c-1,0-1.7,0.5-2.1,1.4l-2.5-0.6c0.2-1,0.7-1.8,1.6-2.4s1.9-0.9,3.1-0.9c1.6,0,2.9,0.4,3.8,1.3
			c0.9,0.9,1.3,2.1,1.3,3.8v7.2h-2.4l-0.3-1.5c-0.9,1.1-2.2,1.7-3.7,1.7C191.8,388.7,191,388.4,190.3,387.8L190.3,387.8z
			 M195.6,385.5c0.5-0.5,0.8-1.1,0.8-1.8v-0.2h-2c-0.7,0-1.2,0.1-1.5,0.4c-0.4,0.3-0.5,0.6-0.5,1.2c0,0.4,0.1,0.6,0.4,0.9
			c0.2,0.2,0.6,0.3,1,0.3C194.4,386.2,195.1,386,195.6,385.5L195.6,385.5z"/>
		<path class="st1" d="M204.1,387.6c-0.8-0.8-1.2-1.9-1.2-3.3V379H201v-2.5h1.9v-3l3-1.9v4.9h3.2v2.5h-3.2v5.2
			c0,0.7,0.1,1.2,0.4,1.5c0.3,0.3,0.7,0.4,1.2,0.4c0.4,0,0.8-0.1,1.1-0.3l0.7,2.4c-0.6,0.3-1.3,0.4-2,0.4
			C206,388.7,204.9,388.3,204.1,387.6L204.1,387.6z"/>
	</g>
	<g>
		<path class="st1" d="M863.6,209.6c-1.1-1.1-1.7-2.7-1.7-4.9v-10.4h3.1v10.5c0,2.4,1,3.6,3.1,3.6s3.1-1.2,3.1-3.6v-10.5h3.1v10.4
			c0,2.2-0.6,3.8-1.7,4.9c-1.1,1.1-2.7,1.7-4.6,1.7S864.7,210.8,863.6,209.6z"/>
		<path class="st1" d="M881.9,210.8c-0.5-0.3-0.9-0.6-1.1-1v1.2h-3v-17h3v6c0.3-0.4,0.7-0.7,1.2-0.9c0.5-0.3,1.1-0.4,1.7-0.4
			c1.8,0,3.1,0.6,4.1,1.7s1.4,2.6,1.4,4.6s-0.5,3.4-1.4,4.6s-2.3,1.7-4.1,1.7C883,211.3,882.4,211.2,881.9,210.8L881.9,210.8z
			 M885.3,207.8c0.5-0.7,0.8-1.6,0.8-2.7s-0.3-2.1-0.8-2.7c-0.5-0.6-1.2-1-2-1s-1.5,0.3-2,1s-0.8,1.6-0.8,2.7s0.3,2.1,0.8,2.7
			c0.5,0.6,1.2,1,2,1S884.8,208.4,885.3,207.8z"/>
		<path class="st1" d="M893,210.4c-0.7-0.6-1-1.5-1-2.7V199h3v7.8c0,0.7,0.2,1.2,0.5,1.5s0.7,0.5,1.3,0.5c0.5,0,1-0.2,1.4-0.6
			c0.4-0.4,0.8-0.9,1-1.7s0.4-1.6,0.4-2.6V199h3v12.1h-3v-1.9c-0.5,0.7-1,1.2-1.7,1.6c-0.6,0.4-1.3,0.6-2.1,0.6
			C894.5,211.3,893.6,211,893,210.4L893,210.4z"/>
		<path class="st1" d="M908.7,199v1.9c0.5-0.7,1-1.2,1.7-1.6c0.6-0.4,1.3-0.6,2.1-0.6c1.1,0,2,0.3,2.7,0.9c0.7,0.6,1,1.5,1,2.7v8.6
			h-3v-7.8c0-0.7-0.2-1.2-0.5-1.5c-0.3-0.3-0.7-0.5-1.3-0.5c-0.5,0-1,0.2-1.4,0.6s-0.8,0.9-1,1.7s-0.4,1.6-0.4,2.6v4.8h-3V199
			L908.7,199L908.7,199z"/>
		<path class="st1" d="M920.9,210.2c-0.8-0.8-1.2-1.9-1.2-3.3v-5.3h-1.9V199h1.9v-3l3-1.9v4.9h3.2v2.5h-3.2v5.2
			c0,0.7,0.1,1.2,0.4,1.5c0.3,0.3,0.7,0.4,1.2,0.4c0.4,0,0.8-0.1,1.2-0.3l0.7,2.4c-0.6,0.3-1.3,0.4-2,0.4
			C922.8,211.3,921.7,210.9,920.9,210.2L920.9,210.2z"/>
		<path class="st1" d="M928.7,210.4c-0.7-0.6-1-1.5-1-2.7V199h3v7.8c0,0.7,0.2,1.2,0.5,1.5s0.7,0.5,1.3,0.5c0.5,0,1-0.2,1.4-0.6
			c0.4-0.4,0.8-0.9,1-1.7s0.4-1.6,0.4-2.6V199h3v12.1h-3v-1.9c-0.5,0.7-1,1.2-1.7,1.6c-0.6,0.4-1.3,0.6-2.1,0.6
			C930.3,211.3,929.4,211,928.7,210.4L928.7,210.4z"/>
	</g>
	<g>
		<path class="st1" d="M1011.5,242.6h3.5l4,10.5l4-10.5h3.5v16.8h-3.1V249l-3.2,8.8h-2.3l-3.2-8.8v10.4h-3.1L1011.5,242.6
			L1011.5,242.6z"/>
		<path class="st1" d="M1030.2,245.2c-0.4-0.4-0.6-0.8-0.6-1.4s0.2-1,0.6-1.4s0.8-0.6,1.4-0.6s1,0.2,1.4,0.6
			c0.4,0.4,0.6,0.8,0.6,1.4s-0.2,1-0.6,1.4s-0.8,0.6-1.4,0.6S1030.5,245.5,1030.2,245.2z M1030.1,247.3h3v12.1h-3V247.3
			L1030.1,247.3z"/>
		<path class="st1" d="M1039.3,247.3v1.9c0.5-0.7,1-1.2,1.7-1.6s1.3-0.6,2.1-0.6c1.1,0,2,0.3,2.7,0.9c0.7,0.6,1,1.5,1,2.7v8.6h-3
			v-7.8c0-0.7-0.2-1.2-0.5-1.5c-0.3-0.3-0.7-0.5-1.3-0.5c-0.5,0-0.9,0.2-1.4,0.6s-0.8,0.9-1,1.7s-0.4,1.6-0.4,2.6v4.8h-3v-12.1
			L1039.3,247.3L1039.3,247.3z"/>
		<path class="st1" d="M1051.4,258.4c-0.8-0.8-1.2-1.9-1.2-3.3v-5.3h-1.9v-2.5h1.9v-3l3-1.9v4.9h3.2v2.5h-3.2v5.2
			c0,0.7,0.1,1.2,0.4,1.5c0.3,0.3,0.7,0.4,1.2,0.4c0.4,0,0.8-0.1,1.2-0.3l0.7,2.4c-0.6,0.3-1.3,0.4-2,0.4
			C1053.3,259.5,1052.2,259.2,1051.4,258.4L1051.4,258.4z"/>
	</g>
	<g>
		<path class="st1" d="M797.1,419.5h10.6v2.9h-7.5v3.8h6v2.9h-6v7.2h-3.1V419.5L797.1,419.5z"/>
		<path class="st1" d="M820.1,431.2h-8.3c0.1,0.9,0.4,1.6,1,2s1.2,0.7,1.9,0.7c0.7,0,1.2-0.1,1.7-0.5s0.9-0.8,1.2-1.4l2.4,0.9
			c-0.5,1.1-1.2,2-2.1,2.6s-2,0.9-3.4,0.9c-1.3,0-2.4-0.3-3.3-0.9s-1.5-1.4-1.9-2.4s-0.6-1.9-0.6-3s0.2-2,0.6-3s1-1.7,1.9-2.4
			c0.9-0.6,2-0.9,3.3-0.9s2.3,0.3,3.2,0.9s1.5,1.4,1.9,2.3s0.6,1.9,0.6,2.8V431.2L820.1,431.2z M817,428.9c-0.1-0.7-0.4-1.2-0.8-1.7
			s-1-0.6-1.7-0.6c-0.6,0-1.2,0.2-1.7,0.6c-0.5,0.4-0.8,1-1,1.7H817L817,428.9z"/>
		<path class="st1" d="M823.5,434.8c-0.9-1.1-1.4-2.6-1.4-4.5s0.5-3.4,1.4-4.5c0.9-1.1,2.2-1.7,3.9-1.7c0.7,0,1.3,0.1,1.9,0.4
			s1,0.6,1.3,0.9v-6h3v17h-3v-1.2c-0.2,0.4-0.6,0.7-1.1,1s-1.2,0.4-2,0.4C825.7,436.5,824.4,435.9,823.5,434.8L823.5,434.8z
			 M830,433c0.5-0.6,0.8-1.6,0.8-2.7s-0.3-2.1-0.8-2.7c-0.5-0.6-1.2-1-2-1s-1.5,0.3-2,1s-0.8,1.6-0.8,2.7s0.3,2.1,0.8,2.7
			c0.5,0.7,1.2,1,2,1S829.5,433.6,830,433z"/>
		<path class="st1" d="M839.1,435.7c-0.9-0.5-1.6-1.3-2.1-2.2s-0.7-2-0.7-3.2s0.2-2.2,0.7-3.2s1.2-1.7,2.1-2.2
			c0.9-0.5,2-0.8,3.3-0.8s2.4,0.3,3.3,0.8c0.9,0.5,1.6,1.3,2.1,2.2c0.5,0.9,0.7,2,0.7,3.2s-0.2,2.2-0.7,3.2s-1.2,1.7-2.1,2.2
			c-0.9,0.5-2,0.8-3.3,0.8S840,436.2,839.1,435.7z M844.6,432.9c0.5-0.7,0.8-1.6,0.8-2.6s-0.3-1.9-0.8-2.6s-1.3-1.1-2.2-1.1
			s-1.7,0.4-2.2,1.1s-0.8,1.6-0.8,2.6s0.3,1.9,0.8,2.6s1.3,1.1,2.2,1.1S844,433.6,844.6,432.9z"/>
		<path class="st1" d="M854.2,424.2v2c0.4-0.7,1-1.2,1.6-1.6s1.3-0.6,2-0.6c0.5,0,0.9,0.1,1.5,0.2l-0.5,2.8
			c-0.4-0.2-0.8-0.3-1.2-0.3c-0.9,0-1.7,0.4-2.3,1.3c-0.6,0.9-0.9,2.2-0.9,4v4.3h-3v-12.1L854.2,424.2L854.2,424.2z"/>
		<path class="st1" d="M861,435.5c-0.7-0.6-1-1.5-1-2.7s0.5-2.2,1.4-2.9s2.1-1.1,3.7-1.1h2.1v-0.5c0-0.6-0.2-1-0.6-1.3
			s-0.9-0.4-1.5-0.4c-1,0-1.7,0.5-2.1,1.4l-2.5-0.6c0.2-1,0.7-1.8,1.5-2.4c0.8-0.6,1.9-0.9,3.1-0.9c1.6,0,2.9,0.4,3.8,1.3
			c0.9,0.9,1.3,2.1,1.3,3.8v7.2h-2.5l-0.3-1.5c-0.9,1.1-2.2,1.7-3.7,1.7C862.5,436.5,861.7,436.2,861,435.5L861,435.5z M866.3,433.3
			c0.5-0.5,0.8-1.1,0.8-1.8v-0.2h-2c-0.7,0-1.2,0.1-1.5,0.4c-0.4,0.3-0.5,0.6-0.5,1.2c0,0.4,0.1,0.6,0.4,0.9s0.6,0.3,1,0.3
			C865.1,434,865.8,433.7,866.3,433.3L866.3,433.3z"/>
	</g>
	<g>
		<path class="st1" d="M714.7,567.1h3.1l5.7,16.8h-3.4l-1.2-4h-5.3l-1.2,4h-3.4L714.7,567.1L714.7,567.1z M718.1,577.1l-1.8-5.8
			l-1.8,5.8H718.1L718.1,577.1z"/>
		<path class="st1" d="M728.4,571.8v2c0.4-0.7,1-1.2,1.6-1.6s1.3-0.6,2-0.6c0.5,0,0.9,0.1,1.5,0.2l-0.5,2.8
			c-0.4-0.2-0.8-0.3-1.2-0.3c-1,0-1.7,0.4-2.3,1.3c-0.6,0.9-0.9,2.2-0.9,4v4.3h-3v-12.1L728.4,571.8L728.4,571.8z"/>
		<path class="st1" d="M736.9,583.3c-0.9-0.5-1.6-1.3-2-2.2c-0.5-0.9-0.7-2-0.7-3.2s0.2-2.2,0.7-3.2c0.5-0.9,1.1-1.7,2-2.2
			s2-0.8,3.2-0.8c1.3,0,2.5,0.3,3.4,0.9c0.9,0.6,1.6,1.4,2.1,2.6l-2.7,1.1c-0.3-0.7-0.7-1.2-1.2-1.5c-0.5-0.3-1-0.5-1.7-0.5
			c-0.9,0-1.6,0.3-2.1,1c-0.5,0.7-0.7,1.6-0.7,2.7s0.2,2,0.7,2.7c0.5,0.7,1.2,1,2.1,1c0.7,0,1.2-0.2,1.7-0.5
			c0.5-0.3,0.8-0.8,1.2-1.5l2.7,1.1c-0.5,1.1-1.1,2-2.1,2.6s-2.1,0.9-3.4,0.9C738.9,584.2,737.8,583.9,736.9,583.3L736.9,583.3z"/>
		<path class="st1" d="M751,567v6.8c0.4-0.6,0.9-1.2,1.6-1.5c0.7-0.4,1.4-0.6,2.2-0.6c1.2,0,2.1,0.3,2.8,0.9c0.7,0.6,1,1.5,1,2.7
			v8.6h-3v-7.6c0-0.7-0.2-1.3-0.4-1.6c-0.3-0.3-0.8-0.5-1.4-0.5c-0.5,0-0.9,0.2-1.4,0.5c-0.4,0.3-0.8,0.8-1.1,1.5
			c-0.3,0.7-0.4,1.5-0.4,2.6v5.1h-3v-17L751,567L751,567z"/>
		<path class="st1" d="M768.2,567.1h3.1v13.9h7.1v2.9h-10.2V567.1z"/>
		<path class="st1" d="M781,569.7c-0.4-0.4-0.5-0.8-0.5-1.4s0.2-1,0.5-1.4s0.8-0.5,1.4-0.5s1,0.2,1.4,0.5s0.5,0.8,0.5,1.4
			s-0.2,1-0.5,1.4s-0.8,0.5-1.4,0.5S781.4,570.1,781,569.7z M780.9,571.8h3v12.1h-3V571.8z"/>
		<path class="st1" d="M790.1,571.8v1.9c0.5-0.7,1-1.2,1.7-1.6s1.3-0.6,2.1-0.6c1.1,0,2,0.3,2.7,0.9s1,1.5,1,2.7v8.6h-3v-7.8
			c0-0.7-0.2-1.2-0.5-1.5s-0.7-0.5-1.3-0.5c-0.5,0-1,0.2-1.4,0.6s-0.8,1-1,1.7s-0.4,1.6-0.4,2.7v4.8h-3v-12.1L790.1,571.8
			L790.1,571.8z"/>
		<path class="st1" d="M802,583.2c-0.7-0.6-1-1.5-1-2.7v-8.6h3v7.8c0,0.7,0.2,1.2,0.5,1.5s0.7,0.5,1.3,0.5c0.5,0,1-0.2,1.4-0.6
			s0.8-1,1-1.7s0.4-1.6,0.4-2.7v-4.8h3v12.1h-3V582c-0.5,0.7-1,1.2-1.7,1.6s-1.3,0.6-2.1,0.6C803.6,584.1,802.7,583.8,802,583.2
			L802,583.2z"/>
		<path class="st1" d="M817.2,577.5l-3.5-5.6h3.1l2,3.1l2-3.1h3.1l-3.5,5.6l4,6.5h-3.1l-2.5-3.9l-2.5,3.9h-3.1L817.2,577.5
			L817.2,577.5z"/>
	</g>
</g>
<g id="c">
	<g>
		<path id="d" class="st11" d="M101.1,422c6.9,0,17-1.4,17-9.7c0-0.6-0.1-1.3-0.2-1.9l-4.1-18c-0.9-3.9-1.8-5.8-8.7-9.2
			c-5.4-2.8-17.1-7.3-20.6-7.3c-3.3,0-4.2,4.2-8.1,4.2s-6.4-3.1-9.9-3.1s-5.5,2.3-7.2,6.9c0,0-4.7,13.2-5.3,15.1
			c-0.1,0.3-0.1,0.7-0.1,1.1C53.9,405.1,74.1,421.9,101.1,422 M119.2,415.6c0.9,4.6,0.9,5.1,0.9,5.6c0,7.8-8.7,12.1-20.2,12.1
			c-26,0-48.7-15.2-48.7-25.3c0-1.4,0.3-2.8,0.8-4.1c-9.3,0.4-21.4,2.1-21.4,12.8c0,17.5,41.4,39.1,74.2,39.1
			c25.2,0,31.5-11.4,31.5-20.4C136.3,428.4,130.2,420.4,119.2,415.6"/>
		<path id="e" d="M119.2,415.6c0.9,4.6,0.9,5.1,0.9,5.6c0,7.8-8.7,12.1-20.2,12.1c-26,0-48.7-15.2-48.7-25.3c0-1.4,0.3-2.8,0.8-4.1
			l2.1-5.1c-0.1,0.3-0.1,0.7-0.1,1.1c0,5.1,20.2,21.9,47.2,21.9c6.9,0,17-1.4,17-9.7c0-0.6-0.1-1.3-0.2-1.9L119.2,415.6L119.2,415.6
			z"/>
	</g>
	<circle class="st12" cx="928.8" cy="271.5" r="42.2"/>
	<path id="f" class="st13" d="M901.5,246.1v35.2c0,8.6,7,15.6,15.6,15.6h23.4c8.6,0,15.6-7,15.6-15.6v-19.5
		c0-6.4-5.3-11.7-11.7-11.7c-2.9,0-5.7,1.1-7.8,3.1c-2.2-1.9-4.9-3.1-7.8-3.1c-6.5,0-11.7,5.3-11.7,11.7v19.5h7.8v-19.5
		c0-2.1,1.8-3.9,3.9-3.9s3.9,1.8,3.9,3.9v19.5h7.8v-19.5c0-2.1,1.8-3.9,3.9-3.9s3.9,1.8,3.9,3.9v19.5c0,4.3-3.4,7.8-7.7,7.8h-23.5
		c-4.3,0-7.8-3.4-7.8-7.7v-35.3L901.5,246.1L901.5,246.1z"/>
	<circle class="st14" cx="794.3" cy="221.4" r="42.5"/>
	<circle class="st1" cx="765.4" cy="221.4" r="5.7"/>
	<path class="st1" d="M780.6,241.9c-5-3.3-8.7-8.4-10.2-14.3c1.8-1.5,2.9-3.7,2.9-6.2s-1.1-4.7-2.9-6.2c1.5-5.9,5.2-11,10.2-14.3
		l4.2,6.9c-4.3,3-7,7.9-7,13.6s2.8,10.6,7,13.6L780.6,241.9z"/>
	<g id="g">
		<circle class="st1" cx="808.8" cy="196.3" r="5.7"/>
		<path class="st1" d="M783.4,199.3c5.4-2.6,11.6-3.3,17.5-1.7c0.4,2.3,1.7,4.4,3.9,5.6s4.7,1.4,6.8,0.6c4.4,4.3,6.9,10,7.3,16
			l-8.1,0.1c-0.5-5.2-3.4-10.1-8.2-12.9s-10.5-2.9-15.3-0.7L783.4,199.3z"/>
	</g>
	<g id="h">
		<circle class="st1" cx="808.8" cy="246.4" r="5.7"/>
		<path class="st1" d="M818.9,222.9c-0.4,6-2.9,11.7-7.3,16c-2.2-0.8-4.7-0.7-6.8,0.6s-3.5,3.4-3.9,5.6c-5.9,1.6-12.2,1-17.5-1.7
			l3.9-7.1c4.7,2.2,10.4,2.1,15.3-0.7c4.9-2.8,7.8-7.7,8.2-12.9L818.9,222.9z"/>
	</g>
	<path id="i" class="st15" d="M757.9,440.2c0-23.5-19-42.5-42.5-42.5s-42.5,19-42.5,42.5v32.9c0,5.3,4.3,9.6,9.7,9.6h32.8
		C738.9,482.7,757.9,463.7,757.9,440.2"/>
	<path class="st16" d="M697.4,478.2c-11,0-19.9-8.9-19.9-19.9s8.9-19.9,19.9-19.9h19.9v19.9C717.3,469.2,708.4,478.2,697.4,478.2z
		 M697.4,447.7c-5.8,0-10.6,4.8-10.6,10.6s4.8,10.6,10.6,10.6s10.6-4.8,10.6-10.6v-10.6H697.4z"/>
	<path class="st16" d="M727.9,447.7h-19.9v-19.9c0-11,8.9-19.9,19.9-19.9s19.9,8.9,19.9,19.9S738.9,447.7,727.9,447.7z M717.3,438.4
		h10.6c5.8,0,10.6-4.8,10.6-10.6s-4.8-10.6-10.6-10.6s-10.6,4.8-10.6,10.6V438.4z"/>
	<path class="st1" d="M732.3,408.4c-1.5-0.4-2.7-0.6-4.4-0.6c-11,0-20,8.9-20,20v10.6h-8.3c-2.6,0-4.7,2-4.7,4.6
		c0,2.6,2.1,4.6,4.7,4.6h6.9c0.8,0,1.5,0.7,1.5,1.5v9.1c0,5.8-4.7,10.5-10.5,10.5c-2,0-2.5-0.3-3.8-0.3c-2.8,0-4.7,1.9-4.7,4.5
		c0,2.1,1.8,4,4.1,4.6c1.5,0.4,2.7,0.6,4.4,0.6c11,0,20-8.9,20-20v-10.6h8.3c2.6,0,4.7-2,4.7-4.6c0-2.6-2.1-4.6-4.7-4.6h-6.9
		c-0.8,0-1.5-0.7-1.5-1.5v-9.1c0-5.8,4.7-10.5,10.5-10.5c2,0,2.5,0.3,3.8,0.3c2.8,0,4.7-1.9,4.7-4.5
		C736.4,410.9,734.5,409,732.3,408.4z"/>
	<g>
		<path class="st17" d="M86.6,197.8c-1.5,0,0.3,0.8,2.2,1.1c0.5-0.4,1-0.9,1.5-1.3C89.1,197.9,87.9,197.9,86.6,197.8"/>
		<path class="st17" d="M94.6,195.8c0.9-1.2,1.5-2.6,1.8-4c-0.2,1-0.7,1.8-1.2,2.8c-2.8,1.8-0.3-1,0-2.1
			C92.2,196.2,94.7,194.7,94.6,195.8"/>
		<path class="st17" d="M97.6,188.1c0.2-2.7-0.5-1.8-0.8-0.8C97.1,187.4,97.3,189.2,97.6,188.1"/>
		<path class="st17" d="M80.9,151.3c0.8,0.1,1.7,0.2,1.6,0.4C83.4,151.6,83.6,151.4,80.9,151.3"/>
		<path class="st17" d="M82.5,151.8l-0.6,0.1L82.5,151.8L82.5,151.8"/>
		<path class="st17" d="M107.4,189.1c0.1,2.4-0.7,3.6-1.4,5.7l-1.3,0.6c-1.1,2.1,0.1,1.3-0.7,2.9c-1.7,1.5-5,4.6-6.1,4.9
			c-0.8,0,0.5-0.9,0.7-1.3c-2.2,1.5-1.8,2.3-5.2,3.2l-0.1-0.2c-8.3,3.9-19.9-3.9-19.8-14.4c-0.1,0.7-0.2,0.5-0.4,0.8
			c-0.4-5.4,2.5-10.9,7.5-13.2c4.9-2.4,10.6-1.4,14,1.8c-1.9-2.5-5.7-5.2-10.2-4.9c-4.4,0.1-8.6,2.9-9.9,5.9
			c-2.3,1.4-2.5,5.5-3.5,6.2c-1.3,9.8,2.5,14,9,18.9c1,0.7,0.3,0.8,0.4,1.3c-2.2-1-4.1-2.5-5.7-4.4c0.9,1.3,1.8,2.5,3,3.4
			c-2-0.7-4.7-4.9-5.5-5.1c3.5,6.3,14.2,11,19.8,8.6c-2.6,0.1-5.9,0.1-8.8-1c-1.2-0.6-2.9-1.9-2.6-2.2c7.6,2.9,15.5,2.2,22.1-3.1
			c1.7-1.3,3.5-3.5,4.1-3.6c-0.8,1.2,0.1,0.6-0.5,1.6c1.7-2.7-0.7-1.1,1.7-4.7l0.9,1.2c-0.3-2.2,2.8-5,2.5-8.5
			c0.7-1.1,0.8,1.2,0,3.7c1.1-2.8,0.3-3.2,0.6-5.5c0.3,0.8,0.7,1.6,0.9,2.4c-0.7-2.7,0.7-4.5,1.1-6.1c-0.3-0.1-1.1,1.2-1.2-2
			c0-1.4,0.4-0.7,0.5-1.1c-0.3-0.1-1-1.2-1.4-3.2c0.3-0.5,0.8,1.2,1.3,1.3c-0.3-1.6-0.7-2.8-0.8-4.1c-1.2-2.6-0.4,0.4-1.4-1.1
			c-1.3-4.1,1.1-0.9,1.3-2.8c2,2.9,3.1,7.4,3.7,9.2c-0.4-2.3-1-4.5-1.8-6.6c0.6,0.3-1-4.7,0.8-1.4c-1.9-6.9-8.1-13.4-13.8-16.5
			c0.7,0.6,1.6,1.4,1.3,1.6c-2.8-1.7-2.3-1.8-2.7-2.5c-2.3-0.9-2.5,0.1-4,0c-4.3-2.3-5.2-2.1-9.2-3.5l0.2,0.9c-2.9-1-3.4,0.4-6.5,0
			c-0.2-0.1,1-0.5,2-0.7c-2.8,0.4-2.7-0.6-5.4,0.1c0.7-0.5,1.4-0.8,2.1-1.2c-2.3,0.1-5.4,1.3-4.4,0.2c-3.7,1.6-10.3,4-14,7.4
			l-0.1-0.8c-1.7,2-7.4,6.1-7.8,8.7l-0.5,0.1c-0.9,1.5-1.5,3.2-2.2,4.7c-1.2,2-1.7,0.8-1.5,1.1c-2.3,4.6-3.4,8.4-4.4,11.6
			c0.7,1,0,6.2,0.3,10.4c-1.1,20.5,14.4,40.5,31.4,45.1c2.5,0.9,6.2,0.9,9.3,0.9c-3.7-1.1-4.2-0.6-7.8-1.8c-2.6-1.2-3.2-2.6-5-4.2
			l0.7,1.3c-3.6-1.3-2.1-1.6-5.1-2.5l0.8-1c-1.2-0.1-3.1-2-3.7-3l-1.3,0.1c-1.5-1.9-2.4-3.3-2.3-4.4l-0.4,0.7
			c-0.5-0.8-5.7-7.2-3-5.7c-0.5-0.5-1.2-0.8-1.9-2.1l0.5-0.6c-1.3-1.7-2.4-3.8-2.3-4.5c0.7,0.9,1.2,1.1,1.7,1.3
			c-3.3-8.2-3.5-0.4-6-8.3l0.5,0c-0.4-0.6-0.7-1.3-1-1.9l0.2-2.3c-2.4-2.7-0.7-11.6-0.3-16.5c0.2-2,2-4.1,3.3-7.4l-0.8-0.1
			c1.5-2.7,8.8-10.8,12.2-10.4c1.6-2.1-0.3,0-0.6-0.5c3.6-3.7,4.7-2.6,7.1-3.3c2.6-1.5-2.2,0.6-1-0.6c4.5-1.1,3.2-2.6,9.1-3.2
			c0.6,0.4-1.4,0.5-1.9,1c3.8-1.8,11.9-1.4,17.1,1c6.1,2.9,13,11.3,13.3,19.3l0.3,0.1c-0.2,3.2,0.5,6.8-0.6,10.2L107.4,189.1"/>
		<path class="st17" d="M70.3,199.8l-0.2,1.1c1,1.3,1.8,2.8,3,3.8C72.2,203,71.5,202.2,70.3,199.8"/>
		<path class="st17" d="M72.6,199.8c-0.5-0.6-0.8-1.3-1.2-2c0.3,1.2,1,2.2,1.6,3.3L72.6,199.8"/>
		<path class="st17" d="M113.7,190.8l-0.2,0.6c-0.4,2.9-1.3,5.7-2.6,8.3C112.3,196.9,113.3,193.9,113.7,190.8"/>
		<path class="st17" d="M81.2,150.6c1-0.4,2.5-0.2,3.6-0.4c-1.4,0.1-2.8,0.2-4.2,0.4L81.2,150.6"/>
		<path class="st17" d="M45.8,169.4c0.2,2.1-1.6,3,0.4,1.6C47.3,168.6,45.8,170.3,45.8,169.4"/>
		<path class="st17" d="M43.4,179.4c0.5-1.4,0.5-2.3,0.7-3.1C42.8,177.9,43.5,178.3,43.4,179.4"/>
	</g>
	<g>
		<path class="st18" d="M671.7,539c-3.8,9.3-6.1,15.3-10.3,24.3c2.6,2.7,5.8,5.9,10.9,9.5c-5.5-2.3-9.3-4.6-12.1-6.9
			c-5.4,11.2-13.8,27.3-31,58.1c13.5-7.8,23.9-12.6,33.6-14.4c-0.4-1.8-0.6-3.7-0.6-5.8v-0.4c0.2-8.6,4.7-15.3,10-14.8
			s9.5,7.8,9.2,16.5c0,1.6-0.2,3.2-0.5,4.6c9.6,1.9,20,6.7,33.2,14.3c-2.6-4.8-5-9.2-7.2-13.3c-3.5-2.7-7.2-6.3-14.7-10.1
			c5.2,1.3,8.8,2.9,11.7,4.6C681.3,562.9,679.5,557.3,671.7,539L671.7,539L671.7,539z"/>
		
			<linearGradient id="SVGID_1_" gradientUnits="userSpaceOnUse" x1="-1161.6096" y1="13.7002" x2="-1161.9596" y2="14.4002" gradientTransform="matrix(32.81 0 0 37.78 38794.5195 40.1201)">
			<stop  offset="0" style="stop-color:#FFFFFF;stop-opacity:0"/>
			<stop  offset="1" style="stop-color:#FFFFFF;stop-opacity:0.27"/>
		</linearGradient>
		<path class="st19" d="M671.9,539.4c-0.5,1.2-0.9,2.3-1.4,3.4c-0.5,1.2-1,2.3-1.4,3.4s-0.9,2.2-1.4,3.2s-0.9,2.1-1.3,3.2
			s-1,2.1-1.5,3.2s-1,2.2-1.5,3.4s-1.1,2.4-1.7,3.7c-0.1,0.2-0.2,0.4-0.2,0.5c2.6,2.7,5.8,5.9,10.9,9.5c-5.5-2.3-9.3-4.6-12.1-6.9
			c-0.2,0.3-0.3,0.6-0.4,0.9c-0.6,1.2-1.2,2.3-1.8,3.6c-0.2,0.3-0.3,0.6-0.4,0.9c-0.7,1.3-1.4,2.7-2.1,4.2c-0.2,0.3-0.3,0.5-0.5,0.8
			c-0.5,0.9-1.9,3.7-3.4,6.5c-0.9,1.7-1.5,3-2.5,4.9c-0.3,0.5-0.8,1.6-1,1.9c10.8-6.1,22.4-14.9,43.6-7.3c-1.1-2-2.1-3.9-3-5.6
			c-0.9-1.8-1.7-3.4-2.5-5s-1.5-3-2.2-4.4s-1.3-2.7-1.9-4s-1.2-2.5-1.7-3.7c-0.5-1.2-1-2.3-1.5-3.4c-0.5-1.1-0.9-2.2-1.4-3.3
			s-0.9-2.1-1.3-3.2c-0.2-0.5-0.3-1-0.5-1.5C674.4,545.4,673.3,542.7,671.9,539.4L671.9,539.4L671.9,539.4z"/>
	</g>
</g>
</svg>
