<?xml version="1.0" encoding="UTF-8"?>
<svg width="1214px" height="941px" viewBox="0 0 1214 941" version="1.1" xmlns="http://www.w3.org/2000/svg" xmlns:xlink="http://www.w3.org/1999/xlink">
    <!-- Generator: Sketch 59.1 (86144) - https://sketch.com -->
    <title>Heap Example</title>
    <desc>Created with Sketch.</desc>
    <g id="Heap-Example" stroke="none" stroke-width="1" fill="none" fill-rule="evenodd">
        <g id="Group-2" transform="translate(232.000000, 278.000000)" fill-rule="nonzero">
            <path d="M464.336,44.144 C463.226661,44.144 462.258671,43.906669 461.432,43.432 C460.605329,42.957331 459.970669,42.282671 459.528,41.408 C459.085331,40.533329 458.864,39.5146725 458.864,38.352 C458.864,37.1893275 459.085331,36.1733377 459.528,35.304 C459.970669,34.4346623 460.605329,33.762669 461.432,33.288 C462.258671,32.813331 463.226661,32.576 464.336,32.576 C465.093337,32.576 465.807997,32.6933322 466.48,32.928 C467.152003,33.1626678 467.717331,33.4933312 468.176,33.92 L467.488,35.424 C466.975997,35.0186646 466.469336,34.7226676 465.968,34.536 C465.466664,34.3493324 464.933336,34.256 464.368,34.256 C463.279995,34.256 462.440003,34.6079965 461.848,35.312 C461.255997,36.0160035 460.96,37.0293267 460.96,38.352 C460.96,39.68534 461.255997,40.7039965 461.848,41.408 C462.440003,42.1120035 463.279995,42.464 464.368,42.464 C464.933336,42.464 465.466664,42.3706676 465.968,42.184 C466.469336,41.9973324 466.975997,41.7013354 467.488,41.296 L468.176,42.8 C467.717331,43.2266688 467.152003,43.5573322 466.48,43.792 C465.807997,44.0266678 465.093337,44.144 464.336,44.144 Z M474.432,35.984 C475.370671,35.984 476.069331,36.250664 476.528,36.784 C476.986669,37.317336 477.216,38.1226613 477.216,39.2 L477.216,44 L475.216,44 L475.216,39.312 C475.216,38.703997 475.101334,38.2613347 474.872,37.984 C474.642666,37.7066653 474.282669,37.568 473.792,37.568 C473.215997,37.568 472.754668,37.7493315 472.408,38.112 C472.061332,38.4746685 471.888,38.959997 471.888,39.568 L471.888,44 L469.888,44 L469.888,32.72 L471.888,32.72 L471.888,37.264 C472.154668,36.8479979 472.509331,36.5306678 472.952,36.312 C473.394669,36.0933322 473.888,35.984 474.432,35.984 Z M479.248,44 L479.248,36.176 L481.248,36.176 L481.248,44 L479.248,44 Z M479.136,32.544 L481.344,32.544 L481.344,34.512 L479.136,34.512 L479.136,32.544 Z M483.312,44 L483.312,32.72 L485.312,32.72 L485.312,44 L483.312,44 Z M494.928,32.72 L494.928,44 L492.944,44 L492.944,42.736 C492.709332,43.1733355 492.370669,43.5146654 491.928,43.76 C491.485331,44.0053346 490.981336,44.128 490.416,44.128 C489.743997,44.128 489.144003,43.957335 488.616,43.616 C488.087997,43.274665 487.677335,42.7920031 487.384,42.168 C487.090665,41.5439969 486.944,40.8266707 486.944,40.016 C486.944,39.2053293 487.090665,38.496003 487.384,37.888 C487.677335,37.279997 488.085331,36.8106683 488.608,36.48 C489.130669,36.1493317 489.73333,35.984 490.416,35.984 C490.981336,35.984 491.482664,36.1013322 491.92,36.336 C492.357336,36.5706678 492.693332,36.9013312 492.928,37.328 L492.928,32.72 L494.928,32.72 Z M490.944,42.576 C491.584003,42.576 492.077332,42.3573355 492.424,41.92 C492.770668,41.4826645 492.944,40.8586707 492.944,40.048 C492.944,39.2373293 492.770668,38.6160022 492.424,38.184 C492.077332,37.7519978 491.589336,37.536 490.96,37.536 C490.319997,37.536 489.824002,37.7493312 489.472,38.176 C489.119998,38.6026688 488.944,39.215996 488.944,40.016 C488.944,40.8266707 489.119998,41.4559978 489.472,41.904 C489.824002,42.3520022 490.314664,42.576 490.944,42.576 Z M502.144,37.648 L500.976,37.76 C499.653327,37.8986674 498.992,38.5706606 498.992,39.776 L498.992,44 L496.992,44 L496.992,36.176 L498.896,36.176 L498.896,37.552 C499.301335,36.6133286 500.13866,36.1013338 501.408,36.016 L502.016,35.968 L502.144,37.648 Z M509.984,40.448 L504.656,40.448 C504.72,41.173337 504.938665,41.7119982 505.312,42.064 C505.685335,42.4160018 506.218663,42.592 506.912,42.592 C507.776004,42.592 508.56533,42.3146694 509.28,41.76 L509.856,43.136 C509.493332,43.4346682 509.037336,43.6746658 508.488,43.856 C507.938664,44.0373342 507.386669,44.128 506.832,44.128 C505.551994,44.128 504.541337,43.765337 503.8,43.04 C503.058663,42.314663 502.688,41.322673 502.688,40.064 C502.688,39.263996 502.847998,38.5546698 503.168,37.936 C503.488002,37.3173302 503.938664,36.837335 504.52,36.496 C505.101336,36.154665 505.759996,35.984 506.496,35.984 C507.573339,35.984 508.423997,36.3306632 509.048,37.024 C509.672003,37.7173368 509.984,38.6719939 509.984,39.888 L509.984,40.448 Z M506.544,37.392 C506.010664,37.392 505.581335,37.562665 505.256,37.904 C504.930665,38.245335 504.730667,38.7359968 504.656,39.376 L508.272,39.376 C508.250667,38.7253301 508.090668,38.2320017 507.792,37.896 C507.493332,37.5599983 507.077336,37.392 506.544,37.392 Z M516.16,35.984 C517.098671,35.984 517.797331,36.250664 518.256,36.784 C518.714669,37.317336 518.944,38.1226613 518.944,39.2 L518.944,44 L516.944,44 L516.944,39.312 C516.944,38.703997 516.829334,38.2613347 516.6,37.984 C516.370666,37.7066653 516.010669,37.568 515.52,37.568 C514.943997,37.568 514.482668,37.7493315 514.136,38.112 C513.789332,38.4746685 513.616,38.959997 513.616,39.568 L513.616,44 L511.616,44 L511.616,36.176 L513.568,36.176 L513.568,37.344 C513.834668,36.9066645 514.191998,36.5706678 514.64,36.336 C515.088002,36.1013322 515.594664,35.984 516.16,35.984 Z M528.672,35.984 C529.770672,35.984 530.586664,36.250664 531.12,36.784 C531.653336,37.317336 531.92,38.1386611 531.92,39.248 L531.92,44 L530.016,44 L530.016,42.8 C529.834666,43.2160021 529.549335,43.5413322 529.16,43.776 C528.770665,44.0106678 528.320003,44.128 527.808,44.128 C527.285331,44.128 526.810669,44.0213344 526.384,43.808 C525.957331,43.5946656 525.621335,43.3013352 525.376,42.928 C525.130665,42.5546648 525.008,42.138669 525.008,41.68 C525.008,41.1039971 525.154665,40.6506683 525.448,40.32 C525.741335,39.9893317 526.218663,39.7493341 526.88,39.6 C527.475203,39.4655993 528.273436,39.3916799 529.274719,39.37824 L530.016,39.376 L530.016,39.008 C530.016,38.474664 529.901334,38.0906678 529.672,37.856 C529.442666,37.6213322 529.061336,37.504 528.528,37.504 C528.111998,37.504 527.677336,37.5759993 527.224,37.72 C526.770664,37.8640007 526.325336,38.0639987 525.888,38.32 L525.328,36.944 C525.765336,36.6666653 526.29333,36.4373342 526.912,36.256 C527.53067,36.0746658 528.117331,35.984 528.672,35.984 Z M528.208,42.688 C528.741336,42.688 529.175998,42.5093351 529.512,42.152 C529.848002,41.7946649 530.016,41.3333362 530.016,40.768 L530.016,40.432 L529.728,40.432 C529.01333,40.432 528.458669,40.4639997 528.064,40.528 C527.669331,40.5920003 527.386668,40.7039992 527.216,40.864 C527.045332,41.0240008 526.96,41.2426653 526.96,41.52 C526.96,41.861335 527.077332,42.1413322 527.312,42.36 C527.546668,42.5786678 527.845332,42.688 528.208,42.688 Z M539.104,37.648 L537.936,37.76 C536.613327,37.8986674 535.952,38.5706606 535.952,39.776 L535.952,44 L533.952,44 L533.952,36.176 L535.856,36.176 L535.856,37.552 C536.261335,36.6133286 537.09866,36.1013338 538.368,36.016 L538.976,35.968 L539.104,37.648 Z M546.944,40.448 L541.616,40.448 C541.68,41.173337 541.898665,41.7119982 542.272,42.064 C542.645335,42.4160018 543.178663,42.592 543.872,42.592 C544.736004,42.592 545.52533,42.3146694 546.24,41.76 L546.816,43.136 C546.453332,43.4346682 545.997336,43.6746658 545.448,43.856 C544.898664,44.0373342 544.346669,44.128 543.792,44.128 C542.511994,44.128 541.501337,43.765337 540.76,43.04 C540.018663,42.314663 539.648,41.322673 539.648,40.064 C539.648,39.263996 539.807998,38.5546698 540.128,37.936 C540.448002,37.3173302 540.898664,36.837335 541.48,36.496 C542.061336,36.154665 542.719996,35.984 543.456,35.984 C544.533339,35.984 545.383997,36.3306632 546.008,37.024 C546.632003,37.7173368 546.944,38.6719939 546.944,39.888 L546.944,40.448 Z M543.504,37.392 C542.970664,37.392 542.541335,37.562665 542.216,37.904 C541.890665,38.245335 541.690667,38.7359968 541.616,39.376 L545.232,39.376 C545.210667,38.7253301 545.050668,38.2320017 544.752,37.896 C544.453332,37.5599983 544.037336,37.392 543.504,37.392 Z M556.272,35.984 C557.370672,35.984 558.186664,36.250664 558.72,36.784 C559.253336,37.317336 559.52,38.1386611 559.52,39.248 L559.52,44 L557.616,44 L557.616,42.8 C557.434666,43.2160021 557.149335,43.5413322 556.76,43.776 C556.370665,44.0106678 555.920003,44.128 555.408,44.128 C554.885331,44.128 554.410669,44.0213344 553.984,43.808 C553.557331,43.5946656 553.221335,43.3013352 552.976,42.928 C552.730665,42.5546648 552.608,42.138669 552.608,41.68 C552.608,41.1039971 552.754665,40.6506683 553.048,40.32 C553.341335,39.9893317 553.818663,39.7493341 554.48,39.6 C555.075203,39.4655993 555.873436,39.3916799 556.874719,39.37824 L557.616,39.376 L557.616,39.008 C557.616,38.474664 557.501334,38.0906678 557.272,37.856 C557.042666,37.6213322 556.661336,37.504 556.128,37.504 C555.711998,37.504 555.277336,37.5759993 554.824,37.72 C554.370664,37.8640007 553.925336,38.0639987 553.488,38.32 L552.928,36.944 C553.365336,36.6666653 553.89333,36.4373342 554.512,36.256 C555.13067,36.0746658 555.717331,35.984 556.272,35.984 Z M555.808,42.688 C556.341336,42.688 556.775998,42.5093351 557.112,42.152 C557.448002,41.7946649 557.616,41.3333362 557.616,40.768 L557.616,40.432 L557.328,40.432 C556.61333,40.432 556.058669,40.4639997 555.664,40.528 C555.269331,40.5920003 554.986668,40.7039992 554.816,40.864 C554.645332,41.0240008 554.56,41.2426653 554.56,41.52 C554.56,41.861335 554.677332,42.1413322 554.912,42.36 C555.146668,42.5786678 555.445332,42.688 555.808,42.688 Z M561.552,44 L561.552,32.72 L563.552,32.72 L563.552,44 L561.552,44 Z M576.176,36.176 L578.128,36.176 L575.056,44 L573.312,44 L571.392,38.96 L569.52,44 L567.792,44 L564.704,36.176 L566.752,36.176 L568.752,41.616 L570.752,36.176 L572.192,36.176 L574.192,41.648 L576.176,36.176 Z M582.672,35.984 C583.770672,35.984 584.586664,36.250664 585.12,36.784 C585.653336,37.317336 585.92,38.1386611 585.92,39.248 L585.92,44 L584.016,44 L584.016,42.8 C583.834666,43.2160021 583.549335,43.5413322 583.16,43.776 C582.770665,44.0106678 582.320003,44.128 581.808,44.128 C581.285331,44.128 580.810669,44.0213344 580.384,43.808 C579.957331,43.5946656 579.621335,43.3013352 579.376,42.928 C579.130665,42.5546648 579.008,42.138669 579.008,41.68 C579.008,41.1039971 579.154665,40.6506683 579.448,40.32 C579.741335,39.9893317 580.218663,39.7493341 580.88,39.6 C581.475203,39.4655993 582.273436,39.3916799 583.274719,39.37824 L584.016,39.376 L584.016,39.008 C584.016,38.474664 583.901334,38.0906678 583.672,37.856 C583.442666,37.6213322 583.061336,37.504 582.528,37.504 C582.111998,37.504 581.677336,37.5759993 581.224,37.72 C580.770664,37.8640007 580.325336,38.0639987 579.888,38.32 L579.328,36.944 C579.765336,36.6666653 580.29333,36.4373342 580.912,36.256 C581.53067,36.0746658 582.117331,35.984 582.672,35.984 Z M582.208,42.688 C582.741336,42.688 583.175998,42.5093351 583.512,42.152 C583.848002,41.7946649 584.016,41.3333362 584.016,40.768 L584.016,40.432 L583.728,40.432 C583.01333,40.432 582.458669,40.4639997 582.064,40.528 C581.669331,40.5920003 581.386668,40.7039992 581.216,40.864 C581.045332,41.0240008 580.96,41.2426653 580.96,41.52 C580.96,41.861335 581.077332,42.1413322 581.312,42.36 C581.546668,42.5786678 581.845332,42.688 582.208,42.688 Z M593.44,36.192 L595.408,36.192 L590.704,46.88 L588.688,46.88 L590.112,43.696 L586.848,36.192 L588.96,36.192 L591.168,41.712 L593.44,36.192 Z M599.248,44.128 C598.554663,44.128 597.917336,44.0426675 597.336,43.872 C596.754664,43.7013325 596.261335,43.4560016 595.856,43.136 L596.416,41.744 C597.248004,42.352003 598.202661,42.656 599.28,42.656 C599.738669,42.656 600.087999,42.5813341 600.328,42.432 C600.568001,42.2826659 600.688,42.0693347 600.688,41.792 C600.688,41.5573322 600.605334,41.3760006 600.44,41.248 C600.274666,41.1199994 599.978669,41.0026672 599.552,40.896 L598.272,40.608 C597.546663,40.4479992 597.008002,40.1866685 596.656,39.824 C596.303998,39.4613315 596.128,38.9920029 596.128,38.416 C596.128,37.9359976 596.263999,37.5120018 596.536,37.144 C596.808001,36.7759982 597.186664,36.4906677 597.672,36.288 C598.157336,36.0853323 598.719997,35.984 599.36,35.984 C599.914669,35.984 600.450664,36.0693325 600.968,36.24 C601.485336,36.4106675 601.941331,36.6506651 602.336,36.96 L601.776,38.32 C600.965329,37.7333304 600.154671,37.44 599.344,37.44 C598.906664,37.44 598.565335,37.5199992 598.32,37.68 C598.074665,37.8400008 597.952,38.0639986 597.952,38.352 C597.952,38.5653344 598.029333,38.7413326 598.184,38.88 C598.338667,39.0186674 598.586665,39.125333 598.928,39.2 L600.256,39.504 C601.034671,39.6746675 601.605332,39.9439982 601.968,40.312 C602.330668,40.6800018 602.512,41.1626637 602.512,41.76 C602.512,42.485337 602.21867,43.0613312 601.632,43.488 C601.04533,43.9146688 600.250672,44.128 599.248,44.128 Z M616.08,36.176 L616.08,43.28 C616.08,44.5066728 615.741337,45.4346635 615.064,46.064 C614.386663,46.6933365 613.386673,47.008 612.064,47.008 C611.38133,47.008 610.725336,46.9200009 610.096,46.744 C609.466664,46.5679991 608.917336,46.3200016 608.448,46 L609.008,44.592 C609.978672,45.1786696 610.981328,45.472 612.016,45.472 C613.402674,45.472 614.096,44.7893402 614.096,43.424 L614.096,42.4 C613.861332,42.8373355 613.520002,43.1759988 613.072,43.416 C612.623998,43.6560012 612.112003,43.776 611.536,43.776 C610.85333,43.776 610.248003,43.613335 609.72,43.288 C609.191997,42.962665 608.778668,42.5066696 608.48,41.92 C608.181332,41.3333304 608.032,40.6560038 608.032,39.888 C608.032,39.1199962 608.178665,38.440003 608.472,37.848 C608.765335,37.255997 609.178664,36.797335 609.712,36.472 C610.245336,36.146665 610.85333,35.984 611.536,35.984 C612.112003,35.984 612.623998,36.1039988 613.072,36.344 C613.520002,36.5840012 613.861332,36.9226645 614.096,37.36 L614.096,36.176 L616.08,36.176 Z M612.064,42.224 C612.704003,42.224 613.202665,42.0160021 613.56,41.6 C613.917335,41.1839979 614.096,40.613337 614.096,39.888 C614.096,39.1519963 613.917335,38.5760021 613.56,38.16 C613.202665,37.7439979 612.704003,37.536 612.064,37.536 C611.434664,37.536 610.938668,37.7439979 610.576,38.16 C610.213332,38.5760021 610.032,39.1519963 610.032,39.888 C610.032,40.6026702 610.213332,41.1706646 610.576,41.592 C610.938668,42.0133354 611.434664,42.224 612.064,42.224 Z M623.296,37.648 L622.128,37.76 C620.805327,37.8986674 620.144,38.5706606 620.144,39.776 L620.144,44 L618.144,44 L618.144,36.176 L620.048,36.176 L620.048,37.552 C620.453335,36.6133286 621.29066,36.1013338 622.56,36.016 L623.168,35.968 L623.296,37.648 Z M631.136,40.448 L625.808,40.448 C625.872,41.173337 626.090665,41.7119982 626.464,42.064 C626.837335,42.4160018 627.370663,42.592 628.064,42.592 C628.928004,42.592 629.71733,42.3146694 630.432,41.76 L631.008,43.136 C630.645332,43.4346682 630.189336,43.6746658 629.64,43.856 C629.090664,44.0373342 628.538669,44.128 627.984,44.128 C626.703994,44.128 625.693337,43.765337 624.952,43.04 C624.210663,42.314663 623.84,41.322673 623.84,40.064 C623.84,39.263996 623.999998,38.5546698 624.32,37.936 C624.640002,37.3173302 625.090664,36.837335 625.672,36.496 C626.253336,36.154665 626.911996,35.984 627.648,35.984 C628.725339,35.984 629.575997,36.3306632 630.2,37.024 C630.824003,37.7173368 631.136,38.6719939 631.136,39.888 L631.136,40.448 Z M627.696,37.392 C627.162664,37.392 626.733335,37.562665 626.408,37.904 C626.082665,38.245335 625.882667,38.7359968 625.808,39.376 L629.424,39.376 C629.402667,38.7253301 629.242668,38.2320017 628.944,37.896 C628.645332,37.5599983 628.229336,37.392 627.696,37.392 Z M636.128,35.984 C637.226672,35.984 638.042664,36.250664 638.576,36.784 C639.109336,37.317336 639.376,38.1386611 639.376,39.248 L639.376,44 L637.472,44 L637.472,42.8 C637.290666,43.2160021 637.005335,43.5413322 636.616,43.776 C636.226665,44.0106678 635.776003,44.128 635.264,44.128 C634.741331,44.128 634.266669,44.0213344 633.84,43.808 C633.413331,43.5946656 633.077335,43.3013352 632.832,42.928 C632.586665,42.5546648 632.464,42.138669 632.464,41.68 C632.464,41.1039971 632.610665,40.6506683 632.904,40.32 C633.197335,39.9893317 633.674663,39.7493341 634.336,39.6 C634.931203,39.4655993 635.729436,39.3916799 636.730719,39.37824 L637.472,39.376 L637.472,39.008 C637.472,38.474664 637.357334,38.0906678 637.128,37.856 C636.898666,37.6213322 636.517336,37.504 635.984,37.504 C635.567998,37.504 635.133336,37.5759993 634.68,37.72 C634.226664,37.8640007 633.781336,38.0639987 633.344,38.32 L632.784,36.944 C633.221336,36.6666653 633.74933,36.4373342 634.368,36.256 C634.98667,36.0746658 635.573331,35.984 636.128,35.984 Z M635.664,42.688 C636.197336,42.688 636.631998,42.5093351 636.968,42.152 C637.304002,41.7946649 637.472,41.3333362 637.472,40.768 L637.472,40.432 L637.184,40.432 C636.46933,40.432 635.914669,40.4639997 635.52,40.528 C635.125331,40.5920003 634.842668,40.7039992 634.672,40.864 C634.501332,41.0240008 634.416,41.2426653 634.416,41.52 C634.416,41.861335 634.533332,42.1413322 634.768,42.36 C635.002668,42.5786678 635.301332,42.688 635.664,42.688 Z M645.408,42.624 C645.642668,42.624 645.887999,42.6080002 646.144,42.576 L646.048,44.064 C645.727998,44.0960002 645.434668,44.112 645.168,44.112 C644.069328,44.112 643.258669,43.8586692 642.736,43.352 C642.213331,42.8453308 641.952,42.0906717 641.952,41.088 L641.952,37.68 L640.448,37.68 L640.448,36.176 L641.952,36.176 L641.952,33.84 L643.952,33.84 L643.952,36.176 L646.016,36.176 L646.016,37.68 L643.952,37.68 L643.952,41.056 C643.952,42.1013386 644.437328,42.624 645.408,42.624 Z M654.176,40.448 L648.848,40.448 C648.912,41.173337 649.130665,41.7119982 649.504,42.064 C649.877335,42.4160018 650.410663,42.592 651.104,42.592 C651.968004,42.592 652.75733,42.3146694 653.472,41.76 L654.048,43.136 C653.685332,43.4346682 653.229336,43.6746658 652.68,43.856 C652.130664,44.0373342 651.578669,44.128 651.024,44.128 C649.743994,44.128 648.733337,43.765337 647.992,43.04 C647.250663,42.314663 646.88,41.322673 646.88,40.064 C646.88,39.263996 647.039998,38.5546698 647.36,37.936 C647.680002,37.3173302 648.130664,36.837335 648.712,36.496 C649.293336,36.154665 649.951996,35.984 650.688,35.984 C651.765339,35.984 652.615997,36.3306632 653.24,37.024 C653.864003,37.7173368 654.176,38.6719939 654.176,39.888 L654.176,40.448 Z M650.736,37.392 C650.202664,37.392 649.773335,37.562665 649.448,37.904 C649.122665,38.245335 648.922667,38.7359968 648.848,39.376 L652.464,39.376 C652.442667,38.7253301 652.282668,38.2320017 651.984,37.896 C651.685332,37.5599983 651.269336,37.392 650.736,37.392 Z M660.96,37.648 L659.792,37.76 C658.469327,37.8986674 657.808,38.5706606 657.808,39.776 L657.808,44 L655.808,44 L655.808,36.176 L657.712,36.176 L657.712,37.552 C658.117335,36.6133286 658.95466,36.1013338 660.224,36.016 L660.832,35.968 L660.96,37.648 Z M670.272,42.624 C670.506668,42.624 670.751999,42.6080002 671.008,42.576 L670.912,44.064 C670.591998,44.0960002 670.298668,44.112 670.032,44.112 C668.933328,44.112 668.122669,43.8586692 667.6,43.352 C667.077331,42.8453308 666.816,42.0906717 666.816,41.088 L666.816,37.68 L665.312,37.68 L665.312,36.176 L666.816,36.176 L666.816,33.84 L668.816,33.84 L668.816,36.176 L670.88,36.176 L670.88,37.68 L668.816,37.68 L668.816,41.056 C668.816,42.1013386 669.301328,42.624 670.272,42.624 Z M676.72,35.984 C677.658671,35.984 678.357331,36.250664 678.816,36.784 C679.274669,37.317336 679.504,38.1226613 679.504,39.2 L679.504,44 L677.504,44 L677.504,39.312 C677.504,38.703997 677.389334,38.2613347 677.16,37.984 C676.930666,37.7066653 676.570669,37.568 676.08,37.568 C675.503997,37.568 675.042668,37.7493315 674.696,38.112 C674.349332,38.4746685 674.176,38.959997 674.176,39.568 L674.176,44 L672.176,44 L672.176,32.72 L674.176,32.72 L674.176,37.264 C674.442668,36.8479979 674.797331,36.5306678 675.24,36.312 C675.682669,36.0933322 676.176,35.984 676.72,35.984 Z M684.896,35.984 C685.994672,35.984 686.810664,36.250664 687.344,36.784 C687.877336,37.317336 688.144,38.1386611 688.144,39.248 L688.144,44 L686.24,44 L686.24,42.8 C686.058666,43.2160021 685.773335,43.5413322 685.384,43.776 C684.994665,44.0106678 684.544003,44.128 684.032,44.128 C683.509331,44.128 683.034669,44.0213344 682.608,43.808 C682.181331,43.5946656 681.845335,43.3013352 681.6,42.928 C681.354665,42.5546648 681.232,42.138669 681.232,41.68 C681.232,41.1039971 681.378665,40.6506683 681.672,40.32 C681.965335,39.9893317 682.442663,39.7493341 683.104,39.6 C683.699203,39.4655993 684.497436,39.3916799 685.498719,39.37824 L686.24,39.376 L686.24,39.008 C686.24,38.474664 686.125334,38.0906678 685.896,37.856 C685.666666,37.6213322 685.285336,37.504 684.752,37.504 C684.335998,37.504 683.901336,37.5759993 683.448,37.72 C682.994664,37.8640007 682.549336,38.0639987 682.112,38.32 L681.552,36.944 C681.989336,36.6666653 682.51733,36.4373342 683.136,36.256 C683.75467,36.0746658 684.341331,35.984 684.896,35.984 Z M684.432,42.688 C684.965336,42.688 685.399998,42.5093351 685.736,42.152 C686.072002,41.7946649 686.24,41.3333362 686.24,40.768 L686.24,40.432 L685.952,40.432 C685.23733,40.432 684.682669,40.4639997 684.288,40.528 C683.893331,40.5920003 683.610668,40.7039992 683.44,40.864 C683.269332,41.0240008 683.184,41.2426653 683.184,41.52 C683.184,41.861335 683.301332,42.1413322 683.536,42.36 C683.770668,42.5786678 684.069332,42.688 684.432,42.688 Z M694.72,35.984 C695.658671,35.984 696.357331,36.250664 696.816,36.784 C697.274669,37.317336 697.504,38.1226613 697.504,39.2 L697.504,44 L695.504,44 L695.504,39.312 C695.504,38.703997 695.389334,38.2613347 695.16,37.984 C694.930666,37.7066653 694.570669,37.568 694.08,37.568 C693.503997,37.568 693.042668,37.7493315 692.696,38.112 C692.349332,38.4746685 692.176,38.959997 692.176,39.568 L692.176,44 L690.176,44 L690.176,36.176 L692.128,36.176 L692.128,37.344 C692.394668,36.9066645 692.751998,36.5706678 693.2,36.336 C693.648002,36.1013322 694.154664,35.984 694.72,35.984 Z M708.368,35.984 C709.040003,35.984 709.639997,36.154665 710.168,36.496 C710.696003,36.837335 711.106665,37.3199969 711.4,37.944 C711.693335,38.5680031 711.84,39.2853293 711.84,40.096 C711.84,40.9066707 711.693335,41.615997 711.4,42.224 C711.106665,42.832003 710.698669,43.3013317 710.176,43.632 C709.653331,43.9626683 709.05067,44.128 708.368,44.128 C707.813331,44.128 707.317336,44.0106678 706.88,43.776 C706.442664,43.5413322 706.106668,43.2160021 705.872,42.8 L705.872,46.88 L703.872,46.88 L703.872,36.176 L705.84,36.176 L705.84,37.36 C706.074668,36.9226645 706.413331,36.5840012 706.856,36.344 C707.298669,36.1039988 707.802664,35.984 708.368,35.984 Z M707.84,42.576 C708.469336,42.576 708.959998,42.3600022 709.312,41.928 C709.664002,41.4959978 709.84,40.8853373 709.84,40.096 C709.84,39.2853293 709.664002,38.6560022 709.312,38.208 C708.959998,37.7599978 708.469336,37.536 707.84,37.536 C707.199997,37.536 706.706668,37.7546645 706.36,38.192 C706.013332,38.6293355 705.84,39.2533293 705.84,40.064 C705.84,40.864004 706.013332,41.4826645 706.36,41.92 C706.706668,42.3573355 707.199997,42.576 707.84,42.576 Z M716.848,35.984 C717.946672,35.984 718.762664,36.250664 719.296,36.784 C719.829336,37.317336 720.096,38.1386611 720.096,39.248 L720.096,44 L718.192,44 L718.192,42.8 C718.010666,43.2160021 717.725335,43.5413322 717.336,43.776 C716.946665,44.0106678 716.496003,44.128 715.984,44.128 C715.461331,44.128 714.986669,44.0213344 714.56,43.808 C714.133331,43.5946656 713.797335,43.3013352 713.552,42.928 C713.306665,42.5546648 713.184,42.138669 713.184,41.68 C713.184,41.1039971 713.330665,40.6506683 713.624,40.32 C713.917335,39.9893317 714.394663,39.7493341 715.056,39.6 C715.651203,39.4655993 716.449436,39.3916799 717.450719,39.37824 L718.192,39.376 L718.192,39.008 C718.192,38.474664 718.077334,38.0906678 717.848,37.856 C717.618666,37.6213322 717.237336,37.504 716.704,37.504 C716.287998,37.504 715.853336,37.5759993 715.4,37.72 C714.946664,37.8640007 714.501336,38.0639987 714.064,38.32 L713.504,36.944 C713.941336,36.6666653 714.46933,36.4373342 715.088,36.256 C715.70667,36.0746658 716.293331,35.984 716.848,35.984 Z M716.384,42.688 C716.917336,42.688 717.351998,42.5093351 717.688,42.152 C718.024002,41.7946649 718.192,41.3333362 718.192,40.768 L718.192,40.432 L717.904,40.432 C717.18933,40.432 716.634669,40.4639997 716.24,40.528 C715.845331,40.5920003 715.562668,40.7039992 715.392,40.864 C715.221332,41.0240008 715.136,41.2426653 715.136,41.52 C715.136,41.861335 715.253332,42.1413322 715.488,42.36 C715.722668,42.5786678 716.021332,42.688 716.384,42.688 Z M727.28,37.648 L726.112,37.76 C724.789327,37.8986674 724.128,38.5706606 724.128,39.776 L724.128,44 L722.128,44 L722.128,36.176 L724.032,36.176 L724.032,37.552 C724.437335,36.6133286 725.27466,36.1013338 726.544,36.016 L727.152,35.968 L727.28,37.648 Z M735.12,40.448 L729.792,40.448 C729.856,41.173337 730.074665,41.7119982 730.448,42.064 C730.821335,42.4160018 731.354663,42.592 732.048,42.592 C732.912004,42.592 733.70133,42.3146694 734.416,41.76 L734.992,43.136 C734.629332,43.4346682 734.173336,43.6746658 733.624,43.856 C733.074664,44.0373342 732.522669,44.128 731.968,44.128 C730.687994,44.128 729.677337,43.765337 728.936,43.04 C728.194663,42.314663 727.824,41.322673 727.824,40.064 C727.824,39.263996 727.983998,38.5546698 728.304,37.936 C728.624002,37.3173302 729.074664,36.837335 729.656,36.496 C730.237336,36.154665 730.895996,35.984 731.632,35.984 C732.709339,35.984 733.559997,36.3306632 734.184,37.024 C734.808003,37.7173368 735.12,38.6719939 735.12,39.888 L735.12,40.448 Z M731.68,37.392 C731.146664,37.392 730.717335,37.562665 730.392,37.904 C730.066665,38.245335 729.866667,38.7359968 729.792,39.376 L733.408,39.376 C733.386667,38.7253301 733.226668,38.2320017 732.928,37.896 C732.629332,37.5599983 732.213336,37.392 731.68,37.392 Z M741.296,35.984 C742.234671,35.984 742.933331,36.250664 743.392,36.784 C743.850669,37.317336 744.08,38.1226613 744.08,39.2 L744.08,44 L742.08,44 L742.08,39.312 C742.08,38.703997 741.965334,38.2613347 741.736,37.984 C741.506666,37.7066653 741.146669,37.568 740.656,37.568 C740.079997,37.568 739.618668,37.7493315 739.272,38.112 C738.925332,38.4746685 738.752,38.959997 738.752,39.568 L738.752,44 L736.752,44 L736.752,36.176 L738.704,36.176 L738.704,37.344 C738.970668,36.9066645 739.327998,36.5706678 739.776,36.336 C740.224002,36.1013322 740.730664,35.984 741.296,35.984 Z M750.112,42.624 C750.346668,42.624 750.591999,42.6080002 750.848,42.576 L750.752,44.064 C750.431998,44.0960002 750.138668,44.112 749.872,44.112 C748.773328,44.112 747.962669,43.8586692 747.44,43.352 C746.917331,42.8453308 746.656,42.0906717 746.656,41.088 L746.656,37.68 L745.152,37.68 L745.152,36.176 L746.656,36.176 L746.656,33.84 L748.656,33.84 L748.656,36.176 L750.72,36.176 L750.72,37.68 L748.656,37.68 L748.656,41.056 C748.656,42.1013386 749.141328,42.624 750.112,42.624 Z" id="Childrenarealwaysgreaterthanparent" fill="#4C7EF3"></path>
            <path d="M0.216,32.72 L5.144,32.72 C6.34933936,32.72 7.28799664,33.0213303 7.96,33.624 C8.63200336,34.2266697 8.968,35.0719946 8.968,36.16 C8.968,37.2480054 8.63200336,38.095997 7.96,38.704 C7.28799664,39.312003 6.34933936,39.616 5.144,39.616 L2.28,39.616 L2.28,44 L0.216,44 L0.216,32.72 Z M4.888,38.032 C6.30667376,38.032 7.016,37.4133395 7.016,36.176 C7.016,35.5466635 6.84000176,35.0800015 6.488,34.776 C6.13599824,34.4719985 5.60267024,34.32 4.888,34.32 L2.28,34.32 L2.28,38.032 L4.888,38.032 Z M13.96,35.984 C15.0586722,35.984 15.874664,36.250664 16.408,36.784 C16.941336,37.317336 17.208,38.1386611 17.208,39.248 L17.208,44 L15.304,44 L15.304,42.8 C15.1226658,43.2160021 14.8373353,43.5413322 14.448,43.776 C14.0586647,44.0106678 13.6080026,44.128 13.096,44.128 C12.5733307,44.128 12.0986688,44.0213344 11.672,43.808 C11.2453312,43.5946656 10.9093346,43.3013352 10.664,42.928 C10.4186654,42.5546648 10.296,42.138669 10.296,41.68 C10.296,41.1039971 10.4426652,40.6506683 10.736,40.32 C11.0293348,39.9893317 11.5066634,39.7493341 12.168,39.6 C12.763203,39.4655993 13.5614359,39.3916799 14.5627187,39.37824 L15.304,39.376 L15.304,39.008 C15.304,38.474664 15.1893345,38.0906678 14.96,37.856 C14.7306655,37.6213322 14.349336,37.504 13.816,37.504 C13.3999979,37.504 12.9653356,37.5759993 12.512,37.72 C12.0586644,37.8640007 11.6133355,38.0639987 11.176,38.32 L10.616,36.944 C11.0533355,36.6666653 11.5813302,36.4373342 12.2,36.256 C12.8186698,36.0746658 13.4053306,35.984 13.96,35.984 Z M13.496,42.688 C14.029336,42.688 14.4639983,42.5093351 14.8,42.152 C15.1360017,41.7946649 15.304,41.3333362 15.304,40.768 L15.304,40.432 L15.016,40.432 C14.3013298,40.432 13.7466686,40.4639997 13.352,40.528 C12.9573314,40.5920003 12.6746675,40.7039992 12.504,40.864 C12.3333325,41.0240008 12.248,41.2426653 12.248,41.52 C12.248,41.861335 12.3653322,42.1413322 12.6,42.36 C12.8346678,42.5786678 13.1333315,42.688 13.496,42.688 Z M24.392,37.648 L23.224,37.76 C21.9013267,37.8986674 21.24,38.5706606 21.24,39.776 L21.24,44 L19.24,44 L19.24,36.176 L21.144,36.176 L21.144,37.552 C21.5493354,36.6133286 22.3866603,36.1013338 23.656,36.016 L24.264,35.968 L24.392,37.648 Z M32.232,40.448 L26.904,40.448 C26.9680003,41.173337 27.1866648,41.7119982 27.56,42.064 C27.9333352,42.4160018 28.4666632,42.592 29.16,42.592 C30.0240043,42.592 30.8133298,42.3146694 31.528,41.76 L32.104,43.136 C31.7413315,43.4346682 31.2853361,43.6746658 30.736,43.856 C30.1866639,44.0373342 29.6346694,44.128 29.08,44.128 C27.7999936,44.128 26.789337,43.765337 26.048,43.04 C25.306663,42.314663 24.936,41.322673 24.936,40.064 C24.936,39.263996 25.0959984,38.5546698 25.416,37.936 C25.7360016,37.3173302 26.1866638,36.837335 26.768,36.496 C27.3493362,36.154665 28.0079963,35.984 28.744,35.984 C29.8213387,35.984 30.6719969,36.3306632 31.296,37.024 C31.9200031,37.7173368 32.232,38.6719939 32.232,39.888 L32.232,40.448 Z M28.792,37.392 C28.258664,37.392 27.829335,37.562665 27.504,37.904 C27.178665,38.245335 26.978667,38.7359968 26.904,39.376 L30.52,39.376 C30.4986666,38.7253301 30.3386682,38.2320017 30.04,37.896 C29.7413318,37.5599983 29.325336,37.392 28.792,37.392 Z M38.408,35.984 C39.3466714,35.984 40.045331,36.250664 40.504,36.784 C40.962669,37.317336 41.192,38.1226613 41.192,39.2 L41.192,44 L39.192,44 L39.192,39.312 C39.192,38.703997 39.0773345,38.2613347 38.848,37.984 C38.6186655,37.7066653 38.2586691,37.568 37.768,37.568 C37.1919971,37.568 36.7306684,37.7493315 36.384,38.112 C36.0373316,38.4746685 35.864,38.959997 35.864,39.568 L35.864,44 L33.864,44 L33.864,36.176 L35.816,36.176 L35.816,37.344 C36.082668,36.9066645 36.4399978,36.5706678 36.888,36.336 C37.3360022,36.1013322 37.8426638,35.984 38.408,35.984 Z M47.224,42.624 C47.4586678,42.624 47.7039987,42.6080002 47.96,42.576 L47.864,44.064 C47.5439984,44.0960002 47.250668,44.112 46.984,44.112 C45.8853278,44.112 45.0746693,43.8586692 44.552,43.352 C44.0293307,42.8453308 43.768,42.0906717 43.768,41.088 L43.768,37.68 L42.264,37.68 L42.264,36.176 L43.768,36.176 L43.768,33.84 L45.768,33.84 L45.768,36.176 L47.832,36.176 L47.832,37.68 L45.768,37.68 L45.768,41.056 C45.768,42.1013386 46.2533285,42.624 47.224,42.624 Z M53.464,44 L53.464,36.176 L55.464,36.176 L55.464,44 L53.464,44 Z M53.352,32.544 L55.56,32.544 L55.56,34.512 L53.352,34.512 L53.352,32.544 Z M60.408,44.128 C59.7146632,44.128 59.0773362,44.0426675 58.496,43.872 C57.9146638,43.7013325 57.4213354,43.4560016 57.016,43.136 L57.576,41.744 C58.4080042,42.352003 59.3626613,42.656 60.44,42.656 C60.898669,42.656 61.2479988,42.5813341 61.488,42.432 C61.7280012,42.2826659 61.848,42.0693347 61.848,41.792 C61.848,41.5573322 61.7653342,41.3760006 61.6,41.248 C61.4346658,41.1199994 61.1386688,41.0026672 60.712,40.896 L59.432,40.608 C58.706663,40.4479992 58.1680018,40.1866685 57.816,39.824 C57.4639982,39.4613315 57.288,38.9920029 57.288,38.416 C57.288,37.9359976 57.4239986,37.5120018 57.696,37.144 C57.9680014,36.7759982 58.3466642,36.4906677 58.832,36.288 C59.3173358,36.0853323 59.8799968,35.984 60.52,35.984 C61.0746694,35.984 61.6106641,36.0693325 62.128,36.24 C62.6453359,36.4106675 63.1013314,36.6506651 63.496,36.96 L62.936,38.32 C62.1253293,37.7333304 61.3146707,37.44 60.504,37.44 C60.0666645,37.44 59.7253346,37.5199992 59.48,37.68 C59.2346654,37.8400008 59.112,38.0639986 59.112,38.352 C59.112,38.5653344 59.1893326,38.7413326 59.344,38.88 C59.4986674,39.0186674 59.746665,39.125333 60.088,39.2 L61.416,39.504 C62.1946706,39.6746675 62.7653315,39.9439982 63.128,40.312 C63.4906685,40.6800018 63.672,41.1626637 63.672,41.76 C63.672,42.485337 63.3786696,43.0613312 62.792,43.488 C62.2053304,43.9146688 61.4106717,44.128 60.408,44.128 Z M72.984,35.984 C74.0826722,35.984 74.898664,36.250664 75.432,36.784 C75.965336,37.317336 76.232,38.1386611 76.232,39.248 L76.232,44 L74.328,44 L74.328,42.8 C74.1466658,43.2160021 73.8613353,43.5413322 73.472,43.776 C73.0826647,44.0106678 72.6320026,44.128 72.12,44.128 C71.5973307,44.128 71.1226688,44.0213344 70.696,43.808 C70.2693312,43.5946656 69.9333346,43.3013352 69.688,42.928 C69.4426654,42.5546648 69.32,42.138669 69.32,41.68 C69.32,41.1039971 69.4666652,40.6506683 69.76,40.32 C70.0533348,39.9893317 70.5306634,39.7493341 71.192,39.6 C71.787203,39.4655993 72.5854359,39.3916799 73.5867187,39.37824 L74.328,39.376 L74.328,39.008 C74.328,38.474664 74.2133345,38.0906678 73.984,37.856 C73.7546655,37.6213322 73.373336,37.504 72.84,37.504 C72.4239979,37.504 71.9893356,37.5759993 71.536,37.72 C71.0826644,37.8640007 70.6373355,38.0639987 70.2,38.32 L69.64,36.944 C70.0773355,36.6666653 70.6053302,36.4373342 71.224,36.256 C71.8426698,36.0746658 72.4293306,35.984 72.984,35.984 Z M72.52,42.688 C73.053336,42.688 73.4879983,42.5093351 73.824,42.152 C74.1600017,41.7946649 74.328,41.3333362 74.328,40.768 L74.328,40.432 L74.04,40.432 C73.3253298,40.432 72.7706686,40.4639997 72.376,40.528 C71.9813314,40.5920003 71.6986675,40.7039992 71.528,40.864 C71.3573325,41.0240008 71.272,41.2426653 71.272,41.52 C71.272,41.861335 71.3893322,42.1413322 71.624,42.36 C71.8586678,42.5786678 72.1573315,42.688 72.52,42.688 Z M78.264,44 L78.264,32.72 L80.264,32.72 L80.264,44 L78.264,44 Z M92.888,36.176 L94.84,36.176 L91.768,44 L90.024,44 L88.104,38.96 L86.232,44 L84.504,44 L81.416,36.176 L83.464,36.176 L85.464,41.616 L87.464,36.176 L88.904,36.176 L90.904,41.648 L92.888,36.176 Z M99.384,35.984 C100.482672,35.984 101.298664,36.250664 101.832,36.784 C102.365336,37.317336 102.632,38.1386611 102.632,39.248 L102.632,44 L100.728,44 L100.728,42.8 C100.546666,43.2160021 100.261335,43.5413322 99.872,43.776 C99.4826647,44.0106678 99.0320026,44.128 98.52,44.128 C97.9973307,44.128 97.5226688,44.0213344 97.096,43.808 C96.6693312,43.5946656 96.3333346,43.3013352 96.088,42.928 C95.8426654,42.5546648 95.72,42.138669 95.72,41.68 C95.72,41.1039971 95.8666652,40.6506683 96.16,40.32 C96.4533348,39.9893317 96.9306634,39.7493341 97.592,39.6 C98.187203,39.4655993 98.9854359,39.3916799 99.9867187,39.37824 L100.728,39.376 L100.728,39.008 C100.728,38.474664 100.613334,38.0906678 100.384,37.856 C100.154666,37.6213322 99.773336,37.504 99.24,37.504 C98.8239979,37.504 98.3893356,37.5759993 97.936,37.72 C97.4826644,37.8640007 97.0373355,38.0639987 96.6,38.32 L96.04,36.944 C96.4773355,36.6666653 97.0053302,36.4373342 97.624,36.256 C98.2426698,36.0746658 98.8293306,35.984 99.384,35.984 Z M98.92,42.688 C99.453336,42.688 99.8879983,42.5093351 100.224,42.152 C100.560002,41.7946649 100.728,41.3333362 100.728,40.768 L100.728,40.432 L100.44,40.432 C99.7253298,40.432 99.1706686,40.4639997 98.776,40.528 C98.3813314,40.5920003 98.0986675,40.7039992 97.928,40.864 C97.7573325,41.0240008 97.672,41.2426653 97.672,41.52 C97.672,41.861335 97.7893322,42.1413322 98.024,42.36 C98.2586678,42.5786678 98.5573315,42.688 98.92,42.688 Z M110.152,36.192 L112.12,36.192 L107.416,46.88 L105.4,46.88 L106.824,43.696 L103.56,36.192 L105.672,36.192 L107.88,41.712 L110.152,36.192 Z M115.96,44.128 C115.266663,44.128 114.629336,44.0426675 114.048,43.872 C113.466664,43.7013325 112.973335,43.4560016 112.568,43.136 L113.128,41.744 C113.960004,42.352003 114.914661,42.656 115.992,42.656 C116.450669,42.656 116.799999,42.5813341 117.04,42.432 C117.280001,42.2826659 117.4,42.0693347 117.4,41.792 C117.4,41.5573322 117.317334,41.3760006 117.152,41.248 C116.986666,41.1199994 116.690669,41.0026672 116.264,40.896 L114.984,40.608 C114.258663,40.4479992 113.720002,40.1866685 113.368,39.824 C113.015998,39.4613315 112.84,38.9920029 112.84,38.416 C112.84,37.9359976 112.975999,37.5120018 113.248,37.144 C113.520001,36.7759982 113.898664,36.4906677 114.384,36.288 C114.869336,36.0853323 115.431997,35.984 116.072,35.984 C116.626669,35.984 117.162664,36.0693325 117.68,36.24 C118.197336,36.4106675 118.653331,36.6506651 119.048,36.96 L118.488,38.32 C117.677329,37.7333304 116.866671,37.44 116.056,37.44 C115.618664,37.44 115.277335,37.5199992 115.032,37.68 C114.786665,37.8400008 114.664,38.0639986 114.664,38.352 C114.664,38.5653344 114.741333,38.7413326 114.896,38.88 C115.050667,39.0186674 115.298665,39.125333 115.64,39.2 L116.968,39.504 C117.746671,39.6746675 118.317332,39.9439982 118.68,40.312 C119.042668,40.6800018 119.224,41.1626637 119.224,41.76 C119.224,42.485337 118.93067,43.0613312 118.344,43.488 C117.75733,43.9146688 116.962672,44.128 115.96,44.128 Z M129.176,42.624 C129.410668,42.624 129.655999,42.6080002 129.912,42.576 L129.816,44.064 C129.495998,44.0960002 129.202668,44.112 128.936,44.112 C127.837328,44.112 127.026669,43.8586692 126.504,43.352 C125.981331,42.8453308 125.72,42.0906717 125.72,41.088 L125.72,37.68 L124.216,37.68 L124.216,36.176 L125.72,36.176 L125.72,33.84 L127.72,33.84 L127.72,36.176 L129.784,36.176 L129.784,37.68 L127.72,37.68 L127.72,41.056 C127.72,42.1013386 128.205328,42.624 129.176,42.624 Z M135.624,35.984 C136.562671,35.984 137.261331,36.250664 137.72,36.784 C138.178669,37.317336 138.408,38.1226613 138.408,39.2 L138.408,44 L136.408,44 L136.408,39.312 C136.408,38.703997 136.293334,38.2613347 136.064,37.984 C135.834666,37.7066653 135.474669,37.568 134.984,37.568 C134.407997,37.568 133.946668,37.7493315 133.6,38.112 C133.253332,38.4746685 133.08,38.959997 133.08,39.568 L133.08,44 L131.08,44 L131.08,32.72 L133.08,32.72 L133.08,37.264 C133.346668,36.8479979 133.701331,36.5306678 134.144,36.312 C134.586669,36.0933322 135.08,35.984 135.624,35.984 Z M147.304,40.448 L141.976,40.448 C142.04,41.173337 142.258665,41.7119982 142.632,42.064 C143.005335,42.4160018 143.538663,42.592 144.232,42.592 C145.096004,42.592 145.88533,42.3146694 146.6,41.76 L147.176,43.136 C146.813332,43.4346682 146.357336,43.6746658 145.808,43.856 C145.258664,44.0373342 144.706669,44.128 144.152,44.128 C142.871994,44.128 141.861337,43.765337 141.12,43.04 C140.378663,42.314663 140.008,41.322673 140.008,40.064 C140.008,39.263996 140.167998,38.5546698 140.488,37.936 C140.808002,37.3173302 141.258664,36.837335 141.84,36.496 C142.421336,36.154665 143.079996,35.984 143.816,35.984 C144.893339,35.984 145.743997,36.3306632 146.368,37.024 C146.992003,37.7173368 147.304,38.6719939 147.304,39.888 L147.304,40.448 Z M143.864,37.392 C143.330664,37.392 142.901335,37.562665 142.576,37.904 C142.250665,38.245335 142.050667,38.7359968 141.976,39.376 L145.592,39.376 C145.570667,38.7253301 145.410668,38.2320017 145.112,37.896 C144.813332,37.5599983 144.397336,37.392 143.864,37.392 Z M162.568,35.984 C163.453338,35.984 164.114664,36.2479974 164.552,36.776 C164.989336,37.3040026 165.208,38.1119946 165.208,39.2 L165.208,44 L163.208,44 L163.208,39.28 C163.208,38.6826637 163.106668,38.2480014 162.904,37.976 C162.701332,37.7039986 162.376002,37.568 161.928,37.568 C161.394664,37.568 160.978668,37.7493315 160.68,38.112 C160.381332,38.4746685 160.232,38.9813301 160.232,39.632 L160.232,44 L158.232,44 L158.232,39.28 C158.232,38.6826637 158.133334,38.2480014 157.936,37.976 C157.738666,37.7039986 157.410669,37.568 156.952,37.568 C156.429331,37.568 156.018668,37.7493315 155.72,38.112 C155.421332,38.4746685 155.272,38.9813301 155.272,39.632 L155.272,44 L153.272,44 L153.272,36.176 L155.224,36.176 L155.224,37.28 C155.458668,36.8533312 155.783998,36.5306678 156.2,36.312 C156.616002,36.0933322 157.090664,35.984 157.624,35.984 C158.808006,35.984 159.591998,36.4746618 159.976,37.456 C160.221335,36.997331 160.573331,36.6373346 161.032,36.376 C161.490669,36.1146654 162.002664,35.984 162.568,35.984 Z M167.24,44 L167.24,36.176 L169.24,36.176 L169.24,44 L167.24,44 Z M167.128,32.544 L169.336,32.544 L169.336,34.512 L167.128,34.512 L167.128,32.544 Z M175.848,35.984 C176.786671,35.984 177.485331,36.250664 177.944,36.784 C178.402669,37.317336 178.632,38.1226613 178.632,39.2 L178.632,44 L176.632,44 L176.632,39.312 C176.632,38.703997 176.517334,38.2613347 176.288,37.984 C176.058666,37.7066653 175.698669,37.568 175.208,37.568 C174.631997,37.568 174.170668,37.7493315 173.824,38.112 C173.477332,38.4746685 173.304,38.959997 173.304,39.568 L173.304,44 L171.304,44 L171.304,36.176 L173.256,36.176 L173.256,37.344 C173.522668,36.9066645 173.879998,36.5706678 174.328,36.336 C174.776002,36.1013322 175.282664,35.984 175.848,35.984 Z" id="Parentisalwaysthemin" fill="#4C7EF3"></path>
            <path d="M361,-1 C385.300529,-1 405,18.699471 405,43 C405,67.300529 385.300529,87 361,87 C336.699471,87 317,67.300529 317,43 C317,18.699471 336.699471,-1 361,-1 Z M361,1 C337.804041,1 319,19.8040405 319,43 C319,66.1959595 337.804041,85 361,85 C384.195959,85 403,66.1959595 403,43 C403,19.8040405 384.195959,1 361,1 Z" id="Oval" fill="#757F97"></path>
            <path d="M224,161.5 C248.300529,161.5 268,181.199471 268,205.5 C268,229.800529 248.300529,249.5 224,249.5 C199.699471,249.5 180,229.800529 180,205.5 C180,181.199471 199.699471,161.5 224,161.5 Z M224,163.5 C200.804041,163.5 182,182.304041 182,205.5 C182,228.695959 200.804041,247.5 224,247.5 C247.195959,247.5 266,228.695959 266,205.5 C266,182.304041 247.195959,163.5 224,163.5 Z" id="Oval-Copy" fill="#757F97"></path>
            <path d="M149,297 C173.300529,297 193,316.699471 193,341 C193,365.300529 173.300529,385 149,385 C124.699471,385 105,365.300529 105,341 C105,316.699471 124.699471,297 149,297 Z M149,299 C125.804041,299 107,317.804041 107,341 C107,364.195959 125.804041,383 149,383 C172.195959,383 191,364.195959 191,341 C191,317.804041 172.195959,299 149,299 Z" id="Oval-Copy-3" fill="#757F97"></path>
            <path d="M422,297 C446.300529,297 466,316.699471 466,341 C466,365.300529 446.300529,385 422,385 C397.699471,385 378,365.300529 378,341 C378,316.699471 397.699471,297 422,297 Z M422,299 C398.804041,299 380,317.804041 380,341 C380,364.195959 398.804041,383 422,383 C445.195959,383 464,364.195959 464,341 C464,317.804041 445.195959,299 422,299 Z" id="Oval-Copy-6" fill="#757F97"></path>
            <path d="M496,162.5 C520.300529,162.5 540,182.199471 540,206.5 C540,230.800529 520.300529,250.5 496,250.5 C471.699471,250.5 452,230.800529 452,206.5 C452,182.199471 471.699471,162.5 496,162.5 Z M496,164.5 C472.804041,164.5 454,183.304041 454,206.5 C454,229.695959 472.804041,248.5 496,248.5 C519.195959,248.5 538,229.695959 538,206.5 C538,183.304041 519.195959,164.5 496,164.5 Z" id="Oval-Copy-2" fill="#757F97"></path>
            <path d="M297,297 C321.300529,297 341,316.699471 341,341 C341,365.300529 321.300529,385 297,385 C272.699471,385 253,365.300529 253,341 C253,316.699471 272.699471,297 297,297 Z M297,299 C273.804041,299 255,317.804041 255,341 C255,364.195959 273.804041,383 297,383 C320.195959,383 339,364.195959 339,341 C339,317.804041 320.195959,299 297,299 Z" id="Oval-Copy-4" fill="#757F97"></path>
            <path d="M570,297 C594.300529,297 614,316.699471 614,341 C614,365.300529 594.300529,385 570,385 C545.699471,385 526,365.300529 526,341 C526,316.699471 545.699471,297 570,297 Z M570,299 C546.804041,299 528,317.804041 528,341 C528,364.195959 546.804041,383 570,383 C593.195959,383 612,364.195959 612,341 C612,317.804041 593.195959,299 570,299 Z" id="Oval-Copy-7" fill="#757F97"></path>
            <path d="M368.409,47.796 L368.409,50.5 L356.085,50.5 L356.085,48.03 L362.325,41.322 C363.053004,40.5246627 363.585998,39.7923367 363.924,39.125 C364.262002,38.4576633 364.431,37.79467 364.431,37.136 C364.431,36.3039958 364.192669,35.6756688 363.716,35.251 C363.239331,34.8263312 362.541671,34.614 361.623,34.614 C359.976325,34.614 358.321008,35.2466603 356.657,36.512 L355.539,34.068 C356.267004,33.4266635 357.198661,32.9110019 358.334,32.521 C359.469339,32.1309981 360.608994,31.936 361.753,31.936 C363.590343,31.936 365.046328,32.3866622 366.121,33.288 C367.195672,34.1893378 367.733,35.402659 367.733,36.928 C367.733,37.9853386 367.507669,38.977662 367.057,39.905 C366.606331,40.832338 365.843672,41.8679943 364.769,43.012 L360.271,47.796 L368.409,47.796 Z" id="2" fill="#FFFFFF"></path>
            <path d="M225.988,203.274 C227.132006,203.274 228.141662,203.520998 229.017,204.015 C229.892338,204.509002 230.568331,205.197996 231.045,206.082 C231.521669,206.966004 231.76,207.979994 231.76,209.124 C231.76,210.337339 231.482669,211.403329 230.928,212.322 C230.373331,213.240671 229.589005,213.951331 228.575,214.454 C227.560995,214.956669 226.36934,215.208 225,215.208 C223.855994,215.208 222.725006,215.013002 221.607,214.623 C220.488994,214.232998 219.566004,213.717337 218.838,213.076 L219.956,210.632 C221.620008,211.89734 223.318658,212.53 225.052,212.53 C226.196006,212.53 227.07133,212.244003 227.678,211.672 C228.28467,211.099997 228.588,210.285339 228.588,209.228 C228.588,208.205328 228.280336,207.395003 227.665,206.797 C227.049664,206.198997 226.213339,205.9 225.156,205.9 C224.44533,205.9 223.77367,206.034332 223.141,206.303 C222.50833,206.571668 221.940669,206.957331 221.438,207.46 L219.436,207.46 L219.436,196.67 L230.928,196.67 L230.928,199.27 L222.712,199.27 L222.712,204.21 C223.596004,203.585997 224.687994,203.274 225.988,203.274 Z" id="5" fill="#FFFFFF"></path>
            <path d="M150.988,338.774 C152.132006,338.774 153.141662,339.020998 154.017,339.515 C154.892338,340.009002 155.568331,340.697996 156.045,341.582 C156.521669,342.466004 156.76,343.479994 156.76,344.624 C156.76,345.837339 156.482669,346.903329 155.928,347.822 C155.373331,348.740671 154.589005,349.451331 153.575,349.954 C152.560995,350.456669 151.36934,350.708 150,350.708 C148.855994,350.708 147.725006,350.513002 146.607,350.123 C145.488994,349.732998 144.566004,349.217337 143.838,348.576 L144.956,346.132 C146.620008,347.39734 148.318658,348.03 150.052,348.03 C151.196006,348.03 152.07133,347.744003 152.678,347.172 C153.28467,346.599997 153.588,345.785339 153.588,344.728 C153.588,343.705328 153.280336,342.895003 152.665,342.297 C152.049664,341.698997 151.213339,341.4 150.156,341.4 C149.44533,341.4 148.77367,341.534332 148.141,341.803 C147.50833,342.071668 146.940669,342.457331 146.438,342.96 L144.436,342.96 L144.436,332.17 L155.928,332.17 L155.928,334.77 L147.712,334.77 L147.712,339.71 C148.596004,339.085997 149.687994,338.774 150.988,338.774 Z" id="5" fill="#FFFFFF"></path>
            <path d="M423.988,338.774 C425.132006,338.774 426.141662,339.020998 427.017,339.515 C427.892338,340.009002 428.568331,340.697996 429.045,341.582 C429.521669,342.466004 429.76,343.479994 429.76,344.624 C429.76,345.837339 429.482669,346.903329 428.928,347.822 C428.373331,348.740671 427.589005,349.451331 426.575,349.954 C425.560995,350.456669 424.36934,350.708 423,350.708 C421.855994,350.708 420.725006,350.513002 419.607,350.123 C418.488994,349.732998 417.566004,349.217337 416.838,348.576 L417.956,346.132 C419.620008,347.39734 421.318658,348.03 423.052,348.03 C424.196006,348.03 425.07133,347.744003 425.678,347.172 C426.28467,346.599997 426.588,345.785339 426.588,344.728 C426.588,343.705328 426.280336,342.895003 425.665,342.297 C425.049664,341.698997 424.213339,341.4 423.156,341.4 C422.44533,341.4 421.77367,341.534332 421.141,341.803 C420.50833,342.071668 419.940669,342.457331 419.438,342.96 L417.436,342.96 L417.436,332.17 L428.928,332.17 L428.928,334.77 L420.712,334.77 L420.712,339.71 C421.596004,339.085997 422.687994,338.774 423.988,338.774 Z" id="5" fill="#FFFFFF"></path>
            <polygon id="10" fill="#FFFFFF" points="490.696 213.296 494.674 213.296 494.674 216 483.364 216 483.364 213.296 487.342 213.296 487.342 201.492 484.196 203.39 482.87 200.946 488.304 197.67 490.696 197.67"></polygon>
            <path d="M503.8,197.488 C505.966678,197.488 507.621994,198.285325 508.766,199.88 C509.910006,201.474675 510.482,203.788652 510.482,206.822 C510.482,209.872682 509.910006,212.203992 508.766,213.816 C507.621994,215.428008 505.966678,216.234 503.8,216.234 C501.633323,216.234 499.978006,215.432341 498.834,213.829 C497.689994,212.225659 497.118,209.890015 497.118,206.822 C497.118,203.788652 497.689994,201.474675 498.834,199.88 C499.978006,198.285325 501.633323,197.488 503.8,197.488 Z M503.8,200.114 C502.621327,200.114 501.763336,200.646995 501.226,201.713 C500.688664,202.779005 500.42,204.481988 500.42,206.822 C500.42,209.179345 500.688664,210.899661 501.226,211.983 C501.763336,213.066339 502.621327,213.608 503.8,213.608 C504.978673,213.608 505.836664,213.066339 506.374,211.983 C506.911336,210.899661 507.18,209.179345 507.18,206.822 C507.18,204.481988 506.911336,202.779005 506.374,201.713 C505.836664,200.646995 504.978673,200.114 503.8,200.114 Z" id="Combined-Shape" fill="#FFFFFF"></path>
            <polygon id="10" fill="#FFFFFF" points="291.696 347.796 295.674 347.796 295.674 350.5 284.364 350.5 284.364 347.796 288.342 347.796 288.342 335.992 285.196 337.89 283.87 335.446 289.304 332.17 291.696 332.17"></polygon>
            <path d="M304.8,331.988 C306.966678,331.988 308.621994,332.785325 309.766,334.38 C310.910006,335.974675 311.482,338.288652 311.482,341.322 C311.482,344.372682 310.910006,346.703992 309.766,348.316 C308.621994,349.928008 306.966678,350.734 304.8,350.734 C302.633323,350.734 300.978006,349.932341 299.834,348.329 C298.689994,346.725659 298.118,344.390015 298.118,341.322 C298.118,338.288652 298.689994,335.974675 299.834,334.38 C300.978006,332.785325 302.633323,331.988 304.8,331.988 Z M304.8,334.614 C303.621327,334.614 302.763336,335.146995 302.226,336.213 C301.688664,337.279005 301.42,338.981988 301.42,341.322 C301.42,343.679345 301.688664,345.399661 302.226,346.483 C302.763336,347.566339 303.621327,348.108 304.8,348.108 C305.978673,348.108 306.836664,347.566339 307.374,346.483 C307.911336,345.399661 308.18,343.679345 308.18,341.322 C308.18,338.981988 307.911336,337.279005 307.374,336.213 C306.836664,335.146995 305.978673,334.614 304.8,334.614 Z" id="Combined-Shape" fill="#FFFFFF"></path>
            <polygon id="10" fill="#FFFFFF" points="564.696 347.796 568.674 347.796 568.674 350.5 557.364 350.5 557.364 347.796 561.342 347.796 561.342 335.992 558.196 337.89 556.87 335.446 562.304 332.17 564.696 332.17"></polygon>
            <path d="M577.8,331.988 C579.966677,331.988 581.621994,332.785325 582.766,334.38 C583.910006,335.974675 584.482,338.288652 584.482,341.322 C584.482,344.372682 583.910006,346.703992 582.766,348.316 C581.621994,349.928008 579.966677,350.734 577.8,350.734 C575.633322,350.734 573.978006,349.932341 572.834,348.329 C571.689994,346.725659 571.118,344.390015 571.118,341.322 C571.118,338.288652 571.689994,335.974675 572.834,334.38 C573.978006,332.785325 575.633322,331.988 577.8,331.988 Z M577.8,334.614 C576.621327,334.614 575.763336,335.146995 575.226,336.213 C574.688664,337.279005 574.42,338.981988 574.42,341.322 C574.42,343.679345 574.688664,345.399661 575.226,346.483 C575.763336,347.566339 576.621327,348.108 577.8,348.108 C578.978673,348.108 579.836664,347.566339 580.374,346.483 C580.911336,345.399661 581.18,343.679345 581.18,341.322 C581.18,338.981988 580.911336,337.279005 580.374,336.213 C579.836664,335.146995 578.978673,334.614 577.8,334.614 Z" id="Combined-Shape" fill="#FFFFFF"></path>
            <polygon id="Line" fill="#757F97" points="333.401424 75.3102341 331.810234 74.0985761 254.020424 176.254751 255.611614 177.466409"></polygon>
            <polygon id="Line-Copy-2" fill="#757F97" points="202.401424 242.810234 200.810234 241.598576 157.552678 298.405843 159.143868 299.617501"></polygon>
            <polygon id="Line-Copy-4" fill="#757F97" points="475.401424 243.810234 473.810234 242.598576 431.158507 298.610248 432.749697 299.821906"></polygon>
            <polygon id="Line-Copy" fill="#757F97" transform="translate(427.986161, 125.384695) scale(-1, 1) translate(-427.986161, -125.384695) " points="467.373747 75.3102341 465.782557 74.0985761 388.598576 175.459156 390.189766 176.670814"></polygon>
            <polygon id="Line-Copy-3" fill="#757F97" transform="translate(266.720035, 271.210241) scale(-1, 1) translate(-266.720035, -271.210241) " points="288.841493 243.810234 287.250303 242.598576 244.598576 298.610248 246.189766 299.821906"></polygon>
            <polygon id="Line-Copy-5" fill="#757F97" transform="translate(539.720035, 271.210241) scale(-1, 1) translate(-539.720035, -271.210241) " points="561.841493 243.810234 560.250303 242.598576 517.598576 298.610248 519.189766 299.821906"></polygon>
            <polygon id="Line-Copy-5" fill="#4C7EF3" points="605.835792 59.3289608 605.97 123.666 611.970639 123.654303 605 137.668945 597.97067 123.683649 603.97 123.671 603.835797 59.333153"></polygon>
            <polygon id="Line-Copy-6" fill="#4C7EF3" points="254.323249 31.029361 268.337891 38 254.352594 45.0293302 254.34 39.029 190.002098 39.1642033 189.997906 37.1642077 254.335 37.029"></polygon>
        </g>
        <path d="M488.612,111 L488.612,91.26 L501.828,91.26 L501.828,94.116 L492.14,94.116 L492.14,99.548 L501.268,99.548 L501.268,102.376 L492.14,102.376 L492.14,108.144 L501.828,108.144 L501.828,111 L488.612,111 Z M512.44,103.944 L518.208,111 L514.064,111 L510.424,106.436 L506.812,111 L502.668,111 L508.408,103.944 L502.976,97.308 L507.148,97.308 L510.424,101.48 L513.7,97.308 L517.872,97.308 L512.44,103.944 Z M525.572,96.972 C527.494676,96.972 528.922662,97.438662 529.856,98.372 C530.789338,99.305338 531.256,100.742657 531.256,102.684 L531.256,111 L527.924,111 L527.924,108.9 C527.606665,109.628004 527.107337,110.197331 526.426,110.608 C525.744663,111.018669 524.956004,111.224 524.06,111.224 C523.145329,111.224 522.31467,111.037335 521.568,110.664 C520.82133,110.290665 520.233335,109.777337 519.804,109.124 C519.374665,108.470663 519.16,107.742671 519.16,106.94 C519.16,105.931995 519.416664,105.13867 519.93,104.56 C520.443336,103.98133 521.278661,103.561335 522.436,103.3 C523.510672,103.057332 524.963563,102.927333 526.794712,102.91 L527.924,102.908 L527.924,102.264 C527.924,101.330662 527.723335,100.658669 527.322,100.248 C526.920665,99.8373313 526.253338,99.632 525.32,99.632 C524.591996,99.632 523.831337,99.7579987 523.038,100.01 C522.244663,100.262001 521.465337,100.611998 520.7,101.06 L519.72,98.652 C520.485337,98.1666642 521.409328,97.7653349 522.492,97.448 C523.574672,97.1306651 524.601328,96.972 525.572,96.972 Z M524.76,108.704 C525.693338,108.704 526.453997,108.391336 527.042,107.766 C527.630003,107.140664 527.924,106.333338 527.924,105.344 L527.924,104.756 L527.42,104.756 C526.169327,104.756 525.19867,104.811999 524.508,104.924 C523.81733,105.036001 523.322668,105.231999 523.024,105.512 C522.725332,105.792001 522.576,106.174664 522.576,106.66 C522.576,107.257336 522.781331,107.747331 523.192,108.13 C523.602669,108.512669 524.12533,108.704 524.76,108.704 Z M551.08,96.972 C552.629341,96.972 553.786663,97.4339954 554.552,98.358 C555.317337,99.2820046 555.7,100.69599 555.7,102.6 L555.7,111 L552.2,111 L552.2,102.74 C552.2,101.694661 552.022668,100.934002 551.668,100.458 C551.313332,99.9819976 550.744004,99.744 549.96,99.744 C549.026662,99.744 548.298669,100.06133 547.776,100.696 C547.253331,101.33067 546.992,102.217328 546.992,103.356 L546.992,111 L543.492,111 L543.492,102.74 C543.492,101.694661 543.319335,100.934002 542.974,100.458 C542.628665,99.9819976 542.054671,99.744 541.252,99.744 C540.337329,99.744 539.618669,100.06133 539.096,100.696 C538.573331,101.33067 538.312,102.217328 538.312,103.356 L538.312,111 L534.812,111 L534.812,97.308 L538.228,97.308 L538.228,99.24 C538.638669,98.4933296 539.207996,97.9286686 539.936,97.546 C540.664004,97.1633314 541.494662,96.972 542.428,96.972 C544.50001,96.972 545.871997,97.8306581 546.544,99.548 C546.973335,98.7453293 547.589329,98.1153356 548.392,97.658 C549.194671,97.2006644 550.090662,96.972 551.08,96.972 Z M567.124,96.972 C568.300006,96.972 569.349995,97.2706637 570.274,97.868 C571.198005,98.4653363 571.916664,99.3099945 572.43,100.402 C572.943336,101.494005 573.2,102.749326 573.2,104.168 C573.2,105.586674 572.943336,106.827995 572.43,107.892 C571.916664,108.956005 571.202671,109.77733 570.288,110.356 C569.373329,110.93467 568.318673,111.224 567.124,111.224 C566.153328,111.224 565.285337,111.018669 564.52,110.608 C563.754663,110.197331 563.166669,109.628004 562.756,108.9 L562.756,116.04 L559.256,116.04 L559.256,97.308 L562.7,97.308 L562.7,99.38 C563.110669,98.6146628 563.703329,98.0220021 564.478,97.602 C565.252671,97.1819979 566.134662,96.972 567.124,96.972 Z M566.2,108.508 C567.301339,108.508 568.159997,108.130004 568.776,107.374 C569.392003,106.617996 569.7,105.54934 569.7,104.168 C569.7,102.749326 569.392003,101.648004 568.776,100.864 C568.159997,100.079996 567.301339,99.688 566.2,99.688 C565.079994,99.688 564.21667,100.070663 563.61,100.836 C563.00333,101.601337 562.7,102.693326 562.7,104.112 C562.7,105.512007 563.00333,106.594663 563.61,107.36 C564.21667,108.125337 565.079994,108.508 566.2,108.508 Z M576.084,111 L576.084,91.26 L579.584,91.26 L579.584,111 L576.084,111 Z M595.208,104.784 L585.884,104.784 C585.996001,106.05334 586.378663,106.995997 587.032,107.612 C587.685337,108.228003 588.618661,108.536 589.832,108.536 C591.344008,108.536 592.725327,108.050672 593.976,107.08 L594.984,109.488 C594.34933,110.010669 593.551338,110.430665 592.59,110.748 C591.628662,111.065335 590.662672,111.224 589.692,111.224 C587.451989,111.224 585.68334,110.58934 584.386,109.32 C583.08866,108.05066 582.44,106.314678 582.44,104.112 C582.44,102.711993 582.719997,101.470672 583.28,100.388 C583.840003,99.3053279 584.628662,98.4653363 585.646,97.868 C586.663338,97.2706637 587.815994,96.972 589.104,96.972 C590.989343,96.972 592.477995,97.5786606 593.57,98.792 C594.662005,100.005339 595.208,101.675989 595.208,103.804 L595.208,104.784 Z M589.188,99.436 C588.254662,99.436 587.503336,99.7346637 586.934,100.332 C586.364664,100.929336 586.014667,101.787994 585.884,102.908 L592.212,102.908 C592.174666,101.769328 591.894669,100.906003 591.372,100.318 C590.849331,99.7299971 590.121338,99.436 589.188,99.436 Z M611.896,111.224 C610.495993,111.224 609.268672,110.93467 608.214,110.356 C607.159328,109.77733 606.34267,108.946672 605.764,107.864 C605.18533,106.781328 604.896,105.521341 604.896,104.084 C604.896,102.646659 605.18533,101.391339 605.764,100.318 C606.34267,99.2446613 607.159328,98.4186696 608.214,97.84 C609.268672,97.2613304 610.495993,96.972 611.896,96.972 C613.296007,96.972 614.523328,97.2613304 615.578,97.84 C616.632672,98.4186696 617.444664,99.2446613 618.014,100.318 C618.583336,101.391339 618.868,102.646659 618.868,104.084 C618.868,105.521341 618.583336,106.781328 618.014,107.864 C617.444664,108.946672 616.632672,109.77733 615.578,110.356 C614.523328,110.93467 613.296007,111.224 611.896,111.224 Z M611.868,108.508 C613.006672,108.508 613.874664,108.13467 614.472,107.388 C615.069336,106.64133 615.368,105.540007 615.368,104.084 C615.368,102.646659 615.069336,101.550004 614.472,100.794 C613.874664,100.037996 613.016006,99.66 611.896,99.66 C610.775994,99.66 609.91267,100.037996 609.306,100.794 C608.69933,101.550004 608.396,102.646659 608.396,104.084 C608.396,105.540007 608.694664,106.64133 609.292,107.388 C609.889336,108.13467 610.747994,108.508 611.868,108.508 Z M626.204,97.308 L629.816,97.308 L629.816,99.94 L626.204,99.94 L626.204,111 L622.704,111 L622.704,99.94 L620.072,99.94 L620.072,97.308 L622.704,97.308 C622.704,95.3479902 623.212662,93.8733383 624.23,92.884 C625.19082,91.949625 626.655289,91.4065391 628.623449,91.2547284 L630.348,91.148 L630.572,93.752 L629.256,93.808 C628.154661,93.8640003 627.370669,94.1113311 626.904,94.55 C626.437331,94.9886689 626.204,95.6933285 626.204,96.664 L626.204,97.308 Z M645.244,96.972 C647.166676,96.972 648.594662,97.438662 649.528,98.372 C650.461338,99.305338 650.928,100.742657 650.928,102.684 L650.928,111 L647.596,111 L647.596,108.9 C647.278665,109.628004 646.779337,110.197331 646.098,110.608 C645.416663,111.018669 644.628004,111.224 643.732,111.224 C642.817329,111.224 641.98667,111.037335 641.24,110.664 C640.49333,110.290665 639.905335,109.777337 639.476,109.124 C639.046665,108.470663 638.832,107.742671 638.832,106.94 C638.832,105.931995 639.088664,105.13867 639.602,104.56 C640.115336,103.98133 640.950661,103.561335 642.108,103.3 C643.182672,103.057332 644.635563,102.927333 646.466712,102.91 L647.596,102.908 L647.596,102.264 C647.596,101.330662 647.395335,100.658669 646.994,100.248 C646.592665,99.8373313 645.925338,99.632 644.992,99.632 C644.263996,99.632 643.503337,99.7579987 642.71,100.01 C641.916663,100.262001 641.137337,100.611998 640.372,101.06 L639.392,98.652 C640.157337,98.1666642 641.081328,97.7653349 642.164,97.448 C643.246672,97.1306651 644.273328,96.972 645.244,96.972 Z M644.432,108.704 C645.365338,108.704 646.125997,108.391336 646.714,107.766 C647.302003,107.140664 647.596,106.333338 647.596,105.344 L647.596,104.756 L647.092,104.756 C645.841327,104.756 644.87067,104.811999 644.18,104.924 C643.48933,105.036001 642.994668,105.231999 642.696,105.512 C642.397332,105.792001 642.248,106.174664 642.248,106.66 C642.248,107.257336 642.453331,107.747331 642.864,108.13 C643.274669,108.512669 643.79733,108.704 644.432,108.704 Z M676.044,91.26 L679.572,91.26 L679.572,111 L676.044,111 L676.044,102.432 L665.936,102.432 L665.936,111 L662.38,111 L662.38,91.26 L665.936,91.26 L665.936,99.52 L676.044,99.52 L676.044,91.26 Z M695.532,104.784 L686.208,104.784 C686.320001,106.05334 686.702663,106.995997 687.356,107.612 C688.009337,108.228003 688.942661,108.536 690.156,108.536 C691.668008,108.536 693.049327,108.050672 694.3,107.08 L695.308,109.488 C694.67333,110.010669 693.875338,110.430665 692.914,110.748 C691.952662,111.065335 690.986672,111.224 690.016,111.224 C687.775989,111.224 686.00734,110.58934 684.71,109.32 C683.41266,108.05066 682.764,106.314678 682.764,104.112 C682.764,102.711993 683.043997,101.470672 683.604,100.388 C684.164003,99.3053279 684.952662,98.4653363 685.97,97.868 C686.987338,97.2706637 688.139994,96.972 689.428,96.972 C691.313343,96.972 692.801995,97.5786606 693.894,98.792 C694.986005,100.005339 695.532,101.675989 695.532,103.804 L695.532,104.784 Z M689.512,99.436 C688.578662,99.436 687.827336,99.7346637 687.258,100.332 C686.688664,100.929336 686.338667,101.787994 686.208,102.908 L692.536,102.908 C692.498666,101.769328 692.218669,100.906003 691.696,100.318 C691.173331,99.7299971 690.445338,99.436 689.512,99.436 Z M704.268,96.972 C706.190676,96.972 707.618662,97.438662 708.552,98.372 C709.485338,99.305338 709.952,100.742657 709.952,102.684 L709.952,111 L706.62,111 L706.62,108.9 C706.302665,109.628004 705.803337,110.197331 705.122,110.608 C704.440663,111.018669 703.652004,111.224 702.756,111.224 C701.841329,111.224 701.01067,111.037335 700.264,110.664 C699.51733,110.290665 698.929335,109.777337 698.5,109.124 C698.070665,108.470663 697.856,107.742671 697.856,106.94 C697.856,105.931995 698.112664,105.13867 698.626,104.56 C699.139336,103.98133 699.974661,103.561335 701.132,103.3 C702.206672,103.057332 703.659563,102.927333 705.490712,102.91 L706.62,102.908 L706.62,102.264 C706.62,101.330662 706.419335,100.658669 706.018,100.248 C705.616665,99.8373313 704.949338,99.632 704.016,99.632 C703.287996,99.632 702.527337,99.7579987 701.734,100.01 C700.940663,100.262001 700.161337,100.611998 699.396,101.06 L698.416,98.652 C699.181337,98.1666642 700.105328,97.7653349 701.188,97.448 C702.270672,97.1306651 703.297328,96.972 704.268,96.972 Z M703.456,108.704 C704.389338,108.704 705.149997,108.391336 705.738,107.766 C706.326003,107.140664 706.62,106.333338 706.62,105.344 L706.62,104.756 L706.116,104.756 C704.865327,104.756 703.89467,104.811999 703.204,104.924 C702.51333,105.036001 702.018668,105.231999 701.72,105.512 C701.421332,105.792001 701.272,106.174664 701.272,106.66 C701.272,107.257336 701.477331,107.747331 701.888,108.13 C702.298669,108.512669 702.82133,108.704 703.456,108.704 Z" id="ExampleofaHeap" fill="#FFFFFF" fill-rule="nonzero"></path>
        <path d="M721.376,96.972 C722.552006,96.972 723.601995,97.2706637 724.526,97.868 C725.450005,98.4653363 726.168664,99.3099945 726.682,100.402 C727.195336,101.494005 727.452,102.749326 727.452,104.168 C727.452,105.586674 727.195336,106.827995 726.682,107.892 C726.168664,108.956005 725.454671,109.77733 724.54,110.356 C723.625329,110.93467 722.570673,111.224 721.376,111.224 C720.405328,111.224 719.537337,111.018669 718.772,110.608 C718.006663,110.197331 717.418669,109.628004 717.008,108.9 L717.008,116.04 L713.508,116.04 L713.508,97.308 L716.952,97.308 L716.952,99.38 C717.362669,98.6146628 717.955329,98.0220021 718.73,97.602 C719.504671,97.1819979 720.386662,96.972 721.376,96.972 Z M720.452,99.688 C719.331994,99.688 718.46867,100.070663 717.862,100.836 C717.25533,101.601337 716.952,102.693326 716.952,104.112 C716.952,105.512007 717.25533,106.594663 717.862,107.36 C718.46867,108.125337 719.331994,108.508 720.452,108.508 C721.553339,108.508 722.411997,108.130004 723.028,107.374 C723.644003,106.617996 723.952,105.54934 723.952,104.168 C723.952,102.749326 723.644003,101.648004 723.028,100.864 C722.411997,100.079996 721.553339,99.688 720.452,99.688 Z" id="Combined-Shape" fill="#FFFFFF" fill-rule="nonzero"></path>
    </g>
</svg>