<?xml version="1.0" encoding="UTF-8"?>
<svg width="1214px" height="866px" viewBox="0 0 1214 866" version="1.1" xmlns="http://www.w3.org/2000/svg" xmlns:xlink="http://www.w3.org/1999/xlink">
    <!-- Generator: Sketch 51.3 (57544) - http://www.bohemiancoding.com/sketch -->
    <title>merge sort ex 2</title>
    <desc>Created with Sketch.</desc>
    <defs></defs>
    <g id="merge-sort-ex-2" stroke="none" stroke-width="1" fill="none" fill-rule="evenodd">
        <g id="Group-11" transform="translate(289.000000, 461.000000)">
            <rect id="Rectangle-Copy-35" stroke="#FFFFFF" stroke-width="2" fill="#415C6F" fill-rule="nonzero" x="1" y="1" width="58" height="58"></rect>
            <rect id="Rectangle-Copy-36" stroke="#FFFFFF" stroke-width="2" fill="#415C6F" fill-rule="nonzero" x="59" y="1" width="58" height="58"></rect>
            <rect id="Rectangle-Copy-37" stroke="#FFFFFF" stroke-width="2" fill="#415C6F" fill-rule="nonzero" x="117" y="1" width="58" height="58"></rect>
            <rect id="Rectangle-Copy-38" stroke="#FFFFFF" stroke-width="2" fill="#415C6F" fill-rule="nonzero" x="175" y="1" width="58" height="58"></rect>
            <polygon id="7" fill="#FFFFFF" points="26.4500868 40 32.4735243 24.2851562 24.5633681 24.2851562 24.6922743 22.46875 34.8524306 22.46875 34.8524306 24.0625 28.5828993 40"></polygon>
            <path d="M81.5193143,22.46875 L83.3825956,22.46875 L83.3825956,40 L81.3083768,40 L81.3083768,24.6367188 C80.5193104,25.1523463 79.5544763,25.5937482 78.4138456,25.9609375 L78.4138456,24.0039062 C78.5388462,23.9492185 78.7927499,23.8398446 79.1755643,23.6757812 C79.5583787,23.5117179 79.8454852,23.3867192 80.0368924,23.3007812 C80.2282997,23.2148433 80.4685316,23.0937508 80.7575956,22.9375 C81.0466595,22.7812492 81.3005632,22.6250008 81.5193143,22.46875 Z M92.0175781,40.2695312 C90.9706979,40.2695312 90.0390666,40.1328139 89.2226562,39.859375 C88.4062459,39.5859361 87.8105487,39.269533 87.4355469,38.9101562 L88.0917969,37.1875 C89.1933649,38.0546918 90.5058518,38.4882812 92.0292969,38.4882812 C93.2011777,38.4882812 94.132809,38.1972685 94.8242188,37.6152344 C95.5156285,37.0332002 95.8613281,36.2187552 95.8613281,35.171875 C95.8613281,34.6015596 95.7734384,34.1035178 95.5976562,33.6777344 C95.4218741,33.251951 95.1875015,32.9082044 94.8945312,32.6464844 C94.601561,32.3847643 94.2265648,32.1738289 93.7695312,32.0136719 C93.3124977,31.8535148 92.8437524,31.7402347 92.3632812,31.6738281 C91.8828101,31.6074215 91.326175,31.5664063 90.6933594,31.5507812 C90.615234,31.5507812 90.4980477,31.5488281 90.3417969,31.5449219 C90.1855461,31.5410156 90.0683598,31.5390625 89.9902344,31.5390625 L89.9902344,29.7929688 L90.5761719,29.7929688 C91.1230496,29.7851562 91.6054667,29.7558596 92.0234375,29.7050781 C92.4414083,29.6542966 92.8593729,29.5625007 93.2773438,29.4296875 C93.6953146,29.2968743 94.0410143,29.1210948 94.3144531,28.9023438 C94.587892,28.6835927 94.810546,28.3906268 94.9824219,28.0234375 C95.1542977,27.6562482 95.2402344,27.2226588 95.2402344,26.7226562 C95.2402344,24.8476469 94.1660264,23.9101562 92.0175781,23.9101562 C91.2441368,23.9101562 90.5175815,24.0234364 89.8378906,24.25 C89.1581997,24.4765636 88.5761743,24.7812481 88.0917969,25.1640625 L87.4355469,23.453125 C88.5996152,22.5703081 90.2753797,22.1289062 92.4628906,22.1289062 C93.3457075,22.1289062 94.1621056,22.291014 94.9121094,22.6152344 C95.6621131,22.9394547 96.2792945,23.4355435 96.7636719,24.1035156 C97.2480493,24.7714877 97.4902344,25.554683 97.4902344,26.453125 C97.4902344,27.5468805 97.2207058,28.445309 96.6816406,29.1484375 C96.1425754,29.851566 95.3847705,30.3554672 94.4082031,30.6601562 C95.5019586,30.8945324 96.3593719,31.4062461 96.9804688,32.1953125 C97.6015656,32.9843789 97.9121094,33.9843689 97.9121094,35.1953125 C97.9121094,36.7343827 97.3613336,37.9648391 96.2597656,38.8867188 C95.1581976,39.8085984 93.7441493,40.2695312 92.0175781,40.2695312 Z" id="13" fill="#FFFFFF"></path>
            <path d="M136.874783,32.9921875 C135.882591,32.9921875 134.97049,32.7753928 134.138455,32.3417969 C133.30642,31.908201 132.636504,31.2812541 132.128689,30.4609375 C131.620874,29.6406209 131.366971,28.7070365 131.366971,27.6601562 C131.366971,26.0663983 131.91384,24.746099 133.007596,23.6992188 C134.101351,22.6523385 135.531024,22.1289062 137.296658,22.1289062 C138.210725,22.1289062 139.040795,22.2753892 139.786892,22.5683594 C140.53299,22.8613296 141.146265,23.2636693 141.626736,23.7753906 C142.107207,24.2871119 142.478297,24.8847622 142.740017,25.5683594 C143.001738,26.2519565 143.132596,26.9921835 143.132596,27.7890625 C143.132596,28.9062556 142.941191,29.9179642 142.558377,30.8242188 C142.175562,31.7304733 141.515413,32.8203061 140.577908,34.09375 C140.241969,34.5390647 139.681428,35.2539013 138.896267,36.2382812 C138.111107,37.2226612 137.409942,38.0937462 136.792752,38.8515625 L135.866971,40 L133.288846,40 L139.511502,32.2890625 C138.628685,32.7578148 137.749787,32.9921875 136.874783,32.9921875 Z M140.917752,27.5664062 C140.917752,26.4960884 140.61502,25.619144 140.009549,24.9355469 C139.404077,24.2519497 138.523226,23.9101562 137.366971,23.9101562 C136.202902,23.9101562 135.281036,24.2675746 134.601346,24.9824219 C133.921655,25.6972692 133.581814,26.5781198 133.581814,27.625 C133.581814,28.7187555 133.909936,29.5937467 134.566189,30.25 C135.222443,30.9062533 136.13259,31.234375 137.296658,31.234375 C138.531039,31.234375 139.44314,30.8945346 140.032986,30.2148438 C140.622833,29.5351529 140.917752,28.6523492 140.917752,27.5664062 Z M151.861328,40.2695312 C150.798823,40.2695312 149.839848,40.0917987 148.984375,39.7363281 C148.128902,39.3808576 147.43555,38.8359412 146.904297,38.1015625 C146.373044,37.3671838 146.107422,36.4960988 146.107422,35.4882812 C146.107422,34.3710882 146.427731,33.3984416 147.068359,32.5703125 C147.708988,31.7421834 148.60351,31.1406269 149.751953,30.765625 C147.564442,29.9921836 146.470703,28.5859477 146.470703,26.546875 C146.470703,25.1640556 146.970698,24.0820352 147.970703,23.3007812 C148.970708,22.5195273 150.26757,22.1289062 151.861328,22.1289062 C153.447274,22.1289062 154.732417,22.5195273 155.716797,23.3007812 C156.701177,24.0820352 157.193359,25.1640556 157.193359,26.546875 C157.193359,27.5781302 156.927737,28.445309 156.396484,29.1484375 C155.865232,29.851566 155.123052,30.3906231 154.169922,30.765625 C155.224615,31.1406269 156.052731,31.7421834 156.654297,32.5703125 C157.255862,33.3984416 157.556641,34.3710882 157.556641,35.4882812 C157.556641,36.9882888 157.01563,38.160152 155.933594,39.0039062 C154.851557,39.8476605 153.494149,40.2695312 151.861328,40.2695312 Z M151.861328,31.7617188 C150.744135,32.0195325 149.849613,32.4511688 149.177734,33.0566406 C148.505856,33.6621124 148.169922,34.4257766 148.169922,35.3476562 C148.169922,36.3085986 148.517575,37.0722628 149.212891,37.6386719 C149.908207,38.205081 150.79101,38.4882812 151.861328,38.4882812 C152.931646,38.4882812 153.804684,38.205081 154.480469,37.6386719 C155.156253,37.0722628 155.494141,36.3085986 155.494141,35.3476562 C155.494141,34.4179641 155.166019,33.6503937 154.509766,33.0449219 C153.853512,32.4394501 152.970709,32.01172 151.861328,31.7617188 Z M151.861328,23.9101562 C150.939449,23.9101562 150.156253,24.1406227 149.511719,24.6015625 C148.867184,25.0625023 148.544922,25.6953085 148.544922,26.5 C148.544922,28.3437592 149.65038,29.5117163 151.861328,30.0039062 C154.041027,29.5117163 155.130859,28.3437592 155.130859,26.5 C155.130859,25.6953085 154.814456,25.0625023 154.181641,24.6015625 C153.548825,24.1406227 152.775395,23.9101562 151.861328,23.9101562 Z" id="98" fill="#FFFFFF"></path>
            <path d="M184.192057,40 L183.922526,38.078125 L189.98112,31.3515625 C190.387372,30.8984352 190.779946,30.3125036 191.158854,29.59375 C191.537762,28.8749964 191.81315,28.2656275 191.985026,27.765625 L192.254557,27.0273438 C192.254557,26.0585889 191.985029,25.3066433 191.445964,24.7714844 C190.906898,24.2363254 190.141281,23.96875 189.149089,23.96875 C187.49283,23.96875 186.188156,24.4492139 185.235026,25.4101562 L184.555339,23.6523438 C185.633469,22.6367137 187.211578,22.1289062 189.289714,22.1289062 C190.883472,22.1289062 192.15299,22.5605426 193.098307,23.4238281 C194.043625,24.2871137 194.516276,25.441399 194.516276,26.8867188 C194.485026,26.9960943 194.438151,27.1425772 194.375651,27.3261719 C194.313151,27.5097665 194.178387,27.8671848 193.971354,28.3984375 C193.764322,28.9296902 193.547527,29.4335914 193.320964,29.9101562 C193.0944,30.3867211 192.807294,30.9101534 192.459636,31.4804688 C192.111978,32.0507841 191.758465,32.5273418 191.399089,32.9101562 L186.453776,38.1953125 L194.57487,38.1953125 L194.445964,40 L184.192057,40 Z M199.893446,40 L205.916884,24.2851562 L198.006727,24.2851562 L198.135634,22.46875 L208.29579,22.46875 L208.29579,24.0625 L202.026259,40 L199.893446,40 Z M223.200304,35.6523438 L221.208116,35.6523438 L221.208116,40 L219.239366,40 L219.239366,35.6523438 L211.317491,35.6523438 L211.317491,33.859375 L219.01671,22.46875 L221.208116,22.46875 L221.208116,33.953125 L223.364366,33.953125 L223.200304,35.6523438 Z M219.239366,25.1289062 L213.379991,33.953125 L219.239366,33.953125 L219.239366,25.1289062 Z" id="274" fill="#FFFFFF"></path>
        </g>
        <g id="Group-10" transform="translate(244.000000, 345.000000)">
            <rect id="Rectangle-Copy-28" stroke="#FFFFFF" stroke-width="2" fill="#415C6F" fill-rule="nonzero" x="1" y="1" width="58" height="58"></rect>
            <rect id="Rectangle-Copy-29" stroke="#FFFFFF" stroke-width="2" fill="#415C6F" fill-rule="nonzero" x="59" y="1" width="58" height="58"></rect>
            <rect id="Rectangle-Copy-30" stroke="#FFFFFF" stroke-width="2" fill="#415C6F" fill-rule="nonzero" x="207" y="1" width="58" height="58"></rect>
            <rect id="Rectangle-Copy-31" stroke="#FFFFFF" stroke-width="2" fill="#415C6F" fill-rule="nonzero" x="265" y="1" width="58" height="58"></rect>
            <path d="M22.5193143,22.46875 L24.3825956,22.46875 L24.3825956,40 L22.3083768,40 L22.3083768,24.6367188 C21.5193104,25.1523463 20.5544763,25.5937482 19.4138456,25.9609375 L19.4138456,24.0039062 C19.5388462,23.9492185 19.7927499,23.8398446 20.1755643,23.6757812 C20.5583787,23.5117179 20.8454852,23.3867192 21.0368924,23.3007812 C21.2282997,23.2148433 21.4685316,23.0937508 21.7575956,22.9375 C22.0466595,22.7812492 22.3005632,22.6250008 22.5193143,22.46875 Z M33.0175781,40.2695312 C31.9706979,40.2695312 31.0390666,40.1328139 30.2226562,39.859375 C29.4062459,39.5859361 28.8105487,39.269533 28.4355469,38.9101562 L29.0917969,37.1875 C30.1933649,38.0546918 31.5058518,38.4882812 33.0292969,38.4882812 C34.2011777,38.4882812 35.132809,38.1972685 35.8242188,37.6152344 C36.5156285,37.0332002 36.8613281,36.2187552 36.8613281,35.171875 C36.8613281,34.6015596 36.7734384,34.1035178 36.5976562,33.6777344 C36.4218741,33.251951 36.1875015,32.9082044 35.8945312,32.6464844 C35.601561,32.3847643 35.2265648,32.1738289 34.7695312,32.0136719 C34.3124977,31.8535148 33.8437524,31.7402347 33.3632812,31.6738281 C32.8828101,31.6074215 32.326175,31.5664063 31.6933594,31.5507812 C31.615234,31.5507812 31.4980477,31.5488281 31.3417969,31.5449219 C31.1855461,31.5410156 31.0683598,31.5390625 30.9902344,31.5390625 L30.9902344,29.7929688 L31.5761719,29.7929688 C32.1230496,29.7851562 32.6054667,29.7558596 33.0234375,29.7050781 C33.4414083,29.6542966 33.8593729,29.5625007 34.2773438,29.4296875 C34.6953146,29.2968743 35.0410143,29.1210948 35.3144531,28.9023438 C35.587892,28.6835927 35.810546,28.3906268 35.9824219,28.0234375 C36.1542977,27.6562482 36.2402344,27.2226588 36.2402344,26.7226562 C36.2402344,24.8476469 35.1660264,23.9101562 33.0175781,23.9101562 C32.2441368,23.9101562 31.5175815,24.0234364 30.8378906,24.25 C30.1581997,24.4765636 29.5761743,24.7812481 29.0917969,25.1640625 L28.4355469,23.453125 C29.5996152,22.5703081 31.2753797,22.1289062 33.4628906,22.1289062 C34.3457075,22.1289062 35.1621056,22.291014 35.9121094,22.6152344 C36.6621131,22.9394547 37.2792945,23.4355435 37.7636719,24.1035156 C38.2480493,24.7714877 38.4902344,25.554683 38.4902344,26.453125 C38.4902344,27.5468805 38.2207058,28.445309 37.6816406,29.1484375 C37.1425754,29.851566 36.3847705,30.3554672 35.4082031,30.6601562 C36.5019586,30.8945324 37.3593719,31.4062461 37.9804688,32.1953125 C38.6015656,32.9843789 38.9121094,33.9843689 38.9121094,35.1953125 C38.9121094,36.7343827 38.3613336,37.9648391 37.2597656,38.8867188 C36.1581976,39.8085984 34.7441493,40.2695312 33.0175781,40.2695312 Z" id="13" fill="#FFFFFF"></path>
            <path d="M80.8747831,32.9921875 C79.8825906,32.9921875 78.9704904,32.7753928 78.1384549,32.3417969 C77.3064195,31.908201 76.6365044,31.2812541 76.1286893,30.4609375 C75.6208743,29.6406209 75.3669706,28.7070365 75.3669706,27.6601562 C75.3669706,26.0663983 75.9138401,24.746099 77.0075956,23.6992188 C78.101351,22.6523385 79.5310242,22.1289062 81.2966581,22.1289062 C82.2107251,22.1289062 83.040795,22.2753892 83.7868924,22.5683594 C84.5329899,22.8613296 85.146265,23.2636693 85.6267362,23.7753906 C86.1072074,24.2871119 86.4782974,24.8847622 86.7400174,25.5683594 C87.0017375,26.2519565 87.1325956,26.9921835 87.1325956,27.7890625 C87.1325956,28.9062556 86.9411912,29.9179642 86.5583768,30.8242188 C86.1755624,31.7304733 85.5154128,32.8203061 84.5779081,34.09375 C84.2419689,34.5390647 83.6814276,35.2539013 82.8962674,36.2382812 C82.1111073,37.2226612 81.4099424,38.0937462 80.7927518,38.8515625 L79.8669706,40 L77.2888456,40 L83.5115018,32.2890625 C82.6286849,32.7578148 81.7497874,32.9921875 80.8747831,32.9921875 Z M84.9177518,27.5664062 C84.9177518,26.4960884 84.6150205,25.619144 84.0095487,24.9355469 C83.4040769,24.2519497 82.5232264,23.9101562 81.3669706,23.9101562 C80.2029023,23.9101562 79.2810365,24.2675746 78.6013456,24.9824219 C77.9216547,25.6972692 77.5818143,26.5781198 77.5818143,27.625 C77.5818143,28.7187555 77.909936,29.5937467 78.5661893,30.25 C79.2224426,30.9062533 80.1325898,31.234375 81.2966581,31.234375 C82.5310392,31.234375 83.4431395,30.8945346 84.0329862,30.2148438 C84.6228329,29.5351529 84.9177518,28.6523492 84.9177518,27.5664062 Z M95.8613281,40.2695312 C94.7988228,40.2695312 93.839848,40.0917987 92.984375,39.7363281 C92.128902,39.3808576 91.4355495,38.8359412 90.9042969,38.1015625 C90.3730442,37.3671838 90.1074219,36.4960988 90.1074219,35.4882812 C90.1074219,34.3710882 90.4277312,33.3984416 91.0683594,32.5703125 C91.7089876,31.7421834 92.6035099,31.1406269 93.7519531,30.765625 C91.5644422,29.9921836 90.4707031,28.5859477 90.4707031,26.546875 C90.4707031,25.1640556 90.9706981,24.0820352 91.9707031,23.3007812 C92.9707081,22.5195273 94.2675702,22.1289062 95.8613281,22.1289062 C97.4472736,22.1289062 98.732417,22.5195273 99.7167969,23.3007812 C100.701177,24.0820352 101.193359,25.1640556 101.193359,26.546875 C101.193359,27.5781302 100.927737,28.445309 100.396484,29.1484375 C99.8652317,29.851566 99.1230516,30.3906231 98.1699219,30.765625 C99.2246146,31.1406269 100.052731,31.7421834 100.654297,32.5703125 C101.255862,33.3984416 101.556641,34.3710882 101.556641,35.4882812 C101.556641,36.9882888 101.01563,38.160152 99.9335938,39.0039062 C98.8515571,39.8476605 97.4941488,40.2695312 95.8613281,40.2695312 Z M95.8613281,31.7617188 C94.744135,32.0195325 93.8496127,32.4511688 93.1777344,33.0566406 C92.505856,33.6621124 92.1699219,34.4257766 92.1699219,35.3476562 C92.1699219,36.3085986 92.5175746,37.0722628 93.2128906,37.6386719 C93.9082066,38.205081 94.7910103,38.4882812 95.8613281,38.4882812 C96.931646,38.4882812 97.8046841,38.205081 98.4804688,37.6386719 C99.1562534,37.0722628 99.4941406,36.3085986 99.4941406,35.3476562 C99.4941406,34.4179641 99.1660189,33.6503937 98.5097656,33.0449219 C97.8535123,32.4394501 96.9707087,32.01172 95.8613281,31.7617188 Z M95.8613281,23.9101562 C94.9394485,23.9101562 94.1562532,24.1406227 93.5117188,24.6015625 C92.8671843,25.0625023 92.5449219,25.6953085 92.5449219,26.5 C92.5449219,28.3437592 93.6503796,29.5117163 95.8613281,30.0039062 C98.0410265,29.5117163 99.1308594,28.3437592 99.1308594,26.5 C99.1308594,25.6953085 98.8144563,25.0625023 98.1816406,24.6015625 C97.548825,24.1406227 96.7753952,23.9101562 95.8613281,23.9101562 Z" id="98" fill="#FFFFFF"></path>
            <polygon id="7" fill="#FFFFFF" points="231.450087 40 237.473524 24.2851562 229.563368 24.2851562 229.692274 22.46875 239.852431 22.46875 239.852431 24.0625 233.582899 40"></polygon>
            <path d="M275.192057,40 L274.922526,38.078125 L280.98112,31.3515625 C281.387372,30.8984352 281.779946,30.3125036 282.158854,29.59375 C282.537762,28.8749964 282.81315,28.2656275 282.985026,27.765625 L283.254557,27.0273438 C283.254557,26.0585889 282.985029,25.3066433 282.445964,24.7714844 C281.906898,24.2363254 281.141281,23.96875 280.149089,23.96875 C278.49283,23.96875 277.188156,24.4492139 276.235026,25.4101562 L275.555339,23.6523438 C276.633469,22.6367137 278.211578,22.1289062 280.289714,22.1289062 C281.883472,22.1289062 283.15299,22.5605426 284.098307,23.4238281 C285.043625,24.2871137 285.516276,25.441399 285.516276,26.8867188 C285.485026,26.9960943 285.438151,27.1425772 285.375651,27.3261719 C285.313151,27.5097665 285.178387,27.8671848 284.971354,28.3984375 C284.764322,28.9296902 284.547527,29.4335914 284.320964,29.9101562 C284.0944,30.3867211 283.807294,30.9101534 283.459636,31.4804688 C283.111978,32.0507841 282.758465,32.5273418 282.399089,32.9101562 L277.453776,38.1953125 L285.57487,38.1953125 L285.445964,40 L275.192057,40 Z M290.893446,40 L296.916884,24.2851562 L289.006727,24.2851562 L289.135634,22.46875 L299.29579,22.46875 L299.29579,24.0625 L293.026259,40 L290.893446,40 Z M314.200304,35.6523438 L312.208116,35.6523438 L312.208116,40 L310.239366,40 L310.239366,35.6523438 L302.317491,35.6523438 L302.317491,33.859375 L310.01671,22.46875 L312.208116,22.46875 L312.208116,33.953125 L314.364366,33.953125 L314.200304,35.6523438 Z M310.239366,25.1289062 L304.379991,33.953125 L310.239366,33.953125 L310.239366,25.1289062 Z" id="274" fill="#FFFFFF"></path>
        </g>
        <g id="Group-9" transform="translate(214.000000, 229.000000)">
            <rect id="Rectangle-Copy-21" stroke="#FFFFFF" stroke-width="2" fill="#415C6F" fill-rule="nonzero" x="1" y="1" width="58" height="58"></rect>
            <rect id="Rectangle-Copy-22" stroke="#FFFFFF" stroke-width="2" fill="#415C6F" fill-rule="nonzero" x="109" y="1" width="58" height="58"></rect>
            <rect id="Rectangle-Copy-23" stroke="#FFFFFF" stroke-width="2" fill="#415C6F" fill-rule="nonzero" x="217" y="1" width="58" height="58"></rect>
            <rect id="Rectangle-Copy-24" stroke="#FFFFFF" stroke-width="2" fill="#415C6F" fill-rule="nonzero" x="325" y="1" width="58" height="58"></rect>
            <path d="M21.8747831,32.9921875 C20.8825906,32.9921875 19.9704904,32.7753928 19.1384549,32.3417969 C18.3064195,31.908201 17.6365044,31.2812541 17.1286893,30.4609375 C16.6208743,29.6406209 16.3669706,28.7070365 16.3669706,27.6601562 C16.3669706,26.0663983 16.9138401,24.746099 18.0075956,23.6992188 C19.101351,22.6523385 20.5310242,22.1289062 22.2966581,22.1289062 C23.2107251,22.1289062 24.040795,22.2753892 24.7868924,22.5683594 C25.5329899,22.8613296 26.146265,23.2636693 26.6267362,23.7753906 C27.1072074,24.2871119 27.4782974,24.8847622 27.7400174,25.5683594 C28.0017375,26.2519565 28.1325956,26.9921835 28.1325956,27.7890625 C28.1325956,28.9062556 27.9411912,29.9179642 27.5583768,30.8242188 C27.1755624,31.7304733 26.5154128,32.8203061 25.5779081,34.09375 C25.2419689,34.5390647 24.6814276,35.2539013 23.8962674,36.2382812 C23.1111073,37.2226612 22.4099424,38.0937462 21.7927518,38.8515625 L20.8669706,40 L18.2888456,40 L24.5115018,32.2890625 C23.6286849,32.7578148 22.7497874,32.9921875 21.8747831,32.9921875 Z M25.9177518,27.5664062 C25.9177518,26.4960884 25.6150205,25.619144 25.0095487,24.9355469 C24.4040769,24.2519497 23.5232264,23.9101562 22.3669706,23.9101562 C21.2029023,23.9101562 20.2810365,24.2675746 19.6013456,24.9824219 C18.9216547,25.6972692 18.5818143,26.5781198 18.5818143,27.625 C18.5818143,28.7187555 18.909936,29.5937467 19.5661893,30.25 C20.2224426,30.9062533 21.1325898,31.234375 22.2966581,31.234375 C23.5310392,31.234375 24.4431395,30.8945346 25.0329862,30.2148438 C25.6228329,29.5351529 25.9177518,28.6523492 25.9177518,27.5664062 Z M36.8613281,40.2695312 C35.7988228,40.2695312 34.839848,40.0917987 33.984375,39.7363281 C33.128902,39.3808576 32.4355495,38.8359412 31.9042969,38.1015625 C31.3730442,37.3671838 31.1074219,36.4960988 31.1074219,35.4882812 C31.1074219,34.3710882 31.4277312,33.3984416 32.0683594,32.5703125 C32.7089876,31.7421834 33.6035099,31.1406269 34.7519531,30.765625 C32.5644422,29.9921836 31.4707031,28.5859477 31.4707031,26.546875 C31.4707031,25.1640556 31.9706981,24.0820352 32.9707031,23.3007812 C33.9707081,22.5195273 35.2675702,22.1289062 36.8613281,22.1289062 C38.4472736,22.1289062 39.732417,22.5195273 40.7167969,23.3007812 C41.7011768,24.0820352 42.1933594,25.1640556 42.1933594,26.546875 C42.1933594,27.5781302 41.927737,28.445309 41.3964844,29.1484375 C40.8652317,29.851566 40.1230516,30.3906231 39.1699219,30.765625 C40.2246146,31.1406269 41.0527314,31.7421834 41.6542969,32.5703125 C42.2558624,33.3984416 42.5566406,34.3710882 42.5566406,35.4882812 C42.5566406,36.9882888 42.0156304,38.160152 40.9335938,39.0039062 C39.8515571,39.8476605 38.4941488,40.2695312 36.8613281,40.2695312 Z M36.8613281,31.7617188 C35.744135,32.0195325 34.8496127,32.4511688 34.1777344,33.0566406 C33.505856,33.6621124 33.1699219,34.4257766 33.1699219,35.3476562 C33.1699219,36.3085986 33.5175746,37.0722628 34.2128906,37.6386719 C34.9082066,38.205081 35.7910103,38.4882812 36.8613281,38.4882812 C37.931646,38.4882812 38.8046841,38.205081 39.4804688,37.6386719 C40.1562534,37.0722628 40.4941406,36.3085986 40.4941406,35.3476562 C40.4941406,34.4179641 40.1660189,33.6503937 39.5097656,33.0449219 C38.8535123,32.4394501 37.9707087,32.01172 36.8613281,31.7617188 Z M36.8613281,23.9101562 C35.9394485,23.9101562 35.1562532,24.1406227 34.5117188,24.6015625 C33.8671843,25.0625023 33.5449219,25.6953085 33.5449219,26.5 C33.5449219,28.3437592 34.6503796,29.5117163 36.8613281,30.0039062 C39.0410265,29.5117163 40.1308594,28.3437592 40.1308594,26.5 C40.1308594,25.6953085 39.8144563,25.0625023 39.1816406,24.6015625 C38.548825,24.1406227 37.7753952,23.9101562 36.8613281,23.9101562 Z" id="98-copy-2" fill="#FFFFFF"></path>
            <path d="M131.519314,22.46875 L133.382596,22.46875 L133.382596,40 L131.308377,40 L131.308377,24.6367188 C130.51931,25.1523463 129.554476,25.5937482 128.413846,25.9609375 L128.413846,24.0039062 C128.538846,23.9492185 128.79275,23.8398446 129.175564,23.6757812 C129.558379,23.5117179 129.845485,23.3867192 130.036892,23.3007812 C130.2283,23.2148433 130.468532,23.0937508 130.757596,22.9375 C131.04666,22.7812492 131.300563,22.6250008 131.519314,22.46875 Z M142.017578,40.2695312 C140.970698,40.2695312 140.039067,40.1328139 139.222656,39.859375 C138.406246,39.5859361 137.810549,39.269533 137.435547,38.9101562 L138.091797,37.1875 C139.193365,38.0546918 140.505852,38.4882812 142.029297,38.4882812 C143.201178,38.4882812 144.132809,38.1972685 144.824219,37.6152344 C145.515628,37.0332002 145.861328,36.2187552 145.861328,35.171875 C145.861328,34.6015596 145.773438,34.1035178 145.597656,33.6777344 C145.421874,33.251951 145.187501,32.9082044 144.894531,32.6464844 C144.601561,32.3847643 144.226565,32.1738289 143.769531,32.0136719 C143.312498,31.8535148 142.843752,31.7402347 142.363281,31.6738281 C141.88281,31.6074215 141.326175,31.5664063 140.693359,31.5507812 C140.615234,31.5507812 140.498048,31.5488281 140.341797,31.5449219 C140.185546,31.5410156 140.06836,31.5390625 139.990234,31.5390625 L139.990234,29.7929688 L140.576172,29.7929688 C141.12305,29.7851562 141.605467,29.7558596 142.023438,29.7050781 C142.441408,29.6542966 142.859373,29.5625007 143.277344,29.4296875 C143.695315,29.2968743 144.041014,29.1210948 144.314453,28.9023438 C144.587892,28.6835927 144.810546,28.3906268 144.982422,28.0234375 C145.154298,27.6562482 145.240234,27.2226588 145.240234,26.7226562 C145.240234,24.8476469 144.166026,23.9101562 142.017578,23.9101562 C141.244137,23.9101562 140.517582,24.0234364 139.837891,24.25 C139.1582,24.4765636 138.576174,24.7812481 138.091797,25.1640625 L137.435547,23.453125 C138.599615,22.5703081 140.27538,22.1289062 142.462891,22.1289062 C143.345708,22.1289062 144.162106,22.291014 144.912109,22.6152344 C145.662113,22.9394547 146.279294,23.4355435 146.763672,24.1035156 C147.248049,24.7714877 147.490234,25.554683 147.490234,26.453125 C147.490234,27.5468805 147.220706,28.445309 146.681641,29.1484375 C146.142575,29.851566 145.384771,30.3554672 144.408203,30.6601562 C145.501959,30.8945324 146.359372,31.4062461 146.980469,32.1953125 C147.601566,32.9843789 147.912109,33.9843689 147.912109,35.1953125 C147.912109,36.7343827 147.361334,37.9648391 146.259766,38.8867188 C145.158198,39.8085984 143.744149,40.2695312 142.017578,40.2695312 Z" id="13-copy-2" fill="#FFFFFF"></path>
            <path d="M227.192057,40 L226.922526,38.078125 L232.98112,31.3515625 C233.387372,30.8984352 233.779946,30.3125036 234.158854,29.59375 C234.537762,28.8749964 234.81315,28.2656275 234.985026,27.765625 L235.254557,27.0273438 C235.254557,26.0585889 234.985029,25.3066433 234.445964,24.7714844 C233.906898,24.2363254 233.141281,23.96875 232.149089,23.96875 C230.49283,23.96875 229.188156,24.4492139 228.235026,25.4101562 L227.555339,23.6523438 C228.633469,22.6367137 230.211578,22.1289062 232.289714,22.1289062 C233.883472,22.1289062 235.15299,22.5605426 236.098307,23.4238281 C237.043625,24.2871137 237.516276,25.441399 237.516276,26.8867188 C237.485026,26.9960943 237.438151,27.1425772 237.375651,27.3261719 C237.313151,27.5097665 237.178387,27.8671848 236.971354,28.3984375 C236.764322,28.9296902 236.547527,29.4335914 236.320964,29.9101562 C236.0944,30.3867211 235.807294,30.9101534 235.459636,31.4804688 C235.111978,32.0507841 234.758465,32.5273418 234.399089,32.9101562 L229.453776,38.1953125 L237.57487,38.1953125 L237.445964,40 L227.192057,40 Z M242.893446,40 L248.916884,24.2851562 L241.006727,24.2851562 L241.135634,22.46875 L251.29579,22.46875 L251.29579,24.0625 L245.026259,40 L242.893446,40 Z M266.200304,35.6523438 L264.208116,35.6523438 L264.208116,40 L262.239366,40 L262.239366,35.6523438 L254.317491,35.6523438 L254.317491,33.859375 L262.01671,22.46875 L264.208116,22.46875 L264.208116,33.953125 L266.364366,33.953125 L266.200304,35.6523438 Z M262.239366,25.1289062 L256.379991,33.953125 L262.239366,33.953125 L262.239366,25.1289062 Z" id="274-copy-2" fill="#FFFFFF"></path>
            <polygon id="7-copy-2" fill="#FFFFFF" points="350.450087 40 356.473524 24.2851562 348.563368 24.2851562 348.692274 22.46875 358.852431 22.46875 358.852431 24.0625 352.582899 40"></polygon>
        </g>
        <g id="Group-4" transform="translate(752.000000, 461.000000)">
            <rect id="Rectangle-Copy-39" stroke="#FFFFFF" stroke-width="2" fill="#415C6F" fill-rule="nonzero" x="1" y="1" width="58" height="58"></rect>
            <rect id="Rectangle-Copy-40" stroke="#FFFFFF" stroke-width="2" fill="#415C6F" fill-rule="nonzero" x="59" y="1" width="58" height="58"></rect>
            <rect id="Rectangle-Copy-41" stroke="#FFFFFF" stroke-width="2" fill="#415C6F" fill-rule="nonzero" x="117" y="1" width="58" height="58"></rect>
            <path d="M34.4246962,22.46875 L34.2606337,24.390625 L27.1004775,24.390625 C27.0223521,26.6640739 26.9637589,28.5038992 26.9246962,29.9101562 C27.8075131,29.3476534 28.7645348,29.0664062 29.79579,29.0664062 C30.6629818,29.0664062 31.4383647,29.2050767 32.1219618,29.4824219 C32.805559,29.759767 33.3641472,30.1406226 33.7977431,30.625 C34.231339,31.1093774 34.5614138,31.6738249 34.7879775,32.3183594 C35.0145411,32.9628938 35.1278212,33.6601525 35.1278212,34.4101562 C35.1278212,36.1836026 34.5594675,37.6035103 33.4227431,38.6699219 C32.2860187,39.7363335 30.7411122,40.2695312 28.7879775,40.2695312 C26.8270302,40.2695312 25.2567334,39.7343804 24.07704,38.6640625 L24.8387587,37.0117188 C25.9950145,37.9179733 27.3348449,38.3710938 28.85829,38.3710938 C30.1395464,38.3710938 31.151255,38.0078161 31.8934462,37.28125 C32.6356374,36.5546839 33.0067275,35.6054746 33.0067275,34.4335938 C33.0067275,33.3867135 32.6942306,32.5371126 32.0692275,31.8847656 C31.4442243,31.2324186 30.5536083,30.90625 29.3973525,30.90625 C28.2410967,30.90625 27.3114185,31.2929649 26.60829,32.0664062 L24.9793837,31.84375 L25.436415,22.46875 L34.4246962,22.46875 Z" id="5" fill="#FFFFFF"></path>
            <path d="M80.4431424,22.46875 L82.3064237,22.46875 L82.3064237,40 L80.2322049,40 L80.2322049,24.6367188 C79.4431385,25.1523463 78.4783044,25.5937482 77.3376737,25.9609375 L77.3376737,24.0039062 C77.4626743,23.9492185 77.716578,23.8398446 78.0993924,23.6757812 C78.4822069,23.5117179 78.7693134,23.3867192 78.9607206,23.3007812 C79.1521278,23.2148433 79.3923598,23.0937508 79.6814237,22.9375 C79.9704876,22.7812492 80.2243914,22.6250008 80.4431424,22.46875 Z M86.453125,40 L86.1835938,38.078125 L92.2421875,31.3515625 C92.6484395,30.8984352 93.0410137,30.3125036 93.4199219,29.59375 C93.79883,28.8749964 94.0742179,28.2656275 94.2460938,27.765625 L94.515625,27.0273438 C94.515625,26.0585889 94.2460964,25.3066433 93.7070312,24.7714844 C93.1679661,24.2363254 92.4023487,23.96875 91.4101562,23.96875 C89.753898,23.96875 88.4492235,24.4492139 87.4960938,25.4101562 L86.8164062,23.6523438 C87.8945366,22.6367137 89.4726459,22.1289062 91.5507812,22.1289062 C93.1445392,22.1289062 94.4140578,22.5605426 95.359375,23.4238281 C96.3046922,24.2871137 96.7773438,25.441399 96.7773438,26.8867188 C96.7460936,26.9960943 96.6992191,27.1425772 96.6367188,27.3261719 C96.5742184,27.5097665 96.4394542,27.8671848 96.2324219,28.3984375 C96.0253896,28.9296902 95.8085949,29.4335914 95.5820312,29.9101562 C95.3554676,30.3867211 95.0683611,30.9101534 94.7207031,31.4804688 C94.3730451,32.0507841 94.019533,32.5273418 93.6601562,32.9101562 L88.7148438,38.1953125 L96.8359375,38.1953125 L96.7070312,40 L86.453125,40 Z" id="12" fill="#FFFFFF"></path>
            <path d="M134.76237,32.9921875 C133.770177,32.9921875 132.858077,32.7753928 132.026042,32.3417969 C131.194006,31.908201 130.524091,31.2812541 130.016276,30.4609375 C129.508461,29.6406209 129.254557,28.7070365 129.254557,27.6601562 C129.254557,26.0663983 129.801427,24.746099 130.895182,23.6992188 C131.988938,22.6523385 133.418611,22.1289062 135.184245,22.1289062 C136.098312,22.1289062 136.928382,22.2753892 137.674479,22.5683594 C138.420577,22.8613296 139.033852,23.2636693 139.514323,23.7753906 C139.994794,24.2871119 140.365884,24.8847622 140.627604,25.5683594 C140.889324,26.2519565 141.020182,26.9921835 141.020182,27.7890625 C141.020182,28.9062556 140.828778,29.9179642 140.445964,30.8242188 C140.063149,31.7304733 139.403,32.8203061 138.465495,34.09375 C138.129556,34.5390647 137.569014,35.2539013 136.783854,36.2382812 C135.998694,37.2226612 135.297529,38.0937462 134.680339,38.8515625 L133.754557,40 L131.176432,40 L137.399089,32.2890625 C136.516272,32.7578148 135.637374,32.9921875 134.76237,32.9921875 Z M138.805339,27.5664062 C138.805339,26.4960884 138.502607,25.619144 137.897136,24.9355469 C137.291664,24.2519497 136.410813,23.9101562 135.254557,23.9101562 C134.090489,23.9101562 133.168623,24.2675746 132.488932,24.9824219 C131.809242,25.6972692 131.469401,26.5781198 131.469401,27.625 C131.469401,28.7187555 131.797523,29.5937467 132.453776,30.25 C133.110029,30.9062533 134.020177,31.234375 135.184245,31.234375 C136.418626,31.234375 137.330726,30.8945346 137.920573,30.2148438 C138.51042,29.5351529 138.805339,28.6523492 138.805339,27.5664062 Z M149.748915,40.2695312 C148.68641,40.2695312 147.727435,40.0917987 146.871962,39.7363281 C146.016489,39.3808576 145.323136,38.8359412 144.791884,38.1015625 C144.260631,37.3671838 143.995009,36.4960988 143.995009,35.4882812 C143.995009,34.3710882 144.315318,33.3984416 144.955946,32.5703125 C145.596574,31.7421834 146.491097,31.1406269 147.63954,30.765625 C145.452029,29.9921836 144.35829,28.5859477 144.35829,26.546875 C144.35829,25.1640556 144.858285,24.0820352 145.85829,23.3007812 C146.858295,22.5195273 148.155157,22.1289062 149.748915,22.1289062 C151.33486,22.1289062 152.620004,22.5195273 153.604384,23.3007812 C154.588764,24.0820352 155.080946,25.1640556 155.080946,26.546875 C155.080946,27.5781302 154.815324,28.445309 154.284071,29.1484375 C153.752819,29.851566 153.010638,30.3906231 152.057509,30.765625 C153.112201,31.1406269 153.940318,31.7421834 154.541884,32.5703125 C155.143449,33.3984416 155.444227,34.3710882 155.444227,35.4882812 C155.444227,36.9882888 154.903217,38.160152 153.821181,39.0039062 C152.739144,39.8476605 151.381736,40.2695312 149.748915,40.2695312 Z M149.748915,31.7617188 C148.631722,32.0195325 147.7372,32.4511688 147.065321,33.0566406 C146.393443,33.6621124 146.057509,34.4257766 146.057509,35.3476562 C146.057509,36.3085986 146.405161,37.0722628 147.100477,37.6386719 C147.795793,38.205081 148.678597,38.4882812 149.748915,38.4882812 C150.819233,38.4882812 151.692271,38.205081 152.368056,37.6386719 C153.04384,37.0722628 153.381727,36.3085986 153.381727,35.3476562 C153.381727,34.4179641 153.053606,33.6503937 152.397352,33.0449219 C151.741099,32.4394501 150.858296,32.01172 149.748915,31.7617188 Z M149.748915,23.9101562 C148.827035,23.9101562 148.04384,24.1406227 147.399306,24.6015625 C146.754771,25.0625023 146.432509,25.6953085 146.432509,26.5 C146.432509,28.3437592 147.537966,29.5117163 149.748915,30.0039062 C151.928613,29.5117163 153.018446,28.3437592 153.018446,26.5 C153.018446,25.6953085 152.702043,25.0625023 152.069227,24.6015625 C151.436412,24.1406227 150.662982,23.9101562 149.748915,23.9101562 Z M161.067491,22.46875 L162.930773,22.46875 L162.930773,40 L160.856554,40 L160.856554,24.6367188 C160.067487,25.1523463 159.102653,25.5937482 157.962023,25.9609375 L157.962023,24.0039062 C158.087023,23.9492185 158.340927,23.8398446 158.723741,23.6757812 C159.106556,23.5117179 159.393662,23.3867192 159.585069,23.3007812 C159.776477,23.2148433 160.016709,23.0937508 160.305773,22.9375 C160.594836,22.7812492 160.84874,22.6250008 161.067491,22.46875 Z" id="981" fill="#FFFFFF"></path>
        </g>
        <g id="Group-3" transform="translate(707.000000, 345.000000)">
            <rect id="Rectangle-Copy-32" stroke="#FFFFFF" stroke-width="2" fill="#415C6F" fill-rule="nonzero" x="1" y="1" width="58" height="58"></rect>
            <rect id="Rectangle-Copy-33" stroke="#FFFFFF" stroke-width="2" fill="#415C6F" fill-rule="nonzero" x="59" y="1" width="58" height="58"></rect>
            <rect id="Rectangle-Copy-34" stroke="#FFFFFF" stroke-width="2" fill="#415C6F" fill-rule="nonzero" x="207" y="1" width="58" height="58"></rect>
            <path d="M22.4431424,22.46875 L24.3064237,22.46875 L24.3064237,40 L22.2322049,40 L22.2322049,24.6367188 C21.4431385,25.1523463 20.4783044,25.5937482 19.3376737,25.9609375 L19.3376737,24.0039062 C19.4626743,23.9492185 19.716578,23.8398446 20.0993924,23.6757812 C20.4822069,23.5117179 20.7693134,23.3867192 20.9607206,23.3007812 C21.1521278,23.2148433 21.3923598,23.0937508 21.6814237,22.9375 C21.9704876,22.7812492 22.2243914,22.6250008 22.4431424,22.46875 Z M28.453125,40 L28.1835938,38.078125 L34.2421875,31.3515625 C34.6484395,30.8984352 35.0410137,30.3125036 35.4199219,29.59375 C35.79883,28.8749964 36.0742179,28.2656275 36.2460938,27.765625 L36.515625,27.0273438 C36.515625,26.0585889 36.2460964,25.3066433 35.7070312,24.7714844 C35.1679661,24.2363254 34.4023487,23.96875 33.4101562,23.96875 C31.753898,23.96875 30.4492235,24.4492139 29.4960938,25.4101562 L28.8164062,23.6523438 C29.8945366,22.6367137 31.4726459,22.1289062 33.5507812,22.1289062 C35.1445392,22.1289062 36.4140578,22.5605426 37.359375,23.4238281 C38.3046922,24.2871137 38.7773438,25.441399 38.7773438,26.8867188 C38.7460936,26.9960943 38.6992191,27.1425772 38.6367188,27.3261719 C38.5742184,27.5097665 38.4394542,27.8671848 38.2324219,28.3984375 C38.0253896,28.9296902 37.8085949,29.4335914 37.5820312,29.9101562 C37.3554676,30.3867211 37.0683611,30.9101534 36.7207031,31.4804688 C36.3730451,32.0507841 36.019533,32.5273418 35.6601562,32.9101562 L30.7148438,38.1953125 L38.8359375,38.1953125 L38.7070312,40 L28.453125,40 Z" id="12-copy-4" fill="#FFFFFF"></path>
            <path d="M75.7623699,32.9921875 C74.7701775,32.9921875 73.8580772,32.7753928 73.0260418,32.3417969 C72.1940064,31.908201 71.5240912,31.2812541 71.0162762,30.4609375 C70.5084611,29.6406209 70.2545574,28.7070365 70.2545574,27.6601562 C70.2545574,26.0663983 70.801427,24.746099 71.8951824,23.6992188 C72.9889379,22.6523385 74.4186111,22.1289062 76.1842449,22.1289062 C77.098312,22.1289062 77.9283818,22.2753892 78.6744793,22.5683594 C79.4205768,22.8613296 80.0338519,23.2636693 80.5143231,23.7753906 C80.9947942,24.2871119 81.3658842,24.8847622 81.6276043,25.5683594 C81.8893244,26.2519565 82.0201824,26.9921835 82.0201824,27.7890625 C82.0201824,28.9062556 81.8287781,29.9179642 81.4459637,30.8242188 C81.0631493,31.7304733 80.4029996,32.8203061 79.4654949,34.09375 C79.1295557,34.5390647 78.5690145,35.2539013 77.7838543,36.2382812 C76.9986941,37.2226612 76.2975293,38.0937462 75.6803387,38.8515625 L74.7545574,40 L72.1764324,40 L78.3990887,32.2890625 C77.5162718,32.7578148 76.6373743,32.9921875 75.7623699,32.9921875 Z M79.8053387,27.5664062 C79.8053387,26.4960884 79.5026073,25.619144 78.8971356,24.9355469 C78.2916638,24.2519497 77.4108132,23.9101562 76.2545574,23.9101562 C75.0904891,23.9101562 74.1686233,24.2675746 73.4889324,24.9824219 C72.8092415,25.6972692 72.4694012,26.5781198 72.4694012,27.625 C72.4694012,28.7187555 72.7975229,29.5937467 73.4537762,30.25 C74.1100295,30.9062533 75.0201766,31.234375 76.1842449,31.234375 C77.4186261,31.234375 78.3307264,30.8945346 78.9205731,30.2148438 C79.5104197,29.5351529 79.8053387,28.6523492 79.8053387,27.5664062 Z M90.748915,40.2695312 C89.6864097,40.2695312 88.7274349,40.0917987 87.8719618,39.7363281 C87.0164888,39.3808576 86.3231364,38.8359412 85.7918837,38.1015625 C85.2606311,37.3671838 84.9950087,36.4960988 84.9950087,35.4882812 C84.9950087,34.3710882 85.315318,33.3984416 85.9559462,32.5703125 C86.5965744,31.7421834 87.4910967,31.1406269 88.63954,30.765625 C86.452029,29.9921836 85.35829,28.5859477 85.35829,26.546875 C85.35829,25.1640556 85.858285,24.0820352 86.85829,23.3007812 C87.858295,22.5195273 89.155157,22.1289062 90.748915,22.1289062 C92.3348604,22.1289062 93.6200038,22.5195273 94.6043837,23.3007812 C95.5887636,24.0820352 96.0809462,25.1640556 96.0809462,26.546875 C96.0809462,27.5781302 95.8153239,28.445309 95.2840712,29.1484375 C94.7528186,29.851566 94.0106385,30.3906231 93.0575087,30.765625 C94.1122015,31.1406269 94.9403182,31.7421834 95.5418837,32.5703125 C96.1434492,33.3984416 96.4442275,34.3710882 96.4442275,35.4882812 C96.4442275,36.9882888 95.9032173,38.160152 94.8211806,39.0039062 C93.7391439,39.8476605 92.3817356,40.2695312 90.748915,40.2695312 Z M90.748915,31.7617188 C89.6317219,32.0195325 88.7371996,32.4511688 88.0653212,33.0566406 C87.3934429,33.6621124 87.0575087,34.4257766 87.0575087,35.3476562 C87.0575087,36.3085986 87.4051615,37.0722628 88.1004775,37.6386719 C88.7957935,38.205081 89.6785971,38.4882812 90.748915,38.4882812 C91.8192328,38.4882812 92.692271,38.205081 93.3680556,37.6386719 C94.0438402,37.0722628 94.3817275,36.3085986 94.3817275,35.3476562 C94.3817275,34.4179641 94.0536058,33.6503937 93.3973525,33.0449219 C92.7410992,32.4394501 91.8582955,32.01172 90.748915,31.7617188 Z M90.748915,23.9101562 C89.8270354,23.9101562 89.0438401,24.1406227 88.3993056,24.6015625 C87.7547711,25.0625023 87.4325087,25.6953085 87.4325087,26.5 C87.4325087,28.3437592 88.5379664,29.5117163 90.748915,30.0039062 C92.9286134,29.5117163 94.0184462,28.3437592 94.0184462,26.5 C94.0184462,25.6953085 93.7020431,25.0625023 93.0692275,24.6015625 C92.4364118,24.1406227 91.662982,23.9101562 90.748915,23.9101562 Z M102.067491,22.46875 L103.930773,22.46875 L103.930773,40 L101.856554,40 L101.856554,24.6367188 C101.067487,25.1523463 100.102653,25.5937482 98.9620225,25.9609375 L98.9620225,24.0039062 C99.0870231,23.9492185 99.3409269,23.8398446 99.7237413,23.6757812 C100.106556,23.5117179 100.393662,23.3867192 100.585069,23.3007812 C100.776477,23.2148433 101.016709,23.0937508 101.305773,22.9375 C101.594836,22.7812492 101.84874,22.6250008 102.067491,22.46875 Z" id="981-copy-4" fill="#FFFFFF"></path>
            <path d="M241.424696,22.46875 L241.260634,24.390625 L234.100477,24.390625 C234.022352,26.6640739 233.963759,28.5038992 233.924696,29.9101562 C234.807513,29.3476534 235.764535,29.0664062 236.79579,29.0664062 C237.662982,29.0664062 238.438365,29.2050767 239.121962,29.4824219 C239.805559,29.759767 240.364147,30.1406226 240.797743,30.625 C241.231339,31.1093774 241.561414,31.6738249 241.787977,32.3183594 C242.014541,32.9628938 242.127821,33.6601525 242.127821,34.4101562 C242.127821,36.1836026 241.559468,37.6035103 240.422743,38.6699219 C239.286019,39.7363335 237.741112,40.2695312 235.787977,40.2695312 C233.82703,40.2695312 232.256733,39.7343804 231.07704,38.6640625 L231.838759,37.0117188 C232.995015,37.9179733 234.334845,38.3710938 235.85829,38.3710938 C237.139546,38.3710938 238.151255,38.0078161 238.893446,37.28125 C239.635637,36.5546839 240.006727,35.6054746 240.006727,34.4335938 C240.006727,33.3867135 239.694231,32.5371126 239.069227,31.8847656 C238.444224,31.2324186 237.553608,30.90625 236.397352,30.90625 C235.241097,30.90625 234.311418,31.2929649 233.60829,32.0664062 L231.979384,31.84375 L232.436415,22.46875 L241.424696,22.46875 Z" id="5-copy-4" fill="#FFFFFF"></path>
        </g>
        <g id="Group-2" transform="translate(682.000000, 229.000000)">
            <rect id="Rectangle-Copy-25" stroke="#FFFFFF" stroke-width="2" fill="#415C6F" fill-rule="nonzero" x="1" y="1" width="58" height="58"></rect>
            <rect id="Rectangle-Copy-26" stroke="#FFFFFF" stroke-width="2" fill="#415C6F" fill-rule="nonzero" x="109" y="1" width="58" height="58"></rect>
            <rect id="Rectangle-Copy-27" stroke="#FFFFFF" stroke-width="2" fill="#415C6F" fill-rule="nonzero" x="257" y="1" width="58" height="58"></rect>
            <path d="M22.4431424,22.46875 L24.3064237,22.46875 L24.3064237,40 L22.2322049,40 L22.2322049,24.6367188 C21.4431385,25.1523463 20.4783044,25.5937482 19.3376737,25.9609375 L19.3376737,24.0039062 C19.4626743,23.9492185 19.716578,23.8398446 20.0993924,23.6757812 C20.4822069,23.5117179 20.7693134,23.3867192 20.9607206,23.3007812 C21.1521278,23.2148433 21.3923598,23.0937508 21.6814237,22.9375 C21.9704876,22.7812492 22.2243914,22.6250008 22.4431424,22.46875 Z M28.453125,40 L28.1835938,38.078125 L34.2421875,31.3515625 C34.6484395,30.8984352 35.0410137,30.3125036 35.4199219,29.59375 C35.79883,28.8749964 36.0742179,28.2656275 36.2460938,27.765625 L36.515625,27.0273438 C36.515625,26.0585889 36.2460964,25.3066433 35.7070312,24.7714844 C35.1679661,24.2363254 34.4023487,23.96875 33.4101562,23.96875 C31.753898,23.96875 30.4492235,24.4492139 29.4960938,25.4101562 L28.8164062,23.6523438 C29.8945366,22.6367137 31.4726459,22.1289062 33.5507812,22.1289062 C35.1445392,22.1289062 36.4140578,22.5605426 37.359375,23.4238281 C38.3046922,24.2871137 38.7773438,25.441399 38.7773438,26.8867188 C38.7460936,26.9960943 38.6992191,27.1425772 38.6367188,27.3261719 C38.5742184,27.5097665 38.4394542,27.8671848 38.2324219,28.3984375 C38.0253896,28.9296902 37.8085949,29.4335914 37.5820312,29.9101562 C37.3554676,30.3867211 37.0683611,30.9101534 36.7207031,31.4804688 C36.3730451,32.0507841 36.019533,32.5273418 35.6601562,32.9101562 L30.7148438,38.1953125 L38.8359375,38.1953125 L38.7070312,40 L28.453125,40 Z" id="12-copy-3" fill="#FFFFFF"></path>
            <path d="M125.76237,32.9921875 C124.770177,32.9921875 123.858077,32.7753928 123.026042,32.3417969 C122.194006,31.908201 121.524091,31.2812541 121.016276,30.4609375 C120.508461,29.6406209 120.254557,28.7070365 120.254557,27.6601562 C120.254557,26.0663983 120.801427,24.746099 121.895182,23.6992188 C122.988938,22.6523385 124.418611,22.1289062 126.184245,22.1289062 C127.098312,22.1289062 127.928382,22.2753892 128.674479,22.5683594 C129.420577,22.8613296 130.033852,23.2636693 130.514323,23.7753906 C130.994794,24.2871119 131.365884,24.8847622 131.627604,25.5683594 C131.889324,26.2519565 132.020182,26.9921835 132.020182,27.7890625 C132.020182,28.9062556 131.828778,29.9179642 131.445964,30.8242188 C131.063149,31.7304733 130.403,32.8203061 129.465495,34.09375 C129.129556,34.5390647 128.569014,35.2539013 127.783854,36.2382812 C126.998694,37.2226612 126.297529,38.0937462 125.680339,38.8515625 L124.754557,40 L122.176432,40 L128.399089,32.2890625 C127.516272,32.7578148 126.637374,32.9921875 125.76237,32.9921875 Z M129.805339,27.5664062 C129.805339,26.4960884 129.502607,25.619144 128.897136,24.9355469 C128.291664,24.2519497 127.410813,23.9101562 126.254557,23.9101562 C125.090489,23.9101562 124.168623,24.2675746 123.488932,24.9824219 C122.809242,25.6972692 122.469401,26.5781198 122.469401,27.625 C122.469401,28.7187555 122.797523,29.5937467 123.453776,30.25 C124.110029,30.9062533 125.020177,31.234375 126.184245,31.234375 C127.418626,31.234375 128.330726,30.8945346 128.920573,30.2148438 C129.51042,29.5351529 129.805339,28.6523492 129.805339,27.5664062 Z M140.748915,40.2695312 C139.68641,40.2695312 138.727435,40.0917987 137.871962,39.7363281 C137.016489,39.3808576 136.323136,38.8359412 135.791884,38.1015625 C135.260631,37.3671838 134.995009,36.4960988 134.995009,35.4882812 C134.995009,34.3710882 135.315318,33.3984416 135.955946,32.5703125 C136.596574,31.7421834 137.491097,31.1406269 138.63954,30.765625 C136.452029,29.9921836 135.35829,28.5859477 135.35829,26.546875 C135.35829,25.1640556 135.858285,24.0820352 136.85829,23.3007812 C137.858295,22.5195273 139.155157,22.1289062 140.748915,22.1289062 C142.33486,22.1289062 143.620004,22.5195273 144.604384,23.3007812 C145.588764,24.0820352 146.080946,25.1640556 146.080946,26.546875 C146.080946,27.5781302 145.815324,28.445309 145.284071,29.1484375 C144.752819,29.851566 144.010638,30.3906231 143.057509,30.765625 C144.112201,31.1406269 144.940318,31.7421834 145.541884,32.5703125 C146.143449,33.3984416 146.444227,34.3710882 146.444227,35.4882812 C146.444227,36.9882888 145.903217,38.160152 144.821181,39.0039062 C143.739144,39.8476605 142.381736,40.2695312 140.748915,40.2695312 Z M140.748915,31.7617188 C139.631722,32.0195325 138.7372,32.4511688 138.065321,33.0566406 C137.393443,33.6621124 137.057509,34.4257766 137.057509,35.3476562 C137.057509,36.3085986 137.405161,37.0722628 138.100477,37.6386719 C138.795793,38.205081 139.678597,38.4882812 140.748915,38.4882812 C141.819233,38.4882812 142.692271,38.205081 143.368056,37.6386719 C144.04384,37.0722628 144.381727,36.3085986 144.381727,35.3476562 C144.381727,34.4179641 144.053606,33.6503937 143.397352,33.0449219 C142.741099,32.4394501 141.858296,32.01172 140.748915,31.7617188 Z M140.748915,23.9101562 C139.827035,23.9101562 139.04384,24.1406227 138.399306,24.6015625 C137.754771,25.0625023 137.432509,25.6953085 137.432509,26.5 C137.432509,28.3437592 138.537966,29.5117163 140.748915,30.0039062 C142.928613,29.5117163 144.018446,28.3437592 144.018446,26.5 C144.018446,25.6953085 143.702043,25.0625023 143.069227,24.6015625 C142.436412,24.1406227 141.662982,23.9101562 140.748915,23.9101562 Z M152.067491,22.46875 L153.930773,22.46875 L153.930773,40 L151.856554,40 L151.856554,24.6367188 C151.067487,25.1523463 150.102653,25.5937482 148.962023,25.9609375 L148.962023,24.0039062 C149.087023,23.9492185 149.340927,23.8398446 149.723741,23.6757812 C150.106556,23.5117179 150.393662,23.3867192 150.585069,23.3007812 C150.776477,23.2148433 151.016709,23.0937508 151.305773,22.9375 C151.594836,22.7812492 151.84874,22.6250008 152.067491,22.46875 Z" id="981-copy-3" fill="#FFFFFF"></path>
            <path d="M291.424696,22.46875 L291.260634,24.390625 L284.100477,24.390625 C284.022352,26.6640739 283.963759,28.5038992 283.924696,29.9101562 C284.807513,29.3476534 285.764535,29.0664062 286.79579,29.0664062 C287.662982,29.0664062 288.438365,29.2050767 289.121962,29.4824219 C289.805559,29.759767 290.364147,30.1406226 290.797743,30.625 C291.231339,31.1093774 291.561414,31.6738249 291.787977,32.3183594 C292.014541,32.9628938 292.127821,33.6601525 292.127821,34.4101562 C292.127821,36.1836026 291.559468,37.6035103 290.422743,38.6699219 C289.286019,39.7363335 287.741112,40.2695312 285.787977,40.2695312 C283.82703,40.2695312 282.256733,39.7343804 281.07704,38.6640625 L281.838759,37.0117188 C282.995015,37.9179733 284.334845,38.3710938 285.85829,38.3710938 C287.139546,38.3710938 288.151255,38.0078161 288.893446,37.28125 C289.635637,36.5546839 290.006727,35.6054746 290.006727,34.4335938 C290.006727,33.3867135 289.694231,32.5371126 289.069227,31.8847656 C288.444224,31.2324186 287.553608,30.90625 286.397352,30.90625 C285.241097,30.90625 284.311418,31.2929649 283.60829,32.0664062 L281.979384,31.84375 L282.436415,22.46875 L291.424696,22.46875 Z" id="5-copy-3" fill="#FFFFFF"></path>
        </g>
        <path d="M346.617117,324.131394 L335.597739,332.385837 L337.192579,333.089443 L335.860566,319.385858 L335.76382,318.390548 L333.773202,318.58404 L333.869948,319.579349 L335.201961,333.282934 L335.373953,335.052373 L336.796801,333.98654 L347.816178,325.732098 L348.61653,325.132567 L347.417468,323.531864 L346.617117,324.131394 Z M350.585082,298.09636 L340.088356,321.88894 L335.988722,331.181442 L335.585082,332.09636 L337.414918,332.90364 L337.818558,331.988722 L341.918191,322.69622 L352.414918,298.90364 L352.818558,297.988722 L350.988722,297.181442 L350.585082,298.09636 Z" id="Line-4-Copy-15" fill="#FFFFFF" fill-rule="nonzero"></path>
        <path d="M813.617117,324.131394 L802.597739,332.385837 L804.192579,333.089443 L802.860566,319.385858 L802.76382,318.390548 L800.773202,318.58404 L800.869948,319.579349 L802.201961,333.282934 L802.373953,335.052373 L803.796801,333.98654 L814.816178,325.732098 L815.61653,325.132567 L814.417468,323.531864 L813.617117,324.131394 Z M817.585082,298.09636 L807.088356,321.88894 L802.988722,331.181442 L802.585082,332.09636 L804.414918,332.90364 L804.818558,331.988722 L808.918191,322.69622 L819.414918,298.90364 L819.818558,297.988722 L817.988722,297.181442 L817.585082,298.09636 Z" id="Line-4-Copy-18" fill="#FFFFFF" fill-rule="nonzero"></path>
        <path d="M559.617117,324.131394 L548.597739,332.385837 L550.192579,333.089443 L548.860566,319.385858 L548.76382,318.390548 L546.773202,318.58404 L546.869948,319.579349 L548.201961,333.282934 L548.373953,335.052373 L549.796801,333.98654 L560.816178,325.732098 L561.61653,325.132567 L560.417468,323.531864 L559.617117,324.131394 Z M563.585082,298.09636 L553.088356,321.88894 L548.988722,331.181442 L548.585082,332.09636 L550.414918,332.90364 L550.818558,331.988722 L554.918191,322.69622 L565.414918,298.90364 L565.818558,297.988722 L563.988722,297.181442 L563.585082,298.09636 Z" id="Line-4-Copy-16" fill="#FFFFFF" fill-rule="nonzero"></path>
        <path d="M501.617117,440.131394 L490.597739,448.385837 L492.192579,449.089443 L490.860566,435.385858 L490.76382,434.390548 L488.773202,434.58404 L488.869948,435.579349 L490.201961,449.282934 L490.373953,451.052373 L491.796801,449.98654 L502.816178,441.732098 L503.61653,441.132567 L502.417468,439.531864 L501.617117,440.131394 Z M505.585082,414.09636 L495.088356,437.88894 L490.988722,447.181442 L490.585082,448.09636 L492.414918,448.90364 L492.818558,447.988722 L496.918191,438.69622 L507.414918,414.90364 L507.818558,413.988722 L505.988722,413.181442 L505.585082,414.09636 Z" id="Line-4-Copy-23" fill="#FFFFFF" fill-rule="nonzero"></path>
        <path d="M963.617117,324.131394 L952.597739,332.385837 L954.192579,333.089443 L952.860566,319.385858 L952.76382,318.390548 L950.773202,318.58404 L950.869948,319.579349 L952.201961,333.282934 L952.373953,335.052373 L953.796801,333.98654 L964.816178,325.732098 L965.61653,325.132567 L964.417468,323.531864 L963.617117,324.131394 Z M967.585082,298.09636 L957.088356,321.88894 L952.988722,331.181442 L952.585082,332.09636 L954.414918,332.90364 L954.818558,331.988722 L958.918191,322.69622 L969.414918,298.90364 L969.818558,297.988722 L967.988722,297.181442 L967.585082,298.09636 Z" id="Line-4-Copy-19" fill="#FFFFFF" fill-rule="nonzero"></path>
        <path d="M923.617117,440.131394 L912.597739,448.385837 L914.192579,449.089443 L912.860566,435.385858 L912.76382,434.390548 L910.773202,434.58404 L910.869948,435.579349 L912.201961,449.282934 L912.373953,451.052373 L913.796801,449.98654 L924.816178,441.732098 L925.61653,441.132567 L924.417468,439.531864 L923.617117,440.131394 Z M927.585082,414.09636 L917.088356,437.88894 L912.988722,447.181442 L912.585082,448.09636 L914.414918,448.90364 L914.818558,447.988722 L918.918191,438.69622 L929.414918,414.90364 L929.818558,413.988722 L927.988722,413.181442 L927.585082,414.09636 Z" id="Line-4-Copy-24" fill="#FFFFFF" fill-rule="nonzero"></path>
        <path d="M791.617117,556.131394 L780.597739,564.385837 L782.192579,565.089443 L780.860566,551.385858 L780.76382,550.390548 L778.773202,550.58404 L778.869948,551.579349 L780.201961,565.282934 L780.373953,567.052373 L781.796801,565.98654 L792.816178,557.732098 L793.61653,557.132567 L792.417468,555.531864 L791.617117,556.131394 Z M795.585082,530.09636 L785.088356,553.88894 L780.988722,563.181442 L780.585082,564.09636 L782.414918,564.90364 L782.818558,563.988722 L786.918191,554.69622 L797.414918,530.90364 L797.818558,529.988722 L795.988722,529.181442 L795.585082,530.09636 Z" id="Line-4-Copy-27" fill="#FFFFFF" fill-rule="nonzero"></path>
        <path d="M262.139434,319.385858 L260.807421,333.089443 L262.402261,332.385837 L251.382883,324.131394 L250.582532,323.531864 L249.38347,325.132567 L250.183822,325.732098 L261.203199,333.98654 L262.626047,335.052373 L262.798039,333.282934 L264.130052,319.579349 L264.226798,318.58404 L262.23618,318.390548 L262.139434,319.385858 Z M245.585082,298.90364 L256.081809,322.69622 L260.181442,331.988722 L260.585082,332.90364 L262.414918,332.09636 L262.011278,331.181442 L257.911644,321.88894 L247.414918,298.09636 L247.011278,297.181442 L245.181442,297.988722 L245.585082,298.90364 Z" id="Line-4-Copy-14" fill="#FFFFFF" fill-rule="nonzero"></path>
        <path d="M321.139434,435.385858 L319.807421,449.089443 L321.402261,448.385837 L310.382883,440.131394 L309.582532,439.531864 L308.38347,441.132567 L309.183822,441.732098 L320.203199,449.98654 L321.626047,451.052373 L321.798039,449.282934 L323.130052,435.579349 L323.226798,434.58404 L321.23618,434.390548 L321.139434,435.385858 Z M304.585082,414.90364 L315.081809,438.69622 L319.181442,447.988722 L319.585082,448.90364 L321.414918,448.09636 L321.011278,447.181442 L316.911644,437.88894 L306.414918,414.09636 L306.011278,413.181442 L304.181442,413.988722 L304.585082,414.90364 Z" id="Line-4-Copy-25" fill="#FFFFFF" fill-rule="nonzero"></path>
        <path d="M432.139434,551.385858 L430.807421,565.089443 L432.402261,564.385837 L421.382883,556.131394 L420.582532,555.531864 L419.38347,557.132567 L420.183822,557.732098 L431.203199,565.98654 L432.626047,567.052373 L432.798039,565.282934 L434.130052,551.579349 L434.226798,550.58404 L432.23618,550.390548 L432.139434,551.385858 Z M415.585082,530.90364 L426.081809,554.69622 L430.181442,563.988722 L430.585082,564.90364 L432.414918,564.09636 L432.011278,563.181442 L427.911644,553.88894 L417.414918,530.09636 L417.011278,529.181442 L415.181442,529.988722 L415.585082,530.90364 Z" id="Line-4-Copy-28" fill="#FFFFFF" fill-rule="nonzero"></path>
        <path d="M729.139434,319.385858 L727.807421,333.089443 L729.402261,332.385837 L718.382883,324.131394 L717.582532,323.531864 L716.38347,325.132567 L717.183822,325.732098 L728.203199,333.98654 L729.626047,335.052373 L729.798039,333.282934 L731.130052,319.579349 L731.226798,318.58404 L729.23618,318.390548 L729.139434,319.385858 Z M712.585082,298.90364 L723.081809,322.69622 L727.181442,331.988722 L727.585082,332.90364 L729.414918,332.09636 L729.011278,331.181442 L724.911644,321.88894 L714.414918,298.09636 L714.011278,297.181442 L712.181442,297.988722 L712.585082,298.90364 Z" id="Line-4-Copy-20" fill="#FFFFFF" fill-rule="nonzero"></path>
        <path d="M799.139434,435.385858 L797.807421,449.089443 L799.402261,448.385837 L788.382883,440.131394 L787.582532,439.531864 L786.38347,441.132567 L787.183822,441.732098 L798.203199,449.98654 L799.626047,451.052373 L799.798039,449.282934 L801.130052,435.579349 L801.226798,434.58404 L799.23618,434.390548 L799.139434,435.385858 Z M782.585082,414.90364 L793.081809,438.69622 L797.181442,447.988722 L797.585082,448.90364 L799.414918,448.09636 L799.011278,447.181442 L794.911644,437.88894 L784.414918,414.09636 L784.011278,413.181442 L782.181442,413.988722 L782.585082,414.90364 Z" id="Line-4-Copy-26" fill="#FFFFFF" fill-rule="nonzero"></path>
        <path d="M475.139434,319.385858 L473.807421,333.089443 L475.402261,332.385837 L464.382883,324.131394 L463.582532,323.531864 L462.38347,325.132567 L463.183822,325.732098 L474.203199,333.98654 L475.626047,335.052373 L475.798039,333.282934 L477.130052,319.579349 L477.226798,318.58404 L475.23618,318.390548 L475.139434,319.385858 Z M458.585082,298.90364 L469.081809,322.69622 L473.181442,331.988722 L473.585082,332.90364 L475.414918,332.09636 L475.011278,331.181442 L470.911644,321.88894 L460.414918,298.09636 L460.011278,297.181442 L458.181442,297.988722 L458.585082,298.90364 Z" id="Line-4-Copy-17" fill="#FFFFFF" fill-rule="nonzero"></path>
        <g id="Group-15" transform="translate(402.000000, 577.000000)">
            <rect id="Rectangle-Copy-42" stroke="#FFFFFF" stroke-width="2" fill="#415C6F" fill-rule="nonzero" x="1" y="1" width="58" height="58"></rect>
            <rect id="Rectangle-Copy-43" stroke="#FFFFFF" stroke-width="2" fill="#415C6F" fill-rule="nonzero" x="59" y="1" width="58" height="58"></rect>
            <rect id="Rectangle-Copy-44" stroke="#FFFFFF" stroke-width="2" fill="#415C6F" fill-rule="nonzero" x="117" y="1" width="58" height="58"></rect>
            <rect id="Rectangle-Copy-45" stroke="#FFFFFF" stroke-width="2" fill="#415C6F" fill-rule="nonzero" x="175" y="1" width="58" height="58"></rect>
            <rect id="Rectangle-Copy-46" stroke="#FFFFFF" stroke-width="2" fill="#415C6F" fill-rule="nonzero" x="233" y="1" width="58" height="58"></rect>
            <rect id="Rectangle-Copy-47" stroke="#FFFFFF" stroke-width="2" fill="#415C6F" fill-rule="nonzero" x="291" y="1" width="58" height="58"></rect>
            <rect id="Rectangle-Copy-48" stroke="#FFFFFF" stroke-width="2" fill="#415C6F" fill-rule="nonzero" x="349" y="1" width="58" height="58"></rect>
            <path d="M34.4246962,22.46875 L34.2606337,24.390625 L27.1004775,24.390625 C27.0223521,26.6640739 26.9637589,28.5038992 26.9246962,29.9101562 C27.8075131,29.3476534 28.7645348,29.0664062 29.79579,29.0664062 C30.6629818,29.0664062 31.4383647,29.2050767 32.1219618,29.4824219 C32.805559,29.759767 33.3641472,30.1406226 33.7977431,30.625 C34.231339,31.1093774 34.5614138,31.6738249 34.7879775,32.3183594 C35.0145411,32.9628938 35.1278212,33.6601525 35.1278212,34.4101562 C35.1278212,36.1836026 34.5594675,37.6035103 33.4227431,38.6699219 C32.2860187,39.7363335 30.7411122,40.2695312 28.7879775,40.2695312 C26.8270302,40.2695312 25.2567334,39.7343804 24.07704,38.6640625 L24.8387587,37.0117188 C25.9950145,37.9179733 27.3348449,38.3710938 28.85829,38.3710938 C30.1395464,38.3710938 31.151255,38.0078161 31.8934462,37.28125 C32.6356374,36.5546839 33.0067275,35.6054746 33.0067275,34.4335938 C33.0067275,33.3867135 32.6942306,32.5371126 32.0692275,31.8847656 C31.4442243,31.2324186 30.5536083,30.90625 29.3973525,30.90625 C28.2410967,30.90625 27.3114185,31.2929649 26.60829,32.0664062 L24.9793837,31.84375 L25.436415,22.46875 L34.4246962,22.46875 Z" id="5" fill="#FFFFFF"></path>
            <polygon id="7" fill="#FFFFFF" points="85.4500868 40 91.4735243 24.2851562 83.5633681 24.2851562 83.6922743 22.46875 93.8524306 22.46875 93.8524306 24.0625 87.5828993 40"></polygon>
            <path d="M137.443142,22.46875 L139.306424,22.46875 L139.306424,40 L137.232205,40 L137.232205,24.6367188 C136.443139,25.1523463 135.478304,25.5937482 134.337674,25.9609375 L134.337674,24.0039062 C134.462674,23.9492185 134.716578,23.8398446 135.099392,23.6757812 C135.482207,23.5117179 135.769313,23.3867192 135.960721,23.3007812 C136.152128,23.2148433 136.39236,23.0937508 136.681424,22.9375 C136.970488,22.7812492 137.224391,22.6250008 137.443142,22.46875 Z M143.453125,40 L143.183594,38.078125 L149.242188,31.3515625 C149.64844,30.8984352 150.041014,30.3125036 150.419922,29.59375 C150.79883,28.8749964 151.074218,28.2656275 151.246094,27.765625 L151.515625,27.0273438 C151.515625,26.0585889 151.246096,25.3066433 150.707031,24.7714844 C150.167966,24.2363254 149.402349,23.96875 148.410156,23.96875 C146.753898,23.96875 145.449224,24.4492139 144.496094,25.4101562 L143.816406,23.6523438 C144.894537,22.6367137 146.472646,22.1289062 148.550781,22.1289062 C150.144539,22.1289062 151.414058,22.5605426 152.359375,23.4238281 C153.304692,24.2871137 153.777344,25.441399 153.777344,26.8867188 C153.746094,26.9960943 153.699219,27.1425772 153.636719,27.3261719 C153.574218,27.5097665 153.439454,27.8671848 153.232422,28.3984375 C153.02539,28.9296902 152.808595,29.4335914 152.582031,29.9101562 C152.355468,30.3867211 152.068361,30.9101534 151.720703,31.4804688 C151.373045,32.0507841 151.019533,32.5273418 150.660156,32.9101562 L145.714844,38.1953125 L153.835938,38.1953125 L153.707031,40 L143.453125,40 Z" id="12" fill="#FFFFFF"></path>
            <path d="M196.519314,22.46875 L198.382596,22.46875 L198.382596,40 L196.308377,40 L196.308377,24.6367188 C195.51931,25.1523463 194.554476,25.5937482 193.413846,25.9609375 L193.413846,24.0039062 C193.538846,23.9492185 193.79275,23.8398446 194.175564,23.6757812 C194.558379,23.5117179 194.845485,23.3867192 195.036892,23.3007812 C195.2283,23.2148433 195.468532,23.0937508 195.757596,22.9375 C196.04666,22.7812492 196.300563,22.6250008 196.519314,22.46875 Z M207.017578,40.2695312 C205.970698,40.2695312 205.039067,40.1328139 204.222656,39.859375 C203.406246,39.5859361 202.810549,39.269533 202.435547,38.9101562 L203.091797,37.1875 C204.193365,38.0546918 205.505852,38.4882812 207.029297,38.4882812 C208.201178,38.4882812 209.132809,38.1972685 209.824219,37.6152344 C210.515628,37.0332002 210.861328,36.2187552 210.861328,35.171875 C210.861328,34.6015596 210.773438,34.1035178 210.597656,33.6777344 C210.421874,33.251951 210.187501,32.9082044 209.894531,32.6464844 C209.601561,32.3847643 209.226565,32.1738289 208.769531,32.0136719 C208.312498,31.8535148 207.843752,31.7402347 207.363281,31.6738281 C206.88281,31.6074215 206.326175,31.5664063 205.693359,31.5507812 C205.615234,31.5507812 205.498048,31.5488281 205.341797,31.5449219 C205.185546,31.5410156 205.06836,31.5390625 204.990234,31.5390625 L204.990234,29.7929688 L205.576172,29.7929688 C206.12305,29.7851562 206.605467,29.7558596 207.023438,29.7050781 C207.441408,29.6542966 207.859373,29.5625007 208.277344,29.4296875 C208.695315,29.2968743 209.041014,29.1210948 209.314453,28.9023438 C209.587892,28.6835927 209.810546,28.3906268 209.982422,28.0234375 C210.154298,27.6562482 210.240234,27.2226588 210.240234,26.7226562 C210.240234,24.8476469 209.166026,23.9101562 207.017578,23.9101562 C206.244137,23.9101562 205.517582,24.0234364 204.837891,24.25 C204.1582,24.4765636 203.576174,24.7812481 203.091797,25.1640625 L202.435547,23.453125 C203.599615,22.5703081 205.27538,22.1289062 207.462891,22.1289062 C208.345708,22.1289062 209.162106,22.291014 209.912109,22.6152344 C210.662113,22.9394547 211.279294,23.4355435 211.763672,24.1035156 C212.248049,24.7714877 212.490234,25.554683 212.490234,26.453125 C212.490234,27.5468805 212.220706,28.445309 211.681641,29.1484375 C211.142575,29.851566 210.384771,30.3554672 209.408203,30.6601562 C210.501959,30.8945324 211.359372,31.4062461 211.980469,32.1953125 C212.601566,32.9843789 212.912109,33.9843689 212.912109,35.1953125 C212.912109,36.7343827 212.361334,37.9648391 211.259766,38.8867188 C210.158198,39.8085984 208.744149,40.2695312 207.017578,40.2695312 Z" id="13" fill="#FFFFFF"></path>
            <path d="M253.874783,32.9921875 C252.882591,32.9921875 251.97049,32.7753928 251.138455,32.3417969 C250.30642,31.908201 249.636504,31.2812541 249.128689,30.4609375 C248.620874,29.6406209 248.366971,28.7070365 248.366971,27.6601562 C248.366971,26.0663983 248.91384,24.746099 250.007596,23.6992188 C251.101351,22.6523385 252.531024,22.1289062 254.296658,22.1289062 C255.210725,22.1289062 256.040795,22.2753892 256.786892,22.5683594 C257.53299,22.8613296 258.146265,23.2636693 258.626736,23.7753906 C259.107207,24.2871119 259.478297,24.8847622 259.740017,25.5683594 C260.001738,26.2519565 260.132596,26.9921835 260.132596,27.7890625 C260.132596,28.9062556 259.941191,29.9179642 259.558377,30.8242188 C259.175562,31.7304733 258.515413,32.8203061 257.577908,34.09375 C257.241969,34.5390647 256.681428,35.2539013 255.896267,36.2382812 C255.111107,37.2226612 254.409942,38.0937462 253.792752,38.8515625 L252.866971,40 L250.288846,40 L256.511502,32.2890625 C255.628685,32.7578148 254.749787,32.9921875 253.874783,32.9921875 Z M257.917752,27.5664062 C257.917752,26.4960884 257.61502,25.619144 257.009549,24.9355469 C256.404077,24.2519497 255.523226,23.9101562 254.366971,23.9101562 C253.202902,23.9101562 252.281036,24.2675746 251.601346,24.9824219 C250.921655,25.6972692 250.581814,26.5781198 250.581814,27.625 C250.581814,28.7187555 250.909936,29.5937467 251.566189,30.25 C252.222443,30.9062533 253.13259,31.234375 254.296658,31.234375 C255.531039,31.234375 256.44314,30.8945346 257.032986,30.2148438 C257.622833,29.5351529 257.917752,28.6523492 257.917752,27.5664062 Z M268.861328,40.2695312 C267.798823,40.2695312 266.839848,40.0917987 265.984375,39.7363281 C265.128902,39.3808576 264.43555,38.8359412 263.904297,38.1015625 C263.373044,37.3671838 263.107422,36.4960988 263.107422,35.4882812 C263.107422,34.3710882 263.427731,33.3984416 264.068359,32.5703125 C264.708988,31.7421834 265.60351,31.1406269 266.751953,30.765625 C264.564442,29.9921836 263.470703,28.5859477 263.470703,26.546875 C263.470703,25.1640556 263.970698,24.0820352 264.970703,23.3007812 C265.970708,22.5195273 267.26757,22.1289062 268.861328,22.1289062 C270.447274,22.1289062 271.732417,22.5195273 272.716797,23.3007812 C273.701177,24.0820352 274.193359,25.1640556 274.193359,26.546875 C274.193359,27.5781302 273.927737,28.445309 273.396484,29.1484375 C272.865232,29.851566 272.123052,30.3906231 271.169922,30.765625 C272.224615,31.1406269 273.052731,31.7421834 273.654297,32.5703125 C274.255862,33.3984416 274.556641,34.3710882 274.556641,35.4882812 C274.556641,36.9882888 274.01563,38.160152 272.933594,39.0039062 C271.851557,39.8476605 270.494149,40.2695312 268.861328,40.2695312 Z M268.861328,31.7617188 C267.744135,32.0195325 266.849613,32.4511688 266.177734,33.0566406 C265.505856,33.6621124 265.169922,34.4257766 265.169922,35.3476562 C265.169922,36.3085986 265.517575,37.0722628 266.212891,37.6386719 C266.908207,38.205081 267.79101,38.4882812 268.861328,38.4882812 C269.931646,38.4882812 270.804684,38.205081 271.480469,37.6386719 C272.156253,37.0722628 272.494141,36.3085986 272.494141,35.3476562 C272.494141,34.4179641 272.166019,33.6503937 271.509766,33.0449219 C270.853512,32.4394501 269.970709,32.01172 268.861328,31.7617188 Z M268.861328,23.9101562 C267.939449,23.9101562 267.156253,24.1406227 266.511719,24.6015625 C265.867184,25.0625023 265.544922,25.6953085 265.544922,26.5 C265.544922,28.3437592 266.65038,29.5117163 268.861328,30.0039062 C271.041027,29.5117163 272.130859,28.3437592 272.130859,26.5 C272.130859,25.6953085 271.814456,25.0625023 271.181641,24.6015625 C270.548825,24.1406227 269.775395,23.9101562 268.861328,23.9101562 Z" id="98" fill="#FFFFFF"></path>
            <path d="M301.192057,40 L300.922526,38.078125 L306.98112,31.3515625 C307.387372,30.8984352 307.779946,30.3125036 308.158854,29.59375 C308.537762,28.8749964 308.81315,28.2656275 308.985026,27.765625 L309.254557,27.0273438 C309.254557,26.0585889 308.985029,25.3066433 308.445964,24.7714844 C307.906898,24.2363254 307.141281,23.96875 306.149089,23.96875 C304.49283,23.96875 303.188156,24.4492139 302.235026,25.4101562 L301.555339,23.6523438 C302.633469,22.6367137 304.211578,22.1289062 306.289714,22.1289062 C307.883472,22.1289062 309.15299,22.5605426 310.098307,23.4238281 C311.043625,24.2871137 311.516276,25.441399 311.516276,26.8867188 C311.485026,26.9960943 311.438151,27.1425772 311.375651,27.3261719 C311.313151,27.5097665 311.178387,27.8671848 310.971354,28.3984375 C310.764322,28.9296902 310.547527,29.4335914 310.320964,29.9101562 C310.0944,30.3867211 309.807294,30.9101534 309.459636,31.4804688 C309.111978,32.0507841 308.758465,32.5273418 308.399089,32.9101562 L303.453776,38.1953125 L311.57487,38.1953125 L311.445964,40 L301.192057,40 Z M316.893446,40 L322.916884,24.2851562 L315.006727,24.2851562 L315.135634,22.46875 L325.29579,22.46875 L325.29579,24.0625 L319.026259,40 L316.893446,40 Z M340.200304,35.6523438 L338.208116,35.6523438 L338.208116,40 L336.239366,40 L336.239366,35.6523438 L328.317491,35.6523438 L328.317491,33.859375 L336.01671,22.46875 L338.208116,22.46875 L338.208116,33.953125 L340.364366,33.953125 L340.200304,35.6523438 Z M336.239366,25.1289062 L330.379991,33.953125 L336.239366,33.953125 L336.239366,25.1289062 Z" id="274" fill="#FFFFFF"></path>
            <path d="M366.76237,32.9921875 C365.770177,32.9921875 364.858077,32.7753928 364.026042,32.3417969 C363.194006,31.908201 362.524091,31.2812541 362.016276,30.4609375 C361.508461,29.6406209 361.254557,28.7070365 361.254557,27.6601562 C361.254557,26.0663983 361.801427,24.746099 362.895182,23.6992188 C363.988938,22.6523385 365.418611,22.1289062 367.184245,22.1289062 C368.098312,22.1289062 368.928382,22.2753892 369.674479,22.5683594 C370.420577,22.8613296 371.033852,23.2636693 371.514323,23.7753906 C371.994794,24.2871119 372.365884,24.8847622 372.627604,25.5683594 C372.889324,26.2519565 373.020182,26.9921835 373.020182,27.7890625 C373.020182,28.9062556 372.828778,29.9179642 372.445964,30.8242188 C372.063149,31.7304733 371.403,32.8203061 370.465495,34.09375 C370.129556,34.5390647 369.569014,35.2539013 368.783854,36.2382812 C367.998694,37.2226612 367.297529,38.0937462 366.680339,38.8515625 L365.754557,40 L363.176432,40 L369.399089,32.2890625 C368.516272,32.7578148 367.637374,32.9921875 366.76237,32.9921875 Z M370.805339,27.5664062 C370.805339,26.4960884 370.502607,25.619144 369.897136,24.9355469 C369.291664,24.2519497 368.410813,23.9101562 367.254557,23.9101562 C366.090489,23.9101562 365.168623,24.2675746 364.488932,24.9824219 C363.809242,25.6972692 363.469401,26.5781198 363.469401,27.625 C363.469401,28.7187555 363.797523,29.5937467 364.453776,30.25 C365.110029,30.9062533 366.020177,31.234375 367.184245,31.234375 C368.418626,31.234375 369.330726,30.8945346 369.920573,30.2148438 C370.51042,29.5351529 370.805339,28.6523492 370.805339,27.5664062 Z M381.748915,40.2695312 C380.68641,40.2695312 379.727435,40.0917987 378.871962,39.7363281 C378.016489,39.3808576 377.323136,38.8359412 376.791884,38.1015625 C376.260631,37.3671838 375.995009,36.4960988 375.995009,35.4882812 C375.995009,34.3710882 376.315318,33.3984416 376.955946,32.5703125 C377.596574,31.7421834 378.491097,31.1406269 379.63954,30.765625 C377.452029,29.9921836 376.35829,28.5859477 376.35829,26.546875 C376.35829,25.1640556 376.858285,24.0820352 377.85829,23.3007812 C378.858295,22.5195273 380.155157,22.1289062 381.748915,22.1289062 C383.33486,22.1289062 384.620004,22.5195273 385.604384,23.3007812 C386.588764,24.0820352 387.080946,25.1640556 387.080946,26.546875 C387.080946,27.5781302 386.815324,28.445309 386.284071,29.1484375 C385.752819,29.851566 385.010638,30.3906231 384.057509,30.765625 C385.112201,31.1406269 385.940318,31.7421834 386.541884,32.5703125 C387.143449,33.3984416 387.444227,34.3710882 387.444227,35.4882812 C387.444227,36.9882888 386.903217,38.160152 385.821181,39.0039062 C384.739144,39.8476605 383.381736,40.2695312 381.748915,40.2695312 Z M381.748915,31.7617188 C380.631722,32.0195325 379.7372,32.4511688 379.065321,33.0566406 C378.393443,33.6621124 378.057509,34.4257766 378.057509,35.3476562 C378.057509,36.3085986 378.405161,37.0722628 379.100477,37.6386719 C379.795793,38.205081 380.678597,38.4882812 381.748915,38.4882812 C382.819233,38.4882812 383.692271,38.205081 384.368056,37.6386719 C385.04384,37.0722628 385.381727,36.3085986 385.381727,35.3476562 C385.381727,34.4179641 385.053606,33.6503937 384.397352,33.0449219 C383.741099,32.4394501 382.858296,32.01172 381.748915,31.7617188 Z M381.748915,23.9101562 C380.827035,23.9101562 380.04384,24.1406227 379.399306,24.6015625 C378.754771,25.0625023 378.432509,25.6953085 378.432509,26.5 C378.432509,28.3437592 379.537966,29.5117163 381.748915,30.0039062 C383.928613,29.5117163 385.018446,28.3437592 385.018446,26.5 C385.018446,25.6953085 384.702043,25.0625023 384.069227,24.6015625 C383.436412,24.1406227 382.662982,23.9101562 381.748915,23.9101562 Z M393.067491,22.46875 L394.930773,22.46875 L394.930773,40 L392.856554,40 L392.856554,24.6367188 C392.067487,25.1523463 391.102653,25.5937482 389.962023,25.9609375 L389.962023,24.0039062 C390.087023,23.9492185 390.340927,23.8398446 390.723741,23.6757812 C391.106556,23.5117179 391.393662,23.3867192 391.585069,23.3007812 C391.776477,23.2148433 392.016709,23.0937508 392.305773,22.9375 C392.594836,22.7812492 392.84874,22.6250008 393.067491,22.46875 Z" id="981" fill="#FFFFFF"></path>
        </g>
    </g>
</svg>