<?xml version="1.0" encoding="UTF-8"?>
<svg width="1214px" height="866px" viewBox="0 0 1214 866" version="1.1" xmlns="http://www.w3.org/2000/svg" xmlns:xlink="http://www.w3.org/1999/xlink">
    <!-- Generator: Sketch 51.3 (57544) - http://www.bohemiancoding.com/sketch -->
    <title>merge sort ex 1</title>
    <desc>Created with Sketch.</desc>
    <defs></defs>
    <g id="merge-sort-ex-1" stroke="none" stroke-width="1" fill="none" fill-rule="evenodd">
        <g id="Group-6" transform="translate(289.000000, 345.000000)">
            <rect id="Rectangle-Copy-7" stroke="#FFFFFF" stroke-width="2" fill="#415C6F" fill-rule="nonzero" x="1" y="1" width="58" height="58"></rect>
            <rect id="Rectangle-Copy-8" stroke="#FFFFFF" stroke-width="2" fill="#415C6F" fill-rule="nonzero" x="59" y="1" width="58" height="58"></rect>
            <rect id="Rectangle-Copy-9" stroke="#FFFFFF" stroke-width="2" fill="#415C6F" fill-rule="nonzero" x="117" y="1" width="58" height="58"></rect>
            <rect id="Rectangle-Copy-10" stroke="#FFFFFF" stroke-width="2" fill="#415C6F" fill-rule="nonzero" x="175" y="1" width="58" height="58"></rect>
            <path d="M21.8747831,32.9921875 C20.8825906,32.9921875 19.9704904,32.7753928 19.1384549,32.3417969 C18.3064195,31.908201 17.6365044,31.2812541 17.1286893,30.4609375 C16.6208743,29.6406209 16.3669706,28.7070365 16.3669706,27.6601562 C16.3669706,26.0663983 16.9138401,24.746099 18.0075956,23.6992188 C19.101351,22.6523385 20.5310242,22.1289062 22.2966581,22.1289062 C23.2107251,22.1289062 24.040795,22.2753892 24.7868924,22.5683594 C25.5329899,22.8613296 26.146265,23.2636693 26.6267362,23.7753906 C27.1072074,24.2871119 27.4782974,24.8847622 27.7400174,25.5683594 C28.0017375,26.2519565 28.1325956,26.9921835 28.1325956,27.7890625 C28.1325956,28.9062556 27.9411912,29.9179642 27.5583768,30.8242188 C27.1755624,31.7304733 26.5154128,32.8203061 25.5779081,34.09375 C25.2419689,34.5390647 24.6814276,35.2539013 23.8962674,36.2382812 C23.1111073,37.2226612 22.4099424,38.0937462 21.7927518,38.8515625 L20.8669706,40 L18.2888456,40 L24.5115018,32.2890625 C23.6286849,32.7578148 22.7497874,32.9921875 21.8747831,32.9921875 Z M25.9177518,27.5664062 C25.9177518,26.4960884 25.6150205,25.619144 25.0095487,24.9355469 C24.4040769,24.2519497 23.5232264,23.9101562 22.3669706,23.9101562 C21.2029023,23.9101562 20.2810365,24.2675746 19.6013456,24.9824219 C18.9216547,25.6972692 18.5818143,26.5781198 18.5818143,27.625 C18.5818143,28.7187555 18.909936,29.5937467 19.5661893,30.25 C20.2224426,30.9062533 21.1325898,31.234375 22.2966581,31.234375 C23.5310392,31.234375 24.4431395,30.8945346 25.0329862,30.2148438 C25.6228329,29.5351529 25.9177518,28.6523492 25.9177518,27.5664062 Z M36.8613281,40.2695312 C35.7988228,40.2695312 34.839848,40.0917987 33.984375,39.7363281 C33.128902,39.3808576 32.4355495,38.8359412 31.9042969,38.1015625 C31.3730442,37.3671838 31.1074219,36.4960988 31.1074219,35.4882812 C31.1074219,34.3710882 31.4277312,33.3984416 32.0683594,32.5703125 C32.7089876,31.7421834 33.6035099,31.1406269 34.7519531,30.765625 C32.5644422,29.9921836 31.4707031,28.5859477 31.4707031,26.546875 C31.4707031,25.1640556 31.9706981,24.0820352 32.9707031,23.3007812 C33.9707081,22.5195273 35.2675702,22.1289062 36.8613281,22.1289062 C38.4472736,22.1289062 39.732417,22.5195273 40.7167969,23.3007812 C41.7011768,24.0820352 42.1933594,25.1640556 42.1933594,26.546875 C42.1933594,27.5781302 41.927737,28.445309 41.3964844,29.1484375 C40.8652317,29.851566 40.1230516,30.3906231 39.1699219,30.765625 C40.2246146,31.1406269 41.0527314,31.7421834 41.6542969,32.5703125 C42.2558624,33.3984416 42.5566406,34.3710882 42.5566406,35.4882812 C42.5566406,36.9882888 42.0156304,38.160152 40.9335938,39.0039062 C39.8515571,39.8476605 38.4941488,40.2695312 36.8613281,40.2695312 Z M36.8613281,31.7617188 C35.744135,32.0195325 34.8496127,32.4511688 34.1777344,33.0566406 C33.505856,33.6621124 33.1699219,34.4257766 33.1699219,35.3476562 C33.1699219,36.3085986 33.5175746,37.0722628 34.2128906,37.6386719 C34.9082066,38.205081 35.7910103,38.4882812 36.8613281,38.4882812 C37.931646,38.4882812 38.8046841,38.205081 39.4804688,37.6386719 C40.1562534,37.0722628 40.4941406,36.3085986 40.4941406,35.3476562 C40.4941406,34.4179641 40.1660189,33.6503937 39.5097656,33.0449219 C38.8535123,32.4394501 37.9707087,32.01172 36.8613281,31.7617188 Z M36.8613281,23.9101562 C35.9394485,23.9101562 35.1562532,24.1406227 34.5117188,24.6015625 C33.8671843,25.0625023 33.5449219,25.6953085 33.5449219,26.5 C33.5449219,28.3437592 34.6503796,29.5117163 36.8613281,30.0039062 C39.0410265,29.5117163 40.1308594,28.3437592 40.1308594,26.5 C40.1308594,25.6953085 39.8144563,25.0625023 39.1816406,24.6015625 C38.548825,24.1406227 37.7753952,23.9101562 36.8613281,23.9101562 Z" id="98" fill="#FFFFFF"></path>
            <path d="M81.5193143,22.46875 L83.3825956,22.46875 L83.3825956,40 L81.3083768,40 L81.3083768,24.6367188 C80.5193104,25.1523463 79.5544763,25.5937482 78.4138456,25.9609375 L78.4138456,24.0039062 C78.5388462,23.9492185 78.7927499,23.8398446 79.1755643,23.6757812 C79.5583787,23.5117179 79.8454852,23.3867192 80.0368924,23.3007812 C80.2282997,23.2148433 80.4685316,23.0937508 80.7575956,22.9375 C81.0466595,22.7812492 81.3005632,22.6250008 81.5193143,22.46875 Z M92.0175781,40.2695312 C90.9706979,40.2695312 90.0390666,40.1328139 89.2226562,39.859375 C88.4062459,39.5859361 87.8105487,39.269533 87.4355469,38.9101562 L88.0917969,37.1875 C89.1933649,38.0546918 90.5058518,38.4882812 92.0292969,38.4882812 C93.2011777,38.4882812 94.132809,38.1972685 94.8242188,37.6152344 C95.5156285,37.0332002 95.8613281,36.2187552 95.8613281,35.171875 C95.8613281,34.6015596 95.7734384,34.1035178 95.5976562,33.6777344 C95.4218741,33.251951 95.1875015,32.9082044 94.8945312,32.6464844 C94.601561,32.3847643 94.2265648,32.1738289 93.7695312,32.0136719 C93.3124977,31.8535148 92.8437524,31.7402347 92.3632812,31.6738281 C91.8828101,31.6074215 91.326175,31.5664063 90.6933594,31.5507812 C90.615234,31.5507812 90.4980477,31.5488281 90.3417969,31.5449219 C90.1855461,31.5410156 90.0683598,31.5390625 89.9902344,31.5390625 L89.9902344,29.7929688 L90.5761719,29.7929688 C91.1230496,29.7851562 91.6054667,29.7558596 92.0234375,29.7050781 C92.4414083,29.6542966 92.8593729,29.5625007 93.2773438,29.4296875 C93.6953146,29.2968743 94.0410143,29.1210948 94.3144531,28.9023438 C94.587892,28.6835927 94.810546,28.3906268 94.9824219,28.0234375 C95.1542977,27.6562482 95.2402344,27.2226588 95.2402344,26.7226562 C95.2402344,24.8476469 94.1660264,23.9101562 92.0175781,23.9101562 C91.2441368,23.9101562 90.5175815,24.0234364 89.8378906,24.25 C89.1581997,24.4765636 88.5761743,24.7812481 88.0917969,25.1640625 L87.4355469,23.453125 C88.5996152,22.5703081 90.2753797,22.1289062 92.4628906,22.1289062 C93.3457075,22.1289062 94.1621056,22.291014 94.9121094,22.6152344 C95.6621131,22.9394547 96.2792945,23.4355435 96.7636719,24.1035156 C97.2480493,24.7714877 97.4902344,25.554683 97.4902344,26.453125 C97.4902344,27.5468805 97.2207058,28.445309 96.6816406,29.1484375 C96.1425754,29.851566 95.3847705,30.3554672 94.4082031,30.6601562 C95.5019586,30.8945324 96.3593719,31.4062461 96.9804688,32.1953125 C97.6015656,32.9843789 97.9121094,33.9843689 97.9121094,35.1953125 C97.9121094,36.7343827 97.3613336,37.9648391 96.2597656,38.8867188 C95.1581976,39.8085984 93.7441493,40.2695312 92.0175781,40.2695312 Z" id="13" fill="#FFFFFF"></path>
            <path d="M126.198891,40.4530999 L125.922526,38.4824981 L132.134728,31.5853918 C132.55128,31.120776 132.953808,30.5199888 133.342323,29.7830121 C133.730838,29.0460353 134.013208,28.4212166 134.189441,27.9085372 L134.465806,27.1515377 C134.465806,26.1582212 134.189444,25.387211 133.636711,24.8384837 C133.083979,24.2897565 132.29895,24.015397 131.281602,24.015397 C129.583351,24.015397 128.245598,24.5080425 127.268303,25.4933484 L126.571383,23.6909687 C127.676848,22.6495885 129.294968,22.1289062 131.425792,22.1289062 C133.059958,22.1289062 134.361664,22.5714862 135.330948,23.4566593 C136.300233,24.3418324 136.784868,25.5253833 136.784868,27.0073473 C136.752825,27.1194959 136.704762,27.2696928 136.640677,27.4579422 C136.576593,27.6461917 136.438411,28.0126719 136.22613,28.5573939 C136.013849,29.1021158 135.791558,29.6187928 135.55925,30.1074404 C135.326942,30.596088 135.032556,31.1327913 134.676084,31.7175663 C134.319611,32.3023413 133.957136,32.7909816 133.588648,33.1835018 L128.517953,38.6026567 L136.844947,38.6026567 L136.712773,40.4530999 L126.198891,40.4530999 Z M142.29837,40.4530999 L148.474524,24.3398254 L140.363815,24.3398254 L140.49599,22.4773663 L150.913745,22.4773663 L150.913745,24.1115239 L144.485257,40.4530999 L142.29837,40.4530999 Z M166.196144,35.9952141 L164.153447,35.9952141 L164.153447,40.4530999 L162.134782,40.4530999 L162.134782,35.9952141 L154.012057,35.9952141 L154.012057,34.1567868 L161.90648,22.4773663 L164.153447,22.4773663 L164.153447,34.2529137 L166.364366,34.2529137 L166.196144,35.9952141 Z M162.134782,25.2049676 L156.12685,34.2529137 L162.134782,34.2529137 L162.134782,25.2049676 Z" id="274" fill="#FFFFFF"></path>
            <polygon id="7" fill="#FFFFFF" points="200.450087 40 206.473524 24.2851562 198.563368 24.2851562 198.692274 22.46875 208.852431 22.46875 208.852431 24.0625 202.582899 40"></polygon>
        </g>
        <g id="Group-12" transform="translate(244.000000, 461.000000)">
            <g id="Group-7">
                <rect id="Rectangle-Copy-14" stroke="#FFFFFF" stroke-width="2" fill="#415C6F" fill-rule="nonzero" x="1" y="1" width="58" height="58"></rect>
                <rect id="Rectangle-Copy-15" stroke="#FFFFFF" stroke-width="2" fill="#415C6F" fill-rule="nonzero" x="59" y="1" width="58" height="58"></rect>
                <path d="M21.8747831,32.9921875 C20.8825906,32.9921875 19.9704904,32.7753928 19.1384549,32.3417969 C18.3064195,31.908201 17.6365044,31.2812541 17.1286893,30.4609375 C16.6208743,29.6406209 16.3669706,28.7070365 16.3669706,27.6601562 C16.3669706,26.0663983 16.9138401,24.746099 18.0075956,23.6992188 C19.101351,22.6523385 20.5310242,22.1289062 22.2966581,22.1289062 C23.2107251,22.1289062 24.040795,22.2753892 24.7868924,22.5683594 C25.5329899,22.8613296 26.146265,23.2636693 26.6267362,23.7753906 C27.1072074,24.2871119 27.4782974,24.8847622 27.7400174,25.5683594 C28.0017375,26.2519565 28.1325956,26.9921835 28.1325956,27.7890625 C28.1325956,28.9062556 27.9411912,29.9179642 27.5583768,30.8242188 C27.1755624,31.7304733 26.5154128,32.8203061 25.5779081,34.09375 C25.2419689,34.5390647 24.6814276,35.2539013 23.8962674,36.2382812 C23.1111073,37.2226612 22.4099424,38.0937462 21.7927518,38.8515625 L20.8669706,40 L18.2888456,40 L24.5115018,32.2890625 C23.6286849,32.7578148 22.7497874,32.9921875 21.8747831,32.9921875 Z M25.9177518,27.5664062 C25.9177518,26.4960884 25.6150205,25.619144 25.0095487,24.9355469 C24.4040769,24.2519497 23.5232264,23.9101562 22.3669706,23.9101562 C21.2029023,23.9101562 20.2810365,24.2675746 19.6013456,24.9824219 C18.9216547,25.6972692 18.5818143,26.5781198 18.5818143,27.625 C18.5818143,28.7187555 18.909936,29.5937467 19.5661893,30.25 C20.2224426,30.9062533 21.1325898,31.234375 22.2966581,31.234375 C23.5310392,31.234375 24.4431395,30.8945346 25.0329862,30.2148438 C25.6228329,29.5351529 25.9177518,28.6523492 25.9177518,27.5664062 Z M36.8613281,40.2695312 C35.7988228,40.2695312 34.839848,40.0917987 33.984375,39.7363281 C33.128902,39.3808576 32.4355495,38.8359412 31.9042969,38.1015625 C31.3730442,37.3671838 31.1074219,36.4960988 31.1074219,35.4882812 C31.1074219,34.3710882 31.4277312,33.3984416 32.0683594,32.5703125 C32.7089876,31.7421834 33.6035099,31.1406269 34.7519531,30.765625 C32.5644422,29.9921836 31.4707031,28.5859477 31.4707031,26.546875 C31.4707031,25.1640556 31.9706981,24.0820352 32.9707031,23.3007812 C33.9707081,22.5195273 35.2675702,22.1289062 36.8613281,22.1289062 C38.4472736,22.1289062 39.732417,22.5195273 40.7167969,23.3007812 C41.7011768,24.0820352 42.1933594,25.1640556 42.1933594,26.546875 C42.1933594,27.5781302 41.927737,28.445309 41.3964844,29.1484375 C40.8652317,29.851566 40.1230516,30.3906231 39.1699219,30.765625 C40.2246146,31.1406269 41.0527314,31.7421834 41.6542969,32.5703125 C42.2558624,33.3984416 42.5566406,34.3710882 42.5566406,35.4882812 C42.5566406,36.9882888 42.0156304,38.160152 40.9335938,39.0039062 C39.8515571,39.8476605 38.4941488,40.2695312 36.8613281,40.2695312 Z M36.8613281,31.7617188 C35.744135,32.0195325 34.8496127,32.4511688 34.1777344,33.0566406 C33.505856,33.6621124 33.1699219,34.4257766 33.1699219,35.3476562 C33.1699219,36.3085986 33.5175746,37.0722628 34.2128906,37.6386719 C34.9082066,38.205081 35.7910103,38.4882812 36.8613281,38.4882812 C37.931646,38.4882812 38.8046841,38.205081 39.4804688,37.6386719 C40.1562534,37.0722628 40.4941406,36.3085986 40.4941406,35.3476562 C40.4941406,34.4179641 40.1660189,33.6503937 39.5097656,33.0449219 C38.8535123,32.4394501 37.9707087,32.01172 36.8613281,31.7617188 Z M36.8613281,23.9101562 C35.9394485,23.9101562 35.1562532,24.1406227 34.5117188,24.6015625 C33.8671843,25.0625023 33.5449219,25.6953085 33.5449219,26.5 C33.5449219,28.3437592 34.6503796,29.5117163 36.8613281,30.0039062 C39.0410265,29.5117163 40.1308594,28.3437592 40.1308594,26.5 C40.1308594,25.6953085 39.8144563,25.0625023 39.1816406,24.6015625 C38.548825,24.1406227 37.7753952,23.9101562 36.8613281,23.9101562 Z" id="98-copy" fill="#FFFFFF"></path>
                <path d="M81.5193143,22.46875 L83.3825956,22.46875 L83.3825956,40 L81.3083768,40 L81.3083768,24.6367188 C80.5193104,25.1523463 79.5544763,25.5937482 78.4138456,25.9609375 L78.4138456,24.0039062 C78.5388462,23.9492185 78.7927499,23.8398446 79.1755643,23.6757812 C79.5583787,23.5117179 79.8454852,23.3867192 80.0368924,23.3007812 C80.2282997,23.2148433 80.4685316,23.0937508 80.7575956,22.9375 C81.0466595,22.7812492 81.3005632,22.6250008 81.5193143,22.46875 Z M92.0175781,40.2695312 C90.9706979,40.2695312 90.0390666,40.1328139 89.2226562,39.859375 C88.4062459,39.5859361 87.8105487,39.269533 87.4355469,38.9101562 L88.0917969,37.1875 C89.1933649,38.0546918 90.5058518,38.4882812 92.0292969,38.4882812 C93.2011777,38.4882812 94.132809,38.1972685 94.8242188,37.6152344 C95.5156285,37.0332002 95.8613281,36.2187552 95.8613281,35.171875 C95.8613281,34.6015596 95.7734384,34.1035178 95.5976562,33.6777344 C95.4218741,33.251951 95.1875015,32.9082044 94.8945312,32.6464844 C94.601561,32.3847643 94.2265648,32.1738289 93.7695312,32.0136719 C93.3124977,31.8535148 92.8437524,31.7402347 92.3632812,31.6738281 C91.8828101,31.6074215 91.326175,31.5664063 90.6933594,31.5507812 C90.615234,31.5507812 90.4980477,31.5488281 90.3417969,31.5449219 C90.1855461,31.5410156 90.0683598,31.5390625 89.9902344,31.5390625 L89.9902344,29.7929688 L90.5761719,29.7929688 C91.1230496,29.7851562 91.6054667,29.7558596 92.0234375,29.7050781 C92.4414083,29.6542966 92.8593729,29.5625007 93.2773438,29.4296875 C93.6953146,29.2968743 94.0410143,29.1210948 94.3144531,28.9023438 C94.587892,28.6835927 94.810546,28.3906268 94.9824219,28.0234375 C95.1542977,27.6562482 95.2402344,27.2226588 95.2402344,26.7226562 C95.2402344,24.8476469 94.1660264,23.9101562 92.0175781,23.9101562 C91.2441368,23.9101562 90.5175815,24.0234364 89.8378906,24.25 C89.1581997,24.4765636 88.5761743,24.7812481 88.0917969,25.1640625 L87.4355469,23.453125 C88.5996152,22.5703081 90.2753797,22.1289062 92.4628906,22.1289062 C93.3457075,22.1289062 94.1621056,22.291014 94.9121094,22.6152344 C95.6621131,22.9394547 96.2792945,23.4355435 96.7636719,24.1035156 C97.2480493,24.7714877 97.4902344,25.554683 97.4902344,26.453125 C97.4902344,27.5468805 97.2207058,28.445309 96.6816406,29.1484375 C96.1425754,29.851566 95.3847705,30.3554672 94.4082031,30.6601562 C95.5019586,30.8945324 96.3593719,31.4062461 96.9804688,32.1953125 C97.6015656,32.9843789 97.9121094,33.9843689 97.9121094,35.1953125 C97.9121094,36.7343827 97.3613336,37.9648391 96.2597656,38.8867188 C95.1581976,39.8085984 93.7441493,40.2695312 92.0175781,40.2695312 Z" id="13-copy" fill="#FFFFFF"></path>
            </g>
            <g id="Group-8" transform="translate(206.000000, 0.000000)">
                <rect id="Rectangle-Copy-16" stroke="#FFFFFF" stroke-width="2" fill="#415C6F" fill-rule="nonzero" x="1" y="1" width="58" height="58"></rect>
                <rect id="Rectangle-Copy-17" stroke="#FFFFFF" stroke-width="2" fill="#415C6F" fill-rule="nonzero" x="59" y="1" width="58" height="58"></rect>
                <path d="M11.1920574,40 L10.9225262,38.078125 L16.9811199,31.3515625 C17.387372,30.8984352 17.7799462,30.3125036 18.1588543,29.59375 C18.5377624,28.8749964 18.8131503,28.2656275 18.9850262,27.765625 L19.2545574,27.0273438 C19.2545574,26.0585889 18.9850289,25.3066433 18.4459637,24.7714844 C17.9068985,24.2363254 17.1412811,23.96875 16.1490887,23.96875 C14.4928304,23.96875 13.1881559,24.4492139 12.2350262,25.4101562 L11.5553387,23.6523438 C12.6334691,22.6367137 14.2115783,22.1289062 16.2897137,22.1289062 C17.8834716,22.1289062 19.1529902,22.5605426 20.0983074,23.4238281 C21.0436247,24.2871137 21.5162762,25.441399 21.5162762,26.8867188 C21.485026,26.9960943 21.4381515,27.1425772 21.3756512,27.3261719 C21.3131509,27.5097665 21.1783866,27.8671848 20.9713543,28.3984375 C20.764322,28.9296902 20.5475273,29.4335914 20.3209637,29.9101562 C20.0944,30.3867211 19.8072935,30.9101534 19.4596355,31.4804688 C19.1119776,32.0507841 18.7584655,32.5273418 18.3990887,32.9101562 L13.4537762,38.1953125 L21.5748699,38.1953125 L21.4459637,40 L11.1920574,40 Z M26.8934462,40 L32.9168837,24.2851562 L25.0067275,24.2851562 L25.1356337,22.46875 L35.29579,22.46875 L35.29579,24.0625 L29.0262587,40 L26.8934462,40 Z M50.2003038,35.6523438 L48.2081163,35.6523438 L48.2081163,40 L46.2393663,40 L46.2393663,35.6523438 L38.3174913,35.6523438 L38.3174913,33.859375 L46.01671,22.46875 L48.2081163,22.46875 L48.2081163,33.953125 L50.3643663,33.953125 L50.2003038,35.6523438 Z M46.2393663,25.1289062 L40.3799913,33.953125 L46.2393663,33.953125 L46.2393663,25.1289062 Z" id="274-copy" fill="#FFFFFF"></path>
                <polygon id="7-copy" fill="#FFFFFF" points="84.4500868 40 90.4735243 24.2851562 82.5633681 24.2851562 82.6922743 22.46875 92.8524306 22.46875 92.8524306 24.0625 86.5828993 40"></polygon>
            </g>
        </g>
        <g id="Group-9" transform="translate(214.000000, 577.000000)">
            <rect id="Rectangle-Copy-21" stroke="#FFFFFF" stroke-width="2" fill="#415C6F" fill-rule="nonzero" x="1" y="1" width="58" height="58"></rect>
            <rect id="Rectangle-Copy-22" stroke="#FFFFFF" stroke-width="2" fill="#415C6F" fill-rule="nonzero" x="109" y="1" width="58" height="58"></rect>
            <rect id="Rectangle-Copy-23" stroke="#FFFFFF" stroke-width="2" fill="#415C6F" fill-rule="nonzero" x="217" y="1" width="58" height="58"></rect>
            <rect id="Rectangle-Copy-24" stroke="#FFFFFF" stroke-width="2" fill="#415C6F" fill-rule="nonzero" x="325" y="1" width="58" height="58"></rect>
            <path d="M21.8747831,32.9921875 C20.8825906,32.9921875 19.9704904,32.7753928 19.1384549,32.3417969 C18.3064195,31.908201 17.6365044,31.2812541 17.1286893,30.4609375 C16.6208743,29.6406209 16.3669706,28.7070365 16.3669706,27.6601562 C16.3669706,26.0663983 16.9138401,24.746099 18.0075956,23.6992188 C19.101351,22.6523385 20.5310242,22.1289062 22.2966581,22.1289062 C23.2107251,22.1289062 24.040795,22.2753892 24.7868924,22.5683594 C25.5329899,22.8613296 26.146265,23.2636693 26.6267362,23.7753906 C27.1072074,24.2871119 27.4782974,24.8847622 27.7400174,25.5683594 C28.0017375,26.2519565 28.1325956,26.9921835 28.1325956,27.7890625 C28.1325956,28.9062556 27.9411912,29.9179642 27.5583768,30.8242188 C27.1755624,31.7304733 26.5154128,32.8203061 25.5779081,34.09375 C25.2419689,34.5390647 24.6814276,35.2539013 23.8962674,36.2382812 C23.1111073,37.2226612 22.4099424,38.0937462 21.7927518,38.8515625 L20.8669706,40 L18.2888456,40 L24.5115018,32.2890625 C23.6286849,32.7578148 22.7497874,32.9921875 21.8747831,32.9921875 Z M25.9177518,27.5664062 C25.9177518,26.4960884 25.6150205,25.619144 25.0095487,24.9355469 C24.4040769,24.2519497 23.5232264,23.9101562 22.3669706,23.9101562 C21.2029023,23.9101562 20.2810365,24.2675746 19.6013456,24.9824219 C18.9216547,25.6972692 18.5818143,26.5781198 18.5818143,27.625 C18.5818143,28.7187555 18.909936,29.5937467 19.5661893,30.25 C20.2224426,30.9062533 21.1325898,31.234375 22.2966581,31.234375 C23.5310392,31.234375 24.4431395,30.8945346 25.0329862,30.2148438 C25.6228329,29.5351529 25.9177518,28.6523492 25.9177518,27.5664062 Z M36.8613281,40.2695312 C35.7988228,40.2695312 34.839848,40.0917987 33.984375,39.7363281 C33.128902,39.3808576 32.4355495,38.8359412 31.9042969,38.1015625 C31.3730442,37.3671838 31.1074219,36.4960988 31.1074219,35.4882812 C31.1074219,34.3710882 31.4277312,33.3984416 32.0683594,32.5703125 C32.7089876,31.7421834 33.6035099,31.1406269 34.7519531,30.765625 C32.5644422,29.9921836 31.4707031,28.5859477 31.4707031,26.546875 C31.4707031,25.1640556 31.9706981,24.0820352 32.9707031,23.3007812 C33.9707081,22.5195273 35.2675702,22.1289062 36.8613281,22.1289062 C38.4472736,22.1289062 39.732417,22.5195273 40.7167969,23.3007812 C41.7011768,24.0820352 42.1933594,25.1640556 42.1933594,26.546875 C42.1933594,27.5781302 41.927737,28.445309 41.3964844,29.1484375 C40.8652317,29.851566 40.1230516,30.3906231 39.1699219,30.765625 C40.2246146,31.1406269 41.0527314,31.7421834 41.6542969,32.5703125 C42.2558624,33.3984416 42.5566406,34.3710882 42.5566406,35.4882812 C42.5566406,36.9882888 42.0156304,38.160152 40.9335938,39.0039062 C39.8515571,39.8476605 38.4941488,40.2695312 36.8613281,40.2695312 Z M36.8613281,31.7617188 C35.744135,32.0195325 34.8496127,32.4511688 34.1777344,33.0566406 C33.505856,33.6621124 33.1699219,34.4257766 33.1699219,35.3476562 C33.1699219,36.3085986 33.5175746,37.0722628 34.2128906,37.6386719 C34.9082066,38.205081 35.7910103,38.4882812 36.8613281,38.4882812 C37.931646,38.4882812 38.8046841,38.205081 39.4804688,37.6386719 C40.1562534,37.0722628 40.4941406,36.3085986 40.4941406,35.3476562 C40.4941406,34.4179641 40.1660189,33.6503937 39.5097656,33.0449219 C38.8535123,32.4394501 37.9707087,32.01172 36.8613281,31.7617188 Z M36.8613281,23.9101562 C35.9394485,23.9101562 35.1562532,24.1406227 34.5117188,24.6015625 C33.8671843,25.0625023 33.5449219,25.6953085 33.5449219,26.5 C33.5449219,28.3437592 34.6503796,29.5117163 36.8613281,30.0039062 C39.0410265,29.5117163 40.1308594,28.3437592 40.1308594,26.5 C40.1308594,25.6953085 39.8144563,25.0625023 39.1816406,24.6015625 C38.548825,24.1406227 37.7753952,23.9101562 36.8613281,23.9101562 Z" id="98-copy-2" fill="#FFFFFF"></path>
            <path d="M131.519314,22.46875 L133.382596,22.46875 L133.382596,40 L131.308377,40 L131.308377,24.6367188 C130.51931,25.1523463 129.554476,25.5937482 128.413846,25.9609375 L128.413846,24.0039062 C128.538846,23.9492185 128.79275,23.8398446 129.175564,23.6757812 C129.558379,23.5117179 129.845485,23.3867192 130.036892,23.3007812 C130.2283,23.2148433 130.468532,23.0937508 130.757596,22.9375 C131.04666,22.7812492 131.300563,22.6250008 131.519314,22.46875 Z M142.017578,40.2695312 C140.970698,40.2695312 140.039067,40.1328139 139.222656,39.859375 C138.406246,39.5859361 137.810549,39.269533 137.435547,38.9101562 L138.091797,37.1875 C139.193365,38.0546918 140.505852,38.4882812 142.029297,38.4882812 C143.201178,38.4882812 144.132809,38.1972685 144.824219,37.6152344 C145.515628,37.0332002 145.861328,36.2187552 145.861328,35.171875 C145.861328,34.6015596 145.773438,34.1035178 145.597656,33.6777344 C145.421874,33.251951 145.187501,32.9082044 144.894531,32.6464844 C144.601561,32.3847643 144.226565,32.1738289 143.769531,32.0136719 C143.312498,31.8535148 142.843752,31.7402347 142.363281,31.6738281 C141.88281,31.6074215 141.326175,31.5664063 140.693359,31.5507812 C140.615234,31.5507812 140.498048,31.5488281 140.341797,31.5449219 C140.185546,31.5410156 140.06836,31.5390625 139.990234,31.5390625 L139.990234,29.7929688 L140.576172,29.7929688 C141.12305,29.7851562 141.605467,29.7558596 142.023438,29.7050781 C142.441408,29.6542966 142.859373,29.5625007 143.277344,29.4296875 C143.695315,29.2968743 144.041014,29.1210948 144.314453,28.9023438 C144.587892,28.6835927 144.810546,28.3906268 144.982422,28.0234375 C145.154298,27.6562482 145.240234,27.2226588 145.240234,26.7226562 C145.240234,24.8476469 144.166026,23.9101562 142.017578,23.9101562 C141.244137,23.9101562 140.517582,24.0234364 139.837891,24.25 C139.1582,24.4765636 138.576174,24.7812481 138.091797,25.1640625 L137.435547,23.453125 C138.599615,22.5703081 140.27538,22.1289062 142.462891,22.1289062 C143.345708,22.1289062 144.162106,22.291014 144.912109,22.6152344 C145.662113,22.9394547 146.279294,23.4355435 146.763672,24.1035156 C147.248049,24.7714877 147.490234,25.554683 147.490234,26.453125 C147.490234,27.5468805 147.220706,28.445309 146.681641,29.1484375 C146.142575,29.851566 145.384771,30.3554672 144.408203,30.6601562 C145.501959,30.8945324 146.359372,31.4062461 146.980469,32.1953125 C147.601566,32.9843789 147.912109,33.9843689 147.912109,35.1953125 C147.912109,36.7343827 147.361334,37.9648391 146.259766,38.8867188 C145.158198,39.8085984 143.744149,40.2695312 142.017578,40.2695312 Z" id="13-copy-2" fill="#FFFFFF"></path>
            <path d="M227.192057,40 L226.922526,38.078125 L232.98112,31.3515625 C233.387372,30.8984352 233.779946,30.3125036 234.158854,29.59375 C234.537762,28.8749964 234.81315,28.2656275 234.985026,27.765625 L235.254557,27.0273438 C235.254557,26.0585889 234.985029,25.3066433 234.445964,24.7714844 C233.906898,24.2363254 233.141281,23.96875 232.149089,23.96875 C230.49283,23.96875 229.188156,24.4492139 228.235026,25.4101562 L227.555339,23.6523438 C228.633469,22.6367137 230.211578,22.1289062 232.289714,22.1289062 C233.883472,22.1289062 235.15299,22.5605426 236.098307,23.4238281 C237.043625,24.2871137 237.516276,25.441399 237.516276,26.8867188 C237.485026,26.9960943 237.438151,27.1425772 237.375651,27.3261719 C237.313151,27.5097665 237.178387,27.8671848 236.971354,28.3984375 C236.764322,28.9296902 236.547527,29.4335914 236.320964,29.9101562 C236.0944,30.3867211 235.807294,30.9101534 235.459636,31.4804688 C235.111978,32.0507841 234.758465,32.5273418 234.399089,32.9101562 L229.453776,38.1953125 L237.57487,38.1953125 L237.445964,40 L227.192057,40 Z M242.893446,40 L248.916884,24.2851562 L241.006727,24.2851562 L241.135634,22.46875 L251.29579,22.46875 L251.29579,24.0625 L245.026259,40 L242.893446,40 Z M266.200304,35.6523438 L264.208116,35.6523438 L264.208116,40 L262.239366,40 L262.239366,35.6523438 L254.317491,35.6523438 L254.317491,33.859375 L262.01671,22.46875 L264.208116,22.46875 L264.208116,33.953125 L266.364366,33.953125 L266.200304,35.6523438 Z M262.239366,25.1289062 L256.379991,33.953125 L262.239366,33.953125 L262.239366,25.1289062 Z" id="274-copy-2" fill="#FFFFFF"></path>
            <polygon id="7-copy-2" fill="#FFFFFF" points="350.450087 40 356.473524 24.2851562 348.563368 24.2851562 348.692274 22.46875 358.852431 22.46875 358.852431 24.0625 352.582899 40"></polygon>
        </g>
        <g id="Group-5" transform="translate(752.000000, 345.000000)">
            <rect id="Rectangle-Copy-11" stroke="#FFFFFF" stroke-width="2" fill="#415C6F" fill-rule="nonzero" x="1" y="1" width="58" height="58"></rect>
            <rect id="Rectangle-Copy-12" stroke="#FFFFFF" stroke-width="2" fill="#415C6F" fill-rule="nonzero" x="59" y="1" width="58" height="58"></rect>
            <rect id="Rectangle-Copy-13" stroke="#FFFFFF" stroke-width="2" fill="#415C6F" fill-rule="nonzero" x="117" y="1" width="58" height="58"></rect>
            <path d="M22.4431424,22.46875 L24.3064237,22.46875 L24.3064237,40 L22.2322049,40 L22.2322049,24.6367188 C21.4431385,25.1523463 20.4783044,25.5937482 19.3376737,25.9609375 L19.3376737,24.0039062 C19.4626743,23.9492185 19.716578,23.8398446 20.0993924,23.6757812 C20.4822069,23.5117179 20.7693134,23.3867192 20.9607206,23.3007812 C21.1521278,23.2148433 21.3923598,23.0937508 21.6814237,22.9375 C21.9704876,22.7812492 22.2243914,22.6250008 22.4431424,22.46875 Z M28.453125,40 L28.1835937,38.078125 L34.2421875,31.3515625 C34.6484395,30.8984352 35.0410137,30.3125036 35.4199219,29.59375 C35.79883,28.8749964 36.0742179,28.2656275 36.2460937,27.765625 L36.515625,27.0273438 C36.515625,26.0585889 36.2460964,25.3066433 35.7070312,24.7714844 C35.1679661,24.2363254 34.4023487,23.96875 33.4101562,23.96875 C31.753898,23.96875 30.4492235,24.4492139 29.4960937,25.4101562 L28.8164062,23.6523438 C29.8945366,22.6367137 31.4726459,22.1289062 33.5507812,22.1289062 C35.1445392,22.1289062 36.4140578,22.5605426 37.359375,23.4238281 C38.3046922,24.2871137 38.7773437,25.441399 38.7773437,26.8867188 C38.7460936,26.9960943 38.6992191,27.1425772 38.6367187,27.3261719 C38.5742184,27.5097665 38.4394542,27.8671848 38.2324219,28.3984375 C38.0253896,28.9296902 37.8085949,29.4335914 37.5820312,29.9101562 C37.3554676,30.3867211 37.0683611,30.9101534 36.7207031,31.4804688 C36.3730451,32.0507841 36.019533,32.5273418 35.6601562,32.9101562 L30.7148437,38.1953125 L38.8359375,38.1953125 L38.7070312,40 L28.453125,40 Z" id="12-copy" fill="#FFFFFF"></path>
            <path d="M75.7623699,32.9921875 C74.7701775,32.9921875 73.8580772,32.7753928 73.0260418,32.3417969 C72.1940064,31.908201 71.5240912,31.2812541 71.0162762,30.4609375 C70.5084611,29.6406209 70.2545574,28.7070365 70.2545574,27.6601562 C70.2545574,26.0663983 70.801427,24.746099 71.8951824,23.6992188 C72.9889379,22.6523385 74.4186111,22.1289062 76.1842449,22.1289062 C77.098312,22.1289062 77.9283818,22.2753892 78.6744793,22.5683594 C79.4205768,22.8613296 80.0338519,23.2636693 80.5143231,23.7753906 C80.9947942,24.2871119 81.3658842,24.8847622 81.6276043,25.5683594 C81.8893244,26.2519565 82.0201824,26.9921835 82.0201824,27.7890625 C82.0201824,28.9062556 81.8287781,29.9179642 81.4459637,30.8242188 C81.0631493,31.7304733 80.4029996,32.8203061 79.4654949,34.09375 C79.1295557,34.5390647 78.5690145,35.2539013 77.7838543,36.2382812 C76.9986941,37.2226612 76.2975293,38.0937462 75.6803387,38.8515625 L74.7545574,40 L72.1764324,40 L78.3990887,32.2890625 C77.5162718,32.7578148 76.6373743,32.9921875 75.7623699,32.9921875 Z M79.8053387,27.5664062 C79.8053387,26.4960884 79.5026073,25.619144 78.8971356,24.9355469 C78.2916638,24.2519497 77.4108132,23.9101562 76.2545574,23.9101562 C75.0904891,23.9101562 74.1686233,24.2675746 73.4889324,24.9824219 C72.8092415,25.6972692 72.4694012,26.5781198 72.4694012,27.625 C72.4694012,28.7187555 72.7975229,29.5937467 73.4537762,30.25 C74.1100295,30.9062533 75.0201766,31.234375 76.1842449,31.234375 C77.4186261,31.234375 78.3307264,30.8945346 78.9205731,30.2148438 C79.5104197,29.5351529 79.8053387,28.6523492 79.8053387,27.5664062 Z M90.748915,40.2695312 C89.6864097,40.2695312 88.7274349,40.0917987 87.8719618,39.7363281 C87.0164888,39.3808576 86.3231364,38.8359412 85.7918837,38.1015625 C85.2606311,37.3671838 84.9950087,36.4960988 84.9950087,35.4882812 C84.9950087,34.3710882 85.315318,33.3984416 85.9559462,32.5703125 C86.5965744,31.7421834 87.4910967,31.1406269 88.63954,30.765625 C86.452029,29.9921836 85.35829,28.5859477 85.35829,26.546875 C85.35829,25.1640556 85.858285,24.0820352 86.85829,23.3007812 C87.858295,22.5195273 89.155157,22.1289062 90.748915,22.1289062 C92.3348604,22.1289062 93.6200038,22.5195273 94.6043837,23.3007812 C95.5887636,24.0820352 96.0809462,25.1640556 96.0809462,26.546875 C96.0809462,27.5781302 95.8153239,28.445309 95.2840712,29.1484375 C94.7528186,29.851566 94.0106385,30.3906231 93.0575087,30.765625 C94.1122015,31.1406269 94.9403182,31.7421834 95.5418837,32.5703125 C96.1434492,33.3984416 96.4442275,34.3710882 96.4442275,35.4882812 C96.4442275,36.9882888 95.9032173,38.160152 94.8211806,39.0039062 C93.7391439,39.8476605 92.3817356,40.2695312 90.748915,40.2695312 Z M90.748915,31.7617188 C89.6317219,32.0195325 88.7371996,32.4511688 88.0653212,33.0566406 C87.3934429,33.6621124 87.0575087,34.4257766 87.0575087,35.3476562 C87.0575087,36.3085986 87.4051615,37.0722628 88.1004775,37.6386719 C88.7957935,38.205081 89.6785971,38.4882812 90.748915,38.4882812 C91.8192328,38.4882812 92.692271,38.205081 93.3680556,37.6386719 C94.0438402,37.0722628 94.3817275,36.3085986 94.3817275,35.3476562 C94.3817275,34.4179641 94.0536058,33.6503937 93.3973525,33.0449219 C92.7410992,32.4394501 91.8582955,32.01172 90.748915,31.7617188 Z M90.748915,23.9101562 C89.8270354,23.9101562 89.0438401,24.1406227 88.3993056,24.6015625 C87.7547711,25.0625023 87.4325087,25.6953085 87.4325087,26.5 C87.4325087,28.3437592 88.5379664,29.5117163 90.748915,30.0039062 C92.9286134,29.5117163 94.0184462,28.3437592 94.0184462,26.5 C94.0184462,25.6953085 93.7020431,25.0625023 93.0692275,24.6015625 C92.4364118,24.1406227 91.662982,23.9101562 90.748915,23.9101562 Z M102.067491,22.46875 L103.930773,22.46875 L103.930773,40 L101.856554,40 L101.856554,24.6367188 C101.067487,25.1523463 100.102653,25.5937482 98.9620225,25.9609375 L98.9620225,24.0039062 C99.0870231,23.9492185 99.3409269,23.8398446 99.7237413,23.6757812 C100.106556,23.5117179 100.393662,23.3867192 100.585069,23.3007812 C100.776477,23.2148433 101.016709,23.0937508 101.305773,22.9375 C101.594836,22.7812492 101.84874,22.6250008 102.067491,22.46875 Z" id="981-copy" fill="#FFFFFF"></path>
            <path d="M151.424696,22.46875 L151.260634,24.390625 L144.100477,24.390625 C144.022352,26.6640739 143.963759,28.5038992 143.924696,29.9101562 C144.807513,29.3476534 145.764535,29.0664062 146.79579,29.0664062 C147.662982,29.0664062 148.438365,29.2050767 149.121962,29.4824219 C149.805559,29.759767 150.364147,30.1406226 150.797743,30.625 C151.231339,31.1093774 151.561414,31.6738249 151.787977,32.3183594 C152.014541,32.9628938 152.127821,33.6601525 152.127821,34.4101562 C152.127821,36.1836026 151.559468,37.6035103 150.422743,38.6699219 C149.286019,39.7363335 147.741112,40.2695312 145.787977,40.2695312 C143.82703,40.2695312 142.256733,39.7343804 141.07704,38.6640625 L141.838759,37.0117188 C142.995015,37.9179733 144.334845,38.3710938 145.85829,38.3710938 C147.139546,38.3710938 148.151255,38.0078161 148.893446,37.28125 C149.635637,36.5546839 150.006727,35.6054746 150.006727,34.4335938 C150.006727,33.3867135 149.694231,32.5371126 149.069227,31.8847656 C148.444224,31.2324186 147.553608,30.90625 146.397352,30.90625 C145.241097,30.90625 144.311418,31.2929649 143.60829,32.0664062 L141.979384,31.84375 L142.436415,22.46875 L151.424696,22.46875 Z" id="5-copy" fill="#FFFFFF"></path>
        </g>
        <g id="Group" transform="translate(707.000000, 461.000000)">
            <rect id="Rectangle-Copy-18" stroke="#FFFFFF" stroke-width="2" fill="#415C6F" fill-rule="nonzero" x="1" y="1" width="58" height="58"></rect>
            <rect id="Rectangle-Copy-19" stroke="#FFFFFF" stroke-width="2" fill="#415C6F" fill-rule="nonzero" x="59" y="1" width="58" height="58"></rect>
            <rect id="Rectangle-Copy-20" stroke="#FFFFFF" stroke-width="2" fill="#415C6F" fill-rule="nonzero" x="207" y="1" width="58" height="58"></rect>
            <path d="M22.4431424,22.46875 L24.3064237,22.46875 L24.3064237,40 L22.2322049,40 L22.2322049,24.6367188 C21.4431385,25.1523463 20.4783044,25.5937482 19.3376737,25.9609375 L19.3376737,24.0039062 C19.4626743,23.9492185 19.716578,23.8398446 20.0993924,23.6757812 C20.4822069,23.5117179 20.7693134,23.3867192 20.9607206,23.3007812 C21.1521278,23.2148433 21.3923598,23.0937508 21.6814237,22.9375 C21.9704876,22.7812492 22.2243914,22.6250008 22.4431424,22.46875 Z M28.453125,40 L28.1835938,38.078125 L34.2421875,31.3515625 C34.6484395,30.8984352 35.0410137,30.3125036 35.4199219,29.59375 C35.79883,28.8749964 36.0742179,28.2656275 36.2460938,27.765625 L36.515625,27.0273438 C36.515625,26.0585889 36.2460964,25.3066433 35.7070312,24.7714844 C35.1679661,24.2363254 34.4023487,23.96875 33.4101562,23.96875 C31.753898,23.96875 30.4492235,24.4492139 29.4960938,25.4101562 L28.8164062,23.6523438 C29.8945366,22.6367137 31.4726459,22.1289062 33.5507812,22.1289062 C35.1445392,22.1289062 36.4140578,22.5605426 37.359375,23.4238281 C38.3046922,24.2871137 38.7773438,25.441399 38.7773438,26.8867188 C38.7460936,26.9960943 38.6992191,27.1425772 38.6367188,27.3261719 C38.5742184,27.5097665 38.4394542,27.8671848 38.2324219,28.3984375 C38.0253896,28.9296902 37.8085949,29.4335914 37.5820312,29.9101562 C37.3554676,30.3867211 37.0683611,30.9101534 36.7207031,31.4804688 C36.3730451,32.0507841 36.019533,32.5273418 35.6601562,32.9101562 L30.7148438,38.1953125 L38.8359375,38.1953125 L38.7070312,40 L28.453125,40 Z" id="12-copy-2" fill="#FFFFFF"></path>
            <path d="M75.7623699,32.9921875 C74.7701775,32.9921875 73.8580772,32.7753928 73.0260418,32.3417969 C72.1940064,31.908201 71.5240912,31.2812541 71.0162762,30.4609375 C70.5084611,29.6406209 70.2545574,28.7070365 70.2545574,27.6601562 C70.2545574,26.0663983 70.801427,24.746099 71.8951824,23.6992188 C72.9889379,22.6523385 74.4186111,22.1289062 76.1842449,22.1289062 C77.098312,22.1289062 77.9283818,22.2753892 78.6744793,22.5683594 C79.4205768,22.8613296 80.0338519,23.2636693 80.5143231,23.7753906 C80.9947942,24.2871119 81.3658842,24.8847622 81.6276043,25.5683594 C81.8893244,26.2519565 82.0201824,26.9921835 82.0201824,27.7890625 C82.0201824,28.9062556 81.8287781,29.9179642 81.4459637,30.8242188 C81.0631493,31.7304733 80.4029996,32.8203061 79.4654949,34.09375 C79.1295557,34.5390647 78.5690145,35.2539013 77.7838543,36.2382812 C76.9986941,37.2226612 76.2975293,38.0937462 75.6803387,38.8515625 L74.7545574,40 L72.1764324,40 L78.3990887,32.2890625 C77.5162718,32.7578148 76.6373743,32.9921875 75.7623699,32.9921875 Z M79.8053387,27.5664062 C79.8053387,26.4960884 79.5026073,25.619144 78.8971356,24.9355469 C78.2916638,24.2519497 77.4108132,23.9101562 76.2545574,23.9101562 C75.0904891,23.9101562 74.1686233,24.2675746 73.4889324,24.9824219 C72.8092415,25.6972692 72.4694012,26.5781198 72.4694012,27.625 C72.4694012,28.7187555 72.7975229,29.5937467 73.4537762,30.25 C74.1100295,30.9062533 75.0201766,31.234375 76.1842449,31.234375 C77.4186261,31.234375 78.3307264,30.8945346 78.9205731,30.2148438 C79.5104197,29.5351529 79.8053387,28.6523492 79.8053387,27.5664062 Z M90.748915,40.2695312 C89.6864097,40.2695312 88.7274349,40.0917987 87.8719618,39.7363281 C87.0164888,39.3808576 86.3231364,38.8359412 85.7918837,38.1015625 C85.2606311,37.3671838 84.9950087,36.4960988 84.9950087,35.4882812 C84.9950087,34.3710882 85.315318,33.3984416 85.9559462,32.5703125 C86.5965744,31.7421834 87.4910967,31.1406269 88.63954,30.765625 C86.452029,29.9921836 85.35829,28.5859477 85.35829,26.546875 C85.35829,25.1640556 85.858285,24.0820352 86.85829,23.3007812 C87.858295,22.5195273 89.155157,22.1289062 90.748915,22.1289062 C92.3348604,22.1289062 93.6200038,22.5195273 94.6043837,23.3007812 C95.5887636,24.0820352 96.0809462,25.1640556 96.0809462,26.546875 C96.0809462,27.5781302 95.8153239,28.445309 95.2840712,29.1484375 C94.7528186,29.851566 94.0106385,30.3906231 93.0575087,30.765625 C94.1122015,31.1406269 94.9403182,31.7421834 95.5418837,32.5703125 C96.1434492,33.3984416 96.4442275,34.3710882 96.4442275,35.4882812 C96.4442275,36.9882888 95.9032173,38.160152 94.8211806,39.0039062 C93.7391439,39.8476605 92.3817356,40.2695312 90.748915,40.2695312 Z M90.748915,31.7617188 C89.6317219,32.0195325 88.7371996,32.4511688 88.0653212,33.0566406 C87.3934429,33.6621124 87.0575087,34.4257766 87.0575087,35.3476562 C87.0575087,36.3085986 87.4051615,37.0722628 88.1004775,37.6386719 C88.7957935,38.205081 89.6785971,38.4882812 90.748915,38.4882812 C91.8192328,38.4882812 92.692271,38.205081 93.3680556,37.6386719 C94.0438402,37.0722628 94.3817275,36.3085986 94.3817275,35.3476562 C94.3817275,34.4179641 94.0536058,33.6503937 93.3973525,33.0449219 C92.7410992,32.4394501 91.8582955,32.01172 90.748915,31.7617188 Z M90.748915,23.9101562 C89.8270354,23.9101562 89.0438401,24.1406227 88.3993056,24.6015625 C87.7547711,25.0625023 87.4325087,25.6953085 87.4325087,26.5 C87.4325087,28.3437592 88.5379664,29.5117163 90.748915,30.0039062 C92.9286134,29.5117163 94.0184462,28.3437592 94.0184462,26.5 C94.0184462,25.6953085 93.7020431,25.0625023 93.0692275,24.6015625 C92.4364118,24.1406227 91.662982,23.9101562 90.748915,23.9101562 Z M102.067491,22.46875 L103.930773,22.46875 L103.930773,40 L101.856554,40 L101.856554,24.6367188 C101.067487,25.1523463 100.102653,25.5937482 98.9620225,25.9609375 L98.9620225,24.0039062 C99.0870231,23.9492185 99.3409269,23.8398446 99.7237413,23.6757812 C100.106556,23.5117179 100.393662,23.3867192 100.585069,23.3007812 C100.776477,23.2148433 101.016709,23.0937508 101.305773,22.9375 C101.594836,22.7812492 101.84874,22.6250008 102.067491,22.46875 Z" id="981-copy-2" fill="#FFFFFF"></path>
            <path d="M241.424696,22.46875 L241.260634,24.390625 L234.100477,24.390625 C234.022352,26.6640739 233.963759,28.5038992 233.924696,29.9101562 C234.807513,29.3476534 235.764535,29.0664062 236.79579,29.0664062 C237.662982,29.0664062 238.438365,29.2050767 239.121962,29.4824219 C239.805559,29.759767 240.364147,30.1406226 240.797743,30.625 C241.231339,31.1093774 241.561414,31.6738249 241.787977,32.3183594 C242.014541,32.9628938 242.127821,33.6601525 242.127821,34.4101562 C242.127821,36.1836026 241.559468,37.6035103 240.422743,38.6699219 C239.286019,39.7363335 237.741112,40.2695312 235.787977,40.2695312 C233.82703,40.2695312 232.256733,39.7343804 231.07704,38.6640625 L231.838759,37.0117188 C232.995015,37.9179733 234.334845,38.3710938 235.85829,38.3710938 C237.139546,38.3710938 238.151255,38.0078161 238.893446,37.28125 C239.635637,36.5546839 240.006727,35.6054746 240.006727,34.4335938 C240.006727,33.3867135 239.694231,32.5371126 239.069227,31.8847656 C238.444224,31.2324186 237.553608,30.90625 236.397352,30.90625 C235.241097,30.90625 234.311418,31.2929649 233.60829,32.0664062 L231.979384,31.84375 L232.436415,22.46875 L241.424696,22.46875 Z" id="5-copy-2" fill="#FFFFFF"></path>
        </g>
        <g id="Group-2" transform="translate(682.000000, 577.000000)">
            <rect id="Rectangle-Copy-25" stroke="#FFFFFF" stroke-width="2" fill="#415C6F" fill-rule="nonzero" x="1" y="1" width="58" height="58"></rect>
            <rect id="Rectangle-Copy-26" stroke="#FFFFFF" stroke-width="2" fill="#415C6F" fill-rule="nonzero" x="109" y="1" width="58" height="58"></rect>
            <rect id="Rectangle-Copy-27" stroke="#FFFFFF" stroke-width="2" fill="#415C6F" fill-rule="nonzero" x="257" y="1" width="58" height="58"></rect>
            <path d="M22.4431424,22.46875 L24.3064237,22.46875 L24.3064237,40 L22.2322049,40 L22.2322049,24.6367188 C21.4431385,25.1523463 20.4783044,25.5937482 19.3376737,25.9609375 L19.3376737,24.0039062 C19.4626743,23.9492185 19.716578,23.8398446 20.0993924,23.6757812 C20.4822069,23.5117179 20.7693134,23.3867192 20.9607206,23.3007812 C21.1521278,23.2148433 21.3923598,23.0937508 21.6814237,22.9375 C21.9704876,22.7812492 22.2243914,22.6250008 22.4431424,22.46875 Z M28.453125,40 L28.1835938,38.078125 L34.2421875,31.3515625 C34.6484395,30.8984352 35.0410137,30.3125036 35.4199219,29.59375 C35.79883,28.8749964 36.0742179,28.2656275 36.2460938,27.765625 L36.515625,27.0273438 C36.515625,26.0585889 36.2460964,25.3066433 35.7070312,24.7714844 C35.1679661,24.2363254 34.4023487,23.96875 33.4101562,23.96875 C31.753898,23.96875 30.4492235,24.4492139 29.4960938,25.4101562 L28.8164062,23.6523438 C29.8945366,22.6367137 31.4726459,22.1289062 33.5507812,22.1289062 C35.1445392,22.1289062 36.4140578,22.5605426 37.359375,23.4238281 C38.3046922,24.2871137 38.7773438,25.441399 38.7773438,26.8867188 C38.7460936,26.9960943 38.6992191,27.1425772 38.6367188,27.3261719 C38.5742184,27.5097665 38.4394542,27.8671848 38.2324219,28.3984375 C38.0253896,28.9296902 37.8085949,29.4335914 37.5820312,29.9101562 C37.3554676,30.3867211 37.0683611,30.9101534 36.7207031,31.4804688 C36.3730451,32.0507841 36.019533,32.5273418 35.6601562,32.9101562 L30.7148438,38.1953125 L38.8359375,38.1953125 L38.7070312,40 L28.453125,40 Z" id="12-copy-3" fill="#FFFFFF"></path>
            <path d="M125.76237,32.9921875 C124.770177,32.9921875 123.858077,32.7753928 123.026042,32.3417969 C122.194006,31.908201 121.524091,31.2812541 121.016276,30.4609375 C120.508461,29.6406209 120.254557,28.7070365 120.254557,27.6601562 C120.254557,26.0663983 120.801427,24.746099 121.895182,23.6992188 C122.988938,22.6523385 124.418611,22.1289062 126.184245,22.1289062 C127.098312,22.1289062 127.928382,22.2753892 128.674479,22.5683594 C129.420577,22.8613296 130.033852,23.2636693 130.514323,23.7753906 C130.994794,24.2871119 131.365884,24.8847622 131.627604,25.5683594 C131.889324,26.2519565 132.020182,26.9921835 132.020182,27.7890625 C132.020182,28.9062556 131.828778,29.9179642 131.445964,30.8242188 C131.063149,31.7304733 130.403,32.8203061 129.465495,34.09375 C129.129556,34.5390647 128.569014,35.2539013 127.783854,36.2382812 C126.998694,37.2226612 126.297529,38.0937462 125.680339,38.8515625 L124.754557,40 L122.176432,40 L128.399089,32.2890625 C127.516272,32.7578148 126.637374,32.9921875 125.76237,32.9921875 Z M129.805339,27.5664062 C129.805339,26.4960884 129.502607,25.619144 128.897136,24.9355469 C128.291664,24.2519497 127.410813,23.9101562 126.254557,23.9101562 C125.090489,23.9101562 124.168623,24.2675746 123.488932,24.9824219 C122.809242,25.6972692 122.469401,26.5781198 122.469401,27.625 C122.469401,28.7187555 122.797523,29.5937467 123.453776,30.25 C124.110029,30.9062533 125.020177,31.234375 126.184245,31.234375 C127.418626,31.234375 128.330726,30.8945346 128.920573,30.2148438 C129.51042,29.5351529 129.805339,28.6523492 129.805339,27.5664062 Z M140.748915,40.2695312 C139.68641,40.2695312 138.727435,40.0917987 137.871962,39.7363281 C137.016489,39.3808576 136.323136,38.8359412 135.791884,38.1015625 C135.260631,37.3671838 134.995009,36.4960988 134.995009,35.4882812 C134.995009,34.3710882 135.315318,33.3984416 135.955946,32.5703125 C136.596574,31.7421834 137.491097,31.1406269 138.63954,30.765625 C136.452029,29.9921836 135.35829,28.5859477 135.35829,26.546875 C135.35829,25.1640556 135.858285,24.0820352 136.85829,23.3007812 C137.858295,22.5195273 139.155157,22.1289062 140.748915,22.1289062 C142.33486,22.1289062 143.620004,22.5195273 144.604384,23.3007812 C145.588764,24.0820352 146.080946,25.1640556 146.080946,26.546875 C146.080946,27.5781302 145.815324,28.445309 145.284071,29.1484375 C144.752819,29.851566 144.010638,30.3906231 143.057509,30.765625 C144.112201,31.1406269 144.940318,31.7421834 145.541884,32.5703125 C146.143449,33.3984416 146.444227,34.3710882 146.444227,35.4882812 C146.444227,36.9882888 145.903217,38.160152 144.821181,39.0039062 C143.739144,39.8476605 142.381736,40.2695312 140.748915,40.2695312 Z M140.748915,31.7617188 C139.631722,32.0195325 138.7372,32.4511688 138.065321,33.0566406 C137.393443,33.6621124 137.057509,34.4257766 137.057509,35.3476562 C137.057509,36.3085986 137.405161,37.0722628 138.100477,37.6386719 C138.795793,38.205081 139.678597,38.4882812 140.748915,38.4882812 C141.819233,38.4882812 142.692271,38.205081 143.368056,37.6386719 C144.04384,37.0722628 144.381727,36.3085986 144.381727,35.3476562 C144.381727,34.4179641 144.053606,33.6503937 143.397352,33.0449219 C142.741099,32.4394501 141.858296,32.01172 140.748915,31.7617188 Z M140.748915,23.9101562 C139.827035,23.9101562 139.04384,24.1406227 138.399306,24.6015625 C137.754771,25.0625023 137.432509,25.6953085 137.432509,26.5 C137.432509,28.3437592 138.537966,29.5117163 140.748915,30.0039062 C142.928613,29.5117163 144.018446,28.3437592 144.018446,26.5 C144.018446,25.6953085 143.702043,25.0625023 143.069227,24.6015625 C142.436412,24.1406227 141.662982,23.9101562 140.748915,23.9101562 Z M152.067491,22.46875 L153.930773,22.46875 L153.930773,40 L151.856554,40 L151.856554,24.6367188 C151.067487,25.1523463 150.102653,25.5937482 148.962023,25.9609375 L148.962023,24.0039062 C149.087023,23.9492185 149.340927,23.8398446 149.723741,23.6757812 C150.106556,23.5117179 150.393662,23.3867192 150.585069,23.3007812 C150.776477,23.2148433 151.016709,23.0937508 151.305773,22.9375 C151.594836,22.7812492 151.84874,22.6250008 152.067491,22.46875 Z" id="981-copy-3" fill="#FFFFFF"></path>
            <path d="M291.424696,22.46875 L291.260634,24.390625 L284.100477,24.390625 C284.022352,26.6640739 283.963759,28.5038992 283.924696,29.9101562 C284.807513,29.3476534 285.764535,29.0664062 286.79579,29.0664062 C287.662982,29.0664062 288.438365,29.2050767 289.121962,29.4824219 C289.805559,29.759767 290.364147,30.1406226 290.797743,30.625 C291.231339,31.1093774 291.561414,31.6738249 291.787977,32.3183594 C292.014541,32.9628938 292.127821,33.6601525 292.127821,34.4101562 C292.127821,36.1836026 291.559468,37.6035103 290.422743,38.6699219 C289.286019,39.7363335 287.741112,40.2695312 285.787977,40.2695312 C283.82703,40.2695312 282.256733,39.7343804 281.07704,38.6640625 L281.838759,37.0117188 C282.995015,37.9179733 284.334845,38.3710938 285.85829,38.3710938 C287.139546,38.3710938 288.151255,38.0078161 288.893446,37.28125 C289.635637,36.5546839 290.006727,35.6054746 290.006727,34.4335938 C290.006727,33.3867135 289.694231,32.5371126 289.069227,31.8847656 C288.444224,31.2324186 287.553608,30.90625 286.397352,30.90625 C285.241097,30.90625 284.311418,31.2929649 283.60829,32.0664062 L281.979384,31.84375 L282.436415,22.46875 L291.424696,22.46875 Z" id="5-copy-3" fill="#FFFFFF"></path>
        </g>
        <path d="M426.617117,324.131394 L415.597739,332.385837 L417.192579,333.089443 L415.860566,319.385858 L415.76382,318.390548 L413.773202,318.58404 L413.869948,319.579349 L415.201961,333.282934 L415.373953,335.052373 L416.796801,333.98654 L427.816178,325.732098 L428.61653,325.132567 L427.417468,323.531864 L426.617117,324.131394 Z M430.585082,298.09636 L420.088356,321.88894 L415.988722,331.181442 L415.585082,332.09636 L417.414918,332.90364 L417.818558,331.988722 L421.918191,322.69622 L432.414918,298.90364 L432.818558,297.988722 L430.988722,297.181442 L430.585082,298.09636 Z" id="Line-4-Copy" fill="#FFFFFF" fill-rule="nonzero"></path>
        <path d="M317.617117,440.131394 L306.597739,448.385837 L308.192579,449.089443 L306.860566,435.385858 L306.76382,434.390548 L304.773202,434.58404 L304.869948,435.579349 L306.201961,449.282934 L306.373953,451.052373 L307.796801,449.98654 L318.816178,441.732098 L319.61653,441.132567 L318.417468,439.531864 L317.617117,440.131394 Z M321.585082,414.09636 L311.088356,437.88894 L306.988722,447.181442 L306.585082,448.09636 L308.414918,448.90364 L308.818558,447.988722 L312.918191,438.69622 L323.414918,414.90364 L323.818558,413.988722 L321.988722,413.181442 L321.585082,414.09636 Z" id="Line-4-Copy-3" fill="#FFFFFF" fill-rule="nonzero"></path>
        <path d="M269.617117,556.131394 L258.597739,564.385837 L260.192579,565.089443 L258.860566,551.385858 L258.76382,550.390548 L256.773202,550.58404 L256.869948,551.579349 L258.201961,565.282934 L258.373953,567.052373 L259.796801,565.98654 L270.816178,557.732098 L271.61653,557.132567 L270.417468,555.531864 L269.617117,556.131394 Z M273.585082,530.09636 L263.088356,553.88894 L258.988722,563.181442 L258.585082,564.09636 L260.414918,564.90364 L260.818558,563.988722 L264.918191,554.69622 L275.414918,530.90364 L275.818558,529.988722 L273.988722,529.181442 L273.585082,530.09636 Z" id="Line-4-Copy-7" fill="#FFFFFF" fill-rule="nonzero"></path>
        <path d="M763.617117,440.131394 L752.597739,448.385837 L754.192579,449.089443 L752.860566,435.385858 L752.76382,434.390548 L750.773202,434.58404 L750.869948,435.579349 L752.201961,449.282934 L752.373953,451.052373 L753.796801,449.98654 L764.816178,441.732098 L765.61653,441.132567 L764.417468,439.531864 L763.617117,440.131394 Z M767.585082,414.09636 L757.088356,437.88894 L752.988722,447.181442 L752.585082,448.09636 L754.414918,448.90364 L754.818558,447.988722 L758.918191,438.69622 L769.414918,414.90364 L769.818558,413.988722 L767.988722,413.181442 L767.585082,414.09636 Z" id="Line-4-Copy-5" fill="#FFFFFF" fill-rule="nonzero"></path>
        <path d="M732.617117,556.131394 L721.597739,564.385837 L723.192579,565.089443 L721.860566,551.385858 L721.76382,550.390548 L719.773202,550.58404 L719.869948,551.579349 L721.201961,565.282934 L721.373953,567.052373 L722.796801,565.98654 L733.816178,557.732098 L734.61653,557.132567 L733.417468,555.531864 L732.617117,556.131394 Z M736.585082,530.09636 L726.088356,553.88894 L721.988722,563.181442 L721.585082,564.09636 L723.414918,564.90364 L723.818558,563.988722 L727.918191,554.69622 L738.414918,530.90364 L738.818558,529.988722 L736.988722,529.181442 L736.585082,530.09636 Z" id="Line-4-Copy-8" fill="#FFFFFF" fill-rule="nonzero"></path>
        <path d="M474.617117,556.131394 L463.597739,564.385837 L465.192579,565.089443 L463.860566,551.385858 L463.76382,550.390548 L461.773202,550.58404 L461.869948,551.579349 L463.201961,565.282934 L463.373953,567.052373 L464.796801,565.98654 L475.816178,557.732098 L476.61653,557.132567 L475.417468,555.531864 L474.617117,556.131394 Z M478.585082,530.09636 L468.088356,553.88894 L463.988722,563.181442 L463.585082,564.09636 L465.414918,564.90364 L465.818558,563.988722 L469.918191,554.69622 L480.414918,530.90364 L480.818558,529.988722 L478.988722,529.181442 L478.585082,530.09636 Z" id="Line-4-Copy-13" fill="#FFFFFF" fill-rule="nonzero"></path>
        <path d="M796.139434,319.385858 L794.807421,333.089443 L796.402261,332.385837 L785.382883,324.131394 L784.582532,323.531864 L783.38347,325.132567 L784.183822,325.732098 L795.203199,333.98654 L796.626047,335.052373 L796.798039,333.282934 L798.130052,319.579349 L798.226798,318.58404 L796.23618,318.390548 L796.139434,319.385858 Z M779.585082,298.90364 L790.081809,322.69622 L794.181442,331.988722 L794.585082,332.90364 L796.414918,332.09636 L796.011278,331.181442 L791.911644,321.88894 L781.414918,298.09636 L781.011278,297.181442 L779.181442,297.988722 L779.585082,298.90364 Z" id="Line-4-Copy-2" fill="#FFFFFF" fill-rule="nonzero"></path>
        <path d="M930.139434,435.385858 L928.807421,449.089443 L930.402261,448.385837 L919.382883,440.131394 L918.582532,439.531864 L917.38347,441.132567 L918.183822,441.732098 L929.203199,449.98654 L930.626047,451.052373 L930.798039,449.282934 L932.130052,435.579349 L932.226798,434.58404 L930.23618,434.390548 L930.139434,435.385858 Z M913.585082,414.90364 L924.081809,438.69622 L928.181442,447.988722 L928.585082,448.90364 L930.414918,448.09636 L930.011278,447.181442 L925.911644,437.88894 L915.414918,414.09636 L915.011278,413.181442 L913.181442,413.988722 L913.585082,414.90364 Z" id="Line-4-Copy-4" fill="#FFFFFF" fill-rule="nonzero"></path>
        <path d="M961.139434,551.385858 L959.807421,565.089443 L961.402261,564.385837 L950.382883,556.131394 L949.582532,555.531864 L948.38347,557.132567 L949.183822,557.732098 L960.203199,565.98654 L961.626047,567.052373 L961.798039,565.282934 L963.130052,551.579349 L963.226798,550.58404 L961.23618,550.390548 L961.139434,551.385858 Z M944.585082,530.90364 L955.081809,554.69622 L959.181442,563.988722 L959.585082,564.90364 L961.414918,564.09636 L961.011278,563.181442 L956.911644,553.88894 L946.414918,530.09636 L946.011278,529.181442 L944.181442,529.988722 L944.585082,530.90364 Z" id="Line-4-Copy-9" fill="#FFFFFF" fill-rule="nonzero"></path>
        <path d="M812.139434,551.385858 L810.807421,565.089443 L812.402261,564.385837 L801.382883,556.131394 L800.582532,555.531864 L799.38347,557.132567 L800.183822,557.732098 L811.203199,565.98654 L812.626047,567.052373 L812.798039,565.282934 L814.130052,551.579349 L814.226798,550.58404 L812.23618,550.390548 L812.139434,551.385858 Z M795.585082,530.90364 L806.081809,554.69622 L810.181442,563.988722 L810.585082,564.90364 L812.414918,564.09636 L812.011278,563.181442 L807.911644,553.88894 L797.414918,530.09636 L797.011278,529.181442 L795.181442,529.988722 L795.585082,530.90364 Z" id="Line-4-Copy-11" fill="#FFFFFF" fill-rule="nonzero"></path>
        <path d="M509.139434,435.385858 L507.807421,449.089443 L509.402261,448.385837 L498.382883,440.131394 L497.582532,439.531864 L496.38347,441.132567 L497.183822,441.732098 L508.203199,449.98654 L509.626047,451.052373 L509.798039,449.282934 L511.130052,435.579349 L511.226798,434.58404 L509.23618,434.390548 L509.139434,435.385858 Z M492.585082,414.90364 L503.081809,438.69622 L507.181442,447.988722 L507.585082,448.90364 L509.414918,448.09636 L509.011278,447.181442 L504.911644,437.88894 L494.414918,414.09636 L494.011278,413.181442 L492.181442,413.988722 L492.585082,414.90364 Z" id="Line-4-Copy-6" fill="#FFFFFF" fill-rule="nonzero"></path>
        <path d="M554.139434,551.385858 L552.807421,565.089443 L554.402261,564.385837 L543.382883,556.131394 L542.582532,555.531864 L541.38347,557.132567 L542.183822,557.732098 L553.203199,565.98654 L554.626047,567.052373 L554.798039,565.282934 L556.130052,551.579349 L556.226798,550.58404 L554.23618,550.390548 L554.139434,551.385858 Z M537.585082,530.90364 L548.081809,554.69622 L552.181442,563.988722 L552.585082,564.90364 L554.414918,564.09636 L554.011278,563.181442 L549.911644,553.88894 L539.414918,530.09636 L539.011278,529.181442 L537.181442,529.988722 L537.585082,530.90364 Z" id="Line-4-Copy-10" fill="#FFFFFF" fill-rule="nonzero"></path>
        <path d="M350.139434,551.385858 L348.807421,565.089443 L350.402261,564.385837 L339.382883,556.131394 L338.582532,555.531864 L337.38347,557.132567 L338.183822,557.732098 L349.203199,565.98654 L350.626047,567.052373 L350.798039,565.282934 L352.130052,551.579349 L352.226798,550.58404 L350.23618,550.390548 L350.139434,551.385858 Z M333.585082,530.90364 L344.081809,554.69622 L348.181442,563.988722 L348.585082,564.90364 L350.414918,564.09636 L350.011278,563.181442 L345.911644,553.88894 L335.414918,530.09636 L335.011278,529.181442 L333.181442,529.988722 L333.585082,530.90364 Z" id="Line-4-Copy-12" fill="#FFFFFF" fill-rule="nonzero"></path>
        <g id="Group-14" transform="translate(402.000000, 229.000000)">
            <rect id="Rectangle" stroke="#FFFFFF" stroke-width="2" fill="#415C6F" fill-rule="nonzero" x="1" y="1" width="58" height="58"></rect>
            <rect id="Rectangle-Copy" stroke="#FFFFFF" stroke-width="2" fill="#415C6F" fill-rule="nonzero" x="59" y="1" width="58" height="58"></rect>
            <rect id="Rectangle-Copy-2" stroke="#FFFFFF" stroke-width="2" fill="#415C6F" fill-rule="nonzero" x="117" y="1" width="58" height="58"></rect>
            <rect id="Rectangle-Copy-3" stroke="#FFFFFF" stroke-width="2" fill="#415C6F" fill-rule="nonzero" x="175" y="1" width="58" height="58"></rect>
            <rect id="Rectangle-Copy-4" stroke="#FFFFFF" stroke-width="2" fill="#415C6F" fill-rule="nonzero" x="233" y="1" width="58" height="58"></rect>
            <rect id="Rectangle-Copy-5" stroke="#FFFFFF" stroke-width="2" fill="#415C6F" fill-rule="nonzero" x="291" y="1" width="58" height="58"></rect>
            <rect id="Rectangle-Copy-6" stroke="#FFFFFF" stroke-width="2" fill="#415C6F" fill-rule="nonzero" x="349" y="1" width="58" height="58"></rect>
            <path d="M21.8747831,32.9921875 C20.8825906,32.9921875 19.9704904,32.7753928 19.1384549,32.3417969 C18.3064195,31.908201 17.6365044,31.2812541 17.1286893,30.4609375 C16.6208743,29.6406209 16.3669706,28.7070365 16.3669706,27.6601562 C16.3669706,26.0663983 16.9138401,24.746099 18.0075956,23.6992188 C19.101351,22.6523385 20.5310242,22.1289062 22.2966581,22.1289062 C23.2107251,22.1289062 24.040795,22.2753892 24.7868924,22.5683594 C25.5329899,22.8613296 26.146265,23.2636693 26.6267362,23.7753906 C27.1072074,24.2871119 27.4782974,24.8847622 27.7400174,25.5683594 C28.0017375,26.2519565 28.1325956,26.9921835 28.1325956,27.7890625 C28.1325956,28.9062556 27.9411912,29.9179642 27.5583768,30.8242188 C27.1755624,31.7304733 26.5154128,32.8203061 25.5779081,34.09375 C25.2419689,34.5390647 24.6814276,35.2539013 23.8962674,36.2382812 C23.1111073,37.2226612 22.4099424,38.0937462 21.7927518,38.8515625 L20.8669706,40 L18.2888456,40 L24.5115018,32.2890625 C23.6286849,32.7578148 22.7497874,32.9921875 21.8747831,32.9921875 Z M25.9177518,27.5664062 C25.9177518,26.4960884 25.6150205,25.619144 25.0095487,24.9355469 C24.4040769,24.2519497 23.5232264,23.9101562 22.3669706,23.9101562 C21.2029023,23.9101562 20.2810365,24.2675746 19.6013456,24.9824219 C18.9216547,25.6972692 18.5818143,26.5781198 18.5818143,27.625 C18.5818143,28.7187555 18.909936,29.5937467 19.5661893,30.25 C20.2224426,30.9062533 21.1325898,31.234375 22.2966581,31.234375 C23.5310392,31.234375 24.4431395,30.8945346 25.0329862,30.2148438 C25.6228329,29.5351529 25.9177518,28.6523492 25.9177518,27.5664062 Z M36.8613281,40.2695312 C35.7988228,40.2695312 34.839848,40.0917987 33.984375,39.7363281 C33.128902,39.3808576 32.4355495,38.8359412 31.9042969,38.1015625 C31.3730442,37.3671838 31.1074219,36.4960988 31.1074219,35.4882812 C31.1074219,34.3710882 31.4277312,33.3984416 32.0683594,32.5703125 C32.7089876,31.7421834 33.6035099,31.1406269 34.7519531,30.765625 C32.5644422,29.9921836 31.4707031,28.5859477 31.4707031,26.546875 C31.4707031,25.1640556 31.9706981,24.0820352 32.9707031,23.3007812 C33.9707081,22.5195273 35.2675702,22.1289062 36.8613281,22.1289062 C38.4472736,22.1289062 39.732417,22.5195273 40.7167969,23.3007812 C41.7011768,24.0820352 42.1933594,25.1640556 42.1933594,26.546875 C42.1933594,27.5781302 41.927737,28.445309 41.3964844,29.1484375 C40.8652317,29.851566 40.1230516,30.3906231 39.1699219,30.765625 C40.2246146,31.1406269 41.0527314,31.7421834 41.6542969,32.5703125 C42.2558624,33.3984416 42.5566406,34.3710882 42.5566406,35.4882812 C42.5566406,36.9882888 42.0156304,38.160152 40.9335938,39.0039062 C39.8515571,39.8476605 38.4941488,40.2695312 36.8613281,40.2695312 Z M36.8613281,31.7617188 C35.744135,32.0195325 34.8496127,32.4511688 34.1777344,33.0566406 C33.505856,33.6621124 33.1699219,34.4257766 33.1699219,35.3476562 C33.1699219,36.3085986 33.5175746,37.0722628 34.2128906,37.6386719 C34.9082066,38.205081 35.7910103,38.4882812 36.8613281,38.4882812 C37.931646,38.4882812 38.8046841,38.205081 39.4804688,37.6386719 C40.1562534,37.0722628 40.4941406,36.3085986 40.4941406,35.3476562 C40.4941406,34.4179641 40.1660189,33.6503937 39.5097656,33.0449219 C38.8535123,32.4394501 37.9707087,32.01172 36.8613281,31.7617188 Z M36.8613281,23.9101562 C35.9394485,23.9101562 35.1562532,24.1406227 34.5117188,24.6015625 C33.8671843,25.0625023 33.5449219,25.6953085 33.5449219,26.5 C33.5449219,28.3437592 34.6503796,29.5117163 36.8613281,30.0039062 C39.0410265,29.5117163 40.1308594,28.3437592 40.1308594,26.5 C40.1308594,25.6953085 39.8144563,25.0625023 39.1816406,24.6015625 C38.548825,24.1406227 37.7753952,23.9101562 36.8613281,23.9101562 Z" id="98" fill="#FFFFFF"></path>
            <path d="M81.5193143,22.46875 L83.3825956,22.46875 L83.3825956,40 L81.3083768,40 L81.3083768,24.6367188 C80.5193104,25.1523463 79.5544763,25.5937482 78.4138456,25.9609375 L78.4138456,24.0039062 C78.5388462,23.9492185 78.7927499,23.8398446 79.1755643,23.6757812 C79.5583787,23.5117179 79.8454852,23.3867192 80.0368924,23.3007812 C80.2282997,23.2148433 80.4685316,23.0937508 80.7575956,22.9375 C81.0466595,22.7812492 81.3005632,22.6250008 81.5193143,22.46875 Z M92.0175781,40.2695312 C90.9706979,40.2695312 90.0390666,40.1328139 89.2226562,39.859375 C88.4062459,39.5859361 87.8105487,39.269533 87.4355469,38.9101562 L88.0917969,37.1875 C89.1933649,38.0546918 90.5058518,38.4882812 92.0292969,38.4882812 C93.2011777,38.4882812 94.132809,38.1972685 94.8242188,37.6152344 C95.5156285,37.0332002 95.8613281,36.2187552 95.8613281,35.171875 C95.8613281,34.6015596 95.7734384,34.1035178 95.5976562,33.6777344 C95.4218741,33.251951 95.1875015,32.9082044 94.8945312,32.6464844 C94.601561,32.3847643 94.2265648,32.1738289 93.7695312,32.0136719 C93.3124977,31.8535148 92.8437524,31.7402347 92.3632812,31.6738281 C91.8828101,31.6074215 91.326175,31.5664063 90.6933594,31.5507812 C90.615234,31.5507812 90.4980477,31.5488281 90.3417969,31.5449219 C90.1855461,31.5410156 90.0683598,31.5390625 89.9902344,31.5390625 L89.9902344,29.7929688 L90.5761719,29.7929688 C91.1230496,29.7851562 91.6054667,29.7558596 92.0234375,29.7050781 C92.4414083,29.6542966 92.8593729,29.5625007 93.2773438,29.4296875 C93.6953146,29.2968743 94.0410143,29.1210948 94.3144531,28.9023438 C94.587892,28.6835927 94.810546,28.3906268 94.9824219,28.0234375 C95.1542977,27.6562482 95.2402344,27.2226588 95.2402344,26.7226562 C95.2402344,24.8476469 94.1660264,23.9101562 92.0175781,23.9101562 C91.2441368,23.9101562 90.5175815,24.0234364 89.8378906,24.25 C89.1581997,24.4765636 88.5761743,24.7812481 88.0917969,25.1640625 L87.4355469,23.453125 C88.5996152,22.5703081 90.2753797,22.1289062 92.4628906,22.1289062 C93.3457075,22.1289062 94.1621056,22.291014 94.9121094,22.6152344 C95.6621131,22.9394547 96.2792945,23.4355435 96.7636719,24.1035156 C97.2480493,24.7714877 97.4902344,25.554683 97.4902344,26.453125 C97.4902344,27.5468805 97.2207058,28.445309 96.6816406,29.1484375 C96.1425754,29.851566 95.3847705,30.3554672 94.4082031,30.6601562 C95.5019586,30.8945324 96.3593719,31.4062461 96.9804688,32.1953125 C97.6015656,32.9843789 97.9121094,33.9843689 97.9121094,35.1953125 C97.9121094,36.7343827 97.3613336,37.9648391 96.2597656,38.8867188 C95.1581976,39.8085984 93.7441493,40.2695312 92.0175781,40.2695312 Z" id="13" fill="#FFFFFF"></path>
            <path d="M125.192057,40 L124.922526,38.078125 L130.98112,31.3515625 C131.387372,30.8984352 131.779946,30.3125036 132.158854,29.59375 C132.537762,28.8749964 132.81315,28.2656275 132.985026,27.765625 L133.254557,27.0273438 C133.254557,26.0585889 132.985029,25.3066433 132.445964,24.7714844 C131.906898,24.2363254 131.141281,23.96875 130.149089,23.96875 C128.49283,23.96875 127.188156,24.4492139 126.235026,25.4101562 L125.555339,23.6523438 C126.633469,22.6367137 128.211578,22.1289062 130.289714,22.1289062 C131.883472,22.1289062 133.15299,22.5605426 134.098307,23.4238281 C135.043625,24.2871137 135.516276,25.441399 135.516276,26.8867188 C135.485026,26.9960943 135.438151,27.1425772 135.375651,27.3261719 C135.313151,27.5097665 135.178387,27.8671848 134.971354,28.3984375 C134.764322,28.9296902 134.547527,29.4335914 134.320964,29.9101562 C134.0944,30.3867211 133.807294,30.9101534 133.459636,31.4804688 C133.111978,32.0507841 132.758465,32.5273418 132.399089,32.9101562 L127.453776,38.1953125 L135.57487,38.1953125 L135.445964,40 L125.192057,40 Z M140.893446,40 L146.916884,24.2851562 L139.006727,24.2851562 L139.135634,22.46875 L149.29579,22.46875 L149.29579,24.0625 L143.026259,40 L140.893446,40 Z M164.200304,35.6523438 L162.208116,35.6523438 L162.208116,40 L160.239366,40 L160.239366,35.6523438 L152.317491,35.6523438 L152.317491,33.859375 L160.01671,22.46875 L162.208116,22.46875 L162.208116,33.953125 L164.364366,33.953125 L164.200304,35.6523438 Z M160.239366,25.1289062 L154.379991,33.953125 L160.239366,33.953125 L160.239366,25.1289062 Z" id="274" fill="#FFFFFF"></path>
            <polygon id="7" fill="#FFFFFF" points="200.450087 40 206.473524 24.2851562 198.563368 24.2851562 198.692274 22.46875 208.852431 22.46875 208.852431 24.0625 202.582899 40"></polygon>
            <path d="M254.443142,22.46875 L256.306424,22.46875 L256.306424,40 L254.232205,40 L254.232205,24.6367188 C253.443139,25.1523463 252.478304,25.5937482 251.337674,25.9609375 L251.337674,24.0039062 C251.462674,23.9492185 251.716578,23.8398446 252.099392,23.6757812 C252.482207,23.5117179 252.769313,23.3867192 252.960721,23.3007812 C253.152128,23.2148433 253.39236,23.0937508 253.681424,22.9375 C253.970488,22.7812492 254.224391,22.6250008 254.443142,22.46875 Z M260.453125,40 L260.183594,38.078125 L266.242188,31.3515625 C266.64844,30.8984352 267.041014,30.3125036 267.419922,29.59375 C267.79883,28.8749964 268.074218,28.2656275 268.246094,27.765625 L268.515625,27.0273438 C268.515625,26.0585889 268.246096,25.3066433 267.707031,24.7714844 C267.167966,24.2363254 266.402349,23.96875 265.410156,23.96875 C263.753898,23.96875 262.449224,24.4492139 261.496094,25.4101562 L260.816406,23.6523438 C261.894537,22.6367137 263.472646,22.1289062 265.550781,22.1289062 C267.144539,22.1289062 268.414058,22.5605426 269.359375,23.4238281 C270.304692,24.2871137 270.777344,25.441399 270.777344,26.8867188 C270.746094,26.9960943 270.699219,27.1425772 270.636719,27.3261719 C270.574218,27.5097665 270.439454,27.8671848 270.232422,28.3984375 C270.02539,28.9296902 269.808595,29.4335914 269.582031,29.9101562 C269.355468,30.3867211 269.068361,30.9101534 268.720703,31.4804688 C268.373045,32.0507841 268.019533,32.5273418 267.660156,32.9101562 L262.714844,38.1953125 L270.835938,38.1953125 L270.707031,40 L260.453125,40 Z" id="12" fill="#FFFFFF"></path>
            <path d="M307.76237,32.9921875 C306.770177,32.9921875 305.858077,32.7753928 305.026042,32.3417969 C304.194006,31.908201 303.524091,31.2812541 303.016276,30.4609375 C302.508461,29.6406209 302.254557,28.7070365 302.254557,27.6601562 C302.254557,26.0663983 302.801427,24.746099 303.895182,23.6992188 C304.988938,22.6523385 306.418611,22.1289062 308.184245,22.1289062 C309.098312,22.1289062 309.928382,22.2753892 310.674479,22.5683594 C311.420577,22.8613296 312.033852,23.2636693 312.514323,23.7753906 C312.994794,24.2871119 313.365884,24.8847622 313.627604,25.5683594 C313.889324,26.2519565 314.020182,26.9921835 314.020182,27.7890625 C314.020182,28.9062556 313.828778,29.9179642 313.445964,30.8242188 C313.063149,31.7304733 312.403,32.8203061 311.465495,34.09375 C311.129556,34.5390647 310.569014,35.2539013 309.783854,36.2382812 C308.998694,37.2226612 308.297529,38.0937462 307.680339,38.8515625 L306.754557,40 L304.176432,40 L310.399089,32.2890625 C309.516272,32.7578148 308.637374,32.9921875 307.76237,32.9921875 Z M311.805339,27.5664062 C311.805339,26.4960884 311.502607,25.619144 310.897136,24.9355469 C310.291664,24.2519497 309.410813,23.9101562 308.254557,23.9101562 C307.090489,23.9101562 306.168623,24.2675746 305.488932,24.9824219 C304.809242,25.6972692 304.469401,26.5781198 304.469401,27.625 C304.469401,28.7187555 304.797523,29.5937467 305.453776,30.25 C306.110029,30.9062533 307.020177,31.234375 308.184245,31.234375 C309.418626,31.234375 310.330726,30.8945346 310.920573,30.2148438 C311.51042,29.5351529 311.805339,28.6523492 311.805339,27.5664062 Z M322.748915,40.2695312 C321.68641,40.2695312 320.727435,40.0917987 319.871962,39.7363281 C319.016489,39.3808576 318.323136,38.8359412 317.791884,38.1015625 C317.260631,37.3671838 316.995009,36.4960988 316.995009,35.4882812 C316.995009,34.3710882 317.315318,33.3984416 317.955946,32.5703125 C318.596574,31.7421834 319.491097,31.1406269 320.63954,30.765625 C318.452029,29.9921836 317.35829,28.5859477 317.35829,26.546875 C317.35829,25.1640556 317.858285,24.0820352 318.85829,23.3007812 C319.858295,22.5195273 321.155157,22.1289062 322.748915,22.1289062 C324.33486,22.1289062 325.620004,22.5195273 326.604384,23.3007812 C327.588764,24.0820352 328.080946,25.1640556 328.080946,26.546875 C328.080946,27.5781302 327.815324,28.445309 327.284071,29.1484375 C326.752819,29.851566 326.010638,30.3906231 325.057509,30.765625 C326.112201,31.1406269 326.940318,31.7421834 327.541884,32.5703125 C328.143449,33.3984416 328.444227,34.3710882 328.444227,35.4882812 C328.444227,36.9882888 327.903217,38.160152 326.821181,39.0039062 C325.739144,39.8476605 324.381736,40.2695312 322.748915,40.2695312 Z M322.748915,31.7617188 C321.631722,32.0195325 320.7372,32.4511688 320.065321,33.0566406 C319.393443,33.6621124 319.057509,34.4257766 319.057509,35.3476562 C319.057509,36.3085986 319.405161,37.0722628 320.100477,37.6386719 C320.795793,38.205081 321.678597,38.4882812 322.748915,38.4882812 C323.819233,38.4882812 324.692271,38.205081 325.368056,37.6386719 C326.04384,37.0722628 326.381727,36.3085986 326.381727,35.3476562 C326.381727,34.4179641 326.053606,33.6503937 325.397352,33.0449219 C324.741099,32.4394501 323.858296,32.01172 322.748915,31.7617188 Z M322.748915,23.9101562 C321.827035,23.9101562 321.04384,24.1406227 320.399306,24.6015625 C319.754771,25.0625023 319.432509,25.6953085 319.432509,26.5 C319.432509,28.3437592 320.537966,29.5117163 322.748915,30.0039062 C324.928613,29.5117163 326.018446,28.3437592 326.018446,26.5 C326.018446,25.6953085 325.702043,25.0625023 325.069227,24.6015625 C324.436412,24.1406227 323.662982,23.9101562 322.748915,23.9101562 Z M334.067491,22.46875 L335.930773,22.46875 L335.930773,40 L333.856554,40 L333.856554,24.6367188 C333.067487,25.1523463 332.102653,25.5937482 330.962023,25.9609375 L330.962023,24.0039062 C331.087023,23.9492185 331.340927,23.8398446 331.723741,23.6757812 C332.106556,23.5117179 332.393662,23.3867192 332.585069,23.3007812 C332.776477,23.2148433 333.016709,23.0937508 333.305773,22.9375 C333.594836,22.7812492 333.84874,22.6250008 334.067491,22.46875 Z" id="981" fill="#FFFFFF"></path>
            <path d="M383.424696,22.46875 L383.260634,24.390625 L376.100477,24.390625 C376.022352,26.6640739 375.963759,28.5038992 375.924696,29.9101562 C376.807513,29.3476534 377.764535,29.0664062 378.79579,29.0664062 C379.662982,29.0664062 380.438365,29.2050767 381.121962,29.4824219 C381.805559,29.759767 382.364147,30.1406226 382.797743,30.625 C383.231339,31.1093774 383.561414,31.6738249 383.787977,32.3183594 C384.014541,32.9628938 384.127821,33.6601525 384.127821,34.4101562 C384.127821,36.1836026 383.559468,37.6035103 382.422743,38.6699219 C381.286019,39.7363335 379.741112,40.2695312 377.787977,40.2695312 C375.82703,40.2695312 374.256733,39.7343804 373.07704,38.6640625 L373.838759,37.0117188 C374.995015,37.9179733 376.334845,38.3710938 377.85829,38.3710938 C379.139546,38.3710938 380.151255,38.0078161 380.893446,37.28125 C381.635637,36.5546839 382.006727,35.6054746 382.006727,34.4335938 C382.006727,33.3867135 381.694231,32.5371126 381.069227,31.8847656 C380.444224,31.2324186 379.553608,30.90625 378.397352,30.90625 C377.241097,30.90625 376.311418,31.2929649 375.60829,32.0664062 L373.979384,31.84375 L374.436415,22.46875 L383.424696,22.46875 Z" id="5" fill="#FFFFFF"></path>
        </g>
    </g>
</svg>