<?xml version="1.0" encoding="utf-8"?>
<!-- Generator: Adobe Illustrator 23.0.3, SVG Export Plug-In . SVG Version: 6.00 Build 0)  -->
<svg version="1.1" id="Layer_1" xmlns="http://www.w3.org/2000/svg" xmlns:xlink="http://www.w3.org/1999/xlink" x="0px" y="0px"
	 viewBox="0 0 1214 941" style="enable-background:new 0 0 1214 941;" xml:space="preserve">
<style type="text/css">
	.st0{fill:#7A98A9;}
	.st1{fill:none;stroke:#FFFFFF;stroke-width:2;}
	.st2{enable-background:new    ;}
	.st3{fill:#52B1DB;}
	.st4{fill:#FFFFFF;}
	.st5{fill-rule:evenodd;clip-rule:evenodd;fill:#FFFFFF;stroke:#FFFFFF;stroke-width:0.5;}
	.st6{fill:#204056;}
</style>
<g>
	<g>
		<g id="noun_49525_cc" transform="translate(520.000000, 239.000000)">
			<path id="Shape" class="st0" d="M38.8,444.4c0,13.1,6.4,19.6,19.3,19.6c12.9,0,19.4-6.5,19.4-19.6V267.9h19.9v176.5
				c0,13.1,6.5,19.6,19.4,19.6s19.4-6.5,19.4-19.6V143.7h9.4V252c0,6.9,2.4,11.8,7.1,14.9c4.7,3.1,9.6,3.1,14.7,0
				c5-3.1,7.5-8.1,7.5-14.9V135.3c0-12.5-4.3-22.1-12.8-28.9c-8.5-6.9-20.3-10.3-35.5-10.3H49.2c-14.5,0-26.3,3.1-35.4,9.3
				C4.6,111.6,0,121.3,0,134.3v124.2c0,5.6,2.5,9.6,7.6,12.1c5,2.5,9.9,2.5,14.7,0c4.7-2.5,7.1-6.5,7.1-12.1V143.7h9.5L38.8,444.4
				L38.8,444.4z"/>
			<path class="st0" d="M43.8,39.5c0,10.8,3.9,20.1,11.6,27.8c7.8,7.7,17,11.6,27.9,11.6c10.9,0,20.1-3.9,27.9-11.6
				c7.7-7.7,11.6-17.2,11.6-28.3c0-10.5-3.9-19.6-11.6-27.4C103.3,3.9,94.1,0,83.2,0C72.4,0,63.1,3.9,55.3,11.6
				C47.6,19.3,43.8,28.6,43.8,39.5z"/>
		</g>
		<circle id="Oval" class="st1" cx="607" cy="471" r="305"/>
		<g class="st2">
			<path class="st3" d="M143.1,471l-3.4-7.9c-0.7-1.5-1.3-2.9-1.8-3.8c-0.5,0-2.3,0.1-2.9,0.1c-0.3,0-4.5-0.1-4.5-0.1V471h-3v-25.3
				h8c6,0,9.8,0.9,9.8,6.6c0,3.1-1.5,5.6-4.8,6.4c0,0,1.3,2.1,1.9,3.4l4.1,8.8H143.1z M130.5,456.8l6,0.1c4.6,0,5.9-1.5,5.9-4.5
				c0-2.6-1.3-4.1-5.2-4.1h-6.7V456.8z"/>
			<path class="st3" d="M157.5,471.4c-5.3,0-8.5-3.8-8.5-9.7c0-5.5,3.3-9.6,8.2-9.7c4.6,0,7.5,3.5,7.5,9c0,0.3,0,1,0,1.3h-12.7
				c0,4.2,2.5,6.8,5.7,6.8c2.6,0,4.6-1,5.9-1.9l0.9,2.1C162.8,470.5,160.5,471.4,157.5,471.4z M152,460.3h9.9c0-4-2-6-4.7-6
				C154.3,454.3,152.3,456.6,152,460.3z"/>
			<path class="st3" d="M180.5,466c-0.1,3.5-2.6,5.4-6.1,5.4c-2.8,0-5.3-0.9-6.4-1.7l0.7-2.2c0.7,0.5,2.7,1.6,5.3,1.6h0.3
				c2.1,0,3.5-1,3.6-3v-0.2c0-1.2-0.7-2.3-2.8-2.9l-2.5-0.7c-3.7-1-4.8-2.9-4.8-5.1c0-2.6,2-5.2,6.2-5.2c2.4,0,4.2,0.5,5.6,1.2
				l-0.7,2c-1-0.4-2.7-1-4.7-1s-3.6,1.1-3.6,3c0,1.1,0.7,2,2.7,2.6l2.6,0.7C178.8,461.3,180.5,462.9,180.5,466L180.5,466z"/>
			<path class="st3" d="M191.7,471.4c-5.3,0-8.5-3.8-8.5-9.7c0-5.5,3.3-9.6,8.2-9.7c4.6,0,7.5,3.5,7.5,9c0,0.3,0,1,0,1.3h-12.7
				c0,4.2,2.5,6.8,5.7,6.8c2.6,0,4.6-1,5.9-1.9l0.9,2.1C197.1,470.5,194.7,471.4,191.7,471.4z M186.2,460.3h9.9c0-4-2-6-4.7-6
				C188.6,454.3,186.5,456.6,186.2,460.3z"/>
			<path class="st3" d="M207.4,471.4c-3,0-5.6-1.6-5.6-5.1c0-4.9,4.7-5.5,9.5-6.2l1.9-0.2v-2.1c0-2.3-1.1-3.4-3.7-3.4
				c-2,0-4.3,0.5-5.8,1.2l-0.8-2.2c1.4-0.8,3.9-1.4,6.5-1.4c3.7,0,6.5,1.2,6.5,5.4V471h-2.3l-0.4-2
				C211.5,470.8,209.3,471.4,207.4,471.4z M213.1,466.5v-4.6c0,0-1.7,0.2-1.7,0.2c-5.3,0.7-6.8,1.5-6.8,4.1c0,2.1,1.3,2.9,3.1,2.9
				C209.4,469.2,211.9,468.1,213.1,466.5z"/>
			<path class="st3" d="M220,471v-14.3c0-1.5,0-2.8,0-4.3h2.4l0.2,3.2c1.3-2.4,3.3-3.2,5.4-3.2h0.5l0.2,2.6h-0.7
				c-3.5,0-5.2,2.3-5.2,5.1V471H220z"/>
			<path class="st3" d="M244.3,469.7c-1.2,1.1-3.2,1.7-5,1.7c-5.8,0-8.9-4.5-8.9-9.7c0-5.1,3.4-9.7,8.9-9.7c2.1,0,4,0.6,5.1,1.6
				l-0.7,2c-1.4-0.9-2.9-1.3-4.4-1.3c-3.4,0-6,3.2-6,7.5c0,4.3,2.5,7.3,6.2,7.3c1.7,0,3.2-0.7,4.2-1.4L244.3,469.7z"/>
			<path class="st3" d="M250,471h-2.8v-25.2l2.8-0.3v9.5c1.6-1.9,3.8-3,6.6-3c3.9,0,5.6,2.9,5.6,7.8V471h-2.8v-10.4
				c0-4.2-0.6-6.2-3.7-6.2c-2.9,0-5.2,2.2-5.7,4V471z"/>
		</g>
		<g class="st2">
			<path class="st4" d="M98.1,504.9v-9.5h1.7v9.4c0,2.9,1.1,3.9,3.8,3.9c2.6,0,3.8-1.1,3.8-3.9v-9.4h1.7v9.5c0,3.1-1.2,5.3-5.5,5.3
				C99.4,510.2,98.1,508,98.1,504.9z"/>
			<path class="st4" d="M118.8,507.1c-0.1,2-1.5,3.1-3.5,3.1c-1.6,0-3.1-0.5-3.7-1l0.4-1.3c0.4,0.3,1.6,0.9,3,0.9h0.2
				c1.2,0,2-0.6,2.1-1.7v-0.1c0-0.7-0.4-1.3-1.6-1.7l-1.4-0.4c-2.1-0.6-2.8-1.7-2.8-3c0-1.5,1.2-3,3.6-3c1.4,0,2.4,0.3,3.2,0.7
				l-0.4,1.2c-0.6-0.2-1.6-0.6-2.7-0.6c-1.2,0-2.1,0.6-2.1,1.7c0,0.7,0.4,1.2,1.5,1.5l1.5,0.4C117.8,504.4,118.8,505.3,118.8,507.1
				L118.8,507.1z"/>
			<path class="st4" d="M125.3,510.2c-3.1,0-4.9-2.2-4.9-5.6c0-3.2,1.9-5.5,4.7-5.6c2.7,0,4.3,2,4.3,5.2c0,0.2,0,0.6,0,0.7H122
				c0,2.4,1.4,3.9,3.3,3.9c1.5,0,2.6-0.6,3.4-1.1l0.5,1.2C128.3,509.7,127,510.2,125.3,510.2z M122.1,503.8h5.7
				c0-2.3-1.1-3.4-2.7-3.4C123.4,500.4,122.2,501.7,122.1,503.8z"/>
			<path class="st4" d="M131.4,510v-8.3c0-0.8,0-1.6,0-2.5h1.4l0.1,1.9c0.8-1.4,1.9-1.9,3.1-1.9h0.3l0.1,1.5H136c-2,0-3,1.3-3,2.9
				v6.3H131.4z"/>
			<path class="st4" d="M144.9,507.1c-0.1,2-1.5,3.1-3.5,3.1c-1.6,0-3.1-0.5-3.7-1l0.4-1.3c0.4,0.3,1.6,0.9,3,0.9h0.2
				c1.2,0,2-0.6,2.1-1.7v-0.1c0-0.7-0.4-1.3-1.6-1.7l-1.4-0.4c-2.1-0.6-2.8-1.7-2.8-3c0-1.5,1.2-3,3.6-3c1.4,0,2.4,0.3,3.2,0.7
				l-0.4,1.2c-0.6-0.2-1.6-0.6-2.7-0.6c-1.2,0-2.1,0.6-2.1,1.7c0,0.7,0.4,1.2,1.5,1.5l1.5,0.4C144,504.4,144.9,505.3,144.9,507.1
				L144.9,507.1z"/>
			<path class="st4" d="M154.1,510.2c-1.8,0-3.3-0.9-3.3-2.9c0-2.8,2.7-3.2,5.5-3.6l1.1-0.1v-1.2c0-1.3-0.6-2-2.1-2
				c-1.2,0-2.5,0.3-3.3,0.7l-0.5-1.3c0.8-0.4,2.2-0.8,3.8-0.8c2.1,0,3.8,0.7,3.8,3.1v7.9h-1.3l-0.2-1.2
				C156.5,509.9,155.2,510.2,154.1,510.2z M157.4,507.4v-2.6c0,0-1,0.1-1,0.1c-3,0.4-3.9,0.9-3.9,2.4c0,1.2,0.8,1.7,1.8,1.7
				S156.7,508.3,157.4,507.4z"/>
			<path class="st4" d="M170,503.6v6.4h-1.6v-5.4c0-2.8-0.1-4.2-2.1-4.2c-1.8,0-3.1,1.3-3.3,2.3v7.3h-1.6v-8.1l0-2.6h1.4l0.1,1.6
				c0.8-1.1,2.3-1.8,3.8-1.8C169,499,170,500.6,170,503.6z"/>
			<path class="st4" d="M176.4,510.2c-2.9,0-4.6-2.4-4.6-5.7c0-3,1.8-5.5,4.5-5.5c1.4,0,2.8,0.7,3.4,1.8v-5.4l1.6-0.2V510h-1.5
				l-0.2-1.7C179.1,509.4,177.9,510.2,176.4,510.2z M176.5,508.8c2.2,0,3.2-1.9,3.2-4.2c0-2.3-1-4.2-3.2-4.2c-2.2,0-3,2.2-3,4.1
				C173.5,506.7,174.3,508.8,176.5,508.8z"/>
			<path class="st4" d="M190.2,506.4c0,2,0.2,2.4,1.5,2.4c0.2,0,0.6,0,1.3-0.1l0.1,1.3c-1.2,0.1-1.5,0.1-1.9,0.1
				c-2.6,0-2.8-1.3-2.8-4.5v-5.2H187l0.1-1.1h1.5l0.4-3.5l1.2-0.1v3.6h2.8v1.1h-2.8V506.4z"/>
			<path class="st4" d="M196.3,510h-1.6v-14.6l1.6-0.2v5.5c0.9-1.1,2.2-1.7,3.8-1.7c2.2,0,3.3,1.7,3.3,4.5v6.5h-1.6v-6
				c0-2.4-0.3-3.6-2.2-3.6c-1.7,0-3,1.3-3.3,2.3V510z"/>
			<path class="st4" d="M210,510.2c-3.1,0-4.9-2.2-4.9-5.6c0-3.2,1.9-5.5,4.7-5.6c2.7,0,4.3,2,4.3,5.2c0,0.2,0,0.6,0,0.7h-7.3
				c0,2.4,1.4,3.9,3.3,3.9c1.5,0,2.6-0.6,3.4-1.1l0.5,1.2C213.1,509.7,211.8,510.2,210,510.2z M206.9,503.8h5.7
				c0-2.3-1.1-3.4-2.7-3.4C208.2,500.4,207,501.7,206.9,503.8z"/>
			<path class="st4" d="M218.2,497.3h-1.6v-1.9h1.6V497.3z M218.2,510h-1.6v-10.7h1.6V510z"/>
			<path class="st4" d="M220.7,510v-8.3c0-0.8,0-1.6,0-2.5h1.4l0.1,1.9c0.8-1.4,1.9-1.9,3.1-1.9h0.3l0.1,1.5h-0.4c-2,0-3,1.3-3,2.9
				v6.3H220.7z"/>
			<path class="st4" d="M240,503.6v6.4h-1.6v-5.4c0-2.8-0.1-4.2-2.1-4.2c-1.8,0-3.1,1.3-3.3,2.3v7.3h-1.6v-8.1l0-2.6h1.4l0.1,1.6
				c0.8-1.1,2.3-1.8,3.8-1.8C239,499,240,500.6,240,503.6z"/>
			<path class="st4" d="M246.7,510.2c-3.1,0-4.9-2.2-4.9-5.6c0-3.2,1.9-5.5,4.7-5.6c2.7,0,4.3,2,4.3,5.2c0,0.2,0,0.6,0,0.7h-7.3
				c0,2.4,1.4,3.9,3.3,3.9c1.5,0,2.6-0.6,3.4-1.1l0.5,1.2C249.8,509.7,248.4,510.2,246.7,510.2z M243.5,503.8h5.7
				c0-2.3-1.1-3.4-2.7-3.4C244.9,500.4,243.7,501.7,243.5,503.8z"/>
			<path class="st4" d="M257.3,510.2c-3.1,0-4.9-2.2-4.9-5.6c0-3.2,1.9-5.5,4.7-5.6c2.7,0,4.3,2,4.3,5.2c0,0.2,0,0.6,0,0.7h-7.3
				c0,2.4,1.4,3.9,3.3,3.9c1.5,0,2.6-0.6,3.4-1.1l0.5,1.2C260.4,509.7,259,510.2,257.3,510.2z M254.1,503.8h5.7
				c0-2.3-1.1-3.4-2.7-3.4C255.5,500.4,254.3,501.7,254.1,503.8z"/>
			<path class="st4" d="M267.6,510.2c-2.9,0-4.6-2.4-4.6-5.7c0-3,1.8-5.5,4.5-5.5c1.4,0,2.8,0.7,3.4,1.8v-5.4l1.6-0.2V510h-1.5
				l-0.2-1.7C270.2,509.4,269,510.2,267.6,510.2z M267.7,508.8c2.2,0,3.2-1.9,3.2-4.2c0-2.3-1-4.2-3.2-4.2c-2.2,0-3,2.2-3,4.1
				C264.7,506.7,265.4,508.8,267.7,508.8z"/>
			<path class="st4" d="M282,507.1c-0.1,2-1.5,3.1-3.5,3.1c-1.6,0-3.1-0.5-3.7-1l0.4-1.3c0.4,0.3,1.6,0.9,3,0.9h0.2
				c1.2,0,2-0.6,2.1-1.7v-0.1c0-0.7-0.4-1.3-1.6-1.7l-1.4-0.4c-2.1-0.6-2.8-1.7-2.8-3c0-1.5,1.2-3,3.6-3c1.4,0,2.4,0.3,3.2,0.7
				l-0.4,1.2c-0.6-0.2-1.6-0.6-2.7-0.6c-1.2,0-2.1,0.6-2.1,1.7c0,0.7,0.4,1.2,1.5,1.5l1.5,0.4C281.1,504.4,282,505.3,282,507.1
				L282,507.1z"/>
		</g>
		<g class="st2">
			<path class="st4" d="M408.4,135v-14.6h4.7c2.8,0,4.9,1.1,4.9,3.9c0,2.7-1.2,4.6-5.5,4.6c-0.6,0-1.6-0.1-2.4-0.1v6.2H408.4z
				 M416.3,124.4c0-1.7-1.3-2.4-3.1-2.4h-3v5.4c0,0,1.9,0,2.5,0C416,127.4,416.3,125.8,416.3,124.4z"/>
			<path class="st4" d="M419.5,135v-8.3c0-0.8,0-1.6,0-2.5h1.4l0.1,1.9c0.8-1.4,1.9-1.9,3.1-1.9h0.3l0.1,1.5h-0.4c-2,0-3,1.3-3,2.9
				v6.3H419.5z"/>
			<path class="st4" d="M430.5,135.2c-3.2,0-5-2.5-5-5.6c0-3.1,1.8-5.6,5.1-5.6c3.3,0,4.9,2.5,4.9,5.6
				C435.5,132.6,433.7,135.2,430.5,135.2z M430.5,125.4c-2.3,0-3.4,2.1-3.4,4.3c0,2.2,1.1,4.2,3.4,4.2c2.3,0,3.2-2.1,3.2-4.2
				C433.8,127.4,432.9,125.4,430.5,125.4z"/>
			<path class="st4" d="M441.6,135.2c-2.9,0-4.6-2.4-4.6-5.7c0-3,1.8-5.5,4.5-5.5c1.4,0,2.8,0.7,3.4,1.8v-5.4l1.6-0.2V135h-1.5
				l-0.2-1.7C444.3,134.4,443.1,135.2,441.6,135.2z M441.7,133.8c2.2,0,3.2-1.9,3.2-4.2c0-2.3-1-4.2-3.2-4.2c-2.2,0-3,2.2-3,4.1
				C438.7,131.7,439.5,133.8,441.7,133.8z"/>
			<path class="st4" d="M448.8,124.3h1.6v7.2c0,1.9,1.1,2.5,2.7,2.5c1.5,0,2.6-0.6,2.6-2.5v-7.2h1.6v7.1c0,2.8-2,3.8-4.3,3.8
				c-2.3,0-4.3-1-4.3-3.8V124.3z"/>
			<path class="st4" d="M467.3,134.3c-0.7,0.7-1.8,1-2.9,1c-3.3,0-5.2-2.6-5.2-5.6c0-3,1.9-5.6,5.1-5.6c1.2,0,2.3,0.4,2.9,0.9
				l-0.4,1.2c-0.8-0.5-1.7-0.7-2.5-0.7c-2,0-3.5,1.8-3.5,4.3c0,2.5,1.4,4.2,3.6,4.2c1,0,1.8-0.4,2.4-0.8L467.3,134.3z"/>
			<path class="st4" d="M471.3,131.4c0,2,0.2,2.4,1.5,2.4c0.2,0,0.6,0,1.3-0.1l0.1,1.3c-1.2,0.1-1.5,0.1-1.9,0.1
				c-2.6,0-2.8-1.3-2.8-4.5v-5.2H468l0.1-1.1h1.5l0.4-3.5l1.2-0.1v3.6h2.8v1.1h-2.8V131.4z"/>
			<path class="st4" d="M487.1,132.1c-0.1,2-1.5,3.1-3.5,3.1c-1.6,0-3.1-0.5-3.7-1l0.4-1.3c0.4,0.3,1.6,0.9,3,0.9h0.2
				c1.2,0,2-0.6,2.1-1.7v-0.1c0-0.7-0.4-1.3-1.6-1.7l-1.4-0.4c-2.1-0.6-2.8-1.7-2.8-3c0-1.5,1.2-3,3.6-3c1.4,0,2.4,0.3,3.2,0.7
				l-0.4,1.2c-0.6-0.2-1.6-0.6-2.7-0.6s-2.1,0.6-2.1,1.7c0,0.7,0.4,1.2,1.5,1.5l1.5,0.4C486.1,129.4,487.1,130.3,487.1,132.1
				L487.1,132.1z"/>
			<path class="st4" d="M489.1,124.3h1.5l0.1,1.4c0.8-1.1,1.9-1.7,3.3-1.7c3.2,0,4.5,2.6,4.5,5.7c0,2.9-1.7,5.5-4.5,5.5
				c-1.4,0-2.6-0.6-3.3-1.8v5.8l-1.6,0.2V124.3z M493.8,133.8c2.2,0,3.1-2.3,3.1-4.2s-0.8-4.2-3.1-4.2c-2.2,0-3.1,1.9-3.1,4.2
				C490.7,131.9,491.6,133.8,493.8,133.8z"/>
			<path class="st4" d="M505,135.2c-3.1,0-4.9-2.2-4.9-5.6c0-3.2,1.9-5.5,4.7-5.6c2.7,0,4.3,2,4.3,5.2c0,0.2,0,0.6,0,0.7h-7.3
				c0,2.4,1.4,3.9,3.3,3.9c1.5,0,2.6-0.6,3.4-1.1l0.5,1.2C508.1,134.7,506.7,135.2,505,135.2z M501.8,128.8h5.7
				c0-2.3-1.1-3.4-2.7-3.4C503.2,125.4,502,126.7,501.8,128.8z"/>
			<path class="st4" d="M518.7,134.3c-0.7,0.7-1.8,1-2.9,1c-3.3,0-5.2-2.6-5.2-5.6c0-3,1.9-5.6,5.1-5.6c1.2,0,2.3,0.4,2.9,0.9
				l-0.4,1.2c-0.8-0.5-1.7-0.7-2.5-0.7c-2,0-3.5,1.8-3.5,4.3c0,2.5,1.4,4.2,3.6,4.2c1,0,1.8-0.4,2.4-0.8L518.7,134.3z"/>
			<path class="st4" d="M522.4,122.3h-1.6v-1.9h1.6V122.3z M522.4,135h-1.6v-10.7h1.6V135z"/>
			<path class="st4" d="M524.2,124.3h1.6V124c0.1-3.2,0.9-4,3.5-4h0.7l0.2,1.2h-0.9c-1.7,0-1.8,0.7-1.8,2.7v0.3h2.4v1.1h-2.4v9.6
				h-1.6v-9.6h-1.6V124.3z"/>
			<path class="st4" d="M533.3,122.3h-1.6v-1.9h1.6V122.3z M533.3,135h-1.6v-10.7h1.6V135z"/>
			<path class="st4" d="M543.4,134.3c-0.7,0.7-1.8,1-2.9,1c-3.3,0-5.2-2.6-5.2-5.6c0-3,1.9-5.6,5.1-5.6c1.2,0,2.3,0.4,2.9,0.9
				l-0.4,1.2c-0.8-0.5-1.7-0.7-2.5-0.7c-2,0-3.5,1.8-3.5,4.3c0,2.5,1.4,4.2,3.6,4.2c1,0,1.8-0.4,2.4-0.8L543.4,134.3z"/>
			<path class="st4" d="M548,135.2c-1.8,0-3.3-0.9-3.3-2.9c0-2.8,2.7-3.2,5.5-3.6l1.1-0.1v-1.2c0-1.3-0.6-2-2.1-2
				c-1.2,0-2.5,0.3-3.3,0.7l-0.5-1.3c0.8-0.4,2.2-0.8,3.8-0.8c2.1,0,3.8,0.7,3.8,3.1v7.9h-1.3l-0.2-1.2
				C550.4,134.9,549.2,135.2,548,135.2z M551.3,132.4v-2.6c0,0-1,0.1-1,0.1c-3,0.4-3.9,0.9-3.9,2.4c0,1.2,0.8,1.7,1.8,1.7
				C549.2,134,550.6,133.3,551.3,132.4z"/>
			<path class="st4" d="M557.7,131.4c0,2,0.2,2.4,1.5,2.4c0.2,0,0.6,0,1.3-0.1l0.1,1.3c-1.2,0.1-1.5,0.1-1.9,0.1
				c-2.6,0-2.8-1.3-2.8-4.5v-5.2h-1.6l0.1-1.1h1.5l0.4-3.5l1.2-0.1v3.6h2.8v1.1h-2.8V131.4z"/>
			<path class="st4" d="M564.1,122.3h-1.6v-1.9h1.6V122.3z M564.1,135h-1.6v-10.7h1.6V135z"/>
			<path class="st4" d="M571.3,135.2c-3.2,0-5-2.5-5-5.6c0-3.1,1.8-5.6,5.1-5.6c3.3,0,4.9,2.5,4.9,5.6
				C576.2,132.6,574.5,135.2,571.3,135.2z M571.3,125.4c-2.3,0-3.4,2.1-3.4,4.3c0,2.2,1.1,4.2,3.4,4.2c2.3,0,3.2-2.1,3.2-4.2
				C574.5,127.4,573.7,125.4,571.3,125.4z"/>
			<path class="st4" d="M586.8,128.6v6.4h-1.6v-5.4c0-2.8-0.1-4.2-2.1-4.2c-1.8,0-3.1,1.3-3.3,2.3v7.3h-1.6v-8.1l0-2.6h1.4l0.1,1.6
				c0.8-1.1,2.3-1.8,3.8-1.8C585.8,124,586.8,125.6,586.8,128.6z"/>
			<path class="st4" d="M596.2,132.1c-0.1,2-1.5,3.1-3.5,3.1c-1.6,0-3.1-0.5-3.7-1l0.4-1.3c0.4,0.3,1.6,0.9,3,0.9h0.2
				c1.2,0,2-0.6,2.1-1.7v-0.1c0-0.7-0.4-1.3-1.6-1.7l-1.4-0.4c-2.1-0.6-2.8-1.7-2.8-3c0-1.5,1.2-3,3.6-3c1.4,0,2.4,0.3,3.2,0.7
				l-0.4,1.2c-0.6-0.2-1.6-0.6-2.7-0.6s-2.1,0.6-2.1,1.7c0,0.7,0.4,1.2,1.5,1.5l1.5,0.4C595.2,129.4,596.2,130.3,596.2,132.1
				L596.2,132.1z"/>
			<path class="st4" d="M607.4,135.2c-1.4,0-2.7-0.7-3.4-1.8v1.6h-1.6v-14.6l1.6-0.2v5.7c0.8-1.4,2.2-1.9,3.4-1.9
				c3,0,4.5,2.6,4.5,5.5C611.9,132.6,610.4,135.2,607.4,135.2z M607.3,133.9c2.3,0,3-2.3,3-4.3c0-1.9-0.7-4.2-2.9-4.2
				c-1.9,0-3.3,1.7-3.3,4.2C604,131.9,605,133.9,607.3,133.9z"/>
			<path class="st4" d="M616.8,135.2c-1.8,0-3.3-0.9-3.3-2.9c0-2.8,2.7-3.2,5.5-3.6l1.1-0.1v-1.2c0-1.3-0.6-2-2.1-2
				c-1.2,0-2.5,0.3-3.3,0.7l-0.5-1.3c0.8-0.4,2.2-0.8,3.8-0.8c2.1,0,3.8,0.7,3.8,3.1v7.9h-1.3l-0.2-1.2
				C619.2,134.9,617.9,135.2,616.8,135.2z M620.1,132.4v-2.6c0,0-1,0.1-1,0.1c-3,0.4-3.9,0.9-3.9,2.4c0,1.2,0.8,1.7,1.8,1.7
				C618,134,619.4,133.3,620.1,132.4z"/>
			<path class="st4" d="M631.3,132.1c-0.1,2-1.5,3.1-3.5,3.1c-1.6,0-3.1-0.5-3.7-1l0.4-1.3c0.4,0.3,1.6,0.9,3,0.9h0.2
				c1.2,0,2-0.6,2.1-1.7v-0.1c0-0.7-0.4-1.3-1.6-1.7l-1.4-0.4c-2.1-0.6-2.8-1.7-2.8-3c0-1.5,1.2-3,3.6-3c1.4,0,2.4,0.3,3.2,0.7
				l-0.4,1.2c-0.6-0.2-1.6-0.6-2.7-0.6c-1.2,0-2.1,0.6-2.1,1.7c0,0.7,0.4,1.2,1.5,1.5l1.5,0.4C630.3,129.4,631.3,130.3,631.3,132.1
				L631.3,132.1z"/>
			<path class="st4" d="M637.8,135.2c-3.1,0-4.9-2.2-4.9-5.6c0-3.2,1.9-5.5,4.7-5.6c2.7,0,4.3,2,4.3,5.2c0,0.2,0,0.6,0,0.7h-7.3
				c0,2.4,1.4,3.9,3.3,3.9c1.5,0,2.6-0.6,3.4-1.1l0.5,1.2C640.8,134.7,639.5,135.2,637.8,135.2z M634.6,128.8h5.7
				c0-2.3-1.1-3.4-2.7-3.4C635.9,125.4,634.8,126.7,634.6,128.8z"/>
			<path class="st4" d="M648,135.2c-2.9,0-4.6-2.4-4.6-5.7c0-3,1.8-5.5,4.5-5.5c1.4,0,2.8,0.7,3.4,1.8v-5.4l1.6-0.2V135h-1.5
				l-0.2-1.7C650.7,134.4,649.5,135.2,648,135.2z M648.1,133.8c2.2,0,3.2-1.9,3.2-4.2c0-2.3-1-4.2-3.2-4.2c-2.2,0-3,2.2-3,4.1
				C645.1,131.7,645.9,133.8,648.1,133.8z"/>
			<path class="st4" d="M664.2,135.2c-3.2,0-5-2.5-5-5.6c0-3.1,1.8-5.6,5.1-5.6c3.3,0,4.9,2.5,4.9,5.6
				C669.1,132.6,667.4,135.2,664.2,135.2z M664.2,125.4c-2.3,0-3.4,2.1-3.4,4.3c0,2.2,1.1,4.2,3.4,4.2c2.3,0,3.2-2.1,3.2-4.2
				C667.4,127.4,666.6,125.4,664.2,125.4z"/>
			<path class="st4" d="M679.7,128.6v6.4h-1.6v-5.4c0-2.8-0.1-4.2-2.1-4.2c-1.8,0-3.1,1.3-3.3,2.3v7.3H671v-8.1l0-2.6h1.4l0.1,1.6
				c0.8-1.1,2.3-1.8,3.8-1.8C678.7,124,679.7,125.6,679.7,128.6z"/>
			<path class="st4" d="M686.1,124.3h1.6v7.2c0,1.9,1.1,2.5,2.7,2.5c1.5,0,2.6-0.6,2.6-2.5v-7.2h1.6v7.1c0,2.8-2,3.8-4.3,3.8
				c-2.3,0-4.3-1-4.3-3.8V124.3z"/>
			<path class="st4" d="M704.1,132.1c-0.1,2-1.5,3.1-3.5,3.1c-1.6,0-3.1-0.5-3.7-1l0.4-1.3c0.4,0.3,1.6,0.9,3,0.9h0.2
				c1.2,0,2-0.6,2.1-1.7v-0.1c0-0.7-0.4-1.3-1.6-1.7l-1.4-0.4c-2.1-0.6-2.8-1.7-2.8-3c0-1.5,1.2-3,3.6-3c1.4,0,2.4,0.3,3.2,0.7
				l-0.4,1.2c-0.6-0.2-1.6-0.6-2.7-0.6c-1.2,0-2.1,0.6-2.1,1.7c0,0.7,0.4,1.2,1.5,1.5l1.5,0.4C703.1,129.4,704.1,130.3,704.1,132.1
				L704.1,132.1z"/>
			<path class="st4" d="M710.6,135.2c-3.1,0-4.9-2.2-4.9-5.6c0-3.2,1.9-5.5,4.7-5.6c2.7,0,4.3,2,4.3,5.2c0,0.2,0,0.6,0,0.7h-7.3
				c0,2.4,1.4,3.9,3.3,3.9c1.5,0,2.6-0.6,3.4-1.1l0.5,1.2C713.7,134.7,712.3,135.2,710.6,135.2z M707.4,128.8h5.7
				c0-2.3-1.1-3.4-2.7-3.4C708.8,125.4,707.6,126.7,707.4,128.8z"/>
			<path class="st4" d="M716.7,135v-8.3c0-0.8,0-1.6,0-2.5h1.4l0.1,1.9c0.8-1.4,1.9-1.9,3.1-1.9h0.3l0.1,1.5h-0.4c-2,0-3,1.3-3,2.9
				v6.3H716.7z"/>
			<path class="st4" d="M727.3,135v-8.3c0-0.8,0-1.6,0-2.5h1.4l0.1,1.9c0.8-1.4,1.9-1.9,3.1-1.9h0.3l0.1,1.5H732c-2,0-3,1.3-3,2.9
				v6.3H727.3z"/>
			<path class="st4" d="M738.2,135.2c-3.1,0-4.9-2.2-4.9-5.6c0-3.2,1.9-5.5,4.7-5.6c2.7,0,4.3,2,4.3,5.2c0,0.2,0,0.6,0,0.7H735
				c0,2.4,1.4,3.9,3.3,3.9c1.5,0,2.6-0.6,3.4-1.1l0.5,1.2C741.3,134.7,739.9,135.2,738.2,135.2z M735,128.8h5.7
				c0-2.3-1.1-3.4-2.7-3.4C736.4,125.4,735.2,126.7,735,128.8z"/>
			<path class="st4" d="M751.5,132.1c-0.1,2-1.5,3.1-3.5,3.1c-1.6,0-3.1-0.5-3.7-1l0.4-1.3c0.4,0.3,1.6,0.9,3,0.9h0.2
				c1.2,0,2-0.6,2.1-1.7v-0.1c0-0.7-0.4-1.3-1.6-1.7l-1.4-0.4c-2.1-0.6-2.8-1.7-2.8-3c0-1.5,1.2-3,3.6-3c1.4,0,2.4,0.3,3.2,0.7
				l-0.4,1.2c-0.6-0.2-1.6-0.6-2.7-0.6c-1.2,0-2.1,0.6-2.1,1.7c0,0.7,0.4,1.2,1.5,1.5l1.5,0.4C750.5,129.4,751.5,130.3,751.5,132.1
				L751.5,132.1z"/>
			<path class="st4" d="M758,135.2c-3.1,0-4.9-2.2-4.9-5.6c0-3.2,1.9-5.5,4.7-5.6c2.7,0,4.3,2,4.3,5.2c0,0.2,0,0.6,0,0.7h-7.3
				c0,2.4,1.4,3.9,3.3,3.9c1.5,0,2.6-0.6,3.4-1.1l0.5,1.2C761.1,134.7,759.7,135.2,758,135.2z M754.8,128.8h5.7
				c0-2.3-1.1-3.4-2.7-3.4C756.2,125.4,755,126.7,754.8,128.8z"/>
			<path class="st4" d="M767,135.2c-1.8,0-3.3-0.9-3.3-2.9c0-2.8,2.7-3.2,5.5-3.6l1.1-0.1v-1.2c0-1.3-0.6-2-2.1-2
				c-1.2,0-2.5,0.3-3.3,0.7l-0.5-1.3c0.8-0.4,2.2-0.8,3.8-0.8c2.1,0,3.8,0.7,3.8,3.1v7.9h-1.3l-0.2-1.2
				C769.4,134.9,768.1,135.2,767,135.2z M770.3,132.4v-2.6c0,0-1,0.1-1,0.1c-3,0.4-3.9,0.9-3.9,2.4c0,1.2,0.8,1.7,1.8,1.7
				C768.2,134,769.6,133.3,770.3,132.4z"/>
			<path class="st4" d="M774.3,135v-8.3c0-0.8,0-1.6,0-2.5h1.4l0.1,1.9c0.8-1.4,1.9-1.9,3.1-1.9h0.3l0.1,1.5H779c-2,0-3,1.3-3,2.9
				v6.3H774.3z"/>
			<path class="st4" d="M788.3,134.3c-0.7,0.7-1.8,1-2.9,1c-3.3,0-5.2-2.6-5.2-5.6c0-3,1.9-5.6,5.1-5.6c1.2,0,2.3,0.4,2.9,0.9
				l-0.4,1.2c-0.8-0.5-1.7-0.7-2.5-0.7c-2,0-3.5,1.8-3.5,4.3c0,2.5,1.4,4.2,3.6,4.2c1,0,1.8-0.4,2.4-0.8L788.3,134.3z"/>
			<path class="st4" d="M791.6,135H790v-14.6l1.6-0.2v5.5c0.9-1.1,2.2-1.7,3.8-1.7c2.2,0,3.3,1.7,3.3,4.5v6.5H797v-6
				c0-2.4-0.3-3.6-2.2-3.6c-1.7,0-3,1.3-3.3,2.3V135z"/>
		</g>
		<g class="st2">
			<path class="st4" d="M942.4,477.4h4.3c3.5,0,5.5,1,5.5,3.6c0,1.4-0.6,2.7-2.1,3.2c1.8,0.4,2.7,2.1,2.7,3.7c0,2.6-1.5,4.2-5.3,4.2
				h-5.1V477.4z M944.2,483.7h3.5c1.4,0,2.8-0.3,2.8-2.4c0-2.2-1.6-2.5-4-2.5h-2.3V483.7z M944.2,490.6h3.1c2.5,0,3.9-0.9,3.9-2.8
				c0-1.8-1.2-2.8-3.4-2.8h-3.6V490.6z"/>
			<path class="st4" d="M954.6,481.3h1.6v7.2c0,1.9,1.1,2.5,2.7,2.5c1.5,0,2.6-0.6,2.6-2.5v-7.2h1.6v7.1c0,2.8-2,3.8-4.3,3.8
				c-2.3,0-4.3-1-4.3-3.8V481.3z"/>
			<path class="st4" d="M967.5,479.3h-1.6v-1.9h1.6V479.3z M967.5,492h-1.6v-10.7h1.6V492z"/>
			<path class="st4" d="M971.9,487.8c0,2.3,0.1,3.1,1.2,3.1c0.2,0,0.4,0,0.9-0.1l0.1,1.3c-0.6,0.1-0.9,0.1-1.1,0.1
				c-2.6,0-2.7-1.2-2.7-4.8v-10l1.6-0.2V487.8z"/>
			<path class="st4" d="M979.6,492.2c-2.9,0-4.6-2.4-4.6-5.7c0-3,1.8-5.5,4.5-5.5c1.4,0,2.8,0.7,3.4,1.8v-5.4l1.6-0.2V492h-1.5
				l-0.2-1.7C982.3,491.4,981.1,492.2,979.6,492.2z M979.7,490.8c2.2,0,3.2-1.9,3.2-4.2c0-2.3-1-4.2-3.2-4.2c-2.2,0-3,2.2-3,4.1
				C976.7,488.7,977.5,490.8,979.7,490.8z"/>
			<path class="st4" d="M991.1,481.3h1.5l0.1,1.4c0.8-1.1,1.9-1.7,3.3-1.7c3.2,0,4.5,2.6,4.5,5.7c0,2.9-1.7,5.5-4.5,5.5
				c-1.4,0-2.6-0.6-3.3-1.8v5.8l-1.6,0.2V481.3z M995.8,490.8c2.2,0,3.1-2.3,3.1-4.2s-0.8-4.2-3.1-4.2c-2.2,0-3.1,1.9-3.1,4.2
				C992.8,488.9,993.6,490.8,995.8,490.8z"/>
			<path class="st4" d="M1002.5,492v-8.3c0-0.8,0-1.6,0-2.5h1.4l0.1,1.9c0.8-1.4,1.9-1.9,3.1-1.9h0.3l0.1,1.5h-0.4c-2,0-3,1.3-3,2.9
				v6.3H1002.5z"/>
			<path class="st4" d="M1013.5,492.2c-3.2,0-5-2.5-5-5.6c0-3.1,1.8-5.6,5.1-5.6c3.3,0,4.9,2.5,4.9,5.6
				C1018.5,489.6,1016.8,492.2,1013.5,492.2z M1013.5,482.4c-2.3,0-3.4,2.1-3.4,4.3c0,2.2,1.1,4.2,3.4,4.2c2.3,0,3.2-2.1,3.2-4.2
				C1016.8,484.4,1016,482.4,1013.5,482.4z"/>
			<path class="st4" d="M1024.6,492.2c-2.9,0-4.6-2.4-4.6-5.7c0-3,1.8-5.5,4.5-5.5c1.4,0,2.8,0.7,3.4,1.8v-5.4l1.6-0.2V492h-1.5
				l-0.2-1.7C1027.3,491.4,1026.1,492.2,1024.6,492.2z M1024.7,490.8c2.2,0,3.2-1.9,3.2-4.2c0-2.3-1-4.2-3.2-4.2c-2.2,0-3,2.2-3,4.1
				C1021.7,488.7,1022.5,490.8,1024.7,490.8z"/>
			<path class="st4" d="M1031.8,481.3h1.6v7.2c0,1.9,1.1,2.5,2.7,2.5c1.5,0,2.6-0.6,2.6-2.5v-7.2h1.6v7.1c0,2.8-2,3.8-4.3,3.8
				c-2.3,0-4.3-1-4.3-3.8V481.3z"/>
			<path class="st4" d="M1050.3,491.3c-0.7,0.7-1.8,1-2.9,1c-3.3,0-5.2-2.6-5.2-5.6c0-3,1.9-5.6,5.1-5.6c1.2,0,2.3,0.4,2.9,0.9
				l-0.4,1.2c-0.8-0.5-1.7-0.7-2.5-0.7c-2,0-3.5,1.8-3.5,4.3c0,2.5,1.4,4.2,3.6,4.2c1,0,1.8-0.4,2.4-0.8L1050.3,491.3z"/>
			<path class="st4" d="M1054.3,488.4c0,2,0.2,2.4,1.5,2.4c0.2,0,0.6,0,1.3-0.1l0.1,1.3c-1.2,0.1-1.5,0.1-1.9,0.1
				c-2.6,0-2.8-1.3-2.8-4.5v-5.2h-1.6l0.1-1.1h1.5l0.4-3.5l1.2-0.1v3.6h2.8v1.1h-2.8V488.4z"/>
			<path class="st4" d="M1065.3,488.4c0,2,0.2,2.4,1.5,2.4c0.2,0,0.6,0,1.3-0.1l0.1,1.3c-1.2,0.1-1.5,0.1-1.9,0.1
				c-2.6,0-2.8-1.3-2.8-4.5v-5.2h-1.6l0.1-1.1h1.5l0.4-3.5l1.2-0.1v3.6h2.8v1.1h-2.8V488.4z"/>
			<path class="st4" d="M1074.3,492.2c-3.2,0-5-2.5-5-5.6c0-3.1,1.8-5.6,5.1-5.6c3.3,0,4.9,2.5,4.9,5.6
				C1079.3,489.6,1077.6,492.2,1074.3,492.2z M1074.3,482.4c-2.3,0-3.4,2.1-3.4,4.3c0,2.2,1.1,4.2,3.4,4.2c2.3,0,3.2-2.1,3.2-4.2
				C1077.6,484.4,1076.8,482.4,1074.3,482.4z"/>
		</g>
		<g class="st2">
			<path class="st4" d="M942.1,518v-8c0-0.9,0-2.4,0-2.7h1.4l0.1,1.6c0.9-1.3,2.3-1.9,3.6-1.9c1.5,0,2.5,0.5,3,2
				c0.9-1.4,2.2-2,3.7-2c2.4,0,3.3,1.7,3.3,4.2v6.8h-1.6v-5.6c0-2.4-0.1-4-1.9-4c-1.4,0-2.5,1-3,2.4v7.1h-1.6v-5.9
				c0-2.2-0.4-3.6-2-3.6c-1.7,0-2.9,1.1-3.3,2.2v7.3H942.1z"/>
			<path class="st4" d="M964,518.2c-3.1,0-4.9-2.2-4.9-5.6c0-3.2,1.9-5.5,4.7-5.6c2.7,0,4.3,2,4.3,5.2c0,0.2,0,0.6,0,0.7h-7.3
				c0,2.4,1.4,3.9,3.3,3.9c1.5,0,2.6-0.6,3.4-1.1l0.5,1.2C967.1,517.7,965.7,518.2,964,518.2z M960.8,511.8h5.7
				c0-2.3-1.1-3.4-2.7-3.4C962.2,508.4,961,509.7,960.8,511.8z"/>
			<path class="st4" d="M974.6,518.2c-3.1,0-4.9-2.2-4.9-5.6c0-3.2,1.9-5.5,4.7-5.6c2.7,0,4.3,2,4.3,5.2c0,0.2,0,0.6,0,0.7h-7.3
				c0,2.4,1.4,3.9,3.3,3.9c1.5,0,2.6-0.6,3.4-1.1l0.5,1.2C977.7,517.7,976.3,518.2,974.6,518.2z M971.4,511.8h5.7
				c0-2.3-1.1-3.4-2.7-3.4C972.8,508.4,971.6,509.7,971.4,511.8z"/>
			<path class="st4" d="M983,514.4c0,2,0.2,2.4,1.5,2.4c0.2,0,0.6,0,1.3-0.1l0.1,1.3c-1.2,0.1-1.5,0.1-1.9,0.1
				c-2.6,0-2.8-1.3-2.8-4.5v-5.2h-1.6l0.1-1.1h1.5l0.4-3.5l1.2-0.1v3.6h2.8v1.1H983V514.4z"/>
			<path class="st4" d="M998.9,515.1c-0.1,2-1.5,3.1-3.5,3.1c-1.6,0-3.1-0.5-3.7-1l0.4-1.3c0.4,0.3,1.6,0.9,3,0.9h0.2
				c1.2,0,2-0.6,2.1-1.7v-0.1c0-0.7-0.4-1.3-1.6-1.7l-1.4-0.4c-2.1-0.6-2.8-1.7-2.8-3c0-1.5,1.2-3,3.6-3c1.4,0,2.4,0.3,3.2,0.7
				l-0.4,1.2c-0.6-0.2-1.6-0.6-2.7-0.6s-2.1,0.6-2.1,1.7c0,0.7,0.4,1.2,1.5,1.5l1.5,0.4C997.9,512.4,998.9,513.3,998.9,515.1
				L998.9,515.1z"/>
			<path class="st4" d="M1000.9,507.3h1.5l0.1,1.4c0.8-1.1,1.9-1.7,3.3-1.7c3.2,0,4.5,2.6,4.5,5.7c0,2.9-1.7,5.5-4.5,5.5
				c-1.4,0-2.6-0.6-3.3-1.8v5.8l-1.6,0.2V507.3z M1005.6,516.8c2.2,0,3.1-2.3,3.1-4.2s-0.8-4.2-3.1-4.2s-3.1,1.9-3.1,4.2
				C1002.5,514.9,1003.3,516.8,1005.6,516.8z"/>
			<path class="st4" d="M1016.8,518.2c-3.1,0-4.9-2.2-4.9-5.6c0-3.2,1.9-5.5,4.7-5.6c2.7,0,4.3,2,4.3,5.2c0,0.2,0,0.6,0,0.7h-7.3
				c0,2.4,1.4,3.9,3.3,3.9c1.5,0,2.6-0.6,3.4-1.1l0.5,1.2C1019.8,517.7,1018.5,518.2,1016.8,518.2z M1013.6,511.8h5.7
				c0-2.3-1.1-3.4-2.7-3.4C1014.9,508.4,1013.8,509.7,1013.6,511.8z"/>
			<path class="st4" d="M1030.5,517.3c-0.7,0.7-1.8,1-2.9,1c-3.3,0-5.2-2.6-5.2-5.6c0-3,1.9-5.6,5.1-5.6c1.2,0,2.3,0.4,2.9,0.9
				l-0.4,1.2c-0.8-0.5-1.7-0.7-2.5-0.7c-2,0-3.5,1.8-3.5,4.3c0,2.5,1.4,4.2,3.6,4.2c1,0,1.8-0.4,2.4-0.8L1030.5,517.3z"/>
			<path class="st4" d="M1034.2,505.3h-1.6v-1.9h1.6V505.3z M1034.2,518h-1.6v-10.7h1.6V518z"/>
			<path class="st4" d="M1035.9,507.3h1.6V507c0.1-3.2,0.9-4,3.5-4h0.7l0.2,1.2h-0.9c-1.7,0-1.8,0.7-1.8,2.7v0.3h2.4v1.1h-2.4v9.6
				h-1.6v-9.6h-1.6V507.3z"/>
			<path class="st4" d="M1045,505.3h-1.6v-1.9h1.6V505.3z M1045,518h-1.6v-10.7h1.6V518z"/>
			<path class="st4" d="M1055.2,517.3c-0.7,0.7-1.8,1-2.9,1c-3.3,0-5.2-2.6-5.2-5.6c0-3,1.9-5.6,5.1-5.6c1.2,0,2.3,0.4,2.9,0.9
				l-0.4,1.2c-0.8-0.5-1.7-0.7-2.5-0.7c-2,0-3.5,1.8-3.5,4.3c0,2.5,1.4,4.2,3.6,4.2c1,0,1.8-0.4,2.4-0.8L1055.2,517.3z"/>
			<path class="st4" d="M1059.8,518.2c-1.8,0-3.3-0.9-3.3-2.9c0-2.8,2.7-3.2,5.5-3.6l1.1-0.1v-1.2c0-1.3-0.6-2-2.1-2
				c-1.2,0-2.5,0.3-3.3,0.7l-0.5-1.3c0.8-0.4,2.2-0.8,3.8-0.8c2.1,0,3.8,0.7,3.8,3.1v7.9h-1.3l-0.2-1.2
				C1062.2,517.9,1060.9,518.2,1059.8,518.2z M1063.1,515.4v-2.6c0,0-1,0.1-1,0.1c-3,0.4-3.9,0.9-3.9,2.4c0,1.2,0.8,1.7,1.8,1.7
				C1061,517,1062.4,516.3,1063.1,515.4z"/>
			<path class="st4" d="M1069.4,514.4c0,2,0.2,2.4,1.5,2.4c0.2,0,0.6,0,1.3-0.1l0.1,1.3c-1.2,0.1-1.5,0.1-1.9,0.1
				c-2.6,0-2.8-1.3-2.8-4.5v-5.2h-1.6l0.1-1.1h1.5l0.4-3.5l1.2-0.1v3.6h2.8v1.1h-2.8V514.4z"/>
			<path class="st4" d="M1075.9,505.3h-1.6v-1.9h1.6V505.3z M1075.9,518h-1.6v-10.7h1.6V518z"/>
			<path class="st4" d="M1083,518.2c-3.2,0-5-2.5-5-5.6c0-3.1,1.8-5.6,5.1-5.6c3.3,0,4.9,2.5,4.9,5.6
				C1088,515.6,1086.3,518.2,1083,518.2z M1083,508.4c-2.3,0-3.4,2.1-3.4,4.3c0,2.2,1.1,4.2,3.4,4.2c2.3,0,3.2-2.1,3.2-4.2
				C1086.3,510.4,1085.5,508.4,1083,508.4z"/>
			<path class="st4" d="M1098.6,511.6v6.4h-1.6v-5.4c0-2.8-0.1-4.2-2.1-4.2c-1.8,0-3.1,1.3-3.3,2.3v7.3h-1.6v-8.1l0-2.6h1.4l0.1,1.6
				c0.8-1.1,2.3-1.8,3.8-1.8C1097.6,507,1098.6,508.6,1098.6,511.6z"/>
			<path class="st4" d="M1108,515.1c-0.1,2-1.5,3.1-3.5,3.1c-1.6,0-3.1-0.5-3.7-1l0.4-1.3c0.4,0.3,1.6,0.9,3,0.9h0.2
				c1.2,0,2-0.6,2.1-1.7v-0.1c0-0.7-0.4-1.3-1.6-1.7l-1.4-0.4c-2.1-0.6-2.8-1.7-2.8-3c0-1.5,1.2-3,3.6-3c1.4,0,2.4,0.3,3.2,0.7
				l-0.4,1.2c-0.6-0.2-1.6-0.6-2.7-0.6c-1.2,0-2.1,0.6-2.1,1.7c0,0.7,0.4,1.2,1.5,1.5l1.5,0.4C1107,512.4,1108,513.3,1108,515.1
				L1108,515.1z"/>
		</g>
		<g class="st2">
			<path class="st4" d="M455.6,873.2h-6.5v5.2h7.2l-0.2,1.5h-8.7v-14.6h8.6l-0.1,1.5h-6.8v4.8h6.5V873.2z"/>
			<path class="st4" d="M457.2,869.3h1.7l3.4,8.9l3.2-8.9h1.7l-4.2,10.7h-1.7L457.2,869.3z"/>
			<path class="st4" d="M471.4,880.2c-1.8,0-3.3-0.9-3.3-2.9c0-2.8,2.7-3.2,5.5-3.6l1.1-0.1v-1.2c0-1.3-0.6-2-2.1-2
				c-1.2,0-2.5,0.3-3.3,0.7l-0.5-1.3c0.8-0.4,2.2-0.8,3.8-0.8c2.1,0,3.8,0.7,3.8,3.1v7.9H475l-0.2-1.2
				C473.8,879.9,472.6,880.2,471.4,880.2z M474.7,877.4v-2.6c0,0-1,0.1-1,0.1c-3,0.4-3.9,0.9-3.9,2.4c0,1.2,0.8,1.7,1.8,1.7
				C472.6,879,474,878.3,474.7,877.4z"/>
			<path class="st4" d="M480.6,875.8c0,2.3,0.1,3.1,1.2,3.1c0.2,0,0.4,0,0.9-0.1l0.1,1.3c-0.6,0.1-0.9,0.1-1.1,0.1
				c-2.6,0-2.7-1.2-2.7-4.8v-10l1.6-0.2V875.8z"/>
			<path class="st4" d="M484,869.3h1.6v7.2c0,1.9,1.1,2.5,2.7,2.5c1.5,0,2.6-0.6,2.6-2.5v-7.2h1.6v7.1c0,2.8-2,3.8-4.3,3.8
				c-2.3,0-4.3-1-4.3-3.8V869.3z"/>
			<path class="st4" d="M497.8,880.2c-1.8,0-3.3-0.9-3.3-2.9c0-2.8,2.7-3.2,5.5-3.6l1.1-0.1v-1.2c0-1.3-0.6-2-2.1-2
				c-1.2,0-2.5,0.3-3.3,0.7l-0.5-1.3c0.8-0.4,2.2-0.8,3.8-0.8c2.1,0,3.8,0.7,3.8,3.1v7.9h-1.3l-0.2-1.2
				C500.2,879.9,498.9,880.2,497.8,880.2z M501.1,877.4v-2.6c0,0-1,0.1-1,0.1c-3,0.4-3.9,0.9-3.9,2.4c0,1.2,0.8,1.7,1.8,1.7
				C499,879,500.4,878.3,501.1,877.4z"/>
			<path class="st4" d="M507.4,876.4c0,2,0.2,2.4,1.5,2.4c0.2,0,0.6,0,1.3-0.1l0.1,1.3c-1.2,0.1-1.5,0.1-1.9,0.1
				c-2.6,0-2.8-1.3-2.8-4.5v-5.2h-1.6l0.1-1.1h1.5l0.4-3.5l1.2-0.1v3.6h2.8v1.1h-2.8V876.4z"/>
			<path class="st4" d="M516.3,880.2c-3.1,0-4.9-2.2-4.9-5.6c0-3.2,1.9-5.5,4.7-5.6c2.7,0,4.3,2,4.3,5.2c0,0.2,0,0.6,0,0.7h-7.3
				c0,2.4,1.4,3.9,3.3,3.9c1.5,0,2.6-0.6,3.4-1.1l0.5,1.2C519.4,879.7,518.1,880.2,516.3,880.2z M513.2,873.8h5.7
				c0-2.3-1.1-3.4-2.7-3.4C514.5,870.4,513.3,871.7,513.2,873.8z"/>
			<path class="st4" d="M526.7,869.3h1.5l0.1,1.4c0.8-1.1,1.9-1.7,3.3-1.7c3.2,0,4.5,2.6,4.5,5.7c0,2.9-1.7,5.5-4.5,5.5
				c-1.4,0-2.6-0.6-3.3-1.8v5.8l-1.6,0.2V869.3z M531.4,878.8c2.2,0,3.1-2.3,3.1-4.2s-0.8-4.2-3.1-4.2c-2.2,0-3.1,1.9-3.1,4.2
				C528.3,876.9,529.2,878.8,531.4,878.8z"/>
			<path class="st4" d="M538.1,880v-8.3c0-0.8,0-1.6,0-2.5h1.4l0.1,1.9c0.8-1.4,1.9-1.9,3.1-1.9h0.3l0.1,1.5h-0.4c-2,0-3,1.3-3,2.9
				v6.3H538.1z"/>
			<path class="st4" d="M549.1,880.2c-3.2,0-5-2.5-5-5.6c0-3.1,1.8-5.6,5.1-5.6c3.3,0,4.9,2.5,4.9,5.6
				C554.1,877.6,552.3,880.2,549.1,880.2z M549.1,870.4c-2.3,0-3.4,2.1-3.4,4.3c0,2.2,1.1,4.2,3.4,4.2c2.3,0,3.2-2.1,3.2-4.2
				C552.4,872.4,551.5,870.4,549.1,870.4z"/>
			<path class="st4" d="M560.2,880.2c-2.9,0-4.6-2.4-4.6-5.7c0-3,1.8-5.5,4.5-5.5c1.4,0,2.8,0.7,3.4,1.8v-5.4l1.6-0.2V880h-1.5
				l-0.2-1.7C562.8,879.4,561.6,880.2,560.2,880.2z M560.3,878.8c2.2,0,3.2-1.9,3.2-4.2c0-2.3-1-4.2-3.2-4.2c-2.2,0-3,2.2-3,4.1
				C557.3,876.7,558,878.8,560.3,878.8z"/>
			<path class="st4" d="M567.3,869.3h1.6v7.2c0,1.9,1.1,2.5,2.7,2.5c1.5,0,2.6-0.6,2.6-2.5v-7.2h1.6v7.1c0,2.8-2,3.8-4.3,3.8
				c-2.3,0-4.3-1-4.3-3.8V869.3z"/>
			<path class="st4" d="M585.8,879.3c-0.7,0.7-1.8,1-2.9,1c-3.3,0-5.2-2.6-5.2-5.6c0-3,1.9-5.6,5.1-5.6c1.2,0,2.3,0.4,2.9,0.9
				l-0.4,1.2c-0.8-0.5-1.7-0.7-2.5-0.7c-2,0-3.5,1.8-3.5,4.3c0,2.5,1.4,4.2,3.6,4.2c1,0,1.8-0.4,2.4-0.8L585.8,879.3z"/>
			<path class="st4" d="M589.8,876.4c0,2,0.2,2.4,1.5,2.4c0.2,0,0.6,0,1.3-0.1l0.1,1.3c-1.2,0.1-1.5,0.1-1.9,0.1
				c-2.6,0-2.8-1.3-2.8-4.5v-5.2h-1.6l0.1-1.1h1.5l0.4-3.5l1.2-0.1v3.6h2.8v1.1h-2.8V876.4z"/>
			<path class="st4" d="M603.5,880.2c-1.4,0-2.7-0.7-3.4-1.8v1.6h-1.6v-14.6l1.6-0.2v5.7c0.8-1.4,2.2-1.9,3.4-1.9
				c3,0,4.5,2.6,4.5,5.5C608,877.6,606.5,880.2,603.5,880.2z M603.4,878.9c2.3,0,3-2.3,3-4.3c0-1.9-0.7-4.2-2.9-4.2
				c-1.9,0-3.3,1.7-3.3,4.2C600.1,876.9,601.1,878.9,603.4,878.9z"/>
			<path class="st4" d="M612.9,880.2c-1.8,0-3.3-0.9-3.3-2.9c0-2.8,2.7-3.2,5.5-3.6l1.1-0.1v-1.2c0-1.3-0.6-2-2.1-2
				c-1.2,0-2.5,0.3-3.3,0.7l-0.5-1.3c0.8-0.4,2.2-0.8,3.8-0.8c2.1,0,3.8,0.7,3.8,3.1v7.9h-1.3l-0.2-1.2
				C615.3,879.9,614,880.2,612.9,880.2z M616.2,877.4v-2.6c0,0-1,0.1-1,0.1c-3,0.4-3.9,0.9-3.9,2.4c0,1.2,0.8,1.7,1.8,1.7
				C614.1,879,615.5,878.3,616.2,877.4z"/>
			<path class="st4" d="M627.3,877.1c-0.1,2-1.5,3.1-3.5,3.1c-1.6,0-3.1-0.5-3.7-1l0.4-1.3c0.4,0.3,1.6,0.9,3,0.9h0.2
				c1.2,0,2-0.6,2.1-1.7v-0.1c0-0.7-0.4-1.3-1.6-1.7l-1.4-0.4c-2.1-0.6-2.8-1.7-2.8-3c0-1.5,1.2-3,3.6-3c1.4,0,2.4,0.3,3.2,0.7
				l-0.4,1.2c-0.6-0.2-1.6-0.6-2.7-0.6s-2.1,0.6-2.1,1.7c0,0.7,0.4,1.2,1.5,1.5l1.5,0.4C626.4,874.4,627.3,875.3,627.3,877.1
				L627.3,877.1z"/>
			<path class="st4" d="M633.8,880.2c-3.1,0-4.9-2.2-4.9-5.6c0-3.2,1.9-5.5,4.7-5.6c2.7,0,4.3,2,4.3,5.2c0,0.2,0,0.6,0,0.7h-7.3
				c0,2.4,1.4,3.9,3.3,3.9c1.5,0,2.6-0.6,3.4-1.1l0.5,1.2C636.9,879.7,635.6,880.2,633.8,880.2z M630.7,873.8h5.7
				c0-2.3-1.1-3.4-2.7-3.4C632,870.4,630.8,871.7,630.7,873.8z"/>
			<path class="st4" d="M644.1,880.2c-2.9,0-4.6-2.4-4.6-5.7c0-3,1.8-5.5,4.5-5.5c1.4,0,2.8,0.7,3.4,1.8v-5.4l1.6-0.2V880h-1.5
				l-0.2-1.7C646.8,879.4,645.6,880.2,644.1,880.2z M644.2,878.8c2.2,0,3.2-1.9,3.2-4.2c0-2.3-1-4.2-3.2-4.2c-2.2,0-3,2.2-3,4.1
				C641.2,876.7,642,878.8,644.2,878.8z"/>
			<path class="st4" d="M660.3,880.2c-3.2,0-5-2.5-5-5.6c0-3.1,1.8-5.6,5.1-5.6c3.3,0,4.9,2.5,4.9,5.6
				C665.2,877.6,663.5,880.2,660.3,880.2z M660.3,870.4c-2.3,0-3.4,2.1-3.4,4.3c0,2.2,1.1,4.2,3.4,4.2c2.3,0,3.2-2.1,3.2-4.2
				C663.5,872.4,662.7,870.4,660.3,870.4z"/>
			<path class="st4" d="M675.8,873.6v6.4h-1.6v-5.4c0-2.8-0.1-4.2-2.1-4.2c-1.8,0-3.1,1.3-3.3,2.3v7.3h-1.6v-8.1l0-2.6h1.4l0.1,1.6
				c0.8-1.1,2.3-1.8,3.8-1.8C674.8,869,675.8,870.6,675.8,873.6z"/>
			<path class="st4" d="M681.5,869.3h1.6V869c0.1-3.2,0.9-4,3.5-4h0.7l0.2,1.2h-0.9c-1.7,0-1.8,0.7-1.8,2.7v0.3h2.4v1.1h-2.4v9.6
				H683v-9.6h-1.6V869.3z"/>
			<path class="st4" d="M693,880.2c-3.1,0-4.9-2.2-4.9-5.6c0-3.2,1.9-5.5,4.7-5.6c2.7,0,4.3,2,4.3,5.2c0,0.2,0,0.6,0,0.7h-7.3
				c0,2.4,1.4,3.9,3.3,3.9c1.5,0,2.6-0.6,3.4-1.1l0.5,1.2C696.1,879.7,694.7,880.2,693,880.2z M689.8,873.8h5.7
				c0-2.3-1.1-3.4-2.7-3.4C691.2,870.4,690,871.7,689.8,873.8z"/>
			<path class="st4" d="M703.6,880.2c-3.1,0-4.9-2.2-4.9-5.6c0-3.2,1.9-5.5,4.7-5.6c2.7,0,4.3,2,4.3,5.2c0,0.2,0,0.6,0,0.7h-7.3
				c0,2.4,1.4,3.9,3.3,3.9c1.5,0,2.6-0.6,3.4-1.1l0.5,1.2C706.7,879.7,705.3,880.2,703.6,880.2z M700.4,873.8h5.7
				c0-2.3-1.1-3.4-2.7-3.4C701.8,870.4,700.6,871.7,700.4,873.8z"/>
			<path class="st4" d="M713.9,880.2c-2.9,0-4.6-2.4-4.6-5.7c0-3,1.8-5.5,4.5-5.5c1.4,0,2.8,0.7,3.4,1.8v-5.4l1.6-0.2V880h-1.5
				l-0.2-1.7C716.6,879.4,715.4,880.2,713.9,880.2z M714,878.8c2.2,0,3.2-1.9,3.2-4.2c0-2.3-1-4.2-3.2-4.2c-2.2,0-3,2.2-3,4.1
				C711,876.7,711.8,878.8,714,878.8z"/>
			<path class="st4" d="M726.1,880.2c-1.4,0-2.7-0.7-3.4-1.8v1.6h-1.6v-14.6l1.6-0.2v5.7c0.8-1.4,2.2-1.9,3.4-1.9
				c3,0,4.5,2.6,4.5,5.5C730.7,877.6,729.2,880.2,726.1,880.2z M726,878.9c2.3,0,3-2.3,3-4.3c0-1.9-0.7-4.2-2.9-4.2
				c-1.9,0-3.3,1.7-3.3,4.2C722.8,876.9,723.8,878.9,726,878.9z"/>
			<path class="st4" d="M735.5,880.2c-1.8,0-3.3-0.9-3.3-2.9c0-2.8,2.7-3.2,5.5-3.6l1.1-0.1v-1.2c0-1.3-0.6-2-2.1-2
				c-1.2,0-2.5,0.3-3.3,0.7l-0.5-1.3c0.8-0.4,2.2-0.8,3.8-0.8c2.1,0,3.8,0.7,3.8,3.1v7.9h-1.3l-0.2-1.2
				C737.9,879.9,736.7,880.2,735.5,880.2z M738.8,877.4v-2.6c0,0-1,0.1-1,0.1c-3,0.4-3.9,0.9-3.9,2.4c0,1.2,0.8,1.7,1.8,1.7
				C736.7,879,738.1,878.3,738.8,877.4z"/>
			<path class="st4" d="M750.5,879.3c-0.7,0.7-1.8,1-2.9,1c-3.3,0-5.2-2.6-5.2-5.6c0-3,1.9-5.6,5.1-5.6c1.2,0,2.3,0.4,2.9,0.9
				l-0.4,1.2c-0.8-0.5-1.7-0.7-2.5-0.7c-2,0-3.5,1.8-3.5,4.3c0,2.5,1.4,4.2,3.6,4.2c1,0,1.8-0.4,2.4-0.8L750.5,879.3z"/>
			<path class="st4" d="M753.7,865.3v8.6l4.8-4.5h2.2l-4.6,4.5l4.9,6.3h-2.1l-4-5.5l-1.2,1v4.5h-1.6v-14.6L753.7,865.3z"/>
		</g>
		<g class="st2">
			<path class="st3" d="M573,811.7h18.1v2.6h-7.6V837h-3v-22.7H573V811.7z"/>
			<path class="st3" d="M600.9,837.4c-5.3,0-8.5-3.8-8.5-9.7c0-5.5,3.3-9.6,8.2-9.7c4.6,0,7.5,3.5,7.5,9c0,0.3,0,1,0,1.3h-12.7
				c0,4.2,2.5,6.8,5.7,6.8c2.6,0,4.6-1,5.9-1.9l0.9,2.1C606.2,836.5,603.9,837.4,600.9,837.4z M595.4,826.3h9.9c0-4-2-6-4.7-6
				C597.7,820.3,595.7,822.6,595.4,826.3z"/>
			<path class="st3" d="M623.9,832c-0.1,3.5-2.6,5.4-6.1,5.4c-2.8,0-5.3-0.9-6.4-1.7l0.7-2.2c0.7,0.5,2.7,1.6,5.3,1.6h0.3
				c2.1,0,3.5-1,3.6-3v-0.2c0-1.2-0.7-2.3-2.8-2.9l-2.5-0.7c-3.7-1-4.8-2.9-4.8-5.1c0-2.6,2-5.2,6.2-5.2c2.4,0,4.2,0.5,5.6,1.2
				l-0.7,2c-1-0.4-2.7-1-4.7-1s-3.6,1.1-3.6,3c0,1.1,0.7,2,2.7,2.6l2.6,0.7C622.2,827.3,623.9,828.9,623.9,832L623.9,832z"/>
			<path class="st3" d="M631.3,830.8c0,3.5,0.4,4.2,2.7,4.2c0.3,0,1-0.1,2.3-0.2l0.2,2.3c-2.1,0.2-2.6,0.2-3.2,0.2
				c-4.5,0-4.9-2.2-4.9-7.9v-9.1h-2.8l0.2-2h2.6l0.7-6l2.1-0.2v6.2h4.9v2h-4.9V830.8z"/>
		</g>
		<g class="st2">
			<path class="st3" d="M556.5,67.7h6.3c8.7,0,15.1,3,15.1,12.8c0,8.4-5.4,12.5-13.4,12.5h-8V67.7z M559.5,90.4h5.3
				c6.2,0,9.9-3.2,9.9-9.8c0-8-4.6-10.3-11.5-10.3h-3.7V90.4z"/>
			<path class="st3" d="M589.4,93.4c-5.3,0-8.5-3.8-8.5-9.7c0-5.5,3.3-9.6,8.2-9.7c4.6,0,7.5,3.5,7.5,9c0,0.3,0,1,0,1.3h-12.7
				c0,4.2,2.5,6.8,5.7,6.8c2.6,0,4.6-1,5.9-1.9l0.9,2.1C594.7,92.5,592.4,93.4,589.4,93.4z M583.9,82.3h9.9c0-4-2-6-4.7-6
				C586.3,76.3,584.2,78.6,583.9,82.3z"/>
			<path class="st3" d="M598.6,74.4h2.7v-0.6c0.1-5.5,1.6-6.9,6-6.9h1.2l0.3,2.1h-1.6c-2.9,0-3.2,1.2-3.2,4.7v0.6h4.2v2h-4.2V93
				h-2.8V76.4h-2.7V74.4z"/>
			<path class="st3" d="M614.3,71h-2.8v-3.3h2.8V71z M614.3,93h-2.8V74.4h2.8V93z"/>
			<path class="st3" d="M633.7,81.9V93h-2.8v-9.3c0-4.8-0.2-7.3-3.6-7.3c-3.1,0-5.3,2.3-5.8,3.9V93h-2.8V78.9l-0.1-4.5h2.5l0.2,2.7
				c1.5-2,4.1-3.2,6.6-3.2C632,74,633.7,76.7,633.7,81.9z"/>
			<path class="st3" d="M645.3,93.4c-5.3,0-8.5-3.8-8.5-9.7c0-5.5,3.3-9.6,8.2-9.7c4.6,0,7.5,3.5,7.5,9c0,0.3,0,1,0,1.3h-12.7
				c0,4.2,2.5,6.8,5.7,6.8c2.6,0,4.6-1,5.9-1.9l0.9,2.1C650.7,92.5,648.3,93.4,645.3,93.4z M639.8,82.3h9.9c0-4-2-6-4.7-6
				C642.2,76.3,640.1,78.6,639.8,82.3z"/>
		</g>
		<g class="st2">
			<path class="st3" d="M943.5,434.7h6.3c8.7,0,15.1,3,15.1,12.8c0,8.4-5.4,12.5-13.4,12.5h-8V434.7z M946.5,457.4h5.3
				c6.2,0,9.9-3.2,9.9-9.8c0-8-4.6-10.3-11.5-10.3h-3.7V457.4z"/>
			<path class="st3" d="M976.4,460.4c-5.3,0-8.5-3.8-8.5-9.7c0-5.5,3.3-9.6,8.2-9.7c4.6,0,7.5,3.5,7.5,9c0,0.3,0,1,0,1.3h-12.7
				c0,4.2,2.5,6.8,5.7,6.8c2.6,0,4.6-1,5.9-1.9l0.9,2.1C981.8,459.5,979.4,460.4,976.4,460.4z M970.9,449.3h9.9c0-4-2-6-4.7-6
				C973.3,443.3,971.2,445.6,970.9,449.3z"/>
			<path class="st3" d="M984.9,441.4h3l5.9,15.5l5.5-15.5h3l-7.2,18.6h-2.9L984.9,441.4z"/>
			<path class="st3" d="M1012.3,460.4c-5.3,0-8.5-3.8-8.5-9.7c0-5.5,3.3-9.6,8.2-9.7c4.6,0,7.5,3.5,7.5,9c0,0.3,0,1,0,1.3h-12.7
				c0,4.2,2.5,6.8,5.7,6.8c2.6,0,4.6-1,5.9-1.9l0.9,2.1C1017.6,459.5,1015.3,460.4,1012.3,460.4z M1006.8,449.3h9.9c0-4-2-6-4.7-6
				C1009.2,443.3,1007.1,445.6,1006.8,449.3z"/>
			<path class="st3" d="M1026.1,452.7c0,4.1,0.1,5.3,2,5.3c0.4,0,0.7,0,1.5-0.1l0.2,2.2c-1,0.2-1.6,0.2-1.9,0.2
				c-4.6,0-4.7-2.1-4.7-8.3v-17.3l2.8-0.3V452.7z"/>
			<path class="st3" d="M1040.2,460.4c-5.6,0-8.7-4.3-8.7-9.7c0-5.3,3.2-9.8,8.8-9.8c5.7,0,8.5,4.4,8.5,9.7
				C1048.8,455.8,1045.8,460.4,1040.2,460.4z M1040.2,443.3c-4,0-5.8,3.7-5.8,7.5c0,3.7,1.8,7.3,5.9,7.3c4,0,5.6-3.6,5.6-7.3
				C1045.9,446.8,1044.4,443.3,1040.2,443.3z"/>
			<path class="st3" d="M1052.2,441.4h2.7l0.2,2.5c1.4-1.9,3.3-2.9,5.8-2.9c5.5,0,7.8,4.6,7.8,9.9c0,5-2.9,9.5-7.8,9.5
				c-2.4,0-4.5-1-5.8-3.1v10.1l-2.8,0.4V441.4z M1060.3,458c3.9,0,5.3-3.9,5.3-7.3s-1.4-7.3-5.3-7.3s-5.3,3.3-5.3,7.3
				C1055,454.7,1056.5,458,1060.3,458z"/>
		</g>
		<path id="Stroke-27" class="st5" d="M321.7,473.8c0.4,0.4,1,0.3,1.4,0c0.4-0.4,0.3-1,0-1.4l-19.9-18.7c-0.4-0.4-1-0.3-1.4,0
			l-18.7,19.9c-0.4,0.4-0.3,1,0,1.4c0.4,0.4,1,0.3,1.4,0l18-19.2L321.7,473.8z"/>
		<path class="st5" d="M930.2,425.9c0.4-0.4,1-0.3,1.4,0c0.4,0.4,0.3,1,0,1.4L911.7,446c-0.4,0.4-1,0.3-1.4,0l-18.7-19.9
			c-0.4-0.4-0.3-1,0-1.4c0.4-0.4,1-0.3,1.4,0l18,19.2L930.2,425.9z"/>
		<path id="Stroke-27-Copy" class="st5" d="M634.3,759.2c0.4-0.3,0.5-0.9,0.1-1.4c-0.3-0.4-0.9-0.5-1.4-0.1l-21.2,17.1
			c-0.4,0.3-0.5,0.9-0.2,1.4l17.1,21.2c0.3,0.4,0.9,0.5,1.4,0.1c0.4-0.3,0.5-0.9,0.1-1.4l-16.5-20.5L634.3,759.2z"/>
		<path class="st5" d="M580.8,182.9c-0.4,0.3-0.5,0.9-0.1,1.4c0.3,0.4,0.9,0.5,1.4,0.1l21.2-17.1c0.4-0.3,0.5-0.9,0.2-1.4
			l-17.1-21.2c-0.3-0.4-0.9-0.5-1.4-0.1c-0.4,0.3-0.5,0.9-0.1,1.4l16.5,20.5L580.8,182.9z"/>
		<path class="st6" d="M625.6,292.5c-0.6-0.6-1.6-0.6-2.2-0.1c-10.6,8.9-28.2,8.9-38.7,0c-0.7-0.5-1.7-0.5-2.2,0.1l0,0
			c-0.6,0.6-0.5,1.6,0.3,2.2c11.6,9.8,31.1,9.8,42.7,0C626.1,294,626.2,293,625.6,292.5L625.6,292.5z"/>
		<path class="st6" d="M594.4,276.7c-0.7,0.5-1.6,0.3-2-0.4l-6.1-9c-0.5-0.7-0.3-1.6,0.4-2.1l0,0c0.7-0.5,1.6-0.3,2,0.4l6.1,9
			C595.2,275.3,595,276.3,594.4,276.7L594.4,276.7z"/>
		<path class="st6" d="M588.4,265.3c-0.7-0.5-1.6-0.3-2,0.4l-6.1,9c-0.5,0.7-0.3,1.6,0.4,2.1l0,0c0.7,0.5,1.6,0.3,2-0.4l6.1-9
			C589.2,266.7,589,265.7,588.4,265.3L588.4,265.3z"/>
		<path class="st6" d="M626.4,275.7c-0.7,0.5-1.6,0.3-2-0.4l-6.1-9c-0.5-0.7-0.3-1.6,0.4-2.1l0,0c0.7-0.5,1.6-0.3,2,0.4l6.1,9
			C627.2,274.3,627,275.3,626.4,275.7L626.4,275.7z"/>
		<path class="st6" d="M620.4,264.3c-0.7-0.5-1.6-0.3-2,0.4l-6.1,9c-0.5,0.7-0.3,1.6,0.4,2.1l0,0c0.7,0.5,1.6,0.3,2-0.4l6.1-9
			C621.2,265.7,621,264.7,620.4,264.3L620.4,264.3z"/>
	</g>
</g>
</svg>
