
<svg width="33px" height="49px" viewBox="0 0 33 49" version="1.1" xmlns="http://www.w3.org/2000/svg" xmlns:xlink="http://www.w3.org/1999/xlink">
    <!-- Generator: Sketch 46.2 (44496) - http://www.bohemiancoding.com/sketch -->
    <desc>Created with Sketch.</desc>
    <defs>
        <polygon id="path-1" points="0 0.321795152 0 48.29096 31.8118169 48.29096 31.8118169 0.321795152"></polygon>
    </defs>
    <g id="Page-1" stroke="none" stroke-width="1" fill="none" fill-rule="evenodd">
        <g id="Pending-yellow" transform="translate(-176.000000, -408.000000)">
            <g id="Flask" transform="translate(192.500000, 433.000000) scale(-1, 1) translate(-192.500000, -433.000000) translate(176.000000, 408.000000)">
                <path d="M10.3819546,24.630702 C11.1934317,24.630702 11.8535636,25.2865846 11.8535636,26.0930481 C11.8535636,26.8990725 11.1934317,27.5549551 10.3819546,27.5549551 C9.57047744,27.5549551 8.91034549,26.8990725 8.91034549,26.0930481 C8.91034549,25.2865846 9.57047744,24.630702 10.3819546,24.630702 M16.5924475,20.4341947 C18.139284,20.4341947 19.3990099,21.6831813 19.3990099,23.2188423 C19.3990099,24.7531861 18.139284,26.0030508 16.5924475,26.0030508 C15.0442756,26.0030508 13.7849949,24.7531861 13.7849949,23.2188423 C13.7849949,21.6831813 15.0442756,20.4341947 16.5924475,20.4341947 M23.6838583,27.5949051 C25.1643701,27.5949051 26.3693446,28.7828692 26.3693446,30.2430202 C26.3693446,31.7044882 25.1643701,32.8920133 23.6838583,32.8920133 C22.2024563,32.8920133 20.9983721,31.7044882 20.9983721,30.2430202 C20.9983721,28.7828692 22.2024563,27.5949051 23.6838583,27.5949051 M16.8995892,34.0949038 C20.0800631,36.6236078 27.0285863,34.417577 30.1026735,33.0829831 L30.1026735,33.0816661 C30.1026735,27.0571165 26.1904012,21.7977632 20.368064,19.9938665 C20.1722056,19.933722 20.0097321,19.814311 19.888656,19.6637302 C18.7339815,19.3590565 17.5214397,19.1939883 16.2692811,19.1939883 C14.9761703,19.1939883 13.7257922,19.3709098 12.5372876,19.695339 C12.4215531,19.815628 12.2831168,19.9157226 12.1144115,19.9666479 C6.70026108,21.6037203 2.93043131,26.207191 2.36956397,31.6667333 C2.36155158,31.7457553 2.35710025,31.8252163 2.35086839,31.9046773 C5.07463606,31.5302008 12.7861169,30.826466 16.8995892,34.0949038" id="Fill-1" fill="#FFFFFF"></path>
                <path d="M10.3819546,27.5548234 C11.1934317,27.5548234 11.8535636,26.8989408 11.8535636,26.0929164 C11.8535636,25.2864529 11.1934317,24.6305703 10.3819546,24.6305703 C9.57047744,24.6305703 8.91034549,25.2864529 8.91034549,26.0929164 C8.91034549,26.8989408 9.57047744,27.5548234 10.3819546,27.5548234" id="Fill-3" fill="#2B2037"></path>
                <path d="M16.5922695,26.0032703 C18.139106,26.0032703 19.399277,24.7534056 19.399277,23.2190618 C19.399277,21.6829618 18.139106,20.4344142 16.5922695,20.4344142 C15.0440976,20.4344142 13.7848168,21.6829618 13.7848168,23.2190618 C13.7848168,24.7534056 15.0440976,26.0032703 16.5922695,26.0032703" id="Fill-5" fill="#2B2037"></path>
                <path d="M23.6837693,32.8919694 C25.164281,32.8919694 26.3692556,31.7044443 26.3692556,30.2429763 C26.3692556,28.7828253 25.164281,27.5953002 23.6837693,27.5953002 C22.2023673,27.5953002 20.9982831,28.7828253 20.9982831,30.2429763 C20.9982831,31.7044443 22.2023673,32.8919694 23.6837693,32.8919694" id="Fill-7" fill="#2B2037"></path>
                <path d="M19.8886115,19.6637741 C19.7510654,19.4934378 19.6673805,19.2822734 19.6673805,19.0544267 L19.6673805,15.6165306 L12.8203476,15.6165306 L12.8203476,19.0245739 C12.8203476,19.2840295 12.7095095,19.5167054 12.5372431,19.6953829 C13.7257477,19.3709537 14.9761258,19.1940322 16.2692366,19.1940322 C17.5213952,19.1940322 18.733937,19.3591004 19.8886115,19.6637741" id="Fill-9" fill="#FFFFFF"></path>
                <path d="M2.33978458,31.9063455 C2.34290051,31.9059065 2.34779697,31.9054675 2.3509129,31.9050285 C2.35714476,31.8251285 2.36159609,31.7456675 2.36916335,31.6666455 C2.36115096,31.7469845 2.34646157,31.8255675 2.33978458,31.9063455" id="Fill-11" fill="#B2D8E3"></path>
                <polygon id="Fill-13" fill="#FFFFFF" points="19.6184604 8.78902959 21.0869535 2.77106513 11.3056051 2.77106513 12.773208 8.78902959"></polygon>
                <g id="Group-17" transform="translate(0.290438, 0.477891)">
                    <mask id="mask-2" fill="white">
                        <use xlink:href="#path-1"></use>
                    </mask>
                    <g id="Clip-16"></g>
                    <path d="M15.978888,46.2592165 C8.26696205,46.2592165 2.01507172,40.0937443 2.01507172,32.4874376 C2.01507172,32.1300826 2.03332217,31.7775566 2.06047527,31.4267868 C2.05735934,31.4272258 2.05246288,31.4276648 2.04934695,31.4285428 C2.05602394,31.3477648 2.07071332,31.2687428 2.07872571,31.1888427 C2.62490367,25.436919 6.75618129,20.7162324 12.2468945,19.2174485 C12.4187158,19.0387709 12.529999,18.806095 12.529999,18.5466395 L12.529999,15.1385961 L19.3770319,15.1385961 L19.3770319,18.5764922 C19.3770319,18.804339 19.4607168,19.0155033 19.5982629,19.1858397 C25.5550301,20.7588165 29.9427043,26.1165082 29.9427043,32.4874376 C29.9427043,40.0937443 23.6908139,46.2592165 15.978888,46.2592165 L15.978888,46.2592165 Z M20.7965604,2.29313069 L19.3280673,8.31109515 L12.4828149,8.31109515 L11.015212,2.29313069 L20.7965604,2.29313069 Z M21.3756782,17.8710013 L21.3756782,15.1390351 L22.0447128,15.1390351 C23.2398944,15.1390351 24.2129547,14.1793568 24.2129547,13.0001729 L24.2129547,10.4503963 C24.2129547,9.27121248 23.2398944,8.31109515 22.0447128,8.31109515 L21.3841357,8.31109515 L23.0360236,1.53890959 C23.1081351,1.24521115 23.0391395,0.934391272 22.8495129,0.696886255 C22.6594412,0.459381238 22.37055,0.321531746 22.0647438,0.321531746 L9.74702864,0.321531746 C9.44077727,0.321531746 9.15188607,0.459820249 8.96270463,0.696886255 C8.77352318,0.933952261 8.70408247,1.24433312 8.77485858,1.53890959 L10.4271916,8.31109515 L9.76661449,8.31109515 C8.57143289,8.31109515 7.59837256,9.27121248 7.59837256,10.4503963 L7.59837256,13.0001729 C7.59837256,14.1793568 8.57143289,15.1390351 9.76661449,15.1390351 L10.5322429,15.1390351 L10.5322429,17.8367585 C7.63086726,18.8671176 5.04063943,20.7487192 3.17953915,23.1922551 C1.09943353,25.9246604 -4.45132811e-05,29.1781718 -4.45132811e-05,32.6042146 C-4.45132811e-05,41.2536117 7.13587957,48.29096 15.9058862,48.29096 C24.676338,48.29096 31.8118169,41.2531727 31.8118169,32.6042146 C31.8118169,29.1974883 30.7239123,25.9567082 28.6633926,23.2352782 C26.8209879,20.7987665 24.2543521,18.9149698 21.3756782,17.8710013 L21.3756782,17.8710013 Z" id="Fill-15" fill="#000000" mask="url(#mask-2)"></path>
                </g>
                <path d="M19.8886115,19.6637741 C20.0096876,19.8143549 20.1721611,19.9337659 20.3680195,19.9939105 C26.1903567,21.7978072 30.102629,27.0571604 30.102629,33.08171 L30.102629,33.083027 C27.0289869,34.4176209 20.0800186,36.6236517 16.8995447,34.0949477 C12.7860724,30.8265099 5.07459154,31.5302447 2.35082387,31.9047212 C2.32411591,32.2554911 2.30586546,32.608017 2.30586546,32.9653721 C2.30586546,40.5716788 8.55731065,46.737151 16.2692366,46.737151 C23.9811625,46.737151 30.2330529,40.5716788 30.2330529,32.9653721 C30.2330529,26.5944427 25.8453788,21.2367509 19.8886115,19.6637741" id="Fill-18" fill="#FEE109"></path>
                <path d="M12.114456,19.9668674 C12.2831613,19.9155031 12.4215976,19.8154085 12.5373321,19.6951195 C7.04661892,21.1943425 2.91489617,25.9150291 2.36916335,31.6665138 C2.93047582,26.2074105 6.69986046,21.6039398 12.114456,19.9668674" id="Fill-20" fill="#000000"></path>
            </g>
        </g>
    </g>
</svg>