
<svg width="52px" height="65px" viewBox="0 0 52 65" version="1.1" xmlns="http://www.w3.org/2000/svg" xmlns:xlink="http://www.w3.org/1999/xlink">
    <!-- Generator: Sketch 46 (44423) - http://www.bohemiancoding.com/sketch -->
    <desc>Created with Sketch.</desc>
    <defs></defs>
    <g id="Page-1" stroke="none" stroke-width="1" fill="none" fill-rule="evenodd">
        <g id="Mobile" transform="translate(-331.000000, -507.000000)">
            <g id="Buttons-Active-1" transform="translate(331.000000, 507.000000)">
                <rect id="Rectangle-6-Copy" fill="#2F2E56" x="14.0247123" y="41.297561" width="10.060423" height="9.9771542"></rect>
                <rect id="Rectangle-6-Copy-2" fill="#FFFFFF" x="0.851963746" y="54.3612805" width="10.060423" height="9.9771542"></rect>
                <rect id="Rectangle-6-Copy-3" fill="#00E3E9" x="14.0247123" y="54.3612805" width="10.060423" height="9.9771542"></rect>
                <rect id="Rectangle-6-Copy-4" fill="#FFFFFF" x="27.7701891" y="41.297561" width="10.060423" height="9.9771542"></rect>
                <rect id="Rectangle-6-Copy-9" fill="#2F2E56" x="41.5156658" y="41.297561" width="10.060423" height="9.9771542"></rect>
                <rect id="Rectangle-6-Copy-5" fill="#FFC439" x="27.7701891" y="54.3612805" width="10.060423" height="9.9771542"></rect>
                <rect id="Rectangle-6-Copy-10" fill="#040404" x="41.5156658" y="54.3612805" width="10.060423" height="9.9771542"></rect>
                <rect id="Rectangle-6" fill="#040404" x="0.851963746" y="41.297561" width="10.060423" height="9.9771542"></rect>
                <rect id="Rectangle-6-Copy" fill="#FFFFFF" x="14.0247123" y="0.907317073" width="10.060423" height="9.9771542"></rect>
                <rect id="Rectangle-6-Copy-2" fill="#2F2E56" x="0.851963746" y="13.9710366" width="10.060423" height="9.9771542"></rect>
                <rect id="Rectangle-6-Copy-3" fill="#2D223A" x="14.0247123" y="13.9710366" width="10.060423" height="9.9771542"></rect>
                <rect id="Rectangle-6-Copy-4" fill="#2F2E56" x="27.7701891" y="0.907317073" width="10.060423" height="9.9771542"></rect>
                <rect id="Rectangle-6-Copy-9" fill="#040404" x="41.5156658" y="0.907317073" width="10.060423" height="9.9771542"></rect>
                <rect id="Rectangle-6-Copy-5" fill="#FFFFFF" x="27.7701891" y="13.9710366" width="10.060423" height="9.9771542"></rect>
                <rect id="Rectangle-6-Copy-10" fill="#FFC439" x="41.5156658" y="13.9710366" width="10.060423" height="9.9771542"></rect>
                <rect id="Rectangle-6-Copy-6" fill="#FFFFFF" x="0.851963746" y="27.0347561" width="10.060423" height="9.9771542"></rect>
                <rect id="Rectangle-6-Copy-7" fill="#FFC439" x="14.0247123" y="27.0347561" width="10.060423" height="9.9771542"></rect>
                <rect id="Rectangle-6-Copy-8" fill="#2F2E56" x="27.7701891" y="27.0347561" width="10.060423" height="9.9771542"></rect>
                <rect id="Rectangle-6-Copy-11" fill="#2F2E56" x="41.5156658" y="27.0347561" width="10.060423" height="9.9771542"></rect>
                <rect id="Rectangle-6" fill="#00E3E9" x="0.851963746" y="0.907317073" width="10.060423" height="9.9771542"></rect>
            </g>
        </g>
    </g>
</svg>