
<svg width="199px" height="161px" viewBox="0 0 199 161" version="1.1" xmlns="http://www.w3.org/2000/svg" xmlns:xlink="http://www.w3.org/1999/xlink">
    <!-- Generator: Sketch 46.2 (44496) - http://www.bohemiancoding.com/sketch -->
    <desc>Created with Sketch.</desc>
    <defs>
        <rect id="path-1" x="0" y="0" width="129.11828" height="82.2865169" rx="4.94802"></rect>
    </defs>
    <g id="Page-1" stroke="none" stroke-width="1" fill="none" fill-rule="evenodd">
        <g id="Bad_red" transform="translate(-14.000000, -441.000000)">
            <g id="Main-Machine-Part-2" transform="translate(14.000000, 441.000000)">
                <rect id="Rectangle-10-Copy-31" fill="#D33B43" transform="translate(161.290579, 44.477528) rotate(90.000000) translate(-161.290579, -44.477528) " x="156.290579" y="9.88061798" width="10" height="69.1938202" rx="3.9984"></rect>
                <rect id="Rectangle-10-Copy-32" fill="#D33B43" transform="translate(126.324650, 100.101124) rotate(90.000000) translate(-126.324650, -100.101124) " x="121.32465" y="34.776474" width="10" height="130.649299" rx="3.9984"></rect>
                <path d="M128.849462,92.2936474 L128.849462,106.976016" id="Line-5-Copy-24" stroke="#2B2037" stroke-width="1.1424" stroke-linecap="square"></path>
                <path d="M185.849462,38.492799 L185.849462,49.5" id="Line-5-Copy-42" stroke="#2B2037" stroke-width="1.1424" stroke-linecap="square"></path>
                <path d="M136.849462,38.492799 L136.849462,49.5" id="Line-5-Copy-42" stroke="#2B2037" stroke-width="1.1424" stroke-linecap="square"></path>
                <path d="M165.849462,38.492799 L165.849462,49.5" id="Line-5-Copy-42" stroke="#2B2037" stroke-width="1.1424" stroke-linecap="square"></path>
                <path d="M174.139785,92.7599395 L174.139785,107.442308" id="Line-5-Copy-25" stroke="#2B2037" stroke-width="1.1424" stroke-linecap="square"></path>
                <rect id="Rectangle-10-Copy-48" fill="#FE4B55" transform="translate(132.000000, 43.817416) scale(-1, -1) rotate(90.000000) translate(-132.000000, -43.817416) " x="123" y="40" width="18" height="7.63483146"></rect>
                <rect id="Rectangle-10-Copy-48" fill="#FE4B55" transform="translate(190.000000, 43.817416) scale(-1, -1) rotate(90.000000) translate(-190.000000, -43.817416) " x="181" y="40" width="18" height="7.63483146"></rect>
                <rect id="Rectangle-10-Copy-49" fill="#D33B43" transform="translate(64.268817, 81.983146) scale(1, -1) translate(-64.268817, -81.983146) " x="59.2688172" y="59.0786517" width="10" height="45.8089888" rx="3.9984"></rect>
                <path d="M184.767059,160.391125 C183.238854,160.391125 182,159.081561 182,157.466132 L182,98.0261156 C182,96.4106871 183.238854,95.1011236 184.767059,95.1011236 L189.232941,95.1011236 C190.761146,95.1011236 192,96.4106871 192,98.0261156 L192,157.466132 C192,159.081561 190.761146,160.391125 189.232941,160.391125 L184.767059,160.391125 Z" id="Rectangle-10-Copy-50" fill="#D33B43"></path>
                <g id="Rectangle-5-Copy-5">
                    <use fill="#040404" fill-rule="evenodd" xlink:href="#path-1"></use>
                    <rect stroke="#FE4B55" stroke-width="1.41372" x="0.70686" y="0.70686" width="127.70456" height="80.8727969" rx="4.94802"></rect>
                </g>
                <rect id="Rectangle-10-Copy-35" fill="#FE4B55" x="176" y="153" width="22.9354839" height="7.63483146"></rect>
                <rect id="Rectangle-10-Copy-52" fill="#FE4B55" x="53" y="82" width="22.9354839" height="7.63483146"></rect>
                <path d="M87.8494624,92.2936474 L87.8494624,106.976016" id="Line-5-Copy-27" stroke="#2B2037" stroke-width="1.1424" stroke-linecap="square"></path>
                <path d="M191.936523,152.634831 L182.508278,152.634831" id="Line-5-Copy-28" stroke="#2B2037" stroke-width="1.1424" stroke-linecap="square"></path>
                <path d="M191.428245,127 L182,127" id="Line-5-Copy-28" stroke="#2B2037" stroke-width="1.1424" stroke-linecap="square"></path>
                <path d="M69.4282452,90 L60,90" id="Line-5-Copy-43" stroke="#2B2037" stroke-width="1.1424" stroke-linecap="square"></path>
            </g>
        </g>
    </g>
</svg>