
<svg width="35px" height="31px" viewBox="0 0 35 31" version="1.1" xmlns="http://www.w3.org/2000/svg" xmlns:xlink="http://www.w3.org/1999/xlink">
    <!-- Generator: Sketch 46.2 (44496) - http://www.bohemiancoding.com/sketch -->
    <desc>Created with Sketch.</desc>
    <defs>
        <polygon id="path-1" points="6.12951807 0.335844444 6.12951807 1.5951037 0.206829819 1.5951037 0.206829819 0.335844444 6.12951807 0.335844444"></polygon>
        <polygon id="path-3" points="6.12951807 0.335844444 6.12951807 1.5951037 0.206829819 1.5951037 0.206829819 0.335844444 6.12951807 0.335844444"></polygon>
    </defs>
    <g id="Page-1" stroke="none" stroke-width="1" fill="none" fill-rule="evenodd">
        <g id="Artboard-Copy" transform="translate(-264.000000, -314.000000)">
            <g id="Light-bulb" transform="translate(264.000000, 314.000000)">
                <path d="M16.528,11.4008786 C16.4,11.4433895 13.6693333,12.0385433 12.944,15.9495536 C12.9013333,16.2471305 12.6026667,16.4596854 12.304,16.4596854 L12.176,16.4596854 C11.8346667,16.4171744 11.5786667,16.0770866 11.664,15.7369987 C12.5173333,10.9332578 16.1013333,10.1680601 16.272,10.1680601 C16.6133333,10.0830381 16.9546667,10.338104 17.04,10.6781919 C17.0826667,10.9757687 16.8693333,11.3158566 16.528,11.4008786 M17.9786667,8 C13.584,8 10,11.5709225 10,15.9495536 C10,19.0528553 11.792,21.7310472 14.3946667,23.0484625 L14.3946667,27.002409 C14.3946667,28.1076945 15.2906667,29 16.4,29 L19.9413333,29 C21.0506667,29 21.9466667,28.1076945 21.9466667,27.002409 L21.9466667,22.8788437 C24.3786667,21.5184923 26,18.9253224 26,15.9495536 C25.9573333,11.5709225 22.3733333,8 17.9786667,8" id="Fill-1" fill="#A8B4D8"></path>
                <path d="M18.5,6 C18.7666667,6 19,5.70422535 19,5.36619718 L19,0.633802817 C19,0.295774648 18.7666667,0 18.5,0 C18.2333333,0 18,0.295774648 18,0.633802817 L18,5.4084507 C18,5.70422535 18.2333333,6 18.5,6" id="Fill-3" fill="#FFFFFF"></path>
                <g id="Group-7" transform="translate(28.000000, 15.000000)">
                    <mask id="mask-2" fill="white">
                        <use xlink:href="#path-1"></use>
                    </mask>
                    <g id="Clip-6"></g>
                    <path d="M5.5084488,0.335844444 L0.828064759,0.335844444 C0.496739458,0.335844444 0.206829819,0.629671605 0.206829819,0.965474074 C0.206829819,1.30127654 0.496739458,1.5951037 0.828064759,1.5951037 L5.5084488,1.5951037 C5.8397741,1.5951037 6.12968373,1.30127654 6.12968373,0.965474074 C6.12968373,0.629671605 5.8397741,0.335844444 5.5084488,0.335844444" id="Fill-5" fill="#FFFFFF" mask="url(#mask-2)"></path>
                </g>
                <g id="Group-7" transform="translate(3.500000, 16.000000) scale(1, -1) translate(-3.500000, -16.000000) translate(0.000000, 15.000000)">
                    <mask id="mask-4" fill="white">
                        <use xlink:href="#path-3"></use>
                    </mask>
                    <g id="Clip-6"></g>
                    <path d="M5.5084488,0.335844444 L0.828064759,0.335844444 C0.496739458,0.335844444 0.206829819,0.629671605 0.206829819,0.965474074 C0.206829819,1.30127654 0.496739458,1.5951037 0.828064759,1.5951037 L5.5084488,1.5951037 C5.8397741,1.5951037 6.12968373,1.30127654 6.12968373,0.965474074 C6.12968373,0.629671605 5.8397741,0.335844444 5.5084488,0.335844444" id="Fill-5" fill="#FFFFFF" mask="url(#mask-4)"></path>
                </g>
                <path d="M26.1487354,23.2058078 C25.8780208,22.9313974 25.4730749,22.9313974 25.2023603,23.2058078 C24.9325466,23.4797617 24.9325466,23.8906924 25.2023603,24.1646463 L28.8058828,27.8173641 C28.9414653,27.9538844 29.1216414,28 29.3018175,28 C29.4815432,28 29.6621698,27.9538844 29.7973019,27.8173641 C30.067566,27.5434103 30.067566,27.1324795 29.7973019,26.8585257 L26.1487354,23.2058078 Z" id="Fill-11" fill="#FFFFFF"></path>
                <path d="M21.3478666,30 L15.6521334,30 C15.3047637,30 15,30.233 15,30.5 C15,30.7666667 15.3047637,31 15.6521334,31 L21.3478666,31 C21.6956711,31 22,30.7666667 22,30.5 C22,30.233 21.6956711,30 21.3478666,30" id="Fill-13" fill="#A8B4D8"></path>
                <path d="M10.8063063,23.2054795 L7.2027027,26.8584475 C6.93243243,27.1328767 6.93243243,27.543379 7.2027027,27.8178082 C7.33783784,27.9543379 7.51801802,28 7.6981982,28 C7.87837838,28 8.05855856,27.9543379 8.19369369,27.8178082 L11.7972973,24.1648402 C12.0675676,23.890411 12.0675676,23.4799087 11.7972973,23.2054795 C11.481982,22.9315068 11.0765766,22.9315068 10.8063063,23.2054795" id="Fill-17" fill="#FFFFFF"></path>
                <path d="M25.6594318,9 C25.8407955,9 26.0230682,8.9543379 26.1594318,8.8173516 L29.7957955,5.16438356 C30.0680682,4.89041096 30.0680682,4.47945205 29.7957955,4.20547945 C29.5230682,3.93150685 29.1139773,3.93150685 28.84125,4.20547945 L25.2048864,7.85844749 C24.9317045,8.13242009 24.9317045,8.543379 25.2048864,8.8173516 C25.2953409,8.9086758 25.4776136,9 25.6594318,9" id="Fill-19" fill="#FFFFFF"></path>
                <path d="M10.7954545,8.8173516 C10.9318182,8.9543379 11.1136364,9 11.2954545,9 C11.4772727,9 11.6590909,8.9543379 11.7954545,8.8173516 C12.0681818,8.543379 12.0681818,8.13242009 11.7954545,7.85844749 L8.15909091,4.20547945 C7.88636364,3.93150685 7.47727273,3.93150685 7.20454545,4.20547945 C6.93181818,4.47945205 6.93181818,4.89041096 7.20454545,5.16438356 L10.7954545,8.8173516 Z" id="Fill-21" fill="#FFFFFF"></path>
            </g>
        </g>
    </g>
</svg>