
<svg width="35px" height="32px" viewBox="0 0 35 32" version="1.1" xmlns="http://www.w3.org/2000/svg" xmlns:xlink="http://www.w3.org/1999/xlink">
    <!-- Generator: Sketch 46.2 (44496) - http://www.bohemiancoding.com/sketch -->
    <desc>Created with Sketch.</desc>
    <defs>
        <polygon id="path-1" points="6.12951807 0.335844444 6.12951807 1.5951037 0.206829819 1.5951037 0.206829819 0.335844444 6.12951807 0.335844444"></polygon>
        <polygon id="path-3" points="6.12951807 0.335844444 6.12951807 1.5951037 0.206829819 1.5951037 0.206829819 0.335844444 6.12951807 0.335844444"></polygon>
    </defs>
    <g id="Page-1" stroke="none" stroke-width="1" fill="none" fill-rule="evenodd">
        <g id="Bad_red-Copy" transform="translate(-264.000000, -314.000000)">
            <g id="Light-bulb" transform="translate(264.000000, 314.000000)">
                <path d="M16.939006,11.5013185 C16.814759,11.5432938 14.1641566,12.1309481 13.4600904,15.9926765 C13.4186747,16.2865037 13.1287651,16.4963802 12.8388554,16.4963802 L12.7146084,16.4963802 C12.3832831,16.4544049 12.1347892,16.1186025 12.2176205,15.7828 C13.0459337,11.0395901 16.5248494,10.2840346 16.690512,10.2840346 C17.0218373,10.200084 17.3531627,10.4519358 17.435994,10.7877383 C17.4774096,11.0815654 17.2703313,11.4173679 16.939006,11.5013185 M18.3471386,8.14329383 C14.0813253,8.14329383 10.6024096,11.6692198 10.6024096,15.9926765 C10.6024096,19.0568741 12.3418675,21.7013185 14.8682229,23.0021333 L14.8682229,26.9062568 C14.8682229,27.9976148 15.7379518,28.8786765 16.814759,28.8786765 L20.252259,28.8786765 C21.3290663,28.8786765 22.1987952,27.9976148 22.1987952,26.9062568 L22.1987952,22.8346519 C24.559488,21.491442 26.1332831,18.9309481 26.1332831,15.9926765 C26.0918675,11.6692198 22.6129518,8.14329383 18.3471386,8.14329383" id="Fill-1" fill="#A2F344"></path>
                <path d="M18.222933,5.96049383 C18.5542583,5.96049383 18.8441679,5.66666667 18.8441679,5.3308642 L18.8441679,0.62962963 C18.8441679,0.29382716 18.5542583,0 18.222933,0 C17.8916077,0 17.601698,0.29382716 17.601698,0.62962963 L17.601698,5.37283951 C17.601698,5.66666667 17.8916077,5.96049383 18.222933,5.96049383" id="Fill-3" fill="#FFFFFF"></path>
                <g id="Group-7" transform="translate(28.162651, 14.901235)">
                    <mask id="mask-2" fill="white">
                        <use xlink:href="#path-1"></use>
                    </mask>
                    <g id="Clip-6"></g>
                    <path d="M5.5084488,0.335844444 L0.828064759,0.335844444 C0.496739458,0.335844444 0.206829819,0.629671605 0.206829819,0.965474074 C0.206829819,1.30127654 0.496739458,1.5951037 0.828064759,1.5951037 L5.5084488,1.5951037 C5.8397741,1.5951037 6.12968373,1.30127654 6.12968373,0.965474074 C6.12968373,0.629671605 5.8397741,0.335844444 5.5084488,0.335844444" id="Fill-5" fill="#FFFFFF" mask="url(#mask-2)"></path>
                </g>
                <g id="Group-7" transform="translate(3.500000, 15.580247) scale(1, -1) translate(-3.500000, -15.580247) translate(0.000000, 14.580247)">
                    <mask id="mask-4" fill="white">
                        <use xlink:href="#path-3"></use>
                    </mask>
                    <g id="Clip-6"></g>
                    <path d="M5.5084488,0.335844444 L0.828064759,0.335844444 C0.496739458,0.335844444 0.206829819,0.629671605 0.206829819,0.965474074 C0.206829819,1.30127654 0.496739458,1.5951037 0.828064759,1.5951037 L5.5084488,1.5951037 C5.8397741,1.5951037 6.12968373,1.30127654 6.12968373,0.965474074 C6.12968373,0.629671605 5.8397741,0.335844444 5.5084488,0.335844444" id="Fill-5" fill="#FFFFFF" mask="url(#mask-4)"></path>
                </g>
                <path d="M26.133366,22.9186864 C25.8844578,22.6664148 25.512131,22.6664148 25.2632229,22.9186864 C25.0151431,23.1705383 25.0151431,23.548316 25.2632229,23.8001679 L28.5764759,27.1581926 C28.701137,27.2836988 28.8667997,27.3260938 29.0324623,27.3260938 C29.1977108,27.3260938 29.3637877,27.2836988 29.4880346,27.1581926 C29.7365286,26.9063407 29.7365286,26.528563 29.4880346,26.2767111 L26.133366,22.9186864 Z" id="Fill-11" fill="#FFFFFF"></path>
                <path d="M21.2464006,30.0544889 L15.8205346,30.0544889 C15.4896235,30.0544889 15.1992997,30.3478963 15.1992997,30.6841185 C15.1992997,31.019921 15.4896235,31.3137481 15.8205346,31.3137481 L21.2464006,31.3137481 C21.5777259,31.3137481 21.8676355,31.019921 21.8676355,30.6841185 C21.8676355,30.3478963 21.5777259,30.0544889 21.2464006,30.0544889" id="Fill-13" fill="#A2F344"></path>
                <path d="M10.2710429,23.2121778 L6.95778991,26.5702025 C6.70929593,26.8224741 6.70929593,27.1998321 6.95778991,27.4521037 C7.0820369,27.5776099 7.24769955,27.6195852 7.4133622,27.6195852 C7.57902485,27.6195852 7.7446875,27.5776099 7.86893449,27.4521037 L11.1821875,24.094079 C11.4306815,23.8418074 11.4306815,23.4644494 11.1821875,23.2121778 C10.8922779,22.9603259 10.5195369,22.9603259 10.2710429,23.2121778" id="Fill-17" fill="#FFFFFF"></path>
                <path d="M26.0092018,8.77292346 C26.1744503,8.77292346 26.3405271,8.73094815 26.4647741,8.60502222 L29.7780271,5.24699753 C30.0261069,4.99514568 30.0261069,4.6173679 29.7780271,4.36551605 C29.5295331,4.1136642 29.1567922,4.1136642 28.9082982,4.36551605 L25.5950452,7.72354074 C25.346137,7.97539259 25.346137,8.35317037 25.5950452,8.60502222 C25.6774623,8.68897284 25.8435392,8.77292346 26.0092018,8.77292346" id="Fill-19" fill="#FFFFFF"></path>
                <path d="M10.4781212,8.56304691 C10.6023682,8.68897284 10.7680309,8.73094815 10.9336935,8.73094815 C11.0993562,8.73094815 11.2650188,8.68897284 11.3892658,8.56304691 C11.6377598,8.31119506 11.6377598,7.93341728 11.3892658,7.68156543 L8.0760128,4.32354074 C7.82751883,4.07168889 7.45477786,4.07168889 7.20628389,4.32354074 C6.95778991,4.57539259 6.95778991,4.95317037 7.20628389,5.20502222 L10.4781212,8.56304691 Z" id="Fill-21" fill="#FFFFFF"></path>
            </g>
        </g>
    </g>
</svg>