
<svg width="264px" height="21px" viewBox="0 0 264 21" version="1.1" xmlns="http://www.w3.org/2000/svg" xmlns:xlink="http://www.w3.org/1999/xlink">
    <!-- Generator: Sketch 46.2 (44496) - http://www.bohemiancoding.com/sketch -->
    <desc>Created with Sketch.</desc>
    <defs></defs>
    <g id="Page-1" stroke="none" stroke-width="1" fill="none" fill-rule="evenodd">
        <g id="Bad_red" transform="translate(-68.000000, -16.000000)">
            <g id="Logo" transform="translate(68.000000, 17.000000)">
                <path d="M12.5053997,17.1 L1.64779968,17.1 C1.3513982,17.1 1.13690035,17.0337007 1.00429968,16.9011 C0.871699022,16.7684993 0.805399685,16.5540015 0.805399685,16.2576 L0.805399685,1.0944 C0.805399685,0.797998518 0.871699022,0.583500663 1.00429968,0.4509 C1.13690035,0.318299337 1.3513982,0.252 1.64779968,0.252 L12.5053997,0.252 C12.8018012,0.252 13.016299,0.318299337 13.1488997,0.4509 C13.2815003,0.583500663 13.3477997,0.797998518 13.3477997,1.0944 L13.3477997,3.8322 C13.3477997,4.12860148 13.2815003,4.34309934 13.1488997,4.4757 C13.016299,4.60830066 12.8018012,4.6746 12.5053997,4.6746 L6.04699968,4.6746 L6.04699968,6.4764 L10.6099997,6.4764 C10.9064012,6.4764 11.120899,6.54269934 11.2534997,6.6753 C11.3861003,6.80790066 11.4523997,7.02239852 11.4523997,7.3188 L11.4523997,9.8226 C11.4523997,10.1190015 11.3861003,10.3334993 11.2534997,10.4661 C11.120899,10.5987007 10.9064012,10.665 10.6099997,10.665 L6.04699968,10.665 L6.04699968,12.6774 L12.5053997,12.6774 C12.8018012,12.6774 13.016299,12.7436993 13.1488997,12.8763 C13.2815003,13.0089007 13.3477997,13.2233985 13.3477997,13.5198 L13.3477997,16.2576 C13.3477997,16.5540015 13.2815003,16.7684993 13.1488997,16.9011 C13.016299,17.0337007 12.8018012,17.1 12.5053997,17.1 Z M22.3369997,16.2576 C22.3369997,16.5540015 22.2707004,16.7684993 22.1380997,16.9011 C22.0054991,17.0337007 21.7910012,17.1 21.4945997,17.1 L17.9377997,17.1 C17.6413982,17.1 17.4269004,17.0337007 17.2942997,16.9011 C17.1616991,16.7684993 17.0953997,16.5540015 17.0953997,16.2576 L17.0953997,13.7538 C17.0953997,13.0361964 17.1577991,12.4980018 17.2825997,12.1392 C17.4074003,11.7803982 17.641398,11.3592024 17.9845997,10.8756 L19.8799997,8.325 L17.9845997,5.7744 C17.6257979,5.29079758 17.3879003,4.86960179 17.2708997,4.5108 C17.1538991,4.15199821 17.0953997,3.61380359 17.0953997,2.8962 L17.0953997,1.0944 C17.0953997,0.797998518 17.1616991,0.583500663 17.2942997,0.4509 C17.4269004,0.318299337 17.6413982,0.252 17.9377997,0.252 L21.5413997,0.252 C21.8378012,0.252 22.0522991,0.318299337 22.1848997,0.4509 C22.3175004,0.583500663 22.3837997,0.797998518 22.3837997,1.0944 L22.3837997,2.709 C22.3837997,2.86500078 22.3915996,3.02879914 22.4071997,3.2004 C22.4227998,3.37200086 22.4851992,3.53579922 22.5943997,3.6918 L23.6239997,5.166 C23.7020001,5.29080062 23.7838993,5.38829965 23.8696997,5.4585 C23.9555002,5.52870035 24.0607991,5.5638 24.1855997,5.5638 L24.4663997,5.5638 C24.5912003,5.5638 24.6925993,5.52870035 24.7705997,5.4585 C24.8486001,5.38829965 24.9343993,5.29080062 25.0279997,5.166 L26.0809997,3.6918 C26.1902003,3.53579922 26.2525996,3.37200086 26.2681997,3.2004 C26.2837998,3.02879914 26.2915997,2.86500078 26.2915997,2.709 L26.2915997,1.0944 C26.2915997,0.797998518 26.3578991,0.583500663 26.4904997,0.4509 C26.6231004,0.318299337 26.8375982,0.252 27.1339997,0.252 L30.6907997,0.252 C30.9872012,0.252 31.2016991,0.318299337 31.3342997,0.4509 C31.4669004,0.583500663 31.5331997,0.797998518 31.5331997,1.0944 L31.5331997,2.8962 C31.5331997,3.61380359 31.4708003,4.15199821 31.3459997,4.5108 C31.2211991,4.86960179 30.9872014,5.29079758 30.6439997,5.7744 L28.7485997,8.3484 L30.6439997,10.8756 C31.0028015,11.3592024 31.2406991,11.7803982 31.3576997,12.1392 C31.4747003,12.4980018 31.5331997,13.0361964 31.5331997,13.7538 L31.5331997,16.2576 C31.5331997,16.5540015 31.4669004,16.7684993 31.3342997,16.9011 C31.2016991,17.0337007 30.9872012,17.1 30.6907997,17.1 L27.1339997,17.1 C26.8375982,17.1 26.6231004,17.0337007 26.4904997,16.9011 C26.3578991,16.7684993 26.2915997,16.5540015 26.2915997,16.2576 L26.2915997,13.941 C26.2915997,13.7849992 26.2837998,13.6212009 26.2681997,13.4496 C26.2525996,13.2779991 26.1902003,13.1142008 26.0809997,12.9582 L25.0513997,11.484 C24.9577993,11.3435993 24.8720001,11.2422003 24.7939997,11.1798 C24.7159993,11.1173997 24.6146003,11.0862 24.4897997,11.0862 L24.1621997,11.0862 C24.0373991,11.0862 23.9360001,11.1173997 23.8579997,11.1798 C23.7799993,11.2422003 23.6942002,11.3435993 23.6005997,11.484 L22.5475997,12.9582 C22.4383992,13.1142008 22.3759998,13.2779991 22.3603997,13.4496 C22.3447996,13.6212009 22.3369997,13.7849992 22.3369997,13.941 L22.3369997,16.2576 Z M40.2181998,17.1 L36.5911998,17.1 C36.2947983,17.1 36.0803004,17.0337007 35.9476998,16.9011 C35.8150991,16.7684993 35.7487998,16.5540015 35.7487998,16.2576 L35.7487998,1.0944 C35.7487998,0.797998518 35.8150991,0.583500663 35.9476998,0.4509 C36.0803004,0.318299337 36.2947983,0.252 36.5911998,0.252 L43.7515998,0.252 C45.8732104,0.252 47.3239959,0.673195788 48.1039998,1.5156 C48.8840037,2.35800421 49.2739998,3.45779321 49.2739998,4.815 L49.2739998,7.8102 C49.2739998,9.16740679 48.8840037,10.2671958 48.1039998,11.1096 C47.3239959,11.9520042 45.8732104,12.3732 43.7515998,12.3732 L41.0605998,12.3732 L41.0605998,16.2576 C41.0605998,16.5540015 40.9943004,16.7684993 40.8616998,16.9011 C40.7290991,17.0337007 40.5146012,17.1 40.2181998,17.1 Z M41.0137998,4.6278 L41.0137998,8.1612 L43.1197998,8.1612 C43.572202,8.1612 43.8685991,8.04420117 44.0089998,7.8102 C44.1494005,7.57619883 44.2195998,7.31100148 44.2195998,7.0146 L44.2195998,5.7744 C44.2195998,5.47799852 44.1494005,5.21280117 44.0089998,4.9788 C43.8685991,4.74479883 43.572202,4.6278 43.1197998,4.6278 L41.0137998,4.6278 Z M58.1929998,4.464 L58.1929998,7.4592 L59.9479998,7.4592 C60.3536018,7.4592 60.6265991,7.35390105 60.7669998,7.1433 C60.9074005,6.93269895 60.9775998,6.67140156 60.9775998,6.3594 L60.9775998,5.5638 C60.9775998,5.25179844 60.9074005,4.99050105 60.7669998,4.7799 C60.6265991,4.56929895 60.3536018,4.464 59.9479998,4.464 L58.1929998,4.464 Z M57.3505998,17.1 L53.7469998,17.1 C53.4505983,17.1 53.2361005,17.0337007 53.1034998,16.9011 C52.9708991,16.7684993 52.9045998,16.5540015 52.9045998,16.2576 L52.9045998,1.0944 C52.9045998,0.797998518 52.9708991,0.583500663 53.1034998,0.4509 C53.2361005,0.318299337 53.4505983,0.252 53.7469998,0.252 L61.5391998,0.252 C63.2864085,0.252 64.4914965,0.614696373 65.1544998,1.3401 C65.8175031,2.06550363 66.1489998,3.00539423 66.1489998,4.1598 L66.1489998,5.2362 C66.1489998,5.89140328 66.0515008,6.4490977 65.8564998,6.9093 C65.6614988,7.3695023 65.3222022,7.70099899 64.8385998,7.9038 C65.681004,7.99740047 66.3634972,8.34059704 66.8860998,8.9334 C67.4087024,9.52620296 67.6699998,10.3139951 67.6699998,11.2968 L67.6699998,16.2576 C67.6699998,16.5540015 67.6037005,16.7684993 67.4710998,16.9011 C67.3384991,17.0337007 67.1240013,17.1 66.8275998,17.1 L63.2005998,17.1 C62.9041983,17.1 62.6897005,17.0337007 62.5570998,16.9011 C62.4244991,16.7684993 62.3581998,16.5540015 62.3581998,16.2576 L62.3581998,12.6774 C62.3581998,12.3341983 62.2919005,12.0807008 62.1592998,11.9169 C62.0266991,11.7530992 61.7966014,11.6712 61.4689998,11.6712 L58.1929998,11.6712 L58.1929998,16.2576 C58.1929998,16.5540015 58.1267005,16.7684993 57.9940998,16.9011 C57.8614991,17.0337007 57.6470013,17.1 57.3505998,17.1 Z M83.1877998,17.1 L72.3301998,17.1 C72.0337984,17.1 71.8193005,17.0337007 71.6866998,16.9011 C71.5540992,16.7684993 71.4877998,16.5540015 71.4877998,16.2576 L71.4877998,1.0944 C71.4877998,0.797998518 71.5540992,0.583500663 71.6866998,0.4509 C71.8193005,0.318299337 72.0337984,0.252 72.3301998,0.252 L83.1877998,0.252 C83.4842013,0.252 83.6986992,0.318299337 83.8312998,0.4509 C83.9639005,0.583500663 84.0301998,0.797998518 84.0301998,1.0944 L84.0301998,3.8322 C84.0301998,4.12860148 83.9639005,4.34309934 83.8312998,4.4757 C83.6986992,4.60830066 83.4842013,4.6746 83.1877998,4.6746 L76.7293998,4.6746 L76.7293998,6.4764 L81.2923998,6.4764 C81.5888013,6.4764 81.8032992,6.54269934 81.9358998,6.6753 C82.0685005,6.80790066 82.1347998,7.02239852 82.1347998,7.3188 L82.1347998,9.8226 C82.1347998,10.1190015 82.0685005,10.3334993 81.9358998,10.4661 C81.8032992,10.5987007 81.5888013,10.665 81.2923998,10.665 L76.7293998,10.665 L76.7293998,12.6774 L83.1877998,12.6774 C83.4842013,12.6774 83.6986992,12.7436993 83.8312998,12.8763 C83.9639005,13.0089007 84.0301998,13.2233985 84.0301998,13.5198 L84.0301998,16.2576 C84.0301998,16.5540015 83.9639005,16.7684993 83.8312998,16.9011 C83.6986992,17.0337007 83.4842013,17.1 83.1877998,17.1 Z M95.8039999,17.1 L88.4095999,17.1 C88.1131984,17.1 87.8987005,17.0337007 87.7660999,16.9011 C87.6334992,16.7684993 87.5671999,16.5540015 87.5671999,16.2576 L87.5671999,13.5198 C87.5671999,13.2233985 87.6334992,13.0089007 87.7660999,12.8763 C87.8987005,12.7436993 88.1131984,12.6774 88.4095999,12.6774 L94.7041999,12.6774 C94.9070009,12.6774 95.0590994,12.6111007 95.1604999,12.4785 C95.2619004,12.3458993 95.3125999,12.1860009 95.3125999,11.9988 C95.3125999,11.7335987 95.2619004,11.5386006 95.1604999,11.4138 C95.0590994,11.2889994 94.9070009,11.2188001 94.7041999,11.2032 L91.1941999,10.7118 C90.1021944,10.5557992 89.2247032,10.1970028 88.5616999,9.6354 C87.8986966,9.07379719 87.5671999,8.13780655 87.5671999,6.8274 L87.5671999,4.3704 C87.5671999,3.04439337 87.9961956,2.02650355 88.8541999,1.3167 C89.7122042,0.606896451 90.8977923,0.252 92.4109999,0.252 L98.9629999,0.252 C99.2594014,0.252 99.4738992,0.318299337 99.6064999,0.4509 C99.7391005,0.583500663 99.8053999,0.797998518 99.8053999,1.0944 L99.8053999,3.879 C99.8053999,4.17540148 99.7391005,4.38989934 99.6064999,4.5225 C99.4738992,4.65510066 99.2594014,4.7214 98.9629999,4.7214 L93.5107999,4.7214 C93.3079989,4.7214 93.1520004,4.78769934 93.0427999,4.9203 C92.9335993,5.05290066 92.8789999,5.22059899 92.8789999,5.4234 C92.8789999,5.62620101 92.9335993,5.7977993 93.0427999,5.9382 C93.1520004,6.0786007 93.3079989,6.15659992 93.5107999,6.1722 L96.9973999,6.6402 C98.0894053,6.79620078 98.9707965,7.15499719 99.6415999,7.7166 C100.312403,8.27820281 100.6478,9.21419345 100.6478,10.5246 L100.6478,12.9816 C100.6478,14.3076066 100.214904,15.3254965 99.3490999,16.0353 C98.4832955,16.7451035 97.3016074,17.1 95.8039999,17.1 Z M112.094,17.1 L104.6996,17.1 C104.403198,17.1 104.188701,17.0337007 104.0561,16.9011 C103.923499,16.7684993 103.8572,16.5540015 103.8572,16.2576 L103.8572,13.5198 C103.8572,13.2233985 103.923499,13.0089007 104.0561,12.8763 C104.188701,12.7436993 104.403198,12.6774 104.6996,12.6774 L110.9942,12.6774 C111.197001,12.6774 111.349099,12.6111007 111.4505,12.4785 C111.5519,12.3458993 111.6026,12.1860009 111.6026,11.9988 C111.6026,11.7335987 111.5519,11.5386006 111.4505,11.4138 C111.349099,11.2889994 111.197001,11.2188001 110.9942,11.2032 L107.4842,10.7118 C106.392194,10.5557992 105.514703,10.1970028 104.8517,9.6354 C104.188697,9.07379719 103.8572,8.13780655 103.8572,6.8274 L103.8572,4.3704 C103.8572,3.04439337 104.286196,2.02650355 105.1442,1.3167 C106.002204,0.606896451 107.187792,0.252 108.701,0.252 L115.253,0.252 C115.549401,0.252 115.763899,0.318299337 115.8965,0.4509 C116.029101,0.583500663 116.0954,0.797998518 116.0954,1.0944 L116.0954,3.879 C116.0954,4.17540148 116.029101,4.38989934 115.8965,4.5225 C115.763899,4.65510066 115.549401,4.7214 115.253,4.7214 L109.8008,4.7214 C109.597999,4.7214 109.442,4.78769934 109.3328,4.9203 C109.223599,5.05290066 109.169,5.22059899 109.169,5.4234 C109.169,5.62620101 109.223599,5.7977993 109.3328,5.9382 C109.442,6.0786007 109.597999,6.15659992 109.8008,6.1722 L113.2874,6.6402 C114.379405,6.79620078 115.260797,7.15499719 115.9316,7.7166 C116.602403,8.27820281 116.9378,9.21419345 116.9378,10.5246 L116.9378,12.9816 C116.9378,14.3076066 116.504904,15.3254965 115.6391,16.0353 C114.773296,16.7451035 113.591607,17.1 112.094,17.1 Z M135.4544,17.1 L131.6636,17.1 C131.367199,17.1 131.152701,17.0337007 131.0201,16.9011 C130.887499,16.7684993 130.8212,16.5540015 130.8212,16.2576 L130.8212,13.2624 L127.241,8.4654 C126.882198,7.98179758 126.644301,7.56060179 126.5273,7.2018 C126.410299,6.84299821 126.3518,6.30480359 126.3518,5.5872 L126.3518,1.0944 C126.3518,0.797998518 126.418099,0.583500663 126.5507,0.4509 C126.683301,0.318299337 126.897799,0.252 127.1942,0.252 L130.7978,0.252 C131.094201,0.252 131.308699,0.318299337 131.4413,0.4509 C131.573901,0.583500663 131.6402,0.797998518 131.6402,1.0944 L131.6402,4.932 C131.6402,5.08800078 131.648,5.25179914 131.6636,5.4234 C131.6792,5.59500086 131.741599,5.75879922 131.8508,5.9148 L132.9272,7.5996 C133.0052,7.7400007 133.0871,7.84139969 133.1729,7.9038 C133.2587,7.96620031 133.363999,7.9974 133.4888,7.9974 L133.7228,7.9974 C133.847601,7.9974 133.9529,7.96620031 134.0387,7.9038 C134.1245,7.84139969 134.2064,7.7400007 134.2844,7.5996 L135.3608,5.9148 C135.470001,5.75879922 135.5324,5.59500086 135.548,5.4234 C135.5636,5.25179914 135.5714,5.08800078 135.5714,4.932 L135.5714,1.0944 C135.5714,0.797998518 135.637699,0.583500663 135.7703,0.4509 C135.902901,0.318299337 136.117399,0.252 136.4138,0.252 L139.9004,0.252 C140.196801,0.252 140.411299,0.318299337 140.5439,0.4509 C140.676501,0.583500663 140.7428,0.797998518 140.7428,1.0944 L140.7428,5.5872 C140.7428,6.30480359 140.680401,6.84299821 140.5556,7.2018 C140.430799,7.56060179 140.196802,7.98179758 139.8536,8.4654 L136.2968,13.2858 L136.2968,16.2576 C136.2968,16.5540015 136.230501,16.7684993 136.0979,16.9011 C135.965299,17.0337007 135.750801,17.1 135.4544,17.1 Z M178.1036,12.6774 C178.1036,13.3950036 177.998301,14.0462971 177.7877,14.6313 C177.577099,15.2163029 177.202703,15.7154979 176.6645,16.1289 C176.126297,16.5423021 175.389205,16.8659988 174.4532,17.1 C173.517195,17.3340012 172.323807,17.451 170.873,17.451 C169.422193,17.451 168.228805,17.3340012 167.2928,17.1 C166.356795,16.8659988 165.619703,16.5423021 165.0815,16.1289 C164.543297,15.7154979 164.168901,15.2163029 163.9583,14.6313 C163.747699,14.0462971 163.6424,13.3950036 163.6424,12.6774 L163.6424,1.0944 C163.6424,0.797998518 163.708699,0.583500663 163.8413,0.4509 C163.973901,0.318299337 164.188399,0.252 164.4848,0.252 L168.1586,0.252 C168.455002,0.252 168.669499,0.318299337 168.8021,0.4509 C168.934701,0.583500663 169.001,0.797998518 169.001,1.0944 L169.001,11.7648 C169.001,12.0768016 169.117999,12.3380989 169.352,12.5487 C169.586001,12.7593011 170.108596,12.8646 170.9198,12.8646 C171.746604,12.8646 172.276999,12.7593011 172.511,12.5487 C172.745001,12.3380989 172.862,12.0768016 172.862,11.7648 L172.862,1.0944 C172.862,0.797998518 172.928299,0.583500663 173.0609,0.4509 C173.193501,0.318299337 173.407999,0.252 173.7044,0.252 L177.2612,0.252 C177.557602,0.252 177.772099,0.318299337 177.9047,0.4509 C178.037301,0.583500663 178.1036,0.797998518 178.1036,1.0944 L178.1036,12.6774 Z M187.7012,4.464 L187.7012,7.4592 L189.4562,7.4592 C189.861802,7.4592 190.134799,7.35390105 190.2752,7.1433 C190.415601,6.93269895 190.4858,6.67140156 190.4858,6.3594 L190.4858,5.5638 C190.4858,5.25179844 190.415601,4.99050105 190.2752,4.7799 C190.134799,4.56929895 189.861802,4.464 189.4562,4.464 L187.7012,4.464 Z M186.8588,17.1 L183.2552,17.1 C182.958799,17.1 182.744301,17.0337007 182.6117,16.9011 C182.4791,16.7684993 182.4128,16.5540015 182.4128,16.2576 L182.4128,1.0944 C182.4128,0.797998518 182.4791,0.583500663 182.6117,0.4509 C182.744301,0.318299337 182.958799,0.252 183.2552,0.252 L191.0474,0.252 C192.794609,0.252 193.999697,0.614696373 194.6627,1.3401 C195.325704,2.06550363 195.6572,3.00539423 195.6572,4.1598 L195.6572,5.2362 C195.6572,5.89140328 195.559701,6.4490977 195.3647,6.9093 C195.169699,7.3695023 194.830403,7.70099899 194.3468,7.9038 C195.189204,7.99740047 195.871698,8.34059704 196.3943,8.9334 C196.916903,9.52620296 197.1782,10.3139951 197.1782,11.2968 L197.1782,16.2576 C197.1782,16.5540015 197.111901,16.7684993 196.9793,16.9011 C196.8467,17.0337007 196.632202,17.1 196.3358,17.1 L192.7088,17.1 C192.412399,17.1 192.197901,17.0337007 192.0653,16.9011 C191.9327,16.7684993 191.8664,16.5540015 191.8664,16.2576 L191.8664,12.6774 C191.8664,12.3341983 191.800101,12.0807008 191.6675,11.9169 C191.5349,11.7530992 191.304802,11.6712 190.9772,11.6712 L187.7012,11.6712 L187.7012,16.2576 C187.7012,16.5540015 187.634901,16.7684993 187.5023,16.9011 C187.3697,17.0337007 187.155202,17.1 186.8588,17.1 Z M208.8116,17.1 L201.4172,17.1 C201.120799,17.1 200.906301,17.0337007 200.7737,16.9011 C200.6411,16.7684993 200.5748,16.5540015 200.5748,16.2576 L200.5748,13.5198 C200.5748,13.2233985 200.6411,13.0089007 200.7737,12.8763 C200.906301,12.7436993 201.120799,12.6774 201.4172,12.6774 L207.7118,12.6774 C207.914601,12.6774 208.0667,12.6111007 208.1681,12.4785 C208.269501,12.3458993 208.3202,12.1860009 208.3202,11.9988 C208.3202,11.7335987 208.269501,11.5386006 208.1681,11.4138 C208.0667,11.2889994 207.914601,11.2188001 207.7118,11.2032 L204.2018,10.7118 C203.109795,10.5557992 202.232304,10.1970028 201.5693,9.6354 C200.906297,9.07379719 200.5748,8.13780655 200.5748,6.8274 L200.5748,4.3704 C200.5748,3.04439337 201.003796,2.02650355 201.8618,1.3167 C202.719805,0.606896451 203.905393,0.252 205.4186,0.252 L211.9706,0.252 C212.267002,0.252 212.4815,0.318299337 212.6141,0.4509 C212.746701,0.583500663 212.813,0.797998518 212.813,1.0944 L212.813,3.879 C212.813,4.17540148 212.746701,4.38989934 212.6141,4.5225 C212.4815,4.65510066 212.267002,4.7214 211.9706,4.7214 L206.5184,4.7214 C206.315599,4.7214 206.159601,4.78769934 206.0504,4.9203 C205.9412,5.05290066 205.8866,5.22059899 205.8866,5.4234 C205.8866,5.62620101 205.9412,5.7977993 206.0504,5.9382 C206.159601,6.0786007 206.315599,6.15659992 206.5184,6.1722 L210.005,6.6402 C211.097006,6.79620078 211.978397,7.15499719 212.6492,7.7166 C213.320004,8.27820281 213.6554,9.21419345 213.6554,10.5246 L213.6554,12.9816 C213.6554,14.3076066 213.222505,15.3254965 212.3567,16.0353 C211.490896,16.7451035 210.309208,17.1 208.8116,17.1 Z M229.103,17.1 L218.2454,17.1 C217.948999,17.1 217.734501,17.0337007 217.6019,16.9011 C217.4693,16.7684993 217.403,16.5540015 217.403,16.2576 L217.403,1.0944 C217.403,0.797998518 217.4693,0.583500663 217.6019,0.4509 C217.734501,0.318299337 217.948999,0.252 218.2454,0.252 L229.103,0.252 C229.399402,0.252 229.6139,0.318299337 229.7465,0.4509 C229.879101,0.583500663 229.9454,0.797998518 229.9454,1.0944 L229.9454,3.8322 C229.9454,4.12860148 229.879101,4.34309934 229.7465,4.4757 C229.6139,4.60830066 229.399402,4.6746 229.103,4.6746 L222.6446,4.6746 L222.6446,6.4764 L227.2076,6.4764 C227.504002,6.4764 227.7185,6.54269934 227.8511,6.6753 C227.983701,6.80790066 228.05,7.02239852 228.05,7.3188 L228.05,9.8226 C228.05,10.1190015 227.983701,10.3334993 227.8511,10.4661 C227.7185,10.5987007 227.504002,10.665 227.2076,10.665 L222.6446,10.665 L222.6446,12.6774 L229.103,12.6774 C229.399402,12.6774 229.6139,12.7436993 229.7465,12.8763 C229.879101,13.0089007 229.9454,13.2233985 229.9454,13.5198 L229.9454,16.2576 C229.9454,16.5540015 229.879101,16.7684993 229.7465,16.9011 C229.6139,17.0337007 229.399402,17.1 229.103,17.1 Z M246.6566,17.1 L234.746,17.1 C234.449599,17.1 234.235101,17.0337007 234.1025,16.9011 C233.9699,16.7684993 233.9036,16.5540015 233.9036,16.2576 L233.9036,1.0944 C233.9036,0.797998518 233.9699,0.583500663 234.1025,0.4509 C234.235101,0.318299337 234.449599,0.252 234.746,0.252 L238.373,0.252 C238.669402,0.252 238.8839,0.318299337 239.0165,0.4509 C239.149101,0.583500663 239.2154,0.797998518 239.2154,1.0944 L239.2154,12.6774 L242.4212,12.6774 L242.4212,8.8866 C242.4212,8.59019852 242.4875,8.37570066 242.6201,8.2431 C242.752701,8.11049934 242.967199,8.0442 243.2636,8.0442 L246.6566,8.0442 C246.953002,8.0442 247.1675,8.11049934 247.3001,8.2431 C247.432701,8.37570066 247.499,8.59019852 247.499,8.8866 L247.499,16.2576 C247.499,16.5540015 247.432701,16.7684993 247.3001,16.9011 C247.1675,17.0337007 246.953002,17.1 246.6566,17.1 Z M255.833,17.1 L252.206,17.1 C251.909599,17.1 251.695101,17.0337007 251.5625,16.9011 C251.4299,16.7684993 251.3636,16.5540015 251.3636,16.2576 L251.3636,1.0944 C251.3636,0.797998518 251.4299,0.583500663 251.5625,0.4509 C251.695101,0.318299337 251.909599,0.252 252.206,0.252 L262.6424,0.252 C262.938802,0.252 263.1533,0.318299337 263.2859,0.4509 C263.418501,0.583500663 263.4848,0.797998518 263.4848,1.0944 L263.4848,3.879 C263.4848,4.17540148 263.418501,4.38989934 263.2859,4.5225 C263.1533,4.65510066 262.938802,4.7214 262.6424,4.7214 L256.6754,4.7214 L256.6754,7.155 L260.747,7.155 C261.043402,7.155 261.2579,7.22129934 261.3905,7.3539 C261.523101,7.48650066 261.5894,7.70099852 261.5894,7.9974 L261.5894,10.8054 C261.5894,11.1018015 261.523101,11.3162993 261.3905,11.4489 C261.2579,11.5815007 261.043402,11.6478 260.747,11.6478 L256.6754,11.6478 L256.6754,16.2576 C256.6754,16.5540015 256.609101,16.7684993 256.4765,16.9011 C256.3439,17.0337007 256.129402,17.1 255.833,17.1 Z" id="Express-Y-URSELF" fill="#FFFFFF"></path>
                <text id="😜" font-family="AppleColorEmoji, Apple Color Emoji" font-size="17.3746947" font-weight="normal" line-spacing="19.6913203" letter-spacing="0.521240813" fill="#3B3A36">
                    <tspan x="141.5" y="21">😜</tspan>
                </text>
            </g>
        </g>
    </g>
</svg>