
<svg width="176px" height="165px" viewBox="0 0 176 165" version="1.1" xmlns="http://www.w3.org/2000/svg" xmlns:xlink="http://www.w3.org/1999/xlink">
    <!-- Generator: Sketch 46.2 (44496) - http://www.bohemiancoding.com/sketch -->
    <desc>Created with Sketch.</desc>
    <defs></defs>
    <g id="Page-1" stroke="none" stroke-width="1" fill="none" fill-rule="evenodd">
        <g id="Expressions_purple" transform="translate(-184.000000, -347.000000)">
            <g id="Main-Machine-Part-1" transform="translate(184.000000, 347.000000)">
                <rect id="Rectangle-5-Copy-6" fill="#EA37DA" x="39" y="6" width="119.739929" height="77.3715596" rx="3.59856"></rect>
                <rect id="Rectangle-5-Copy-7" fill="#040404" x="46" y="14" width="106.886491" height="62.8165138" rx="3.59856"></rect>
                <rect id="Rectangle-5-Copy" fill="#EA37DA" x="23" y="104" width="153" height="61" rx="3.238704"></rect>
                <g id="Group-4" transform="translate(130.124620, 148.182681)">
                    <ellipse id="Oval-Copy-9" fill="#040404" cx="2.31127933" cy="2.32058626" rx="2.31127933" ry="2.32058626"></ellipse>
                    <polygon id="Triangle" fill="#FFFFFF" points="3.08170577 2.32058626 1.54085288 1.54705751 1.54085288 3.09411501"></polygon>
                    <ellipse id="Oval-Copy-10" fill="#040404" cx="9.50192612" cy="2.32058626" rx="2.31127933" ry="2.32058626"></ellipse>
                    <polygon id="Triangle" fill="#FFFFFF" transform="translate(9.772063, 2.333968) rotate(-271.000000) translate(-9.772063, -2.333968) " points="10.5424898 2.33396839 9.00163695 1.56043963 9.00163695 3.10749714"></polygon>
                    <ellipse id="Oval-Copy-11" fill="#040404" cx="16.6925729" cy="2.32058626" rx="2.31127933" ry="2.32058626"></ellipse>
                    <ellipse id="Oval-Copy-12" fill="#040404" cx="23.8832197" cy="2.32058626" rx="2.31127933" ry="2.32058626"></ellipse>
                    <polygon id="Triangle" fill="#FFFFFF" transform="translate(23.883220, 2.320586) scale(-1, -1) translate(-23.883220, -2.320586) " points="24.6536462 2.32058626 23.1127933 1.54705751 23.1127933 3.09411501"></polygon>
                    <polygon id="Triangle-Copy" fill="#FFFFFF" transform="translate(16.705901, 2.333968) scale(1, -1) rotate(-271.000000) translate(-16.705901, -2.333968) " points="17.4763278 2.33396839 15.9354749 1.56043963 15.9354749 3.10749714"></polygon>
                    <rect id="Rectangle-8" fill="#000000" x="0" y="6.70391586" width="4.62255865" height="1.54705751"></rect>
                    <rect id="Rectangle-8-Copy" fill="#000000" x="7.1906468" y="6.70391586" width="4.62255865" height="1.54705751"></rect>
                    <rect id="Rectangle-8-Copy-2" fill="#000000" x="14.3812936" y="6.70391586" width="4.62255865" height="1.54705751"></rect>
                    <rect id="Rectangle-8-Copy-3" fill="#000000" x="21.5719404" y="6.70391586" width="4.62255865" height="1.54705751"></rect>
                </g>
                <circle id="Oval-Copy" fill="#040404" cx="32" cy="117" r="4"></circle>
                <circle id="Oval-Copy-3" fill="#040404" cx="32" cy="129" r="4"></circle>
                <circle id="Oval-Copy-5" fill="#040404" cx="32" cy="140" r="4"></circle>
                <circle id="Oval-Copy-5" fill="#040404" cx="32" cy="152" r="4"></circle>
                <circle id="Oval-Copy-3" fill="#040404" cx="165.5" cy="129.166667" r="4.5"></circle>
                <circle id="Oval-Copy-5" fill="#040404" cx="165.5" cy="140.833333" r="4.5"></circle>
                <circle id="Oval-Copy-5" fill="#040404" cx="165.5" cy="152.5" r="4.5"></circle>
                <g id="Group-2" transform="translate(84.000000, 143.000000)" fill="#040404">
                    <ellipse id="Oval-Copy-7" cx="0.926778358" cy="0.897560976" rx="1" ry="1"></ellipse>
                    <ellipse id="Oval-Copy-8" cx="3.93880802" cy="0.897560976" rx="1" ry="1"></ellipse>
                    <ellipse id="Oval-Copy-8" cx="6.95083768" cy="0.897560976" rx="1" ry="1"></ellipse>
                    <ellipse id="Oval-Copy-8" cx="9.96286734" cy="0.897560976" rx="1" ry="1"></ellipse>
                    <ellipse id="Oval-Copy-8" cx="12.974897" cy="0.897560976" rx="1" ry="1"></ellipse>
                    <ellipse id="Oval-Copy-8" cx="15.9869267" cy="0.897560976" rx="1" ry="1"></ellipse>
                    <ellipse id="Oval-Copy-8" cx="18.9989563" cy="0.897560976" rx="1" ry="1"></ellipse>
                    <ellipse id="Oval-Copy-8" cx="22.010986" cy="0.897560976" rx="1" ry="1"></ellipse>
                    <ellipse id="Oval-Copy-8" cx="25.0230157" cy="0.897560976" rx="1" ry="1"></ellipse>
                    <ellipse id="Oval-Copy-8" cx="28.0350453" cy="0.897560976" rx="1" ry="1"></ellipse>
                    <ellipse id="Oval-Copy-8" cx="31.047075" cy="0.897560976" rx="1" ry="1"></ellipse>
                    <ellipse id="Oval-Copy-8" cx="34.0591046" cy="0.897560976" rx="1" ry="1"></ellipse>
                    <ellipse id="Oval-Copy-8" cx="37.0711343" cy="0.897560976" rx="1" ry="1"></ellipse>
                </g>
                <g id="Group-2" transform="translate(84.000000, 146.000000)" fill="#040404">
                    <ellipse id="Oval-Copy-7" cx="0.926778358" cy="0.897560976" rx="1" ry="1"></ellipse>
                    <ellipse id="Oval-Copy-8" cx="3.93880802" cy="0.897560976" rx="1" ry="1"></ellipse>
                    <ellipse id="Oval-Copy-8" cx="6.95083768" cy="0.897560976" rx="1" ry="1"></ellipse>
                    <ellipse id="Oval-Copy-8" cx="9.96286734" cy="0.897560976" rx="1" ry="1"></ellipse>
                    <ellipse id="Oval-Copy-8" cx="12.974897" cy="0.897560976" rx="1" ry="1"></ellipse>
                    <ellipse id="Oval-Copy-8" cx="15.9869267" cy="0.897560976" rx="1" ry="1"></ellipse>
                    <ellipse id="Oval-Copy-8" cx="18.9989563" cy="0.897560976" rx="1" ry="1"></ellipse>
                    <ellipse id="Oval-Copy-8" cx="22.010986" cy="0.897560976" rx="1" ry="1"></ellipse>
                    <ellipse id="Oval-Copy-8" cx="25.0230157" cy="0.897560976" rx="1" ry="1"></ellipse>
                    <ellipse id="Oval-Copy-8" cx="28.0350453" cy="0.897560976" rx="1" ry="1"></ellipse>
                    <ellipse id="Oval-Copy-8" cx="31.047075" cy="0.897560976" rx="1" ry="1"></ellipse>
                    <ellipse id="Oval-Copy-8" cx="34.0591046" cy="0.897560976" rx="1" ry="1"></ellipse>
                    <ellipse id="Oval-Copy-8" cx="37.0711343" cy="0.897560976" rx="1" ry="1"></ellipse>
                </g>
                <g id="Group-2" transform="translate(84.000000, 149.000000)" fill="#040404">
                    <ellipse id="Oval-Copy-7" cx="0.926778358" cy="0.897560976" rx="1" ry="1"></ellipse>
                    <ellipse id="Oval-Copy-8" cx="3.93880802" cy="0.897560976" rx="1" ry="1"></ellipse>
                    <ellipse id="Oval-Copy-8" cx="6.95083768" cy="0.897560976" rx="1" ry="1"></ellipse>
                    <ellipse id="Oval-Copy-8" cx="9.96286734" cy="0.897560976" rx="1" ry="1"></ellipse>
                    <ellipse id="Oval-Copy-8" cx="12.974897" cy="0.897560976" rx="1" ry="1"></ellipse>
                    <ellipse id="Oval-Copy-8" cx="15.9869267" cy="0.897560976" rx="1" ry="1"></ellipse>
                    <ellipse id="Oval-Copy-8" cx="18.9989563" cy="0.897560976" rx="1" ry="1"></ellipse>
                    <ellipse id="Oval-Copy-8" cx="22.010986" cy="0.897560976" rx="1" ry="1"></ellipse>
                    <ellipse id="Oval-Copy-8" cx="25.0230157" cy="0.897560976" rx="1" ry="1"></ellipse>
                    <ellipse id="Oval-Copy-8" cx="28.0350453" cy="0.897560976" rx="1" ry="1"></ellipse>
                    <ellipse id="Oval-Copy-8" cx="31.047075" cy="0.897560976" rx="1" ry="1"></ellipse>
                    <ellipse id="Oval-Copy-8" cx="34.0591046" cy="0.897560976" rx="1" ry="1"></ellipse>
                    <ellipse id="Oval-Copy-8" cx="37.0711343" cy="0.897560976" rx="1" ry="1"></ellipse>
                </g>
                <g id="Group-2" transform="translate(84.000000, 152.000000)" fill="#040404">
                    <ellipse id="Oval-Copy-7" cx="0.926778358" cy="0.897560976" rx="1" ry="1"></ellipse>
                    <ellipse id="Oval-Copy-8" cx="3.93880802" cy="0.897560976" rx="1" ry="1"></ellipse>
                    <ellipse id="Oval-Copy-8" cx="6.95083768" cy="0.897560976" rx="1" ry="1"></ellipse>
                    <ellipse id="Oval-Copy-8" cx="9.96286734" cy="0.897560976" rx="1" ry="1"></ellipse>
                    <ellipse id="Oval-Copy-8" cx="12.974897" cy="0.897560976" rx="1" ry="1"></ellipse>
                    <ellipse id="Oval-Copy-8" cx="15.9869267" cy="0.897560976" rx="1" ry="1"></ellipse>
                    <ellipse id="Oval-Copy-8" cx="18.9989563" cy="0.897560976" rx="1" ry="1"></ellipse>
                    <ellipse id="Oval-Copy-8" cx="22.010986" cy="0.897560976" rx="1" ry="1"></ellipse>
                    <ellipse id="Oval-Copy-8" cx="25.0230157" cy="0.897560976" rx="1" ry="1"></ellipse>
                    <ellipse id="Oval-Copy-8" cx="28.0350453" cy="0.897560976" rx="1" ry="1"></ellipse>
                    <ellipse id="Oval-Copy-8" cx="31.047075" cy="0.897560976" rx="1" ry="1"></ellipse>
                    <ellipse id="Oval-Copy-8" cx="34.0591046" cy="0.897560976" rx="1" ry="1"></ellipse>
                    <ellipse id="Oval-Copy-8" cx="37.0711343" cy="0.897560976" rx="1" ry="1"></ellipse>
                </g>
                <g id="Group-2" transform="translate(84.000000, 155.000000)" fill="#040404">
                    <ellipse id="Oval-Copy-7" cx="0.926778358" cy="0.897560976" rx="1" ry="1"></ellipse>
                    <ellipse id="Oval-Copy-8" cx="3.93880802" cy="0.897560976" rx="1" ry="1"></ellipse>
                    <ellipse id="Oval-Copy-8" cx="6.95083768" cy="0.897560976" rx="1" ry="1"></ellipse>
                    <ellipse id="Oval-Copy-8" cx="9.96286734" cy="0.897560976" rx="1" ry="1"></ellipse>
                    <ellipse id="Oval-Copy-8" cx="12.974897" cy="0.897560976" rx="1" ry="1"></ellipse>
                    <ellipse id="Oval-Copy-8" cx="15.9869267" cy="0.897560976" rx="1" ry="1"></ellipse>
                    <ellipse id="Oval-Copy-8" cx="18.9989563" cy="0.897560976" rx="1" ry="1"></ellipse>
                    <ellipse id="Oval-Copy-8" cx="22.010986" cy="0.897560976" rx="1" ry="1"></ellipse>
                    <ellipse id="Oval-Copy-8" cx="25.0230157" cy="0.897560976" rx="1" ry="1"></ellipse>
                    <ellipse id="Oval-Copy-8" cx="28.0350453" cy="0.897560976" rx="1" ry="1"></ellipse>
                    <ellipse id="Oval-Copy-8" cx="31.047075" cy="0.897560976" rx="1" ry="1"></ellipse>
                    <ellipse id="Oval-Copy-8" cx="34.0591046" cy="0.897560976" rx="1" ry="1"></ellipse>
                    <ellipse id="Oval-Copy-8" cx="37.0711343" cy="0.897560976" rx="1" ry="1"></ellipse>
                </g>
                <circle id="Oval-Copy-6" fill="#040404" cx="165.5" cy="117.5" r="4.5"></circle>
                <circle id="Oval-Copy-2" fill="#040404" cx="142.5" cy="124.5" r="11.5"></circle>
                <rect id="Rectangle-10-Copy-34" fill="#AC26A0" x="94.33829" y="84.733945" width="10" height="16.853211"></rect>
                <path d="M152,125.5 C152,130.194449 148.194425,134 143.500055,134 C138.805575,134 135,130.194449 135,125.5 C135,120.805551 138.805575,117 143.500055,117 C148.194425,117 152,120.805551 152,125.5 Z" id="Page-1" stroke="#FFFFFF" stroke-width="0.59222016" stroke-linecap="round" stroke-dasharray="0,2.669136142730713"></path>
                <path d="M148,125.5 C148,128.537585 145.537569,131 142.500036,131 C139.462431,131 137,128.537585 137,125.5 C137,122.462415 139.462431,120 142.500036,120 C145.537569,120 148,122.462415 148,125.5 Z" id="Page-1" stroke="#FFFFFF" stroke-width="0.5" stroke-linecap="round" stroke-dasharray="0,1.734938621520996"></path>
                <path d="M93.1040892,89.5642202 L106.888476,89.5642202" id="Line-2-Copy-3" stroke="#2B2037" stroke-width="1.02816" stroke-linecap="square"></path>
                <path d="M90.1040892,95.9908257 L103.888476,95.9908257" id="Line-2-Copy-4" stroke="#2B2037" stroke-width="1.02816" stroke-linecap="square"></path>
                <rect id="Rectangle-10-Copy-35" fill="#EA37DA" x="90" y="82" width="18" height="6.89449541"></rect>
                <rect id="Rectangle-10-Copy-51" fill="#EA37DA" x="90" y="0" width="18" height="6.89449541"></rect>
                <rect id="Rectangle-10-Copy-36" fill="#EA37DA" x="91" y="97" width="18" height="7.66055046"></rect>
                <rect id="Rectangle-10-Copy-37" fill="#AC26A0" transform="translate(21.763860, 34.791284) scale(1, -1) rotate(90.000000) translate(-21.763860, -34.791284) " x="16.7638595" y="17.2167431" width="10" height="35.1490826" rx="3.59856"></rect>
                <rect id="Rectangle-10-Copy-38" fill="#AC26A0" transform="translate(9.000000, 45.000000) scale(1, -1) translate(-9.000000, -45.000000) " x="4" y="30" width="10" height="30" rx="3.59856"></rect>
                <rect id="Rectangle-10-Copy-39" fill="#EA37DA" transform="translate(9.000000, 58.387615) scale(-1, 1) translate(-9.000000, -58.387615) " x="0" y="54.940367" width="18" height="6.89449541"></rect>
                <rect id="Rectangle-10-Copy-47" fill="#EA37DA" transform="translate(36.055762, 33.791284) scale(-1, -1) rotate(90.000000) translate(-36.055762, -33.791284) " x="27.0557621" y="30.3440367" width="18" height="6.89449541"></rect>
            </g>
        </g>
    </g>
</svg>