
<svg width="21px" height="20px" viewBox="0 0 21 20" version="1.1" xmlns="http://www.w3.org/2000/svg" xmlns:xlink="http://www.w3.org/1999/xlink">
    <!-- Generator: Sketch 46 (44423) - http://www.bohemiancoding.com/sketch -->
    <desc>Created with Sketch.</desc>
    <defs>
        <polygon id="path-1" points="21 20 21 0 1.03075877e-15 0 0 20"></polygon>
    </defs>
    <g id="Page-1" stroke="none" stroke-width="1" fill="none" fill-rule="evenodd">
        <g id="Desktop-Home-Copy" transform="translate(-275.000000, -398.000000)">
            <g id="Group-3" transform="translate(250.000000, 390.000000)">
                <g id="thumbs-up-and-down-icons" transform="translate(1.000000, 0.000000)">
                    <g id="Page-1-Copy" transform="translate(34.500000, 18.000000) scale(-1, -1) translate(-34.500000, -18.000000) translate(24.000000, 8.000000)">
                        <mask id="mask-2" fill="white">
                            <use xlink:href="#path-1"></use>
                        </mask>
                        <g id="Clip-2"></g>
                        <path d="M14.5673684,7.58533539 L15.2745158,6.50013744 C15.9818842,5.24130781 16.4463158,3.02750398 15.2968421,1.07414766 C15.2305263,0.94392391 15.1421053,0.791996196 15.0534632,0.661772441 C14.1915789,-0.553649268 12.7766211,0.0974695048 12.8429368,1.07414766 C12.9094737,2.20275354 12.8871474,3.548399 12.3345158,4.56848508 C11.8482,5.4583474 10.7652632,6.17457805 9.81473684,6.50013744 C8.4,6.97762454 7.07368421,8.10623041 6.72,9.64721151 L5.39368421,9.64721151 L5.39368421,18.2853872 L7.51578947,18.2853872 C8.13451579,19.2837693 9.23977895,19.8914802 10.4336842,19.9131842 L14.2134632,19.9131842 C14.0810526,19.6744406 14.0147368,19.3922891 14.0147368,19.1101377 L14.0147368,18.4590189 C14.0147368,18.0683476 14.1473684,17.6776764 14.3903053,17.3738209 C13.7494737,17.0699655 13.3515789,16.4622547 13.3515789,15.767728 L13.3515789,15.1166092 C13.3515789,14.5957142 13.5726316,14.1182271 13.9924105,13.7709637 C13.5947368,13.4454044 13.3736842,12.9462133 13.3736842,12.4253183 L13.3736842,11.7741995 C13.3736842,10.992857 13.9042105,10.2983303 14.6555684,10.0812907 C14.4568421,9.79913922 14.3463158,9.45187588 14.3463158,9.10461253 L14.3463158,8.47519772 C14.3239895,8.17134229 14.4126316,7.8457829 14.5673684,7.58533539 L14.5673684,7.58533539 Z M2.91789474,17.873012 C2.91789474,18.2419793 2.6082,18.5458347 2.23263158,18.5458347 C1.85684211,18.5458347 1.54736842,18.2419793 1.54736842,17.873012 C1.54736842,17.5040447 1.85684211,17.2001893 2.23263158,17.2001893 C2.6082,17.2001893 2.91789474,17.5040447 2.91789474,17.873012 L2.91789474,17.873012 Z M0,19.6744406 L4.46526316,19.6744406 L4.46526316,8.23645417 L0,8.23645417 L0,19.6744406 Z M15.8271474,20 L19.0324105,20 C19.5410526,20 19.9389474,19.5876248 19.9389474,19.1101377 L19.9389474,18.4590189 C19.9389474,17.9598278 19.5187263,17.5691566 19.0324105,17.5691566 L15.8271474,17.5691566 C15.3410526,17.5691566 14.9210526,17.9815318 14.9210526,18.4590189 L14.9210526,19.1101377 C14.9429368,19.5876248 15.3410526,19.978296 15.8271474,20 L15.8271474,20 Z M15.1639895,16.6792943 L20.0936842,16.6792943 C20.6021053,16.6792943 21,16.266919 21,15.7894319 L21,15.1383132 C21,14.6391221 20.5797789,14.2484508 20.0936842,14.2484508 L15.1639895,14.2484508 C14.6555684,14.2484508 14.2578947,14.6608261 14.2578947,15.1383132 L14.2578947,15.7894319 C14.2578947,16.266919 14.6778947,16.6575903 15.1639895,16.6792943 L15.1639895,16.6792943 Z M15.1639895,13.3368846 L20.0936842,13.3368846 C20.6021053,13.3368846 21,12.9245093 21,12.4470222 L21,11.7959035 C21,11.2967124 20.6021053,10.9060411 20.0936842,10.9060411 L15.1639895,10.9060411 C14.6555684,10.9060411 14.2578947,11.3184164 14.2578947,11.7959035 L14.2578947,12.4470222 C14.2578947,12.9462133 14.6778947,13.3368846 15.1639895,13.3368846 L15.1639895,13.3368846 Z M16.1368421,9.99447485 C15.6284211,9.99447485 15.2305263,9.60380359 15.2305263,9.10461253 L15.2305263,8.47519772 C15.2305263,7.97600666 15.6503053,7.58533539 16.1368421,7.58533539 L19.5410526,7.58533539 C20.0271474,7.58533539 20.4252632,7.99771062 20.4473684,8.47519772 L20.4473684,9.12631649 C20.4473684,9.62550755 20.0271474,10.0161788 19.5410526,10.0161788 L16.1368421,9.99447485 L16.1368421,9.99447485 Z" id="Fill-1" fill="#2F2F2F" mask="url(#mask-2)"></path>
                    </g>
                </g>
            </g>
        </g>
    </g>
</svg>